<?xml version="1.0" encoding="UTF-8" standalone="no"?>
<!-- Created with Inkscape (http://www.inkscape.org/) -->

<svg
   xmlns:dc="http://purl.org/dc/elements/1.1/"
   xmlns:cc="http://creativecommons.org/ns#"
   xmlns:rdf="http://www.w3.org/1999/02/22-rdf-syntax-ns#"
   xmlns:svg="http://www.w3.org/2000/svg"
   xmlns="http://www.w3.org/2000/svg"
   xmlns:sodipodi="http://sodipodi.sourceforge.net/DTD/sodipodi-0.dtd"
   xmlns:inkscape="http://www.inkscape.org/namespaces/inkscape"
   id="svg4136"
   version="1.1"
   inkscape:version="0.91 r13725"
   xml:space="preserve"
   width="32"
   height="32"
   viewBox="0 0 80 80"
   sodipodi:docname="230v.svg"
   inkscape:export-filename="\\elf\aquapi\Software\WebUi\img\devices\230v.png"
   inkscape:export-xdpi="36"
   inkscape:export-ydpi="36"><metadata
     id="metadata4142"><rdf:RDF><cc:Work
         rdf:about=""><dc:format>image/svg+xml</dc:format><dc:type
           rdf:resource="http://purl.org/dc/dcmitype/StillImage" /><dc:title></dc:title></cc:Work></rdf:RDF></metadata><defs
     id="defs4140"><clipPath
       clipPathUnits="userSpaceOnUse"
       id="clipPath4150"><path
         d="M 0,64 64,64 64,0 0,0 0,64 Z"
         id="path4152"
         inkscape:connector-curvature="0" /></clipPath><clipPath
       clipPathUnits="userSpaceOnUse"
       id="clipPath4162"><path
         d="m 12,50 40,0 0,-38 -40,0 0,38 z"
         id="path4164"
         inkscape:connector-curvature="0" /></clipPath><clipPath
       clipPathUnits="userSpaceOnUse"
       id="clipPath4182"><path
         d="m 12,50 40,0 0,-10 -40,0 0,10 z"
         id="path4184"
         inkscape:connector-curvature="0" /></clipPath></defs><sodipodi:namedview
     pagecolor="#ffffff"
     bordercolor="#666666"
     borderopacity="1"
     objecttolerance="10"
     gridtolerance="10"
     guidetolerance="10"
     inkscape:pageopacity="0"
     inkscape:pageshadow="2"
     inkscape:window-width="1366"
     inkscape:window-height="705"
     id="namedview4138"
     showgrid="false"
     inkscape:zoom="3.35"
     inkscape:cx="-55.314935"
     inkscape:cy="6.3082633"
     inkscape:window-x="-8"
     inkscape:window-y="-8"
     inkscape:window-maximized="1"
     inkscape:current-layer="g4144" /><g
     id="g4144"
     inkscape:groupmode="layer"
     inkscape:label="Elegant_circle-icons"
     transform="matrix(1.25,0,0,-1.25,0,80)"><g
       id="g4154"
       transform="translate(64,32)"
       style="fill:#e0995e;fill-opacity:0.99215686"><path
         d="m 0,0 c 0,-17.673 -14.327,-32 -32,-32 -17.673,0 -32,14.327 -32,32 0,17.673 14.327,32 32,32 C -14.327,32 0,17.673 0,0"
         style="fill:#e0995e;fill-opacity:0.99215686;fill-rule:nonzero;stroke:none"
         id="path4156"
         inkscape:connector-curvature="0" /></g><path
       style="fill:#ffffff;fill-opacity:0.99215686"
       d="m 16.691397,13.291568 c -1.558912,0.353417 -2.507071,1.191666 -3.003826,2.655628 -0.108028,0.318365 -0.11182,0.862865 -0.11182,16.057556 0,15.194691 0.0038,15.739192 0.11182,16.057556 0.438679,1.292808 1.21588,2.087376 2.444275,2.498894 l 0.499634,0.16738 15.398478,0 15.398478,0 0.462875,-0.161985 c 0.45088,-0.157787 0.976405,-0.453945 1.329183,-0.749059 0.421254,-0.352396 0.849513,-1.040801 1.091935,-1.75523 0.10803,-0.318371 0.11182,-0.863581 0.11182,-16.087514 l 0,-15.757975 -0.164956,-0.42718 c -0.244606,-0.633443 -0.436817,-0.944442 -0.845458,-1.367955 -0.451269,-0.467691 -0.887866,-0.748376 -1.510117,-0.970841 l -0.475282,-0.169921 -15.308603,-0.0083 c -8.419732,-0.0045 -15.362528,0.004 -15.428436,0.01891 z m 30.514277,2.509015 c 0.280899,0.117339 0.530526,0.352566 0.677621,0.638535 0.11164,0.217039 0.114345,0.585335 0.114345,15.565634 0,14.980299 -0.0027,15.348595 -0.114345,15.565634 -0.147095,0.285969 -0.396722,0.521197 -0.677621,0.638535 -0.199376,0.08328 -1.795641,0.09305 -15.205674,0.09305 -13.410033,0 -15.006298,-0.0098 -15.205674,-0.09305 -0.280899,-0.117338 -0.530526,-0.352566 -0.677621,-0.638535 -0.11164,-0.217039 -0.114345,-0.585335 -0.114345,-15.565634 0,-14.980299 0.0027,-15.348595 0.114345,-15.565634 0.143779,-0.279521 0.393727,-0.518749 0.664566,-0.636063 0.185495,-0.08035 1.941116,-0.09111 15.205674,-0.09318 13.425302,-0.0021 15.0193,0.0074 15.218729,0.09071 z M 31.04134,18.641946 c -0.667613,0.04519 -1.767591,0.205531 -2.067111,0.301318 -0.09886,0.03162 -0.381966,0.109732 -0.629121,0.173591 -1.028569,0.26576 -2.132753,0.746257 -3.295394,1.434025 -1.747839,1.033946 -3.462394,2.748014 -4.504867,4.503586 -0.611361,1.029559 -1.252599,2.489507 -1.421087,3.235478 -0.03349,0.148293 -0.102314,0.404435 -0.152932,0.569205 -0.417976,1.360557 -0.465552,4.300482 -0.09551,5.901751 0.767242,3.32004 2.443019,5.941389 5.095903,7.971312 1.437643,1.10005 3.275755,1.935754 5.27263,2.397221 1.651414,0.381632 4.4316,0.326328 5.991626,-0.119187 0.2142,-0.06117 0.470342,-0.12928 0.569204,-0.151353 0.656343,-0.146539 2.170418,-0.819914 3.145604,-1.398988 1.712294,-1.016774 3.370201,-2.656479 4.422904,-4.374345 1.37977,-2.251597 2.00346,-4.448276 2.001906,-7.05085 -7.43e-4,-1.239675 -0.137837,-2.498215 -0.345923,-3.175561 -0.05062,-0.16477 -0.119439,-0.420912 -0.152933,-0.569205 -0.03349,-0.148293 -0.154828,-0.525765 -0.26963,-0.838827 -1.522627,-4.152139 -4.966397,-7.297099 -9.212691,-8.413323 -1.253728,-0.329568 -2.993812,-0.487821 -4.352579,-0.395848 z m 2.666273,2.548009 c 3.105212,0.454103 6.015905,2.419726 7.684358,5.189333 0.732979,1.216735 1.26257,2.702909 1.46016,4.097599 0.09827,0.693614 0.09827,2.362116 0,3.05573 -0.566432,3.998166 -3.399186,7.459407 -7.197239,8.794053 -1.252673,0.440192 -2.268244,0.607319 -3.68485,0.606396 -1.067728,-6.95e-4 -1.759866,-0.0805 -2.606357,-0.300533 -2.79616,-0.726806 -4.966333,-2.293084 -6.631214,-4.785946 -0.713554,-1.068419 -1.384221,-2.894745 -1.584183,-4.31397 -0.09793,-0.695053 -0.09861,-2.296337 -0.0013,-3.025771 0.309479,-2.319412 1.417921,-4.532834 3.12118,-6.232612 1.924132,-1.920197 4.108736,-2.921109 6.982857,-3.199309 0.426137,-0.04125 1.840931,0.025 2.456566,0.11503 z m -6.553089,9.474046 c -0.205517,0.102413 -0.371361,0.241765 -0.476115,0.400059 -0.154795,0.23391 -0.160746,0.273378 -0.160746,1.065967 0,0.818021 0.0011,0.824621 0.179748,1.077532 0.530087,0.750441 1.656799,0.679964 2.069739,-0.129464 0.169197,-0.331655 0.171289,-1.571817 0.0032,-1.899579 -0.15359,-0.299493 -0.347044,-0.469647 -0.65917,-0.579771 -0.36905,-0.130209 -0.595397,-0.114769 -0.956659,0.06526 z m 9.130636,-0.06141 c -0.303408,0.111056 -0.606629,0.403836 -0.703055,0.678844 -0.0988,0.281773 -0.09732,1.408608 0.0022,1.693 0.04249,0.121404 0.182074,0.31543 0.310184,0.43117 0.563794,0.509354 1.423838,0.397294 1.857458,-0.24202 0.132854,-0.195876 0.152102,-0.29492 0.17024,-0.875973 0.01125,-0.36032 0.0038,-0.743783 -0.01651,-0.852138 -0.0843,-0.449346 -0.696226,-0.931473 -1.172307,-0.923639 -0.115339,0.0019 -0.317039,0.04274 -0.448224,0.09076 z"
       id="path4956"
       inkscape:connector-curvature="0" /></g></svg>