<?xml version="1.0" encoding="UTF-8" standalone="no"?>
<!-- Created with Inkscape (http://www.inkscape.org/) -->

<svg
   xmlns:dc="http://purl.org/dc/elements/1.1/"
   xmlns:cc="http://creativecommons.org/ns#"
   xmlns:rdf="http://www.w3.org/1999/02/22-rdf-syntax-ns#"
   xmlns:svg="http://www.w3.org/2000/svg"
   xmlns="http://www.w3.org/2000/svg"
   xmlns:sodipodi="http://sodipodi.sourceforge.net/DTD/sodipodi-0.dtd"
   xmlns:inkscape="http://www.inkscape.org/namespaces/inkscape"
   id="svg4136"
   version="1.1"
   inkscape:version="0.91 r13725"
   xml:space="preserve"
   width="32"
   height="32"
   viewBox="0 0 80 80"
   sodipodi:docname="dac.svg"
   inkscape:export-filename="\\elf\aquapi\Software\WebUi\img\devices\temperatura.png"
   inkscape:export-xdpi="36"
   inkscape:export-ydpi="36"><metadata
     id="metadata4142"><rdf:RDF><cc:Work
         rdf:about=""><dc:format>image/svg+xml</dc:format><dc:type
           rdf:resource="http://purl.org/dc/dcmitype/StillImage" /><dc:title></dc:title></cc:Work></rdf:RDF></metadata><defs
     id="defs4140"><clipPath
       clipPathUnits="userSpaceOnUse"
       id="clipPath4150"><path
         d="M 0,64 64,64 64,0 0,0 0,64 Z"
         id="path4152"
         inkscape:connector-curvature="0" /></clipPath><clipPath
       clipPathUnits="userSpaceOnUse"
       id="clipPath4162"><path
         d="m 12,50 40,0 0,-38 -40,0 0,38 z"
         id="path4164"
         inkscape:connector-curvature="0" /></clipPath><clipPath
       clipPathUnits="userSpaceOnUse"
       id="clipPath4182"><path
         d="m 12,50 40,0 0,-10 -40,0 0,10 z"
         id="path4184"
         inkscape:connector-curvature="0" /></clipPath><clipPath
       id="clipPath4150-1"
       clipPathUnits="userSpaceOnUse"><path
         inkscape:connector-curvature="0"
         id="path4152-4"
         d="M 0,64 64,64 64,0 0,0 0,64 Z" /></clipPath><clipPath
       id="clipPath4162-9"
       clipPathUnits="userSpaceOnUse"><path
         inkscape:connector-curvature="0"
         id="path4164-2"
         d="m 12,50 40,0 0,-38 -40,0 0,38 z" /></clipPath><clipPath
       id="clipPath4182-0"
       clipPathUnits="userSpaceOnUse"><path
         inkscape:connector-curvature="0"
         id="path4184-9"
         d="m 12,50 40,0 0,-10 -40,0 0,10 z" /></clipPath></defs><sodipodi:namedview
     pagecolor="#ffffff"
     bordercolor="#666666"
     borderopacity="1"
     objecttolerance="10"
     gridtolerance="10"
     guidetolerance="10"
     inkscape:pageopacity="0"
     inkscape:pageshadow="2"
     inkscape:window-width="1366"
     inkscape:window-height="705"
     id="namedview4138"
     showgrid="false"
     inkscape:zoom="4.7376154"
     inkscape:cx="5.8628571"
     inkscape:cy="27.929042"
     inkscape:window-x="-8"
     inkscape:window-y="-8"
     inkscape:window-maximized="1"
     inkscape:current-layer="g4144" /><g
     id="g4144"
     inkscape:groupmode="layer"
     inkscape:label="Elegant_circle-icons"
     transform="matrix(1.25,0,0,-1.25,0,80)"><rect
       style="opacity:0.95999995;fill:#c85c5c;fill-opacity:0.99215686;stroke:#c85c5c;stroke-width:20.88096619;stroke-linecap:square;stroke-linejoin:round;stroke-miterlimit:4;stroke-dasharray:none;stroke-dashoffset:0;stroke-opacity:0.99215686"
       id="rect3342"
       width="43.119034"
       height="43.119034"
       x="10.440483"
       y="-53.559517"
       transform="scale(1,-1)" /><text
       xml:space="preserve"
       style="font-style:normal;font-variant:normal;font-weight:normal;font-stretch:normal;font-size:16px;line-height:125%;font-family:sans-serif;-inkscape-font-specification:'sans-serif, Normal';text-align:start;letter-spacing:0px;word-spacing:0px;writing-mode:lr-tb;text-anchor:start;fill:#ffffff;fill-opacity:0.99215686;stroke:none;stroke-width:1px;stroke-linecap:butt;stroke-linejoin:miter;stroke-opacity:1"
       x="14.984375"
       y="-6.3981614"
       id="text4323"
       sodipodi:linespacing="125%"
       transform="scale(1,-1)"><tspan
         sodipodi:role="line"
         id="tspan4917"
         x="14.984375"
         y="-6.3981614">ADC</tspan></text>
<path
       style="fill:#fffefe;fill-opacity:1"
       d="m 30.576541,23.460285 c -2.118129,0.760284 -3.455246,2.994499 -3.060964,5.11464 0.510904,2.747255 2.946214,4.337327 5.767594,3.765794 l 0.603429,-0.122236 8.9757,5.277247 c 4.936632,2.902485 9.023398,5.277244 9.081702,5.277244 0.0583,0 0.206144,-0.140625 0.328531,-0.312501 l 0.222521,-0.312506 -7.850294,-7.010213 -7.850294,-7.010214 -0.06427,-0.688275 c -0.133749,-1.432302 -0.834475,-2.621317 -2.010764,-3.411934 -0.375535,-0.25241 -0.932976,-0.533219 -1.238748,-0.624026 -0.790795,-0.23484 -2.166322,-0.207854 -2.904141,0.05698 z M 5.7948803,28.474609 c -0.419037,2.392503 -0.457141,5.992131 -0.08875,8.383672 1.611069,10.458689 9.0945627,18.942031 19.1366127,21.693413 2.685577,0.735811 3.808454,0.874791 7.090376,0.877598 2.34785,0.0019 3.167473,-0.03714 4.124006,-0.196994 5.61426,-0.938219 10.399883,-3.329837 14.365883,-7.179357 2.348688,-2.27971 3.962476,-4.490707 5.387142,-7.380753 1.591785,-3.22905 2.390313,-6.215323 2.674234,-10.000872 0.134451,-1.792668 0.05098,-3.729037 -0.24716,-5.733574 l -0.12134,-0.815843 -1.463681,0 -1.463682,0 0.06955,0.277123 c 0.245978,0.980048 0.39122,2.601615 0.393166,4.389515 0.0019,1.795439 -0.131351,3.635296 -0.273713,3.777658 -0.02884,0.02884 -1.031203,-0.157168 -2.227479,-0.413338 -1.196276,-0.256171 -2.189802,-0.446432 -2.207836,-0.422801 -0.04928,0.06456 -0.726206,3.17001 -0.695058,3.18861 0.01483,0.0088 1.00368,0.225278 2.197474,0.480958 1.19379,0.255676 2.191061,0.484582 2.216159,0.508677 0.159272,0.152909 -1.629119,4.125005 -2.401355,5.333512 l -0.363986,0.569626 -1.611487,-1.193478 -1.611487,-1.193477 -0.959973,1.275011 c -0.527984,0.701258 -0.96122,1.310849 -0.962741,1.354648 -0.0015,0.0438 0.708883,0.61449 1.578683,1.268197 l 1.581447,1.188559 -0.848894,0.892311 c -0.466893,0.490771 -1.276567,1.249634 -1.799274,1.686364 -0.949472,0.793297 -2.490185,1.886679 -2.653228,1.882887 -0.04746,-0.0012 -0.476993,-0.761546 -0.954507,-1.689869 -0.477517,-0.928327 -0.900943,-1.709289 -0.940943,-1.735468 -0.0694,-0.04542 -2.647125,1.293067 -2.842861,1.476159 -0.05164,0.04831 0.323033,0.859773 0.832618,1.803253 0.509584,0.94348 0.905059,1.750139 0.878829,1.792579 -0.09503,0.15377 -2.405521,0.98465 -3.571024,1.28418 -1.039456,0.267138 -2.363964,0.511013 -3.771295,0.694398 l -0.406972,0.05303 0,-2.055181 0,-2.055181 -1.682164,0 -1.68216,0 0,2.059929 0,2.059926 -0.515498,-0.05898 C 27.500921,56.32074 25.467785,55.866112 23.685105,55.199777 23.088208,54.976669 22.5877,54.783605 22.572859,54.770749 c -0.01483,-0.01286 0.418627,-0.841022 0.963255,-1.840366 0.550781,-1.01064 0.948051,-1.856473 0.895191,-1.905963 -0.09695,-0.09076 -2.735719,-1.522803 -2.806011,-1.522803 -0.02123,0 -0.464348,0.81802 -0.984673,1.81782 -0.520325,0.999799 -0.963382,1.837683 -0.984573,1.861959 -0.07384,0.08459 -1.865055,-1.172626 -2.821499,-1.980358 -0.529842,-0.447466 -1.347993,-1.203299 -1.81811,-1.679627 L 14.161685,48.655352 15.721863,47.5066 c 0.858102,-0.631812 1.643897,-1.210584 1.746213,-1.28616 0.168263,-0.124286 0.09224,-0.261772 -0.796081,-1.439726 -0.54016,-0.716272 -1.028692,-1.289469 -1.085629,-1.273767 -0.05694,0.01571 -0.828776,0.565119 -1.715192,1.220922 -0.88642,0.655807 -1.655201,1.192374 -1.708405,1.192374 -0.135227,0 -1.135015,-1.715331 -1.644634,-2.821689 -0.6265477,-1.360196 -1.2400957,-3.056162 -1.1385997,-3.147308 0.04873,-0.04376 1.1019697,-0.289855 2.3405277,-0.546875 1.779426,-0.369257 2.252086,-0.503225 2.2527,-0.638488 0.0019,-0.448566 -0.607502,-3.047132 -0.714751,-3.047132 -0.06666,0 -1.141158,0.216541 -2.387774,0.481197 -1.2466157,0.264656 -2.2824697,0.465299 -2.3018967,0.445872 -0.01942,-0.01942 -0.110628,-0.663293 -0.202658,-1.430804 -0.193188,-1.611105 -0.141744,-4.004572 0.123097,-5.727084 0.09097,-0.591693 0.165406,-1.141108 0.165406,-1.220923 0,-0.113627 -0.303494,-0.145111 -1.398768,-0.145111 l -1.398764,0 -0.06177,0.35271 z"
       id="path4210"
       inkscape:connector-curvature="0" /></g></svg>