<?xml version="1.0" encoding="UTF-8" standalone="no"?>
<!-- Created with Inkscape (http://www.inkscape.org/) -->

<svg
   xmlns:dc="http://purl.org/dc/elements/1.1/"
   xmlns:cc="http://creativecommons.org/ns#"
   xmlns:rdf="http://www.w3.org/1999/02/22-rdf-syntax-ns#"
   xmlns:svg="http://www.w3.org/2000/svg"
   xmlns="http://www.w3.org/2000/svg"
   xmlns:sodipodi="http://sodipodi.sourceforge.net/DTD/sodipodi-0.dtd"
   xmlns:inkscape="http://www.inkscape.org/namespaces/inkscape"
   id="svg4136"
   version="1.1"
   inkscape:version="0.91 r13725"
   xml:space="preserve"
   width="32"
   height="32"
   viewBox="0 0 80 80"
   sodipodi:docname="chlodzenie.svg"
   inkscape:export-filename="\\elf\aquapi\Software\WebUi\img\devices\chlodzenie.png"
   inkscape:export-xdpi="36"
   inkscape:export-ydpi="36"><metadata
     id="metadata4142"><rdf:RDF><cc:Work
         rdf:about=""><dc:format>image/svg+xml</dc:format><dc:type
           rdf:resource="http://purl.org/dc/dcmitype/StillImage" /><dc:title></dc:title></cc:Work></rdf:RDF></metadata><defs
     id="defs4140"><clipPath
       clipPathUnits="userSpaceOnUse"
       id="clipPath4150"><path
         d="M 0,64 64,64 64,0 0,0 0,64 Z"
         id="path4152"
         inkscape:connector-curvature="0" /></clipPath><clipPath
       clipPathUnits="userSpaceOnUse"
       id="clipPath4162"><path
         d="m 12,50 40,0 0,-38 -40,0 0,38 z"
         id="path4164"
         inkscape:connector-curvature="0" /></clipPath><clipPath
       clipPathUnits="userSpaceOnUse"
       id="clipPath4182"><path
         d="m 12,50 40,0 0,-10 -40,0 0,10 z"
         id="path4184"
         inkscape:connector-curvature="0" /></clipPath></defs><sodipodi:namedview
     pagecolor="#ffffff"
     bordercolor="#666666"
     borderopacity="1"
     objecttolerance="10"
     gridtolerance="10"
     guidetolerance="10"
     inkscape:pageopacity="0"
     inkscape:pageshadow="2"
     inkscape:window-width="1366"
     inkscape:window-height="705"
     id="namedview4138"
     showgrid="false"
     inkscape:zoom="3.35"
     inkscape:cx="59.227696"
     inkscape:cy="5.6740258"
     inkscape:window-x="-8"
     inkscape:window-y="-8"
     inkscape:window-maximized="1"
     inkscape:current-layer="g4144" /><g
     id="g4144"
     inkscape:groupmode="layer"
     inkscape:label="Elegant_circle-icons"
     transform="matrix(1.25,0,0,-1.25,0,80)"><g
       id="g4154"
       transform="translate(64,32)"
       style="fill:#76c2af;fill-opacity:0.99215686"><path
         d="m 0,0 c 0,-17.673 -14.327,-32 -32,-32 -17.673,0 -32,14.327 -32,32 0,17.673 14.327,32 32,32 C -14.327,32 0,17.673 0,0"
         style="fill:#76c2af;fill-opacity:0.99215686;fill-rule:nonzero;stroke:none"
         id="path4156"
         inkscape:connector-curvature="0" /></g><rect
       style="opacity:0.98999999;fill:#77b3d4;fill-opacity:1;stroke:#000000;stroke-width:1;stroke-linecap:square;stroke-linejoin:miter;stroke-miterlimit:4;stroke-dasharray:3, 1;stroke-dashoffset:0;stroke-opacity:1"
       id="rect4222"
       width="8"
       height="8"
       x="2.701781"
       y="2.7544529"
       transform="scale(1,-1)" /><rect
       style="opacity:0.98999999;fill:#e0e0d1;fill-opacity:1;stroke:#000000;stroke-width:1;stroke-linecap:square;stroke-linejoin:miter;stroke-miterlimit:4;stroke-dasharray:3, 1;stroke-dashoffset:0;stroke-opacity:1"
       id="rect4222-6"
       width="8"
       height="8"
       x="11.519492"
       y="2.7544529"
       transform="scale(1,-1)" /><rect
       style="opacity:0.98999999;fill:#76c2af;fill-opacity:1;stroke:#000000;stroke-width:1;stroke-linecap:square;stroke-linejoin:miter;stroke-miterlimit:4;stroke-dasharray:3, 1;stroke-dashoffset:0;stroke-opacity:1"
       id="rect4222-8"
       width="8"
       height="8"
       x="20.3372"
       y="2.7544529"
       transform="scale(1,-1)" /><rect
       style="opacity:0.98999999;fill:#4f5d73;fill-opacity:1;stroke:#000000;stroke-width:1;stroke-linecap:square;stroke-linejoin:miter;stroke-miterlimit:4;stroke-dasharray:3, 1;stroke-dashoffset:0;stroke-opacity:1"
       id="rect4222-0"
       width="8"
       height="8"
       x="29.154913"
       y="2.7544529"
       transform="scale(1,-1)" /><rect
       style="opacity:0.98999999;fill:#e0995e;fill-opacity:1;stroke:#000000;stroke-width:1;stroke-linecap:square;stroke-linejoin:miter;stroke-miterlimit:4;stroke-dasharray:3, 1;stroke-dashoffset:0;stroke-opacity:1"
       id="rect4222-7"
       width="8"
       height="8"
       x="37.972618"
       y="2.7544529"
       transform="scale(1,-1)" /><rect
       style="opacity:0.98999999;fill:#c75c5c;fill-opacity:1;stroke:#000000;stroke-width:1;stroke-linecap:square;stroke-linejoin:miter;stroke-miterlimit:4;stroke-dasharray:3, 1;stroke-dashoffset:0;stroke-opacity:1"
       id="rect4222-2"
       width="8"
       height="8"
       x="46.790333"
       y="2.7544529"
       transform="scale(1,-1)" /><rect
       style="opacity:0.98999999;fill:#ffffff;fill-opacity:1;stroke:#000000;stroke-width:1;stroke-linecap:square;stroke-linejoin:miter;stroke-miterlimit:4;stroke-dasharray:3, 1;stroke-dashoffset:0;stroke-opacity:1"
       id="rect4222-4"
       width="8"
       height="8"
       x="55.608047"
       y="2.7544529"
       transform="scale(1,-1)" /><path
       style="fill:#ffffff;fill-opacity:0.99215686"
       d="m 31.04789,9.8262704 -0.91463,0.6498406 -0.002,3.0109 -0.002,3.010902 -1.028762,-0.624324 c -0.565691,-0.343378 -1.294093,-0.778951 -1.618547,-0.96794 l -0.589915,-0.343619 -0.420142,0.267904 c -0.231079,0.147345 -0.580915,0.372745 -0.777413,0.500886 l -0.357269,0.232986 0.02059,1.07889 0.02058,1.07889 0.635961,0.368826 c 0.349781,0.202854 0.821139,0.477924 1.047467,0.611267 0.226329,0.133343 1.009125,0.587206 1.739543,1.008583 l 1.32804,0.766144 0,1.976729 c 0,1.087202 -0.01331,1.97673 -0.02959,1.97673 -0.03054,0 -1.813973,-1.078271 -2.999987,-1.813796 -0.370024,-0.229478 -0.699288,-0.40084 -0.731698,-0.38081 -0.03241,0.02003 -0.05581,0.93445 -0.052,2.032046 0.0038,1.097596 -0.02043,1.995627 -0.0539,1.995627 -0.03346,0 -0.876915,-0.417705 -1.874336,-0.928234 l -1.81348,-0.928234 -0.01958,-2.882327 -0.01957,-2.882328 -0.748191,-0.544495 c -0.411505,-0.299472 -0.773768,-0.545913 -0.805028,-0.547648 -0.03126,-0.0018 -0.342139,0.220351 -0.690836,0.493525 l -0.633995,0.49668 -0.01996,1.895613 -0.01995,1.895614 -0.897822,-0.509593 c -1.583214,-0.89861 -3.428289,-1.935035 -3.896805,-2.188938 l -0.45513,-0.246649 -1.153484,0.455656 -1.15348,0.455656 -0.02049,1.1935 -0.02049,1.193497 2.414707,1.372759 c 1.328092,0.755019 2.54449,1.453447 2.703104,1.552067 l 0.288394,0.179309 -1.111403,0.521105 c -0.611271,0.286609 -1.406003,0.660993 -1.76607,0.831967 l -0.654668,0.310863 0,1.102758 0,1.102758 0.964087,0.528428 c 0.530245,0.290634 1.016652,0.528426 1.080897,0.528426 0.06425,0 1.192077,-0.638398 2.506289,-1.418658 1.314211,-0.780263 2.425892,-1.428383 2.470398,-1.440269 0.09076,-0.02424 3.373246,1.895116 3.376257,1.974183 0.0011,0.02777 -0.174837,0.148138 -0.390877,0.267481 -1.131552,0.625083 -3.010204,1.73718 -3.024774,1.790558 -0.0092,0.03367 0.351982,0.288483 0.802606,0.566248 0.450619,0.277766 1.188131,0.732291 1.638909,1.010057 0.450781,0.277766 0.821135,0.526522 0.82301,0.552791 0.0053,0.07484 -3.301732,1.944089 -3.395956,1.919483 -0.04623,-0.01207 -1.164752,-0.653787 -2.485605,-1.426034 l -2.401552,-1.404085 -0.981843,0.46681 -0.981846,0.46681 0,1.055772 0,1.055772 0.841717,0.475717 c 0.462943,0.261645 1.239397,0.701273 1.725456,0.97695 l 0.883743,0.501233 -0.397419,0.224821 c -0.218581,0.123653 -1.373808,0.754205 -2.567173,1.401228 -1.193364,0.647021 -2.21267,1.21086 -2.265121,1.252974 -0.07157,0.05748 -0.09024,0.366839 -0.07482,1.240125 l 0.02056,1.163554 1.111094,0.511921 1.11109,0.511922 0.497516,-0.275819 c 1.851078,-1.026215 4.816942,-2.647601 4.843037,-2.647601 0.01727,0 0.0314,0.83911 0.0314,1.864692 l 0,1.864691 0.392799,0.328257 c 0.21604,0.180543 0.534139,0.437101 0.706888,0.570131 l 0.314088,0.241876 0.913036,-0.545643 0.91304,-0.545641 -0.04814,-2.932523 -0.04814,-2.932522 0.579265,-0.328869 c 0.318595,-0.180877 0.882282,-0.506266 1.252635,-0.723086 1.105201,-0.64703 1.613979,-0.921162 1.647473,-0.887669 0.01739,0.01739 0.03466,0.933243 0.03837,2.035215 0.0063,1.847965 0.01657,1.999854 0.133096,1.955562 0.06949,-0.02642 0.91126,-0.466916 1.870591,-0.978895 0.959329,-0.511979 1.75896,-0.930871 1.776952,-0.930871 0.01799,0 0.03271,0.889528 0.03271,1.976729 l 0,1.97673 -1.328041,0.766143 c -0.730419,0.421379 -1.513213,0.875241 -1.739543,1.008584 -0.226327,0.133344 -0.697686,0.408413 -1.047466,0.611267 l -0.635962,0.368825 -0.02059,1.078891 -0.02059,1.07889 0.35727,0.232985 c 0.196497,0.128144 0.546334,0.353542 0.777412,0.500888 l 0.420143,0.267903 0.589916,-0.343618 c 0.324452,-0.188989 1.052856,-0.624563 1.618674,-0.967941 l 1.028763,-0.624324 0.0019,3.010902 0.0019,3.010901 0.933366,0.656385 0.933368,0.656384 0.933366,-0.656384 0.933364,-0.656385 0.0019,-3.01757 0.0019,-3.01757 0.243163,0.146061 c 0.133739,0.08033 0.968211,0.519539 1.854381,0.976016 l 1.61122,0.829957 1.007446,-0.548843 1.007449,-0.548842 0,-0.963508 0,-0.963512 -2.861831,-1.441078 -2.861828,-1.441079 0,-1.981893 c 4e-6,-1.090042 0.01843,-1.981894 0.04097,-1.981894 0.02253,0 0.569646,0.298225 1.21581,0.662725 2.492885,1.406228 2.573175,1.447198 2.550134,1.301275 -0.0049,-0.03086 -0.0049,-0.973066 0,-2.093785 l 0.0089,-2.037668 1.869149,0.952792 1.869149,0.952793 0.0012,3.114479 0.0012,3.114477 0.711448,0.42456 0.71145,0.42456 0.747523,-0.419554 0.747521,-0.419555 0,-1.983458 0,-1.98346 1.028761,0.539385 c 0.565822,0.29666 1.702135,0.902128 2.525145,1.345481 0.823009,0.443353 1.615533,0.862249 1.761163,0.930881 l 0.264784,0.124786 1.027826,-0.608449 1.027824,-0.608448 -0.02069,-1.098984 -0.02069,-1.098985 -2.560973,-1.46 c -1.408536,-0.803001 -2.552445,-1.487716 -2.542024,-1.521591 0.01042,-0.03388 0.742003,-0.459578 1.625734,-0.94601 l 1.606785,-0.884419 0,-1.07258 0,-1.072581 -0.785599,-0.428813 c -0.432082,-0.235847 -0.849605,-0.430128 -0.92783,-0.431734 -0.132063,-0.0027 -3.151777,1.710994 -4.768968,2.70642 l -0.347084,0.21373 -1.074332,-0.699996 c -0.59088,-0.384999 -1.352093,-0.879953 -1.691585,-1.099897 -0.339493,-0.219945 -0.617259,-0.424101 -0.617259,-0.45368 0,-0.02958 0.227264,-0.193892 0.50503,-0.365143 1.365445,-0.841839 2.646874,-1.696342 2.644316,-1.763328 -0.0025,-0.06593 -1.740475,-1.109749 -2.946555,-1.769688 -0.238243,-0.130362 -0.406586,-0.261392 -0.374094,-0.291176 0.110766,-0.101536 3.438856,-1.792317 3.527956,-1.792317 0.04883,0 1.198146,0.606034 2.55406,1.346743 1.355914,0.740709 2.502923,1.346743 2.548908,1.346743 0.04598,0 0.468584,-0.242545 0.939114,-0.53899 l 0.855508,-0.538991 -0.02071,-1.011255 -0.02071,-1.011253 -0.823014,-0.471752 c -0.452656,-0.259464 -1.151101,-0.647667 -1.552098,-0.86267 -0.401,-0.215006 -0.728893,-0.407753 -0.728659,-0.428328 1.8e-4,-0.02058 0.311491,-0.225276 0.691678,-0.454889 0.380187,-0.229616 1.229948,-0.747732 1.888355,-1.151374 0.658408,-0.403641 1.474871,-0.90113 1.814362,-1.105534 l 0.617258,-0.371637 0,-1.14139 0,-1.14139 -1.165944,-0.496702 c -0.641264,-0.273188 -1.215404,-0.496703 -1.275861,-0.496703 -0.06045,0 -0.453254,0.196617 -0.872878,0.436931 -1.113773,0.637838 -4.215685,2.331373 -4.270192,2.331373 -0.02567,0 -0.04667,-0.837841 -0.04667,-1.861871 l 0,-1.861867 -0.667256,-0.494931 c -0.367079,-0.272212 -0.695348,-0.494929 -0.729572,-0.494929 -0.03424,2e-6 -0.382081,0.220603 -0.773012,0.490227 l -0.71078,0.49022 -0.0374,2.89487 -0.03741,2.894866 -0.598552,0.32325 c -1.434464,0.77468 -3.024995,1.601503 -3.066068,1.59387 -0.02454,-0.0046 -0.04451,-0.850009 -0.04436,-1.878773 1.4e-4,-1.028761 -0.02861,-1.870473 -0.0639,-1.870473 -0.06727,0 -0.547414,0.261777 -2.489655,1.357388 -0.646164,0.3645 -1.193277,0.662725 -1.215807,0.662725 -0.02253,0 -0.04096,-0.889528 -0.04096,-1.97673 l 0,-1.976729 1.32804,-0.766144 c 0.730419,-0.421377 1.513216,-0.87524 1.739543,-1.008583 0.226327,-0.133343 0.697688,-0.408419 1.047467,-0.611278 l 0.635961,-0.368836 0.02058,-1.166952 0.02058,-1.166953 -0.764714,-0.4113 c -0.899303,-0.483693 -0.567709,-0.568309 -2.619281,0.668406 l -1.408168,0.848863 -0.0014,-3.008758 -0.0014,-3.00876 -0.905427,-0.6359647 C 32.464116,9.4903703 32.0355,9.1979395 32.00962,9.1903087 31.983738,9.18268 31.550981,9.4688592 31.047934,9.8262704 Z m 3.546258,20.6639406 c 0.38366,0.720131 0.697622,1.351584 0.697691,1.403224 7.3e-5,0.05165 -0.333081,0.725012 -0.740341,1.496382 l -0.740471,1.402488 -1.709853,0.0182 -1.709853,0.0182 -0.405762,-0.72898 c -0.223167,-0.40094 -0.585104,-1.045429 -0.804304,-1.432198 -0.2192,-0.386768 -0.398543,-0.73013 -0.398543,-0.763026 0,-0.05729 1.506865,-2.472771 1.66495,-2.66889 0.0586,-0.0727 0.471027,-0.0902 1.762711,-0.07482 l 1.686214,0.02008 0.697561,1.309334 z"
       id="path4902"
       inkscape:connector-curvature="0" /></g></svg>