<?xml version="1.0" encoding="UTF-8" standalone="no"?>
<!-- Created with Inkscape (http://www.inkscape.org/) -->

<svg
   xmlns:dc="http://purl.org/dc/elements/1.1/"
   xmlns:cc="http://creativecommons.org/ns#"
   xmlns:rdf="http://www.w3.org/1999/02/22-rdf-syntax-ns#"
   xmlns:svg="http://www.w3.org/2000/svg"
   xmlns="http://www.w3.org/2000/svg"
   xmlns:sodipodi="http://sodipodi.sourceforge.net/DTD/sodipodi-0.dtd"
   xmlns:inkscape="http://www.inkscape.org/namespaces/inkscape"
   id="svg4136"
   version="1.1"
   inkscape:version="0.91 r13725"
   xml:space="preserve"
   width="32"
   height="32"
   viewBox="0 0 80 80"
   sodipodi:docname="co2.svg"
   inkscape:export-filename="\\elf\aquapi\Software\WebUi\img\devices\co2.png"
   inkscape:export-xdpi="36"
   inkscape:export-ydpi="36"><metadata
     id="metadata4142"><rdf:RDF><cc:Work
         rdf:about=""><dc:format>image/svg+xml</dc:format><dc:type
           rdf:resource="http://purl.org/dc/dcmitype/StillImage" /><dc:title></dc:title></cc:Work></rdf:RDF></metadata><defs
     id="defs4140"><clipPath
       clipPathUnits="userSpaceOnUse"
       id="clipPath4150"><path
         d="M 0,64 64,64 64,0 0,0 0,64 Z"
         id="path4152"
         inkscape:connector-curvature="0" /></clipPath><clipPath
       clipPathUnits="userSpaceOnUse"
       id="clipPath4162"><path
         d="m 12,50 40,0 0,-38 -40,0 0,38 z"
         id="path4164"
         inkscape:connector-curvature="0" /></clipPath><clipPath
       clipPathUnits="userSpaceOnUse"
       id="clipPath4182"><path
         d="m 12,50 40,0 0,-10 -40,0 0,10 z"
         id="path4184"
         inkscape:connector-curvature="0" /></clipPath></defs><sodipodi:namedview
     pagecolor="#ffffff"
     bordercolor="#666666"
     borderopacity="1"
     objecttolerance="10"
     gridtolerance="10"
     guidetolerance="10"
     inkscape:pageopacity="0"
     inkscape:pageshadow="2"
     inkscape:window-width="1366"
     inkscape:window-height="705"
     id="namedview4138"
     showgrid="false"
     inkscape:zoom="2.3688077"
     inkscape:cx="51.045532"
     inkscape:cy="12.515124"
     inkscape:window-x="-8"
     inkscape:window-y="-8"
     inkscape:window-maximized="1"
     inkscape:current-layer="g4144" /><g
     id="g4144"
     inkscape:groupmode="layer"
     inkscape:label="Elegant_circle-icons"
     transform="matrix(1.25,0,0,-1.25,0,80)"><g
       id="g4154"
       transform="translate(64,32)"
       style="fill:#4f5d73;fill-opacity:0.99215686"><path
         d="m 0,0 c 0,-17.673 -14.327,-32 -32,-32 -17.673,0 -32,14.327 -32,32 0,17.673 14.327,32 32,32 C -14.327,32 0,17.673 0,0"
         style="fill:#4f5d73;fill-opacity:0.99215686;fill-rule:nonzero;stroke:none"
         id="path4156"
         inkscape:connector-curvature="0" /></g><rect
       style="opacity:0.98999999;fill:#77b3d4;fill-opacity:1;stroke:#000000;stroke-width:1;stroke-linecap:square;stroke-linejoin:miter;stroke-miterlimit:4;stroke-dasharray:3, 1;stroke-dashoffset:0;stroke-opacity:1"
       id="rect4222"
       width="8"
       height="8"
       x="2.701781"
       y="2.7544529"
       transform="scale(1,-1)" /><rect
       style="opacity:0.98999999;fill:#e0e0d1;fill-opacity:1;stroke:#000000;stroke-width:1;stroke-linecap:square;stroke-linejoin:miter;stroke-miterlimit:4;stroke-dasharray:3, 1;stroke-dashoffset:0;stroke-opacity:1"
       id="rect4222-6"
       width="8"
       height="8"
       x="11.519492"
       y="2.7544529"
       transform="scale(1,-1)" /><rect
       style="opacity:0.98999999;fill:#76c2af;fill-opacity:1;stroke:#000000;stroke-width:1;stroke-linecap:square;stroke-linejoin:miter;stroke-miterlimit:4;stroke-dasharray:3, 1;stroke-dashoffset:0;stroke-opacity:1"
       id="rect4222-8"
       width="8"
       height="8"
       x="20.3372"
       y="2.7544529"
       transform="scale(1,-1)" /><rect
       style="opacity:0.98999999;fill:#4f5d73;fill-opacity:1;stroke:#000000;stroke-width:1;stroke-linecap:square;stroke-linejoin:miter;stroke-miterlimit:4;stroke-dasharray:3, 1;stroke-dashoffset:0;stroke-opacity:1"
       id="rect4222-0"
       width="8"
       height="8"
       x="29.154913"
       y="2.7544529"
       transform="scale(1,-1)" /><rect
       style="opacity:0.98999999;fill:#e0995e;fill-opacity:1;stroke:#000000;stroke-width:1;stroke-linecap:square;stroke-linejoin:miter;stroke-miterlimit:4;stroke-dasharray:3, 1;stroke-dashoffset:0;stroke-opacity:1"
       id="rect4222-7"
       width="8"
       height="8"
       x="37.972618"
       y="2.7544529"
       transform="scale(1,-1)" /><rect
       style="opacity:0.98999999;fill:#c75c5c;fill-opacity:1;stroke:#000000;stroke-width:1;stroke-linecap:square;stroke-linejoin:miter;stroke-miterlimit:4;stroke-dasharray:3, 1;stroke-dashoffset:0;stroke-opacity:1"
       id="rect4222-2"
       width="8"
       height="8"
       x="46.790333"
       y="2.7544529"
       transform="scale(1,-1)" /><rect
       style="opacity:0.98999999;fill:#ffffff;fill-opacity:1;stroke:#000000;stroke-width:1;stroke-linecap:square;stroke-linejoin:miter;stroke-miterlimit:4;stroke-dasharray:3, 1;stroke-dashoffset:0;stroke-opacity:1"
       id="rect4222-4"
       width="8"
       height="8"
       x="55.608047"
       y="2.7544529"
       transform="scale(1,-1)" /><path
       style="fill:#ffffff;fill-opacity:0.99215686"
       d="m 23.548794,22.983403 c 0.01144,15.711369 -0.008,14.355201 0.220856,15.438953 0.622777,2.949629 2.554055,5.55732 5.220963,7.049552 0.859276,0.480796 1.831206,0.860619 2.704545,1.056914 l 0.287229,0.06456 0,0.402854 0,0.402853 -0.235495,0.152555 c -0.300935,0.194945 -0.924497,0.821726 -1.121157,1.126943 l -0.151738,0.235496 -1.356544,0 -1.356544,0 0,2.110739 0,2.110736 1.355428,0 1.355425,0 0.103708,0.165721 c 0.603586,0.9645 1.619706,1.65727 2.757969,1.880327 0.44475,0.08715 1.180206,0.07945 1.626299,-0.01703 1.075192,-0.23256 2.01493,-0.873003 2.631664,-1.793514 l 0.157782,-0.235495 1.355523,0 1.355521,0 0,-2.110737 0,-2.110738 -1.357962,0 -1.357962,0 -0.167318,-0.25294 c -0.218783,-0.330741 -0.723659,-0.836708 -1.086402,-1.088747 l -0.288936,-0.200757 0.0098,-0.385408 0.0098,-0.38541 0.392175,-0.09636 c 4.417561,-1.085457 7.673778,-4.936834 8.032833,-9.501053 0.02313,-0.293873 0.03539,-5.269617 0.03539,-14.347787 l 0,-13.8978945 -10.571634,0 -10.571632,0 0.01035,14.2256775 z m 16.911434,-7.893468 0,2.110744 -5.285977,0 -5.28598,0 0.0095,10.073976 c 0.009,9.486764 0.01315,10.091795 0.07144,10.37966 0.454274,2.243225 1.928542,4.000642 4.036664,4.811948 l 0.261661,0.100699 -0.470991,-0.01683 c -2.878526,-0.102854 -5.346413,-2.217207 -5.908337,-5.061947 -0.03032,-0.153509 -0.07138,-0.431558 -0.09123,-0.617892 -0.02414,-0.226474 -0.0361,-4.242706 -0.0361,-12.114941 l 0,-11.77615 6.34966,0 6.349658,0 0,2.110732 z m -5.990076,34.399512 c 0.772899,0.201314 1.248405,0.845505 1.202318,1.628831 -0.02931,0.49819 -0.235732,0.882018 -0.639402,1.188934 -0.454112,0.345267 -1.131841,0.397556 -1.660056,0.12808 -0.292122,-0.149028 -0.615932,-0.512961 -0.742783,-0.834817 -0.459722,-1.166443 0.636705,-2.424426 1.839923,-2.111028 z M 20.061921,48.964303 c -0.310145,0.09698 -0.514983,0.277883 -0.654201,0.577768 l -0.08908,0.191886 -2.52e-4,1.275928 c -5.03e-4,1.499069 5.04e-4,1.504435 0.311071,1.813064 0.319595,0.317613 0.28376,0.312609 2.239669,0.312609 l 1.670854,0 1.046424,-0.523435 1.04642,-0.523437 0,-1.063864 0,-1.063867 -1.04642,-0.523436 -1.046424,-0.523436 -1.666138,0.0022 c -1.267709,0.0017 -1.700976,0.01323 -1.811824,0.04789 z"
       id="path4943"
       inkscape:connector-curvature="0" /></g></svg>