<?xml version="1.0" encoding="UTF-8" standalone="no"?>
<!-- Created with Inkscape (http://www.inkscape.org/) -->

<svg
   xmlns:dc="http://purl.org/dc/elements/1.1/"
   xmlns:cc="http://creativecommons.org/ns#"
   xmlns:rdf="http://www.w3.org/1999/02/22-rdf-syntax-ns#"
   xmlns:svg="http://www.w3.org/2000/svg"
   xmlns="http://www.w3.org/2000/svg"
   xmlns:sodipodi="http://sodipodi.sourceforge.net/DTD/sodipodi-0.dtd"
   xmlns:inkscape="http://www.inkscape.org/namespaces/inkscape"
   id="svg4136"
   version="1.1"
   inkscape:version="0.91 r13725"
   xml:space="preserve"
   width="32"
   height="32"
   viewBox="0 0 80 80"
   sodipodi:docname="filtr.svg"
   inkscape:export-filename="\\elf\aquapi\Software\WebUi\img\devices\grzalka.png"
   inkscape:export-xdpi="36"
   inkscape:export-ydpi="36"><metadata
     id="metadata4142"><rdf:RDF><cc:Work
         rdf:about=""><dc:format>image/svg+xml</dc:format><dc:type
           rdf:resource="http://purl.org/dc/dcmitype/StillImage" /><dc:title></dc:title></cc:Work></rdf:RDF></metadata><defs
     id="defs4140"><clipPath
       clipPathUnits="userSpaceOnUse"
       id="clipPath4150"><path
         d="M 0,64 64,64 64,0 0,0 0,64 Z"
         id="path4152"
         inkscape:connector-curvature="0" /></clipPath><clipPath
       clipPathUnits="userSpaceOnUse"
       id="clipPath4162"><path
         d="m 12,50 40,0 0,-38 -40,0 0,38 z"
         id="path4164"
         inkscape:connector-curvature="0" /></clipPath><clipPath
       clipPathUnits="userSpaceOnUse"
       id="clipPath4182"><path
         d="m 12,50 40,0 0,-10 -40,0 0,10 z"
         id="path4184"
         inkscape:connector-curvature="0" /></clipPath></defs><sodipodi:namedview
     pagecolor="#ffffff"
     bordercolor="#666666"
     borderopacity="1"
     objecttolerance="10"
     gridtolerance="10"
     guidetolerance="10"
     inkscape:pageopacity="0"
     inkscape:pageshadow="2"
     inkscape:window-width="1366"
     inkscape:window-height="705"
     id="namedview4138"
     showgrid="false"
     inkscape:zoom="2.3688077"
     inkscape:cx="63.547023"
     inkscape:cy="1.5859134"
     inkscape:window-x="-8"
     inkscape:window-y="-8"
     inkscape:window-maximized="1"
     inkscape:current-layer="g4144" /><g
     id="g4144"
     inkscape:groupmode="layer"
     inkscape:label="Elegant_circle-icons"
     transform="matrix(1.25,0,0,-1.25,0,80)"><g
       id="g4154"
       transform="translate(64,32)"
       style="fill:#76c2af;fill-opacity:0.99215686"><path
         d="m 0,0 c 0,-17.673 -14.327,-32 -32,-32 -17.673,0 -32,14.327 -32,32 0,17.673 14.327,32 32,32 C -14.327,32 0,17.673 0,0"
         style="fill:#76c2af;fill-opacity:0.99215686;fill-rule:nonzero;stroke:none"
         id="path4156"
         inkscape:connector-curvature="0" /></g><rect
       style="opacity:0.98999999;fill:#77b3d4;fill-opacity:1;stroke:#000000;stroke-width:1;stroke-linecap:square;stroke-linejoin:miter;stroke-miterlimit:4;stroke-dasharray:3, 1;stroke-dashoffset:0;stroke-opacity:1"
       id="rect4222"
       width="8"
       height="8"
       x="2.701781"
       y="2.7544529"
       transform="scale(1,-1)" /><rect
       style="opacity:0.98999999;fill:#e0e0d1;fill-opacity:1;stroke:#000000;stroke-width:1;stroke-linecap:square;stroke-linejoin:miter;stroke-miterlimit:4;stroke-dasharray:3, 1;stroke-dashoffset:0;stroke-opacity:1"
       id="rect4222-6"
       width="8"
       height="8"
       x="11.519492"
       y="2.7544529"
       transform="scale(1,-1)" /><rect
       style="opacity:0.98999999;fill:#76c2af;fill-opacity:1;stroke:#000000;stroke-width:1;stroke-linecap:square;stroke-linejoin:miter;stroke-miterlimit:4;stroke-dasharray:3, 1;stroke-dashoffset:0;stroke-opacity:1"
       id="rect4222-8"
       width="8"
       height="8"
       x="20.3372"
       y="2.7544529"
       transform="scale(1,-1)" /><rect
       style="opacity:0.98999999;fill:#4f5d73;fill-opacity:1;stroke:#000000;stroke-width:1;stroke-linecap:square;stroke-linejoin:miter;stroke-miterlimit:4;stroke-dasharray:3, 1;stroke-dashoffset:0;stroke-opacity:1"
       id="rect4222-0"
       width="8"
       height="8"
       x="29.154913"
       y="2.7544529"
       transform="scale(1,-1)" /><rect
       style="opacity:0.98999999;fill:#e0995e;fill-opacity:1;stroke:#000000;stroke-width:1;stroke-linecap:square;stroke-linejoin:miter;stroke-miterlimit:4;stroke-dasharray:3, 1;stroke-dashoffset:0;stroke-opacity:1"
       id="rect4222-7"
       width="8"
       height="8"
       x="37.972618"
       y="2.7544529"
       transform="scale(1,-1)" /><rect
       style="opacity:0.98999999;fill:#c75c5c;fill-opacity:1;stroke:#000000;stroke-width:1;stroke-linecap:square;stroke-linejoin:miter;stroke-miterlimit:4;stroke-dasharray:3, 1;stroke-dashoffset:0;stroke-opacity:1"
       id="rect4222-2"
       width="8"
       height="8"
       x="46.790333"
       y="2.7544529"
       transform="scale(1,-1)" /><rect
       style="opacity:0.98999999;fill:#ffffff;fill-opacity:1;stroke:#000000;stroke-width:1;stroke-linecap:square;stroke-linejoin:miter;stroke-miterlimit:4;stroke-dasharray:3, 1;stroke-dashoffset:0;stroke-opacity:1"
       id="rect4222-4"
       width="8"
       height="8"
       x="55.608047"
       y="2.7544529"
       transform="scale(1,-1)" /><path
       style="fill:#ffffff;fill-opacity:0.99215686"
       d="m 31.799181,6.1501016 c -1.30543,0.3632407 -2.05263,1.0465635 -3.456158,3.1607046 l -1.046075,1.5756998 -3.295478,-0.01408 c -3.101227,-0.01324 -3.31115,-0.0023 -3.561396,0.180731 -0.146253,0.10714 -0.3458,0.351462 -0.443434,0.542934 -0.1665,0.326528 -0.177529,1.231309 -0.177674,14.580906 -9.4e-5,8.317749 0.03826,14.333894 0.09235,14.476085 0.126801,0.333522 0.650436,0.809819 1.049389,0.954536 0.226703,0.08223 1.372961,0.12222 3.65533,0.127525 l 3.325061,0.0077 0,1.52293 c 0,0.837607 -0.02793,1.522925 -0.06213,1.522925 -0.03418,0 -2.878238,-1.01515 -6.320156,-2.255895 -6.73575,-2.428114 -7.001771,-2.500278 -7.645296,-2.074028 -0.604806,0.400597 -0.59254,0.248941 -0.59254,7.325128 l 0,6.467258 0.33289,0.332889 c 0.235238,0.235238 0.500019,0.370293 0.902626,0.460391 l 0.569736,0.127501 6.203294,-2.256515 c 3.41181,-1.241084 6.288631,-2.278835 6.392939,-2.306112 0.176581,-0.04615 0.193412,0.04719 0.244149,1.354477 0.0438,1.12821 0.105971,1.563648 0.316481,2.2163 0.652111,2.021766 1.959855,3.327835 3.698765,3.694019 0.337434,0.07106 1.871956,0.1133 4.11596,0.1133 3.884942,0 4.280872,-0.04343 5.261586,-0.577202 0.775188,-0.421912 1.650049,-1.40988 2.11165,-2.384679 0.691525,-1.460335 0.714625,-1.713882 0.714625,-7.846631 l 0,-5.43606 2.74631,0 c 3.12857,0 3.22623,-0.02042 3.55421,-0.742815 0.18651,-0.410814 0.19285,-0.893228 0.19285,-14.689535 0,-13.796301 -0.006,-14.278715 -0.19285,-14.689529 -0.32571,-0.717388 -0.44212,-0.742815 -3.40043,-0.742815 l -2.59254,0 -1.107893,-1.6574311 C 41.963057,7.092955 41.389759,6.5714146 40.029948,6.1682634 39.565308,6.0305082 38.909999,6.0061988 35.867276,6.013847 33.311195,6.020277 32.122567,6.06009 31.79918,6.1500564 Z m 7.880687,1.6300274 c 0.656539,0.2743215 1.165026,0.7813266 1.926622,1.9210019 l 0.752658,1.1262951 -3.307542,0.02676 c -1.819156,0.01474 -4.762931,0.01474 -6.541732,0 l -3.234182,-0.02676 0.98254,-1.3151519 c 0.834613,-1.1171457 1.06454,-1.3578995 1.527161,-1.5990754 l 0.544619,-0.2839229 3.494401,0 c 2.861647,0 3.559783,0.027321 3.855455,0.1508532 z m 9.379178,7.159206 0,2.436687 -13.807895,0 -13.807885,0 0,-2.436687 0,-2.436688 13.807885,0 13.807895,0 0,2.436688 z m 0,7.310057 0,3.248916 -13.807895,0 -13.807885,0 0,-3.248916 0,-3.248914 13.807885,0 13.807895,0 0,3.248914 z m 0,8.122291 0,3.248916 -13.807895,0 -13.807885,0 0,-3.248916 0,-3.248915 13.807885,0 13.807895,0 0,3.248915 z m 0,7.310059 0,2.436682 -13.807895,0 -13.807885,0 0,-2.436682 0,-2.436688 13.807885,0 13.807895,0 0,2.436688 z m -6.499333,9.518306 c -0.0016,6.015605 -0.01873,6.214979 -0.627747,7.357725 -0.414505,0.777693 -1.164503,1.452598 -1.835728,1.651934 -0.755753,0.22443 -7.309963,0.22443 -8.065707,0 -0.671233,-0.199336 -1.421232,-0.874241 -1.835735,-1.651934 -0.60908,-1.142746 -0.626089,-1.34212 -0.627745,-7.357725 l -0.0014,-5.457163 6.49783,0 6.497831,0 -0.0016,5.457163 z m -4.289662,-0.986906 c -1.919027,0.481939 -2.990248,2.486504 -2.302597,4.308816 0.818124,2.168076 3.663269,2.781352 5.3018,1.142812 0.946431,-0.946429 1.222007,-2.481086 0.653991,-3.642067 -0.323563,-0.661332 -1.012343,-1.339481 -1.644519,-1.619117 -0.526299,-0.232811 -1.479948,-0.323227 -2.008675,-0.190444 z m 1.262335,1.624488 c 1.16251,0.322889 1.457586,2.151225 0.461641,2.860398 -0.45706,0.325462 -1.424374,0.370503 -1.875621,0.08734 -0.48225,-0.302622 -0.734318,-0.775579 -0.734769,-1.378659 -4.7e-4,-0.694867 0.263021,-1.16191 0.815487,-1.445199 0.491855,-0.252213 0.776121,-0.278622 1.333262,-0.123881 z M 21.424718,44.577099 c 3.423998,1.23961 6.290912,2.278948 6.370916,2.309651 0.111022,0.04259 0.145459,0.267477 0.145459,0.949828 l 0,0.894006 -1.345252,0.453762 c -8.196454,2.764698 -11.323455,3.822624 -11.472731,3.881449 -0.167881,0.06615 -0.177674,-0.230687 -0.177674,-5.383488 0,-4.32031 0.02638,-5.44369 0.12691,-5.406272 0.0698,0.02596 2.928363,1.061455 6.352372,2.301064 z"
       id="path4271"
       inkscape:connector-curvature="0" /></g></svg>