<?xml version="1.0" encoding="UTF-8" standalone="no"?>
<!-- Created with Inkscape (http://www.inkscape.org/) -->

<svg
   xmlns:dc="http://purl.org/dc/elements/1.1/"
   xmlns:cc="http://creativecommons.org/ns#"
   xmlns:rdf="http://www.w3.org/1999/02/22-rdf-syntax-ns#"
   xmlns:svg="http://www.w3.org/2000/svg"
   xmlns="http://www.w3.org/2000/svg"
   xmlns:sodipodi="http://sodipodi.sourceforge.net/DTD/sodipodi-0.dtd"
   xmlns:inkscape="http://www.inkscape.org/namespaces/inkscape"
   id="svg4136"
   version="1.1"
   inkscape:version="0.91 r13725"
   xml:space="preserve"
   width="32"
   height="32"
   viewBox="0 0 80 80"
   sodipodi:docname="karmnik.svg"
   inkscape:export-filename="\\elf\aquapi\Software\WebUi\img\devices\wentylator.png"
   inkscape:export-xdpi="36"
   inkscape:export-ydpi="36"><metadata
     id="metadata4142"><rdf:RDF><cc:Work
         rdf:about=""><dc:format>image/svg+xml</dc:format><dc:type
           rdf:resource="http://purl.org/dc/dcmitype/StillImage" /><dc:title></dc:title></cc:Work></rdf:RDF></metadata><defs
     id="defs4140"><clipPath
       clipPathUnits="userSpaceOnUse"
       id="clipPath4150"><path
         d="M 0,64 64,64 64,0 0,0 0,64 Z"
         id="path4152"
         inkscape:connector-curvature="0" /></clipPath><clipPath
       clipPathUnits="userSpaceOnUse"
       id="clipPath4162"><path
         d="m 12,50 40,0 0,-38 -40,0 0,38 z"
         id="path4164"
         inkscape:connector-curvature="0" /></clipPath><clipPath
       clipPathUnits="userSpaceOnUse"
       id="clipPath4182"><path
         d="m 12,50 40,0 0,-10 -40,0 0,10 z"
         id="path4184"
         inkscape:connector-curvature="0" /></clipPath></defs><sodipodi:namedview
     pagecolor="#ffffff"
     bordercolor="#666666"
     borderopacity="1"
     objecttolerance="10"
     gridtolerance="10"
     guidetolerance="10"
     inkscape:pageopacity="0"
     inkscape:pageshadow="2"
     inkscape:window-width="1366"
     inkscape:window-height="705"
     id="namedview4138"
     showgrid="false"
     inkscape:zoom="4.7376154"
     inkscape:cx="-4.2209718"
     inkscape:cy="18.787908"
     inkscape:window-x="-8"
     inkscape:window-y="-8"
     inkscape:window-maximized="1"
     inkscape:current-layer="g4144" /><g
     id="g4144"
     inkscape:groupmode="layer"
     inkscape:label="Elegant_circle-icons"
     transform="matrix(1.25,0,0,-1.25,0,80)"><g
       id="g4154"
       transform="translate(64,32)"
       style="fill:#4f5d73;fill-opacity:0.99215686"><path
         d="m 0,0 c 0,-17.673 -14.327,-32 -32,-32 -17.673,0 -32,14.327 -32,32 0,17.673 14.327,32 32,32 C -14.327,32 0,17.673 0,0"
         style="fill:#4f5d73;fill-opacity:0.99215686;fill-rule:nonzero;stroke:none"
         id="path4156"
         inkscape:connector-curvature="0" /></g><rect
       style="opacity:0.98999999;fill:#77b3d4;fill-opacity:1;stroke:#000000;stroke-width:1;stroke-linecap:square;stroke-linejoin:miter;stroke-miterlimit:4;stroke-dasharray:3, 1;stroke-dashoffset:0;stroke-opacity:1"
       id="rect4222"
       width="8"
       height="8"
       x="2.701781"
       y="2.7544529"
       transform="scale(1,-1)" /><rect
       style="opacity:0.98999999;fill:#e0e0d1;fill-opacity:1;stroke:#000000;stroke-width:1;stroke-linecap:square;stroke-linejoin:miter;stroke-miterlimit:4;stroke-dasharray:3, 1;stroke-dashoffset:0;stroke-opacity:1"
       id="rect4222-6"
       width="8"
       height="8"
       x="11.519492"
       y="2.7544529"
       transform="scale(1,-1)" /><rect
       style="opacity:0.98999999;fill:#76c2af;fill-opacity:1;stroke:#000000;stroke-width:1;stroke-linecap:square;stroke-linejoin:miter;stroke-miterlimit:4;stroke-dasharray:3, 1;stroke-dashoffset:0;stroke-opacity:1"
       id="rect4222-8"
       width="8"
       height="8"
       x="20.3372"
       y="2.7544529"
       transform="scale(1,-1)" /><rect
       style="opacity:0.98999999;fill:#4f5d73;fill-opacity:1;stroke:#000000;stroke-width:1;stroke-linecap:square;stroke-linejoin:miter;stroke-miterlimit:4;stroke-dasharray:3, 1;stroke-dashoffset:0;stroke-opacity:1"
       id="rect4222-0"
       width="8"
       height="8"
       x="29.154913"
       y="2.7544529"
       transform="scale(1,-1)" /><rect
       style="opacity:0.98999999;fill:#e0995e;fill-opacity:1;stroke:#000000;stroke-width:1;stroke-linecap:square;stroke-linejoin:miter;stroke-miterlimit:4;stroke-dasharray:3, 1;stroke-dashoffset:0;stroke-opacity:1"
       id="rect4222-7"
       width="8"
       height="8"
       x="37.972618"
       y="2.7544529"
       transform="scale(1,-1)" /><rect
       style="opacity:0.98999999;fill:#c75c5c;fill-opacity:1;stroke:#000000;stroke-width:1;stroke-linecap:square;stroke-linejoin:miter;stroke-miterlimit:4;stroke-dasharray:3, 1;stroke-dashoffset:0;stroke-opacity:1"
       id="rect4222-2"
       width="8"
       height="8"
       x="46.790333"
       y="2.7544529"
       transform="scale(1,-1)" /><rect
       style="opacity:0.98999999;fill:#ffffff;fill-opacity:1;stroke:#000000;stroke-width:1;stroke-linecap:square;stroke-linejoin:miter;stroke-miterlimit:4;stroke-dasharray:3, 1;stroke-dashoffset:0;stroke-opacity:1"
       id="rect4222-4"
       width="8"
       height="8"
       x="55.608047"
       y="2.7544529"
       transform="scale(1,-1)" /><path
       style="fill:#fefeff;fill-opacity:1"
       d="m 23.614191,6.0351266 c -0.911174,0.412748 -1.801229,1.57531 -2.263598,2.9566363 -0.913417,2.7288371 -1.111563,8.7251361 -0.520479,15.7507521 0.183676,2.183184 0.40658,5.242989 0.495338,6.799563 l 0.16138,2.830141 -1.148537,0.907866 c -1.633635,1.291315 -2.80083,2.649771 -3.408536,3.967076 -0.510571,1.106748 -0.527696,1.387204 -0.594909,9.741913 -0.05076,6.309539 0.0036,8.690008 0.203712,8.931204 0.282227,0.340063 3.743975,0.483486 4.516306,0.187115 0.323307,-0.124065 0.36934,-0.877148 0.36934,-6.042293 0,-4.881204 0.05874,-5.949314 0.340015,-6.182752 0.744377,-0.617777 0.827462,-0.02408 0.827462,5.912728 0,4.272628 0.07707,5.970724 0.280195,6.173852 0.174876,0.174876 1.041782,0.280194 2.306365,0.280194 1.598474,0 2.093815,-0.08139 2.34663,-0.385556 0.245402,-0.295252 0.347804,-1.758172 0.437207,-6.246005 0.09964,-5.001737 0.168068,-5.860449 0.466991,-5.860449 0.300504,0 0.359115,0.842886 0.41271,5.935142 0.04106,3.900674 0.150902,6.0417 0.320459,6.246005 0.179257,0.21599 0.88897,0.310863 2.325482,0.310863 3.020615,0 2.82979,0.657142 2.724317,-9.381802 -0.102185,-9.725278 -0.101156,-9.720118 -2.378792,-11.977295 -0.780703,-0.773693 -1.771312,-1.695278 -2.201351,-2.047965 -0.762675,-0.625494 -0.778396,-0.67426 -0.639861,-1.984711 0.07811,-0.738906 0.246085,-2.893289 0.373269,-4.787522 0.127185,-1.894233 0.343276,-4.993885 0.480202,-6.888117 C 30.389388,13.657697 29.375624,7.5835686 27.35503,6.2596206 26.556015,5.7360866 24.541261,5.6151766 23.614191,6.0351266 Z m 2.657168,2.304329 c 0.270676,0.2889495 0.592331,0.789912 0.71479,1.1132475 0.739268,1.9519429 0.986558,8.6600409 0.529217,14.3558309 -0.731708,9.11279 -0.794713,10.58229 -0.4857,11.328313 0.170193,0.41088 1.011531,1.298846 1.909482,2.015307 2.051958,1.637222 2.728824,2.663556 3.001784,4.551616 0.118075,0.81669 0.21679,4.400667 0.219373,7.964392 l 0.0049,6.479501 -0.583738,0 -0.583743,0 0,-5.265245 c 0,-5.797694 -0.104707,-6.322947 -1.393328,-6.989318 -1.264512,-0.653905 -2.688559,-0.3273 -3.448426,0.790896 -0.358394,0.5274 -0.42149,1.311233 -0.485792,6.034896 -0.07059,5.185396 -0.09414,5.428771 -0.525365,5.428771 -0.433409,0 -0.451465,-0.218203 -0.451465,-5.455656 0,-5.070748 -0.03239,-5.496832 -0.459077,-6.039277 -1.04972,-1.334503 -2.9173,-1.407996 -4.111561,-0.1618 l -0.683011,0.712716 -0.05133,5.413634 c -0.04968,5.240499 -0.06649,5.416021 -0.525365,5.488248 -0.467914,0.07365 -0.47404,-0.02018 -0.47404,-7.261891 0,-4.994535 0.08722,-7.589873 0.273237,-8.130209 0.444903,-1.292369 1.289601,-2.361987 2.747353,-3.478902 2.141326,-1.640661 2.211704,-1.834817 2.039254,-5.625783 -0.08052,-1.769982 -0.317797,-5.299841 -0.52729,-7.844135 -0.391199,-4.751094 -0.338047,-11.009158 0.107709,-12.681579 0.119801,-0.449482 0.278272,-1.0891114 0.352156,-1.42141 0.371816,-1.6722404 1.905147,-2.3736924 2.890174,-1.3221634 z m 11.847779,-2.263464 c -0.781152,0.40199 -1.410953,1.094446 -1.793205,1.971592 -1.014566,2.3281114 -1.374908,10.0523834 -0.773392,16.5781844 0.302066,3.277058 0.426319,7.757459 0.514796,18.562893 0.134206,16.38988 -0.04142,15.209319 2.227802,14.973535 1.494899,-0.155327 3.241936,-0.946608 4.469352,-2.024294 2.9317,-2.574068 4.896956,-8.542882 4.917056,-14.933952 0.01,-3.055263 -0.0124,-3.198858 -0.71582,-4.669911 -0.49202,-1.028968 -1.403819,-2.240784 -2.831395,-3.763046 -2.918524,-3.112092 -3.109634,-3.920065 -1.567572,-6.627504 0.292577,-0.51369 0.863188,-1.879639 1.268018,-3.035442 0.907473,-2.590863 1.124618,-5.482596 0.722781,-9.625307 -0.458757,-4.729606 -1.161888,-6.5553914 -2.86602,-7.4420484 -0.833502,-0.433673 -2.696874,-0.41526 -3.572401,0.03529 z m 2.559297,1.883641 c 1.120832,0.4301053 1.762244,3.5505134 1.824133,8.8741714 0.0469,4.033134 -0.0464,4.450227 -1.86282,8.330921 -1.186852,2.535628 -1.282787,2.864427 -1.193982,4.092151 0.115307,1.594064 0.74775,2.602901 3.188075,5.085385 2.82225,2.871015 3.398113,4.724517 2.857281,9.196643 -0.548536,4.535874 -1.969398,8.673094 -3.599816,10.481826 -0.683,0.757695 -2.482881,1.893437 -3.000648,1.893437 -0.396874,0 -0.421372,-0.415961 -0.422877,-7.179987 C 38.466681,44.785187 38.361154,38.717222 38.23278,35.249814 37.987421,28.62266 37.93373,27.673277 37.506492,22.407561 37.140666,17.898811 37.437322,11.829219 38.141781,9.4094414 38.499338,8.1812326 39.60666,7.5483566 40.678435,7.9596326 Z"
       id="path3360"
       inkscape:connector-curvature="0" /></g></svg>