<?xml version="1.0" encoding="UTF-8" standalone="no"?>
<!-- Created with Inkscape (http://www.inkscape.org/) -->

<svg
   xmlns:dc="http://purl.org/dc/elements/1.1/"
   xmlns:cc="http://creativecommons.org/ns#"
   xmlns:rdf="http://www.w3.org/1999/02/22-rdf-syntax-ns#"
   xmlns:svg="http://www.w3.org/2000/svg"
   xmlns="http://www.w3.org/2000/svg"
   xmlns:sodipodi="http://sodipodi.sourceforge.net/DTD/sodipodi-0.dtd"
   xmlns:inkscape="http://www.inkscape.org/namespaces/inkscape"
   id="svg4136"
   version="1.1"
   inkscape:version="0.91 r13725"
   xml:space="preserve"
   width="32"
   height="32"
   viewBox="0 0 80 80"
   sodipodi:docname="led.svg"
   inkscape:export-filename="\\elf\aquapi\Software\WebUi\img\devices\led.png"
   inkscape:export-xdpi="36"
   inkscape:export-ydpi="36"><metadata
     id="metadata4142"><rdf:RDF><cc:Work
         rdf:about=""><dc:format>image/svg+xml</dc:format><dc:type
           rdf:resource="http://purl.org/dc/dcmitype/StillImage" /><dc:title></dc:title></cc:Work></rdf:RDF></metadata><defs
     id="defs4140"><clipPath
       clipPathUnits="userSpaceOnUse"
       id="clipPath4150"><path
         d="M 0,64 64,64 64,0 0,0 0,64 Z"
         id="path4152"
         inkscape:connector-curvature="0" /></clipPath><clipPath
       clipPathUnits="userSpaceOnUse"
       id="clipPath4162"><path
         d="m 12,50 40,0 0,-38 -40,0 0,38 z"
         id="path4164"
         inkscape:connector-curvature="0" /></clipPath><clipPath
       clipPathUnits="userSpaceOnUse"
       id="clipPath4182"><path
         d="m 12,50 40,0 0,-10 -40,0 0,10 z"
         id="path4184"
         inkscape:connector-curvature="0" /></clipPath></defs><sodipodi:namedview
     pagecolor="#ffffff"
     bordercolor="#666666"
     borderopacity="1"
     objecttolerance="10"
     gridtolerance="10"
     guidetolerance="10"
     inkscape:pageopacity="0"
     inkscape:pageshadow="2"
     inkscape:window-width="1366"
     inkscape:window-height="705"
     id="namedview4138"
     showgrid="false"
     inkscape:zoom="3.35"
     inkscape:cx="-16.466646"
     inkscape:cy="24.307708"
     inkscape:window-x="-8"
     inkscape:window-y="-8"
     inkscape:window-maximized="1"
     inkscape:current-layer="g4144" /><g
     id="g4144"
     inkscape:groupmode="layer"
     inkscape:label="Elegant_circle-icons"
     transform="matrix(1.25,0,0,-1.25,0,80)"><g
       id="g4154"
       transform="translate(64,32)"
       style="fill:#c75c5c;fill-opacity:0.99215686"><path
         d="m 0,0 c 0,-17.673 -14.327,-32 -32,-32 -17.673,0 -32,14.327 -32,32 0,17.673 14.327,32 32,32 C -14.327,32 0,17.673 0,0"
         style="fill:#c75c5c;fill-opacity:0.99215686;fill-rule:nonzero;stroke:none"
         id="path4156"
         inkscape:connector-curvature="0" /></g><path
       style="fill:#ffffff;fill-opacity:0.99215686"
       d="m 31.729734,16.868026 0,7.972776 0.810794,0 0.810786,0 0,-7.972776 0,-7.9727757 -0.810786,0 -0.810794,0 z m -8.218826,-3.099962 c -0.495968,0.220209 -0.569972,0.303086 -0.491475,0.550407 0.156142,0.491968 4.358451,10.674876 4.438283,10.7547 0.106166,0.106175 1.366687,-0.429013 1.366687,-0.580264 0,-0.303152 -4.469276,-11.002187 -4.592333,-10.99363 -0.07549,0.0052 -0.400027,0.126204 -0.721162,0.268787 z m 16.46187,-0.234066 c 0,0.02435 -0.851333,2.471542 -1.891847,5.438208 -1.040513,2.966666 -1.891847,5.45832 -1.891847,5.537007 0,0.137543 1.320454,0.685819 1.406516,0.584009 0.09966,-0.117898 3.892269,-11.078558 3.846612,-11.11671 -0.05267,-0.04399 -1.349725,-0.486781 -1.425941,-0.486781 -0.02392,0 -0.04351,0.01992 -0.04351,0.04427 z m -21.579166,4.017473 -0.566158,0.40113 2.361741,3.410318 c 1.298968,1.875674 2.419203,3.430232 2.489425,3.454571 0.180755,0.06265 1.219491,-0.6916 1.179236,-0.856275 -0.06917,-0.282959 -4.633851,-6.809806 -4.76294,-6.810328 -0.07431,-2.83e-4 -0.389913,0.179961 -0.701304,0.400584 z m 25.01453,3.19844 c -0.960421,1.972214 -1.765466,3.635597 -1.788981,3.696407 -0.02353,0.06081 0.264637,0.266339 0.640367,0.456733 l 0.683134,0.346171 1.168181,-2.332535 c 0.6425,-1.282894 1.45605,-2.947112 1.807894,-3.698258 l 0.639728,-1.365723 -0.702054,-0.344319 -0.702053,-0.34432 z"
       id="path4295"
       inkscape:connector-curvature="0"
       sodipodi:nodetypes="cccccccccsscscscssscsccscssscsscscsscccs" /><path
       style="fill:#ffffff;fill-opacity:0.99215686"
       d="m 5.0867837,29.258538 c -0.03866,0.09953 -0.063996,2.358754 -0.056308,5.020488 0.013193,4.572959 0.026472,4.851949 0.2405067,5.065246 0.2173586,0.216589 1.3001201,0.223809 26.7483156,0.178364 25.119249,-0.04485 26.533339,-0.05896 26.740219,-0.266563 0.203855,-0.20458 0.217842,-0.548437 0.209691,-5.15567 -0.0081,-4.607232 -0.02337,-4.951038 -0.227934,-5.154897 -0.207619,-0.206884 -1.619005,-0.21579 -26.712655,-0.16856 -17.436058,0.03282 -26.5580884,0.09273 -26.682503,0.175243 -0.1039752,0.06896 -0.2206751,0.206815 -0.2593304,0.306349 z m 2.2381791,1.067052 0.7843519,0.0021 0.00606,3.866169 0.00606,3.86617 -0.816455,-0.0023 -0.8164561,-0.0023 -0.00757,-3.832387 c -0.00422,-2.107816 0.00757,-3.847554 0.026007,-3.866085 0.01847,-0.01853 0.3865295,-0.03274 0.8179246,-0.03158 z m 47.0570792,3.782796 0.0076,3.866029 -22.410416,0.03977 -22.4104148,0.03977 -0.00757,-3.866031 -0.00757,-3.866029 22.4104198,-0.03977 22.410415,-0.03977 0.0076,3.86603 z M 11.207434,32.564411 c -0.06474,0.550297 0.515005,0.971521 1.007952,0.732344 0.709846,-0.344417 0.483678,-1.383263 -0.300845,-1.381874 -0.377446,6.5e-4 -0.661464,0.26156 -0.707107,0.64953 z m 0.08752,2.783743 c -0.158962,0.220313 -0.08855,0.698652 0.135728,0.922143 0.42147,0.419982 1.240752,0.07318 1.208969,-0.511763 -0.02168,-0.398957 -0.128931,-0.562419 -0.456958,-0.696433 -0.311985,-0.127459 -0.673412,-0.011 -0.887739,0.286053 z m 3.073716,-3.086785 c -0.157834,0.222275 -0.08701,0.700192 0.13682,0.923231 0.413596,0.412137 1.210825,0.08465 1.230667,-0.505538 0.02547,-0.75812 -0.920564,-1.047088 -1.367487,-0.417693 z M 14.294,35.67268 c -0.04168,0.568086 0.63585,0.98276 1.109075,0.678796 0.256756,-0.164924 0.442226,-0.625714 0.341999,-0.849691 C 15.403595,34.738673 14.35345,34.862347 14.294,35.67268 Z m 3.08509,-3.070262 c 0.0012,0.54222 0.517456,0.895875 1.00934,0.69111 0.315882,-0.131498 0.529405,-0.532539 0.439886,-0.82629 -0.1637,-0.537235 -0.878483,-0.746729 -1.255813,-0.368062 -0.122265,0.122695 -0.193757,0.308716 -0.193413,0.503242 z m 0.0055,3.143116 c 0.0015,0.816496 1.09871,0.954459 1.441439,0.181236 0.09884,-0.223004 -0.08772,-0.684495 -0.342312,-0.846757 -0.462018,-0.294465 -1.100141,0.09192 -1.099127,0.665521 z m 3.066372,-3.147939 c -0.02096,0.202684 0.03569,0.329006 0.237848,0.530443 0.318971,0.317844 0.686908,0.318241 1.002946,0.0011 0.316037,-0.31716 0.31434,-0.68509 -0.0046,-1.002935 -0.318971,-0.317844 -0.686905,-0.318242 -1.002942,-0.0011 -0.113151,0.11355 -0.218097,0.326173 -0.233216,0.472493 z m 0.03698,2.869234 c -0.162128,0.39917 0.204084,0.928779 0.675944,0.977541 0.202684,0.02095 0.329006,-0.0357 0.53044,-0.237849 0.317846,-0.318972 0.318244,-0.686906 0.0012,-1.002945 -0.376769,-0.375436 -1.003562,-0.238782 -1.207471,0.263253 z m 3.074805,-3.085702 c -0.162128,0.399172 0.20408,0.92878 0.675944,0.97754 0.20268,0.02095 0.329003,-0.0357 0.53044,-0.237847 0.317843,-0.318972 0.318241,-0.686906 0.0012,-1.002946 -0.376765,-0.375436 -1.003559,-0.238782 -1.207467,0.263253 z m -0.02608,3.291272 c -0.02096,0.202683 0.03569,0.329006 0.237847,0.530442 0.318975,0.317844 0.686909,0.318242 1.002947,0.0011 0.316037,-0.317159 0.314339,-0.685089 -0.0047,-1.002933 -0.318971,-0.317845 -0.686905,-0.318243 -1.002942,-0.0011 -0.113151,0.11355 -0.218097,0.326172 -0.233216,0.472493 z m 3.082155,-3.247233 c -0.08507,0.200608 0.120219,0.671599 0.359099,0.823848 0.688725,0.438953 1.484593,-0.589472 0.903939,-1.168074 -0.364507,-0.363222 -1.04123,-0.178788 -1.263038,0.344226 z m 0.05292,3.030783 c -0.08888,0.305476 -0.0329,0.532002 0.185236,0.749348 0.312363,0.311257 0.681643,0.307678 0.997875,-0.0097 0.307957,-0.309047 0.319839,-0.685313 0.03075,-0.973389 -0.262547,-0.261619 -0.42881,-0.310643 -0.728295,-0.214736 -0.318084,0.101856 -0.409209,0.186022 -0.485559,0.448453 z m 3.072209,-3.088286 c -0.130534,0.476442 0.172867,0.930255 0.655264,0.980104 0.341034,0.03524 0.765652,-0.359765 0.783402,-0.728773 0.01507,-0.313392 -0.359485,-0.708754 -0.70088,-0.739805 -0.293414,-0.02669 -0.663834,0.218561 -0.737786,0.488474 z m -0.03943,3.132305 c -0.08508,0.200608 0.120218,0.671598 0.359099,0.823848 0.688725,0.438955 1.484592,-0.589471 0.903938,-1.168073 -0.364506,-0.363222 -1.04123,-0.178788 -1.263037,0.344226 z m 3.124563,-2.819166 c 0.05844,0.664895 0.730256,0.881555 1.217456,0.392629 0.448644,-0.450234 0.131635,-1.197933 -0.50742,-1.196802 -0.459575,8.03e-4 -0.751576,0.331528 -0.710032,0.804175 z m 0.0042,2.943871 c -0.08177,0.969815 1.308842,1.093332 1.422608,0.126358 0.02524,-0.214382 -0.02325,-0.353861 -0.175863,-0.505925 -0.297381,-0.296329 -0.453704,-0.347298 -0.762192,-0.248509 -0.373941,0.119751 -0.450005,0.218346 -0.484553,0.628076 z m 3.139686,-3.387927 c -0.337054,0.728834 0.430435,1.396869 1.07042,0.93171 0.636221,-0.462422 0.108684,-1.500755 -0.640577,-1.260815 -0.296468,0.09493 -0.335307,0.124675 -0.429843,0.329105 z m -0.08914,3.310636 c -0.06365,0.491304 0.352693,0.946437 0.793936,0.867897 0.125971,-0.02243 0.333654,-0.145759 0.461521,-0.27408 0.441794,-0.443359 0.118578,-1.190886 -0.514427,-1.189767 -0.339199,5.73e-4 -0.701659,0.292101 -0.74103,0.59595 z m 3.110339,-3.081172 c -0.05969,0.342371 0.08742,0.627562 0.401655,0.778661 0.309896,0.149008 0.536006,0.09389 0.831556,-0.202708 0.162063,-0.162638 0.209851,-0.297094 0.183327,-0.515835 -0.102688,-0.847026 -1.270698,-0.896596 -1.416538,-0.06011 z m 0.04211,2.903734 c -0.044,0.104072 -0.06037,0.299546 -0.03637,0.434388 0.142073,0.798148 1.27406,0.796889 1.413272,-0.0015 0.09949,-0.57062 -0.440104,-1.007781 -0.972648,-0.788011 -0.163245,0.06737 -0.302976,0.13227 -0.310519,0.144231 -0.0076,0.01196 -0.04972,0.106895 -0.09372,0.210962 z m 3.074807,-3.085702 c -0.04401,0.104073 -0.06039,0.299546 -0.03638,0.434389 0.147423,0.828218 1.316502,0.785603 1.414997,-0.05157 0.06849,-0.58214 -0.495316,-0.980174 -1.024617,-0.723357 -0.14813,0.07187 -0.270375,0.135321 -0.271657,0.141 -0.0012,0.0056 -0.03833,0.09548 -0.08235,0.199543 z m -0.03297,3.306774 c -0.04382,0.372506 0.134744,0.657729 0.480197,0.767007 0.523808,0.165703 1.030866,-0.278897 0.934639,-0.819512 -0.147277,-0.827414 -1.316413,-0.784027 -1.414836,0.0525 z m 3.073309,-3.07308 c -0.02574,0.218834 0.02252,0.353119 0.185156,0.515184 0.296594,0.29555 0.522899,0.349868 0.832263,0.199763 0.715018,-0.346927 0.483711,-1.379457 -0.308715,-1.378055 -0.381751,6.88e-4 -0.66157,0.262492 -0.708704,0.663108 z m 0.0057,3.213809 c 0.07599,0.626754 0.79397,0.890937 1.224436,0.450529 0.378379,-0.38712 0.266724,-0.986184 -0.22129,-1.187316 -0.490639,-0.202212 -1.065778,0.220212 -1.003146,0.736787 z m 3.074801,-3.085702 c 0.04855,0.400448 0.329294,0.661274 0.71105,0.660597 0.736169,-0.0013 1.021048,-0.966109 0.401797,-1.360785 -0.474605,-0.302486 -1.180557,0.14169 -1.112847,0.700188 z m 0.0052,2.946697 c -0.0626,0.532116 0.62471,0.994627 1.075423,0.723681 0.230772,-0.138728 0.415328,-0.518714 0.379112,-0.780551 -0.04372,-0.316042 -0.401483,-0.606849 -0.74583,-0.606239 -0.381752,6.5e-4 -0.661571,0.26249 -0.708705,0.663109 z m 3.087541,-3.050377 c 3.83e-4,0.326527 0.249973,0.656212 0.569001,0.752191 0.264527,0.07958 0.662829,-0.141992 0.811667,-0.45153 0.333542,-0.69367 -0.640138,-1.352958 -1.187254,-0.803904 -0.122265,0.122696 -0.193757,0.308717 -0.193414,0.503243 z m 0.0055,3.143115 c 0.0015,0.840356 1.203562,0.948193 1.449693,0.130052 0.08847,-0.294051 -0.12646,-0.694349 -0.442807,-0.824728 -0.492604,-0.203023 -1.007846,0.152456 -1.006886,0.694676 z m 5.372659,-5.447101 0.75226,0.0026 0.0068,3.863426 0.0068,3.863424 -0.785262,0.0014 -0.785266,0.0014 -0.0076,-3.833582 c -0.0042,-2.108471 0.0076,-3.848815 0.02616,-3.86743 0.01855,-0.01861 0.372244,-0.03267 0.785985,-0.03123 z"
       id="path4308"
       inkscape:connector-curvature="0" /></g></svg>