<?xml version="1.0" encoding="UTF-8" standalone="no"?>
<!-- Created with Inkscape (http://www.inkscape.org/) -->

<svg
   xmlns:dc="http://purl.org/dc/elements/1.1/"
   xmlns:cc="http://creativecommons.org/ns#"
   xmlns:rdf="http://www.w3.org/1999/02/22-rdf-syntax-ns#"
   xmlns:svg="http://www.w3.org/2000/svg"
   xmlns="http://www.w3.org/2000/svg"
   xmlns:sodipodi="http://sodipodi.sourceforge.net/DTD/sodipodi-0.dtd"
   xmlns:inkscape="http://www.inkscape.org/namespaces/inkscape"
   id="svg4136"
   version="1.1"
   inkscape:version="0.91 r13725"
   xml:space="preserve"
   width="32"
   height="32"
   viewBox="0 0 80 80"
   sodipodi:docname="licznik energii.svg"
   inkscape:export-filename="\\elf\aquapi\Software\WebUi\img\devices\temperatura.png"
   inkscape:export-xdpi="36"
   inkscape:export-ydpi="36"><metadata
     id="metadata4142"><rdf:RDF><cc:Work
         rdf:about=""><dc:format>image/svg+xml</dc:format><dc:type
           rdf:resource="http://purl.org/dc/dcmitype/StillImage" /><dc:title></dc:title></cc:Work></rdf:RDF></metadata><defs
     id="defs4140"><clipPath
       clipPathUnits="userSpaceOnUse"
       id="clipPath4150"><path
         d="M 0,64 64,64 64,0 0,0 0,64 Z"
         id="path4152"
         inkscape:connector-curvature="0" /></clipPath><clipPath
       clipPathUnits="userSpaceOnUse"
       id="clipPath4162"><path
         d="m 12,50 40,0 0,-38 -40,0 0,38 z"
         id="path4164"
         inkscape:connector-curvature="0" /></clipPath><clipPath
       clipPathUnits="userSpaceOnUse"
       id="clipPath4182"><path
         d="m 12,50 40,0 0,-10 -40,0 0,10 z"
         id="path4184"
         inkscape:connector-curvature="0" /></clipPath><clipPath
       id="clipPath4150-1"
       clipPathUnits="userSpaceOnUse"><path
         inkscape:connector-curvature="0"
         id="path4152-1"
         d="M 0,64 64,64 64,0 0,0 0,64 Z" /></clipPath><clipPath
       id="clipPath4162-7"
       clipPathUnits="userSpaceOnUse"><path
         inkscape:connector-curvature="0"
         id="path4164-8"
         d="m 12,50 40,0 0,-38 -40,0 0,38 z" /></clipPath><clipPath
       id="clipPath4182-1"
       clipPathUnits="userSpaceOnUse"><path
         inkscape:connector-curvature="0"
         id="path4184-8"
         d="m 12,50 40,0 0,-10 -40,0 0,10 z" /></clipPath><clipPath
       id="clipPath4150-5"
       clipPathUnits="userSpaceOnUse"><path
         inkscape:connector-curvature="0"
         id="path4152-49"
         d="M 0,64 64,64 64,0 0,0 0,64 Z" /></clipPath><clipPath
       id="clipPath4162-3"
       clipPathUnits="userSpaceOnUse"><path
         inkscape:connector-curvature="0"
         id="path4164-4"
         d="m 12,50 40,0 0,-38 -40,0 0,38 z" /></clipPath><clipPath
       id="clipPath4182-3"
       clipPathUnits="userSpaceOnUse"><path
         inkscape:connector-curvature="0"
         id="path4184-5"
         d="m 12,50 40,0 0,-10 -40,0 0,10 z" /></clipPath><clipPath
       clipPathUnits="userSpaceOnUse"
       id="clipPath4150-1-6"><path
         d="M 0,64 64,64 64,0 0,0 0,64 Z"
         id="path4152-4"
         inkscape:connector-curvature="0" /></clipPath><clipPath
       clipPathUnits="userSpaceOnUse"
       id="clipPath4162-9"><path
         d="m 12,50 40,0 0,-38 -40,0 0,38 z"
         id="path4164-2"
         inkscape:connector-curvature="0" /></clipPath><clipPath
       clipPathUnits="userSpaceOnUse"
       id="clipPath4182-0"><path
         d="m 12,50 40,0 0,-10 -40,0 0,10 z"
         id="path4184-9"
         inkscape:connector-curvature="0" /></clipPath></defs><sodipodi:namedview
     pagecolor="#ffffff"
     bordercolor="#666666"
     borderopacity="1"
     objecttolerance="10"
     gridtolerance="10"
     guidetolerance="10"
     inkscape:pageopacity="0"
     inkscape:pageshadow="2"
     inkscape:window-width="1366"
     inkscape:window-height="705"
     id="namedview4138"
     showgrid="false"
     inkscape:zoom="2.3688077"
     inkscape:cx="37.504123"
     inkscape:cy="-17.212816"
     inkscape:window-x="-8"
     inkscape:window-y="-8"
     inkscape:window-maximized="1"
     inkscape:current-layer="g4144" /><g
     id="g4144"
     inkscape:groupmode="layer"
     inkscape:label="Elegant_circle-icons"
     transform="matrix(1.25,0,0,-1.25,0,80)"><rect
       style="opacity:1;fill:#4e5d73;fill-opacity:1;stroke:#4c5b70;stroke-width:20.88096619;stroke-linecap:square;stroke-linejoin:round;stroke-miterlimit:4;stroke-dasharray:none;stroke-dashoffset:0;stroke-opacity:1"
       id="rect3342"
       width="43.119034"
       height="43.119034"
       x="10.440483"
       y="-53.559517"
       transform="scale(1,-1)" /><path
       style="fill:none;fill-rule:evenodd;stroke:#ffffff;stroke-width:7.19999989;stroke-linecap:butt;stroke-linejoin:miter;stroke-opacity:1;stroke-miterlimit:4;stroke-dasharray:none"
       d="M 32,60.600886 32,3.399115"
       id="path4191"
       inkscape:connector-curvature="0"
       sodipodi:nodetypes="cc" /><circle
       style="opacity:1;fill:#4c5b70;fill-opacity:1;stroke:#ffffff;stroke-width:2.79599996;stroke-linecap:square;stroke-linejoin:miter;stroke-miterlimit:3.0999999;stroke-dasharray:none;stroke-dashoffset:0;stroke-opacity:1"
       id="path4316"
       cx="32"
       cy="-32"
       transform="scale(1,-1)"
       r="22.002232" /><path
       style="color:#000000;clip-rule:nonzero;display:inline;overflow:visible;visibility:visible;opacity:1;isolation:auto;mix-blend-mode:normal;color-interpolation:sRGB;color-interpolation-filters:linearRGB;solid-color:#000000;solid-opacity:1;fill:#ffffff;fill-opacity:1;fill-rule:evenodd;stroke:none;stroke-width:2px;stroke-linecap:butt;stroke-linejoin:miter;stroke-miterlimit:4;stroke-dasharray:none;stroke-dashoffset:0;stroke-opacity:1;color-rendering:auto;image-rendering:auto;shape-rendering:auto;text-rendering:auto;enable-background:accumulate"
       id="path4189"
       transform="scale(1,-1)"
       sodipodi:type="arc"
       sodipodi:cx="31.661495"
       sodipodi:cy="-31.45042"
       sodipodi:rx="21.951973"
       sodipodi:ry="22.374125"
       sodipodi:start="3.1415927"
       sodipodi:end="0"
       d="M 9.7095222,-31.450421 A 21.951973,22.374125 0 0 1 31.661496,-53.824545 21.951973,22.374125 0 0 1 53.613468,-31.45042 l -21.951973,0 z" /><rect
       style="color:#000000;clip-rule:nonzero;display:inline;overflow:visible;visibility:visible;opacity:1;isolation:auto;mix-blend-mode:normal;color-interpolation:sRGB;color-interpolation-filters:linearRGB;solid-color:#000000;solid-opacity:1;fill:#4c5b70;fill-opacity:1;fill-rule:evenodd;stroke:none;stroke-width:2px;stroke-linecap:butt;stroke-linejoin:miter;stroke-miterlimit:4;stroke-dasharray:none;stroke-dashoffset:0;stroke-opacity:1;color-rendering:auto;image-rendering:auto;shape-rendering:auto;text-rendering:auto;enable-background:accumulate"
       id="rect4468"
       width="4.8515019"
       height="6.9040604"
       x="16.179108"
       y="-43.605503"
       transform="scale(1,-1)" /><rect
       style="color:#000000;clip-rule:nonzero;display:inline;overflow:visible;visibility:visible;opacity:1;isolation:auto;mix-blend-mode:normal;color-interpolation:sRGB;color-interpolation-filters:linearRGB;solid-color:#000000;solid-opacity:1;fill:#4c5b70;fill-opacity:1;fill-rule:evenodd;stroke:none;stroke-width:2px;stroke-linecap:butt;stroke-linejoin:miter;stroke-miterlimit:4;stroke-dasharray:none;stroke-dashoffset:0;stroke-opacity:1;color-rendering:auto;image-rendering:auto;shape-rendering:auto;text-rendering:auto;enable-background:accumulate"
       id="rect4468-8"
       width="4.8515019"
       height="6.9040604"
       x="22.87668"
       y="-43.605503"
       transform="scale(1,-1)" /><rect
       style="color:#000000;clip-rule:nonzero;display:inline;overflow:visible;visibility:visible;opacity:1;isolation:auto;mix-blend-mode:normal;color-interpolation:sRGB;color-interpolation-filters:linearRGB;solid-color:#000000;solid-opacity:1;fill:#4c5b70;fill-opacity:1;fill-rule:evenodd;stroke:none;stroke-width:2px;stroke-linecap:butt;stroke-linejoin:miter;stroke-miterlimit:4;stroke-dasharray:none;stroke-dashoffset:0;stroke-opacity:1;color-rendering:auto;image-rendering:auto;shape-rendering:auto;text-rendering:auto;enable-background:accumulate"
       id="rect4468-4"
       width="4.8515019"
       height="6.9040604"
       x="29.574249"
       y="-43.605503"
       transform="scale(1,-1)" /><rect
       style="color:#000000;clip-rule:nonzero;display:inline;overflow:visible;visibility:visible;opacity:1;isolation:auto;mix-blend-mode:normal;color-interpolation:sRGB;color-interpolation-filters:linearRGB;solid-color:#000000;solid-opacity:1;fill:#4c5b70;fill-opacity:1;fill-rule:evenodd;stroke:none;stroke-width:2px;stroke-linecap:butt;stroke-linejoin:miter;stroke-miterlimit:4;stroke-dasharray:none;stroke-dashoffset:0;stroke-opacity:1;color-rendering:auto;image-rendering:auto;shape-rendering:auto;text-rendering:auto;enable-background:accumulate"
       id="rect4468-2"
       width="4.8515019"
       height="6.9040604"
       x="36.27182"
       y="-43.605503"
       transform="scale(1,-1)" /><rect
       style="color:#000000;clip-rule:nonzero;display:inline;overflow:visible;visibility:visible;opacity:1;isolation:auto;mix-blend-mode:normal;color-interpolation:sRGB;color-interpolation-filters:linearRGB;solid-color:#000000;solid-opacity:1;fill:#4c5b70;fill-opacity:1;fill-rule:evenodd;stroke:none;stroke-width:2px;stroke-linecap:butt;stroke-linejoin:miter;stroke-miterlimit:4;stroke-dasharray:none;stroke-dashoffset:0;stroke-opacity:1;color-rendering:auto;image-rendering:auto;shape-rendering:auto;text-rendering:auto;enable-background:accumulate"
       id="rect4468-5"
       width="4.8515019"
       height="6.9040604"
       x="42.969391"
       y="-43.605503"
       transform="scale(1,-1)" /><path
       style="fill:#ffffff;fill-opacity:1"
       d="m 29.811615,13.160769 c -0.133098,0.05513 -0.361952,0.322 -0.361952,0.422068 0,0.03546 0.419308,1.389011 0.931793,3.00789 0.512487,1.618881 0.926813,2.948061 0.920727,2.953736 -0.0061,0.0056 -0.981819,0.02895 -2.168294,0.05171 -1.436328,0.02757 -2.185887,0.06253 -2.242987,0.104625 -0.114277,0.08426 -0.217587,0.284606 -0.217587,0.421971 0,0.06117 1.164328,1.713784 2.587394,3.672471 1.423069,1.958687 2.981089,4.10361 3.462271,4.766496 0.48118,0.662884 0.925853,1.232527 0.988161,1.265873 0.268942,0.143935 0.725038,-0.123571 0.724338,-0.424831 -1.57e-4,-0.06592 -0.408106,-1.40271 -0.906563,-2.970657 -0.498456,-1.567948 -0.906284,-2.887422 -0.906284,-2.932164 0,-0.0693 0.326253,-0.08135 2.202105,-0.08135 2.142017,0 2.206178,-0.0032 2.351398,-0.117433 0.220258,-0.173255 0.199691,-0.415658 -0.06736,-0.793902 -0.459644,-0.65101 -6.578341,-8.966386 -6.731958,-9.1488 -0.174535,-0.207251 -0.373846,-0.27697 -0.565198,-0.197706 z"
       id="path4251"
       inkscape:connector-curvature="0"
       sodipodi:nodetypes="sssssssssscsssssss" /></g></svg>