<?xml version="1.0" encoding="UTF-8" standalone="no"?>
<!-- Created with Inkscape (http://www.inkscape.org/) -->

<svg
   xmlns:dc="http://purl.org/dc/elements/1.1/"
   xmlns:cc="http://creativecommons.org/ns#"
   xmlns:rdf="http://www.w3.org/1999/02/22-rdf-syntax-ns#"
   xmlns:svg="http://www.w3.org/2000/svg"
   xmlns="http://www.w3.org/2000/svg"
   xmlns:sodipodi="http://sodipodi.sourceforge.net/DTD/sodipodi-0.dtd"
   xmlns:inkscape="http://www.inkscape.org/namespaces/inkscape"
   id="svg4136"
   version="1.1"
   inkscape:version="0.91 r13725"
   xml:space="preserve"
   width="32"
   height="32"
   viewBox="0 0 80 80"
   sodipodi:docname="napowietrzacz.svg"
   inkscape:export-filename="\\elf\aquapi\Software\WebUi\img\devices\chlodzenie.png"
   inkscape:export-xdpi="36"
   inkscape:export-ydpi="36"><metadata
     id="metadata4142"><rdf:RDF><cc:Work
         rdf:about=""><dc:format>image/svg+xml</dc:format><dc:type
           rdf:resource="http://purl.org/dc/dcmitype/StillImage" /><dc:title></dc:title></cc:Work></rdf:RDF></metadata><defs
     id="defs4140"><clipPath
       clipPathUnits="userSpaceOnUse"
       id="clipPath4150"><path
         d="M 0,64 64,64 64,0 0,0 0,64 Z"
         id="path4152"
         inkscape:connector-curvature="0" /></clipPath><clipPath
       clipPathUnits="userSpaceOnUse"
       id="clipPath4162"><path
         d="m 12,50 40,0 0,-38 -40,0 0,38 z"
         id="path4164"
         inkscape:connector-curvature="0" /></clipPath><clipPath
       clipPathUnits="userSpaceOnUse"
       id="clipPath4182"><path
         d="m 12,50 40,0 0,-10 -40,0 0,10 z"
         id="path4184"
         inkscape:connector-curvature="0" /></clipPath></defs><sodipodi:namedview
     pagecolor="#ffffff"
     bordercolor="#666666"
     borderopacity="1"
     objecttolerance="10"
     gridtolerance="10"
     guidetolerance="10"
     inkscape:pageopacity="0"
     inkscape:pageshadow="2"
     inkscape:window-width="1366"
     inkscape:window-height="705"
     id="namedview4138"
     showgrid="false"
     inkscape:zoom="14.696805"
     inkscape:cx="16.027012"
     inkscape:cy="13.186386"
     inkscape:window-x="-8"
     inkscape:window-y="-8"
     inkscape:window-maximized="1"
     inkscape:current-layer="g4144" /><g
     id="g4144"
     inkscape:groupmode="layer"
     inkscape:label="Elegant_circle-icons"
     transform="matrix(1.25,0,0,-1.25,0,80)"><g
       id="g4154"
       transform="translate(64,32)"
       style="fill:#76c2af;fill-opacity:0.99215686"><path
         d="m 0,0 c 0,-17.673 -14.327,-32 -32,-32 -17.673,0 -32,14.327 -32,32 0,17.673 14.327,32 32,32 C -14.327,32 0,17.673 0,0"
         style="fill:#76c2af;fill-opacity:0.99215686;fill-rule:nonzero;stroke:none"
         id="path4156"
         inkscape:connector-curvature="0" /></g><path
       style="fill:#ffffff;fill-opacity:0.99215686"
       d="m 22.892715,13.14566 c -1.71621,0.289776 -3.511052,1.015051 -4.94751,1.999223 -0.913174,0.625649 -2.415344,2.127212 -3.039535,3.038302 -0.907576,1.324725 -1.5652,2.84227 -1.906418,4.399269 -0.238382,1.087722 -0.286957,3.281176 -0.09811,4.430021 0.454849,2.767103 1.751699,5.137278 3.872951,7.078335 3.592925,3.287734 9.060811,4.045866 13.435847,1.862904 2.234424,-1.114883 4.351625,-3.203729 5.430186,-5.357446 0.890399,-1.777968 1.26786,-3.385979 1.276198,-5.436674 0.01478,-3.632603 -1.359607,-6.717689 -4.075433,-9.148184 -1.624277,-1.453625 -3.790522,-2.487418 -5.983643,-2.855552 -1.029752,-0.172855 -2.971659,-0.177846 -3.964533,-0.01018 z m 3.919785,1.842751 c 3.610307,0.687134 6.721017,3.427626 7.818537,6.887999 1.222182,3.853388 0.200475,7.894918 -2.694159,10.657333 -2.079146,1.98417 -4.685872,2.952006 -7.587083,2.81695 -1.480353,-0.0689 -2.657973,-0.3715 -3.988198,-1.02475 -1.180009,-0.579493 -2.050764,-1.208705 -2.931532,-2.118346 -2.621153,-2.707087 -3.528278,-6.715526 -2.344855,-10.361469 0.646046,-1.990365 2.205903,-4.067495 3.937715,-5.243549 1.294726,-0.879232 3.157591,-1.578678 4.653281,-1.747149 0.869269,-0.09792 2.225195,-0.04042 3.136294,0.132981 z m -9.866705,9.248936 c -0.106908,0.04316 -0.28775,0.195894 -0.401861,0.339319 -0.19104,0.240114 -0.203431,0.326449 -0.156315,1.089151 0.130173,2.106904 1.140193,4.232247 2.680142,5.639676 0.450759,0.411961 0.57913,0.48102 0.894148,0.48102 0.497024,0 0.905911,-0.391632 0.905911,-0.867682 0,-0.283569 -0.09962,-0.437036 -0.713315,-1.098958 -1.211944,-1.307156 -1.795538,-2.566324 -1.946205,-4.199156 -0.08593,-0.930899 -0.19427,-1.168606 -0.612377,-1.343301 -0.352142,-0.147134 -0.38077,-0.148906 -0.650128,-0.04003 z m 6.132402,7.717686 c -0.37153,0.37152 -0.378949,0.819558 -0.02026,1.221027 0.23199,0.25964 0.329267,0.295149 0.989437,0.361155 0.92718,0.09269 1.186458,0.04033 1.470273,-0.296979 0.242581,-0.288288 0.283384,-0.560534 0.140371,-0.936693 -0.141917,-0.373272 -0.443027,-0.493647 -1.406322,-0.562237 l -0.895997,-0.06382 -0.277522,0.277522 z m 19.327127,-2.975555 c -2.36995,0.479181 -4.258615,1.924301 -5.292516,4.049585 -0.586999,1.206639 -0.723132,1.807234 -0.73018,3.221424 -0.0069,1.421982 0.138795,2.082769 0.7315,3.313465 0.7044,1.462621 1.855447,2.62763 3.31232,3.352513 2.391777,1.190053 5.059616,1.066249 7.314975,-0.33946 2.490061,-1.551988 3.868469,-4.593825 3.373295,-7.444121 -0.370981,-2.135434 -1.453565,-3.833743 -3.179886,-4.988461 -1.65228,-1.105193 -3.695761,-1.535711 -5.529508,-1.164945 z m 3.191621,1.998342 c 1.344094,0.474718 2.470809,1.439247 3.116386,2.667791 0.442997,0.843027 0.590817,1.358696 0.656587,2.290476 0.176673,2.503147 -1.427256,4.886653 -3.835211,5.699266 -0.90876,0.306681 -2.156888,0.348457 -3.121661,0.104489 -2.00075,-0.505949 -3.592054,-2.098383 -4.102143,-4.105074 -0.178709,-0.703029 -0.178709,-1.973492 0,-2.676521 0.50591,-1.990248 2.086937,-3.58758 4.094421,-4.136663 0.790009,-0.216086 2.35428,-0.13951 3.191621,0.156236 z m -6.082721,4.865551 c -0.304427,0.361791 -0.306287,0.724316 -0.0078,1.612131 0.372136,1.10856 0.936262,1.908562 1.80784,2.563741 0.671082,0.504462 1.137609,0.565456 1.506143,0.196922 0.481197,-0.481197 0.371775,-1.080539 -0.279019,-1.528292 -0.713629,-0.490995 -1.238928,-1.303457 -1.435567,-2.22034 -0.138266,-0.644726 -0.411109,-0.907351 -0.942663,-0.907351 -0.345045,0 -0.448028,0.04492 -0.648474,0.283189 z m -19.107106,2.644594 c -1.972591,0.553125 -3.461363,2.085519 -3.919687,4.034533 -0.189963,0.807847 -0.130006,2.054955 0.139676,2.90499 0.107701,0.339472 0.403407,0.927598 0.657136,1.306945 1.238116,1.851141 3.556917,2.738965 5.783061,2.214218 1.842184,-0.434242 3.431207,-2.017266 3.923092,-3.908281 0.211271,-0.812227 0.145284,-2.299431 -0.137728,-3.103868 -0.538982,-1.532037 -1.845629,-2.813041 -3.407708,-3.340856 -0.842832,-0.284784 -2.230793,-0.333975 -3.037842,-0.107681 z m 2.85376,2.006221 c 2.256065,1.07812 2.759919,4.003996 0.993685,5.770239 -1.715789,1.715788 -4.65888,1.205494 -5.73934,-0.995128 -0.24723,-0.503534 -0.270563,-0.634435 -0.270563,-1.517497 0,-0.865558 0.02692,-1.024067 0.257663,-1.51867 0.629066,-1.348226 1.826672,-2.083509 3.331925,-2.045662 0.711808,0.01791 0.912538,0.06108 1.42663,0.306718 z m -3.821352,2.908209 c -0.217359,0.25832 -0.243119,0.355291 -0.207718,0.782117 0.0691,0.832806 0.943241,1.868304 1.577249,1.868304 0.917393,0 1.278058,-1.07938 0.551608,-1.650809 -0.120209,-0.09456 -0.284246,-0.331309 -0.364532,-0.526115 -0.235377,-0.571178 -0.471116,-0.768376 -0.918518,-0.768376 -0.325813,0 -0.430782,0.0485 -0.638089,0.294879 z m 13.881379,1.067603 c -1.223728,0.436732 -2.022546,1.390309 -2.250964,2.68703 -0.24817,1.408903 0.577466,2.940745 1.925543,3.572541 0.456875,0.214124 0.645596,0.247422 1.402308,0.247422 0.756714,0 0.945434,-0.0333 1.40231,-0.247422 1.348077,-0.631796 2.173713,-2.163638 1.925533,-3.572541 -0.199594,-1.133151 -0.925251,-2.09566 -1.925533,-2.554048 -0.704801,-0.322979 -1.784547,-0.380895 -2.479197,-0.132982 z m 1.991031,1.94652 c 0.341394,0.2431 0.645479,0.829443 0.648522,1.250516 0.003,0.367068 -0.348254,1.043675 -0.658417,1.269516 -0.306542,0.223208 -1.051764,0.302369 -1.488771,0.158143 -0.613298,-0.202407 -1.069469,-1.018328 -0.943819,-1.688123 0.08398,-0.447732 0.415514,-0.909475 0.793847,-1.105692 0.44607,-0.231347 1.239495,-0.175694 1.648638,0.11564 z"
       id="path4171"
       inkscape:connector-curvature="0" /></g></svg>