<?xml version="1.0" encoding="UTF-8" standalone="no"?>
<!-- Created with Inkscape (http://www.inkscape.org/) -->

<svg
   xmlns:dc="http://purl.org/dc/elements/1.1/"
   xmlns:cc="http://creativecommons.org/ns#"
   xmlns:rdf="http://www.w3.org/1999/02/22-rdf-syntax-ns#"
   xmlns:svg="http://www.w3.org/2000/svg"
   xmlns="http://www.w3.org/2000/svg"
   xmlns:sodipodi="http://sodipodi.sourceforge.net/DTD/sodipodi-0.dtd"
   xmlns:inkscape="http://www.inkscape.org/namespaces/inkscape"
   id="svg4136"
   version="1.1"
   inkscape:version="0.91 r13725"
   xml:space="preserve"
   width="32"
   height="32"
   viewBox="0 0 80 80"
   sodipodi:docname="nawóz.svg"
   inkscape:export-filename="\\elf\aquapi\Software\WebUi\img\devices\wentylator.png"
   inkscape:export-xdpi="36"
   inkscape:export-ydpi="36"><metadata
     id="metadata4142"><rdf:RDF><cc:Work
         rdf:about=""><dc:format>image/svg+xml</dc:format><dc:type
           rdf:resource="http://purl.org/dc/dcmitype/StillImage" /><dc:title></dc:title></cc:Work></rdf:RDF></metadata><defs
     id="defs4140"><clipPath
       clipPathUnits="userSpaceOnUse"
       id="clipPath4150"><path
         d="M 0,64 64,64 64,0 0,0 0,64 Z"
         id="path4152"
         inkscape:connector-curvature="0" /></clipPath><clipPath
       clipPathUnits="userSpaceOnUse"
       id="clipPath4162"><path
         d="m 12,50 40,0 0,-38 -40,0 0,38 z"
         id="path4164"
         inkscape:connector-curvature="0" /></clipPath><clipPath
       clipPathUnits="userSpaceOnUse"
       id="clipPath4182"><path
         d="m 12,50 40,0 0,-10 -40,0 0,10 z"
         id="path4184"
         inkscape:connector-curvature="0" /></clipPath></defs><sodipodi:namedview
     pagecolor="#ffffff"
     bordercolor="#666666"
     borderopacity="1"
     objecttolerance="10"
     gridtolerance="10"
     guidetolerance="10"
     inkscape:pageopacity="0"
     inkscape:pageshadow="2"
     inkscape:window-width="1366"
     inkscape:window-height="705"
     id="namedview4138"
     showgrid="false"
     inkscape:zoom="14.696805"
     inkscape:cx="16.027012"
     inkscape:cy="13.186386"
     inkscape:window-x="-8"
     inkscape:window-y="-8"
     inkscape:window-maximized="1"
     inkscape:current-layer="g4144" /><g
     id="g4144"
     inkscape:groupmode="layer"
     inkscape:label="Elegant_circle-icons"
     transform="matrix(1.25,0,0,-1.25,0,80)"><g
       id="g4154"
       transform="translate(64,32)"
       style="fill:#76c2af;fill-opacity:0.99215686"><path
         d="m 0,0 c 0,-17.673 -14.327,-32 -32,-32 -17.673,0 -32,14.327 -32,32 0,17.673 14.327,32 32,32 C -14.327,32 0,17.673 0,0"
         style="fill:#76c2af;fill-opacity:0.99215686;fill-rule:nonzero;stroke:none"
         id="path4156"
         inkscape:connector-curvature="0" /></g><path
       style="opacity:0.98999999;fill:#ffffff;fill-opacity:0.99215686"
       d="m 16.713562,14.699733 c 0.518751,0.573212 1.417095,1.192619 1.996319,1.376457 0.963043,0.305658 1.022647,0.63419 0.696735,3.840323 -0.461289,4.537904 -2.049238,10.72757 -4.058364,15.819101 -1.466503,3.716417 -2.260696,5.292716 -6.1626683,12.231578 l -1.33571,2.375284 3.2727263,-3.167045 c 3.948034,-3.820548 6.535868,-7.46749 8.19426,-11.547872 l 1.236612,-3.042618 0.34742,2.316758 c 0.394814,2.632812 2.89805,8.236837 4.13732,9.262271 0.677186,0.560338 0.59908,-0.200197 -0.43367,-4.222728 -0.692787,-2.698387 -1.264374,-5.605996 -1.270192,-6.461356 -0.0096,-1.409561 0.117432,-1.298314 1.356376,1.187922 1.502864,3.015852 4.993058,6.880913 7.708591,8.536531 0.959857,0.585213 1.913819,1.064909 2.119917,1.065994 0.206097,0.0011 -0.843223,-1.601346 -2.331823,-3.560955 -4.453447,-5.862566 -7.856537,-14.304704 -9.033414,-22.409433 -0.228235,-1.571773 -0.09771,-2.01471 0.66505,-2.256799 0.52196,-0.165665 1.373452,-0.770201 1.892202,-1.343413 0.933325,-1.031313 0.886296,-1.042208 -4.498843,-1.042208 -5.385138,0 -5.432169,0.0109 -4.498844,1.042208 z M 29.2618,18.540055 c -1.096608,1.175513 -1.097547,1.200369 -0.09201,2.433761 0.558752,0.685365 1.015913,1.758118 1.015913,2.383895 0,1.506185 11.829455,13.3992 12.40359,12.470232 0.252556,-0.408646 -1.393505,-2.438044 -4.541745,-5.599429 l -4.937868,-4.958486 3.171869,0 3.171869,0 3.394924,3.42537 c 2.276546,2.296964 3.569833,3.250461 3.925876,2.894418 C 47.632157,30.731875 36.267611,19.632977 34.11834,19.229772 33.174983,19.052798 32.112666,18.557992 31.757635,18.130206 30.893876,17.089441 30.564602,17.143512 29.2618,18.540055 Z m 15.996727,16.245389 c -1.990652,2.086991 -2.926143,3.463616 -2.719553,4.001978 0.173203,0.451362 0.314915,0.919995 0.314915,1.041406 0,0.121411 0.526279,0.220749 1.169511,0.220749 0.676048,0 2.181897,0.997162 3.568865,2.363275 2.950431,2.906069 4.996853,3.449412 7.014416,1.862398 2.385224,-1.876219 2.019626,-4.20726 -1.192562,-7.603673 -1.449688,-1.53283 -2.484719,-2.938043 -2.300067,-3.122693 0.516591,-0.516592 -0.886311,-1.944764 -1.910354,-1.944764 -0.500886,0 -2.276214,1.431597 -3.945171,3.181324 z"
       id="path4173"
       inkscape:connector-curvature="0" /></g></svg>