<?xml version="1.0" encoding="UTF-8" standalone="no"?>
<!-- Created with Inkscape (http://www.inkscape.org/) -->

<svg
   xmlns:dc="http://purl.org/dc/elements/1.1/"
   xmlns:cc="http://creativecommons.org/ns#"
   xmlns:rdf="http://www.w3.org/1999/02/22-rdf-syntax-ns#"
   xmlns:svg="http://www.w3.org/2000/svg"
   xmlns="http://www.w3.org/2000/svg"
   xmlns:sodipodi="http://sodipodi.sourceforge.net/DTD/sodipodi-0.dtd"
   xmlns:inkscape="http://www.inkscape.org/namespaces/inkscape"
   id="svg4136"
   version="1.1"
   inkscape:version="0.91 r13725"
   xml:space="preserve"
   width="32"
   height="32"
   viewBox="0 0 80 80"
   sodipodi:docname="pH.svg"
   inkscape:export-filename="\\elf\aquapi\Software\WebUi\img\devices\ph.png"
   inkscape:export-xdpi="36"
   inkscape:export-ydpi="36"><metadata
     id="metadata4142"><rdf:RDF><cc:Work
         rdf:about=""><dc:format>image/svg+xml</dc:format><dc:type
           rdf:resource="http://purl.org/dc/dcmitype/StillImage" /><dc:title></dc:title></cc:Work></rdf:RDF></metadata><defs
     id="defs4140"><clipPath
       clipPathUnits="userSpaceOnUse"
       id="clipPath4150"><path
         d="M 0,64 64,64 64,0 0,0 0,64 Z"
         id="path4152"
         inkscape:connector-curvature="0" /></clipPath><clipPath
       clipPathUnits="userSpaceOnUse"
       id="clipPath4162"><path
         d="m 12,50 40,0 0,-38 -40,0 0,38 z"
         id="path4164"
         inkscape:connector-curvature="0" /></clipPath><clipPath
       clipPathUnits="userSpaceOnUse"
       id="clipPath4182"><path
         d="m 12,50 40,0 0,-10 -40,0 0,10 z"
         id="path4184"
         inkscape:connector-curvature="0" /></clipPath></defs><sodipodi:namedview
     pagecolor="#ffffff"
     bordercolor="#666666"
     borderopacity="1"
     objecttolerance="10"
     gridtolerance="10"
     guidetolerance="10"
     inkscape:pageopacity="0"
     inkscape:pageshadow="2"
     inkscape:window-width="1366"
     inkscape:window-height="705"
     id="namedview4138"
     showgrid="false"
     inkscape:zoom="4.7376154"
     inkscape:cx="52.204196"
     inkscape:cy="31.035813"
     inkscape:window-x="-8"
     inkscape:window-y="-8"
     inkscape:window-maximized="1"
     inkscape:current-layer="g4144" /><g
     id="g4144"
     inkscape:groupmode="layer"
     inkscape:label="Elegant_circle-icons"
     transform="matrix(1.25,0,0,-1.25,0,80)"><g
       id="g4154"
       transform="translate(64,32)"
       style="fill:#77b3d4;fill-opacity:0.99215686"><path
         d="m 0,0 c 0,-17.673 -14.327,-32 -32,-32 -17.673,0 -32,14.327 -32,32 0,17.673 14.327,32 32,32 C -14.327,32 0,17.673 0,0"
         style="fill:#77b3d4;fill-opacity:0.99215686;fill-rule:nonzero;stroke:none"
         id="path4156"
         inkscape:connector-curvature="0" /></g><rect
       style="opacity:0.98999999;fill:#77b3d4;fill-opacity:1;stroke:#000000;stroke-width:1;stroke-linecap:square;stroke-linejoin:miter;stroke-miterlimit:4;stroke-dasharray:3, 1;stroke-dashoffset:0;stroke-opacity:1"
       id="rect4222"
       width="8"
       height="8"
       x="2.701781"
       y="2.7544529"
       transform="scale(1,-1)" /><rect
       style="opacity:0.98999999;fill:#e0e0d1;fill-opacity:1;stroke:#000000;stroke-width:1;stroke-linecap:square;stroke-linejoin:miter;stroke-miterlimit:4;stroke-dasharray:3, 1;stroke-dashoffset:0;stroke-opacity:1"
       id="rect4222-6"
       width="8"
       height="8"
       x="11.519492"
       y="2.7544529"
       transform="scale(1,-1)" /><rect
       style="opacity:0.98999999;fill:#76c2af;fill-opacity:1;stroke:#000000;stroke-width:1;stroke-linecap:square;stroke-linejoin:miter;stroke-miterlimit:4;stroke-dasharray:3, 1;stroke-dashoffset:0;stroke-opacity:1"
       id="rect4222-8"
       width="8"
       height="8"
       x="20.3372"
       y="2.7544529"
       transform="scale(1,-1)" /><rect
       style="opacity:0.98999999;fill:#4f5d73;fill-opacity:1;stroke:#000000;stroke-width:1;stroke-linecap:square;stroke-linejoin:miter;stroke-miterlimit:4;stroke-dasharray:3, 1;stroke-dashoffset:0;stroke-opacity:1"
       id="rect4222-0"
       width="8"
       height="8"
       x="29.154913"
       y="2.7544529"
       transform="scale(1,-1)" /><rect
       style="opacity:0.98999999;fill:#e0995e;fill-opacity:1;stroke:#000000;stroke-width:1;stroke-linecap:square;stroke-linejoin:miter;stroke-miterlimit:4;stroke-dasharray:3, 1;stroke-dashoffset:0;stroke-opacity:1"
       id="rect4222-7"
       width="8"
       height="8"
       x="37.972618"
       y="2.7544529"
       transform="scale(1,-1)" /><rect
       style="opacity:0.98999999;fill:#c75c5c;fill-opacity:1;stroke:#000000;stroke-width:1;stroke-linecap:square;stroke-linejoin:miter;stroke-miterlimit:4;stroke-dasharray:3, 1;stroke-dashoffset:0;stroke-opacity:1"
       id="rect4222-2"
       width="8"
       height="8"
       x="46.790333"
       y="2.7544529"
       transform="scale(1,-1)" /><rect
       style="opacity:0.98999999;fill:#ffffff;fill-opacity:1;stroke:#000000;stroke-width:1;stroke-linecap:square;stroke-linejoin:miter;stroke-miterlimit:4;stroke-dasharray:3, 1;stroke-dashoffset:0;stroke-opacity:1"
       id="rect4222-4"
       width="8"
       height="8"
       x="55.608047"
       y="2.7544529"
       transform="scale(1,-1)" /><path
       style="fill:#ffffff;fill-opacity:0.99215686"
       d="m 23.840997,5.3854514 c 0.860302,0.7353079 -0.194799,2.4043015 -0.271405,2.9255436 -0.07661,0.5212422 -0.496717,6.344765 -0.572401,14.901828 l -0.137611,15.558299 1.588201,0 1.588203,0 -0.0019,-14.452633 C 26.032829,14.118852 25.626812,9.1562904 25.363026,8.2645167 25.157448,7.5695269 24.685036,6.7988561 24.6744,6.1907402 24.6575,5.2251059 25.136049,5.1146319 24.377338,5.0273312 23.834974,4.9649222 23.701763,4.8303116 23.671988,5.0899441 Z M 22.152765,40.232404 c -0.328325,0.328329 -0.27385,17.492989 0.05552,17.492989 0.153483,0 0.353409,0.284314 0.444282,0.631809 0.135577,0.518447 0.430897,0.631809 1.645941,0.631809 1.215045,0 1.510366,-0.113362 1.645942,-0.631809 0.09087,-0.347495 0.293049,-0.631809 0.449279,-0.631809 0.163333,0 0.248367,-3.725689 0.200085,-8.766351 l -0.08398,-8.76635 -2.066767,-0.09192 c -1.13672,-0.05055 -2.167358,0.0087 -2.290302,0.131632 z m 3.305512,0.956963 c 0.31774,0.28755 0.577707,0.809445 0.577707,1.159767 0,0.822029 -0.881614,1.792364 -1.628485,1.792364 -0.701607,0 -1.846465,-1.07728 -1.846465,-1.737475 0,-0.636705 1.135045,-1.737475 1.791577,-1.737475 0.290376,0 0.787926,0.235268 1.105666,0.522819 z"
       id="path4321"
       inkscape:connector-curvature="0"
       sodipodi:nodetypes="csscccsscscccsssssscscssssss" /><text
       xml:space="preserve"
       style="font-style:normal;font-weight:normal;font-size:16px;line-height:125%;font-family:sans-serif;letter-spacing:0px;word-spacing:0px;fill:#ffffff;fill-opacity:0.99215686;stroke:none;stroke-width:1px;stroke-linecap:butt;stroke-linejoin:miter;stroke-opacity:1;"
       x="28.80232"
       y="-25.39506"
       id="text4323"
       sodipodi:linespacing="125%"
       transform="scale(1,-1)"><tspan
         sodipodi:role="line"
         id="tspan4325"
         x="28.80232"
         y="-25.39506">pH</tspan></text>
<path
       style="opacity:0.98999999;fill:#ffffff;fill-opacity:0.99215686;stroke:none;stroke-width:1;stroke-linecap:square;stroke-linejoin:miter;stroke-miterlimit:4;stroke-dasharray:3, 1;stroke-dashoffset:0;stroke-opacity:1"
       id="path4327"
       transform="scale(1,-1)"
       sodipodi:type="arc"
       sodipodi:cx="24.463785"
       sodipodi:cy="-6.015687"
       sodipodi:rx="1.4564289"
       sodipodi:ry="1.4986442"
       sodipodi:start="0"
       sodipodi:end="6.2756106"
       d="m 25.920214,-6.015687 a 1.4564289,1.4986442 0 0 1 -1.453671,1.4986416 1.4564289,1.4986442 0 0 1 -1.459176,-1.4929657 1.4564289,1.4986442 0 0 1 1.448144,-1.5042959 1.4564289,1.4986442 0 0 1 1.464661,1.4872683 l -1.456387,0.011352 z" /></g></svg>