<?xml version="1.0" encoding="UTF-8" standalone="no"?>
<!-- Created with Inkscape (http://www.inkscape.org/) -->

<svg
   xmlns:dc="http://purl.org/dc/elements/1.1/"
   xmlns:cc="http://creativecommons.org/ns#"
   xmlns:rdf="http://www.w3.org/1999/02/22-rdf-syntax-ns#"
   xmlns:svg="http://www.w3.org/2000/svg"
   xmlns="http://www.w3.org/2000/svg"
   xmlns:sodipodi="http://sodipodi.sourceforge.net/DTD/sodipodi-0.dtd"
   xmlns:inkscape="http://www.inkscape.org/namespaces/inkscape"
   id="svg4136"
   version="1.1"
   inkscape:version="0.91 r13725"
   xml:space="preserve"
   width="32"
   height="32"
   viewBox="0 0 80 80"
   sodipodi:docname="przełącznik.svg"
   inkscape:export-filename="\\elf\aquapi\Software\WebUi\img\devices\grzalka.png"
   inkscape:export-xdpi="36"
   inkscape:export-ydpi="36"><metadata
     id="metadata4142"><rdf:RDF><cc:Work
         rdf:about=""><dc:format>image/svg+xml</dc:format><dc:type
           rdf:resource="http://purl.org/dc/dcmitype/StillImage" /><dc:title></dc:title></cc:Work></rdf:RDF></metadata><defs
     id="defs4140"><clipPath
       clipPathUnits="userSpaceOnUse"
       id="clipPath4150"><path
         d="M 0,64 64,64 64,0 0,0 0,64 Z"
         id="path4152"
         inkscape:connector-curvature="0" /></clipPath><clipPath
       clipPathUnits="userSpaceOnUse"
       id="clipPath4162"><path
         d="m 12,50 40,0 0,-38 -40,0 0,38 z"
         id="path4164"
         inkscape:connector-curvature="0" /></clipPath><clipPath
       clipPathUnits="userSpaceOnUse"
       id="clipPath4182"><path
         d="m 12,50 40,0 0,-10 -40,0 0,10 z"
         id="path4184"
         inkscape:connector-curvature="0" /></clipPath></defs><sodipodi:namedview
     pagecolor="#ffffff"
     bordercolor="#666666"
     borderopacity="1"
     objecttolerance="10"
     gridtolerance="10"
     guidetolerance="10"
     inkscape:pageopacity="0"
     inkscape:pageshadow="2"
     inkscape:window-width="1366"
     inkscape:window-height="705"
     id="namedview4138"
     showgrid="false"
     inkscape:zoom="4.7376154"
     inkscape:cx="-18.805503"
     inkscape:cy="-9.7628251"
     inkscape:window-x="-8"
     inkscape:window-y="-8"
     inkscape:window-maximized="1"
     inkscape:current-layer="g4144" /><g
     id="g4144"
     inkscape:groupmode="layer"
     inkscape:label="Elegant_circle-icons"
     transform="matrix(1.25,0,0,-1.25,0,80)"><rect
       style="opacity:1;fill:#76c3af;fill-opacity:0.99215686;stroke:#76c3af;stroke-width:20.88096619;stroke-linecap:square;stroke-linejoin:round;stroke-miterlimit:4;stroke-dasharray:none;stroke-dashoffset:0;stroke-opacity:0.99215686"
       id="rect3342"
       width="43.119034"
       height="43.119034"
       x="10.440483"
       y="-53.559517"
       transform="scale(1,-1)" /><path
       style="fill:#ffffff"
       d="m 19.165127,9.3281651 0,2.7661379 -4.204528,0 -4.204525,0 0,8.519698 0,8.519701 4.979044,0 4.979046,0 0,4.315172 0,4.315172 2.125939,0 c 1.615154,0 2.098039,0.06646 2.009823,0.276614 -0.06387,0.152136 -1.330971,3.015089 -2.815791,6.362112 -2.47397,5.57673 -2.699756,6.196504 -2.700632,7.413244 -0.0013,1.564082 0.384068,2.593078 1.40669,3.757783 2.475129,2.819012 7.047174,2.37355 9.042286,-0.880999 0.223833,-0.365134 1.366812,-3.999834 2.539952,-8.077119 1.173147,-4.077284 2.235517,-7.736885 2.360831,-8.132443 l 0.22784,-0.719192 4.187367,0 4.187366,0 0,-4.315172 0,-4.315172 4.979046,0 4.979044,0 0,-8.519701 0,-8.519698 -4.204526,0 -4.204526,0 0,-2.7661379 0,-2.7661349 -1.438393,0 -1.438391,0 0,2.7661349 0,2.7661379 -4.315172,0 -4.315171,0 0,-2.7661379 0,-2.7661349 -1.327747,0 -1.327747,0 0,2.7661349 0,2.7661379 -4.315171,0 -4.315172,0 0,-2.7661379 0,-2.7661349 -1.43839,0 -1.438392,0 0,2.7661349 z m 29.874272,11.3964809 0,4.204525 -17.0394,0 -17.0394,0 0,-4.204525 0,-4.204527 17.0394,0 17.0394,0 0,4.204527 z m -9.95809,9.847444 0,2.766139 -7.08131,0 -7.08131,0 0,-2.766139 0,-2.766134 7.08131,0 7.08131,0 0,2.766134 z m -9.301346,14.696143 c -1.193012,4.127302 -2.276319,7.704493 -2.407346,7.949309 -0.769499,1.437826 -2.94379,1.854864 -4.192503,0.804142 -0.759418,-0.639009 -1.243598,-1.866263 -1.046345,-2.652186 0.07367,-0.293516 1.29102,-3.151178 2.705232,-6.350363 1.414207,-3.199181 2.709083,-6.140339 2.877494,-6.535897 l 0.306206,-0.719192 1.963193,0 1.963194,0 -2.169125,7.504187 z"
       id="path4155"
       inkscape:connector-curvature="0" /></g></svg>