<?xml version="1.0" encoding="UTF-8" standalone="no"?>
<!-- Created with Inkscape (http://www.inkscape.org/) -->

<svg
   xmlns:dc="http://purl.org/dc/elements/1.1/"
   xmlns:cc="http://creativecommons.org/ns#"
   xmlns:rdf="http://www.w3.org/1999/02/22-rdf-syntax-ns#"
   xmlns:svg="http://www.w3.org/2000/svg"
   xmlns="http://www.w3.org/2000/svg"
   xmlns:sodipodi="http://sodipodi.sourceforge.net/DTD/sodipodi-0.dtd"
   xmlns:inkscape="http://www.inkscape.org/namespaces/inkscape"
   id="svg4136"
   version="1.1"
   inkscape:version="0.91 r13725"
   xml:space="preserve"
   width="32"
   height="32"
   viewBox="0 0 80 80"
   sodipodi:docname="prąd.svg"
   inkscape:export-filename="\\elf\aquapi\Software\WebUi\img\devices\temperatura.png"
   inkscape:export-xdpi="36"
   inkscape:export-ydpi="36"><metadata
     id="metadata4142"><rdf:RDF><cc:Work
         rdf:about=""><dc:format>image/svg+xml</dc:format><dc:type
           rdf:resource="http://purl.org/dc/dcmitype/StillImage" /><dc:title></dc:title></cc:Work></rdf:RDF></metadata><defs
     id="defs4140"><clipPath
       clipPathUnits="userSpaceOnUse"
       id="clipPath4150"><path
         d="M 0,64 64,64 64,0 0,0 0,64 Z"
         id="path4152"
         inkscape:connector-curvature="0" /></clipPath><clipPath
       clipPathUnits="userSpaceOnUse"
       id="clipPath4162"><path
         d="m 12,50 40,0 0,-38 -40,0 0,38 z"
         id="path4164"
         inkscape:connector-curvature="0" /></clipPath><clipPath
       clipPathUnits="userSpaceOnUse"
       id="clipPath4182"><path
         d="m 12,50 40,0 0,-10 -40,0 0,10 z"
         id="path4184"
         inkscape:connector-curvature="0" /></clipPath><clipPath
       id="clipPath4150-1"
       clipPathUnits="userSpaceOnUse"><path
         inkscape:connector-curvature="0"
         id="path4152-1"
         d="M 0,64 64,64 64,0 0,0 0,64 Z" /></clipPath><clipPath
       id="clipPath4162-7"
       clipPathUnits="userSpaceOnUse"><path
         inkscape:connector-curvature="0"
         id="path4164-8"
         d="m 12,50 40,0 0,-38 -40,0 0,38 z" /></clipPath><clipPath
       id="clipPath4182-1"
       clipPathUnits="userSpaceOnUse"><path
         inkscape:connector-curvature="0"
         id="path4184-8"
         d="m 12,50 40,0 0,-10 -40,0 0,10 z" /></clipPath></defs><sodipodi:namedview
     pagecolor="#ffffff"
     bordercolor="#666666"
     borderopacity="1"
     objecttolerance="10"
     gridtolerance="10"
     guidetolerance="10"
     inkscape:pageopacity="0"
     inkscape:pageshadow="2"
     inkscape:window-width="1366"
     inkscape:window-height="705"
     id="namedview4138"
     showgrid="false"
     inkscape:zoom="9.4752309"
     inkscape:cx="17.622763"
     inkscape:cy="18.592087"
     inkscape:window-x="-8"
     inkscape:window-y="-8"
     inkscape:window-maximized="1"
     inkscape:current-layer="g4144" /><g
     id="g4144"
     inkscape:groupmode="layer"
     inkscape:label="Elegant_circle-icons"
     transform="matrix(1.25,0,0,-1.25,0,80)"><rect
       style="opacity:0.98999999;fill:#e1995e;fill-opacity:1;stroke:#76b1d2;stroke-width:20.88096619;stroke-linecap:square;stroke-linejoin:round;stroke-miterlimit:4;stroke-dasharray:none;stroke-dashoffset:0;stroke-opacity:1"
       id="rect3342"
       width="43.119034"
       height="43.119034"
       x="10.440483"
       y="-53.559517"
       transform="scale(1,-1)" /><path
       style="fill:none;fill-rule:evenodd;stroke:#ffffff;stroke-width:7.19999981;stroke-linecap:butt;stroke-linejoin:miter;stroke-miterlimit:4;stroke-dasharray:none;stroke-opacity:1"
       d="m 31.999996,60.600886 0,-57.201771"
       id="path4191"
       inkscape:connector-curvature="0"
       sodipodi:nodetypes="cc" /><circle
       style="opacity:1;fill:#76b1d2;fill-opacity:0.99215686;stroke:#ffffff;stroke-width:2.796;stroke-linecap:square;stroke-linejoin:miter;stroke-miterlimit:3.0999999;stroke-dasharray:none;stroke-dashoffset:0;stroke-opacity:1"
       id="path4316"
       cx="32"
       cy="-32"
       r="22.002232"
       transform="scale(1,-1)" /><path
       style="color:#000000;clip-rule:nonzero;display:inline;overflow:visible;visibility:visible;opacity:1;isolation:auto;mix-blend-mode:normal;color-interpolation:sRGB;color-interpolation-filters:linearRGB;solid-color:#000000;solid-opacity:1;fill:#ffffff;fill-opacity:1;fill-rule:evenodd;stroke:none;stroke-width:2px;stroke-linecap:butt;stroke-linejoin:miter;stroke-miterlimit:4;stroke-dasharray:none;stroke-dashoffset:0;stroke-opacity:1;color-rendering:auto;image-rendering:auto;shape-rendering:auto;text-rendering:auto;enable-background:accumulate"
       id="path4189"
       sodipodi:type="arc"
       sodipodi:cx="31.661491"
       sodipodi:cy="-31.45042"
       sodipodi:rx="21.951971"
       sodipodi:ry="22.374125"
       sodipodi:start="3.1415927"
       sodipodi:end="0"
       d="m 9.7095203,-31.450421 a 21.951971,22.374125 0 0 1 21.9519717,-22.374124 21.951971,22.374125 0 0 1 21.95197,22.374125 l -21.951971,0 z"
       transform="scale(1,-1)" /><path
       style="fill:#76b1d2;fill-opacity:0.99215686"
       d="m 30.749321,34.082779 c -1.122596,0.313312 -2.054707,1.007305 -2.707837,2.01609 -1.353765,2.090946 -0.795176,4.94344 1.241618,6.340443 0.4053,0.277987 12.773424,6.374682 12.932066,6.374682 0.0609,0 -2.188611,-4.622266 -5.427804,-11.152979 -1.067947,-2.153143 -1.528737,-2.697667 -2.789487,-3.296396 -0.699358,-0.332124 -0.93444,-0.388482 -1.733252,-0.415533 -0.590708,-0.02001 -1.137447,0.02824 -1.515304,0.133693 z m 1.758783,2.308894 c 0.972118,0.225635 1.802479,1.247142 1.800147,2.214533 -0.0013,0.509791 -0.396995,1.413187 -0.768823,1.754952 -0.817708,0.751595 -2.292884,0.751595 -3.09864,0 -0.368024,-0.343287 -0.66844,-0.984655 -0.73857,-1.576798 -0.114188,-0.964094 0.608621,-2.027852 1.581728,-2.327855 0.589629,-0.181778 0.696036,-0.187412 1.224158,-0.06483 z m -14.359907,0.414436 c -0.385244,0.302737 -0.443635,0.632346 -0.341769,1.929281 0.162172,2.064798 0.795874,4.113862 1.830078,5.917527 0.703007,1.226058 1.093593,1.740515 2.127495,2.802219 1.931883,1.983831 4.105413,3.217634 6.912866,3.924089 1.046047,0.263223 1.341173,0.290197 3.203393,0.29279 1.586695,0.0022 2.257838,-0.04167 2.963716,-0.193789 1.530967,-0.329914 3.136575,-0.942546 4.287826,-1.636053 l 0.604239,-0.363987 -1.085695,-0.544825 -1.085692,-0.544827 -0.832149,0.384476 c -4.236613,1.957437 -9.739855,0.947864 -13.188226,-2.419388 -2.339171,-2.284143 -3.479469,-4.817993 -3.76055,-8.356298 -0.05538,-0.697096 -0.110338,-0.874948 -0.341957,-1.106566 -0.329765,-0.329764 -0.931544,-0.369143 -1.293575,-0.08465 z m 26.391683,0.07944 c -0.234794,0.234787 -0.280915,0.403301 -0.347219,1.2685 -0.175486,2.289989 -0.827995,4.360434 -1.870855,5.936299 l -0.277278,0.418997 0.477683,0.974984 c 0.262723,0.536243 0.50848,0.994074 0.546119,1.017399 0.108048,0.06697 1.10524,-1.43397 1.583835,-2.383917 0.893205,-1.772897 1.346716,-3.388486 1.526601,-5.438402 0.08967,-1.021755 0.081,-1.27518 -0.05242,-1.533195 -0.310223,-0.599909 -1.114991,-0.732137 -1.586458,-0.260665 z"
       id="path4207"
       inkscape:connector-curvature="0" /><path
       style="fill:#ffffff;fill-opacity:1"
       d="m 29.811619,13.159851 c -0.1331,0.05513 -0.36196,0.322 -0.36196,0.422068 0,0.03546 0.41931,1.389011 0.9318,3.00789 0.51248,1.618881 0.92681,2.948061 0.92072,2.953736 -0.006,0.0056 -0.98181,0.02895 -2.16829,0.05171 -1.43633,0.02757 -2.18589,0.06253 -2.24299,0.104625 -0.11427,0.08426 -0.21758,0.284606 -0.21758,0.421971 0,0.06117 1.16432,1.713784 2.58739,3.672471 1.42307,1.958687 2.98109,4.10361 3.46227,4.766496 0.48118,0.662884 0.92585,1.232527 0.98816,1.265873 0.26894,0.143935 0.72504,-0.123571 0.72434,-0.424831 -1.6e-4,-0.06592 -0.40811,-1.40271 -0.90656,-2.970657 -0.49846,-1.567948 -0.90629,-2.887422 -0.90629,-2.932164 0,-0.0693 0.32626,-0.08135 2.20211,-0.08135 2.14202,0 2.20618,-0.0032 2.3514,-0.117434 0.22025,-0.173256 0.19969,-0.415658 -0.0674,-0.793902 -0.45965,-0.651009 -6.57834,-8.966385 -6.73196,-9.148799 -0.17454,-0.207251 -0.37385,-0.27697 -0.5652,-0.197706 z"
       id="path4251"
       inkscape:connector-curvature="0"
       sodipodi:nodetypes="sssssssssscsssssss" /></g></svg>