<?xml version="1.0" encoding="UTF-8" standalone="no"?>
<!-- Created with Inkscape (http://www.inkscape.org/) -->

<svg
   xmlns:dc="http://purl.org/dc/elements/1.1/"
   xmlns:cc="http://creativecommons.org/ns#"
   xmlns:rdf="http://www.w3.org/1999/02/22-rdf-syntax-ns#"
   xmlns:svg="http://www.w3.org/2000/svg"
   xmlns="http://www.w3.org/2000/svg"
   xmlns:sodipodi="http://sodipodi.sourceforge.net/DTD/sodipodi-0.dtd"
   xmlns:inkscape="http://www.inkscape.org/namespaces/inkscape"
   id="svg4136"
   version="1.1"
   inkscape:version="0.91 r13725"
   xml:space="preserve"
   width="32"
   height="32"
   viewBox="0 0 80 80"
   sodipodi:docname="swietlowka.svg"
   inkscape:export-filename="\\elf\aquapi\Software\WebUi\img\devices\swietlowka.png"
   inkscape:export-xdpi="36"
   inkscape:export-ydpi="36"><metadata
     id="metadata4142"><rdf:RDF><cc:Work
         rdf:about=""><dc:format>image/svg+xml</dc:format><dc:type
           rdf:resource="http://purl.org/dc/dcmitype/StillImage" /><dc:title></dc:title></cc:Work></rdf:RDF></metadata><defs
     id="defs4140"><clipPath
       clipPathUnits="userSpaceOnUse"
       id="clipPath4150"><path
         d="M 0,64 64,64 64,0 0,0 0,64 Z"
         id="path4152"
         inkscape:connector-curvature="0" /></clipPath><clipPath
       clipPathUnits="userSpaceOnUse"
       id="clipPath4162"><path
         d="m 12,50 40,0 0,-38 -40,0 0,38 z"
         id="path4164"
         inkscape:connector-curvature="0" /></clipPath><clipPath
       clipPathUnits="userSpaceOnUse"
       id="clipPath4182"><path
         d="m 12,50 40,0 0,-10 -40,0 0,10 z"
         id="path4184"
         inkscape:connector-curvature="0" /></clipPath></defs><sodipodi:namedview
     pagecolor="#ffffff"
     bordercolor="#666666"
     borderopacity="1"
     objecttolerance="10"
     gridtolerance="10"
     guidetolerance="10"
     inkscape:pageopacity="0"
     inkscape:pageshadow="2"
     inkscape:window-width="1366"
     inkscape:window-height="705"
     id="namedview4138"
     showgrid="false"
     inkscape:zoom="2.3688077"
     inkscape:cx="63.547023"
     inkscape:cy="1.5859134"
     inkscape:window-x="-8"
     inkscape:window-y="-8"
     inkscape:window-maximized="1"
     inkscape:current-layer="g4144" /><g
     id="g4144"
     inkscape:groupmode="layer"
     inkscape:label="Elegant_circle-icons"
     transform="matrix(1.25,0,0,-1.25,0,80)"><g
       id="g4154"
       transform="translate(64,32)"
       style="fill:#e0995e;fill-opacity:0.99215686"><path
         d="m 0,0 c 0,-17.673 -14.327,-32 -32,-32 -17.673,0 -32,14.327 -32,32 0,17.673 14.327,32 32,32 C -14.327,32 0,17.673 0,0"
         style="fill:#e0995e;fill-opacity:0.99215686;fill-rule:nonzero;stroke:none"
         id="path4156"
         inkscape:connector-curvature="0" /></g><rect
       style="opacity:0.98999999;fill:#77b3d4;fill-opacity:1;stroke:#000000;stroke-width:1;stroke-linecap:square;stroke-linejoin:miter;stroke-miterlimit:4;stroke-dasharray:3, 1;stroke-dashoffset:0;stroke-opacity:1"
       id="rect4222"
       width="8"
       height="8"
       x="2.701781"
       y="2.7544529"
       transform="scale(1,-1)" /><rect
       style="opacity:0.98999999;fill:#e0e0d1;fill-opacity:1;stroke:#000000;stroke-width:1;stroke-linecap:square;stroke-linejoin:miter;stroke-miterlimit:4;stroke-dasharray:3, 1;stroke-dashoffset:0;stroke-opacity:1"
       id="rect4222-6"
       width="8"
       height="8"
       x="11.519492"
       y="2.7544529"
       transform="scale(1,-1)" /><rect
       style="opacity:0.98999999;fill:#76c2af;fill-opacity:1;stroke:#000000;stroke-width:1;stroke-linecap:square;stroke-linejoin:miter;stroke-miterlimit:4;stroke-dasharray:3, 1;stroke-dashoffset:0;stroke-opacity:1"
       id="rect4222-8"
       width="8"
       height="8"
       x="20.3372"
       y="2.7544529"
       transform="scale(1,-1)" /><rect
       style="opacity:0.98999999;fill:#4f5d73;fill-opacity:1;stroke:#000000;stroke-width:1;stroke-linecap:square;stroke-linejoin:miter;stroke-miterlimit:4;stroke-dasharray:3, 1;stroke-dashoffset:0;stroke-opacity:1"
       id="rect4222-0"
       width="8"
       height="8"
       x="29.154913"
       y="2.7544529"
       transform="scale(1,-1)" /><rect
       style="opacity:0.98999999;fill:#e0995e;fill-opacity:1;stroke:#000000;stroke-width:1;stroke-linecap:square;stroke-linejoin:miter;stroke-miterlimit:4;stroke-dasharray:3, 1;stroke-dashoffset:0;stroke-opacity:1"
       id="rect4222-7"
       width="8"
       height="8"
       x="37.972618"
       y="2.7544529"
       transform="scale(1,-1)" /><rect
       style="opacity:0.98999999;fill:#c75c5c;fill-opacity:1;stroke:#000000;stroke-width:1;stroke-linecap:square;stroke-linejoin:miter;stroke-miterlimit:4;stroke-dasharray:3, 1;stroke-dashoffset:0;stroke-opacity:1"
       id="rect4222-2"
       width="8"
       height="8"
       x="46.790333"
       y="2.7544529"
       transform="scale(1,-1)" /><rect
       style="opacity:0.98999999;fill:#ffffff;fill-opacity:1;stroke:#000000;stroke-width:1;stroke-linecap:square;stroke-linejoin:miter;stroke-miterlimit:4;stroke-dasharray:3, 1;stroke-dashoffset:0;stroke-opacity:1"
       id="rect4222-4"
       width="8"
       height="8"
       x="55.608047"
       y="2.7544529"
       transform="scale(1,-1)" /><path
       style="fill:#ffffff;fill-opacity:0.99215686"
       d="m 31.729734,16.868026 0,7.972776 0.810794,0 0.810786,0 0,-7.972776 0,-7.9727757 -0.810786,0 -0.810794,0 0,7.9727757 z m -8.218826,-3.099962 c -0.495968,0.220209 -0.569972,0.303086 -0.491475,0.550407 0.156142,0.491968 4.358451,10.674876 4.438283,10.7547 0.106166,0.106175 1.366687,-0.429013 1.366687,-0.580264 0,-0.303152 -4.469276,-11.002187 -4.592333,-10.99363 -0.07549,0.0052 -0.400027,0.126204 -0.721162,0.268787 z m 16.46187,-0.234066 c 0,0.02435 -0.851333,2.471542 -1.891847,5.438208 -1.040513,2.966666 -1.891847,5.45832 -1.891847,5.537007 0,0.137543 1.320454,0.685819 1.406516,0.584009 0.09966,-0.117898 3.892269,-11.078558 3.846612,-11.11671 -0.05267,-0.04399 -1.349725,-0.486781 -1.425941,-0.486781 -0.02392,0 -0.04351,0.01992 -0.04351,0.04427 z m -21.579166,4.017473 -0.566158,0.40113 2.361741,3.410318 c 1.298968,1.875674 2.419203,3.430232 2.489425,3.454571 0.180755,0.06265 1.219491,-0.6916 1.179236,-0.856275 -0.06917,-0.282959 -4.633851,-6.809806 -4.76294,-6.810328 -0.07431,-2.83e-4 -0.389913,0.179961 -0.701304,0.400584 z m 25.01453,3.19844 c -0.960421,1.972214 -1.765466,3.635597 -1.788981,3.696407 -0.02353,0.06081 0.264637,0.266339 0.640367,0.456733 l 0.683134,0.346171 1.168181,-2.332535 c 0.6425,-1.282894 1.45605,-2.947112 1.807894,-3.698258 l 0.639728,-1.365723 -0.702054,-0.344319 -0.702053,-0.34432 -1.746216,3.585844 z m -34.6789115,7.705668 -0.039466,1.047271 -1.655365,0.03794 -1.6553642,0.03794 0,0.734906 0,0.734906 1.6553642,0.03794 1.655365,0.03794 0,1.351318 0,1.351318 -1.655365,0.03794 -1.6553642,0.03794 0,0.734906 0,0.734905 1.6553642,0.03794 1.655365,0.03794 0.039466,1.047272 0.039466,1.047271 23.4396875,0 23.439681,0 0,-1.081054 0,-1.081055 1.48645,0 1.48645,0 0,-0.738653 0,-0.738654 -1.45267,-0.03835 -1.452661,-0.03835 -0.03853,-1.3851 -0.03853,-1.385101 1.491181,0 1.49118,0 0,-0.738654 0,-0.738653 -1.45267,-0.03835 -1.452662,-0.03835 -0.03948,-1.047271 -0.03948,-1.047272 -23.433995,0 -23.4340027,0 -0.039466,1.047272 z m 3.3748915,3.986388 0.03606,3.479644 -0.948204,0 -0.948204,0 0,-3.519601 0,-3.519602 0.91214,0.03995 0.91214,0.03996 0.03606,3.479644 z m 38.377431,0 0.03609,3.479644 -18.447779,0 -18.44777,0 0,-3.51391 0,-3.513909 18.411708,0.03426 18.411708,0.03426 0.03609,3.479644 z m 3.648556,0 0.03609,3.479644 -1.083335,0 -1.083335,0 0,-3.519111 0,-3.519112 1.047273,0.03947 1.047272,0.03946 0.03609,3.479644 z"
       id="path4295"
       inkscape:connector-curvature="0" /></g></svg>