<?xml version="1.0" encoding="UTF-8" standalone="no"?>
<!-- Created with Inkscape (http://www.inkscape.org/) -->

<svg
   xmlns:dc="http://purl.org/dc/elements/1.1/"
   xmlns:cc="http://creativecommons.org/ns#"
   xmlns:rdf="http://www.w3.org/1999/02/22-rdf-syntax-ns#"
   xmlns:svg="http://www.w3.org/2000/svg"
   xmlns="http://www.w3.org/2000/svg"
   xmlns:sodipodi="http://sodipodi.sourceforge.net/DTD/sodipodi-0.dtd"
   xmlns:inkscape="http://www.inkscape.org/namespaces/inkscape"
   id="svg4136"
   version="1.1"
   inkscape:version="0.91 r13725"
   xml:space="preserve"
   width="32"
   height="32"
   viewBox="0 0 80 80"
   sodipodi:docname="temperatura.svg"
   inkscape:export-filename="\\elf\aquapi\Software\WebUi\img\devices\temperatura.png"
   inkscape:export-xdpi="36"
   inkscape:export-ydpi="36"><metadata
     id="metadata4142"><rdf:RDF><cc:Work
         rdf:about=""><dc:format>image/svg+xml</dc:format><dc:type
           rdf:resource="http://purl.org/dc/dcmitype/StillImage" /><dc:title></dc:title></cc:Work></rdf:RDF></metadata><defs
     id="defs4140"><clipPath
       clipPathUnits="userSpaceOnUse"
       id="clipPath4150"><path
         d="M 0,64 64,64 64,0 0,0 0,64 Z"
         id="path4152"
         inkscape:connector-curvature="0" /></clipPath><clipPath
       clipPathUnits="userSpaceOnUse"
       id="clipPath4162"><path
         d="m 12,50 40,0 0,-38 -40,0 0,38 z"
         id="path4164"
         inkscape:connector-curvature="0" /></clipPath><clipPath
       clipPathUnits="userSpaceOnUse"
       id="clipPath4182"><path
         d="m 12,50 40,0 0,-10 -40,0 0,10 z"
         id="path4184"
         inkscape:connector-curvature="0" /></clipPath></defs><sodipodi:namedview
     pagecolor="#ffffff"
     bordercolor="#666666"
     borderopacity="1"
     objecttolerance="10"
     gridtolerance="10"
     guidetolerance="10"
     inkscape:pageopacity="0"
     inkscape:pageshadow="2"
     inkscape:window-width="1366"
     inkscape:window-height="705"
     id="namedview4138"
     showgrid="false"
     inkscape:zoom="3.35"
     inkscape:cx="-2.0694177"
     inkscape:cy="2.443733"
     inkscape:window-x="-8"
     inkscape:window-y="-8"
     inkscape:window-maximized="1"
     inkscape:current-layer="g4144" /><g
     id="g4144"
     inkscape:groupmode="layer"
     inkscape:label="Elegant_circle-icons"
     transform="matrix(1.25,0,0,-1.25,0,80)"><g
       id="g4154"
       transform="translate(64,32)"
       style="fill:#4f5d73;fill-opacity:0.99215686"><path
         d="m 0,0 c 0,-17.673 -14.327,-32 -32,-32 -17.673,0 -32,14.327 -32,32 0,17.673 14.327,32 32,32 C -14.327,32 0,17.673 0,0"
         style="fill:#4f5d73;fill-opacity:0.99215686;fill-rule:nonzero;stroke:none"
         id="path4156"
         inkscape:connector-curvature="0" /></g><text
       xml:space="preserve"
       style="font-style:normal;font-variant:normal;font-weight:normal;font-stretch:normal;font-size:16px;line-height:125%;font-family:sans-serif;-inkscape-font-specification:'sans-serif, Normal';text-align:start;letter-spacing:0px;word-spacing:0px;writing-mode:lr-tb;text-anchor:start;fill:#ffffff;fill-opacity:0.99215686;stroke:none;stroke-width:1px;stroke-linecap:butt;stroke-linejoin:miter;stroke-opacity:1"
       x="31.906797"
       y="-25.39506"
       id="text4323"
       sodipodi:linespacing="125%"
       transform="scale(1,-1)"><tspan
         sodipodi:role="line"
         id="tspan4917"
         x="31.906797"
         y="-25.39506">°C</tspan></text>
<path
       style="fill:#ffffff;fill-opacity:0.99215686"
       d="m 20.530512,9.0463413 c -2.360769,0.4984909 -4.487518,1.9399667 -5.898089,3.9976387 -2.320952,3.385686 -1.811787,8.397465 1.16931,11.509696 l 0.711362,0.742652 0.02807,12.635657 0.02807,12.635657 0.237511,0.629669 c 0.63819,1.691925 2.1451,3.136907 3.80649,3.650058 0.970734,0.29983 2.285421,0.282869 3.20382,-0.04134 1.695895,-0.59866 3.033328,-1.938787 3.711192,-3.718666 l 0.238168,-0.625359 0.02891,-12.617367 0.02891,-12.61737 0.664191,-0.692486 c 1.339927,-1.397013 2.132631,-2.959741 2.508079,-4.944405 0.190999,-1.009647 0.07326,-3.279206 -0.217822,-4.198786 C 30.018374,12.989625 28.247785,10.945903 25.970649,9.8418603 25.389663,9.5601756 24.6291,9.2526117 24.280509,9.1583828 23.409825,8.9230345 21.399013,8.8629544 20.53051,9.0463413 Z m 3.169013,2.2929207 c 0.86603,0.161801 2.212247,0.849782 2.91241,1.488371 0.805379,0.734556 1.521396,1.849496 1.890715,2.944116 0.388789,1.152327 0.490153,2.95257 0.225577,4.006372 -0.382563,1.523756 -1.387241,2.991394 -2.714954,3.966027 l -0.514774,0.377879 -0.02801,13.222808 -0.02801,13.222807 -0.283709,0.537678 c -0.332828,0.630769 -0.887976,1.148733 -1.559515,1.455054 -0.704631,0.321418 -2.17996,0.311046 -2.910295,-0.02046 -0.614983,-0.279145 -1.25685,-0.863831 -1.531025,-1.394635 -0.182087,-0.352522 -0.417797,-1.351684 -0.398687,-1.690011 0.0049,-0.08537 0.0013,-5.836835 -0.0078,-12.781022 L 18.734778,24.048455 18.084814,23.57566 c -1.295866,-0.942634 -2.24634,-2.45842 -2.57876,-4.112521 -0.664922,-3.30862 1.32135,-6.897186 4.387503,-7.926827 1.227972,-0.412365 2.344239,-0.470155 3.806009,-0.197047 z m -2.96914,2.346806 c -1.267321,0.52133 -2.107401,1.301924 -2.662726,2.474189 -0.308554,0.651344 -0.336442,0.797976 -0.336442,1.769042 0,0.991496 0.02299,1.105699 0.361468,1.795775 0.463604,0.945172 1.343415,1.821941 2.273865,2.266001 l 0.692131,0.330323 0,6.476679 0,6.476675 0.274759,0.274759 c 0.151116,0.151117 0.369158,0.30472 0.484536,0.341338 0.376789,0.119589 0.907314,-0.05347 1.188562,-0.387718 l 0.270453,-0.321411 0.0018,-6.461966 0.0018,-6.461962 0.598284,-0.259161 c 1.429576,-0.619249 2.645613,-2.294656 2.752796,-3.792698 0.138963,-1.94218 -1.346811,-4.035422 -3.269626,-4.606434 -0.818802,-0.243161 -1.918013,-0.207 -2.631664,0.08657 z m 2.690705,2.325335 c 0.813963,0.477015 1.180073,1.734485 0.821405,2.821259 -0.51082,1.547801 -3.209845,1.774436 -4.006649,0.33643 -0.704265,-1.270997 -0.181814,-2.971426 1.039085,-3.381927 0.592505,-0.199218 1.603907,-0.09354 2.146159,0.224238 z"
       id="path4915"
       inkscape:connector-curvature="0"
       sodipodi:nodetypes="ssscccsssscccssssssssssscccsssscscsssscsssscccssscccsssccsssss" /></g></svg>