<?xml version="1.0" encoding="UTF-8" standalone="no"?>
<!-- Created with Inkscape (http://www.inkscape.org/) -->

<svg
   xmlns:dc="http://purl.org/dc/elements/1.1/"
   xmlns:cc="http://creativecommons.org/ns#"
   xmlns:rdf="http://www.w3.org/1999/02/22-rdf-syntax-ns#"
   xmlns:svg="http://www.w3.org/2000/svg"
   xmlns="http://www.w3.org/2000/svg"
   xmlns:sodipodi="http://sodipodi.sourceforge.net/DTD/sodipodi-0.dtd"
   xmlns:inkscape="http://www.inkscape.org/namespaces/inkscape"
   id="svg4136"
   version="1.1"
   inkscape:version="0.91 r13725"
   xml:space="preserve"
   width="32"
   height="32"
   viewBox="0 0 80 80"
   sodipodi:docname="wentylator.svg"
   inkscape:export-filename="\\elf\aquapi\Software\WebUi\img\devices\wentylator.png"
   inkscape:export-xdpi="36"
   inkscape:export-ydpi="36"><metadata
     id="metadata4142"><rdf:RDF><cc:Work
         rdf:about=""><dc:format>image/svg+xml</dc:format><dc:type
           rdf:resource="http://purl.org/dc/dcmitype/StillImage" /><dc:title></dc:title></cc:Work></rdf:RDF></metadata><defs
     id="defs4140"><clipPath
       clipPathUnits="userSpaceOnUse"
       id="clipPath4150"><path
         d="M 0,64 64,64 64,0 0,0 0,64 Z"
         id="path4152"
         inkscape:connector-curvature="0" /></clipPath><clipPath
       clipPathUnits="userSpaceOnUse"
       id="clipPath4162"><path
         d="m 12,50 40,0 0,-38 -40,0 0,38 z"
         id="path4164"
         inkscape:connector-curvature="0" /></clipPath><clipPath
       clipPathUnits="userSpaceOnUse"
       id="clipPath4182"><path
         d="m 12,50 40,0 0,-10 -40,0 0,10 z"
         id="path4184"
         inkscape:connector-curvature="0" /></clipPath></defs><sodipodi:namedview
     pagecolor="#ffffff"
     bordercolor="#666666"
     borderopacity="1"
     objecttolerance="10"
     gridtolerance="10"
     guidetolerance="10"
     inkscape:pageopacity="0"
     inkscape:pageshadow="2"
     inkscape:window-width="1366"
     inkscape:window-height="705"
     id="namedview4138"
     showgrid="false"
     inkscape:zoom="3.35"
     inkscape:cx="-2.0694177"
     inkscape:cy="2.443733"
     inkscape:window-x="-8"
     inkscape:window-y="-8"
     inkscape:window-maximized="1"
     inkscape:current-layer="g4144" /><g
     id="g4144"
     inkscape:groupmode="layer"
     inkscape:label="Elegant_circle-icons"
     transform="matrix(1.25,0,0,-1.25,0,80)"><g
       id="g4154"
       transform="translate(64,32)"
       style="fill:#77b3d4;fill-opacity:0.99215686"><path
         d="m 0,0 c 0,-17.673 -14.327,-32 -32,-32 -17.673,0 -32,14.327 -32,32 0,17.673 14.327,32 32,32 C -14.327,32 0,17.673 0,0"
         style="fill:#77b3d4;fill-opacity:0.99215686;fill-rule:nonzero;stroke:none"
         id="path4156"
         inkscape:connector-curvature="0" /></g><path
       style="fill:#ffffff;fill-opacity:0.99215686"
       d="m 21.734157,9.96847 c -1.946204,0.587948 -5.640154,2.67579 -5.628445,3.181232 0.01428,0.616628 4.453939,3.234636 4.453939,2.626429 0,-0.992252 3.974883,-4.639627 6.033689,-5.536547 l 1.933865,-0.8424896 -2.549617,0.029838 c -1.40229,0.016413 -3.311834,0.2601032 -4.243431,0.5415387 z m 18.591575,2.129446 c -3.177683,1.011953 -7.404422,5.475399 -8.353611,8.82143 -0.714885,2.520078 -2.051741,4.36296 -3.164962,4.36296 -0.237874,0 -3.12308,-2.157683 -6.411567,-4.794849 -6.739951,-5.405032 -8.148559,-6.008128 -10.473993,-4.484444 -3.0194188,1.9784 -3.7841168,7.47089 -1.628243,11.694952 2.319236,4.544142 6.011181,6.587677 11.901598,6.587677 2.251784,0 4.40995,-0.195174 4.795927,-0.43372 0.385976,-0.238547 1.332624,-0.0961 2.103663,0.316546 l 1.401888,0.750268 -1.107304,7.133117 c -0.609018,3.923214 -1.123801,7.778488 -1.143965,8.567276 -0.05533,2.164479 2.139867,3.983777 4.806894,3.983777 9.707498,0 13.863374,-12.783027 6.828018,-21.002255 -3.4669,-4.050293 -2.99021,-4.746703 5.538349,-8.091117 4.031582,-1.580957 7.688689,-3.337572 8.126905,-3.90359 2.05184,-2.650238 -0.194249,-7.150168 -4.558126,-9.132002 -2.914412,-1.323566 -5.353544,-1.429457 -8.661471,-0.376026 z m -6.50624,17.412253 c 0.194961,1.359837 -1.361748,2.483966 -2.481487,1.791929 -0.685162,-0.423454 -0.772031,-2.428155 -0.132914,-3.067274 0.842058,-0.842057 2.421275,-0.07169 2.614401,1.275345 z m 17.847279,-4.518325 c -1.674461,0.909022 -1.695193,0.99075 -0.796756,3.141029 0.50735,1.214247 0.935128,3.579387 0.950617,5.255866 l 0.0282,3.048143 1.31679,-2.497324 c 0.724235,-1.373528 1.468479,-4.17014 1.653876,-6.214692 0.372093,-4.103515 -0.01307,-4.437424 -3.152692,-2.733022 z M 16.735226,43.697172 c 0,0.956879 4.637955,5.86484 6.406365,6.779321 2.66024,1.375663 3.154699,1.181171 3.154699,-1.240879 0,-1.946176 -0.222422,-2.226687 -2.071564,-2.612581 -1.13936,-0.237771 -3.2906,-1.100866 -4.780533,-1.917987 -1.489932,-0.817121 -2.708967,-1.270666 -2.708967,-1.007874 z"
       id="path4930"
       inkscape:connector-curvature="0" /></g></svg>