G04 #@! TF.GenerationSoftware,KiCad,Pcbnew,(5.1.5)-3*
G04 #@! TF.CreationDate,2020-06-12T22:17:55+02:00*
G04 #@! TF.ProjectId,Main,4d61696e-2e6b-4696-9361-645f70636258,rev?*
G04 #@! TF.SameCoordinates,Original*
G04 #@! TF.FileFunction,Copper,L2,Bot*
G04 #@! TF.FilePolarity,Positive*
%FSLAX46Y46*%
G04 Gerber Fmt 4.6, Leading zero omitted, Abs format (unit mm)*
G04 Created by KiCad (PCBNEW (5.1.5)-3) date 2020-06-12 22:17:55*
%MOMM*%
%LPD*%
G04 APERTURE LIST*
%ADD10C,1.520000*%
%ADD11R,1.520000X1.520000*%
%ADD12C,1.600000*%
%ADD13O,1.600000X1.600000*%
%ADD14O,2.000000X2.500000*%
%ADD15O,2.500000X2.000000*%
%ADD16O,3.000000X2.000000*%
%ADD17O,2.000000X1.200000*%
%ADD18R,1.700000X1.700000*%
%ADD19O,1.700000X1.700000*%
%ADD20R,1.600000X1.600000*%
%ADD21C,1.000000*%
%ADD22C,0.900000*%
%ADD23C,0.500000*%
%ADD24C,0.200000*%
%ADD25C,0.254000*%
G04 APERTURE END LIST*
D10*
X231400000Y-145540000D03*
X232420000Y-143000000D03*
X233440000Y-145540000D03*
X234460000Y-143000000D03*
X235480000Y-145540000D03*
D11*
X236500000Y-143000000D03*
D10*
X246900000Y-145540000D03*
X247920000Y-143000000D03*
X248940000Y-145540000D03*
X249960000Y-143000000D03*
X250980000Y-145540000D03*
D11*
X252000000Y-143000000D03*
D10*
X215900000Y-145540000D03*
X216920000Y-143000000D03*
X217940000Y-145540000D03*
X218960000Y-143000000D03*
X219980000Y-145540000D03*
D11*
X221000000Y-143000000D03*
D12*
X215500000Y-128500000D03*
D13*
X215500000Y-136120000D03*
D14*
X211000000Y-136500000D03*
D15*
X208500000Y-133250000D03*
D16*
X202000000Y-139750000D03*
X202000000Y-133250000D03*
D15*
X208500000Y-139750000D03*
D17*
X231500000Y-126430000D03*
X231500000Y-123890000D03*
X231500000Y-121350000D03*
X231500000Y-118810000D03*
X231500000Y-116270000D03*
X231500000Y-113730000D03*
X231500000Y-111190000D03*
X231500000Y-108650000D03*
X231500000Y-106110000D03*
X231500000Y-103570000D03*
D15*
X210600000Y-103800000D03*
D16*
X201900000Y-108600000D03*
X204800000Y-103600000D03*
X208700000Y-108600000D03*
D15*
X210600000Y-123800000D03*
D16*
X201900000Y-128600000D03*
X204800000Y-123600000D03*
X208700000Y-128600000D03*
D15*
X210600000Y-113800000D03*
D16*
X201900000Y-118600000D03*
X204800000Y-113600000D03*
X208700000Y-118600000D03*
D18*
X242935000Y-118885000D03*
D19*
X242935000Y-121425000D03*
X242935000Y-123965000D03*
D18*
X246745000Y-118885000D03*
D19*
X246745000Y-121425000D03*
X246745000Y-123965000D03*
D18*
X254365000Y-118885000D03*
D19*
X254365000Y-121425000D03*
X254365000Y-123965000D03*
D18*
X250500000Y-104775000D03*
D19*
X250500000Y-107315000D03*
X250500000Y-109855000D03*
X250500000Y-112395000D03*
D18*
X254340000Y-104775000D03*
D19*
X254340000Y-107315000D03*
X254340000Y-109855000D03*
X254340000Y-112395000D03*
D12*
X242000000Y-105000000D03*
D13*
X242000000Y-112620000D03*
D12*
X237000000Y-105000000D03*
D13*
X237000000Y-112620000D03*
D20*
X222250000Y-137795000D03*
D13*
X240030000Y-130175000D03*
X224790000Y-137795000D03*
X237490000Y-130175000D03*
X227330000Y-137795000D03*
X234950000Y-130175000D03*
X229870000Y-137795000D03*
X232410000Y-130175000D03*
X232410000Y-137795000D03*
X229870000Y-130175000D03*
X234950000Y-137795000D03*
X227330000Y-130175000D03*
X237490000Y-137795000D03*
X224790000Y-130175000D03*
X240030000Y-137795000D03*
X222250000Y-130175000D03*
D18*
X250555000Y-118885000D03*
D19*
X250555000Y-121425000D03*
X250555000Y-123965000D03*
D12*
X215500000Y-120000000D03*
D13*
X215500000Y-112380000D03*
D18*
X208370000Y-98770000D03*
D19*
X208370000Y-96230000D03*
X210910000Y-98770000D03*
X210910000Y-96230000D03*
X213450000Y-98770000D03*
X213450000Y-96230000D03*
X215990000Y-98770000D03*
X215990000Y-96230000D03*
X218530000Y-98770000D03*
X218530000Y-96230000D03*
X221070000Y-98770000D03*
X221070000Y-96230000D03*
X223610000Y-98770000D03*
X223610000Y-96230000D03*
X226150000Y-98770000D03*
X226150000Y-96230000D03*
X228690000Y-98770000D03*
X228690000Y-96230000D03*
X231230000Y-98770000D03*
X231230000Y-96230000D03*
X233770000Y-98770000D03*
X233770000Y-96230000D03*
X236310000Y-98770000D03*
X236310000Y-96230000D03*
X238850000Y-98770000D03*
X238850000Y-96230000D03*
X241390000Y-98770000D03*
X241390000Y-96230000D03*
X243930000Y-98770000D03*
X243930000Y-96230000D03*
X246470000Y-98770000D03*
X246470000Y-96230000D03*
X249010000Y-98770000D03*
X249010000Y-96230000D03*
X251550000Y-98770000D03*
X251550000Y-96230000D03*
X254090000Y-98770000D03*
X254090000Y-96230000D03*
X256630000Y-98770000D03*
X256630000Y-96230000D03*
D21*
X211500000Y-101000000D03*
D22*
X212500000Y-109500000D03*
X206000000Y-110500000D03*
X246500000Y-112000000D03*
X242500000Y-140500000D03*
X206000000Y-120000000D03*
X215500000Y-102000000D03*
X226000000Y-122500000D03*
X227500000Y-110000000D03*
X217000000Y-139000000D03*
X219500000Y-107500000D03*
X220500000Y-114500000D03*
X221000000Y-107500000D03*
X220500000Y-119000000D03*
X222500000Y-107500000D03*
X218000000Y-107500000D03*
D23*
X206799990Y-132000010D02*
X208700000Y-130100000D01*
X208700000Y-130100000D02*
X208700000Y-128600000D01*
X206799990Y-140350613D02*
X206799990Y-132000010D01*
X207649387Y-141200010D02*
X206799990Y-140350613D01*
X209350613Y-141200010D02*
X207649387Y-141200010D01*
X211000000Y-139550623D02*
X209350613Y-141200010D01*
X211000000Y-136500000D02*
X211000000Y-139550623D01*
X208700000Y-120100000D02*
X208700000Y-118600000D01*
X207249999Y-121550001D02*
X208700000Y-120100000D01*
X208200000Y-128600000D02*
X207249999Y-127649999D01*
X207249999Y-127649999D02*
X207249999Y-121550001D01*
X208700000Y-128600000D02*
X208200000Y-128600000D01*
X208700000Y-110100000D02*
X208700000Y-108600000D01*
X207249999Y-111550001D02*
X208700000Y-110100000D01*
X208200000Y-118600000D02*
X207249999Y-117649999D01*
X207249999Y-117649999D02*
X207249999Y-111550001D01*
X208700000Y-118600000D02*
X208200000Y-118600000D01*
X210100000Y-120000000D02*
X208700000Y-118600000D01*
X215500000Y-120000000D02*
X210100000Y-120000000D01*
X207249999Y-107149999D02*
X208700000Y-108600000D01*
X207249999Y-101240001D02*
X207249999Y-107149999D01*
X208370000Y-100120000D02*
X207249999Y-101240001D01*
X208370000Y-98770000D02*
X208370000Y-100120000D01*
X228690000Y-99972081D02*
X224662081Y-104000000D01*
X228690000Y-98770000D02*
X228690000Y-99972081D01*
X208370000Y-99269377D02*
X208370000Y-98770000D01*
X213100623Y-104000000D02*
X208370000Y-99269377D01*
X224662081Y-104000000D02*
X213100623Y-104000000D01*
X242935000Y-123965000D02*
X246745000Y-123965000D01*
X246745000Y-123965000D02*
X250555000Y-123965000D01*
X250555000Y-123965000D02*
X254365000Y-123965000D01*
X250500000Y-107315000D02*
X254340000Y-107315000D01*
X222250000Y-112420000D02*
X222250000Y-129043630D01*
X222250000Y-129043630D02*
X222250000Y-130175000D01*
X231100000Y-103570000D02*
X222250000Y-112420000D01*
X231500000Y-103570000D02*
X231100000Y-103570000D01*
X246755000Y-103570000D02*
X250500000Y-107315000D01*
X231500000Y-103570000D02*
X246755000Y-103570000D01*
X255665001Y-122664999D02*
X255214999Y-123115001D01*
X255665001Y-108640001D02*
X255665001Y-122664999D01*
X255214999Y-123115001D02*
X254365000Y-123965000D01*
X254340000Y-107315000D02*
X255665001Y-108640001D01*
X236500000Y-144260000D02*
X236500000Y-143000000D01*
X236690001Y-146948003D02*
X236690001Y-144450001D01*
X239181999Y-149440001D02*
X236690001Y-146948003D01*
X252059999Y-149440001D02*
X239181999Y-149440001D01*
X252190001Y-149309999D02*
X252059999Y-149440001D01*
X236690001Y-144450001D02*
X236500000Y-144260000D01*
X252000000Y-144769198D02*
X252190001Y-144959199D01*
X252190001Y-144959199D02*
X252190001Y-149309999D01*
X252000000Y-143000000D02*
X252000000Y-144769198D01*
X221190001Y-144450001D02*
X221000000Y-144260000D01*
X221000000Y-144260000D02*
X221000000Y-143000000D01*
X221190001Y-146948003D02*
X221190001Y-144450001D01*
X223681999Y-149440001D02*
X221190001Y-146948003D01*
X235059999Y-149440001D02*
X223681999Y-149440001D01*
X236690001Y-147809999D02*
X235059999Y-149440001D01*
X236690001Y-144959199D02*
X236690001Y-147809999D01*
X236500000Y-144769198D02*
X236690001Y-144959199D01*
X236500000Y-143000000D02*
X236500000Y-144769198D01*
X221000000Y-131425000D02*
X222250000Y-130175000D01*
X221000000Y-143000000D02*
X221000000Y-131425000D01*
X208370000Y-96230000D02*
X210910000Y-96230000D01*
X250500000Y-104775000D02*
X254340000Y-104775000D01*
X254340000Y-101060000D02*
X256630000Y-98770000D01*
X254340000Y-104775000D02*
X254340000Y-101060000D01*
X254365000Y-121425000D02*
X250555000Y-121425000D01*
X250555000Y-121425000D02*
X246745000Y-121425000D01*
X246745000Y-121425000D02*
X242935000Y-121425000D01*
X231900000Y-113730000D02*
X231500000Y-113730000D01*
X233000000Y-114830000D02*
X231900000Y-113730000D01*
X233000000Y-115230000D02*
X233000000Y-114830000D01*
X239195000Y-121425000D02*
X233000000Y-115230000D01*
X242935000Y-121425000D02*
X239195000Y-121425000D01*
X231100000Y-113730000D02*
X231500000Y-113730000D01*
X230000000Y-112630000D02*
X231100000Y-113730000D01*
X230000000Y-107210000D02*
X230000000Y-112630000D01*
X231100000Y-106110000D02*
X230000000Y-107210000D01*
X231500000Y-106110000D02*
X231100000Y-106110000D01*
X227330000Y-137795000D02*
X224790000Y-137795000D01*
X224790000Y-137795000D02*
X222250000Y-137795000D01*
X201249999Y-115399999D02*
X201249999Y-117949999D01*
X201249999Y-117949999D02*
X201900000Y-118600000D01*
X201900000Y-114749998D02*
X201249999Y-115399999D01*
X201900000Y-108600000D02*
X201900000Y-114749998D01*
X201000000Y-127700000D02*
X201900000Y-128600000D01*
X201900000Y-124749998D02*
X201000000Y-125649998D01*
X201000000Y-125649998D02*
X201000000Y-127700000D01*
X201900000Y-118600000D02*
X201900000Y-124749998D01*
X248160001Y-95380001D02*
X249010000Y-96230000D01*
X247709999Y-94929999D02*
X248160001Y-95380001D01*
X245230001Y-94929999D02*
X247709999Y-94929999D01*
X243930000Y-96230000D02*
X245230001Y-94929999D01*
X232079999Y-95380001D02*
X231230000Y-96230000D01*
X232530001Y-94929999D02*
X232079999Y-95380001D01*
X242629999Y-94929999D02*
X232530001Y-94929999D01*
X243930000Y-96230000D02*
X242629999Y-94929999D01*
X224910001Y-94929999D02*
X224459999Y-95380001D01*
X229929999Y-94929999D02*
X224910001Y-94929999D01*
X224459999Y-95380001D02*
X223610000Y-96230000D01*
X231230000Y-96230000D02*
X229929999Y-94929999D01*
X214750001Y-94929999D02*
X214299999Y-95380001D01*
X214299999Y-95380001D02*
X213450000Y-96230000D01*
X222309999Y-94929999D02*
X214750001Y-94929999D01*
X223610000Y-96230000D02*
X222309999Y-94929999D01*
X257479999Y-97920001D02*
X256630000Y-98770000D01*
X257930001Y-95605999D02*
X257930001Y-97469999D01*
X257254001Y-94929999D02*
X257930001Y-95605999D01*
X250925999Y-94929999D02*
X257254001Y-94929999D01*
X257930001Y-97469999D02*
X257479999Y-97920001D01*
X249625998Y-96230000D02*
X250925999Y-94929999D01*
X249010000Y-96230000D02*
X249625998Y-96230000D01*
X255780001Y-99619999D02*
X256630000Y-98770000D01*
X255329999Y-100070001D02*
X255780001Y-99619999D01*
X238947920Y-100070001D02*
X255329999Y-100070001D01*
X238850000Y-99972081D02*
X238947920Y-100070001D01*
X238850000Y-98770000D02*
X238850000Y-99972081D01*
X212207106Y-101000000D02*
X211500000Y-101000000D01*
X218530000Y-99972081D02*
X217502081Y-101000000D01*
X217502081Y-101000000D02*
X212207106Y-101000000D01*
X218530000Y-98770000D02*
X218530000Y-99972081D01*
X203900000Y-128600000D02*
X201900000Y-128600000D01*
X203950010Y-128650010D02*
X203900000Y-128600000D01*
X203950010Y-142450010D02*
X203950010Y-128650010D01*
X210999990Y-149499990D02*
X203950010Y-142450010D01*
X216020010Y-149499990D02*
X210999990Y-149499990D01*
X219980000Y-145540000D02*
X216020010Y-149499990D01*
D24*
X250500000Y-112395000D02*
X254340000Y-112395000D01*
X237799999Y-113419999D02*
X237000000Y-112620000D01*
X238100001Y-113720001D02*
X237799999Y-113419999D01*
X249174999Y-113720001D02*
X238100001Y-113720001D01*
X250500000Y-112395000D02*
X249174999Y-113720001D01*
X235570000Y-111190000D02*
X231500000Y-111190000D01*
X237000000Y-112620000D02*
X235570000Y-111190000D01*
X250500000Y-109855000D02*
X254340000Y-109855000D01*
X244765000Y-109855000D02*
X242000000Y-112620000D01*
X250500000Y-109855000D02*
X244765000Y-109855000D01*
X238030000Y-108650000D02*
X231500000Y-108650000D01*
X242000000Y-112620000D02*
X238030000Y-108650000D01*
X204800000Y-123600000D02*
X204800000Y-113600000D01*
X204800000Y-112400000D02*
X204800000Y-103600000D01*
X204800000Y-113600000D02*
X204800000Y-112400000D01*
X215140001Y-97920001D02*
X215990000Y-98770000D01*
X214839999Y-97619999D02*
X215140001Y-97920001D01*
X207279999Y-97619999D02*
X214839999Y-97619999D01*
X204800000Y-100099998D02*
X207279999Y-97619999D01*
X204800000Y-103600000D02*
X204800000Y-100099998D01*
X219500000Y-142460000D02*
X218960000Y-143000000D01*
X219500000Y-107500000D02*
X219500000Y-142460000D01*
X220500000Y-108000000D02*
X220500000Y-114500000D01*
X221000000Y-107500000D02*
X220500000Y-108000000D01*
X220949999Y-118550001D02*
X220500000Y-119000000D01*
X221250001Y-118249999D02*
X220949999Y-118550001D01*
X221250001Y-108749999D02*
X221250001Y-118249999D01*
X222500000Y-107500000D02*
X221250001Y-108749999D01*
X215859999Y-143459999D02*
X217180001Y-144780001D01*
X217180001Y-144780001D02*
X217940000Y-145540000D01*
X215859999Y-142491199D02*
X215859999Y-143459999D01*
X218000000Y-140351198D02*
X215859999Y-142491199D01*
X218000000Y-107500000D02*
X218000000Y-140351198D01*
X228769999Y-140869999D02*
X232680001Y-144780001D01*
X232680001Y-144780001D02*
X233440000Y-145540000D01*
X228769999Y-137266999D02*
X228769999Y-140869999D01*
X229341999Y-136694999D02*
X228769999Y-137266999D01*
X231309999Y-136694999D02*
X229341999Y-136694999D01*
X232410000Y-137795000D02*
X231309999Y-136694999D01*
X234460000Y-142385000D02*
X234460000Y-143000000D01*
X229870000Y-137795000D02*
X234460000Y-142385000D01*
X246859999Y-142996997D02*
X246859999Y-143459999D01*
X248180001Y-144780001D02*
X248940000Y-145540000D01*
X246859999Y-143459999D02*
X248180001Y-144780001D01*
X237490000Y-133626998D02*
X246859999Y-142996997D01*
X237490000Y-130175000D02*
X237490000Y-133626998D01*
X238590001Y-136355001D02*
X233209999Y-130974999D01*
X233209999Y-130974999D02*
X232410000Y-130175000D01*
X245825198Y-145540000D02*
X238590001Y-138304803D01*
X238590001Y-138304803D02*
X238590001Y-136355001D01*
X246900000Y-145540000D02*
X245825198Y-145540000D01*
X240030000Y-133070000D02*
X249960000Y-143000000D01*
X240030000Y-130175000D02*
X240030000Y-133070000D01*
X235749999Y-129375001D02*
X234950000Y-130175000D01*
X236050001Y-129074999D02*
X235749999Y-129375001D01*
X238018001Y-129074999D02*
X236050001Y-129074999D01*
X238590001Y-129646999D02*
X238018001Y-129074999D01*
X238590001Y-133670001D02*
X238590001Y-129646999D01*
X247920000Y-143000000D02*
X238590001Y-133670001D01*
X208500000Y-139750000D02*
X208500000Y-133250000D01*
X212630000Y-133250000D02*
X208500000Y-133250000D01*
X215500000Y-136120000D02*
X212630000Y-133250000D01*
X216600001Y-135019999D02*
X216600001Y-106100001D01*
X215500000Y-136120000D02*
X216600001Y-135019999D01*
X226999999Y-97079999D02*
X226150000Y-96230000D01*
X227539999Y-97619999D02*
X226999999Y-97079999D01*
X229242001Y-97619999D02*
X227539999Y-97619999D01*
X229840001Y-98217999D02*
X229242001Y-97619999D01*
X229840001Y-99659999D02*
X229840001Y-98217999D01*
X224500000Y-105000000D02*
X229840001Y-99659999D01*
X217700002Y-105000000D02*
X224500000Y-105000000D01*
X216600001Y-106100001D02*
X217700002Y-105000000D01*
D25*
G36*
X262449016Y-94732312D02*
G01*
X262880930Y-94862714D01*
X263279285Y-95074524D01*
X263628914Y-95359675D01*
X263916497Y-95707303D01*
X264131086Y-96104177D01*
X264264498Y-96535161D01*
X264315001Y-97015663D01*
X264315000Y-146966495D01*
X264267688Y-147449016D01*
X264137287Y-147880927D01*
X263925480Y-148279280D01*
X263640325Y-148628914D01*
X263292697Y-148916497D01*
X262895825Y-149131085D01*
X262464834Y-149264500D01*
X261984346Y-149315000D01*
X256455422Y-149315000D01*
X256587871Y-149226500D01*
X256836500Y-148977871D01*
X257031847Y-148685515D01*
X257166404Y-148360665D01*
X257235000Y-148015807D01*
X257235000Y-147664193D01*
X257166404Y-147319335D01*
X257031847Y-146994485D01*
X256836500Y-146702129D01*
X256587871Y-146453500D01*
X256364871Y-146304495D01*
X259515000Y-146304495D01*
X259515000Y-146695505D01*
X259591282Y-147079003D01*
X259740915Y-147440250D01*
X259958149Y-147765364D01*
X260234636Y-148041851D01*
X260559750Y-148259085D01*
X260920997Y-148408718D01*
X261304495Y-148485000D01*
X261695505Y-148485000D01*
X262079003Y-148408718D01*
X262440250Y-148259085D01*
X262765364Y-148041851D01*
X263041851Y-147765364D01*
X263259085Y-147440250D01*
X263408718Y-147079003D01*
X263485000Y-146695505D01*
X263485000Y-146304495D01*
X263408718Y-145920997D01*
X263259085Y-145559750D01*
X263041851Y-145234636D01*
X262765364Y-144958149D01*
X262440250Y-144740915D01*
X262079003Y-144591282D01*
X261695505Y-144515000D01*
X261304495Y-144515000D01*
X260920997Y-144591282D01*
X260559750Y-144740915D01*
X260234636Y-144958149D01*
X259958149Y-145234636D01*
X259740915Y-145559750D01*
X259591282Y-145920997D01*
X259515000Y-146304495D01*
X256364871Y-146304495D01*
X256295515Y-146258153D01*
X255970665Y-146123596D01*
X255625807Y-146055000D01*
X255274193Y-146055000D01*
X254929335Y-146123596D01*
X254604485Y-146258153D01*
X254312129Y-146453500D01*
X254063500Y-146702129D01*
X253868153Y-146994485D01*
X253733596Y-147319335D01*
X253665000Y-147664193D01*
X253665000Y-148015807D01*
X253733596Y-148360665D01*
X253868153Y-148685515D01*
X254063500Y-148977871D01*
X254312129Y-149226500D01*
X254444578Y-149315000D01*
X253078789Y-149315000D01*
X253079282Y-149309999D01*
X253075001Y-149266530D01*
X253075001Y-145002668D01*
X253079282Y-144959199D01*
X253075001Y-144915730D01*
X253075001Y-144915722D01*
X253062196Y-144785709D01*
X253060465Y-144780001D01*
X253048608Y-144740915D01*
X253011590Y-144618886D01*
X252929412Y-144465140D01*
X252885000Y-144411024D01*
X252885000Y-144385655D01*
X253004180Y-144349502D01*
X253114494Y-144290537D01*
X253211185Y-144211185D01*
X253290537Y-144114494D01*
X253349502Y-144004180D01*
X253385812Y-143884482D01*
X253398072Y-143760000D01*
X253398072Y-142240000D01*
X253385812Y-142115518D01*
X253349502Y-141995820D01*
X253290537Y-141885506D01*
X253211185Y-141788815D01*
X253114494Y-141709463D01*
X253004180Y-141650498D01*
X252884482Y-141614188D01*
X252760000Y-141601928D01*
X251240000Y-141601928D01*
X251115518Y-141614188D01*
X250995820Y-141650498D01*
X250885506Y-141709463D01*
X250788815Y-141788815D01*
X250742581Y-141845152D01*
X250620780Y-141763767D01*
X250366907Y-141658609D01*
X250097396Y-141605000D01*
X249822604Y-141605000D01*
X249640641Y-141641195D01*
X240765000Y-132765554D01*
X240765000Y-131409748D01*
X240944759Y-131289637D01*
X241144637Y-131089759D01*
X241301680Y-130854727D01*
X241409853Y-130593574D01*
X241465000Y-130316335D01*
X241465000Y-130033665D01*
X241409853Y-129756426D01*
X241301680Y-129495273D01*
X241144637Y-129260241D01*
X240944759Y-129060363D01*
X240709727Y-128903320D01*
X240448574Y-128795147D01*
X240171335Y-128740000D01*
X239888665Y-128740000D01*
X239611426Y-128795147D01*
X239350273Y-128903320D01*
X239115241Y-129060363D01*
X239079026Y-129096578D01*
X238563259Y-128580811D01*
X238540239Y-128552761D01*
X238428321Y-128460912D01*
X238300634Y-128392662D01*
X238162086Y-128350634D01*
X238054106Y-128339999D01*
X238018001Y-128336443D01*
X237981896Y-128339999D01*
X236086106Y-128339999D01*
X236050001Y-128336443D01*
X236013896Y-128339999D01*
X235905916Y-128350634D01*
X235767368Y-128392662D01*
X235639681Y-128460912D01*
X235527763Y-128552761D01*
X235504742Y-128580812D01*
X235303376Y-128782178D01*
X235091335Y-128740000D01*
X234808665Y-128740000D01*
X234531426Y-128795147D01*
X234270273Y-128903320D01*
X234035241Y-129060363D01*
X233835363Y-129260241D01*
X233680000Y-129492759D01*
X233524637Y-129260241D01*
X233324759Y-129060363D01*
X233089727Y-128903320D01*
X232828574Y-128795147D01*
X232551335Y-128740000D01*
X232268665Y-128740000D01*
X231991426Y-128795147D01*
X231730273Y-128903320D01*
X231495241Y-129060363D01*
X231295363Y-129260241D01*
X231140000Y-129492759D01*
X230984637Y-129260241D01*
X230784759Y-129060363D01*
X230549727Y-128903320D01*
X230288574Y-128795147D01*
X230011335Y-128740000D01*
X229728665Y-128740000D01*
X229451426Y-128795147D01*
X229190273Y-128903320D01*
X228955241Y-129060363D01*
X228755363Y-129260241D01*
X228600000Y-129492759D01*
X228444637Y-129260241D01*
X228244759Y-129060363D01*
X228009727Y-128903320D01*
X227748574Y-128795147D01*
X227471335Y-128740000D01*
X227188665Y-128740000D01*
X226911426Y-128795147D01*
X226650273Y-128903320D01*
X226415241Y-129060363D01*
X226215363Y-129260241D01*
X226060000Y-129492759D01*
X225904637Y-129260241D01*
X225704759Y-129060363D01*
X225469727Y-128903320D01*
X225208574Y-128795147D01*
X224931335Y-128740000D01*
X224648665Y-128740000D01*
X224371426Y-128795147D01*
X224110273Y-128903320D01*
X223875241Y-129060363D01*
X223675363Y-129260241D01*
X223520000Y-129492759D01*
X223364637Y-129260241D01*
X223164759Y-129060363D01*
X223135000Y-129040479D01*
X223135000Y-126430000D01*
X229859025Y-126430000D01*
X229882870Y-126672102D01*
X229953489Y-126904901D01*
X230068167Y-127119449D01*
X230222498Y-127307502D01*
X230410551Y-127461833D01*
X230625099Y-127576511D01*
X230857898Y-127647130D01*
X231039335Y-127665000D01*
X231960665Y-127665000D01*
X232142102Y-127647130D01*
X232374901Y-127576511D01*
X232589449Y-127461833D01*
X232777502Y-127307502D01*
X232931833Y-127119449D01*
X233046511Y-126904901D01*
X233117130Y-126672102D01*
X233140975Y-126430000D01*
X233117130Y-126187898D01*
X233046511Y-125955099D01*
X232931833Y-125740551D01*
X232777502Y-125552498D01*
X232589449Y-125398167D01*
X232374901Y-125283489D01*
X232142102Y-125212870D01*
X231960665Y-125195000D01*
X231039335Y-125195000D01*
X230857898Y-125212870D01*
X230625099Y-125283489D01*
X230410551Y-125398167D01*
X230222498Y-125552498D01*
X230068167Y-125740551D01*
X229953489Y-125955099D01*
X229882870Y-126187898D01*
X229859025Y-126430000D01*
X223135000Y-126430000D01*
X223135000Y-123890000D01*
X229859025Y-123890000D01*
X229882870Y-124132102D01*
X229953489Y-124364901D01*
X230068167Y-124579449D01*
X230222498Y-124767502D01*
X230410551Y-124921833D01*
X230625099Y-125036511D01*
X230857898Y-125107130D01*
X231039335Y-125125000D01*
X231960665Y-125125000D01*
X232142102Y-125107130D01*
X232374901Y-125036511D01*
X232589449Y-124921833D01*
X232777502Y-124767502D01*
X232931833Y-124579449D01*
X233046511Y-124364901D01*
X233117130Y-124132102D01*
X233140975Y-123890000D01*
X233117130Y-123647898D01*
X233046511Y-123415099D01*
X232931833Y-123200551D01*
X232777502Y-123012498D01*
X232589449Y-122858167D01*
X232374901Y-122743489D01*
X232142102Y-122672870D01*
X231960665Y-122655000D01*
X231039335Y-122655000D01*
X230857898Y-122672870D01*
X230625099Y-122743489D01*
X230410551Y-122858167D01*
X230222498Y-123012498D01*
X230068167Y-123200551D01*
X229953489Y-123415099D01*
X229882870Y-123647898D01*
X229859025Y-123890000D01*
X223135000Y-123890000D01*
X223135000Y-121350000D01*
X229859025Y-121350000D01*
X229882870Y-121592102D01*
X229953489Y-121824901D01*
X230068167Y-122039449D01*
X230222498Y-122227502D01*
X230410551Y-122381833D01*
X230625099Y-122496511D01*
X230857898Y-122567130D01*
X231039335Y-122585000D01*
X231960665Y-122585000D01*
X232142102Y-122567130D01*
X232374901Y-122496511D01*
X232589449Y-122381833D01*
X232777502Y-122227502D01*
X232931833Y-122039449D01*
X233046511Y-121824901D01*
X233117130Y-121592102D01*
X233140975Y-121350000D01*
X233117130Y-121107898D01*
X233046511Y-120875099D01*
X232931833Y-120660551D01*
X232777502Y-120472498D01*
X232589449Y-120318167D01*
X232374901Y-120203489D01*
X232142102Y-120132870D01*
X231960665Y-120115000D01*
X231039335Y-120115000D01*
X230857898Y-120132870D01*
X230625099Y-120203489D01*
X230410551Y-120318167D01*
X230222498Y-120472498D01*
X230068167Y-120660551D01*
X229953489Y-120875099D01*
X229882870Y-121107898D01*
X229859025Y-121350000D01*
X223135000Y-121350000D01*
X223135000Y-118810000D01*
X229859025Y-118810000D01*
X229882870Y-119052102D01*
X229953489Y-119284901D01*
X230068167Y-119499449D01*
X230222498Y-119687502D01*
X230410551Y-119841833D01*
X230625099Y-119956511D01*
X230857898Y-120027130D01*
X231039335Y-120045000D01*
X231960665Y-120045000D01*
X232142102Y-120027130D01*
X232374901Y-119956511D01*
X232589449Y-119841833D01*
X232777502Y-119687502D01*
X232931833Y-119499449D01*
X233046511Y-119284901D01*
X233117130Y-119052102D01*
X233140975Y-118810000D01*
X233117130Y-118567898D01*
X233046511Y-118335099D01*
X232931833Y-118120551D01*
X232861624Y-118035000D01*
X241446928Y-118035000D01*
X241446928Y-119735000D01*
X241459188Y-119859482D01*
X241495498Y-119979180D01*
X241554463Y-120089494D01*
X241633815Y-120186185D01*
X241730506Y-120265537D01*
X241840820Y-120324502D01*
X241921466Y-120348966D01*
X241837412Y-120424731D01*
X241663359Y-120658080D01*
X241538175Y-120920901D01*
X241493524Y-121068110D01*
X241614845Y-121298000D01*
X242808000Y-121298000D01*
X242808000Y-121278000D01*
X243062000Y-121278000D01*
X243062000Y-121298000D01*
X244255155Y-121298000D01*
X244376476Y-121068110D01*
X244331825Y-120920901D01*
X244206641Y-120658080D01*
X244032588Y-120424731D01*
X243948534Y-120348966D01*
X244029180Y-120324502D01*
X244139494Y-120265537D01*
X244236185Y-120186185D01*
X244315537Y-120089494D01*
X244374502Y-119979180D01*
X244410812Y-119859482D01*
X244423072Y-119735000D01*
X244423072Y-118035000D01*
X245256928Y-118035000D01*
X245256928Y-119735000D01*
X245269188Y-119859482D01*
X245305498Y-119979180D01*
X245364463Y-120089494D01*
X245443815Y-120186185D01*
X245540506Y-120265537D01*
X245650820Y-120324502D01*
X245731466Y-120348966D01*
X245647412Y-120424731D01*
X245473359Y-120658080D01*
X245348175Y-120920901D01*
X245303524Y-121068110D01*
X245424845Y-121298000D01*
X246618000Y-121298000D01*
X246618000Y-121278000D01*
X246872000Y-121278000D01*
X246872000Y-121298000D01*
X248065155Y-121298000D01*
X248186476Y-121068110D01*
X248141825Y-120920901D01*
X248016641Y-120658080D01*
X247842588Y-120424731D01*
X247758534Y-120348966D01*
X247839180Y-120324502D01*
X247949494Y-120265537D01*
X248046185Y-120186185D01*
X248125537Y-120089494D01*
X248184502Y-119979180D01*
X248220812Y-119859482D01*
X248233072Y-119735000D01*
X248233072Y-118035000D01*
X249066928Y-118035000D01*
X249066928Y-119735000D01*
X249079188Y-119859482D01*
X249115498Y-119979180D01*
X249174463Y-120089494D01*
X249253815Y-120186185D01*
X249350506Y-120265537D01*
X249460820Y-120324502D01*
X249541466Y-120348966D01*
X249457412Y-120424731D01*
X249283359Y-120658080D01*
X249158175Y-120920901D01*
X249113524Y-121068110D01*
X249234845Y-121298000D01*
X250428000Y-121298000D01*
X250428000Y-121278000D01*
X250682000Y-121278000D01*
X250682000Y-121298000D01*
X251875155Y-121298000D01*
X251996476Y-121068110D01*
X251951825Y-120920901D01*
X251826641Y-120658080D01*
X251652588Y-120424731D01*
X251568534Y-120348966D01*
X251649180Y-120324502D01*
X251759494Y-120265537D01*
X251856185Y-120186185D01*
X251935537Y-120089494D01*
X251994502Y-119979180D01*
X252030812Y-119859482D01*
X252043072Y-119735000D01*
X252043072Y-118035000D01*
X252030812Y-117910518D01*
X251994502Y-117790820D01*
X251935537Y-117680506D01*
X251856185Y-117583815D01*
X251759494Y-117504463D01*
X251649180Y-117445498D01*
X251529482Y-117409188D01*
X251405000Y-117396928D01*
X249705000Y-117396928D01*
X249580518Y-117409188D01*
X249460820Y-117445498D01*
X249350506Y-117504463D01*
X249253815Y-117583815D01*
X249174463Y-117680506D01*
X249115498Y-117790820D01*
X249079188Y-117910518D01*
X249066928Y-118035000D01*
X248233072Y-118035000D01*
X248220812Y-117910518D01*
X248184502Y-117790820D01*
X248125537Y-117680506D01*
X248046185Y-117583815D01*
X247949494Y-117504463D01*
X247839180Y-117445498D01*
X247719482Y-117409188D01*
X247595000Y-117396928D01*
X245895000Y-117396928D01*
X245770518Y-117409188D01*
X245650820Y-117445498D01*
X245540506Y-117504463D01*
X245443815Y-117583815D01*
X245364463Y-117680506D01*
X245305498Y-117790820D01*
X245269188Y-117910518D01*
X245256928Y-118035000D01*
X244423072Y-118035000D01*
X244410812Y-117910518D01*
X244374502Y-117790820D01*
X244315537Y-117680506D01*
X244236185Y-117583815D01*
X244139494Y-117504463D01*
X244029180Y-117445498D01*
X243909482Y-117409188D01*
X243785000Y-117396928D01*
X242085000Y-117396928D01*
X241960518Y-117409188D01*
X241840820Y-117445498D01*
X241730506Y-117504463D01*
X241633815Y-117583815D01*
X241554463Y-117680506D01*
X241495498Y-117790820D01*
X241459188Y-117910518D01*
X241446928Y-118035000D01*
X232861624Y-118035000D01*
X232777502Y-117932498D01*
X232589449Y-117778167D01*
X232374901Y-117663489D01*
X232142102Y-117592870D01*
X231960665Y-117575000D01*
X231039335Y-117575000D01*
X230857898Y-117592870D01*
X230625099Y-117663489D01*
X230410551Y-117778167D01*
X230222498Y-117932498D01*
X230068167Y-118120551D01*
X229953489Y-118335099D01*
X229882870Y-118567898D01*
X229859025Y-118810000D01*
X223135000Y-118810000D01*
X223135000Y-116270000D01*
X229859025Y-116270000D01*
X229882870Y-116512102D01*
X229953489Y-116744901D01*
X230068167Y-116959449D01*
X230222498Y-117147502D01*
X230410551Y-117301833D01*
X230625099Y-117416511D01*
X230857898Y-117487130D01*
X231039335Y-117505000D01*
X231960665Y-117505000D01*
X232142102Y-117487130D01*
X232374901Y-117416511D01*
X232589449Y-117301833D01*
X232777502Y-117147502D01*
X232931833Y-116959449D01*
X233046511Y-116744901D01*
X233117130Y-116512102D01*
X233140975Y-116270000D01*
X233117130Y-116027898D01*
X233046511Y-115795099D01*
X232931833Y-115580551D01*
X232777502Y-115392498D01*
X232589449Y-115238167D01*
X232374901Y-115123489D01*
X232142102Y-115052870D01*
X231960665Y-115035000D01*
X231039335Y-115035000D01*
X230857898Y-115052870D01*
X230625099Y-115123489D01*
X230410551Y-115238167D01*
X230222498Y-115392498D01*
X230068167Y-115580551D01*
X229953489Y-115795099D01*
X229882870Y-116027898D01*
X229859025Y-116270000D01*
X223135000Y-116270000D01*
X223135000Y-114047609D01*
X229906538Y-114047609D01*
X229910409Y-114085282D01*
X230002579Y-114310533D01*
X230136922Y-114513474D01*
X230308275Y-114686307D01*
X230510054Y-114822390D01*
X230734504Y-114916493D01*
X230973000Y-114965000D01*
X231373000Y-114965000D01*
X231373000Y-113857000D01*
X231627000Y-113857000D01*
X231627000Y-114965000D01*
X232027000Y-114965000D01*
X232265496Y-114916493D01*
X232489946Y-114822390D01*
X232691725Y-114686307D01*
X232863078Y-114513474D01*
X232997421Y-114310533D01*
X233089591Y-114085282D01*
X233093462Y-114047609D01*
X232968731Y-113857000D01*
X231627000Y-113857000D01*
X231373000Y-113857000D01*
X230031269Y-113857000D01*
X229906538Y-114047609D01*
X223135000Y-114047609D01*
X223135000Y-113412391D01*
X229906538Y-113412391D01*
X230031269Y-113603000D01*
X231373000Y-113603000D01*
X231373000Y-112495000D01*
X231627000Y-112495000D01*
X231627000Y-113603000D01*
X232968731Y-113603000D01*
X233093462Y-113412391D01*
X233089591Y-113374718D01*
X232997421Y-113149467D01*
X232863078Y-112946526D01*
X232691725Y-112773693D01*
X232489946Y-112637610D01*
X232265496Y-112543507D01*
X232027000Y-112495000D01*
X231627000Y-112495000D01*
X231373000Y-112495000D01*
X230973000Y-112495000D01*
X230734504Y-112543507D01*
X230510054Y-112637610D01*
X230308275Y-112773693D01*
X230136922Y-112946526D01*
X230002579Y-113149467D01*
X229910409Y-113374718D01*
X229906538Y-113412391D01*
X223135000Y-113412391D01*
X223135000Y-112786578D01*
X229493969Y-106427609D01*
X229906538Y-106427609D01*
X229910409Y-106465282D01*
X230002579Y-106690533D01*
X230136922Y-106893474D01*
X230308275Y-107066307D01*
X230510054Y-107202390D01*
X230734504Y-107296493D01*
X230973000Y-107345000D01*
X231373000Y-107345000D01*
X231373000Y-106237000D01*
X231627000Y-106237000D01*
X231627000Y-107345000D01*
X232027000Y-107345000D01*
X232265496Y-107296493D01*
X232489946Y-107202390D01*
X232691725Y-107066307D01*
X232863078Y-106893474D01*
X232997421Y-106690533D01*
X233089591Y-106465282D01*
X233093462Y-106427609D01*
X232968731Y-106237000D01*
X231627000Y-106237000D01*
X231373000Y-106237000D01*
X230031269Y-106237000D01*
X229906538Y-106427609D01*
X229493969Y-106427609D01*
X229994606Y-105926973D01*
X230031269Y-105983000D01*
X231373000Y-105983000D01*
X231373000Y-104875000D01*
X231627000Y-104875000D01*
X231627000Y-105983000D01*
X232968731Y-105983000D01*
X233093462Y-105792391D01*
X233089591Y-105754718D01*
X232997421Y-105529467D01*
X232863078Y-105326526D01*
X232691725Y-105153693D01*
X232489946Y-105017610D01*
X232265496Y-104923507D01*
X232027000Y-104875000D01*
X231627000Y-104875000D01*
X231373000Y-104875000D01*
X231046579Y-104875000D01*
X231116579Y-104805000D01*
X231960665Y-104805000D01*
X232142102Y-104787130D01*
X232374901Y-104716511D01*
X232589449Y-104601833D01*
X232768366Y-104455000D01*
X235672514Y-104455000D01*
X235620147Y-104581426D01*
X235565000Y-104858665D01*
X235565000Y-105141335D01*
X235620147Y-105418574D01*
X235728320Y-105679727D01*
X235885363Y-105914759D01*
X236085241Y-106114637D01*
X236320273Y-106271680D01*
X236581426Y-106379853D01*
X236858665Y-106435000D01*
X237141335Y-106435000D01*
X237418574Y-106379853D01*
X237679727Y-106271680D01*
X237914759Y-106114637D01*
X238114637Y-105914759D01*
X238271680Y-105679727D01*
X238379853Y-105418574D01*
X238435000Y-105141335D01*
X238435000Y-104858665D01*
X238379853Y-104581426D01*
X238327486Y-104455000D01*
X240672514Y-104455000D01*
X240620147Y-104581426D01*
X240565000Y-104858665D01*
X240565000Y-105141335D01*
X240620147Y-105418574D01*
X240728320Y-105679727D01*
X240885363Y-105914759D01*
X241085241Y-106114637D01*
X241320273Y-106271680D01*
X241581426Y-106379853D01*
X241858665Y-106435000D01*
X242141335Y-106435000D01*
X242418574Y-106379853D01*
X242679727Y-106271680D01*
X242914759Y-106114637D01*
X243114637Y-105914759D01*
X243271680Y-105679727D01*
X243379853Y-105418574D01*
X243435000Y-105141335D01*
X243435000Y-104858665D01*
X243379853Y-104581426D01*
X243327486Y-104455000D01*
X246388422Y-104455000D01*
X249029461Y-107096040D01*
X249015000Y-107168740D01*
X249015000Y-107461260D01*
X249072068Y-107748158D01*
X249184010Y-108018411D01*
X249346525Y-108261632D01*
X249553368Y-108468475D01*
X249727760Y-108585000D01*
X249553368Y-108701525D01*
X249346525Y-108908368D01*
X249205117Y-109120000D01*
X244801094Y-109120000D01*
X244764999Y-109116445D01*
X244728904Y-109120000D01*
X244728895Y-109120000D01*
X244620915Y-109130635D01*
X244482367Y-109172663D01*
X244354680Y-109240913D01*
X244242762Y-109332762D01*
X244219746Y-109360807D01*
X242353376Y-111227178D01*
X242141335Y-111185000D01*
X241858665Y-111185000D01*
X241646625Y-111227178D01*
X238575259Y-108155813D01*
X238552238Y-108127762D01*
X238440320Y-108035913D01*
X238312633Y-107967663D01*
X238174085Y-107925635D01*
X238066105Y-107915000D01*
X238030000Y-107911444D01*
X237993895Y-107915000D01*
X232894450Y-107915000D01*
X232777502Y-107772498D01*
X232589449Y-107618167D01*
X232374901Y-107503489D01*
X232142102Y-107432870D01*
X231960665Y-107415000D01*
X231039335Y-107415000D01*
X230857898Y-107432870D01*
X230625099Y-107503489D01*
X230410551Y-107618167D01*
X230222498Y-107772498D01*
X230068167Y-107960551D01*
X229953489Y-108175099D01*
X229882870Y-108407898D01*
X229859025Y-108650000D01*
X229882870Y-108892102D01*
X229953489Y-109124901D01*
X230068167Y-109339449D01*
X230222498Y-109527502D01*
X230410551Y-109681833D01*
X230625099Y-109796511D01*
X230857898Y-109867130D01*
X231039335Y-109885000D01*
X231960665Y-109885000D01*
X232142102Y-109867130D01*
X232374901Y-109796511D01*
X232589449Y-109681833D01*
X232777502Y-109527502D01*
X232894450Y-109385000D01*
X237725554Y-109385000D01*
X240607178Y-112266625D01*
X240565000Y-112478665D01*
X240565000Y-112761335D01*
X240609491Y-112985001D01*
X238404447Y-112985001D01*
X238392822Y-112973376D01*
X238435000Y-112761335D01*
X238435000Y-112478665D01*
X238379853Y-112201426D01*
X238271680Y-111940273D01*
X238114637Y-111705241D01*
X237914759Y-111505363D01*
X237679727Y-111348320D01*
X237418574Y-111240147D01*
X237141335Y-111185000D01*
X236858665Y-111185000D01*
X236646624Y-111227178D01*
X236115258Y-110695812D01*
X236092238Y-110667762D01*
X235980320Y-110575913D01*
X235852633Y-110507663D01*
X235714085Y-110465635D01*
X235606105Y-110455000D01*
X235570000Y-110451444D01*
X235533895Y-110455000D01*
X232894450Y-110455000D01*
X232777502Y-110312498D01*
X232589449Y-110158167D01*
X232374901Y-110043489D01*
X232142102Y-109972870D01*
X231960665Y-109955000D01*
X231039335Y-109955000D01*
X230857898Y-109972870D01*
X230625099Y-110043489D01*
X230410551Y-110158167D01*
X230222498Y-110312498D01*
X230068167Y-110500551D01*
X229953489Y-110715099D01*
X229882870Y-110947898D01*
X229859025Y-111190000D01*
X229882870Y-111432102D01*
X229953489Y-111664901D01*
X230068167Y-111879449D01*
X230222498Y-112067502D01*
X230410551Y-112221833D01*
X230625099Y-112336511D01*
X230857898Y-112407130D01*
X231039335Y-112425000D01*
X231960665Y-112425000D01*
X232142102Y-112407130D01*
X232374901Y-112336511D01*
X232589449Y-112221833D01*
X232777502Y-112067502D01*
X232894450Y-111925000D01*
X235265554Y-111925000D01*
X235607178Y-112266624D01*
X235565000Y-112478665D01*
X235565000Y-112761335D01*
X235620147Y-113038574D01*
X235728320Y-113299727D01*
X235885363Y-113534759D01*
X236085241Y-113734637D01*
X236320273Y-113891680D01*
X236581426Y-113999853D01*
X236858665Y-114055000D01*
X237141335Y-114055000D01*
X237353376Y-114012822D01*
X237554742Y-114214188D01*
X237577763Y-114242239D01*
X237689681Y-114334088D01*
X237817368Y-114402338D01*
X237955916Y-114444366D01*
X238100001Y-114458557D01*
X238136106Y-114455001D01*
X249138894Y-114455001D01*
X249174999Y-114458557D01*
X249211104Y-114455001D01*
X249319084Y-114444366D01*
X249457632Y-114402338D01*
X249585319Y-114334088D01*
X249697237Y-114242239D01*
X249720257Y-114214189D01*
X250104103Y-113830344D01*
X250353740Y-113880000D01*
X250646260Y-113880000D01*
X250933158Y-113822932D01*
X251203411Y-113710990D01*
X251446632Y-113548475D01*
X251653475Y-113341632D01*
X251794883Y-113130000D01*
X253045117Y-113130000D01*
X253186525Y-113341632D01*
X253393368Y-113548475D01*
X253636589Y-113710990D01*
X253906842Y-113822932D01*
X254193740Y-113880000D01*
X254486260Y-113880000D01*
X254773158Y-113822932D01*
X254780001Y-113820097D01*
X254780002Y-117396928D01*
X253515000Y-117396928D01*
X253390518Y-117409188D01*
X253270820Y-117445498D01*
X253160506Y-117504463D01*
X253063815Y-117583815D01*
X252984463Y-117680506D01*
X252925498Y-117790820D01*
X252889188Y-117910518D01*
X252876928Y-118035000D01*
X252876928Y-119735000D01*
X252889188Y-119859482D01*
X252925498Y-119979180D01*
X252984463Y-120089494D01*
X253063815Y-120186185D01*
X253160506Y-120265537D01*
X253270820Y-120324502D01*
X253351466Y-120348966D01*
X253267412Y-120424731D01*
X253093359Y-120658080D01*
X252968175Y-120920901D01*
X252923524Y-121068110D01*
X253044845Y-121298000D01*
X254238000Y-121298000D01*
X254238000Y-121278000D01*
X254492000Y-121278000D01*
X254492000Y-121298000D01*
X254512000Y-121298000D01*
X254512000Y-121552000D01*
X254492000Y-121552000D01*
X254492000Y-121572000D01*
X254238000Y-121572000D01*
X254238000Y-121552000D01*
X253044845Y-121552000D01*
X252923524Y-121781890D01*
X252968175Y-121929099D01*
X253093359Y-122191920D01*
X253267412Y-122425269D01*
X253483645Y-122620178D01*
X253600534Y-122689805D01*
X253418368Y-122811525D01*
X253211525Y-123018368D01*
X253170344Y-123080000D01*
X251749656Y-123080000D01*
X251708475Y-123018368D01*
X251501632Y-122811525D01*
X251319466Y-122689805D01*
X251436355Y-122620178D01*
X251652588Y-122425269D01*
X251826641Y-122191920D01*
X251951825Y-121929099D01*
X251996476Y-121781890D01*
X251875155Y-121552000D01*
X250682000Y-121552000D01*
X250682000Y-121572000D01*
X250428000Y-121572000D01*
X250428000Y-121552000D01*
X249234845Y-121552000D01*
X249113524Y-121781890D01*
X249158175Y-121929099D01*
X249283359Y-122191920D01*
X249457412Y-122425269D01*
X249673645Y-122620178D01*
X249790534Y-122689805D01*
X249608368Y-122811525D01*
X249401525Y-123018368D01*
X249360344Y-123080000D01*
X247939656Y-123080000D01*
X247898475Y-123018368D01*
X247691632Y-122811525D01*
X247509466Y-122689805D01*
X247626355Y-122620178D01*
X247842588Y-122425269D01*
X248016641Y-122191920D01*
X248141825Y-121929099D01*
X248186476Y-121781890D01*
X248065155Y-121552000D01*
X246872000Y-121552000D01*
X246872000Y-121572000D01*
X246618000Y-121572000D01*
X246618000Y-121552000D01*
X245424845Y-121552000D01*
X245303524Y-121781890D01*
X245348175Y-121929099D01*
X245473359Y-122191920D01*
X245647412Y-122425269D01*
X245863645Y-122620178D01*
X245980534Y-122689805D01*
X245798368Y-122811525D01*
X245591525Y-123018368D01*
X245550344Y-123080000D01*
X244129656Y-123080000D01*
X244088475Y-123018368D01*
X243881632Y-122811525D01*
X243699466Y-122689805D01*
X243816355Y-122620178D01*
X244032588Y-122425269D01*
X244206641Y-122191920D01*
X244331825Y-121929099D01*
X244376476Y-121781890D01*
X244255155Y-121552000D01*
X243062000Y-121552000D01*
X243062000Y-121572000D01*
X242808000Y-121572000D01*
X242808000Y-121552000D01*
X241614845Y-121552000D01*
X241493524Y-121781890D01*
X241538175Y-121929099D01*
X241663359Y-122191920D01*
X241837412Y-122425269D01*
X242053645Y-122620178D01*
X242170534Y-122689805D01*
X241988368Y-122811525D01*
X241781525Y-123018368D01*
X241619010Y-123261589D01*
X241507068Y-123531842D01*
X241450000Y-123818740D01*
X241450000Y-124111260D01*
X241507068Y-124398158D01*
X241619010Y-124668411D01*
X241781525Y-124911632D01*
X241988368Y-125118475D01*
X242231589Y-125280990D01*
X242501842Y-125392932D01*
X242788740Y-125450000D01*
X243081260Y-125450000D01*
X243368158Y-125392932D01*
X243638411Y-125280990D01*
X243881632Y-125118475D01*
X244088475Y-124911632D01*
X244129656Y-124850000D01*
X245550344Y-124850000D01*
X245591525Y-124911632D01*
X245798368Y-125118475D01*
X246041589Y-125280990D01*
X246311842Y-125392932D01*
X246598740Y-125450000D01*
X246891260Y-125450000D01*
X247178158Y-125392932D01*
X247448411Y-125280990D01*
X247691632Y-125118475D01*
X247898475Y-124911632D01*
X247939656Y-124850000D01*
X249360344Y-124850000D01*
X249401525Y-124911632D01*
X249608368Y-125118475D01*
X249851589Y-125280990D01*
X250121842Y-125392932D01*
X250408740Y-125450000D01*
X250701260Y-125450000D01*
X250988158Y-125392932D01*
X251258411Y-125280990D01*
X251501632Y-125118475D01*
X251708475Y-124911632D01*
X251749656Y-124850000D01*
X253170344Y-124850000D01*
X253211525Y-124911632D01*
X253418368Y-125118475D01*
X253661589Y-125280990D01*
X253931842Y-125392932D01*
X254218740Y-125450000D01*
X254511260Y-125450000D01*
X254798158Y-125392932D01*
X255068411Y-125280990D01*
X255311632Y-125118475D01*
X255518475Y-124911632D01*
X255680990Y-124668411D01*
X255792932Y-124398158D01*
X255850000Y-124111260D01*
X255850000Y-123818740D01*
X255835539Y-123746040D01*
X255871531Y-123710048D01*
X255871536Y-123710042D01*
X256260045Y-123321533D01*
X256293818Y-123293816D01*
X256404412Y-123159058D01*
X256486590Y-123005312D01*
X256537196Y-122838489D01*
X256550001Y-122708476D01*
X256550001Y-122708468D01*
X256554282Y-122664999D01*
X256550001Y-122621530D01*
X256550001Y-108683466D01*
X256554282Y-108640000D01*
X256550001Y-108596534D01*
X256550001Y-108596524D01*
X256537196Y-108466511D01*
X256486590Y-108299688D01*
X256404412Y-108145942D01*
X256293818Y-108011184D01*
X256260051Y-107983472D01*
X255810539Y-107533960D01*
X255825000Y-107461260D01*
X255825000Y-107168740D01*
X255767932Y-106881842D01*
X255655990Y-106611589D01*
X255493475Y-106368368D01*
X255361620Y-106236513D01*
X255434180Y-106214502D01*
X255544494Y-106155537D01*
X255641185Y-106076185D01*
X255720537Y-105979494D01*
X255779502Y-105869180D01*
X255815812Y-105749482D01*
X255828072Y-105625000D01*
X255825000Y-105060750D01*
X255666250Y-104902000D01*
X254467000Y-104902000D01*
X254467000Y-104922000D01*
X254213000Y-104922000D01*
X254213000Y-104902000D01*
X253013750Y-104902000D01*
X252855000Y-105060750D01*
X252851928Y-105625000D01*
X252864188Y-105749482D01*
X252900498Y-105869180D01*
X252959463Y-105979494D01*
X253038815Y-106076185D01*
X253135506Y-106155537D01*
X253245820Y-106214502D01*
X253318380Y-106236513D01*
X253186525Y-106368368D01*
X253145344Y-106430000D01*
X251694656Y-106430000D01*
X251653475Y-106368368D01*
X251521620Y-106236513D01*
X251594180Y-106214502D01*
X251704494Y-106155537D01*
X251801185Y-106076185D01*
X251880537Y-105979494D01*
X251939502Y-105869180D01*
X251975812Y-105749482D01*
X251988072Y-105625000D01*
X251985000Y-105060750D01*
X251826250Y-104902000D01*
X250627000Y-104902000D01*
X250627000Y-104922000D01*
X250373000Y-104922000D01*
X250373000Y-104902000D01*
X250353000Y-104902000D01*
X250353000Y-104648000D01*
X250373000Y-104648000D01*
X250373000Y-103448750D01*
X250627000Y-103448750D01*
X250627000Y-104648000D01*
X251826250Y-104648000D01*
X251985000Y-104489250D01*
X251988072Y-103925000D01*
X252851928Y-103925000D01*
X252855000Y-104489250D01*
X253013750Y-104648000D01*
X254213000Y-104648000D01*
X254213000Y-103448750D01*
X254467000Y-103448750D01*
X254467000Y-104648000D01*
X255666250Y-104648000D01*
X255825000Y-104489250D01*
X255828072Y-103925000D01*
X255815812Y-103800518D01*
X255779502Y-103680820D01*
X255720537Y-103570506D01*
X255641185Y-103473815D01*
X255544494Y-103394463D01*
X255434180Y-103335498D01*
X255314482Y-103299188D01*
X255190000Y-103286928D01*
X254625750Y-103290000D01*
X254467000Y-103448750D01*
X254213000Y-103448750D01*
X254054250Y-103290000D01*
X253490000Y-103286928D01*
X253365518Y-103299188D01*
X253245820Y-103335498D01*
X253135506Y-103394463D01*
X253038815Y-103473815D01*
X252959463Y-103570506D01*
X252900498Y-103680820D01*
X252864188Y-103800518D01*
X252851928Y-103925000D01*
X251988072Y-103925000D01*
X251975812Y-103800518D01*
X251939502Y-103680820D01*
X251880537Y-103570506D01*
X251801185Y-103473815D01*
X251704494Y-103394463D01*
X251594180Y-103335498D01*
X251474482Y-103299188D01*
X251350000Y-103286928D01*
X250785750Y-103290000D01*
X250627000Y-103448750D01*
X250373000Y-103448750D01*
X250214250Y-103290000D01*
X249650000Y-103286928D01*
X249525518Y-103299188D01*
X249405820Y-103335498D01*
X249295506Y-103394463D01*
X249198815Y-103473815D01*
X249119463Y-103570506D01*
X249060498Y-103680820D01*
X249024188Y-103800518D01*
X249011928Y-103925000D01*
X249015000Y-104489250D01*
X249173748Y-104647998D01*
X249084577Y-104647998D01*
X247411534Y-102974956D01*
X247383817Y-102941183D01*
X247249059Y-102830589D01*
X247095313Y-102748411D01*
X246928490Y-102697805D01*
X246798477Y-102685000D01*
X246798469Y-102685000D01*
X246755000Y-102680719D01*
X246711531Y-102685000D01*
X232768366Y-102685000D01*
X232589449Y-102538167D01*
X232374901Y-102423489D01*
X232142102Y-102352870D01*
X231960665Y-102335000D01*
X231039335Y-102335000D01*
X230857898Y-102352870D01*
X230625099Y-102423489D01*
X230410551Y-102538167D01*
X230222498Y-102692498D01*
X230068167Y-102880551D01*
X229953489Y-103095099D01*
X229882870Y-103327898D01*
X229860183Y-103558238D01*
X221985001Y-111433421D01*
X221985001Y-109054445D01*
X222454447Y-108585000D01*
X222606863Y-108585000D01*
X222816483Y-108543304D01*
X223013940Y-108461515D01*
X223191647Y-108342775D01*
X223342775Y-108191647D01*
X223461515Y-108013940D01*
X223543304Y-107816483D01*
X223585000Y-107606863D01*
X223585000Y-107393137D01*
X223543304Y-107183517D01*
X223461515Y-106986060D01*
X223342775Y-106808353D01*
X223191647Y-106657225D01*
X223013940Y-106538485D01*
X222816483Y-106456696D01*
X222606863Y-106415000D01*
X222393137Y-106415000D01*
X222183517Y-106456696D01*
X221986060Y-106538485D01*
X221808353Y-106657225D01*
X221750000Y-106715578D01*
X221691647Y-106657225D01*
X221513940Y-106538485D01*
X221316483Y-106456696D01*
X221106863Y-106415000D01*
X220893137Y-106415000D01*
X220683517Y-106456696D01*
X220486060Y-106538485D01*
X220308353Y-106657225D01*
X220250000Y-106715578D01*
X220191647Y-106657225D01*
X220013940Y-106538485D01*
X219816483Y-106456696D01*
X219606863Y-106415000D01*
X219393137Y-106415000D01*
X219183517Y-106456696D01*
X218986060Y-106538485D01*
X218808353Y-106657225D01*
X218750000Y-106715578D01*
X218691647Y-106657225D01*
X218513940Y-106538485D01*
X218316483Y-106456696D01*
X218106863Y-106415000D01*
X217893137Y-106415000D01*
X217683517Y-106456696D01*
X217486060Y-106538485D01*
X217335001Y-106639419D01*
X217335001Y-106404447D01*
X218004449Y-105735000D01*
X224463895Y-105735000D01*
X224500000Y-105738556D01*
X224536105Y-105735000D01*
X224644085Y-105724365D01*
X224782633Y-105682337D01*
X224910320Y-105614087D01*
X225022238Y-105522238D01*
X225045259Y-105494187D01*
X230334198Y-100205248D01*
X230362238Y-100182237D01*
X230385251Y-100154196D01*
X230385254Y-100154193D01*
X230413315Y-100120000D01*
X230454088Y-100070319D01*
X230466995Y-100046171D01*
X230526589Y-100085990D01*
X230796842Y-100197932D01*
X231083740Y-100255000D01*
X231376260Y-100255000D01*
X231663158Y-100197932D01*
X231933411Y-100085990D01*
X232176632Y-99923475D01*
X232383475Y-99716632D01*
X232500000Y-99542240D01*
X232616525Y-99716632D01*
X232823368Y-99923475D01*
X233066589Y-100085990D01*
X233336842Y-100197932D01*
X233623740Y-100255000D01*
X233916260Y-100255000D01*
X234203158Y-100197932D01*
X234473411Y-100085990D01*
X234716632Y-99923475D01*
X234923475Y-99716632D01*
X235040000Y-99542240D01*
X235156525Y-99716632D01*
X235363368Y-99923475D01*
X235606589Y-100085990D01*
X235876842Y-100197932D01*
X236163740Y-100255000D01*
X236456260Y-100255000D01*
X236743158Y-100197932D01*
X237013411Y-100085990D01*
X237256632Y-99923475D01*
X237463475Y-99716632D01*
X237585195Y-99534466D01*
X237654822Y-99651355D01*
X237849731Y-99867588D01*
X238083080Y-100041641D01*
X238345901Y-100166825D01*
X238493110Y-100211476D01*
X238723000Y-100090155D01*
X238723000Y-98897000D01*
X238703000Y-98897000D01*
X238703000Y-98643000D01*
X238723000Y-98643000D01*
X238723000Y-98623000D01*
X238977000Y-98623000D01*
X238977000Y-98643000D01*
X238997000Y-98643000D01*
X238997000Y-98897000D01*
X238977000Y-98897000D01*
X238977000Y-100090155D01*
X239206890Y-100211476D01*
X239354099Y-100166825D01*
X239616920Y-100041641D01*
X239850269Y-99867588D01*
X240045178Y-99651355D01*
X240114805Y-99534466D01*
X240236525Y-99716632D01*
X240443368Y-99923475D01*
X240686589Y-100085990D01*
X240956842Y-100197932D01*
X241243740Y-100255000D01*
X241536260Y-100255000D01*
X241823158Y-100197932D01*
X242093411Y-100085990D01*
X242336632Y-99923475D01*
X242543475Y-99716632D01*
X242660000Y-99542240D01*
X242776525Y-99716632D01*
X242983368Y-99923475D01*
X243226589Y-100085990D01*
X243496842Y-100197932D01*
X243783740Y-100255000D01*
X244076260Y-100255000D01*
X244363158Y-100197932D01*
X244633411Y-100085990D01*
X244876632Y-99923475D01*
X245083475Y-99716632D01*
X245200000Y-99542240D01*
X245316525Y-99716632D01*
X245523368Y-99923475D01*
X245766589Y-100085990D01*
X246036842Y-100197932D01*
X246323740Y-100255000D01*
X246616260Y-100255000D01*
X246903158Y-100197932D01*
X247173411Y-100085990D01*
X247416632Y-99923475D01*
X247623475Y-99716632D01*
X247740000Y-99542240D01*
X247856525Y-99716632D01*
X248063368Y-99923475D01*
X248306589Y-100085990D01*
X248576842Y-100197932D01*
X248863740Y-100255000D01*
X249156260Y-100255000D01*
X249443158Y-100197932D01*
X249713411Y-100085990D01*
X249956632Y-99923475D01*
X250163475Y-99716632D01*
X250280000Y-99542240D01*
X250396525Y-99716632D01*
X250603368Y-99923475D01*
X250846589Y-100085990D01*
X251116842Y-100197932D01*
X251403740Y-100255000D01*
X251696260Y-100255000D01*
X251983158Y-100197932D01*
X252253411Y-100085990D01*
X252496632Y-99923475D01*
X252703475Y-99716632D01*
X252820000Y-99542240D01*
X252936525Y-99716632D01*
X253143368Y-99923475D01*
X253386589Y-100085990D01*
X253656842Y-100197932D01*
X253943740Y-100255000D01*
X254236260Y-100255000D01*
X254523158Y-100197932D01*
X254793411Y-100085990D01*
X255036632Y-99923475D01*
X255243475Y-99716632D01*
X255365195Y-99534466D01*
X255434822Y-99651355D01*
X255629731Y-99867588D01*
X255863080Y-100041641D01*
X256125901Y-100166825D01*
X256273110Y-100211476D01*
X256503000Y-100090155D01*
X256503000Y-98897000D01*
X256757000Y-98897000D01*
X256757000Y-100090155D01*
X256986890Y-100211476D01*
X257134099Y-100166825D01*
X257396920Y-100041641D01*
X257630269Y-99867588D01*
X257825178Y-99651355D01*
X257974157Y-99401252D01*
X258071481Y-99126891D01*
X257950814Y-98897000D01*
X256757000Y-98897000D01*
X256503000Y-98897000D01*
X256483000Y-98897000D01*
X256483000Y-98643000D01*
X256503000Y-98643000D01*
X256503000Y-98623000D01*
X256757000Y-98623000D01*
X256757000Y-98643000D01*
X257950814Y-98643000D01*
X258071481Y-98413109D01*
X257974157Y-98138748D01*
X257825178Y-97888645D01*
X257630269Y-97672412D01*
X257400594Y-97501100D01*
X257576632Y-97383475D01*
X257655612Y-97304495D01*
X259515000Y-97304495D01*
X259515000Y-97695505D01*
X259591282Y-98079003D01*
X259740915Y-98440250D01*
X259958149Y-98765364D01*
X260234636Y-99041851D01*
X260559750Y-99259085D01*
X260920997Y-99408718D01*
X261304495Y-99485000D01*
X261695505Y-99485000D01*
X262079003Y-99408718D01*
X262440250Y-99259085D01*
X262765364Y-99041851D01*
X263041851Y-98765364D01*
X263259085Y-98440250D01*
X263408718Y-98079003D01*
X263485000Y-97695505D01*
X263485000Y-97304495D01*
X263408718Y-96920997D01*
X263259085Y-96559750D01*
X263041851Y-96234636D01*
X262765364Y-95958149D01*
X262440250Y-95740915D01*
X262079003Y-95591282D01*
X261695505Y-95515000D01*
X261304495Y-95515000D01*
X260920997Y-95591282D01*
X260559750Y-95740915D01*
X260234636Y-95958149D01*
X259958149Y-96234636D01*
X259740915Y-96559750D01*
X259591282Y-96920997D01*
X259515000Y-97304495D01*
X257655612Y-97304495D01*
X257783475Y-97176632D01*
X257945990Y-96933411D01*
X258057932Y-96663158D01*
X258115000Y-96376260D01*
X258115000Y-96083740D01*
X258057932Y-95796842D01*
X257945990Y-95526589D01*
X257783475Y-95283368D01*
X257576632Y-95076525D01*
X257333411Y-94914010D01*
X257063158Y-94802068D01*
X256776260Y-94745000D01*
X256483740Y-94745000D01*
X256196842Y-94802068D01*
X255926589Y-94914010D01*
X255683368Y-95076525D01*
X255476525Y-95283368D01*
X255360000Y-95457760D01*
X255243475Y-95283368D01*
X255036632Y-95076525D01*
X254793411Y-94914010D01*
X254523158Y-94802068D01*
X254236260Y-94745000D01*
X253943740Y-94745000D01*
X253656842Y-94802068D01*
X253386589Y-94914010D01*
X253143368Y-95076525D01*
X252936525Y-95283368D01*
X252820000Y-95457760D01*
X252703475Y-95283368D01*
X252496632Y-95076525D01*
X252253411Y-94914010D01*
X251983158Y-94802068D01*
X251696260Y-94745000D01*
X251403740Y-94745000D01*
X251116842Y-94802068D01*
X250846589Y-94914010D01*
X250603368Y-95076525D01*
X250396525Y-95283368D01*
X250274805Y-95465534D01*
X250205178Y-95348645D01*
X250010269Y-95132412D01*
X249776920Y-94958359D01*
X249514099Y-94833175D01*
X249366890Y-94788524D01*
X249137000Y-94909845D01*
X249137000Y-96103000D01*
X249157000Y-96103000D01*
X249157000Y-96357000D01*
X249137000Y-96357000D01*
X249137000Y-96377000D01*
X248883000Y-96377000D01*
X248883000Y-96357000D01*
X248863000Y-96357000D01*
X248863000Y-96103000D01*
X248883000Y-96103000D01*
X248883000Y-94909845D01*
X248653110Y-94788524D01*
X248505901Y-94833175D01*
X248243080Y-94958359D01*
X248009731Y-95132412D01*
X247814822Y-95348645D01*
X247745195Y-95465534D01*
X247623475Y-95283368D01*
X247416632Y-95076525D01*
X247173411Y-94914010D01*
X246903158Y-94802068D01*
X246616260Y-94745000D01*
X246323740Y-94745000D01*
X246036842Y-94802068D01*
X245766589Y-94914010D01*
X245523368Y-95076525D01*
X245316525Y-95283368D01*
X245194805Y-95465534D01*
X245125178Y-95348645D01*
X244930269Y-95132412D01*
X244696920Y-94958359D01*
X244434099Y-94833175D01*
X244286890Y-94788524D01*
X244057000Y-94909845D01*
X244057000Y-96103000D01*
X244077000Y-96103000D01*
X244077000Y-96357000D01*
X244057000Y-96357000D01*
X244057000Y-96377000D01*
X243803000Y-96377000D01*
X243803000Y-96357000D01*
X243783000Y-96357000D01*
X243783000Y-96103000D01*
X243803000Y-96103000D01*
X243803000Y-94909845D01*
X243573110Y-94788524D01*
X243425901Y-94833175D01*
X243163080Y-94958359D01*
X242929731Y-95132412D01*
X242734822Y-95348645D01*
X242665195Y-95465534D01*
X242543475Y-95283368D01*
X242336632Y-95076525D01*
X242093411Y-94914010D01*
X241823158Y-94802068D01*
X241536260Y-94745000D01*
X241243740Y-94745000D01*
X240956842Y-94802068D01*
X240686589Y-94914010D01*
X240443368Y-95076525D01*
X240236525Y-95283368D01*
X240120000Y-95457760D01*
X240003475Y-95283368D01*
X239796632Y-95076525D01*
X239553411Y-94914010D01*
X239283158Y-94802068D01*
X238996260Y-94745000D01*
X238703740Y-94745000D01*
X238416842Y-94802068D01*
X238146589Y-94914010D01*
X237903368Y-95076525D01*
X237696525Y-95283368D01*
X237580000Y-95457760D01*
X237463475Y-95283368D01*
X237256632Y-95076525D01*
X237013411Y-94914010D01*
X236743158Y-94802068D01*
X236456260Y-94745000D01*
X236163740Y-94745000D01*
X235876842Y-94802068D01*
X235606589Y-94914010D01*
X235363368Y-95076525D01*
X235156525Y-95283368D01*
X235040000Y-95457760D01*
X234923475Y-95283368D01*
X234716632Y-95076525D01*
X234473411Y-94914010D01*
X234203158Y-94802068D01*
X233916260Y-94745000D01*
X233623740Y-94745000D01*
X233336842Y-94802068D01*
X233066589Y-94914010D01*
X232823368Y-95076525D01*
X232616525Y-95283368D01*
X232494805Y-95465534D01*
X232425178Y-95348645D01*
X232230269Y-95132412D01*
X231996920Y-94958359D01*
X231734099Y-94833175D01*
X231586890Y-94788524D01*
X231357000Y-94909845D01*
X231357000Y-96103000D01*
X231377000Y-96103000D01*
X231377000Y-96357000D01*
X231357000Y-96357000D01*
X231357000Y-96377000D01*
X231103000Y-96377000D01*
X231103000Y-96357000D01*
X231083000Y-96357000D01*
X231083000Y-96103000D01*
X231103000Y-96103000D01*
X231103000Y-94909845D01*
X230873110Y-94788524D01*
X230725901Y-94833175D01*
X230463080Y-94958359D01*
X230229731Y-95132412D01*
X230034822Y-95348645D01*
X229965195Y-95465534D01*
X229843475Y-95283368D01*
X229636632Y-95076525D01*
X229393411Y-94914010D01*
X229123158Y-94802068D01*
X228836260Y-94745000D01*
X228543740Y-94745000D01*
X228256842Y-94802068D01*
X227986589Y-94914010D01*
X227743368Y-95076525D01*
X227536525Y-95283368D01*
X227420000Y-95457760D01*
X227303475Y-95283368D01*
X227096632Y-95076525D01*
X226853411Y-94914010D01*
X226583158Y-94802068D01*
X226296260Y-94745000D01*
X226003740Y-94745000D01*
X225716842Y-94802068D01*
X225446589Y-94914010D01*
X225203368Y-95076525D01*
X224996525Y-95283368D01*
X224874805Y-95465534D01*
X224805178Y-95348645D01*
X224610269Y-95132412D01*
X224376920Y-94958359D01*
X224114099Y-94833175D01*
X223966890Y-94788524D01*
X223737000Y-94909845D01*
X223737000Y-96103000D01*
X223757000Y-96103000D01*
X223757000Y-96357000D01*
X223737000Y-96357000D01*
X223737000Y-96377000D01*
X223483000Y-96377000D01*
X223483000Y-96357000D01*
X223463000Y-96357000D01*
X223463000Y-96103000D01*
X223483000Y-96103000D01*
X223483000Y-94909845D01*
X223253110Y-94788524D01*
X223105901Y-94833175D01*
X222843080Y-94958359D01*
X222609731Y-95132412D01*
X222414822Y-95348645D01*
X222345195Y-95465534D01*
X222223475Y-95283368D01*
X222016632Y-95076525D01*
X221773411Y-94914010D01*
X221503158Y-94802068D01*
X221216260Y-94745000D01*
X220923740Y-94745000D01*
X220636842Y-94802068D01*
X220366589Y-94914010D01*
X220123368Y-95076525D01*
X219916525Y-95283368D01*
X219800000Y-95457760D01*
X219683475Y-95283368D01*
X219476632Y-95076525D01*
X219233411Y-94914010D01*
X218963158Y-94802068D01*
X218676260Y-94745000D01*
X218383740Y-94745000D01*
X218096842Y-94802068D01*
X217826589Y-94914010D01*
X217583368Y-95076525D01*
X217376525Y-95283368D01*
X217260000Y-95457760D01*
X217143475Y-95283368D01*
X216936632Y-95076525D01*
X216693411Y-94914010D01*
X216423158Y-94802068D01*
X216136260Y-94745000D01*
X215843740Y-94745000D01*
X215556842Y-94802068D01*
X215286589Y-94914010D01*
X215043368Y-95076525D01*
X214836525Y-95283368D01*
X214714805Y-95465534D01*
X214645178Y-95348645D01*
X214450269Y-95132412D01*
X214216920Y-94958359D01*
X213954099Y-94833175D01*
X213806890Y-94788524D01*
X213577000Y-94909845D01*
X213577000Y-96103000D01*
X213597000Y-96103000D01*
X213597000Y-96357000D01*
X213577000Y-96357000D01*
X213577000Y-96377000D01*
X213323000Y-96377000D01*
X213323000Y-96357000D01*
X213303000Y-96357000D01*
X213303000Y-96103000D01*
X213323000Y-96103000D01*
X213323000Y-94909845D01*
X213093110Y-94788524D01*
X212945901Y-94833175D01*
X212683080Y-94958359D01*
X212449731Y-95132412D01*
X212254822Y-95348645D01*
X212185195Y-95465534D01*
X212063475Y-95283368D01*
X211856632Y-95076525D01*
X211613411Y-94914010D01*
X211343158Y-94802068D01*
X211056260Y-94745000D01*
X210763740Y-94745000D01*
X210476842Y-94802068D01*
X210206589Y-94914010D01*
X209963368Y-95076525D01*
X209756525Y-95283368D01*
X209715344Y-95345000D01*
X209564656Y-95345000D01*
X209523475Y-95283368D01*
X209316632Y-95076525D01*
X209073411Y-94914010D01*
X208803158Y-94802068D01*
X208516260Y-94745000D01*
X208223740Y-94745000D01*
X207936842Y-94802068D01*
X207666589Y-94914010D01*
X207423368Y-95076525D01*
X207216525Y-95283368D01*
X207054010Y-95526589D01*
X206942068Y-95796842D01*
X206885000Y-96083740D01*
X206885000Y-96376260D01*
X206942068Y-96663158D01*
X207049251Y-96921923D01*
X206997366Y-96937662D01*
X206869679Y-97005912D01*
X206757761Y-97097761D01*
X206734746Y-97125805D01*
X204305808Y-99554744D01*
X204277763Y-99577760D01*
X204185914Y-99689678D01*
X204171507Y-99716632D01*
X204117664Y-99817365D01*
X204075635Y-99955913D01*
X204061444Y-100099998D01*
X204065001Y-100136113D01*
X204065000Y-101980234D01*
X203979484Y-101988657D01*
X203671285Y-102082148D01*
X203387248Y-102233969D01*
X203138286Y-102438286D01*
X202933969Y-102687248D01*
X202782148Y-102971285D01*
X202688657Y-103279484D01*
X202657089Y-103600000D01*
X202688657Y-103920516D01*
X202782148Y-104228715D01*
X202933969Y-104512752D01*
X203075424Y-104685116D01*
X202918574Y-104620147D01*
X202641335Y-104565000D01*
X202358665Y-104565000D01*
X202081426Y-104620147D01*
X201820273Y-104728320D01*
X201585241Y-104885363D01*
X201385363Y-105085241D01*
X201228320Y-105320273D01*
X201120147Y-105581426D01*
X201065000Y-105858665D01*
X201065000Y-106141335D01*
X201120147Y-106418574D01*
X201228320Y-106679727D01*
X201385363Y-106914759D01*
X201435604Y-106965000D01*
X201273000Y-106965000D01*
X200956468Y-107021193D01*
X200685000Y-107127124D01*
X200685000Y-97304495D01*
X201515000Y-97304495D01*
X201515000Y-97695505D01*
X201591282Y-98079003D01*
X201740915Y-98440250D01*
X201958149Y-98765364D01*
X202234636Y-99041851D01*
X202559750Y-99259085D01*
X202920997Y-99408718D01*
X203304495Y-99485000D01*
X203695505Y-99485000D01*
X204079003Y-99408718D01*
X204440250Y-99259085D01*
X204765364Y-99041851D01*
X205041851Y-98765364D01*
X205259085Y-98440250D01*
X205408718Y-98079003D01*
X205485000Y-97695505D01*
X205485000Y-97304495D01*
X205408718Y-96920997D01*
X205259085Y-96559750D01*
X205041851Y-96234636D01*
X204765364Y-95958149D01*
X204440250Y-95740915D01*
X204079003Y-95591282D01*
X203695505Y-95515000D01*
X203304495Y-95515000D01*
X202920997Y-95591282D01*
X202559750Y-95740915D01*
X202234636Y-95958149D01*
X201958149Y-96234636D01*
X201740915Y-96559750D01*
X201591282Y-96920997D01*
X201515000Y-97304495D01*
X200685000Y-97304495D01*
X200685000Y-97033505D01*
X200732312Y-96550984D01*
X200862714Y-96119070D01*
X201074524Y-95720715D01*
X201359675Y-95371086D01*
X201707303Y-95083503D01*
X202104177Y-94868914D01*
X202535161Y-94735502D01*
X203015654Y-94685000D01*
X261966495Y-94685000D01*
X262449016Y-94732312D01*
G37*
X262449016Y-94732312D02*
X262880930Y-94862714D01*
X263279285Y-95074524D01*
X263628914Y-95359675D01*
X263916497Y-95707303D01*
X264131086Y-96104177D01*
X264264498Y-96535161D01*
X264315001Y-97015663D01*
X264315000Y-146966495D01*
X264267688Y-147449016D01*
X264137287Y-147880927D01*
X263925480Y-148279280D01*
X263640325Y-148628914D01*
X263292697Y-148916497D01*
X262895825Y-149131085D01*
X262464834Y-149264500D01*
X261984346Y-149315000D01*
X256455422Y-149315000D01*
X256587871Y-149226500D01*
X256836500Y-148977871D01*
X257031847Y-148685515D01*
X257166404Y-148360665D01*
X257235000Y-148015807D01*
X257235000Y-147664193D01*
X257166404Y-147319335D01*
X257031847Y-146994485D01*
X256836500Y-146702129D01*
X256587871Y-146453500D01*
X256364871Y-146304495D01*
X259515000Y-146304495D01*
X259515000Y-146695505D01*
X259591282Y-147079003D01*
X259740915Y-147440250D01*
X259958149Y-147765364D01*
X260234636Y-148041851D01*
X260559750Y-148259085D01*
X260920997Y-148408718D01*
X261304495Y-148485000D01*
X261695505Y-148485000D01*
X262079003Y-148408718D01*
X262440250Y-148259085D01*
X262765364Y-148041851D01*
X263041851Y-147765364D01*
X263259085Y-147440250D01*
X263408718Y-147079003D01*
X263485000Y-146695505D01*
X263485000Y-146304495D01*
X263408718Y-145920997D01*
X263259085Y-145559750D01*
X263041851Y-145234636D01*
X262765364Y-144958149D01*
X262440250Y-144740915D01*
X262079003Y-144591282D01*
X261695505Y-144515000D01*
X261304495Y-144515000D01*
X260920997Y-144591282D01*
X260559750Y-144740915D01*
X260234636Y-144958149D01*
X259958149Y-145234636D01*
X259740915Y-145559750D01*
X259591282Y-145920997D01*
X259515000Y-146304495D01*
X256364871Y-146304495D01*
X256295515Y-146258153D01*
X255970665Y-146123596D01*
X255625807Y-146055000D01*
X255274193Y-146055000D01*
X254929335Y-146123596D01*
X254604485Y-146258153D01*
X254312129Y-146453500D01*
X254063500Y-146702129D01*
X253868153Y-146994485D01*
X253733596Y-147319335D01*
X253665000Y-147664193D01*
X253665000Y-148015807D01*
X253733596Y-148360665D01*
X253868153Y-148685515D01*
X254063500Y-148977871D01*
X254312129Y-149226500D01*
X254444578Y-149315000D01*
X253078789Y-149315000D01*
X253079282Y-149309999D01*
X253075001Y-149266530D01*
X253075001Y-145002668D01*
X253079282Y-144959199D01*
X253075001Y-144915730D01*
X253075001Y-144915722D01*
X253062196Y-144785709D01*
X253060465Y-144780001D01*
X253048608Y-144740915D01*
X253011590Y-144618886D01*
X252929412Y-144465140D01*
X252885000Y-144411024D01*
X252885000Y-144385655D01*
X253004180Y-144349502D01*
X253114494Y-144290537D01*
X253211185Y-144211185D01*
X253290537Y-144114494D01*
X253349502Y-144004180D01*
X253385812Y-143884482D01*
X253398072Y-143760000D01*
X253398072Y-142240000D01*
X253385812Y-142115518D01*
X253349502Y-141995820D01*
X253290537Y-141885506D01*
X253211185Y-141788815D01*
X253114494Y-141709463D01*
X253004180Y-141650498D01*
X252884482Y-141614188D01*
X252760000Y-141601928D01*
X251240000Y-141601928D01*
X251115518Y-141614188D01*
X250995820Y-141650498D01*
X250885506Y-141709463D01*
X250788815Y-141788815D01*
X250742581Y-141845152D01*
X250620780Y-141763767D01*
X250366907Y-141658609D01*
X250097396Y-141605000D01*
X249822604Y-141605000D01*
X249640641Y-141641195D01*
X240765000Y-132765554D01*
X240765000Y-131409748D01*
X240944759Y-131289637D01*
X241144637Y-131089759D01*
X241301680Y-130854727D01*
X241409853Y-130593574D01*
X241465000Y-130316335D01*
X241465000Y-130033665D01*
X241409853Y-129756426D01*
X241301680Y-129495273D01*
X241144637Y-129260241D01*
X240944759Y-129060363D01*
X240709727Y-128903320D01*
X240448574Y-128795147D01*
X240171335Y-128740000D01*
X239888665Y-128740000D01*
X239611426Y-128795147D01*
X239350273Y-128903320D01*
X239115241Y-129060363D01*
X239079026Y-129096578D01*
X238563259Y-128580811D01*
X238540239Y-128552761D01*
X238428321Y-128460912D01*
X238300634Y-128392662D01*
X238162086Y-128350634D01*
X238054106Y-128339999D01*
X238018001Y-128336443D01*
X237981896Y-128339999D01*
X236086106Y-128339999D01*
X236050001Y-128336443D01*
X236013896Y-128339999D01*
X235905916Y-128350634D01*
X235767368Y-128392662D01*
X235639681Y-128460912D01*
X235527763Y-128552761D01*
X235504742Y-128580812D01*
X235303376Y-128782178D01*
X235091335Y-128740000D01*
X234808665Y-128740000D01*
X234531426Y-128795147D01*
X234270273Y-128903320D01*
X234035241Y-129060363D01*
X233835363Y-129260241D01*
X233680000Y-129492759D01*
X233524637Y-129260241D01*
X233324759Y-129060363D01*
X233089727Y-128903320D01*
X232828574Y-128795147D01*
X232551335Y-128740000D01*
X232268665Y-128740000D01*
X231991426Y-128795147D01*
X231730273Y-128903320D01*
X231495241Y-129060363D01*
X231295363Y-129260241D01*
X231140000Y-129492759D01*
X230984637Y-129260241D01*
X230784759Y-129060363D01*
X230549727Y-128903320D01*
X230288574Y-128795147D01*
X230011335Y-128740000D01*
X229728665Y-128740000D01*
X229451426Y-128795147D01*
X229190273Y-128903320D01*
X228955241Y-129060363D01*
X228755363Y-129260241D01*
X228600000Y-129492759D01*
X228444637Y-129260241D01*
X228244759Y-129060363D01*
X228009727Y-128903320D01*
X227748574Y-128795147D01*
X227471335Y-128740000D01*
X227188665Y-128740000D01*
X226911426Y-128795147D01*
X226650273Y-128903320D01*
X226415241Y-129060363D01*
X226215363Y-129260241D01*
X226060000Y-129492759D01*
X225904637Y-129260241D01*
X225704759Y-129060363D01*
X225469727Y-128903320D01*
X225208574Y-128795147D01*
X224931335Y-128740000D01*
X224648665Y-128740000D01*
X224371426Y-128795147D01*
X224110273Y-128903320D01*
X223875241Y-129060363D01*
X223675363Y-129260241D01*
X223520000Y-129492759D01*
X223364637Y-129260241D01*
X223164759Y-129060363D01*
X223135000Y-129040479D01*
X223135000Y-126430000D01*
X229859025Y-126430000D01*
X229882870Y-126672102D01*
X229953489Y-126904901D01*
X230068167Y-127119449D01*
X230222498Y-127307502D01*
X230410551Y-127461833D01*
X230625099Y-127576511D01*
X230857898Y-127647130D01*
X231039335Y-127665000D01*
X231960665Y-127665000D01*
X232142102Y-127647130D01*
X232374901Y-127576511D01*
X232589449Y-127461833D01*
X232777502Y-127307502D01*
X232931833Y-127119449D01*
X233046511Y-126904901D01*
X233117130Y-126672102D01*
X233140975Y-126430000D01*
X233117130Y-126187898D01*
X233046511Y-125955099D01*
X232931833Y-125740551D01*
X232777502Y-125552498D01*
X232589449Y-125398167D01*
X232374901Y-125283489D01*
X232142102Y-125212870D01*
X231960665Y-125195000D01*
X231039335Y-125195000D01*
X230857898Y-125212870D01*
X230625099Y-125283489D01*
X230410551Y-125398167D01*
X230222498Y-125552498D01*
X230068167Y-125740551D01*
X229953489Y-125955099D01*
X229882870Y-126187898D01*
X229859025Y-126430000D01*
X223135000Y-126430000D01*
X223135000Y-123890000D01*
X229859025Y-123890000D01*
X229882870Y-124132102D01*
X229953489Y-124364901D01*
X230068167Y-124579449D01*
X230222498Y-124767502D01*
X230410551Y-124921833D01*
X230625099Y-125036511D01*
X230857898Y-125107130D01*
X231039335Y-125125000D01*
X231960665Y-125125000D01*
X232142102Y-125107130D01*
X232374901Y-125036511D01*
X232589449Y-124921833D01*
X232777502Y-124767502D01*
X232931833Y-124579449D01*
X233046511Y-124364901D01*
X233117130Y-124132102D01*
X233140975Y-123890000D01*
X233117130Y-123647898D01*
X233046511Y-123415099D01*
X232931833Y-123200551D01*
X232777502Y-123012498D01*
X232589449Y-122858167D01*
X232374901Y-122743489D01*
X232142102Y-122672870D01*
X231960665Y-122655000D01*
X231039335Y-122655000D01*
X230857898Y-122672870D01*
X230625099Y-122743489D01*
X230410551Y-122858167D01*
X230222498Y-123012498D01*
X230068167Y-123200551D01*
X229953489Y-123415099D01*
X229882870Y-123647898D01*
X229859025Y-123890000D01*
X223135000Y-123890000D01*
X223135000Y-121350000D01*
X229859025Y-121350000D01*
X229882870Y-121592102D01*
X229953489Y-121824901D01*
X230068167Y-122039449D01*
X230222498Y-122227502D01*
X230410551Y-122381833D01*
X230625099Y-122496511D01*
X230857898Y-122567130D01*
X231039335Y-122585000D01*
X231960665Y-122585000D01*
X232142102Y-122567130D01*
X232374901Y-122496511D01*
X232589449Y-122381833D01*
X232777502Y-122227502D01*
X232931833Y-122039449D01*
X233046511Y-121824901D01*
X233117130Y-121592102D01*
X233140975Y-121350000D01*
X233117130Y-121107898D01*
X233046511Y-120875099D01*
X232931833Y-120660551D01*
X232777502Y-120472498D01*
X232589449Y-120318167D01*
X232374901Y-120203489D01*
X232142102Y-120132870D01*
X231960665Y-120115000D01*
X231039335Y-120115000D01*
X230857898Y-120132870D01*
X230625099Y-120203489D01*
X230410551Y-120318167D01*
X230222498Y-120472498D01*
X230068167Y-120660551D01*
X229953489Y-120875099D01*
X229882870Y-121107898D01*
X229859025Y-121350000D01*
X223135000Y-121350000D01*
X223135000Y-118810000D01*
X229859025Y-118810000D01*
X229882870Y-119052102D01*
X229953489Y-119284901D01*
X230068167Y-119499449D01*
X230222498Y-119687502D01*
X230410551Y-119841833D01*
X230625099Y-119956511D01*
X230857898Y-120027130D01*
X231039335Y-120045000D01*
X231960665Y-120045000D01*
X232142102Y-120027130D01*
X232374901Y-119956511D01*
X232589449Y-119841833D01*
X232777502Y-119687502D01*
X232931833Y-119499449D01*
X233046511Y-119284901D01*
X233117130Y-119052102D01*
X233140975Y-118810000D01*
X233117130Y-118567898D01*
X233046511Y-118335099D01*
X232931833Y-118120551D01*
X232861624Y-118035000D01*
X241446928Y-118035000D01*
X241446928Y-119735000D01*
X241459188Y-119859482D01*
X241495498Y-119979180D01*
X241554463Y-120089494D01*
X241633815Y-120186185D01*
X241730506Y-120265537D01*
X241840820Y-120324502D01*
X241921466Y-120348966D01*
X241837412Y-120424731D01*
X241663359Y-120658080D01*
X241538175Y-120920901D01*
X241493524Y-121068110D01*
X241614845Y-121298000D01*
X242808000Y-121298000D01*
X242808000Y-121278000D01*
X243062000Y-121278000D01*
X243062000Y-121298000D01*
X244255155Y-121298000D01*
X244376476Y-121068110D01*
X244331825Y-120920901D01*
X244206641Y-120658080D01*
X244032588Y-120424731D01*
X243948534Y-120348966D01*
X244029180Y-120324502D01*
X244139494Y-120265537D01*
X244236185Y-120186185D01*
X244315537Y-120089494D01*
X244374502Y-119979180D01*
X244410812Y-119859482D01*
X244423072Y-119735000D01*
X244423072Y-118035000D01*
X245256928Y-118035000D01*
X245256928Y-119735000D01*
X245269188Y-119859482D01*
X245305498Y-119979180D01*
X245364463Y-120089494D01*
X245443815Y-120186185D01*
X245540506Y-120265537D01*
X245650820Y-120324502D01*
X245731466Y-120348966D01*
X245647412Y-120424731D01*
X245473359Y-120658080D01*
X245348175Y-120920901D01*
X245303524Y-121068110D01*
X245424845Y-121298000D01*
X246618000Y-121298000D01*
X246618000Y-121278000D01*
X246872000Y-121278000D01*
X246872000Y-121298000D01*
X248065155Y-121298000D01*
X248186476Y-121068110D01*
X248141825Y-120920901D01*
X248016641Y-120658080D01*
X247842588Y-120424731D01*
X247758534Y-120348966D01*
X247839180Y-120324502D01*
X247949494Y-120265537D01*
X248046185Y-120186185D01*
X248125537Y-120089494D01*
X248184502Y-119979180D01*
X248220812Y-119859482D01*
X248233072Y-119735000D01*
X248233072Y-118035000D01*
X249066928Y-118035000D01*
X249066928Y-119735000D01*
X249079188Y-119859482D01*
X249115498Y-119979180D01*
X249174463Y-120089494D01*
X249253815Y-120186185D01*
X249350506Y-120265537D01*
X249460820Y-120324502D01*
X249541466Y-120348966D01*
X249457412Y-120424731D01*
X249283359Y-120658080D01*
X249158175Y-120920901D01*
X249113524Y-121068110D01*
X249234845Y-121298000D01*
X250428000Y-121298000D01*
X250428000Y-121278000D01*
X250682000Y-121278000D01*
X250682000Y-121298000D01*
X251875155Y-121298000D01*
X251996476Y-121068110D01*
X251951825Y-120920901D01*
X251826641Y-120658080D01*
X251652588Y-120424731D01*
X251568534Y-120348966D01*
X251649180Y-120324502D01*
X251759494Y-120265537D01*
X251856185Y-120186185D01*
X251935537Y-120089494D01*
X251994502Y-119979180D01*
X252030812Y-119859482D01*
X252043072Y-119735000D01*
X252043072Y-118035000D01*
X252030812Y-117910518D01*
X251994502Y-117790820D01*
X251935537Y-117680506D01*
X251856185Y-117583815D01*
X251759494Y-117504463D01*
X251649180Y-117445498D01*
X251529482Y-117409188D01*
X251405000Y-117396928D01*
X249705000Y-117396928D01*
X249580518Y-117409188D01*
X249460820Y-117445498D01*
X249350506Y-117504463D01*
X249253815Y-117583815D01*
X249174463Y-117680506D01*
X249115498Y-117790820D01*
X249079188Y-117910518D01*
X249066928Y-118035000D01*
X248233072Y-118035000D01*
X248220812Y-117910518D01*
X248184502Y-117790820D01*
X248125537Y-117680506D01*
X248046185Y-117583815D01*
X247949494Y-117504463D01*
X247839180Y-117445498D01*
X247719482Y-117409188D01*
X247595000Y-117396928D01*
X245895000Y-117396928D01*
X245770518Y-117409188D01*
X245650820Y-117445498D01*
X245540506Y-117504463D01*
X245443815Y-117583815D01*
X245364463Y-117680506D01*
X245305498Y-117790820D01*
X245269188Y-117910518D01*
X245256928Y-118035000D01*
X244423072Y-118035000D01*
X244410812Y-117910518D01*
X244374502Y-117790820D01*
X244315537Y-117680506D01*
X244236185Y-117583815D01*
X244139494Y-117504463D01*
X244029180Y-117445498D01*
X243909482Y-117409188D01*
X243785000Y-117396928D01*
X242085000Y-117396928D01*
X241960518Y-117409188D01*
X241840820Y-117445498D01*
X241730506Y-117504463D01*
X241633815Y-117583815D01*
X241554463Y-117680506D01*
X241495498Y-117790820D01*
X241459188Y-117910518D01*
X241446928Y-118035000D01*
X232861624Y-118035000D01*
X232777502Y-117932498D01*
X232589449Y-117778167D01*
X232374901Y-117663489D01*
X232142102Y-117592870D01*
X231960665Y-117575000D01*
X231039335Y-117575000D01*
X230857898Y-117592870D01*
X230625099Y-117663489D01*
X230410551Y-117778167D01*
X230222498Y-117932498D01*
X230068167Y-118120551D01*
X229953489Y-118335099D01*
X229882870Y-118567898D01*
X229859025Y-118810000D01*
X223135000Y-118810000D01*
X223135000Y-116270000D01*
X229859025Y-116270000D01*
X229882870Y-116512102D01*
X229953489Y-116744901D01*
X230068167Y-116959449D01*
X230222498Y-117147502D01*
X230410551Y-117301833D01*
X230625099Y-117416511D01*
X230857898Y-117487130D01*
X231039335Y-117505000D01*
X231960665Y-117505000D01*
X232142102Y-117487130D01*
X232374901Y-117416511D01*
X232589449Y-117301833D01*
X232777502Y-117147502D01*
X232931833Y-116959449D01*
X233046511Y-116744901D01*
X233117130Y-116512102D01*
X233140975Y-116270000D01*
X233117130Y-116027898D01*
X233046511Y-115795099D01*
X232931833Y-115580551D01*
X232777502Y-115392498D01*
X232589449Y-115238167D01*
X232374901Y-115123489D01*
X232142102Y-115052870D01*
X231960665Y-115035000D01*
X231039335Y-115035000D01*
X230857898Y-115052870D01*
X230625099Y-115123489D01*
X230410551Y-115238167D01*
X230222498Y-115392498D01*
X230068167Y-115580551D01*
X229953489Y-115795099D01*
X229882870Y-116027898D01*
X229859025Y-116270000D01*
X223135000Y-116270000D01*
X223135000Y-114047609D01*
X229906538Y-114047609D01*
X229910409Y-114085282D01*
X230002579Y-114310533D01*
X230136922Y-114513474D01*
X230308275Y-114686307D01*
X230510054Y-114822390D01*
X230734504Y-114916493D01*
X230973000Y-114965000D01*
X231373000Y-114965000D01*
X231373000Y-113857000D01*
X231627000Y-113857000D01*
X231627000Y-114965000D01*
X232027000Y-114965000D01*
X232265496Y-114916493D01*
X232489946Y-114822390D01*
X232691725Y-114686307D01*
X232863078Y-114513474D01*
X232997421Y-114310533D01*
X233089591Y-114085282D01*
X233093462Y-114047609D01*
X232968731Y-113857000D01*
X231627000Y-113857000D01*
X231373000Y-113857000D01*
X230031269Y-113857000D01*
X229906538Y-114047609D01*
X223135000Y-114047609D01*
X223135000Y-113412391D01*
X229906538Y-113412391D01*
X230031269Y-113603000D01*
X231373000Y-113603000D01*
X231373000Y-112495000D01*
X231627000Y-112495000D01*
X231627000Y-113603000D01*
X232968731Y-113603000D01*
X233093462Y-113412391D01*
X233089591Y-113374718D01*
X232997421Y-113149467D01*
X232863078Y-112946526D01*
X232691725Y-112773693D01*
X232489946Y-112637610D01*
X232265496Y-112543507D01*
X232027000Y-112495000D01*
X231627000Y-112495000D01*
X231373000Y-112495000D01*
X230973000Y-112495000D01*
X230734504Y-112543507D01*
X230510054Y-112637610D01*
X230308275Y-112773693D01*
X230136922Y-112946526D01*
X230002579Y-113149467D01*
X229910409Y-113374718D01*
X229906538Y-113412391D01*
X223135000Y-113412391D01*
X223135000Y-112786578D01*
X229493969Y-106427609D01*
X229906538Y-106427609D01*
X229910409Y-106465282D01*
X230002579Y-106690533D01*
X230136922Y-106893474D01*
X230308275Y-107066307D01*
X230510054Y-107202390D01*
X230734504Y-107296493D01*
X230973000Y-107345000D01*
X231373000Y-107345000D01*
X231373000Y-106237000D01*
X231627000Y-106237000D01*
X231627000Y-107345000D01*
X232027000Y-107345000D01*
X232265496Y-107296493D01*
X232489946Y-107202390D01*
X232691725Y-107066307D01*
X232863078Y-106893474D01*
X232997421Y-106690533D01*
X233089591Y-106465282D01*
X233093462Y-106427609D01*
X232968731Y-106237000D01*
X231627000Y-106237000D01*
X231373000Y-106237000D01*
X230031269Y-106237000D01*
X229906538Y-106427609D01*
X229493969Y-106427609D01*
X229994606Y-105926973D01*
X230031269Y-105983000D01*
X231373000Y-105983000D01*
X231373000Y-104875000D01*
X231627000Y-104875000D01*
X231627000Y-105983000D01*
X232968731Y-105983000D01*
X233093462Y-105792391D01*
X233089591Y-105754718D01*
X232997421Y-105529467D01*
X232863078Y-105326526D01*
X232691725Y-105153693D01*
X232489946Y-105017610D01*
X232265496Y-104923507D01*
X232027000Y-104875000D01*
X231627000Y-104875000D01*
X231373000Y-104875000D01*
X231046579Y-104875000D01*
X231116579Y-104805000D01*
X231960665Y-104805000D01*
X232142102Y-104787130D01*
X232374901Y-104716511D01*
X232589449Y-104601833D01*
X232768366Y-104455000D01*
X235672514Y-104455000D01*
X235620147Y-104581426D01*
X235565000Y-104858665D01*
X235565000Y-105141335D01*
X235620147Y-105418574D01*
X235728320Y-105679727D01*
X235885363Y-105914759D01*
X236085241Y-106114637D01*
X236320273Y-106271680D01*
X236581426Y-106379853D01*
X236858665Y-106435000D01*
X237141335Y-106435000D01*
X237418574Y-106379853D01*
X237679727Y-106271680D01*
X237914759Y-106114637D01*
X238114637Y-105914759D01*
X238271680Y-105679727D01*
X238379853Y-105418574D01*
X238435000Y-105141335D01*
X238435000Y-104858665D01*
X238379853Y-104581426D01*
X238327486Y-104455000D01*
X240672514Y-104455000D01*
X240620147Y-104581426D01*
X240565000Y-104858665D01*
X240565000Y-105141335D01*
X240620147Y-105418574D01*
X240728320Y-105679727D01*
X240885363Y-105914759D01*
X241085241Y-106114637D01*
X241320273Y-106271680D01*
X241581426Y-106379853D01*
X241858665Y-106435000D01*
X242141335Y-106435000D01*
X242418574Y-106379853D01*
X242679727Y-106271680D01*
X242914759Y-106114637D01*
X243114637Y-105914759D01*
X243271680Y-105679727D01*
X243379853Y-105418574D01*
X243435000Y-105141335D01*
X243435000Y-104858665D01*
X243379853Y-104581426D01*
X243327486Y-104455000D01*
X246388422Y-104455000D01*
X249029461Y-107096040D01*
X249015000Y-107168740D01*
X249015000Y-107461260D01*
X249072068Y-107748158D01*
X249184010Y-108018411D01*
X249346525Y-108261632D01*
X249553368Y-108468475D01*
X249727760Y-108585000D01*
X249553368Y-108701525D01*
X249346525Y-108908368D01*
X249205117Y-109120000D01*
X244801094Y-109120000D01*
X244764999Y-109116445D01*
X244728904Y-109120000D01*
X244728895Y-109120000D01*
X244620915Y-109130635D01*
X244482367Y-109172663D01*
X244354680Y-109240913D01*
X244242762Y-109332762D01*
X244219746Y-109360807D01*
X242353376Y-111227178D01*
X242141335Y-111185000D01*
X241858665Y-111185000D01*
X241646625Y-111227178D01*
X238575259Y-108155813D01*
X238552238Y-108127762D01*
X238440320Y-108035913D01*
X238312633Y-107967663D01*
X238174085Y-107925635D01*
X238066105Y-107915000D01*
X238030000Y-107911444D01*
X237993895Y-107915000D01*
X232894450Y-107915000D01*
X232777502Y-107772498D01*
X232589449Y-107618167D01*
X232374901Y-107503489D01*
X232142102Y-107432870D01*
X231960665Y-107415000D01*
X231039335Y-107415000D01*
X230857898Y-107432870D01*
X230625099Y-107503489D01*
X230410551Y-107618167D01*
X230222498Y-107772498D01*
X230068167Y-107960551D01*
X229953489Y-108175099D01*
X229882870Y-108407898D01*
X229859025Y-108650000D01*
X229882870Y-108892102D01*
X229953489Y-109124901D01*
X230068167Y-109339449D01*
X230222498Y-109527502D01*
X230410551Y-109681833D01*
X230625099Y-109796511D01*
X230857898Y-109867130D01*
X231039335Y-109885000D01*
X231960665Y-109885000D01*
X232142102Y-109867130D01*
X232374901Y-109796511D01*
X232589449Y-109681833D01*
X232777502Y-109527502D01*
X232894450Y-109385000D01*
X237725554Y-109385000D01*
X240607178Y-112266625D01*
X240565000Y-112478665D01*
X240565000Y-112761335D01*
X240609491Y-112985001D01*
X238404447Y-112985001D01*
X238392822Y-112973376D01*
X238435000Y-112761335D01*
X238435000Y-112478665D01*
X238379853Y-112201426D01*
X238271680Y-111940273D01*
X238114637Y-111705241D01*
X237914759Y-111505363D01*
X237679727Y-111348320D01*
X237418574Y-111240147D01*
X237141335Y-111185000D01*
X236858665Y-111185000D01*
X236646624Y-111227178D01*
X236115258Y-110695812D01*
X236092238Y-110667762D01*
X235980320Y-110575913D01*
X235852633Y-110507663D01*
X235714085Y-110465635D01*
X235606105Y-110455000D01*
X235570000Y-110451444D01*
X235533895Y-110455000D01*
X232894450Y-110455000D01*
X232777502Y-110312498D01*
X232589449Y-110158167D01*
X232374901Y-110043489D01*
X232142102Y-109972870D01*
X231960665Y-109955000D01*
X231039335Y-109955000D01*
X230857898Y-109972870D01*
X230625099Y-110043489D01*
X230410551Y-110158167D01*
X230222498Y-110312498D01*
X230068167Y-110500551D01*
X229953489Y-110715099D01*
X229882870Y-110947898D01*
X229859025Y-111190000D01*
X229882870Y-111432102D01*
X229953489Y-111664901D01*
X230068167Y-111879449D01*
X230222498Y-112067502D01*
X230410551Y-112221833D01*
X230625099Y-112336511D01*
X230857898Y-112407130D01*
X231039335Y-112425000D01*
X231960665Y-112425000D01*
X232142102Y-112407130D01*
X232374901Y-112336511D01*
X232589449Y-112221833D01*
X232777502Y-112067502D01*
X232894450Y-111925000D01*
X235265554Y-111925000D01*
X235607178Y-112266624D01*
X235565000Y-112478665D01*
X235565000Y-112761335D01*
X235620147Y-113038574D01*
X235728320Y-113299727D01*
X235885363Y-113534759D01*
X236085241Y-113734637D01*
X236320273Y-113891680D01*
X236581426Y-113999853D01*
X236858665Y-114055000D01*
X237141335Y-114055000D01*
X237353376Y-114012822D01*
X237554742Y-114214188D01*
X237577763Y-114242239D01*
X237689681Y-114334088D01*
X237817368Y-114402338D01*
X237955916Y-114444366D01*
X238100001Y-114458557D01*
X238136106Y-114455001D01*
X249138894Y-114455001D01*
X249174999Y-114458557D01*
X249211104Y-114455001D01*
X249319084Y-114444366D01*
X249457632Y-114402338D01*
X249585319Y-114334088D01*
X249697237Y-114242239D01*
X249720257Y-114214189D01*
X250104103Y-113830344D01*
X250353740Y-113880000D01*
X250646260Y-113880000D01*
X250933158Y-113822932D01*
X251203411Y-113710990D01*
X251446632Y-113548475D01*
X251653475Y-113341632D01*
X251794883Y-113130000D01*
X253045117Y-113130000D01*
X253186525Y-113341632D01*
X253393368Y-113548475D01*
X253636589Y-113710990D01*
X253906842Y-113822932D01*
X254193740Y-113880000D01*
X254486260Y-113880000D01*
X254773158Y-113822932D01*
X254780001Y-113820097D01*
X254780002Y-117396928D01*
X253515000Y-117396928D01*
X253390518Y-117409188D01*
X253270820Y-117445498D01*
X253160506Y-117504463D01*
X253063815Y-117583815D01*
X252984463Y-117680506D01*
X252925498Y-117790820D01*
X252889188Y-117910518D01*
X252876928Y-118035000D01*
X252876928Y-119735000D01*
X252889188Y-119859482D01*
X252925498Y-119979180D01*
X252984463Y-120089494D01*
X253063815Y-120186185D01*
X253160506Y-120265537D01*
X253270820Y-120324502D01*
X253351466Y-120348966D01*
X253267412Y-120424731D01*
X253093359Y-120658080D01*
X252968175Y-120920901D01*
X252923524Y-121068110D01*
X253044845Y-121298000D01*
X254238000Y-121298000D01*
X254238000Y-121278000D01*
X254492000Y-121278000D01*
X254492000Y-121298000D01*
X254512000Y-121298000D01*
X254512000Y-121552000D01*
X254492000Y-121552000D01*
X254492000Y-121572000D01*
X254238000Y-121572000D01*
X254238000Y-121552000D01*
X253044845Y-121552000D01*
X252923524Y-121781890D01*
X252968175Y-121929099D01*
X253093359Y-122191920D01*
X253267412Y-122425269D01*
X253483645Y-122620178D01*
X253600534Y-122689805D01*
X253418368Y-122811525D01*
X253211525Y-123018368D01*
X253170344Y-123080000D01*
X251749656Y-123080000D01*
X251708475Y-123018368D01*
X251501632Y-122811525D01*
X251319466Y-122689805D01*
X251436355Y-122620178D01*
X251652588Y-122425269D01*
X251826641Y-122191920D01*
X251951825Y-121929099D01*
X251996476Y-121781890D01*
X251875155Y-121552000D01*
X250682000Y-121552000D01*
X250682000Y-121572000D01*
X250428000Y-121572000D01*
X250428000Y-121552000D01*
X249234845Y-121552000D01*
X249113524Y-121781890D01*
X249158175Y-121929099D01*
X249283359Y-122191920D01*
X249457412Y-122425269D01*
X249673645Y-122620178D01*
X249790534Y-122689805D01*
X249608368Y-122811525D01*
X249401525Y-123018368D01*
X249360344Y-123080000D01*
X247939656Y-123080000D01*
X247898475Y-123018368D01*
X247691632Y-122811525D01*
X247509466Y-122689805D01*
X247626355Y-122620178D01*
X247842588Y-122425269D01*
X248016641Y-122191920D01*
X248141825Y-121929099D01*
X248186476Y-121781890D01*
X248065155Y-121552000D01*
X246872000Y-121552000D01*
X246872000Y-121572000D01*
X246618000Y-121572000D01*
X246618000Y-121552000D01*
X245424845Y-121552000D01*
X245303524Y-121781890D01*
X245348175Y-121929099D01*
X245473359Y-122191920D01*
X245647412Y-122425269D01*
X245863645Y-122620178D01*
X245980534Y-122689805D01*
X245798368Y-122811525D01*
X245591525Y-123018368D01*
X245550344Y-123080000D01*
X244129656Y-123080000D01*
X244088475Y-123018368D01*
X243881632Y-122811525D01*
X243699466Y-122689805D01*
X243816355Y-122620178D01*
X244032588Y-122425269D01*
X244206641Y-122191920D01*
X244331825Y-121929099D01*
X244376476Y-121781890D01*
X244255155Y-121552000D01*
X243062000Y-121552000D01*
X243062000Y-121572000D01*
X242808000Y-121572000D01*
X242808000Y-121552000D01*
X241614845Y-121552000D01*
X241493524Y-121781890D01*
X241538175Y-121929099D01*
X241663359Y-122191920D01*
X241837412Y-122425269D01*
X242053645Y-122620178D01*
X242170534Y-122689805D01*
X241988368Y-122811525D01*
X241781525Y-123018368D01*
X241619010Y-123261589D01*
X241507068Y-123531842D01*
X241450000Y-123818740D01*
X241450000Y-124111260D01*
X241507068Y-124398158D01*
X241619010Y-124668411D01*
X241781525Y-124911632D01*
X241988368Y-125118475D01*
X242231589Y-125280990D01*
X242501842Y-125392932D01*
X242788740Y-125450000D01*
X243081260Y-125450000D01*
X243368158Y-125392932D01*
X243638411Y-125280990D01*
X243881632Y-125118475D01*
X244088475Y-124911632D01*
X244129656Y-124850000D01*
X245550344Y-124850000D01*
X245591525Y-124911632D01*
X245798368Y-125118475D01*
X246041589Y-125280990D01*
X246311842Y-125392932D01*
X246598740Y-125450000D01*
X246891260Y-125450000D01*
X247178158Y-125392932D01*
X247448411Y-125280990D01*
X247691632Y-125118475D01*
X247898475Y-124911632D01*
X247939656Y-124850000D01*
X249360344Y-124850000D01*
X249401525Y-124911632D01*
X249608368Y-125118475D01*
X249851589Y-125280990D01*
X250121842Y-125392932D01*
X250408740Y-125450000D01*
X250701260Y-125450000D01*
X250988158Y-125392932D01*
X251258411Y-125280990D01*
X251501632Y-125118475D01*
X251708475Y-124911632D01*
X251749656Y-124850000D01*
X253170344Y-124850000D01*
X253211525Y-124911632D01*
X253418368Y-125118475D01*
X253661589Y-125280990D01*
X253931842Y-125392932D01*
X254218740Y-125450000D01*
X254511260Y-125450000D01*
X254798158Y-125392932D01*
X255068411Y-125280990D01*
X255311632Y-125118475D01*
X255518475Y-124911632D01*
X255680990Y-124668411D01*
X255792932Y-124398158D01*
X255850000Y-124111260D01*
X255850000Y-123818740D01*
X255835539Y-123746040D01*
X255871531Y-123710048D01*
X255871536Y-123710042D01*
X256260045Y-123321533D01*
X256293818Y-123293816D01*
X256404412Y-123159058D01*
X256486590Y-123005312D01*
X256537196Y-122838489D01*
X256550001Y-122708476D01*
X256550001Y-122708468D01*
X256554282Y-122664999D01*
X256550001Y-122621530D01*
X256550001Y-108683466D01*
X256554282Y-108640000D01*
X256550001Y-108596534D01*
X256550001Y-108596524D01*
X256537196Y-108466511D01*
X256486590Y-108299688D01*
X256404412Y-108145942D01*
X256293818Y-108011184D01*
X256260051Y-107983472D01*
X255810539Y-107533960D01*
X255825000Y-107461260D01*
X255825000Y-107168740D01*
X255767932Y-106881842D01*
X255655990Y-106611589D01*
X255493475Y-106368368D01*
X255361620Y-106236513D01*
X255434180Y-106214502D01*
X255544494Y-106155537D01*
X255641185Y-106076185D01*
X255720537Y-105979494D01*
X255779502Y-105869180D01*
X255815812Y-105749482D01*
X255828072Y-105625000D01*
X255825000Y-105060750D01*
X255666250Y-104902000D01*
X254467000Y-104902000D01*
X254467000Y-104922000D01*
X254213000Y-104922000D01*
X254213000Y-104902000D01*
X253013750Y-104902000D01*
X252855000Y-105060750D01*
X252851928Y-105625000D01*
X252864188Y-105749482D01*
X252900498Y-105869180D01*
X252959463Y-105979494D01*
X253038815Y-106076185D01*
X253135506Y-106155537D01*
X253245820Y-106214502D01*
X253318380Y-106236513D01*
X253186525Y-106368368D01*
X253145344Y-106430000D01*
X251694656Y-106430000D01*
X251653475Y-106368368D01*
X251521620Y-106236513D01*
X251594180Y-106214502D01*
X251704494Y-106155537D01*
X251801185Y-106076185D01*
X251880537Y-105979494D01*
X251939502Y-105869180D01*
X251975812Y-105749482D01*
X251988072Y-105625000D01*
X251985000Y-105060750D01*
X251826250Y-104902000D01*
X250627000Y-104902000D01*
X250627000Y-104922000D01*
X250373000Y-104922000D01*
X250373000Y-104902000D01*
X250353000Y-104902000D01*
X250353000Y-104648000D01*
X250373000Y-104648000D01*
X250373000Y-103448750D01*
X250627000Y-103448750D01*
X250627000Y-104648000D01*
X251826250Y-104648000D01*
X251985000Y-104489250D01*
X251988072Y-103925000D01*
X252851928Y-103925000D01*
X252855000Y-104489250D01*
X253013750Y-104648000D01*
X254213000Y-104648000D01*
X254213000Y-103448750D01*
X254467000Y-103448750D01*
X254467000Y-104648000D01*
X255666250Y-104648000D01*
X255825000Y-104489250D01*
X255828072Y-103925000D01*
X255815812Y-103800518D01*
X255779502Y-103680820D01*
X255720537Y-103570506D01*
X255641185Y-103473815D01*
X255544494Y-103394463D01*
X255434180Y-103335498D01*
X255314482Y-103299188D01*
X255190000Y-103286928D01*
X254625750Y-103290000D01*
X254467000Y-103448750D01*
X254213000Y-103448750D01*
X254054250Y-103290000D01*
X253490000Y-103286928D01*
X253365518Y-103299188D01*
X253245820Y-103335498D01*
X253135506Y-103394463D01*
X253038815Y-103473815D01*
X252959463Y-103570506D01*
X252900498Y-103680820D01*
X252864188Y-103800518D01*
X252851928Y-103925000D01*
X251988072Y-103925000D01*
X251975812Y-103800518D01*
X251939502Y-103680820D01*
X251880537Y-103570506D01*
X251801185Y-103473815D01*
X251704494Y-103394463D01*
X251594180Y-103335498D01*
X251474482Y-103299188D01*
X251350000Y-103286928D01*
X250785750Y-103290000D01*
X250627000Y-103448750D01*
X250373000Y-103448750D01*
X250214250Y-103290000D01*
X249650000Y-103286928D01*
X249525518Y-103299188D01*
X249405820Y-103335498D01*
X249295506Y-103394463D01*
X249198815Y-103473815D01*
X249119463Y-103570506D01*
X249060498Y-103680820D01*
X249024188Y-103800518D01*
X249011928Y-103925000D01*
X249015000Y-104489250D01*
X249173748Y-104647998D01*
X249084577Y-104647998D01*
X247411534Y-102974956D01*
X247383817Y-102941183D01*
X247249059Y-102830589D01*
X247095313Y-102748411D01*
X246928490Y-102697805D01*
X246798477Y-102685000D01*
X246798469Y-102685000D01*
X246755000Y-102680719D01*
X246711531Y-102685000D01*
X232768366Y-102685000D01*
X232589449Y-102538167D01*
X232374901Y-102423489D01*
X232142102Y-102352870D01*
X231960665Y-102335000D01*
X231039335Y-102335000D01*
X230857898Y-102352870D01*
X230625099Y-102423489D01*
X230410551Y-102538167D01*
X230222498Y-102692498D01*
X230068167Y-102880551D01*
X229953489Y-103095099D01*
X229882870Y-103327898D01*
X229860183Y-103558238D01*
X221985001Y-111433421D01*
X221985001Y-109054445D01*
X222454447Y-108585000D01*
X222606863Y-108585000D01*
X222816483Y-108543304D01*
X223013940Y-108461515D01*
X223191647Y-108342775D01*
X223342775Y-108191647D01*
X223461515Y-108013940D01*
X223543304Y-107816483D01*
X223585000Y-107606863D01*
X223585000Y-107393137D01*
X223543304Y-107183517D01*
X223461515Y-106986060D01*
X223342775Y-106808353D01*
X223191647Y-106657225D01*
X223013940Y-106538485D01*
X222816483Y-106456696D01*
X222606863Y-106415000D01*
X222393137Y-106415000D01*
X222183517Y-106456696D01*
X221986060Y-106538485D01*
X221808353Y-106657225D01*
X221750000Y-106715578D01*
X221691647Y-106657225D01*
X221513940Y-106538485D01*
X221316483Y-106456696D01*
X221106863Y-106415000D01*
X220893137Y-106415000D01*
X220683517Y-106456696D01*
X220486060Y-106538485D01*
X220308353Y-106657225D01*
X220250000Y-106715578D01*
X220191647Y-106657225D01*
X220013940Y-106538485D01*
X219816483Y-106456696D01*
X219606863Y-106415000D01*
X219393137Y-106415000D01*
X219183517Y-106456696D01*
X218986060Y-106538485D01*
X218808353Y-106657225D01*
X218750000Y-106715578D01*
X218691647Y-106657225D01*
X218513940Y-106538485D01*
X218316483Y-106456696D01*
X218106863Y-106415000D01*
X217893137Y-106415000D01*
X217683517Y-106456696D01*
X217486060Y-106538485D01*
X217335001Y-106639419D01*
X217335001Y-106404447D01*
X218004449Y-105735000D01*
X224463895Y-105735000D01*
X224500000Y-105738556D01*
X224536105Y-105735000D01*
X224644085Y-105724365D01*
X224782633Y-105682337D01*
X224910320Y-105614087D01*
X225022238Y-105522238D01*
X225045259Y-105494187D01*
X230334198Y-100205248D01*
X230362238Y-100182237D01*
X230385251Y-100154196D01*
X230385254Y-100154193D01*
X230413315Y-100120000D01*
X230454088Y-100070319D01*
X230466995Y-100046171D01*
X230526589Y-100085990D01*
X230796842Y-100197932D01*
X231083740Y-100255000D01*
X231376260Y-100255000D01*
X231663158Y-100197932D01*
X231933411Y-100085990D01*
X232176632Y-99923475D01*
X232383475Y-99716632D01*
X232500000Y-99542240D01*
X232616525Y-99716632D01*
X232823368Y-99923475D01*
X233066589Y-100085990D01*
X233336842Y-100197932D01*
X233623740Y-100255000D01*
X233916260Y-100255000D01*
X234203158Y-100197932D01*
X234473411Y-100085990D01*
X234716632Y-99923475D01*
X234923475Y-99716632D01*
X235040000Y-99542240D01*
X235156525Y-99716632D01*
X235363368Y-99923475D01*
X235606589Y-100085990D01*
X235876842Y-100197932D01*
X236163740Y-100255000D01*
X236456260Y-100255000D01*
X236743158Y-100197932D01*
X237013411Y-100085990D01*
X237256632Y-99923475D01*
X237463475Y-99716632D01*
X237585195Y-99534466D01*
X237654822Y-99651355D01*
X237849731Y-99867588D01*
X238083080Y-100041641D01*
X238345901Y-100166825D01*
X238493110Y-100211476D01*
X238723000Y-100090155D01*
X238723000Y-98897000D01*
X238703000Y-98897000D01*
X238703000Y-98643000D01*
X238723000Y-98643000D01*
X238723000Y-98623000D01*
X238977000Y-98623000D01*
X238977000Y-98643000D01*
X238997000Y-98643000D01*
X238997000Y-98897000D01*
X238977000Y-98897000D01*
X238977000Y-100090155D01*
X239206890Y-100211476D01*
X239354099Y-100166825D01*
X239616920Y-100041641D01*
X239850269Y-99867588D01*
X240045178Y-99651355D01*
X240114805Y-99534466D01*
X240236525Y-99716632D01*
X240443368Y-99923475D01*
X240686589Y-100085990D01*
X240956842Y-100197932D01*
X241243740Y-100255000D01*
X241536260Y-100255000D01*
X241823158Y-100197932D01*
X242093411Y-100085990D01*
X242336632Y-99923475D01*
X242543475Y-99716632D01*
X242660000Y-99542240D01*
X242776525Y-99716632D01*
X242983368Y-99923475D01*
X243226589Y-100085990D01*
X243496842Y-100197932D01*
X243783740Y-100255000D01*
X244076260Y-100255000D01*
X244363158Y-100197932D01*
X244633411Y-100085990D01*
X244876632Y-99923475D01*
X245083475Y-99716632D01*
X245200000Y-99542240D01*
X245316525Y-99716632D01*
X245523368Y-99923475D01*
X245766589Y-100085990D01*
X246036842Y-100197932D01*
X246323740Y-100255000D01*
X246616260Y-100255000D01*
X246903158Y-100197932D01*
X247173411Y-100085990D01*
X247416632Y-99923475D01*
X247623475Y-99716632D01*
X247740000Y-99542240D01*
X247856525Y-99716632D01*
X248063368Y-99923475D01*
X248306589Y-100085990D01*
X248576842Y-100197932D01*
X248863740Y-100255000D01*
X249156260Y-100255000D01*
X249443158Y-100197932D01*
X249713411Y-100085990D01*
X249956632Y-99923475D01*
X250163475Y-99716632D01*
X250280000Y-99542240D01*
X250396525Y-99716632D01*
X250603368Y-99923475D01*
X250846589Y-100085990D01*
X251116842Y-100197932D01*
X251403740Y-100255000D01*
X251696260Y-100255000D01*
X251983158Y-100197932D01*
X252253411Y-100085990D01*
X252496632Y-99923475D01*
X252703475Y-99716632D01*
X252820000Y-99542240D01*
X252936525Y-99716632D01*
X253143368Y-99923475D01*
X253386589Y-100085990D01*
X253656842Y-100197932D01*
X253943740Y-100255000D01*
X254236260Y-100255000D01*
X254523158Y-100197932D01*
X254793411Y-100085990D01*
X255036632Y-99923475D01*
X255243475Y-99716632D01*
X255365195Y-99534466D01*
X255434822Y-99651355D01*
X255629731Y-99867588D01*
X255863080Y-100041641D01*
X256125901Y-100166825D01*
X256273110Y-100211476D01*
X256503000Y-100090155D01*
X256503000Y-98897000D01*
X256757000Y-98897000D01*
X256757000Y-100090155D01*
X256986890Y-100211476D01*
X257134099Y-100166825D01*
X257396920Y-100041641D01*
X257630269Y-99867588D01*
X257825178Y-99651355D01*
X257974157Y-99401252D01*
X258071481Y-99126891D01*
X257950814Y-98897000D01*
X256757000Y-98897000D01*
X256503000Y-98897000D01*
X256483000Y-98897000D01*
X256483000Y-98643000D01*
X256503000Y-98643000D01*
X256503000Y-98623000D01*
X256757000Y-98623000D01*
X256757000Y-98643000D01*
X257950814Y-98643000D01*
X258071481Y-98413109D01*
X257974157Y-98138748D01*
X257825178Y-97888645D01*
X257630269Y-97672412D01*
X257400594Y-97501100D01*
X257576632Y-97383475D01*
X257655612Y-97304495D01*
X259515000Y-97304495D01*
X259515000Y-97695505D01*
X259591282Y-98079003D01*
X259740915Y-98440250D01*
X259958149Y-98765364D01*
X260234636Y-99041851D01*
X260559750Y-99259085D01*
X260920997Y-99408718D01*
X261304495Y-99485000D01*
X261695505Y-99485000D01*
X262079003Y-99408718D01*
X262440250Y-99259085D01*
X262765364Y-99041851D01*
X263041851Y-98765364D01*
X263259085Y-98440250D01*
X263408718Y-98079003D01*
X263485000Y-97695505D01*
X263485000Y-97304495D01*
X263408718Y-96920997D01*
X263259085Y-96559750D01*
X263041851Y-96234636D01*
X262765364Y-95958149D01*
X262440250Y-95740915D01*
X262079003Y-95591282D01*
X261695505Y-95515000D01*
X261304495Y-95515000D01*
X260920997Y-95591282D01*
X260559750Y-95740915D01*
X260234636Y-95958149D01*
X259958149Y-96234636D01*
X259740915Y-96559750D01*
X259591282Y-96920997D01*
X259515000Y-97304495D01*
X257655612Y-97304495D01*
X257783475Y-97176632D01*
X257945990Y-96933411D01*
X258057932Y-96663158D01*
X258115000Y-96376260D01*
X258115000Y-96083740D01*
X258057932Y-95796842D01*
X257945990Y-95526589D01*
X257783475Y-95283368D01*
X257576632Y-95076525D01*
X257333411Y-94914010D01*
X257063158Y-94802068D01*
X256776260Y-94745000D01*
X256483740Y-94745000D01*
X256196842Y-94802068D01*
X255926589Y-94914010D01*
X255683368Y-95076525D01*
X255476525Y-95283368D01*
X255360000Y-95457760D01*
X255243475Y-95283368D01*
X255036632Y-95076525D01*
X254793411Y-94914010D01*
X254523158Y-94802068D01*
X254236260Y-94745000D01*
X253943740Y-94745000D01*
X253656842Y-94802068D01*
X253386589Y-94914010D01*
X253143368Y-95076525D01*
X252936525Y-95283368D01*
X252820000Y-95457760D01*
X252703475Y-95283368D01*
X252496632Y-95076525D01*
X252253411Y-94914010D01*
X251983158Y-94802068D01*
X251696260Y-94745000D01*
X251403740Y-94745000D01*
X251116842Y-94802068D01*
X250846589Y-94914010D01*
X250603368Y-95076525D01*
X250396525Y-95283368D01*
X250274805Y-95465534D01*
X250205178Y-95348645D01*
X250010269Y-95132412D01*
X249776920Y-94958359D01*
X249514099Y-94833175D01*
X249366890Y-94788524D01*
X249137000Y-94909845D01*
X249137000Y-96103000D01*
X249157000Y-96103000D01*
X249157000Y-96357000D01*
X249137000Y-96357000D01*
X249137000Y-96377000D01*
X248883000Y-96377000D01*
X248883000Y-96357000D01*
X248863000Y-96357000D01*
X248863000Y-96103000D01*
X248883000Y-96103000D01*
X248883000Y-94909845D01*
X248653110Y-94788524D01*
X248505901Y-94833175D01*
X248243080Y-94958359D01*
X248009731Y-95132412D01*
X247814822Y-95348645D01*
X247745195Y-95465534D01*
X247623475Y-95283368D01*
X247416632Y-95076525D01*
X247173411Y-94914010D01*
X246903158Y-94802068D01*
X246616260Y-94745000D01*
X246323740Y-94745000D01*
X246036842Y-94802068D01*
X245766589Y-94914010D01*
X245523368Y-95076525D01*
X245316525Y-95283368D01*
X245194805Y-95465534D01*
X245125178Y-95348645D01*
X244930269Y-95132412D01*
X244696920Y-94958359D01*
X244434099Y-94833175D01*
X244286890Y-94788524D01*
X244057000Y-94909845D01*
X244057000Y-96103000D01*
X244077000Y-96103000D01*
X244077000Y-96357000D01*
X244057000Y-96357000D01*
X244057000Y-96377000D01*
X243803000Y-96377000D01*
X243803000Y-96357000D01*
X243783000Y-96357000D01*
X243783000Y-96103000D01*
X243803000Y-96103000D01*
X243803000Y-94909845D01*
X243573110Y-94788524D01*
X243425901Y-94833175D01*
X243163080Y-94958359D01*
X242929731Y-95132412D01*
X242734822Y-95348645D01*
X242665195Y-95465534D01*
X242543475Y-95283368D01*
X242336632Y-95076525D01*
X242093411Y-94914010D01*
X241823158Y-94802068D01*
X241536260Y-94745000D01*
X241243740Y-94745000D01*
X240956842Y-94802068D01*
X240686589Y-94914010D01*
X240443368Y-95076525D01*
X240236525Y-95283368D01*
X240120000Y-95457760D01*
X240003475Y-95283368D01*
X239796632Y-95076525D01*
X239553411Y-94914010D01*
X239283158Y-94802068D01*
X238996260Y-94745000D01*
X238703740Y-94745000D01*
X238416842Y-94802068D01*
X238146589Y-94914010D01*
X237903368Y-95076525D01*
X237696525Y-95283368D01*
X237580000Y-95457760D01*
X237463475Y-95283368D01*
X237256632Y-95076525D01*
X237013411Y-94914010D01*
X236743158Y-94802068D01*
X236456260Y-94745000D01*
X236163740Y-94745000D01*
X235876842Y-94802068D01*
X235606589Y-94914010D01*
X235363368Y-95076525D01*
X235156525Y-95283368D01*
X235040000Y-95457760D01*
X234923475Y-95283368D01*
X234716632Y-95076525D01*
X234473411Y-94914010D01*
X234203158Y-94802068D01*
X233916260Y-94745000D01*
X233623740Y-94745000D01*
X233336842Y-94802068D01*
X233066589Y-94914010D01*
X232823368Y-95076525D01*
X232616525Y-95283368D01*
X232494805Y-95465534D01*
X232425178Y-95348645D01*
X232230269Y-95132412D01*
X231996920Y-94958359D01*
X231734099Y-94833175D01*
X231586890Y-94788524D01*
X231357000Y-94909845D01*
X231357000Y-96103000D01*
X231377000Y-96103000D01*
X231377000Y-96357000D01*
X231357000Y-96357000D01*
X231357000Y-96377000D01*
X231103000Y-96377000D01*
X231103000Y-96357000D01*
X231083000Y-96357000D01*
X231083000Y-96103000D01*
X231103000Y-96103000D01*
X231103000Y-94909845D01*
X230873110Y-94788524D01*
X230725901Y-94833175D01*
X230463080Y-94958359D01*
X230229731Y-95132412D01*
X230034822Y-95348645D01*
X229965195Y-95465534D01*
X229843475Y-95283368D01*
X229636632Y-95076525D01*
X229393411Y-94914010D01*
X229123158Y-94802068D01*
X228836260Y-94745000D01*
X228543740Y-94745000D01*
X228256842Y-94802068D01*
X227986589Y-94914010D01*
X227743368Y-95076525D01*
X227536525Y-95283368D01*
X227420000Y-95457760D01*
X227303475Y-95283368D01*
X227096632Y-95076525D01*
X226853411Y-94914010D01*
X226583158Y-94802068D01*
X226296260Y-94745000D01*
X226003740Y-94745000D01*
X225716842Y-94802068D01*
X225446589Y-94914010D01*
X225203368Y-95076525D01*
X224996525Y-95283368D01*
X224874805Y-95465534D01*
X224805178Y-95348645D01*
X224610269Y-95132412D01*
X224376920Y-94958359D01*
X224114099Y-94833175D01*
X223966890Y-94788524D01*
X223737000Y-94909845D01*
X223737000Y-96103000D01*
X223757000Y-96103000D01*
X223757000Y-96357000D01*
X223737000Y-96357000D01*
X223737000Y-96377000D01*
X223483000Y-96377000D01*
X223483000Y-96357000D01*
X223463000Y-96357000D01*
X223463000Y-96103000D01*
X223483000Y-96103000D01*
X223483000Y-94909845D01*
X223253110Y-94788524D01*
X223105901Y-94833175D01*
X222843080Y-94958359D01*
X222609731Y-95132412D01*
X222414822Y-95348645D01*
X222345195Y-95465534D01*
X222223475Y-95283368D01*
X222016632Y-95076525D01*
X221773411Y-94914010D01*
X221503158Y-94802068D01*
X221216260Y-94745000D01*
X220923740Y-94745000D01*
X220636842Y-94802068D01*
X220366589Y-94914010D01*
X220123368Y-95076525D01*
X219916525Y-95283368D01*
X219800000Y-95457760D01*
X219683475Y-95283368D01*
X219476632Y-95076525D01*
X219233411Y-94914010D01*
X218963158Y-94802068D01*
X218676260Y-94745000D01*
X218383740Y-94745000D01*
X218096842Y-94802068D01*
X217826589Y-94914010D01*
X217583368Y-95076525D01*
X217376525Y-95283368D01*
X217260000Y-95457760D01*
X217143475Y-95283368D01*
X216936632Y-95076525D01*
X216693411Y-94914010D01*
X216423158Y-94802068D01*
X216136260Y-94745000D01*
X215843740Y-94745000D01*
X215556842Y-94802068D01*
X215286589Y-94914010D01*
X215043368Y-95076525D01*
X214836525Y-95283368D01*
X214714805Y-95465534D01*
X214645178Y-95348645D01*
X214450269Y-95132412D01*
X214216920Y-94958359D01*
X213954099Y-94833175D01*
X213806890Y-94788524D01*
X213577000Y-94909845D01*
X213577000Y-96103000D01*
X213597000Y-96103000D01*
X213597000Y-96357000D01*
X213577000Y-96357000D01*
X213577000Y-96377000D01*
X213323000Y-96377000D01*
X213323000Y-96357000D01*
X213303000Y-96357000D01*
X213303000Y-96103000D01*
X213323000Y-96103000D01*
X213323000Y-94909845D01*
X213093110Y-94788524D01*
X212945901Y-94833175D01*
X212683080Y-94958359D01*
X212449731Y-95132412D01*
X212254822Y-95348645D01*
X212185195Y-95465534D01*
X212063475Y-95283368D01*
X211856632Y-95076525D01*
X211613411Y-94914010D01*
X211343158Y-94802068D01*
X211056260Y-94745000D01*
X210763740Y-94745000D01*
X210476842Y-94802068D01*
X210206589Y-94914010D01*
X209963368Y-95076525D01*
X209756525Y-95283368D01*
X209715344Y-95345000D01*
X209564656Y-95345000D01*
X209523475Y-95283368D01*
X209316632Y-95076525D01*
X209073411Y-94914010D01*
X208803158Y-94802068D01*
X208516260Y-94745000D01*
X208223740Y-94745000D01*
X207936842Y-94802068D01*
X207666589Y-94914010D01*
X207423368Y-95076525D01*
X207216525Y-95283368D01*
X207054010Y-95526589D01*
X206942068Y-95796842D01*
X206885000Y-96083740D01*
X206885000Y-96376260D01*
X206942068Y-96663158D01*
X207049251Y-96921923D01*
X206997366Y-96937662D01*
X206869679Y-97005912D01*
X206757761Y-97097761D01*
X206734746Y-97125805D01*
X204305808Y-99554744D01*
X204277763Y-99577760D01*
X204185914Y-99689678D01*
X204171507Y-99716632D01*
X204117664Y-99817365D01*
X204075635Y-99955913D01*
X204061444Y-100099998D01*
X204065001Y-100136113D01*
X204065000Y-101980234D01*
X203979484Y-101988657D01*
X203671285Y-102082148D01*
X203387248Y-102233969D01*
X203138286Y-102438286D01*
X202933969Y-102687248D01*
X202782148Y-102971285D01*
X202688657Y-103279484D01*
X202657089Y-103600000D01*
X202688657Y-103920516D01*
X202782148Y-104228715D01*
X202933969Y-104512752D01*
X203075424Y-104685116D01*
X202918574Y-104620147D01*
X202641335Y-104565000D01*
X202358665Y-104565000D01*
X202081426Y-104620147D01*
X201820273Y-104728320D01*
X201585241Y-104885363D01*
X201385363Y-105085241D01*
X201228320Y-105320273D01*
X201120147Y-105581426D01*
X201065000Y-105858665D01*
X201065000Y-106141335D01*
X201120147Y-106418574D01*
X201228320Y-106679727D01*
X201385363Y-106914759D01*
X201435604Y-106965000D01*
X201273000Y-106965000D01*
X200956468Y-107021193D01*
X200685000Y-107127124D01*
X200685000Y-97304495D01*
X201515000Y-97304495D01*
X201515000Y-97695505D01*
X201591282Y-98079003D01*
X201740915Y-98440250D01*
X201958149Y-98765364D01*
X202234636Y-99041851D01*
X202559750Y-99259085D01*
X202920997Y-99408718D01*
X203304495Y-99485000D01*
X203695505Y-99485000D01*
X204079003Y-99408718D01*
X204440250Y-99259085D01*
X204765364Y-99041851D01*
X205041851Y-98765364D01*
X205259085Y-98440250D01*
X205408718Y-98079003D01*
X205485000Y-97695505D01*
X205485000Y-97304495D01*
X205408718Y-96920997D01*
X205259085Y-96559750D01*
X205041851Y-96234636D01*
X204765364Y-95958149D01*
X204440250Y-95740915D01*
X204079003Y-95591282D01*
X203695505Y-95515000D01*
X203304495Y-95515000D01*
X202920997Y-95591282D01*
X202559750Y-95740915D01*
X202234636Y-95958149D01*
X201958149Y-96234636D01*
X201740915Y-96559750D01*
X201591282Y-96920997D01*
X201515000Y-97304495D01*
X200685000Y-97304495D01*
X200685000Y-97033505D01*
X200732312Y-96550984D01*
X200862714Y-96119070D01*
X201074524Y-95720715D01*
X201359675Y-95371086D01*
X201707303Y-95083503D01*
X202104177Y-94868914D01*
X202535161Y-94735502D01*
X203015654Y-94685000D01*
X261966495Y-94685000D01*
X262449016Y-94732312D01*
G36*
X206364999Y-127606530D02*
G01*
X206360718Y-127649999D01*
X206364999Y-127693468D01*
X206364999Y-127693475D01*
X206377804Y-127823488D01*
X206428410Y-127990311D01*
X206510588Y-128144057D01*
X206597583Y-128250060D01*
X206588657Y-128279484D01*
X206557089Y-128600000D01*
X206588657Y-128920516D01*
X206682148Y-129228715D01*
X206833969Y-129512752D01*
X207038286Y-129761714D01*
X207287248Y-129966031D01*
X207479584Y-130068837D01*
X206204941Y-131343481D01*
X206171174Y-131371193D01*
X206143461Y-131404961D01*
X206143458Y-131404964D01*
X206060580Y-131505951D01*
X205978402Y-131659697D01*
X205927795Y-131826520D01*
X205910709Y-132000010D01*
X205914991Y-132043489D01*
X205914990Y-140307144D01*
X205910709Y-140350613D01*
X205914990Y-140394082D01*
X205914990Y-140394089D01*
X205927795Y-140524102D01*
X205978401Y-140690925D01*
X206060579Y-140844671D01*
X206171173Y-140979430D01*
X206204946Y-141007147D01*
X206992857Y-141795059D01*
X207020570Y-141828827D01*
X207054338Y-141856540D01*
X207054340Y-141856542D01*
X207079405Y-141877112D01*
X207155328Y-141939421D01*
X207309074Y-142021599D01*
X207475897Y-142072205D01*
X207605910Y-142085010D01*
X207605918Y-142085010D01*
X207649387Y-142089291D01*
X207692856Y-142085010D01*
X209307144Y-142085010D01*
X209350613Y-142089291D01*
X209394082Y-142085010D01*
X209394090Y-142085010D01*
X209524103Y-142072205D01*
X209690926Y-142021599D01*
X209844672Y-141939421D01*
X209979430Y-141828827D01*
X210007147Y-141795054D01*
X211595049Y-140207153D01*
X211628817Y-140179440D01*
X211656562Y-140145634D01*
X211739410Y-140044683D01*
X211745851Y-140032633D01*
X211821589Y-139890936D01*
X211872195Y-139724113D01*
X211885000Y-139594100D01*
X211885000Y-139594090D01*
X211889281Y-139550624D01*
X211885000Y-139507158D01*
X211885000Y-138130865D01*
X211912752Y-138116031D01*
X212161714Y-137911714D01*
X212366031Y-137662752D01*
X212517852Y-137378715D01*
X212611343Y-137070515D01*
X212635000Y-136830321D01*
X212635000Y-136169678D01*
X212611343Y-135929484D01*
X212517852Y-135621285D01*
X212366031Y-135337248D01*
X212161714Y-135088286D01*
X211912751Y-134883969D01*
X211628714Y-134732148D01*
X211320515Y-134638657D01*
X211000000Y-134607089D01*
X210679484Y-134638657D01*
X210371285Y-134732148D01*
X210087248Y-134883969D01*
X209838286Y-135088286D01*
X209633969Y-135337249D01*
X209482148Y-135621286D01*
X209388657Y-135929485D01*
X209365000Y-136169679D01*
X209365000Y-136830322D01*
X209388657Y-137070516D01*
X209482148Y-137378715D01*
X209633969Y-137662752D01*
X209838286Y-137911714D01*
X210087249Y-138116031D01*
X210115001Y-138130865D01*
X210115001Y-138835993D01*
X209911714Y-138588286D01*
X209662752Y-138383969D01*
X209378715Y-138232148D01*
X209235000Y-138188553D01*
X209235000Y-134811447D01*
X209378715Y-134767852D01*
X209662752Y-134616031D01*
X209911714Y-134411714D01*
X210116031Y-134162752D01*
X210211041Y-133985000D01*
X212325554Y-133985000D01*
X214107178Y-135766625D01*
X214065000Y-135978665D01*
X214065000Y-136261335D01*
X214120147Y-136538574D01*
X214228320Y-136799727D01*
X214385363Y-137034759D01*
X214585241Y-137234637D01*
X214820273Y-137391680D01*
X215081426Y-137499853D01*
X215358665Y-137555000D01*
X215641335Y-137555000D01*
X215918574Y-137499853D01*
X216179727Y-137391680D01*
X216414759Y-137234637D01*
X216614637Y-137034759D01*
X216771680Y-136799727D01*
X216879853Y-136538574D01*
X216935000Y-136261335D01*
X216935000Y-135978665D01*
X216892822Y-135766625D01*
X217094198Y-135565249D01*
X217122238Y-135542237D01*
X217145251Y-135514196D01*
X217145254Y-135514193D01*
X217214087Y-135430320D01*
X217214088Y-135430319D01*
X217265001Y-135335068D01*
X217265001Y-140046750D01*
X215365807Y-141945945D01*
X215337761Y-141968962D01*
X215245912Y-142080880D01*
X215177662Y-142208567D01*
X215158228Y-142272632D01*
X215135634Y-142347114D01*
X215121443Y-142491199D01*
X215124999Y-142527305D01*
X215125000Y-143423885D01*
X215121443Y-143459999D01*
X215135634Y-143604084D01*
X215167943Y-143710590D01*
X215177663Y-143742632D01*
X215245913Y-143870319D01*
X215337762Y-143982237D01*
X215365807Y-144005253D01*
X215548201Y-144187647D01*
X215493093Y-144198609D01*
X215239220Y-144303767D01*
X215010739Y-144456433D01*
X214816433Y-144650739D01*
X214663767Y-144879220D01*
X214558609Y-145133093D01*
X214505000Y-145402604D01*
X214505000Y-145677396D01*
X214558609Y-145946907D01*
X214663767Y-146200780D01*
X214816433Y-146429261D01*
X215010739Y-146623567D01*
X215239220Y-146776233D01*
X215493093Y-146881391D01*
X215762604Y-146935000D01*
X216037396Y-146935000D01*
X216306907Y-146881391D01*
X216560780Y-146776233D01*
X216789261Y-146623567D01*
X216920000Y-146492828D01*
X217050739Y-146623567D01*
X217279220Y-146776233D01*
X217533093Y-146881391D01*
X217802604Y-146935000D01*
X218077396Y-146935000D01*
X218346907Y-146881391D01*
X218600780Y-146776233D01*
X218829261Y-146623567D01*
X219023567Y-146429261D01*
X219176233Y-146200780D01*
X219202127Y-146138268D01*
X219800395Y-145540000D01*
X219202127Y-144941732D01*
X219176233Y-144879220D01*
X219023567Y-144650739D01*
X218829261Y-144456433D01*
X218701170Y-144370845D01*
X218822604Y-144395000D01*
X219097396Y-144395000D01*
X219254478Y-144363755D01*
X219195469Y-144575863D01*
X219980000Y-145360395D01*
X219994143Y-145346253D01*
X220173748Y-145525858D01*
X220159605Y-145540000D01*
X220173748Y-145554142D01*
X219994142Y-145733748D01*
X219980000Y-145719605D01*
X219195469Y-146504137D01*
X219262206Y-146744025D01*
X219510892Y-146860924D01*
X219777606Y-146927061D01*
X220052097Y-146939895D01*
X220305001Y-146901768D01*
X220305001Y-146904534D01*
X220300720Y-146948003D01*
X220305001Y-146991472D01*
X220305001Y-146991479D01*
X220312971Y-147072397D01*
X220317806Y-147121493D01*
X220326382Y-147149763D01*
X220368412Y-147288315D01*
X220450590Y-147442061D01*
X220561184Y-147576820D01*
X220594957Y-147604537D01*
X222305419Y-149315000D01*
X213455422Y-149315000D01*
X213587871Y-149226500D01*
X213836500Y-148977871D01*
X214031847Y-148685515D01*
X214166404Y-148360665D01*
X214235000Y-148015807D01*
X214235000Y-147664193D01*
X214166404Y-147319335D01*
X214031847Y-146994485D01*
X213836500Y-146702129D01*
X213587871Y-146453500D01*
X213295515Y-146258153D01*
X212970665Y-146123596D01*
X212625807Y-146055000D01*
X212274193Y-146055000D01*
X211929335Y-146123596D01*
X211604485Y-146258153D01*
X211312129Y-146453500D01*
X211063500Y-146702129D01*
X210868153Y-146994485D01*
X210733596Y-147319335D01*
X210665000Y-147664193D01*
X210665000Y-148015807D01*
X210733596Y-148360665D01*
X210868153Y-148685515D01*
X211063500Y-148977871D01*
X211312129Y-149226500D01*
X211444578Y-149315000D01*
X203033504Y-149315000D01*
X202550984Y-149267688D01*
X202119073Y-149137287D01*
X201720720Y-148925480D01*
X201371086Y-148640325D01*
X201083503Y-148292697D01*
X200868915Y-147895825D01*
X200735500Y-147464834D01*
X200685000Y-146984346D01*
X200685000Y-146304495D01*
X201515000Y-146304495D01*
X201515000Y-146695505D01*
X201591282Y-147079003D01*
X201740915Y-147440250D01*
X201958149Y-147765364D01*
X202234636Y-148041851D01*
X202559750Y-148259085D01*
X202920997Y-148408718D01*
X203304495Y-148485000D01*
X203695505Y-148485000D01*
X204079003Y-148408718D01*
X204440250Y-148259085D01*
X204765364Y-148041851D01*
X205041851Y-147765364D01*
X205259085Y-147440250D01*
X205408718Y-147079003D01*
X205485000Y-146695505D01*
X205485000Y-146304495D01*
X205408718Y-145920997D01*
X205259085Y-145559750D01*
X205041851Y-145234636D01*
X204765364Y-144958149D01*
X204440250Y-144740915D01*
X204079003Y-144591282D01*
X203695505Y-144515000D01*
X203304495Y-144515000D01*
X202920997Y-144591282D01*
X202559750Y-144740915D01*
X202234636Y-144958149D01*
X201958149Y-145234636D01*
X201740915Y-145559750D01*
X201591282Y-145920997D01*
X201515000Y-146304495D01*
X200685000Y-146304495D01*
X200685000Y-141168281D01*
X200871285Y-141267852D01*
X201179484Y-141361343D01*
X201419678Y-141385000D01*
X202580322Y-141385000D01*
X202820516Y-141361343D01*
X203128715Y-141267852D01*
X203412752Y-141116031D01*
X203661714Y-140911714D01*
X203866031Y-140662752D01*
X204017852Y-140378715D01*
X204111343Y-140070516D01*
X204142911Y-139750000D01*
X204111343Y-139429484D01*
X204017852Y-139121285D01*
X203866031Y-138837248D01*
X203661714Y-138588286D01*
X203412752Y-138383969D01*
X203128715Y-138232148D01*
X202820516Y-138138657D01*
X202580322Y-138115000D01*
X201419678Y-138115000D01*
X201179484Y-138138657D01*
X200871285Y-138232148D01*
X200685000Y-138331719D01*
X200685000Y-137294890D01*
X200807688Y-137478505D01*
X201021495Y-137692312D01*
X201272905Y-137860299D01*
X201552257Y-137976011D01*
X201848816Y-138035000D01*
X202151184Y-138035000D01*
X202447743Y-137976011D01*
X202727095Y-137860299D01*
X202978505Y-137692312D01*
X203192312Y-137478505D01*
X203360299Y-137227095D01*
X203476011Y-136947743D01*
X203535000Y-136651184D01*
X203535000Y-136348816D01*
X203476011Y-136052257D01*
X203360299Y-135772905D01*
X203192312Y-135521495D01*
X202978505Y-135307688D01*
X202727095Y-135139701D01*
X202447743Y-135023989D01*
X202151184Y-134965000D01*
X201848816Y-134965000D01*
X201552257Y-135023989D01*
X201272905Y-135139701D01*
X201021495Y-135307688D01*
X200807688Y-135521495D01*
X200685000Y-135705110D01*
X200685000Y-134668281D01*
X200871285Y-134767852D01*
X201179484Y-134861343D01*
X201419678Y-134885000D01*
X202580322Y-134885000D01*
X202820516Y-134861343D01*
X203128715Y-134767852D01*
X203412752Y-134616031D01*
X203661714Y-134411714D01*
X203866031Y-134162752D01*
X204017852Y-133878715D01*
X204111343Y-133570516D01*
X204142911Y-133250000D01*
X204111343Y-132929484D01*
X204017852Y-132621285D01*
X203866031Y-132337248D01*
X203661714Y-132088286D01*
X203412752Y-131883969D01*
X203128715Y-131732148D01*
X202820516Y-131638657D01*
X202580322Y-131615000D01*
X201419678Y-131615000D01*
X201179484Y-131638657D01*
X200871285Y-131732148D01*
X200685000Y-131831719D01*
X200685000Y-130072876D01*
X200956468Y-130178807D01*
X201273000Y-130235000D01*
X201773000Y-130235000D01*
X201773000Y-128727000D01*
X202027000Y-128727000D01*
X202027000Y-130235000D01*
X202527000Y-130235000D01*
X202843532Y-130178807D01*
X203143020Y-130061942D01*
X203413954Y-129888895D01*
X203645922Y-129666317D01*
X203830010Y-129402761D01*
X203959144Y-129108355D01*
X203990124Y-128980434D01*
X203870777Y-128727000D01*
X202027000Y-128727000D01*
X201773000Y-128727000D01*
X201753000Y-128727000D01*
X201753000Y-128473000D01*
X201773000Y-128473000D01*
X201773000Y-128453000D01*
X202027000Y-128453000D01*
X202027000Y-128473000D01*
X203870777Y-128473000D01*
X203990124Y-128219566D01*
X203959144Y-128091645D01*
X203830010Y-127797239D01*
X203645922Y-127533683D01*
X203413954Y-127311105D01*
X203264032Y-127215349D01*
X203414759Y-127114637D01*
X203614637Y-126914759D01*
X203771680Y-126679727D01*
X203879853Y-126418574D01*
X203935000Y-126141335D01*
X203935000Y-125858665D01*
X203879853Y-125581426D01*
X203771680Y-125320273D01*
X203617061Y-125088869D01*
X203671285Y-125117852D01*
X203979484Y-125211343D01*
X204219678Y-125235000D01*
X205380322Y-125235000D01*
X205620516Y-125211343D01*
X205928715Y-125117852D01*
X206212752Y-124966031D01*
X206364999Y-124841085D01*
X206364999Y-127606530D01*
G37*
X206364999Y-127606530D02*
X206360718Y-127649999D01*
X206364999Y-127693468D01*
X206364999Y-127693475D01*
X206377804Y-127823488D01*
X206428410Y-127990311D01*
X206510588Y-128144057D01*
X206597583Y-128250060D01*
X206588657Y-128279484D01*
X206557089Y-128600000D01*
X206588657Y-128920516D01*
X206682148Y-129228715D01*
X206833969Y-129512752D01*
X207038286Y-129761714D01*
X207287248Y-129966031D01*
X207479584Y-130068837D01*
X206204941Y-131343481D01*
X206171174Y-131371193D01*
X206143461Y-131404961D01*
X206143458Y-131404964D01*
X206060580Y-131505951D01*
X205978402Y-131659697D01*
X205927795Y-131826520D01*
X205910709Y-132000010D01*
X205914991Y-132043489D01*
X205914990Y-140307144D01*
X205910709Y-140350613D01*
X205914990Y-140394082D01*
X205914990Y-140394089D01*
X205927795Y-140524102D01*
X205978401Y-140690925D01*
X206060579Y-140844671D01*
X206171173Y-140979430D01*
X206204946Y-141007147D01*
X206992857Y-141795059D01*
X207020570Y-141828827D01*
X207054338Y-141856540D01*
X207054340Y-141856542D01*
X207079405Y-141877112D01*
X207155328Y-141939421D01*
X207309074Y-142021599D01*
X207475897Y-142072205D01*
X207605910Y-142085010D01*
X207605918Y-142085010D01*
X207649387Y-142089291D01*
X207692856Y-142085010D01*
X209307144Y-142085010D01*
X209350613Y-142089291D01*
X209394082Y-142085010D01*
X209394090Y-142085010D01*
X209524103Y-142072205D01*
X209690926Y-142021599D01*
X209844672Y-141939421D01*
X209979430Y-141828827D01*
X210007147Y-141795054D01*
X211595049Y-140207153D01*
X211628817Y-140179440D01*
X211656562Y-140145634D01*
X211739410Y-140044683D01*
X211745851Y-140032633D01*
X211821589Y-139890936D01*
X211872195Y-139724113D01*
X211885000Y-139594100D01*
X211885000Y-139594090D01*
X211889281Y-139550624D01*
X211885000Y-139507158D01*
X211885000Y-138130865D01*
X211912752Y-138116031D01*
X212161714Y-137911714D01*
X212366031Y-137662752D01*
X212517852Y-137378715D01*
X212611343Y-137070515D01*
X212635000Y-136830321D01*
X212635000Y-136169678D01*
X212611343Y-135929484D01*
X212517852Y-135621285D01*
X212366031Y-135337248D01*
X212161714Y-135088286D01*
X211912751Y-134883969D01*
X211628714Y-134732148D01*
X211320515Y-134638657D01*
X211000000Y-134607089D01*
X210679484Y-134638657D01*
X210371285Y-134732148D01*
X210087248Y-134883969D01*
X209838286Y-135088286D01*
X209633969Y-135337249D01*
X209482148Y-135621286D01*
X209388657Y-135929485D01*
X209365000Y-136169679D01*
X209365000Y-136830322D01*
X209388657Y-137070516D01*
X209482148Y-137378715D01*
X209633969Y-137662752D01*
X209838286Y-137911714D01*
X210087249Y-138116031D01*
X210115001Y-138130865D01*
X210115001Y-138835993D01*
X209911714Y-138588286D01*
X209662752Y-138383969D01*
X209378715Y-138232148D01*
X209235000Y-138188553D01*
X209235000Y-134811447D01*
X209378715Y-134767852D01*
X209662752Y-134616031D01*
X209911714Y-134411714D01*
X210116031Y-134162752D01*
X210211041Y-133985000D01*
X212325554Y-133985000D01*
X214107178Y-135766625D01*
X214065000Y-135978665D01*
X214065000Y-136261335D01*
X214120147Y-136538574D01*
X214228320Y-136799727D01*
X214385363Y-137034759D01*
X214585241Y-137234637D01*
X214820273Y-137391680D01*
X215081426Y-137499853D01*
X215358665Y-137555000D01*
X215641335Y-137555000D01*
X215918574Y-137499853D01*
X216179727Y-137391680D01*
X216414759Y-137234637D01*
X216614637Y-137034759D01*
X216771680Y-136799727D01*
X216879853Y-136538574D01*
X216935000Y-136261335D01*
X216935000Y-135978665D01*
X216892822Y-135766625D01*
X217094198Y-135565249D01*
X217122238Y-135542237D01*
X217145251Y-135514196D01*
X217145254Y-135514193D01*
X217214087Y-135430320D01*
X217214088Y-135430319D01*
X217265001Y-135335068D01*
X217265001Y-140046750D01*
X215365807Y-141945945D01*
X215337761Y-141968962D01*
X215245912Y-142080880D01*
X215177662Y-142208567D01*
X215158228Y-142272632D01*
X215135634Y-142347114D01*
X215121443Y-142491199D01*
X215124999Y-142527305D01*
X215125000Y-143423885D01*
X215121443Y-143459999D01*
X215135634Y-143604084D01*
X215167943Y-143710590D01*
X215177663Y-143742632D01*
X215245913Y-143870319D01*
X215337762Y-143982237D01*
X215365807Y-144005253D01*
X215548201Y-144187647D01*
X215493093Y-144198609D01*
X215239220Y-144303767D01*
X215010739Y-144456433D01*
X214816433Y-144650739D01*
X214663767Y-144879220D01*
X214558609Y-145133093D01*
X214505000Y-145402604D01*
X214505000Y-145677396D01*
X214558609Y-145946907D01*
X214663767Y-146200780D01*
X214816433Y-146429261D01*
X215010739Y-146623567D01*
X215239220Y-146776233D01*
X215493093Y-146881391D01*
X215762604Y-146935000D01*
X216037396Y-146935000D01*
X216306907Y-146881391D01*
X216560780Y-146776233D01*
X216789261Y-146623567D01*
X216920000Y-146492828D01*
X217050739Y-146623567D01*
X217279220Y-146776233D01*
X217533093Y-146881391D01*
X217802604Y-146935000D01*
X218077396Y-146935000D01*
X218346907Y-146881391D01*
X218600780Y-146776233D01*
X218829261Y-146623567D01*
X219023567Y-146429261D01*
X219176233Y-146200780D01*
X219202127Y-146138268D01*
X219800395Y-145540000D01*
X219202127Y-144941732D01*
X219176233Y-144879220D01*
X219023567Y-144650739D01*
X218829261Y-144456433D01*
X218701170Y-144370845D01*
X218822604Y-144395000D01*
X219097396Y-144395000D01*
X219254478Y-144363755D01*
X219195469Y-144575863D01*
X219980000Y-145360395D01*
X219994143Y-145346253D01*
X220173748Y-145525858D01*
X220159605Y-145540000D01*
X220173748Y-145554142D01*
X219994142Y-145733748D01*
X219980000Y-145719605D01*
X219195469Y-146504137D01*
X219262206Y-146744025D01*
X219510892Y-146860924D01*
X219777606Y-146927061D01*
X220052097Y-146939895D01*
X220305001Y-146901768D01*
X220305001Y-146904534D01*
X220300720Y-146948003D01*
X220305001Y-146991472D01*
X220305001Y-146991479D01*
X220312971Y-147072397D01*
X220317806Y-147121493D01*
X220326382Y-147149763D01*
X220368412Y-147288315D01*
X220450590Y-147442061D01*
X220561184Y-147576820D01*
X220594957Y-147604537D01*
X222305419Y-149315000D01*
X213455422Y-149315000D01*
X213587871Y-149226500D01*
X213836500Y-148977871D01*
X214031847Y-148685515D01*
X214166404Y-148360665D01*
X214235000Y-148015807D01*
X214235000Y-147664193D01*
X214166404Y-147319335D01*
X214031847Y-146994485D01*
X213836500Y-146702129D01*
X213587871Y-146453500D01*
X213295515Y-146258153D01*
X212970665Y-146123596D01*
X212625807Y-146055000D01*
X212274193Y-146055000D01*
X211929335Y-146123596D01*
X211604485Y-146258153D01*
X211312129Y-146453500D01*
X211063500Y-146702129D01*
X210868153Y-146994485D01*
X210733596Y-147319335D01*
X210665000Y-147664193D01*
X210665000Y-148015807D01*
X210733596Y-148360665D01*
X210868153Y-148685515D01*
X211063500Y-148977871D01*
X211312129Y-149226500D01*
X211444578Y-149315000D01*
X203033504Y-149315000D01*
X202550984Y-149267688D01*
X202119073Y-149137287D01*
X201720720Y-148925480D01*
X201371086Y-148640325D01*
X201083503Y-148292697D01*
X200868915Y-147895825D01*
X200735500Y-147464834D01*
X200685000Y-146984346D01*
X200685000Y-146304495D01*
X201515000Y-146304495D01*
X201515000Y-146695505D01*
X201591282Y-147079003D01*
X201740915Y-147440250D01*
X201958149Y-147765364D01*
X202234636Y-148041851D01*
X202559750Y-148259085D01*
X202920997Y-148408718D01*
X203304495Y-148485000D01*
X203695505Y-148485000D01*
X204079003Y-148408718D01*
X204440250Y-148259085D01*
X204765364Y-148041851D01*
X205041851Y-147765364D01*
X205259085Y-147440250D01*
X205408718Y-147079003D01*
X205485000Y-146695505D01*
X205485000Y-146304495D01*
X205408718Y-145920997D01*
X205259085Y-145559750D01*
X205041851Y-145234636D01*
X204765364Y-144958149D01*
X204440250Y-144740915D01*
X204079003Y-144591282D01*
X203695505Y-144515000D01*
X203304495Y-144515000D01*
X202920997Y-144591282D01*
X202559750Y-144740915D01*
X202234636Y-144958149D01*
X201958149Y-145234636D01*
X201740915Y-145559750D01*
X201591282Y-145920997D01*
X201515000Y-146304495D01*
X200685000Y-146304495D01*
X200685000Y-141168281D01*
X200871285Y-141267852D01*
X201179484Y-141361343D01*
X201419678Y-141385000D01*
X202580322Y-141385000D01*
X202820516Y-141361343D01*
X203128715Y-141267852D01*
X203412752Y-141116031D01*
X203661714Y-140911714D01*
X203866031Y-140662752D01*
X204017852Y-140378715D01*
X204111343Y-140070516D01*
X204142911Y-139750000D01*
X204111343Y-139429484D01*
X204017852Y-139121285D01*
X203866031Y-138837248D01*
X203661714Y-138588286D01*
X203412752Y-138383969D01*
X203128715Y-138232148D01*
X202820516Y-138138657D01*
X202580322Y-138115000D01*
X201419678Y-138115000D01*
X201179484Y-138138657D01*
X200871285Y-138232148D01*
X200685000Y-138331719D01*
X200685000Y-137294890D01*
X200807688Y-137478505D01*
X201021495Y-137692312D01*
X201272905Y-137860299D01*
X201552257Y-137976011D01*
X201848816Y-138035000D01*
X202151184Y-138035000D01*
X202447743Y-137976011D01*
X202727095Y-137860299D01*
X202978505Y-137692312D01*
X203192312Y-137478505D01*
X203360299Y-137227095D01*
X203476011Y-136947743D01*
X203535000Y-136651184D01*
X203535000Y-136348816D01*
X203476011Y-136052257D01*
X203360299Y-135772905D01*
X203192312Y-135521495D01*
X202978505Y-135307688D01*
X202727095Y-135139701D01*
X202447743Y-135023989D01*
X202151184Y-134965000D01*
X201848816Y-134965000D01*
X201552257Y-135023989D01*
X201272905Y-135139701D01*
X201021495Y-135307688D01*
X200807688Y-135521495D01*
X200685000Y-135705110D01*
X200685000Y-134668281D01*
X200871285Y-134767852D01*
X201179484Y-134861343D01*
X201419678Y-134885000D01*
X202580322Y-134885000D01*
X202820516Y-134861343D01*
X203128715Y-134767852D01*
X203412752Y-134616031D01*
X203661714Y-134411714D01*
X203866031Y-134162752D01*
X204017852Y-133878715D01*
X204111343Y-133570516D01*
X204142911Y-133250000D01*
X204111343Y-132929484D01*
X204017852Y-132621285D01*
X203866031Y-132337248D01*
X203661714Y-132088286D01*
X203412752Y-131883969D01*
X203128715Y-131732148D01*
X202820516Y-131638657D01*
X202580322Y-131615000D01*
X201419678Y-131615000D01*
X201179484Y-131638657D01*
X200871285Y-131732148D01*
X200685000Y-131831719D01*
X200685000Y-130072876D01*
X200956468Y-130178807D01*
X201273000Y-130235000D01*
X201773000Y-130235000D01*
X201773000Y-128727000D01*
X202027000Y-128727000D01*
X202027000Y-130235000D01*
X202527000Y-130235000D01*
X202843532Y-130178807D01*
X203143020Y-130061942D01*
X203413954Y-129888895D01*
X203645922Y-129666317D01*
X203830010Y-129402761D01*
X203959144Y-129108355D01*
X203990124Y-128980434D01*
X203870777Y-128727000D01*
X202027000Y-128727000D01*
X201773000Y-128727000D01*
X201753000Y-128727000D01*
X201753000Y-128473000D01*
X201773000Y-128473000D01*
X201773000Y-128453000D01*
X202027000Y-128453000D01*
X202027000Y-128473000D01*
X203870777Y-128473000D01*
X203990124Y-128219566D01*
X203959144Y-128091645D01*
X203830010Y-127797239D01*
X203645922Y-127533683D01*
X203413954Y-127311105D01*
X203264032Y-127215349D01*
X203414759Y-127114637D01*
X203614637Y-126914759D01*
X203771680Y-126679727D01*
X203879853Y-126418574D01*
X203935000Y-126141335D01*
X203935000Y-125858665D01*
X203879853Y-125581426D01*
X203771680Y-125320273D01*
X203617061Y-125088869D01*
X203671285Y-125117852D01*
X203979484Y-125211343D01*
X204219678Y-125235000D01*
X205380322Y-125235000D01*
X205620516Y-125211343D01*
X205928715Y-125117852D01*
X206212752Y-124966031D01*
X206364999Y-124841085D01*
X206364999Y-127606530D01*
G36*
X231295363Y-131089759D02*
G01*
X231495241Y-131289637D01*
X231730273Y-131446680D01*
X231991426Y-131554853D01*
X232268665Y-131610000D01*
X232551335Y-131610000D01*
X232763376Y-131567822D01*
X237555553Y-136360000D01*
X237348665Y-136360000D01*
X237071426Y-136415147D01*
X236810273Y-136523320D01*
X236575241Y-136680363D01*
X236375363Y-136880241D01*
X236220000Y-137112759D01*
X236064637Y-136880241D01*
X235864759Y-136680363D01*
X235629727Y-136523320D01*
X235368574Y-136415147D01*
X235091335Y-136360000D01*
X234808665Y-136360000D01*
X234531426Y-136415147D01*
X234270273Y-136523320D01*
X234035241Y-136680363D01*
X233835363Y-136880241D01*
X233680000Y-137112759D01*
X233524637Y-136880241D01*
X233324759Y-136680363D01*
X233089727Y-136523320D01*
X232828574Y-136415147D01*
X232551335Y-136360000D01*
X232268665Y-136360000D01*
X232056624Y-136402178D01*
X231855257Y-136200811D01*
X231832237Y-136172761D01*
X231720319Y-136080912D01*
X231592632Y-136012662D01*
X231454084Y-135970634D01*
X231346104Y-135959999D01*
X231309999Y-135956443D01*
X231273894Y-135959999D01*
X229378095Y-135959999D01*
X229341998Y-135956444D01*
X229305901Y-135959999D01*
X229305894Y-135959999D01*
X229212131Y-135969234D01*
X229197913Y-135970634D01*
X229171439Y-135978665D01*
X229059366Y-136012662D01*
X228931679Y-136080912D01*
X228819761Y-136172761D01*
X228796745Y-136200806D01*
X228277711Y-136719841D01*
X228067420Y-136563963D01*
X227813087Y-136443754D01*
X227679039Y-136403096D01*
X227457000Y-136525085D01*
X227457000Y-137668000D01*
X227477000Y-137668000D01*
X227477000Y-137922000D01*
X227457000Y-137922000D01*
X227457000Y-139064915D01*
X227679039Y-139186904D01*
X227813087Y-139146246D01*
X228034999Y-139041360D01*
X228035000Y-140833884D01*
X228031443Y-140869999D01*
X228045634Y-141014084D01*
X228049407Y-141026520D01*
X228087663Y-141152632D01*
X228155913Y-141280319D01*
X228247762Y-141392237D01*
X228275807Y-141415253D01*
X231048201Y-144187647D01*
X230993093Y-144198609D01*
X230739220Y-144303767D01*
X230510739Y-144456433D01*
X230316433Y-144650739D01*
X230163767Y-144879220D01*
X230058609Y-145133093D01*
X230005000Y-145402604D01*
X230005000Y-145677396D01*
X230058609Y-145946907D01*
X230163767Y-146200780D01*
X230316433Y-146429261D01*
X230510739Y-146623567D01*
X230739220Y-146776233D01*
X230993093Y-146881391D01*
X231262604Y-146935000D01*
X231537396Y-146935000D01*
X231806907Y-146881391D01*
X232060780Y-146776233D01*
X232289261Y-146623567D01*
X232420000Y-146492828D01*
X232550739Y-146623567D01*
X232779220Y-146776233D01*
X233033093Y-146881391D01*
X233302604Y-146935000D01*
X233577396Y-146935000D01*
X233846907Y-146881391D01*
X234100780Y-146776233D01*
X234329261Y-146623567D01*
X234523567Y-146429261D01*
X234676233Y-146200780D01*
X234702127Y-146138268D01*
X235300395Y-145540000D01*
X234702127Y-144941732D01*
X234676233Y-144879220D01*
X234523567Y-144650739D01*
X234329261Y-144456433D01*
X234201170Y-144370845D01*
X234322604Y-144395000D01*
X234597396Y-144395000D01*
X234754478Y-144363755D01*
X234695469Y-144575863D01*
X235480000Y-145360395D01*
X235494143Y-145346253D01*
X235673748Y-145525858D01*
X235659605Y-145540000D01*
X235673748Y-145554143D01*
X235494142Y-145733748D01*
X235480000Y-145719605D01*
X234695469Y-146504137D01*
X234762206Y-146744025D01*
X235010892Y-146860924D01*
X235277606Y-146927061D01*
X235552097Y-146939895D01*
X235805001Y-146901768D01*
X235805001Y-146904534D01*
X235800720Y-146948003D01*
X235805001Y-146991472D01*
X235805001Y-146991479D01*
X235805002Y-146991486D01*
X235805002Y-147443419D01*
X234693421Y-148555001D01*
X229585908Y-148555001D01*
X229666404Y-148360665D01*
X229735000Y-148015807D01*
X229735000Y-147664193D01*
X229666404Y-147319335D01*
X229531847Y-146994485D01*
X229336500Y-146702129D01*
X229087871Y-146453500D01*
X228795515Y-146258153D01*
X228470665Y-146123596D01*
X228125807Y-146055000D01*
X227774193Y-146055000D01*
X227429335Y-146123596D01*
X227104485Y-146258153D01*
X226812129Y-146453500D01*
X226563500Y-146702129D01*
X226368153Y-146994485D01*
X226233596Y-147319335D01*
X226200000Y-147488235D01*
X226166404Y-147319335D01*
X226031847Y-146994485D01*
X225836500Y-146702129D01*
X225587871Y-146453500D01*
X225295515Y-146258153D01*
X224970665Y-146123596D01*
X224625807Y-146055000D01*
X224274193Y-146055000D01*
X223929335Y-146123596D01*
X223604485Y-146258153D01*
X223312129Y-146453500D01*
X223063500Y-146702129D01*
X222868153Y-146994485D01*
X222756827Y-147263251D01*
X222075001Y-146581425D01*
X222075001Y-144493470D01*
X222079282Y-144450001D01*
X222075001Y-144406532D01*
X222075001Y-144406524D01*
X222066124Y-144316392D01*
X222114494Y-144290537D01*
X222211185Y-144211185D01*
X222290537Y-144114494D01*
X222349502Y-144004180D01*
X222385812Y-143884482D01*
X222398072Y-143760000D01*
X222398072Y-142240000D01*
X222385812Y-142115518D01*
X222349502Y-141995820D01*
X222290537Y-141885506D01*
X222211185Y-141788815D01*
X222114494Y-141709463D01*
X222004180Y-141650498D01*
X221885000Y-141614345D01*
X221885000Y-139230473D01*
X221964250Y-139230000D01*
X222123000Y-139071250D01*
X222123000Y-137922000D01*
X222377000Y-137922000D01*
X222377000Y-139071250D01*
X222535750Y-139230000D01*
X223050000Y-139233072D01*
X223174482Y-139220812D01*
X223294180Y-139184502D01*
X223404494Y-139125537D01*
X223501185Y-139046185D01*
X223580537Y-138949494D01*
X223639502Y-138839180D01*
X223675812Y-138719482D01*
X223678231Y-138694920D01*
X223826586Y-138858519D01*
X224052580Y-139026037D01*
X224306913Y-139146246D01*
X224440961Y-139186904D01*
X224663000Y-139064915D01*
X224663000Y-137922000D01*
X224917000Y-137922000D01*
X224917000Y-139064915D01*
X225139039Y-139186904D01*
X225273087Y-139146246D01*
X225527420Y-139026037D01*
X225753414Y-138858519D01*
X225942385Y-138650131D01*
X226060000Y-138454018D01*
X226177615Y-138650131D01*
X226366586Y-138858519D01*
X226592580Y-139026037D01*
X226846913Y-139146246D01*
X226980961Y-139186904D01*
X227203000Y-139064915D01*
X227203000Y-137922000D01*
X224917000Y-137922000D01*
X224663000Y-137922000D01*
X222377000Y-137922000D01*
X222123000Y-137922000D01*
X222103000Y-137922000D01*
X222103000Y-137668000D01*
X222123000Y-137668000D01*
X222123000Y-136518750D01*
X222377000Y-136518750D01*
X222377000Y-137668000D01*
X224663000Y-137668000D01*
X224663000Y-136525085D01*
X224917000Y-136525085D01*
X224917000Y-137668000D01*
X227203000Y-137668000D01*
X227203000Y-136525085D01*
X226980961Y-136403096D01*
X226846913Y-136443754D01*
X226592580Y-136563963D01*
X226366586Y-136731481D01*
X226177615Y-136939869D01*
X226060000Y-137135982D01*
X225942385Y-136939869D01*
X225753414Y-136731481D01*
X225527420Y-136563963D01*
X225273087Y-136443754D01*
X225139039Y-136403096D01*
X224917000Y-136525085D01*
X224663000Y-136525085D01*
X224440961Y-136403096D01*
X224306913Y-136443754D01*
X224052580Y-136563963D01*
X223826586Y-136731481D01*
X223678231Y-136895080D01*
X223675812Y-136870518D01*
X223639502Y-136750820D01*
X223580537Y-136640506D01*
X223501185Y-136543815D01*
X223404494Y-136464463D01*
X223294180Y-136405498D01*
X223174482Y-136369188D01*
X223050000Y-136356928D01*
X222535750Y-136360000D01*
X222377000Y-136518750D01*
X222123000Y-136518750D01*
X221964250Y-136360000D01*
X221885000Y-136359527D01*
X221885000Y-131791578D01*
X222073561Y-131603017D01*
X222108665Y-131610000D01*
X222391335Y-131610000D01*
X222668574Y-131554853D01*
X222929727Y-131446680D01*
X223164759Y-131289637D01*
X223364637Y-131089759D01*
X223520000Y-130857241D01*
X223675363Y-131089759D01*
X223875241Y-131289637D01*
X224110273Y-131446680D01*
X224371426Y-131554853D01*
X224648665Y-131610000D01*
X224931335Y-131610000D01*
X225208574Y-131554853D01*
X225469727Y-131446680D01*
X225704759Y-131289637D01*
X225904637Y-131089759D01*
X226060000Y-130857241D01*
X226215363Y-131089759D01*
X226415241Y-131289637D01*
X226650273Y-131446680D01*
X226911426Y-131554853D01*
X227188665Y-131610000D01*
X227471335Y-131610000D01*
X227748574Y-131554853D01*
X228009727Y-131446680D01*
X228244759Y-131289637D01*
X228444637Y-131089759D01*
X228600000Y-130857241D01*
X228755363Y-131089759D01*
X228955241Y-131289637D01*
X229190273Y-131446680D01*
X229451426Y-131554853D01*
X229728665Y-131610000D01*
X230011335Y-131610000D01*
X230288574Y-131554853D01*
X230549727Y-131446680D01*
X230784759Y-131289637D01*
X230984637Y-131089759D01*
X231140000Y-130857241D01*
X231295363Y-131089759D01*
G37*
X231295363Y-131089759D02*
X231495241Y-131289637D01*
X231730273Y-131446680D01*
X231991426Y-131554853D01*
X232268665Y-131610000D01*
X232551335Y-131610000D01*
X232763376Y-131567822D01*
X237555553Y-136360000D01*
X237348665Y-136360000D01*
X237071426Y-136415147D01*
X236810273Y-136523320D01*
X236575241Y-136680363D01*
X236375363Y-136880241D01*
X236220000Y-137112759D01*
X236064637Y-136880241D01*
X235864759Y-136680363D01*
X235629727Y-136523320D01*
X235368574Y-136415147D01*
X235091335Y-136360000D01*
X234808665Y-136360000D01*
X234531426Y-136415147D01*
X234270273Y-136523320D01*
X234035241Y-136680363D01*
X233835363Y-136880241D01*
X233680000Y-137112759D01*
X233524637Y-136880241D01*
X233324759Y-136680363D01*
X233089727Y-136523320D01*
X232828574Y-136415147D01*
X232551335Y-136360000D01*
X232268665Y-136360000D01*
X232056624Y-136402178D01*
X231855257Y-136200811D01*
X231832237Y-136172761D01*
X231720319Y-136080912D01*
X231592632Y-136012662D01*
X231454084Y-135970634D01*
X231346104Y-135959999D01*
X231309999Y-135956443D01*
X231273894Y-135959999D01*
X229378095Y-135959999D01*
X229341998Y-135956444D01*
X229305901Y-135959999D01*
X229305894Y-135959999D01*
X229212131Y-135969234D01*
X229197913Y-135970634D01*
X229171439Y-135978665D01*
X229059366Y-136012662D01*
X228931679Y-136080912D01*
X228819761Y-136172761D01*
X228796745Y-136200806D01*
X228277711Y-136719841D01*
X228067420Y-136563963D01*
X227813087Y-136443754D01*
X227679039Y-136403096D01*
X227457000Y-136525085D01*
X227457000Y-137668000D01*
X227477000Y-137668000D01*
X227477000Y-137922000D01*
X227457000Y-137922000D01*
X227457000Y-139064915D01*
X227679039Y-139186904D01*
X227813087Y-139146246D01*
X228034999Y-139041360D01*
X228035000Y-140833884D01*
X228031443Y-140869999D01*
X228045634Y-141014084D01*
X228049407Y-141026520D01*
X228087663Y-141152632D01*
X228155913Y-141280319D01*
X228247762Y-141392237D01*
X228275807Y-141415253D01*
X231048201Y-144187647D01*
X230993093Y-144198609D01*
X230739220Y-144303767D01*
X230510739Y-144456433D01*
X230316433Y-144650739D01*
X230163767Y-144879220D01*
X230058609Y-145133093D01*
X230005000Y-145402604D01*
X230005000Y-145677396D01*
X230058609Y-145946907D01*
X230163767Y-146200780D01*
X230316433Y-146429261D01*
X230510739Y-146623567D01*
X230739220Y-146776233D01*
X230993093Y-146881391D01*
X231262604Y-146935000D01*
X231537396Y-146935000D01*
X231806907Y-146881391D01*
X232060780Y-146776233D01*
X232289261Y-146623567D01*
X232420000Y-146492828D01*
X232550739Y-146623567D01*
X232779220Y-146776233D01*
X233033093Y-146881391D01*
X233302604Y-146935000D01*
X233577396Y-146935000D01*
X233846907Y-146881391D01*
X234100780Y-146776233D01*
X234329261Y-146623567D01*
X234523567Y-146429261D01*
X234676233Y-146200780D01*
X234702127Y-146138268D01*
X235300395Y-145540000D01*
X234702127Y-144941732D01*
X234676233Y-144879220D01*
X234523567Y-144650739D01*
X234329261Y-144456433D01*
X234201170Y-144370845D01*
X234322604Y-144395000D01*
X234597396Y-144395000D01*
X234754478Y-144363755D01*
X234695469Y-144575863D01*
X235480000Y-145360395D01*
X235494143Y-145346253D01*
X235673748Y-145525858D01*
X235659605Y-145540000D01*
X235673748Y-145554143D01*
X235494142Y-145733748D01*
X235480000Y-145719605D01*
X234695469Y-146504137D01*
X234762206Y-146744025D01*
X235010892Y-146860924D01*
X235277606Y-146927061D01*
X235552097Y-146939895D01*
X235805001Y-146901768D01*
X235805001Y-146904534D01*
X235800720Y-146948003D01*
X235805001Y-146991472D01*
X235805001Y-146991479D01*
X235805002Y-146991486D01*
X235805002Y-147443419D01*
X234693421Y-148555001D01*
X229585908Y-148555001D01*
X229666404Y-148360665D01*
X229735000Y-148015807D01*
X229735000Y-147664193D01*
X229666404Y-147319335D01*
X229531847Y-146994485D01*
X229336500Y-146702129D01*
X229087871Y-146453500D01*
X228795515Y-146258153D01*
X228470665Y-146123596D01*
X228125807Y-146055000D01*
X227774193Y-146055000D01*
X227429335Y-146123596D01*
X227104485Y-146258153D01*
X226812129Y-146453500D01*
X226563500Y-146702129D01*
X226368153Y-146994485D01*
X226233596Y-147319335D01*
X226200000Y-147488235D01*
X226166404Y-147319335D01*
X226031847Y-146994485D01*
X225836500Y-146702129D01*
X225587871Y-146453500D01*
X225295515Y-146258153D01*
X224970665Y-146123596D01*
X224625807Y-146055000D01*
X224274193Y-146055000D01*
X223929335Y-146123596D01*
X223604485Y-146258153D01*
X223312129Y-146453500D01*
X223063500Y-146702129D01*
X222868153Y-146994485D01*
X222756827Y-147263251D01*
X222075001Y-146581425D01*
X222075001Y-144493470D01*
X222079282Y-144450001D01*
X222075001Y-144406532D01*
X222075001Y-144406524D01*
X222066124Y-144316392D01*
X222114494Y-144290537D01*
X222211185Y-144211185D01*
X222290537Y-144114494D01*
X222349502Y-144004180D01*
X222385812Y-143884482D01*
X222398072Y-143760000D01*
X222398072Y-142240000D01*
X222385812Y-142115518D01*
X222349502Y-141995820D01*
X222290537Y-141885506D01*
X222211185Y-141788815D01*
X222114494Y-141709463D01*
X222004180Y-141650498D01*
X221885000Y-141614345D01*
X221885000Y-139230473D01*
X221964250Y-139230000D01*
X222123000Y-139071250D01*
X222123000Y-137922000D01*
X222377000Y-137922000D01*
X222377000Y-139071250D01*
X222535750Y-139230000D01*
X223050000Y-139233072D01*
X223174482Y-139220812D01*
X223294180Y-139184502D01*
X223404494Y-139125537D01*
X223501185Y-139046185D01*
X223580537Y-138949494D01*
X223639502Y-138839180D01*
X223675812Y-138719482D01*
X223678231Y-138694920D01*
X223826586Y-138858519D01*
X224052580Y-139026037D01*
X224306913Y-139146246D01*
X224440961Y-139186904D01*
X224663000Y-139064915D01*
X224663000Y-137922000D01*
X224917000Y-137922000D01*
X224917000Y-139064915D01*
X225139039Y-139186904D01*
X225273087Y-139146246D01*
X225527420Y-139026037D01*
X225753414Y-138858519D01*
X225942385Y-138650131D01*
X226060000Y-138454018D01*
X226177615Y-138650131D01*
X226366586Y-138858519D01*
X226592580Y-139026037D01*
X226846913Y-139146246D01*
X226980961Y-139186904D01*
X227203000Y-139064915D01*
X227203000Y-137922000D01*
X224917000Y-137922000D01*
X224663000Y-137922000D01*
X222377000Y-137922000D01*
X222123000Y-137922000D01*
X222103000Y-137922000D01*
X222103000Y-137668000D01*
X222123000Y-137668000D01*
X222123000Y-136518750D01*
X222377000Y-136518750D01*
X222377000Y-137668000D01*
X224663000Y-137668000D01*
X224663000Y-136525085D01*
X224917000Y-136525085D01*
X224917000Y-137668000D01*
X227203000Y-137668000D01*
X227203000Y-136525085D01*
X226980961Y-136403096D01*
X226846913Y-136443754D01*
X226592580Y-136563963D01*
X226366586Y-136731481D01*
X226177615Y-136939869D01*
X226060000Y-137135982D01*
X225942385Y-136939869D01*
X225753414Y-136731481D01*
X225527420Y-136563963D01*
X225273087Y-136443754D01*
X225139039Y-136403096D01*
X224917000Y-136525085D01*
X224663000Y-136525085D01*
X224440961Y-136403096D01*
X224306913Y-136443754D01*
X224052580Y-136563963D01*
X223826586Y-136731481D01*
X223678231Y-136895080D01*
X223675812Y-136870518D01*
X223639502Y-136750820D01*
X223580537Y-136640506D01*
X223501185Y-136543815D01*
X223404494Y-136464463D01*
X223294180Y-136405498D01*
X223174482Y-136369188D01*
X223050000Y-136356928D01*
X222535750Y-136360000D01*
X222377000Y-136518750D01*
X222123000Y-136518750D01*
X221964250Y-136360000D01*
X221885000Y-136359527D01*
X221885000Y-131791578D01*
X222073561Y-131603017D01*
X222108665Y-131610000D01*
X222391335Y-131610000D01*
X222668574Y-131554853D01*
X222929727Y-131446680D01*
X223164759Y-131289637D01*
X223364637Y-131089759D01*
X223520000Y-130857241D01*
X223675363Y-131089759D01*
X223875241Y-131289637D01*
X224110273Y-131446680D01*
X224371426Y-131554853D01*
X224648665Y-131610000D01*
X224931335Y-131610000D01*
X225208574Y-131554853D01*
X225469727Y-131446680D01*
X225704759Y-131289637D01*
X225904637Y-131089759D01*
X226060000Y-130857241D01*
X226215363Y-131089759D01*
X226415241Y-131289637D01*
X226650273Y-131446680D01*
X226911426Y-131554853D01*
X227188665Y-131610000D01*
X227471335Y-131610000D01*
X227748574Y-131554853D01*
X228009727Y-131446680D01*
X228244759Y-131289637D01*
X228444637Y-131089759D01*
X228600000Y-130857241D01*
X228755363Y-131089759D01*
X228955241Y-131289637D01*
X229190273Y-131446680D01*
X229451426Y-131554853D01*
X229728665Y-131610000D01*
X230011335Y-131610000D01*
X230288574Y-131554853D01*
X230549727Y-131446680D01*
X230784759Y-131289637D01*
X230984637Y-131089759D01*
X231140000Y-130857241D01*
X231295363Y-131089759D01*
G36*
X236375363Y-138709759D02*
G01*
X236575241Y-138909637D01*
X236810273Y-139066680D01*
X237071426Y-139174853D01*
X237348665Y-139230000D01*
X237631335Y-139230000D01*
X237908574Y-139174853D01*
X238169727Y-139066680D01*
X238255272Y-139009520D01*
X245279944Y-146034193D01*
X245302960Y-146062238D01*
X245331004Y-146085253D01*
X245414878Y-146154087D01*
X245542564Y-146222337D01*
X245681113Y-146264365D01*
X245708024Y-146267015D01*
X245816433Y-146429261D01*
X246010739Y-146623567D01*
X246239220Y-146776233D01*
X246493093Y-146881391D01*
X246762604Y-146935000D01*
X247037396Y-146935000D01*
X247306907Y-146881391D01*
X247560780Y-146776233D01*
X247789261Y-146623567D01*
X247920000Y-146492828D01*
X248050739Y-146623567D01*
X248279220Y-146776233D01*
X248533093Y-146881391D01*
X248802604Y-146935000D01*
X249077396Y-146935000D01*
X249346907Y-146881391D01*
X249600780Y-146776233D01*
X249829261Y-146623567D01*
X250023567Y-146429261D01*
X250176233Y-146200780D01*
X250202127Y-146138268D01*
X250800395Y-145540000D01*
X250202127Y-144941732D01*
X250176233Y-144879220D01*
X250023567Y-144650739D01*
X249829261Y-144456433D01*
X249701170Y-144370845D01*
X249822604Y-144395000D01*
X250097396Y-144395000D01*
X250254478Y-144363755D01*
X250195469Y-144575863D01*
X250980000Y-145360395D01*
X250994143Y-145346253D01*
X251173748Y-145525858D01*
X251159605Y-145540000D01*
X251173748Y-145554143D01*
X250994142Y-145733748D01*
X250980000Y-145719605D01*
X250195469Y-146504137D01*
X250262206Y-146744025D01*
X250510892Y-146860924D01*
X250777606Y-146927061D01*
X251052097Y-146939895D01*
X251305001Y-146901768D01*
X251305002Y-148555001D01*
X245085908Y-148555001D01*
X245166404Y-148360665D01*
X245235000Y-148015807D01*
X245235000Y-147664193D01*
X245166404Y-147319335D01*
X245031847Y-146994485D01*
X244836500Y-146702129D01*
X244587871Y-146453500D01*
X244295515Y-146258153D01*
X243970665Y-146123596D01*
X243625807Y-146055000D01*
X243274193Y-146055000D01*
X242929335Y-146123596D01*
X242604485Y-146258153D01*
X242312129Y-146453500D01*
X242063500Y-146702129D01*
X241868153Y-146994485D01*
X241733596Y-147319335D01*
X241700000Y-147488235D01*
X241666404Y-147319335D01*
X241531847Y-146994485D01*
X241336500Y-146702129D01*
X241087871Y-146453500D01*
X240795515Y-146258153D01*
X240470665Y-146123596D01*
X240125807Y-146055000D01*
X239774193Y-146055000D01*
X239429335Y-146123596D01*
X239104485Y-146258153D01*
X238812129Y-146453500D01*
X238563500Y-146702129D01*
X238368153Y-146994485D01*
X238256827Y-147263251D01*
X237575001Y-146581425D01*
X237575001Y-145002668D01*
X237579282Y-144959199D01*
X237575001Y-144915730D01*
X237575001Y-144493470D01*
X237579282Y-144450001D01*
X237575001Y-144406532D01*
X237575001Y-144406524D01*
X237566124Y-144316392D01*
X237614494Y-144290537D01*
X237711185Y-144211185D01*
X237790537Y-144114494D01*
X237849502Y-144004180D01*
X237885812Y-143884482D01*
X237898072Y-143760000D01*
X237898072Y-142240000D01*
X237885812Y-142115518D01*
X237849502Y-141995820D01*
X237790537Y-141885506D01*
X237711185Y-141788815D01*
X237614494Y-141709463D01*
X237504180Y-141650498D01*
X237384482Y-141614188D01*
X237260000Y-141601928D01*
X235740000Y-141601928D01*
X235615518Y-141614188D01*
X235495820Y-141650498D01*
X235385506Y-141709463D01*
X235288815Y-141788815D01*
X235242581Y-141845152D01*
X235120780Y-141763767D01*
X234866907Y-141658609D01*
X234749752Y-141635306D01*
X232344446Y-139230000D01*
X232551335Y-139230000D01*
X232828574Y-139174853D01*
X233089727Y-139066680D01*
X233324759Y-138909637D01*
X233524637Y-138709759D01*
X233680000Y-138477241D01*
X233835363Y-138709759D01*
X234035241Y-138909637D01*
X234270273Y-139066680D01*
X234531426Y-139174853D01*
X234808665Y-139230000D01*
X235091335Y-139230000D01*
X235368574Y-139174853D01*
X235629727Y-139066680D01*
X235864759Y-138909637D01*
X236064637Y-138709759D01*
X236220000Y-138477241D01*
X236375363Y-138709759D01*
G37*
X236375363Y-138709759D02*
X236575241Y-138909637D01*
X236810273Y-139066680D01*
X237071426Y-139174853D01*
X237348665Y-139230000D01*
X237631335Y-139230000D01*
X237908574Y-139174853D01*
X238169727Y-139066680D01*
X238255272Y-139009520D01*
X245279944Y-146034193D01*
X245302960Y-146062238D01*
X245331004Y-146085253D01*
X245414878Y-146154087D01*
X245542564Y-146222337D01*
X245681113Y-146264365D01*
X245708024Y-146267015D01*
X245816433Y-146429261D01*
X246010739Y-146623567D01*
X246239220Y-146776233D01*
X246493093Y-146881391D01*
X246762604Y-146935000D01*
X247037396Y-146935000D01*
X247306907Y-146881391D01*
X247560780Y-146776233D01*
X247789261Y-146623567D01*
X247920000Y-146492828D01*
X248050739Y-146623567D01*
X248279220Y-146776233D01*
X248533093Y-146881391D01*
X248802604Y-146935000D01*
X249077396Y-146935000D01*
X249346907Y-146881391D01*
X249600780Y-146776233D01*
X249829261Y-146623567D01*
X250023567Y-146429261D01*
X250176233Y-146200780D01*
X250202127Y-146138268D01*
X250800395Y-145540000D01*
X250202127Y-144941732D01*
X250176233Y-144879220D01*
X250023567Y-144650739D01*
X249829261Y-144456433D01*
X249701170Y-144370845D01*
X249822604Y-144395000D01*
X250097396Y-144395000D01*
X250254478Y-144363755D01*
X250195469Y-144575863D01*
X250980000Y-145360395D01*
X250994143Y-145346253D01*
X251173748Y-145525858D01*
X251159605Y-145540000D01*
X251173748Y-145554143D01*
X250994142Y-145733748D01*
X250980000Y-145719605D01*
X250195469Y-146504137D01*
X250262206Y-146744025D01*
X250510892Y-146860924D01*
X250777606Y-146927061D01*
X251052097Y-146939895D01*
X251305001Y-146901768D01*
X251305002Y-148555001D01*
X245085908Y-148555001D01*
X245166404Y-148360665D01*
X245235000Y-148015807D01*
X245235000Y-147664193D01*
X245166404Y-147319335D01*
X245031847Y-146994485D01*
X244836500Y-146702129D01*
X244587871Y-146453500D01*
X244295515Y-146258153D01*
X243970665Y-146123596D01*
X243625807Y-146055000D01*
X243274193Y-146055000D01*
X242929335Y-146123596D01*
X242604485Y-146258153D01*
X242312129Y-146453500D01*
X242063500Y-146702129D01*
X241868153Y-146994485D01*
X241733596Y-147319335D01*
X241700000Y-147488235D01*
X241666404Y-147319335D01*
X241531847Y-146994485D01*
X241336500Y-146702129D01*
X241087871Y-146453500D01*
X240795515Y-146258153D01*
X240470665Y-146123596D01*
X240125807Y-146055000D01*
X239774193Y-146055000D01*
X239429335Y-146123596D01*
X239104485Y-146258153D01*
X238812129Y-146453500D01*
X238563500Y-146702129D01*
X238368153Y-146994485D01*
X238256827Y-147263251D01*
X237575001Y-146581425D01*
X237575001Y-145002668D01*
X237579282Y-144959199D01*
X237575001Y-144915730D01*
X237575001Y-144493470D01*
X237579282Y-144450001D01*
X237575001Y-144406532D01*
X237575001Y-144406524D01*
X237566124Y-144316392D01*
X237614494Y-144290537D01*
X237711185Y-144211185D01*
X237790537Y-144114494D01*
X237849502Y-144004180D01*
X237885812Y-143884482D01*
X237898072Y-143760000D01*
X237898072Y-142240000D01*
X237885812Y-142115518D01*
X237849502Y-141995820D01*
X237790537Y-141885506D01*
X237711185Y-141788815D01*
X237614494Y-141709463D01*
X237504180Y-141650498D01*
X237384482Y-141614188D01*
X237260000Y-141601928D01*
X235740000Y-141601928D01*
X235615518Y-141614188D01*
X235495820Y-141650498D01*
X235385506Y-141709463D01*
X235288815Y-141788815D01*
X235242581Y-141845152D01*
X235120780Y-141763767D01*
X234866907Y-141658609D01*
X234749752Y-141635306D01*
X232344446Y-139230000D01*
X232551335Y-139230000D01*
X232828574Y-139174853D01*
X233089727Y-139066680D01*
X233324759Y-138909637D01*
X233524637Y-138709759D01*
X233680000Y-138477241D01*
X233835363Y-138709759D01*
X234035241Y-138909637D01*
X234270273Y-139066680D01*
X234531426Y-139174853D01*
X234808665Y-139230000D01*
X235091335Y-139230000D01*
X235368574Y-139174853D01*
X235629727Y-139066680D01*
X235864759Y-138909637D01*
X236064637Y-138709759D01*
X236220000Y-138477241D01*
X236375363Y-138709759D01*
G36*
X246124999Y-143301444D02*
G01*
X246124999Y-143423894D01*
X246121443Y-143459999D01*
X246124999Y-143496103D01*
X246124999Y-143496104D01*
X246135634Y-143604084D01*
X246177662Y-143742632D01*
X246245912Y-143870319D01*
X246337762Y-143982237D01*
X246365807Y-144005253D01*
X246548201Y-144187647D01*
X246493093Y-144198609D01*
X246239220Y-144303767D01*
X246010739Y-144456433D01*
X245895908Y-144571264D01*
X240480710Y-139156066D01*
X240513087Y-139146246D01*
X240767420Y-139026037D01*
X240993414Y-138858519D01*
X241182385Y-138650131D01*
X241291592Y-138468037D01*
X246124999Y-143301444D01*
G37*
X246124999Y-143301444D02*
X246124999Y-143423894D01*
X246121443Y-143459999D01*
X246124999Y-143496103D01*
X246124999Y-143496104D01*
X246135634Y-143604084D01*
X246177662Y-143742632D01*
X246245912Y-143870319D01*
X246337762Y-143982237D01*
X246365807Y-144005253D01*
X246548201Y-144187647D01*
X246493093Y-144198609D01*
X246239220Y-144303767D01*
X246010739Y-144456433D01*
X245895908Y-144571264D01*
X240480710Y-139156066D01*
X240513087Y-139146246D01*
X240767420Y-139026037D01*
X240993414Y-138858519D01*
X241182385Y-138650131D01*
X241291592Y-138468037D01*
X246124999Y-143301444D01*
G36*
X240157000Y-137668000D02*
G01*
X240177000Y-137668000D01*
X240177000Y-137922000D01*
X240157000Y-137922000D01*
X240157000Y-137942000D01*
X239903000Y-137942000D01*
X239903000Y-137922000D01*
X239883000Y-137922000D01*
X239883000Y-137668000D01*
X239903000Y-137668000D01*
X239903000Y-137648000D01*
X240157000Y-137648000D01*
X240157000Y-137668000D01*
G37*
X240157000Y-137668000D02*
X240177000Y-137668000D01*
X240177000Y-137922000D01*
X240157000Y-137922000D01*
X240157000Y-137942000D01*
X239903000Y-137942000D01*
X239903000Y-137922000D01*
X239883000Y-137922000D01*
X239883000Y-137668000D01*
X239903000Y-137668000D01*
X239903000Y-137648000D01*
X240157000Y-137648000D01*
X240157000Y-137668000D01*
G36*
X209443470Y-120595049D02*
G01*
X209471183Y-120628817D01*
X209504951Y-120656530D01*
X209504953Y-120656532D01*
X209533216Y-120679727D01*
X209605941Y-120739411D01*
X209759687Y-120821589D01*
X209875903Y-120856843D01*
X209926509Y-120872195D01*
X209941306Y-120873652D01*
X210056523Y-120885000D01*
X210056531Y-120885000D01*
X210100000Y-120889281D01*
X210143469Y-120885000D01*
X214365479Y-120885000D01*
X214385363Y-120914759D01*
X214585241Y-121114637D01*
X214820273Y-121271680D01*
X215081426Y-121379853D01*
X215358665Y-121435000D01*
X215641335Y-121435000D01*
X215865001Y-121390509D01*
X215865001Y-127112098D01*
X215711816Y-127073700D01*
X215429488Y-127059783D01*
X215149870Y-127101213D01*
X214883708Y-127196397D01*
X214758486Y-127263329D01*
X214686903Y-127507298D01*
X215500000Y-128320395D01*
X215514143Y-128306253D01*
X215693748Y-128485858D01*
X215679605Y-128500000D01*
X215693748Y-128514143D01*
X215514143Y-128693748D01*
X215500000Y-128679605D01*
X214686903Y-129492702D01*
X214758486Y-129736671D01*
X215013996Y-129857571D01*
X215288184Y-129926300D01*
X215570512Y-129940217D01*
X215850130Y-129898787D01*
X215865001Y-129893469D01*
X215865001Y-134715552D01*
X215853375Y-134727178D01*
X215641335Y-134685000D01*
X215358665Y-134685000D01*
X215146625Y-134727178D01*
X213175259Y-132755813D01*
X213152238Y-132727762D01*
X213040320Y-132635913D01*
X212912633Y-132567663D01*
X212774085Y-132525635D01*
X212666105Y-132515000D01*
X212630000Y-132511444D01*
X212593895Y-132515000D01*
X210211041Y-132515000D01*
X210116031Y-132337248D01*
X209911714Y-132088286D01*
X209662752Y-131883969D01*
X209378715Y-131732148D01*
X209070516Y-131638657D01*
X208830322Y-131615000D01*
X208436579Y-131615000D01*
X209295050Y-130756529D01*
X209328817Y-130728817D01*
X209439411Y-130594059D01*
X209521589Y-130440313D01*
X209572195Y-130273490D01*
X209580096Y-130193270D01*
X209828715Y-130117852D01*
X210112752Y-129966031D01*
X210361714Y-129761714D01*
X210566031Y-129512752D01*
X210717852Y-129228715D01*
X210811343Y-128920516D01*
X210842911Y-128600000D01*
X210840007Y-128570512D01*
X214059783Y-128570512D01*
X214101213Y-128850130D01*
X214196397Y-129116292D01*
X214263329Y-129241514D01*
X214507298Y-129313097D01*
X215320395Y-128500000D01*
X214507298Y-127686903D01*
X214263329Y-127758486D01*
X214142429Y-128013996D01*
X214073700Y-128288184D01*
X214059783Y-128570512D01*
X210840007Y-128570512D01*
X210811343Y-128279484D01*
X210717852Y-127971285D01*
X210566031Y-127687248D01*
X210361714Y-127438286D01*
X210112752Y-127233969D01*
X209828715Y-127082148D01*
X209536032Y-126993364D01*
X209614637Y-126914759D01*
X209771680Y-126679727D01*
X209879853Y-126418574D01*
X209935000Y-126141335D01*
X209935000Y-125858665D01*
X209879853Y-125581426D01*
X209777775Y-125334988D01*
X210029484Y-125411343D01*
X210269678Y-125435000D01*
X210930322Y-125435000D01*
X211170516Y-125411343D01*
X211478715Y-125317852D01*
X211762752Y-125166031D01*
X212011714Y-124961714D01*
X212216031Y-124712752D01*
X212367852Y-124428715D01*
X212461343Y-124120516D01*
X212492911Y-123800000D01*
X212461343Y-123479484D01*
X212367852Y-123171285D01*
X212216031Y-122887248D01*
X212011714Y-122638286D01*
X211762752Y-122433969D01*
X211478715Y-122282148D01*
X211170516Y-122188657D01*
X210930322Y-122165000D01*
X210269678Y-122165000D01*
X210029484Y-122188657D01*
X209721285Y-122282148D01*
X209437248Y-122433969D01*
X209188286Y-122638286D01*
X208983969Y-122887248D01*
X208832148Y-123171285D01*
X208738657Y-123479484D01*
X208707089Y-123800000D01*
X208738657Y-124120516D01*
X208832148Y-124428715D01*
X208938991Y-124628604D01*
X208918574Y-124620147D01*
X208641335Y-124565000D01*
X208358665Y-124565000D01*
X208134999Y-124609491D01*
X208134999Y-121916579D01*
X209295050Y-120756529D01*
X209328817Y-120728817D01*
X209369105Y-120679727D01*
X209439410Y-120594060D01*
X209439411Y-120594059D01*
X209440480Y-120592059D01*
X209443470Y-120595049D01*
G37*
X209443470Y-120595049D02*
X209471183Y-120628817D01*
X209504951Y-120656530D01*
X209504953Y-120656532D01*
X209533216Y-120679727D01*
X209605941Y-120739411D01*
X209759687Y-120821589D01*
X209875903Y-120856843D01*
X209926509Y-120872195D01*
X209941306Y-120873652D01*
X210056523Y-120885000D01*
X210056531Y-120885000D01*
X210100000Y-120889281D01*
X210143469Y-120885000D01*
X214365479Y-120885000D01*
X214385363Y-120914759D01*
X214585241Y-121114637D01*
X214820273Y-121271680D01*
X215081426Y-121379853D01*
X215358665Y-121435000D01*
X215641335Y-121435000D01*
X215865001Y-121390509D01*
X215865001Y-127112098D01*
X215711816Y-127073700D01*
X215429488Y-127059783D01*
X215149870Y-127101213D01*
X214883708Y-127196397D01*
X214758486Y-127263329D01*
X214686903Y-127507298D01*
X215500000Y-128320395D01*
X215514143Y-128306253D01*
X215693748Y-128485858D01*
X215679605Y-128500000D01*
X215693748Y-128514143D01*
X215514143Y-128693748D01*
X215500000Y-128679605D01*
X214686903Y-129492702D01*
X214758486Y-129736671D01*
X215013996Y-129857571D01*
X215288184Y-129926300D01*
X215570512Y-129940217D01*
X215850130Y-129898787D01*
X215865001Y-129893469D01*
X215865001Y-134715552D01*
X215853375Y-134727178D01*
X215641335Y-134685000D01*
X215358665Y-134685000D01*
X215146625Y-134727178D01*
X213175259Y-132755813D01*
X213152238Y-132727762D01*
X213040320Y-132635913D01*
X212912633Y-132567663D01*
X212774085Y-132525635D01*
X212666105Y-132515000D01*
X212630000Y-132511444D01*
X212593895Y-132515000D01*
X210211041Y-132515000D01*
X210116031Y-132337248D01*
X209911714Y-132088286D01*
X209662752Y-131883969D01*
X209378715Y-131732148D01*
X209070516Y-131638657D01*
X208830322Y-131615000D01*
X208436579Y-131615000D01*
X209295050Y-130756529D01*
X209328817Y-130728817D01*
X209439411Y-130594059D01*
X209521589Y-130440313D01*
X209572195Y-130273490D01*
X209580096Y-130193270D01*
X209828715Y-130117852D01*
X210112752Y-129966031D01*
X210361714Y-129761714D01*
X210566031Y-129512752D01*
X210717852Y-129228715D01*
X210811343Y-128920516D01*
X210842911Y-128600000D01*
X210840007Y-128570512D01*
X214059783Y-128570512D01*
X214101213Y-128850130D01*
X214196397Y-129116292D01*
X214263329Y-129241514D01*
X214507298Y-129313097D01*
X215320395Y-128500000D01*
X214507298Y-127686903D01*
X214263329Y-127758486D01*
X214142429Y-128013996D01*
X214073700Y-128288184D01*
X214059783Y-128570512D01*
X210840007Y-128570512D01*
X210811343Y-128279484D01*
X210717852Y-127971285D01*
X210566031Y-127687248D01*
X210361714Y-127438286D01*
X210112752Y-127233969D01*
X209828715Y-127082148D01*
X209536032Y-126993364D01*
X209614637Y-126914759D01*
X209771680Y-126679727D01*
X209879853Y-126418574D01*
X209935000Y-126141335D01*
X209935000Y-125858665D01*
X209879853Y-125581426D01*
X209777775Y-125334988D01*
X210029484Y-125411343D01*
X210269678Y-125435000D01*
X210930322Y-125435000D01*
X211170516Y-125411343D01*
X211478715Y-125317852D01*
X211762752Y-125166031D01*
X212011714Y-124961714D01*
X212216031Y-124712752D01*
X212367852Y-124428715D01*
X212461343Y-124120516D01*
X212492911Y-123800000D01*
X212461343Y-123479484D01*
X212367852Y-123171285D01*
X212216031Y-122887248D01*
X212011714Y-122638286D01*
X211762752Y-122433969D01*
X211478715Y-122282148D01*
X211170516Y-122188657D01*
X210930322Y-122165000D01*
X210269678Y-122165000D01*
X210029484Y-122188657D01*
X209721285Y-122282148D01*
X209437248Y-122433969D01*
X209188286Y-122638286D01*
X208983969Y-122887248D01*
X208832148Y-123171285D01*
X208738657Y-123479484D01*
X208707089Y-123800000D01*
X208738657Y-124120516D01*
X208832148Y-124428715D01*
X208938991Y-124628604D01*
X208918574Y-124620147D01*
X208641335Y-124565000D01*
X208358665Y-124565000D01*
X208134999Y-124609491D01*
X208134999Y-121916579D01*
X209295050Y-120756529D01*
X209328817Y-120728817D01*
X209369105Y-120679727D01*
X209439410Y-120594060D01*
X209439411Y-120594059D01*
X209440480Y-120592059D01*
X209443470Y-120595049D01*
G36*
X203671285Y-115117852D02*
G01*
X203979484Y-115211343D01*
X204065001Y-115219766D01*
X204065000Y-121980234D01*
X203979484Y-121988657D01*
X203671285Y-122082148D01*
X203387248Y-122233969D01*
X203138286Y-122438286D01*
X202933969Y-122687248D01*
X202782148Y-122971285D01*
X202688657Y-123279484D01*
X202657089Y-123600000D01*
X202688657Y-123920516D01*
X202782148Y-124228715D01*
X202933969Y-124512752D01*
X203075424Y-124685116D01*
X202918574Y-124620147D01*
X202641335Y-124565000D01*
X202358665Y-124565000D01*
X202081426Y-124620147D01*
X201820273Y-124728320D01*
X201585241Y-124885363D01*
X201385363Y-125085241D01*
X201228320Y-125320273D01*
X201120147Y-125581426D01*
X201065000Y-125858665D01*
X201065000Y-126141335D01*
X201120147Y-126418574D01*
X201228320Y-126679727D01*
X201385363Y-126914759D01*
X201435604Y-126965000D01*
X201273000Y-126965000D01*
X200956468Y-127021193D01*
X200685000Y-127127124D01*
X200685000Y-120072876D01*
X200956468Y-120178807D01*
X201273000Y-120235000D01*
X201773000Y-120235000D01*
X201773000Y-118727000D01*
X202027000Y-118727000D01*
X202027000Y-120235000D01*
X202527000Y-120235000D01*
X202843532Y-120178807D01*
X203143020Y-120061942D01*
X203413954Y-119888895D01*
X203645922Y-119666317D01*
X203830010Y-119402761D01*
X203959144Y-119108355D01*
X203990124Y-118980434D01*
X203870777Y-118727000D01*
X202027000Y-118727000D01*
X201773000Y-118727000D01*
X201753000Y-118727000D01*
X201753000Y-118473000D01*
X201773000Y-118473000D01*
X201773000Y-118453000D01*
X202027000Y-118453000D01*
X202027000Y-118473000D01*
X203870777Y-118473000D01*
X203990124Y-118219566D01*
X203959144Y-118091645D01*
X203830010Y-117797239D01*
X203645922Y-117533683D01*
X203413954Y-117311105D01*
X203264032Y-117215349D01*
X203414759Y-117114637D01*
X203614637Y-116914759D01*
X203771680Y-116679727D01*
X203879853Y-116418574D01*
X203935000Y-116141335D01*
X203935000Y-115858665D01*
X203879853Y-115581426D01*
X203771680Y-115320273D01*
X203617061Y-115088869D01*
X203671285Y-115117852D01*
G37*
X203671285Y-115117852D02*
X203979484Y-115211343D01*
X204065001Y-115219766D01*
X204065000Y-121980234D01*
X203979484Y-121988657D01*
X203671285Y-122082148D01*
X203387248Y-122233969D01*
X203138286Y-122438286D01*
X202933969Y-122687248D01*
X202782148Y-122971285D01*
X202688657Y-123279484D01*
X202657089Y-123600000D01*
X202688657Y-123920516D01*
X202782148Y-124228715D01*
X202933969Y-124512752D01*
X203075424Y-124685116D01*
X202918574Y-124620147D01*
X202641335Y-124565000D01*
X202358665Y-124565000D01*
X202081426Y-124620147D01*
X201820273Y-124728320D01*
X201585241Y-124885363D01*
X201385363Y-125085241D01*
X201228320Y-125320273D01*
X201120147Y-125581426D01*
X201065000Y-125858665D01*
X201065000Y-126141335D01*
X201120147Y-126418574D01*
X201228320Y-126679727D01*
X201385363Y-126914759D01*
X201435604Y-126965000D01*
X201273000Y-126965000D01*
X200956468Y-127021193D01*
X200685000Y-127127124D01*
X200685000Y-120072876D01*
X200956468Y-120178807D01*
X201273000Y-120235000D01*
X201773000Y-120235000D01*
X201773000Y-118727000D01*
X202027000Y-118727000D01*
X202027000Y-120235000D01*
X202527000Y-120235000D01*
X202843532Y-120178807D01*
X203143020Y-120061942D01*
X203413954Y-119888895D01*
X203645922Y-119666317D01*
X203830010Y-119402761D01*
X203959144Y-119108355D01*
X203990124Y-118980434D01*
X203870777Y-118727000D01*
X202027000Y-118727000D01*
X201773000Y-118727000D01*
X201753000Y-118727000D01*
X201753000Y-118473000D01*
X201773000Y-118473000D01*
X201773000Y-118453000D01*
X202027000Y-118453000D01*
X202027000Y-118473000D01*
X203870777Y-118473000D01*
X203990124Y-118219566D01*
X203959144Y-118091645D01*
X203830010Y-117797239D01*
X203645922Y-117533683D01*
X203413954Y-117311105D01*
X203264032Y-117215349D01*
X203414759Y-117114637D01*
X203614637Y-116914759D01*
X203771680Y-116679727D01*
X203879853Y-116418574D01*
X203935000Y-116141335D01*
X203935000Y-115858665D01*
X203879853Y-115581426D01*
X203771680Y-115320273D01*
X203617061Y-115088869D01*
X203671285Y-115117852D01*
G36*
X206364999Y-117606530D02*
G01*
X206360718Y-117649999D01*
X206364999Y-117693468D01*
X206364999Y-117693475D01*
X206374587Y-117790820D01*
X206377804Y-117823489D01*
X206382716Y-117839680D01*
X206428410Y-117990311D01*
X206510588Y-118144057D01*
X206597583Y-118250060D01*
X206588657Y-118279484D01*
X206557089Y-118600000D01*
X206588657Y-118920516D01*
X206682148Y-119228715D01*
X206833969Y-119512752D01*
X207038286Y-119761714D01*
X207287248Y-119966031D01*
X207479584Y-120068837D01*
X206654950Y-120893472D01*
X206621183Y-120921184D01*
X206593470Y-120954952D01*
X206593467Y-120954955D01*
X206510589Y-121055942D01*
X206428411Y-121209688D01*
X206377804Y-121376511D01*
X206360718Y-121550001D01*
X206365000Y-121593480D01*
X206365000Y-122358915D01*
X206212752Y-122233969D01*
X205928715Y-122082148D01*
X205620516Y-121988657D01*
X205535000Y-121980234D01*
X205535000Y-115219766D01*
X205620516Y-115211343D01*
X205928715Y-115117852D01*
X206212752Y-114966031D01*
X206364999Y-114841085D01*
X206364999Y-117606530D01*
G37*
X206364999Y-117606530D02*
X206360718Y-117649999D01*
X206364999Y-117693468D01*
X206364999Y-117693475D01*
X206374587Y-117790820D01*
X206377804Y-117823489D01*
X206382716Y-117839680D01*
X206428410Y-117990311D01*
X206510588Y-118144057D01*
X206597583Y-118250060D01*
X206588657Y-118279484D01*
X206557089Y-118600000D01*
X206588657Y-118920516D01*
X206682148Y-119228715D01*
X206833969Y-119512752D01*
X207038286Y-119761714D01*
X207287248Y-119966031D01*
X207479584Y-120068837D01*
X206654950Y-120893472D01*
X206621183Y-120921184D01*
X206593470Y-120954952D01*
X206593467Y-120954955D01*
X206510589Y-121055942D01*
X206428411Y-121209688D01*
X206377804Y-121376511D01*
X206360718Y-121550001D01*
X206365000Y-121593480D01*
X206365000Y-122358915D01*
X206212752Y-122233969D01*
X205928715Y-122082148D01*
X205620516Y-121988657D01*
X205535000Y-121980234D01*
X205535000Y-115219766D01*
X205620516Y-115211343D01*
X205928715Y-115117852D01*
X206212752Y-114966031D01*
X206364999Y-114841085D01*
X206364999Y-117606530D01*
G36*
X212444093Y-104595049D02*
G01*
X212471806Y-104628817D01*
X212505574Y-104656530D01*
X212505576Y-104656532D01*
X212574080Y-104712752D01*
X212606564Y-104739411D01*
X212760310Y-104821589D01*
X212927133Y-104872195D01*
X213057146Y-104885000D01*
X213057156Y-104885000D01*
X213100622Y-104889281D01*
X213144088Y-104885000D01*
X216775555Y-104885000D01*
X216105809Y-105554747D01*
X216077764Y-105577763D01*
X215985915Y-105689681D01*
X215917665Y-105817368D01*
X215875636Y-105955916D01*
X215861445Y-106100001D01*
X215865002Y-106136116D01*
X215865002Y-110989491D01*
X215641335Y-110945000D01*
X215358665Y-110945000D01*
X215081426Y-111000147D01*
X214820273Y-111108320D01*
X214585241Y-111265363D01*
X214385363Y-111465241D01*
X214228320Y-111700273D01*
X214120147Y-111961426D01*
X214065000Y-112238665D01*
X214065000Y-112521335D01*
X214120147Y-112798574D01*
X214228320Y-113059727D01*
X214385363Y-113294759D01*
X214585241Y-113494637D01*
X214820273Y-113651680D01*
X215081426Y-113759853D01*
X215358665Y-113815000D01*
X215641335Y-113815000D01*
X215865002Y-113770509D01*
X215865002Y-118609491D01*
X215641335Y-118565000D01*
X215358665Y-118565000D01*
X215081426Y-118620147D01*
X214820273Y-118728320D01*
X214585241Y-118885363D01*
X214385363Y-119085241D01*
X214365479Y-119115000D01*
X210752347Y-119115000D01*
X210811343Y-118920516D01*
X210842911Y-118600000D01*
X210811343Y-118279484D01*
X210717852Y-117971285D01*
X210566031Y-117687248D01*
X210361714Y-117438286D01*
X210112752Y-117233969D01*
X209828715Y-117082148D01*
X209536032Y-116993364D01*
X209614637Y-116914759D01*
X209771680Y-116679727D01*
X209879853Y-116418574D01*
X209935000Y-116141335D01*
X209935000Y-115858665D01*
X209879853Y-115581426D01*
X209777775Y-115334988D01*
X210029484Y-115411343D01*
X210269678Y-115435000D01*
X210930322Y-115435000D01*
X211170516Y-115411343D01*
X211478715Y-115317852D01*
X211762752Y-115166031D01*
X212011714Y-114961714D01*
X212216031Y-114712752D01*
X212367852Y-114428715D01*
X212461343Y-114120516D01*
X212492911Y-113800000D01*
X212461343Y-113479484D01*
X212367852Y-113171285D01*
X212216031Y-112887248D01*
X212011714Y-112638286D01*
X211762752Y-112433969D01*
X211478715Y-112282148D01*
X211170516Y-112188657D01*
X210930322Y-112165000D01*
X210269678Y-112165000D01*
X210029484Y-112188657D01*
X209721285Y-112282148D01*
X209437248Y-112433969D01*
X209188286Y-112638286D01*
X208983969Y-112887248D01*
X208832148Y-113171285D01*
X208738657Y-113479484D01*
X208707089Y-113800000D01*
X208738657Y-114120516D01*
X208832148Y-114428715D01*
X208938991Y-114628604D01*
X208918574Y-114620147D01*
X208641335Y-114565000D01*
X208358665Y-114565000D01*
X208134999Y-114609491D01*
X208134999Y-111916579D01*
X209295050Y-110756529D01*
X209328817Y-110728817D01*
X209439411Y-110594059D01*
X209521589Y-110440313D01*
X209572195Y-110273490D01*
X209580096Y-110193270D01*
X209828715Y-110117852D01*
X210112752Y-109966031D01*
X210361714Y-109761714D01*
X210566031Y-109512752D01*
X210717852Y-109228715D01*
X210811343Y-108920516D01*
X210842911Y-108600000D01*
X210811343Y-108279484D01*
X210717852Y-107971285D01*
X210566031Y-107687248D01*
X210361714Y-107438286D01*
X210112752Y-107233969D01*
X209828715Y-107082148D01*
X209536032Y-106993364D01*
X209614637Y-106914759D01*
X209771680Y-106679727D01*
X209879853Y-106418574D01*
X209935000Y-106141335D01*
X209935000Y-105858665D01*
X209879853Y-105581426D01*
X209777775Y-105334988D01*
X210029484Y-105411343D01*
X210269678Y-105435000D01*
X210930322Y-105435000D01*
X211170516Y-105411343D01*
X211478715Y-105317852D01*
X211762752Y-105166031D01*
X212011714Y-104961714D01*
X212216031Y-104712752D01*
X212336470Y-104487426D01*
X212444093Y-104595049D01*
G37*
X212444093Y-104595049D02*
X212471806Y-104628817D01*
X212505574Y-104656530D01*
X212505576Y-104656532D01*
X212574080Y-104712752D01*
X212606564Y-104739411D01*
X212760310Y-104821589D01*
X212927133Y-104872195D01*
X213057146Y-104885000D01*
X213057156Y-104885000D01*
X213100622Y-104889281D01*
X213144088Y-104885000D01*
X216775555Y-104885000D01*
X216105809Y-105554747D01*
X216077764Y-105577763D01*
X215985915Y-105689681D01*
X215917665Y-105817368D01*
X215875636Y-105955916D01*
X215861445Y-106100001D01*
X215865002Y-106136116D01*
X215865002Y-110989491D01*
X215641335Y-110945000D01*
X215358665Y-110945000D01*
X215081426Y-111000147D01*
X214820273Y-111108320D01*
X214585241Y-111265363D01*
X214385363Y-111465241D01*
X214228320Y-111700273D01*
X214120147Y-111961426D01*
X214065000Y-112238665D01*
X214065000Y-112521335D01*
X214120147Y-112798574D01*
X214228320Y-113059727D01*
X214385363Y-113294759D01*
X214585241Y-113494637D01*
X214820273Y-113651680D01*
X215081426Y-113759853D01*
X215358665Y-113815000D01*
X215641335Y-113815000D01*
X215865002Y-113770509D01*
X215865002Y-118609491D01*
X215641335Y-118565000D01*
X215358665Y-118565000D01*
X215081426Y-118620147D01*
X214820273Y-118728320D01*
X214585241Y-118885363D01*
X214385363Y-119085241D01*
X214365479Y-119115000D01*
X210752347Y-119115000D01*
X210811343Y-118920516D01*
X210842911Y-118600000D01*
X210811343Y-118279484D01*
X210717852Y-117971285D01*
X210566031Y-117687248D01*
X210361714Y-117438286D01*
X210112752Y-117233969D01*
X209828715Y-117082148D01*
X209536032Y-116993364D01*
X209614637Y-116914759D01*
X209771680Y-116679727D01*
X209879853Y-116418574D01*
X209935000Y-116141335D01*
X209935000Y-115858665D01*
X209879853Y-115581426D01*
X209777775Y-115334988D01*
X210029484Y-115411343D01*
X210269678Y-115435000D01*
X210930322Y-115435000D01*
X211170516Y-115411343D01*
X211478715Y-115317852D01*
X211762752Y-115166031D01*
X212011714Y-114961714D01*
X212216031Y-114712752D01*
X212367852Y-114428715D01*
X212461343Y-114120516D01*
X212492911Y-113800000D01*
X212461343Y-113479484D01*
X212367852Y-113171285D01*
X212216031Y-112887248D01*
X212011714Y-112638286D01*
X211762752Y-112433969D01*
X211478715Y-112282148D01*
X211170516Y-112188657D01*
X210930322Y-112165000D01*
X210269678Y-112165000D01*
X210029484Y-112188657D01*
X209721285Y-112282148D01*
X209437248Y-112433969D01*
X209188286Y-112638286D01*
X208983969Y-112887248D01*
X208832148Y-113171285D01*
X208738657Y-113479484D01*
X208707089Y-113800000D01*
X208738657Y-114120516D01*
X208832148Y-114428715D01*
X208938991Y-114628604D01*
X208918574Y-114620147D01*
X208641335Y-114565000D01*
X208358665Y-114565000D01*
X208134999Y-114609491D01*
X208134999Y-111916579D01*
X209295050Y-110756529D01*
X209328817Y-110728817D01*
X209439411Y-110594059D01*
X209521589Y-110440313D01*
X209572195Y-110273490D01*
X209580096Y-110193270D01*
X209828715Y-110117852D01*
X210112752Y-109966031D01*
X210361714Y-109761714D01*
X210566031Y-109512752D01*
X210717852Y-109228715D01*
X210811343Y-108920516D01*
X210842911Y-108600000D01*
X210811343Y-108279484D01*
X210717852Y-107971285D01*
X210566031Y-107687248D01*
X210361714Y-107438286D01*
X210112752Y-107233969D01*
X209828715Y-107082148D01*
X209536032Y-106993364D01*
X209614637Y-106914759D01*
X209771680Y-106679727D01*
X209879853Y-106418574D01*
X209935000Y-106141335D01*
X209935000Y-105858665D01*
X209879853Y-105581426D01*
X209777775Y-105334988D01*
X210029484Y-105411343D01*
X210269678Y-105435000D01*
X210930322Y-105435000D01*
X211170516Y-105411343D01*
X211478715Y-105317852D01*
X211762752Y-105166031D01*
X212011714Y-104961714D01*
X212216031Y-104712752D01*
X212336470Y-104487426D01*
X212444093Y-104595049D01*
G36*
X203671285Y-105117852D02*
G01*
X203979484Y-105211343D01*
X204065001Y-105219766D01*
X204065000Y-111980234D01*
X203979484Y-111988657D01*
X203671285Y-112082148D01*
X203387248Y-112233969D01*
X203138286Y-112438286D01*
X202933969Y-112687248D01*
X202782148Y-112971285D01*
X202688657Y-113279484D01*
X202657089Y-113600000D01*
X202688657Y-113920516D01*
X202782148Y-114228715D01*
X202933969Y-114512752D01*
X203075424Y-114685116D01*
X202918574Y-114620147D01*
X202641335Y-114565000D01*
X202358665Y-114565000D01*
X202081426Y-114620147D01*
X201820273Y-114728320D01*
X201585241Y-114885363D01*
X201385363Y-115085241D01*
X201228320Y-115320273D01*
X201120147Y-115581426D01*
X201065000Y-115858665D01*
X201065000Y-116141335D01*
X201120147Y-116418574D01*
X201228320Y-116679727D01*
X201385363Y-116914759D01*
X201435604Y-116965000D01*
X201273000Y-116965000D01*
X200956468Y-117021193D01*
X200685000Y-117127124D01*
X200685000Y-110072876D01*
X200956468Y-110178807D01*
X201273000Y-110235000D01*
X201773000Y-110235000D01*
X201773000Y-108727000D01*
X202027000Y-108727000D01*
X202027000Y-110235000D01*
X202527000Y-110235000D01*
X202843532Y-110178807D01*
X203143020Y-110061942D01*
X203413954Y-109888895D01*
X203645922Y-109666317D01*
X203830010Y-109402761D01*
X203959144Y-109108355D01*
X203990124Y-108980434D01*
X203870777Y-108727000D01*
X202027000Y-108727000D01*
X201773000Y-108727000D01*
X201753000Y-108727000D01*
X201753000Y-108473000D01*
X201773000Y-108473000D01*
X201773000Y-108453000D01*
X202027000Y-108453000D01*
X202027000Y-108473000D01*
X203870777Y-108473000D01*
X203990124Y-108219566D01*
X203959144Y-108091645D01*
X203830010Y-107797239D01*
X203645922Y-107533683D01*
X203413954Y-107311105D01*
X203264032Y-107215349D01*
X203414759Y-107114637D01*
X203614637Y-106914759D01*
X203771680Y-106679727D01*
X203879853Y-106418574D01*
X203935000Y-106141335D01*
X203935000Y-105858665D01*
X203879853Y-105581426D01*
X203771680Y-105320273D01*
X203617061Y-105088869D01*
X203671285Y-105117852D01*
G37*
X203671285Y-105117852D02*
X203979484Y-105211343D01*
X204065001Y-105219766D01*
X204065000Y-111980234D01*
X203979484Y-111988657D01*
X203671285Y-112082148D01*
X203387248Y-112233969D01*
X203138286Y-112438286D01*
X202933969Y-112687248D01*
X202782148Y-112971285D01*
X202688657Y-113279484D01*
X202657089Y-113600000D01*
X202688657Y-113920516D01*
X202782148Y-114228715D01*
X202933969Y-114512752D01*
X203075424Y-114685116D01*
X202918574Y-114620147D01*
X202641335Y-114565000D01*
X202358665Y-114565000D01*
X202081426Y-114620147D01*
X201820273Y-114728320D01*
X201585241Y-114885363D01*
X201385363Y-115085241D01*
X201228320Y-115320273D01*
X201120147Y-115581426D01*
X201065000Y-115858665D01*
X201065000Y-116141335D01*
X201120147Y-116418574D01*
X201228320Y-116679727D01*
X201385363Y-116914759D01*
X201435604Y-116965000D01*
X201273000Y-116965000D01*
X200956468Y-117021193D01*
X200685000Y-117127124D01*
X200685000Y-110072876D01*
X200956468Y-110178807D01*
X201273000Y-110235000D01*
X201773000Y-110235000D01*
X201773000Y-108727000D01*
X202027000Y-108727000D01*
X202027000Y-110235000D01*
X202527000Y-110235000D01*
X202843532Y-110178807D01*
X203143020Y-110061942D01*
X203413954Y-109888895D01*
X203645922Y-109666317D01*
X203830010Y-109402761D01*
X203959144Y-109108355D01*
X203990124Y-108980434D01*
X203870777Y-108727000D01*
X202027000Y-108727000D01*
X201773000Y-108727000D01*
X201753000Y-108727000D01*
X201753000Y-108473000D01*
X201773000Y-108473000D01*
X201773000Y-108453000D01*
X202027000Y-108453000D01*
X202027000Y-108473000D01*
X203870777Y-108473000D01*
X203990124Y-108219566D01*
X203959144Y-108091645D01*
X203830010Y-107797239D01*
X203645922Y-107533683D01*
X203413954Y-107311105D01*
X203264032Y-107215349D01*
X203414759Y-107114637D01*
X203614637Y-106914759D01*
X203771680Y-106679727D01*
X203879853Y-106418574D01*
X203935000Y-106141335D01*
X203935000Y-105858665D01*
X203879853Y-105581426D01*
X203771680Y-105320273D01*
X203617061Y-105088869D01*
X203671285Y-105117852D01*
G36*
X249346525Y-110801632D02*
G01*
X249553368Y-111008475D01*
X249727760Y-111125000D01*
X249553368Y-111241525D01*
X249346525Y-111448368D01*
X249184010Y-111691589D01*
X249072068Y-111961842D01*
X249015000Y-112248740D01*
X249015000Y-112541260D01*
X249064656Y-112790897D01*
X248870553Y-112985001D01*
X243390509Y-112985001D01*
X243435000Y-112761335D01*
X243435000Y-112478665D01*
X243392822Y-112266624D01*
X245069447Y-110590000D01*
X249205117Y-110590000D01*
X249346525Y-110801632D01*
G37*
X249346525Y-110801632D02*
X249553368Y-111008475D01*
X249727760Y-111125000D01*
X249553368Y-111241525D01*
X249346525Y-111448368D01*
X249184010Y-111691589D01*
X249072068Y-111961842D01*
X249015000Y-112248740D01*
X249015000Y-112541260D01*
X249064656Y-112790897D01*
X248870553Y-112985001D01*
X243390509Y-112985001D01*
X243435000Y-112761335D01*
X243435000Y-112478665D01*
X243392822Y-112266624D01*
X245069447Y-110590000D01*
X249205117Y-110590000D01*
X249346525Y-110801632D01*
G36*
X206365000Y-107106520D02*
G01*
X206360718Y-107149999D01*
X206377804Y-107323489D01*
X206428411Y-107490312D01*
X206510589Y-107644058D01*
X206593467Y-107745045D01*
X206593470Y-107745048D01*
X206621183Y-107778816D01*
X206654950Y-107806528D01*
X206730063Y-107881642D01*
X206682148Y-107971285D01*
X206588657Y-108279484D01*
X206557089Y-108600000D01*
X206588657Y-108920516D01*
X206682148Y-109228715D01*
X206833969Y-109512752D01*
X207038286Y-109761714D01*
X207287248Y-109966031D01*
X207479584Y-110068837D01*
X206654950Y-110893472D01*
X206621183Y-110921184D01*
X206593470Y-110954952D01*
X206593467Y-110954955D01*
X206510589Y-111055942D01*
X206428411Y-111209688D01*
X206377804Y-111376511D01*
X206360718Y-111550001D01*
X206365000Y-111593480D01*
X206365000Y-112358915D01*
X206212752Y-112233969D01*
X205928715Y-112082148D01*
X205620516Y-111988657D01*
X205535000Y-111980234D01*
X205535000Y-105219766D01*
X205620516Y-105211343D01*
X205928715Y-105117852D01*
X206212752Y-104966031D01*
X206365000Y-104841085D01*
X206365000Y-107106520D01*
G37*
X206365000Y-107106520D02*
X206360718Y-107149999D01*
X206377804Y-107323489D01*
X206428411Y-107490312D01*
X206510589Y-107644058D01*
X206593467Y-107745045D01*
X206593470Y-107745048D01*
X206621183Y-107778816D01*
X206654950Y-107806528D01*
X206730063Y-107881642D01*
X206682148Y-107971285D01*
X206588657Y-108279484D01*
X206557089Y-108600000D01*
X206588657Y-108920516D01*
X206682148Y-109228715D01*
X206833969Y-109512752D01*
X207038286Y-109761714D01*
X207287248Y-109966031D01*
X207479584Y-110068837D01*
X206654950Y-110893472D01*
X206621183Y-110921184D01*
X206593470Y-110954952D01*
X206593467Y-110954955D01*
X206510589Y-111055942D01*
X206428411Y-111209688D01*
X206377804Y-111376511D01*
X206360718Y-111550001D01*
X206365000Y-111593480D01*
X206365000Y-112358915D01*
X206212752Y-112233969D01*
X205928715Y-112082148D01*
X205620516Y-111988657D01*
X205535000Y-111980234D01*
X205535000Y-105219766D01*
X205620516Y-105211343D01*
X205928715Y-105117852D01*
X206212752Y-104966031D01*
X206365000Y-104841085D01*
X206365000Y-107106520D01*
G36*
X218657000Y-98643000D02*
G01*
X218677000Y-98643000D01*
X218677000Y-98897000D01*
X218657000Y-98897000D01*
X218657000Y-100090155D01*
X218886890Y-100211476D01*
X219034099Y-100166825D01*
X219296920Y-100041641D01*
X219530269Y-99867588D01*
X219725178Y-99651355D01*
X219794805Y-99534466D01*
X219916525Y-99716632D01*
X220123368Y-99923475D01*
X220366589Y-100085990D01*
X220636842Y-100197932D01*
X220923740Y-100255000D01*
X221216260Y-100255000D01*
X221503158Y-100197932D01*
X221773411Y-100085990D01*
X222016632Y-99923475D01*
X222223475Y-99716632D01*
X222340000Y-99542240D01*
X222456525Y-99716632D01*
X222663368Y-99923475D01*
X222906589Y-100085990D01*
X223176842Y-100197932D01*
X223463740Y-100255000D01*
X223756260Y-100255000D01*
X224043158Y-100197932D01*
X224313411Y-100085990D01*
X224556632Y-99923475D01*
X224763475Y-99716632D01*
X224880000Y-99542240D01*
X224996525Y-99716632D01*
X225203368Y-99923475D01*
X225446589Y-100085990D01*
X225716842Y-100197932D01*
X226003740Y-100255000D01*
X226296260Y-100255000D01*
X226583158Y-100197932D01*
X226853411Y-100085990D01*
X227096632Y-99923475D01*
X227303475Y-99716632D01*
X227420000Y-99542240D01*
X227536525Y-99716632D01*
X227615198Y-99795305D01*
X224295503Y-103115000D01*
X213467202Y-103115000D01*
X210568332Y-100216131D01*
X210763740Y-100255000D01*
X211056260Y-100255000D01*
X211343158Y-100197932D01*
X211613411Y-100085990D01*
X211856632Y-99923475D01*
X212063475Y-99716632D01*
X212180000Y-99542240D01*
X212296525Y-99716632D01*
X212503368Y-99923475D01*
X212746589Y-100085990D01*
X213016842Y-100197932D01*
X213303740Y-100255000D01*
X213596260Y-100255000D01*
X213883158Y-100197932D01*
X214153411Y-100085990D01*
X214396632Y-99923475D01*
X214603475Y-99716632D01*
X214720000Y-99542240D01*
X214836525Y-99716632D01*
X215043368Y-99923475D01*
X215286589Y-100085990D01*
X215556842Y-100197932D01*
X215843740Y-100255000D01*
X216136260Y-100255000D01*
X216423158Y-100197932D01*
X216693411Y-100085990D01*
X216936632Y-99923475D01*
X217143475Y-99716632D01*
X217265195Y-99534466D01*
X217334822Y-99651355D01*
X217529731Y-99867588D01*
X217763080Y-100041641D01*
X218025901Y-100166825D01*
X218173110Y-100211476D01*
X218403000Y-100090155D01*
X218403000Y-98897000D01*
X218383000Y-98897000D01*
X218383000Y-98643000D01*
X218403000Y-98643000D01*
X218403000Y-98623000D01*
X218657000Y-98623000D01*
X218657000Y-98643000D01*
G37*
X218657000Y-98643000D02*
X218677000Y-98643000D01*
X218677000Y-98897000D01*
X218657000Y-98897000D01*
X218657000Y-100090155D01*
X218886890Y-100211476D01*
X219034099Y-100166825D01*
X219296920Y-100041641D01*
X219530269Y-99867588D01*
X219725178Y-99651355D01*
X219794805Y-99534466D01*
X219916525Y-99716632D01*
X220123368Y-99923475D01*
X220366589Y-100085990D01*
X220636842Y-100197932D01*
X220923740Y-100255000D01*
X221216260Y-100255000D01*
X221503158Y-100197932D01*
X221773411Y-100085990D01*
X222016632Y-99923475D01*
X222223475Y-99716632D01*
X222340000Y-99542240D01*
X222456525Y-99716632D01*
X222663368Y-99923475D01*
X222906589Y-100085990D01*
X223176842Y-100197932D01*
X223463740Y-100255000D01*
X223756260Y-100255000D01*
X224043158Y-100197932D01*
X224313411Y-100085990D01*
X224556632Y-99923475D01*
X224763475Y-99716632D01*
X224880000Y-99542240D01*
X224996525Y-99716632D01*
X225203368Y-99923475D01*
X225446589Y-100085990D01*
X225716842Y-100197932D01*
X226003740Y-100255000D01*
X226296260Y-100255000D01*
X226583158Y-100197932D01*
X226853411Y-100085990D01*
X227096632Y-99923475D01*
X227303475Y-99716632D01*
X227420000Y-99542240D01*
X227536525Y-99716632D01*
X227615198Y-99795305D01*
X224295503Y-103115000D01*
X213467202Y-103115000D01*
X210568332Y-100216131D01*
X210763740Y-100255000D01*
X211056260Y-100255000D01*
X211343158Y-100197932D01*
X211613411Y-100085990D01*
X211856632Y-99923475D01*
X212063475Y-99716632D01*
X212180000Y-99542240D01*
X212296525Y-99716632D01*
X212503368Y-99923475D01*
X212746589Y-100085990D01*
X213016842Y-100197932D01*
X213303740Y-100255000D01*
X213596260Y-100255000D01*
X213883158Y-100197932D01*
X214153411Y-100085990D01*
X214396632Y-99923475D01*
X214603475Y-99716632D01*
X214720000Y-99542240D01*
X214836525Y-99716632D01*
X215043368Y-99923475D01*
X215286589Y-100085990D01*
X215556842Y-100197932D01*
X215843740Y-100255000D01*
X216136260Y-100255000D01*
X216423158Y-100197932D01*
X216693411Y-100085990D01*
X216936632Y-99923475D01*
X217143475Y-99716632D01*
X217265195Y-99534466D01*
X217334822Y-99651355D01*
X217529731Y-99867588D01*
X217763080Y-100041641D01*
X218025901Y-100166825D01*
X218173110Y-100211476D01*
X218403000Y-100090155D01*
X218403000Y-98897000D01*
X218383000Y-98897000D01*
X218383000Y-98643000D01*
X218403000Y-98643000D01*
X218403000Y-98623000D01*
X218657000Y-98623000D01*
X218657000Y-98643000D01*
M02*
