G04 #@! TF.GenerationSoftware,KiCad,Pcbnew,(5.1.5)-3*
G04 #@! TF.CreationDate,2020-04-30T22:36:26+02:00*
G04 #@! TF.ProjectId,Main,4d61696e-2e6b-4696-9361-645f70636258,rev?*
G04 #@! TF.SameCoordinates,Original*
G04 #@! TF.FileFunction,Legend,Top*
G04 #@! TF.FilePolarity,Positive*
%FSLAX46Y46*%
G04 Gerber Fmt 4.6, Leading zero omitted, Abs format (unit mm)*
G04 Created by KiCad (PCBNEW (5.1.5)-3) date 2020-04-30 22:36:26*
%MOMM*%
%LPD*%
G04 APERTURE LIST*
%ADD10C,0.010000*%
%ADD11C,0.150000*%
%ADD12C,0.120000*%
G04 APERTURE END LIST*
D10*
G36*
X255213886Y-135934505D02*
G01*
X255288539Y-135971727D01*
X255354431Y-136040261D01*
X255372577Y-136065648D01*
X255392345Y-136098866D01*
X255405172Y-136134945D01*
X255412510Y-136183098D01*
X255415813Y-136252536D01*
X255416538Y-136344206D01*
X255413263Y-136469830D01*
X255401877Y-136564154D01*
X255380041Y-136634523D01*
X255345419Y-136688286D01*
X255295670Y-136732788D01*
X255292014Y-136735423D01*
X255242985Y-136762377D01*
X255183945Y-136775712D01*
X255108859Y-136779000D01*
X254986795Y-136779000D01*
X254986744Y-136897497D01*
X254985608Y-136963492D01*
X254978686Y-137002202D01*
X254960598Y-137025419D01*
X254925962Y-137044933D01*
X254917645Y-137048920D01*
X254878720Y-137067603D01*
X254848583Y-137079403D01*
X254826174Y-137080422D01*
X254810433Y-137066761D01*
X254800302Y-137034522D01*
X254794723Y-136979804D01*
X254792635Y-136898711D01*
X254792981Y-136787344D01*
X254794700Y-136641802D01*
X254795237Y-136598269D01*
X254797172Y-136448205D01*
X254798904Y-136350042D01*
X254986692Y-136350042D01*
X254987748Y-136433364D01*
X254992438Y-136487880D01*
X255003051Y-136523837D01*
X255021872Y-136551482D01*
X255034650Y-136564965D01*
X255086890Y-136604417D01*
X255133142Y-136607628D01*
X255180867Y-136575049D01*
X255182077Y-136573846D01*
X255201494Y-136548668D01*
X255213307Y-136514447D01*
X255219265Y-136461748D01*
X255221120Y-136381131D01*
X255221154Y-136363271D01*
X255216670Y-136252175D01*
X255202074Y-136175161D01*
X255175650Y-136128147D01*
X255135683Y-136107050D01*
X255112584Y-136104923D01*
X255057762Y-136114900D01*
X255020158Y-136147752D01*
X254997523Y-136207857D01*
X254987606Y-136299598D01*
X254986692Y-136350042D01*
X254798904Y-136350042D01*
X254799222Y-136332060D01*
X254801873Y-136244679D01*
X254805606Y-136180905D01*
X254810907Y-136135582D01*
X254818258Y-136103555D01*
X254828143Y-136079668D01*
X254841046Y-136058764D01*
X254846579Y-136050898D01*
X254919969Y-135976595D01*
X255012760Y-135934467D01*
X255120096Y-135922722D01*
X255213886Y-135934505D01*
G37*
X255213886Y-135934505D02*
X255288539Y-135971727D01*
X255354431Y-136040261D01*
X255372577Y-136065648D01*
X255392345Y-136098866D01*
X255405172Y-136134945D01*
X255412510Y-136183098D01*
X255415813Y-136252536D01*
X255416538Y-136344206D01*
X255413263Y-136469830D01*
X255401877Y-136564154D01*
X255380041Y-136634523D01*
X255345419Y-136688286D01*
X255295670Y-136732788D01*
X255292014Y-136735423D01*
X255242985Y-136762377D01*
X255183945Y-136775712D01*
X255108859Y-136779000D01*
X254986795Y-136779000D01*
X254986744Y-136897497D01*
X254985608Y-136963492D01*
X254978686Y-137002202D01*
X254960598Y-137025419D01*
X254925962Y-137044933D01*
X254917645Y-137048920D01*
X254878720Y-137067603D01*
X254848583Y-137079403D01*
X254826174Y-137080422D01*
X254810433Y-137066761D01*
X254800302Y-137034522D01*
X254794723Y-136979804D01*
X254792635Y-136898711D01*
X254792981Y-136787344D01*
X254794700Y-136641802D01*
X254795237Y-136598269D01*
X254797172Y-136448205D01*
X254798904Y-136350042D01*
X254986692Y-136350042D01*
X254987748Y-136433364D01*
X254992438Y-136487880D01*
X255003051Y-136523837D01*
X255021872Y-136551482D01*
X255034650Y-136564965D01*
X255086890Y-136604417D01*
X255133142Y-136607628D01*
X255180867Y-136575049D01*
X255182077Y-136573846D01*
X255201494Y-136548668D01*
X255213307Y-136514447D01*
X255219265Y-136461748D01*
X255221120Y-136381131D01*
X255221154Y-136363271D01*
X255216670Y-136252175D01*
X255202074Y-136175161D01*
X255175650Y-136128147D01*
X255135683Y-136107050D01*
X255112584Y-136104923D01*
X255057762Y-136114900D01*
X255020158Y-136147752D01*
X254997523Y-136207857D01*
X254987606Y-136299598D01*
X254986692Y-136350042D01*
X254798904Y-136350042D01*
X254799222Y-136332060D01*
X254801873Y-136244679D01*
X254805606Y-136180905D01*
X254810907Y-136135582D01*
X254818258Y-136103555D01*
X254828143Y-136079668D01*
X254841046Y-136058764D01*
X254846579Y-136050898D01*
X254919969Y-135976595D01*
X255012760Y-135934467D01*
X255120096Y-135922722D01*
X255213886Y-135934505D01*
G36*
X256716664Y-135945089D02*
G01*
X256779367Y-135981358D01*
X256822961Y-136017358D01*
X256854845Y-136055075D01*
X256876810Y-136101199D01*
X256890649Y-136162421D01*
X256898153Y-136245431D01*
X256901117Y-136356919D01*
X256901461Y-136437062D01*
X256901461Y-136732065D01*
X256735385Y-136806515D01*
X256725615Y-136483402D01*
X256721579Y-136362729D01*
X256717344Y-136275141D01*
X256712097Y-136214650D01*
X256705025Y-136175268D01*
X256695311Y-136151007D01*
X256682144Y-136135880D01*
X256677919Y-136132606D01*
X256613909Y-136107034D01*
X256549208Y-136117153D01*
X256510692Y-136144000D01*
X256495025Y-136163024D01*
X256484180Y-136187988D01*
X256477288Y-136225834D01*
X256473479Y-136283502D01*
X256471883Y-136367935D01*
X256471615Y-136455928D01*
X256471563Y-136566323D01*
X256469672Y-136644463D01*
X256463345Y-136697165D01*
X256449983Y-136731242D01*
X256426985Y-136753511D01*
X256391754Y-136770787D01*
X256344697Y-136788738D01*
X256293303Y-136808278D01*
X256299421Y-136461485D01*
X256301884Y-136336468D01*
X256304767Y-136244082D01*
X256308898Y-136177881D01*
X256315107Y-136131420D01*
X256324226Y-136098256D01*
X256337083Y-136071944D01*
X256352584Y-136048729D01*
X256427371Y-135974569D01*
X256518628Y-135931684D01*
X256617883Y-135921412D01*
X256716664Y-135945089D01*
G37*
X256716664Y-135945089D02*
X256779367Y-135981358D01*
X256822961Y-136017358D01*
X256854845Y-136055075D01*
X256876810Y-136101199D01*
X256890649Y-136162421D01*
X256898153Y-136245431D01*
X256901117Y-136356919D01*
X256901461Y-136437062D01*
X256901461Y-136732065D01*
X256735385Y-136806515D01*
X256725615Y-136483402D01*
X256721579Y-136362729D01*
X256717344Y-136275141D01*
X256712097Y-136214650D01*
X256705025Y-136175268D01*
X256695311Y-136151007D01*
X256682144Y-136135880D01*
X256677919Y-136132606D01*
X256613909Y-136107034D01*
X256549208Y-136117153D01*
X256510692Y-136144000D01*
X256495025Y-136163024D01*
X256484180Y-136187988D01*
X256477288Y-136225834D01*
X256473479Y-136283502D01*
X256471883Y-136367935D01*
X256471615Y-136455928D01*
X256471563Y-136566323D01*
X256469672Y-136644463D01*
X256463345Y-136697165D01*
X256449983Y-136731242D01*
X256426985Y-136753511D01*
X256391754Y-136770787D01*
X256344697Y-136788738D01*
X256293303Y-136808278D01*
X256299421Y-136461485D01*
X256301884Y-136336468D01*
X256304767Y-136244082D01*
X256308898Y-136177881D01*
X256315107Y-136131420D01*
X256324226Y-136098256D01*
X256337083Y-136071944D01*
X256352584Y-136048729D01*
X256427371Y-135974569D01*
X256518628Y-135931684D01*
X256617883Y-135921412D01*
X256716664Y-135945089D01*
G36*
X254461886Y-135937256D02*
G01*
X254553464Y-135985409D01*
X254621049Y-136062905D01*
X254645057Y-136112727D01*
X254663738Y-136187533D01*
X254673301Y-136282052D01*
X254674208Y-136385210D01*
X254666921Y-136485935D01*
X254651903Y-136573153D01*
X254629615Y-136635791D01*
X254622765Y-136646579D01*
X254541632Y-136727105D01*
X254445266Y-136775336D01*
X254340701Y-136789450D01*
X254234968Y-136767629D01*
X254205543Y-136754547D01*
X254148241Y-136714231D01*
X254097950Y-136660775D01*
X254093197Y-136653995D01*
X254073878Y-136621321D01*
X254061108Y-136586394D01*
X254053564Y-136540414D01*
X254049924Y-136474584D01*
X254048865Y-136380105D01*
X254048846Y-136358923D01*
X254048894Y-136352182D01*
X254244231Y-136352182D01*
X254245368Y-136441349D01*
X254249841Y-136500520D01*
X254259246Y-136538741D01*
X254275176Y-136565053D01*
X254283308Y-136573846D01*
X254330058Y-136607261D01*
X254375447Y-136605737D01*
X254421340Y-136576752D01*
X254448712Y-136545809D01*
X254464923Y-136500643D01*
X254474026Y-136429420D01*
X254474651Y-136421114D01*
X254476204Y-136292037D01*
X254459965Y-136196172D01*
X254426152Y-136134107D01*
X254374984Y-136106432D01*
X254356720Y-136104923D01*
X254308760Y-136112513D01*
X254275953Y-136138808D01*
X254255895Y-136189095D01*
X254246178Y-136268664D01*
X254244231Y-136352182D01*
X254048894Y-136352182D01*
X254049574Y-136258249D01*
X254052629Y-136187906D01*
X254059322Y-136139163D01*
X254070960Y-136103288D01*
X254088853Y-136071548D01*
X254092808Y-136065648D01*
X254159267Y-135986104D01*
X254231685Y-135939929D01*
X254319849Y-135921599D01*
X254349787Y-135920703D01*
X254461886Y-135937256D01*
G37*
X254461886Y-135937256D02*
X254553464Y-135985409D01*
X254621049Y-136062905D01*
X254645057Y-136112727D01*
X254663738Y-136187533D01*
X254673301Y-136282052D01*
X254674208Y-136385210D01*
X254666921Y-136485935D01*
X254651903Y-136573153D01*
X254629615Y-136635791D01*
X254622765Y-136646579D01*
X254541632Y-136727105D01*
X254445266Y-136775336D01*
X254340701Y-136789450D01*
X254234968Y-136767629D01*
X254205543Y-136754547D01*
X254148241Y-136714231D01*
X254097950Y-136660775D01*
X254093197Y-136653995D01*
X254073878Y-136621321D01*
X254061108Y-136586394D01*
X254053564Y-136540414D01*
X254049924Y-136474584D01*
X254048865Y-136380105D01*
X254048846Y-136358923D01*
X254048894Y-136352182D01*
X254244231Y-136352182D01*
X254245368Y-136441349D01*
X254249841Y-136500520D01*
X254259246Y-136538741D01*
X254275176Y-136565053D01*
X254283308Y-136573846D01*
X254330058Y-136607261D01*
X254375447Y-136605737D01*
X254421340Y-136576752D01*
X254448712Y-136545809D01*
X254464923Y-136500643D01*
X254474026Y-136429420D01*
X254474651Y-136421114D01*
X254476204Y-136292037D01*
X254459965Y-136196172D01*
X254426152Y-136134107D01*
X254374984Y-136106432D01*
X254356720Y-136104923D01*
X254308760Y-136112513D01*
X254275953Y-136138808D01*
X254255895Y-136189095D01*
X254246178Y-136268664D01*
X254244231Y-136352182D01*
X254048894Y-136352182D01*
X254049574Y-136258249D01*
X254052629Y-136187906D01*
X254059322Y-136139163D01*
X254070960Y-136103288D01*
X254088853Y-136071548D01*
X254092808Y-136065648D01*
X254159267Y-135986104D01*
X254231685Y-135939929D01*
X254319849Y-135921599D01*
X254349787Y-135920703D01*
X254461886Y-135937256D01*
G36*
X255979254Y-135949745D02*
G01*
X256056286Y-136001567D01*
X256115816Y-136076412D01*
X256151378Y-136171654D01*
X256158571Y-136241756D01*
X256157754Y-136271009D01*
X256150914Y-136293407D01*
X256132112Y-136313474D01*
X256095408Y-136335733D01*
X256034862Y-136364709D01*
X255944534Y-136404927D01*
X255944077Y-136405129D01*
X255860933Y-136443210D01*
X255792753Y-136477025D01*
X255746505Y-136502933D01*
X255729158Y-136517295D01*
X255729154Y-136517411D01*
X255744443Y-136548685D01*
X255780196Y-136583157D01*
X255821242Y-136607990D01*
X255842037Y-136612923D01*
X255898770Y-136595862D01*
X255947627Y-136553133D01*
X255971465Y-136506155D01*
X255994397Y-136471522D01*
X256039318Y-136432081D01*
X256092123Y-136398009D01*
X256138710Y-136379480D01*
X256148452Y-136378462D01*
X256159418Y-136395215D01*
X256160079Y-136438039D01*
X256152020Y-136495781D01*
X256136827Y-136557289D01*
X256116086Y-136611409D01*
X256115038Y-136613510D01*
X256052621Y-136700660D01*
X255971726Y-136759939D01*
X255879856Y-136789034D01*
X255784513Y-136785634D01*
X255693198Y-136747428D01*
X255689138Y-136744741D01*
X255617306Y-136679642D01*
X255570073Y-136594705D01*
X255543934Y-136483021D01*
X255540426Y-136451643D01*
X255534213Y-136303536D01*
X255541661Y-136234468D01*
X255729154Y-136234468D01*
X255731590Y-136277552D01*
X255744914Y-136290126D01*
X255778132Y-136280719D01*
X255830494Y-136258483D01*
X255889024Y-136230610D01*
X255890479Y-136229872D01*
X255940089Y-136203777D01*
X255960000Y-136186363D01*
X255955090Y-136168107D01*
X255934416Y-136144120D01*
X255881819Y-136109406D01*
X255825177Y-136106856D01*
X255774369Y-136132119D01*
X255739276Y-136180847D01*
X255729154Y-136234468D01*
X255541661Y-136234468D01*
X255546992Y-136185036D01*
X255579778Y-136091055D01*
X255625421Y-136025215D01*
X255707802Y-135958681D01*
X255798546Y-135925676D01*
X255891185Y-135923573D01*
X255979254Y-135949745D01*
G37*
X255979254Y-135949745D02*
X256056286Y-136001567D01*
X256115816Y-136076412D01*
X256151378Y-136171654D01*
X256158571Y-136241756D01*
X256157754Y-136271009D01*
X256150914Y-136293407D01*
X256132112Y-136313474D01*
X256095408Y-136335733D01*
X256034862Y-136364709D01*
X255944534Y-136404927D01*
X255944077Y-136405129D01*
X255860933Y-136443210D01*
X255792753Y-136477025D01*
X255746505Y-136502933D01*
X255729158Y-136517295D01*
X255729154Y-136517411D01*
X255744443Y-136548685D01*
X255780196Y-136583157D01*
X255821242Y-136607990D01*
X255842037Y-136612923D01*
X255898770Y-136595862D01*
X255947627Y-136553133D01*
X255971465Y-136506155D01*
X255994397Y-136471522D01*
X256039318Y-136432081D01*
X256092123Y-136398009D01*
X256138710Y-136379480D01*
X256148452Y-136378462D01*
X256159418Y-136395215D01*
X256160079Y-136438039D01*
X256152020Y-136495781D01*
X256136827Y-136557289D01*
X256116086Y-136611409D01*
X256115038Y-136613510D01*
X256052621Y-136700660D01*
X255971726Y-136759939D01*
X255879856Y-136789034D01*
X255784513Y-136785634D01*
X255693198Y-136747428D01*
X255689138Y-136744741D01*
X255617306Y-136679642D01*
X255570073Y-136594705D01*
X255543934Y-136483021D01*
X255540426Y-136451643D01*
X255534213Y-136303536D01*
X255541661Y-136234468D01*
X255729154Y-136234468D01*
X255731590Y-136277552D01*
X255744914Y-136290126D01*
X255778132Y-136280719D01*
X255830494Y-136258483D01*
X255889024Y-136230610D01*
X255890479Y-136229872D01*
X255940089Y-136203777D01*
X255960000Y-136186363D01*
X255955090Y-136168107D01*
X255934416Y-136144120D01*
X255881819Y-136109406D01*
X255825177Y-136106856D01*
X255774369Y-136132119D01*
X255739276Y-136180847D01*
X255729154Y-136234468D01*
X255541661Y-136234468D01*
X255546992Y-136185036D01*
X255579778Y-136091055D01*
X255625421Y-136025215D01*
X255707802Y-135958681D01*
X255798546Y-135925676D01*
X255891185Y-135923573D01*
X255979254Y-135949745D01*
G36*
X257604846Y-135842120D02*
G01*
X257610572Y-135921980D01*
X257617149Y-135969039D01*
X257626262Y-135989566D01*
X257639598Y-135989829D01*
X257643923Y-135987378D01*
X257701444Y-135969636D01*
X257776268Y-135970672D01*
X257852339Y-135988910D01*
X257899918Y-136012505D01*
X257948702Y-136050198D01*
X257984364Y-136092855D01*
X258008845Y-136147057D01*
X258024087Y-136219384D01*
X258032030Y-136316419D01*
X258034616Y-136444742D01*
X258034662Y-136469358D01*
X258034692Y-136745870D01*
X257973161Y-136767320D01*
X257929459Y-136781912D01*
X257905482Y-136788706D01*
X257904777Y-136788769D01*
X257902415Y-136770345D01*
X257900406Y-136719526D01*
X257898901Y-136642993D01*
X257898053Y-136547430D01*
X257897923Y-136489329D01*
X257897651Y-136374771D01*
X257896252Y-136292667D01*
X257892849Y-136236393D01*
X257886567Y-136199326D01*
X257876529Y-136174844D01*
X257861861Y-136156325D01*
X257852702Y-136147406D01*
X257789789Y-136111466D01*
X257721136Y-136108775D01*
X257658848Y-136139170D01*
X257647329Y-136150144D01*
X257630433Y-136170779D01*
X257618714Y-136195256D01*
X257611233Y-136230647D01*
X257607054Y-136284026D01*
X257605237Y-136362466D01*
X257604846Y-136470617D01*
X257604846Y-136745870D01*
X257543315Y-136767320D01*
X257499613Y-136781912D01*
X257475636Y-136788706D01*
X257474930Y-136788769D01*
X257473126Y-136770069D01*
X257471500Y-136717322D01*
X257470117Y-136635557D01*
X257469042Y-136529805D01*
X257468340Y-136405094D01*
X257468077Y-136266455D01*
X257468077Y-135731806D01*
X257595077Y-135678236D01*
X257604846Y-135842120D01*
G37*
X257604846Y-135842120D02*
X257610572Y-135921980D01*
X257617149Y-135969039D01*
X257626262Y-135989566D01*
X257639598Y-135989829D01*
X257643923Y-135987378D01*
X257701444Y-135969636D01*
X257776268Y-135970672D01*
X257852339Y-135988910D01*
X257899918Y-136012505D01*
X257948702Y-136050198D01*
X257984364Y-136092855D01*
X258008845Y-136147057D01*
X258024087Y-136219384D01*
X258032030Y-136316419D01*
X258034616Y-136444742D01*
X258034662Y-136469358D01*
X258034692Y-136745870D01*
X257973161Y-136767320D01*
X257929459Y-136781912D01*
X257905482Y-136788706D01*
X257904777Y-136788769D01*
X257902415Y-136770345D01*
X257900406Y-136719526D01*
X257898901Y-136642993D01*
X257898053Y-136547430D01*
X257897923Y-136489329D01*
X257897651Y-136374771D01*
X257896252Y-136292667D01*
X257892849Y-136236393D01*
X257886567Y-136199326D01*
X257876529Y-136174844D01*
X257861861Y-136156325D01*
X257852702Y-136147406D01*
X257789789Y-136111466D01*
X257721136Y-136108775D01*
X257658848Y-136139170D01*
X257647329Y-136150144D01*
X257630433Y-136170779D01*
X257618714Y-136195256D01*
X257611233Y-136230647D01*
X257607054Y-136284026D01*
X257605237Y-136362466D01*
X257604846Y-136470617D01*
X257604846Y-136745870D01*
X257543315Y-136767320D01*
X257499613Y-136781912D01*
X257475636Y-136788706D01*
X257474930Y-136788769D01*
X257473126Y-136770069D01*
X257471500Y-136717322D01*
X257470117Y-136635557D01*
X257469042Y-136529805D01*
X257468340Y-136405094D01*
X257468077Y-136266455D01*
X257468077Y-135731806D01*
X257595077Y-135678236D01*
X257604846Y-135842120D01*
G36*
X258498501Y-135976303D02*
G01*
X258575060Y-136004733D01*
X258575936Y-136005279D01*
X258623285Y-136040127D01*
X258658241Y-136080852D01*
X258682825Y-136133925D01*
X258699062Y-136205814D01*
X258708975Y-136302992D01*
X258714586Y-136431928D01*
X258715077Y-136450298D01*
X258722141Y-136727287D01*
X258662695Y-136758028D01*
X258619681Y-136778802D01*
X258593710Y-136788646D01*
X258592509Y-136788769D01*
X258588014Y-136770606D01*
X258584444Y-136721612D01*
X258582248Y-136650031D01*
X258581769Y-136592068D01*
X258581758Y-136498170D01*
X258577466Y-136439203D01*
X258562503Y-136411079D01*
X258530482Y-136409706D01*
X258475014Y-136430998D01*
X258391269Y-136470136D01*
X258329689Y-136502643D01*
X258298017Y-136530845D01*
X258288706Y-136561582D01*
X258288692Y-136563104D01*
X258304057Y-136616054D01*
X258349547Y-136644660D01*
X258419166Y-136648803D01*
X258469313Y-136648084D01*
X258495754Y-136662527D01*
X258512243Y-136697218D01*
X258521733Y-136741416D01*
X258508057Y-136766493D01*
X258502907Y-136770082D01*
X258454425Y-136784496D01*
X258386531Y-136786537D01*
X258316612Y-136776983D01*
X258267068Y-136759522D01*
X258198570Y-136701364D01*
X258159634Y-136620408D01*
X258151923Y-136557160D01*
X258157807Y-136500111D01*
X258179101Y-136453542D01*
X258221265Y-136412181D01*
X258289759Y-136370755D01*
X258390044Y-136323993D01*
X258396154Y-136321350D01*
X258486490Y-136279617D01*
X258542235Y-136245391D01*
X258566129Y-136214635D01*
X258560913Y-136183311D01*
X258529328Y-136147383D01*
X258519883Y-136139116D01*
X258456617Y-136107058D01*
X258391064Y-136108407D01*
X258333972Y-136139838D01*
X258296093Y-136198024D01*
X258292574Y-136209446D01*
X258258300Y-136264837D01*
X258214809Y-136291518D01*
X258151923Y-136317960D01*
X258151923Y-136249548D01*
X258171052Y-136150110D01*
X258227831Y-136058902D01*
X258257378Y-136028389D01*
X258324542Y-135989228D01*
X258409956Y-135971500D01*
X258498501Y-135976303D01*
G37*
X258498501Y-135976303D02*
X258575060Y-136004733D01*
X258575936Y-136005279D01*
X258623285Y-136040127D01*
X258658241Y-136080852D01*
X258682825Y-136133925D01*
X258699062Y-136205814D01*
X258708975Y-136302992D01*
X258714586Y-136431928D01*
X258715077Y-136450298D01*
X258722141Y-136727287D01*
X258662695Y-136758028D01*
X258619681Y-136778802D01*
X258593710Y-136788646D01*
X258592509Y-136788769D01*
X258588014Y-136770606D01*
X258584444Y-136721612D01*
X258582248Y-136650031D01*
X258581769Y-136592068D01*
X258581758Y-136498170D01*
X258577466Y-136439203D01*
X258562503Y-136411079D01*
X258530482Y-136409706D01*
X258475014Y-136430998D01*
X258391269Y-136470136D01*
X258329689Y-136502643D01*
X258298017Y-136530845D01*
X258288706Y-136561582D01*
X258288692Y-136563104D01*
X258304057Y-136616054D01*
X258349547Y-136644660D01*
X258419166Y-136648803D01*
X258469313Y-136648084D01*
X258495754Y-136662527D01*
X258512243Y-136697218D01*
X258521733Y-136741416D01*
X258508057Y-136766493D01*
X258502907Y-136770082D01*
X258454425Y-136784496D01*
X258386531Y-136786537D01*
X258316612Y-136776983D01*
X258267068Y-136759522D01*
X258198570Y-136701364D01*
X258159634Y-136620408D01*
X258151923Y-136557160D01*
X258157807Y-136500111D01*
X258179101Y-136453542D01*
X258221265Y-136412181D01*
X258289759Y-136370755D01*
X258390044Y-136323993D01*
X258396154Y-136321350D01*
X258486490Y-136279617D01*
X258542235Y-136245391D01*
X258566129Y-136214635D01*
X258560913Y-136183311D01*
X258529328Y-136147383D01*
X258519883Y-136139116D01*
X258456617Y-136107058D01*
X258391064Y-136108407D01*
X258333972Y-136139838D01*
X258296093Y-136198024D01*
X258292574Y-136209446D01*
X258258300Y-136264837D01*
X258214809Y-136291518D01*
X258151923Y-136317960D01*
X258151923Y-136249548D01*
X258171052Y-136150110D01*
X258227831Y-136058902D01*
X258257378Y-136028389D01*
X258324542Y-135989228D01*
X258409956Y-135971500D01*
X258498501Y-135976303D01*
G36*
X259158362Y-135974670D02*
G01*
X259247117Y-136007421D01*
X259319022Y-136065350D01*
X259347144Y-136106128D01*
X259377802Y-136180954D01*
X259377165Y-136235058D01*
X259344987Y-136271446D01*
X259333081Y-136277633D01*
X259281675Y-136296925D01*
X259255422Y-136291982D01*
X259246530Y-136259587D01*
X259246077Y-136241692D01*
X259229797Y-136175859D01*
X259187365Y-136129807D01*
X259128388Y-136107564D01*
X259062475Y-136113161D01*
X259008895Y-136142229D01*
X258990798Y-136158810D01*
X258977971Y-136178925D01*
X258969306Y-136209332D01*
X258963696Y-136256788D01*
X258960035Y-136328050D01*
X258957215Y-136429875D01*
X258956484Y-136462115D01*
X258953820Y-136572410D01*
X258950792Y-136650036D01*
X258946250Y-136701396D01*
X258939046Y-136732890D01*
X258928033Y-136750920D01*
X258912060Y-136761888D01*
X258901834Y-136766733D01*
X258858406Y-136783301D01*
X258832842Y-136788769D01*
X258824395Y-136770507D01*
X258819239Y-136715296D01*
X258817346Y-136622499D01*
X258818689Y-136491478D01*
X258819107Y-136471269D01*
X258822058Y-136351733D01*
X258825548Y-136264449D01*
X258830514Y-136202591D01*
X258837893Y-136159336D01*
X258848624Y-136127860D01*
X258863645Y-136101339D01*
X258871502Y-136089975D01*
X258916553Y-136039692D01*
X258966940Y-136000581D01*
X258973108Y-135997167D01*
X259063458Y-135970212D01*
X259158362Y-135974670D01*
G37*
X259158362Y-135974670D02*
X259247117Y-136007421D01*
X259319022Y-136065350D01*
X259347144Y-136106128D01*
X259377802Y-136180954D01*
X259377165Y-136235058D01*
X259344987Y-136271446D01*
X259333081Y-136277633D01*
X259281675Y-136296925D01*
X259255422Y-136291982D01*
X259246530Y-136259587D01*
X259246077Y-136241692D01*
X259229797Y-136175859D01*
X259187365Y-136129807D01*
X259128388Y-136107564D01*
X259062475Y-136113161D01*
X259008895Y-136142229D01*
X258990798Y-136158810D01*
X258977971Y-136178925D01*
X258969306Y-136209332D01*
X258963696Y-136256788D01*
X258960035Y-136328050D01*
X258957215Y-136429875D01*
X258956484Y-136462115D01*
X258953820Y-136572410D01*
X258950792Y-136650036D01*
X258946250Y-136701396D01*
X258939046Y-136732890D01*
X258928033Y-136750920D01*
X258912060Y-136761888D01*
X258901834Y-136766733D01*
X258858406Y-136783301D01*
X258832842Y-136788769D01*
X258824395Y-136770507D01*
X258819239Y-136715296D01*
X258817346Y-136622499D01*
X258818689Y-136491478D01*
X258819107Y-136471269D01*
X258822058Y-136351733D01*
X258825548Y-136264449D01*
X258830514Y-136202591D01*
X258837893Y-136159336D01*
X258848624Y-136127860D01*
X258863645Y-136101339D01*
X258871502Y-136089975D01*
X258916553Y-136039692D01*
X258966940Y-136000581D01*
X258973108Y-135997167D01*
X259063458Y-135970212D01*
X259158362Y-135974670D01*
G36*
X260047081Y-136130289D02*
G01*
X260046833Y-136276320D01*
X260045872Y-136388655D01*
X260043794Y-136472678D01*
X260040193Y-136533769D01*
X260034665Y-136577309D01*
X260026804Y-136608679D01*
X260016207Y-136633262D01*
X260008182Y-136647294D01*
X259941728Y-136723388D01*
X259857470Y-136771084D01*
X259764249Y-136788199D01*
X259670900Y-136772546D01*
X259615312Y-136744418D01*
X259556957Y-136695760D01*
X259517186Y-136636333D01*
X259493190Y-136558507D01*
X259482161Y-136454652D01*
X259480599Y-136378462D01*
X259480809Y-136372986D01*
X259617308Y-136372986D01*
X259618141Y-136460355D01*
X259621961Y-136518192D01*
X259630746Y-136556029D01*
X259646474Y-136583398D01*
X259665266Y-136604042D01*
X259728375Y-136643890D01*
X259796137Y-136647295D01*
X259860179Y-136614025D01*
X259865164Y-136609517D01*
X259886439Y-136586067D01*
X259899779Y-136558166D01*
X259907001Y-136516641D01*
X259909923Y-136452316D01*
X259910385Y-136381200D01*
X259909383Y-136291858D01*
X259905238Y-136232258D01*
X259896236Y-136193089D01*
X259880667Y-136165040D01*
X259867902Y-136150144D01*
X259808600Y-136112575D01*
X259740301Y-136108057D01*
X259675110Y-136136753D01*
X259662528Y-136147406D01*
X259641111Y-136171063D01*
X259627744Y-136199251D01*
X259620566Y-136241245D01*
X259617719Y-136306319D01*
X259617308Y-136372986D01*
X259480809Y-136372986D01*
X259485322Y-136255765D01*
X259501362Y-136163577D01*
X259531528Y-136094269D01*
X259578629Y-136040211D01*
X259615312Y-136012505D01*
X259681990Y-135982572D01*
X259759272Y-135968678D01*
X259831110Y-135972397D01*
X259871308Y-135987400D01*
X259887082Y-135991670D01*
X259897550Y-135975750D01*
X259904856Y-135933089D01*
X259910385Y-135868106D01*
X259916437Y-135795732D01*
X259924844Y-135752187D01*
X259940141Y-135727287D01*
X259966864Y-135710845D01*
X259983654Y-135703564D01*
X260047154Y-135676963D01*
X260047081Y-136130289D01*
G37*
X260047081Y-136130289D02*
X260046833Y-136276320D01*
X260045872Y-136388655D01*
X260043794Y-136472678D01*
X260040193Y-136533769D01*
X260034665Y-136577309D01*
X260026804Y-136608679D01*
X260016207Y-136633262D01*
X260008182Y-136647294D01*
X259941728Y-136723388D01*
X259857470Y-136771084D01*
X259764249Y-136788199D01*
X259670900Y-136772546D01*
X259615312Y-136744418D01*
X259556957Y-136695760D01*
X259517186Y-136636333D01*
X259493190Y-136558507D01*
X259482161Y-136454652D01*
X259480599Y-136378462D01*
X259480809Y-136372986D01*
X259617308Y-136372986D01*
X259618141Y-136460355D01*
X259621961Y-136518192D01*
X259630746Y-136556029D01*
X259646474Y-136583398D01*
X259665266Y-136604042D01*
X259728375Y-136643890D01*
X259796137Y-136647295D01*
X259860179Y-136614025D01*
X259865164Y-136609517D01*
X259886439Y-136586067D01*
X259899779Y-136558166D01*
X259907001Y-136516641D01*
X259909923Y-136452316D01*
X259910385Y-136381200D01*
X259909383Y-136291858D01*
X259905238Y-136232258D01*
X259896236Y-136193089D01*
X259880667Y-136165040D01*
X259867902Y-136150144D01*
X259808600Y-136112575D01*
X259740301Y-136108057D01*
X259675110Y-136136753D01*
X259662528Y-136147406D01*
X259641111Y-136171063D01*
X259627744Y-136199251D01*
X259620566Y-136241245D01*
X259617719Y-136306319D01*
X259617308Y-136372986D01*
X259480809Y-136372986D01*
X259485322Y-136255765D01*
X259501362Y-136163577D01*
X259531528Y-136094269D01*
X259578629Y-136040211D01*
X259615312Y-136012505D01*
X259681990Y-135982572D01*
X259759272Y-135968678D01*
X259831110Y-135972397D01*
X259871308Y-135987400D01*
X259887082Y-135991670D01*
X259897550Y-135975750D01*
X259904856Y-135933089D01*
X259910385Y-135868106D01*
X259916437Y-135795732D01*
X259924844Y-135752187D01*
X259940141Y-135727287D01*
X259966864Y-135710845D01*
X259983654Y-135703564D01*
X260047154Y-135676963D01*
X260047081Y-136130289D01*
G36*
X260840929Y-135986662D02*
G01*
X260843911Y-136038068D01*
X260846247Y-136116192D01*
X260847749Y-136214857D01*
X260848231Y-136318343D01*
X260848231Y-136668533D01*
X260786401Y-136730363D01*
X260743793Y-136768462D01*
X260706390Y-136783895D01*
X260655270Y-136782918D01*
X260634978Y-136780433D01*
X260571554Y-136773200D01*
X260519095Y-136769055D01*
X260506308Y-136768672D01*
X260463199Y-136771176D01*
X260401544Y-136777462D01*
X260377638Y-136780433D01*
X260318922Y-136785028D01*
X260279464Y-136775046D01*
X260240338Y-136744228D01*
X260226215Y-136730363D01*
X260164385Y-136668533D01*
X260164385Y-136013503D01*
X260214150Y-135990829D01*
X260257002Y-135974034D01*
X260282073Y-135968154D01*
X260288501Y-135986736D01*
X260294509Y-136038655D01*
X260299697Y-136118172D01*
X260303664Y-136219546D01*
X260305577Y-136305192D01*
X260310923Y-136642231D01*
X260357560Y-136648825D01*
X260399976Y-136644214D01*
X260420760Y-136629287D01*
X260426570Y-136601377D01*
X260431530Y-136541925D01*
X260435246Y-136458466D01*
X260437324Y-136358532D01*
X260437624Y-136307104D01*
X260437923Y-136011054D01*
X260499454Y-135989604D01*
X260543004Y-135975020D01*
X260566694Y-135968219D01*
X260567377Y-135968154D01*
X260569754Y-135986642D01*
X260572366Y-136037906D01*
X260574995Y-136115649D01*
X260577421Y-136213574D01*
X260579115Y-136305192D01*
X260584461Y-136642231D01*
X260701692Y-136642231D01*
X260707072Y-136334746D01*
X260712451Y-136027261D01*
X260769601Y-135997707D01*
X260811797Y-135977413D01*
X260836770Y-135968204D01*
X260837491Y-135968154D01*
X260840929Y-135986662D01*
G37*
X260840929Y-135986662D02*
X260843911Y-136038068D01*
X260846247Y-136116192D01*
X260847749Y-136214857D01*
X260848231Y-136318343D01*
X260848231Y-136668533D01*
X260786401Y-136730363D01*
X260743793Y-136768462D01*
X260706390Y-136783895D01*
X260655270Y-136782918D01*
X260634978Y-136780433D01*
X260571554Y-136773200D01*
X260519095Y-136769055D01*
X260506308Y-136768672D01*
X260463199Y-136771176D01*
X260401544Y-136777462D01*
X260377638Y-136780433D01*
X260318922Y-136785028D01*
X260279464Y-136775046D01*
X260240338Y-136744228D01*
X260226215Y-136730363D01*
X260164385Y-136668533D01*
X260164385Y-136013503D01*
X260214150Y-135990829D01*
X260257002Y-135974034D01*
X260282073Y-135968154D01*
X260288501Y-135986736D01*
X260294509Y-136038655D01*
X260299697Y-136118172D01*
X260303664Y-136219546D01*
X260305577Y-136305192D01*
X260310923Y-136642231D01*
X260357560Y-136648825D01*
X260399976Y-136644214D01*
X260420760Y-136629287D01*
X260426570Y-136601377D01*
X260431530Y-136541925D01*
X260435246Y-136458466D01*
X260437324Y-136358532D01*
X260437624Y-136307104D01*
X260437923Y-136011054D01*
X260499454Y-135989604D01*
X260543004Y-135975020D01*
X260566694Y-135968219D01*
X260567377Y-135968154D01*
X260569754Y-135986642D01*
X260572366Y-136037906D01*
X260574995Y-136115649D01*
X260577421Y-136213574D01*
X260579115Y-136305192D01*
X260584461Y-136642231D01*
X260701692Y-136642231D01*
X260707072Y-136334746D01*
X260712451Y-136027261D01*
X260769601Y-135997707D01*
X260811797Y-135977413D01*
X260836770Y-135968204D01*
X260837491Y-135968154D01*
X260840929Y-135986662D01*
G36*
X261332333Y-135983528D02*
G01*
X261388590Y-136009117D01*
X261432747Y-136040124D01*
X261465101Y-136074795D01*
X261487438Y-136119520D01*
X261501546Y-136180692D01*
X261509211Y-136264701D01*
X261512220Y-136377940D01*
X261512538Y-136452509D01*
X261512538Y-136743420D01*
X261462773Y-136766095D01*
X261423576Y-136782667D01*
X261404157Y-136788769D01*
X261400442Y-136770610D01*
X261397495Y-136721648D01*
X261395691Y-136650153D01*
X261395308Y-136593385D01*
X261393661Y-136511371D01*
X261389222Y-136446309D01*
X261382740Y-136406467D01*
X261377590Y-136398000D01*
X261342977Y-136406646D01*
X261288640Y-136428823D01*
X261225722Y-136458886D01*
X261165368Y-136491192D01*
X261118721Y-136520098D01*
X261096926Y-136539961D01*
X261096839Y-136540175D01*
X261098714Y-136576935D01*
X261115525Y-136612026D01*
X261145039Y-136640528D01*
X261188116Y-136650061D01*
X261224932Y-136648950D01*
X261277074Y-136648133D01*
X261304444Y-136660349D01*
X261320882Y-136692624D01*
X261322955Y-136698710D01*
X261330081Y-136744739D01*
X261311024Y-136772687D01*
X261261353Y-136786007D01*
X261207697Y-136788470D01*
X261111142Y-136770210D01*
X261061159Y-136744131D01*
X260999429Y-136682868D01*
X260966690Y-136607670D01*
X260963753Y-136528211D01*
X260991424Y-136454167D01*
X261033047Y-136407769D01*
X261074604Y-136381793D01*
X261139922Y-136348907D01*
X261216038Y-136315557D01*
X261228726Y-136310461D01*
X261312333Y-136273565D01*
X261360530Y-136241046D01*
X261376030Y-136208718D01*
X261361550Y-136172394D01*
X261336692Y-136144000D01*
X261277939Y-136109039D01*
X261213293Y-136106417D01*
X261154008Y-136133358D01*
X261111339Y-136187088D01*
X261105739Y-136200950D01*
X261073133Y-136251936D01*
X261025530Y-136289787D01*
X260965461Y-136320850D01*
X260965461Y-136232768D01*
X260968997Y-136178951D01*
X260984156Y-136136534D01*
X261017768Y-136091279D01*
X261050035Y-136056420D01*
X261100209Y-136007062D01*
X261139193Y-135980547D01*
X261181064Y-135969911D01*
X261228460Y-135968154D01*
X261332333Y-135983528D01*
G37*
X261332333Y-135983528D02*
X261388590Y-136009117D01*
X261432747Y-136040124D01*
X261465101Y-136074795D01*
X261487438Y-136119520D01*
X261501546Y-136180692D01*
X261509211Y-136264701D01*
X261512220Y-136377940D01*
X261512538Y-136452509D01*
X261512538Y-136743420D01*
X261462773Y-136766095D01*
X261423576Y-136782667D01*
X261404157Y-136788769D01*
X261400442Y-136770610D01*
X261397495Y-136721648D01*
X261395691Y-136650153D01*
X261395308Y-136593385D01*
X261393661Y-136511371D01*
X261389222Y-136446309D01*
X261382740Y-136406467D01*
X261377590Y-136398000D01*
X261342977Y-136406646D01*
X261288640Y-136428823D01*
X261225722Y-136458886D01*
X261165368Y-136491192D01*
X261118721Y-136520098D01*
X261096926Y-136539961D01*
X261096839Y-136540175D01*
X261098714Y-136576935D01*
X261115525Y-136612026D01*
X261145039Y-136640528D01*
X261188116Y-136650061D01*
X261224932Y-136648950D01*
X261277074Y-136648133D01*
X261304444Y-136660349D01*
X261320882Y-136692624D01*
X261322955Y-136698710D01*
X261330081Y-136744739D01*
X261311024Y-136772687D01*
X261261353Y-136786007D01*
X261207697Y-136788470D01*
X261111142Y-136770210D01*
X261061159Y-136744131D01*
X260999429Y-136682868D01*
X260966690Y-136607670D01*
X260963753Y-136528211D01*
X260991424Y-136454167D01*
X261033047Y-136407769D01*
X261074604Y-136381793D01*
X261139922Y-136348907D01*
X261216038Y-136315557D01*
X261228726Y-136310461D01*
X261312333Y-136273565D01*
X261360530Y-136241046D01*
X261376030Y-136208718D01*
X261361550Y-136172394D01*
X261336692Y-136144000D01*
X261277939Y-136109039D01*
X261213293Y-136106417D01*
X261154008Y-136133358D01*
X261111339Y-136187088D01*
X261105739Y-136200950D01*
X261073133Y-136251936D01*
X261025530Y-136289787D01*
X260965461Y-136320850D01*
X260965461Y-136232768D01*
X260968997Y-136178951D01*
X260984156Y-136136534D01*
X261017768Y-136091279D01*
X261050035Y-136056420D01*
X261100209Y-136007062D01*
X261139193Y-135980547D01*
X261181064Y-135969911D01*
X261228460Y-135968154D01*
X261332333Y-135983528D01*
G36*
X262015807Y-135986782D02*
G01*
X262039161Y-135996988D01*
X262094902Y-136041134D01*
X262142569Y-136104967D01*
X262172048Y-136173087D01*
X262176846Y-136206670D01*
X262160760Y-136253556D01*
X262125475Y-136278365D01*
X262087644Y-136293387D01*
X262070321Y-136296155D01*
X262061886Y-136276066D01*
X262045230Y-136232351D01*
X262037923Y-136212598D01*
X261996948Y-136144271D01*
X261937622Y-136110191D01*
X261861552Y-136111239D01*
X261855918Y-136112581D01*
X261815305Y-136131836D01*
X261785448Y-136169375D01*
X261765055Y-136229809D01*
X261752836Y-136317751D01*
X261747500Y-136437813D01*
X261747000Y-136501698D01*
X261746752Y-136602403D01*
X261745126Y-136671054D01*
X261740801Y-136714673D01*
X261732454Y-136740282D01*
X261718765Y-136754903D01*
X261698411Y-136765558D01*
X261697234Y-136766095D01*
X261658038Y-136782667D01*
X261638619Y-136788769D01*
X261635635Y-136770319D01*
X261633081Y-136719323D01*
X261631140Y-136642308D01*
X261629997Y-136545805D01*
X261629769Y-136475184D01*
X261630932Y-136338525D01*
X261635479Y-136234851D01*
X261644999Y-136158108D01*
X261661081Y-136102246D01*
X261685313Y-136061212D01*
X261719286Y-136028954D01*
X261752833Y-136006440D01*
X261833499Y-135976476D01*
X261927381Y-135969718D01*
X262015807Y-135986782D01*
G37*
X262015807Y-135986782D02*
X262039161Y-135996988D01*
X262094902Y-136041134D01*
X262142569Y-136104967D01*
X262172048Y-136173087D01*
X262176846Y-136206670D01*
X262160760Y-136253556D01*
X262125475Y-136278365D01*
X262087644Y-136293387D01*
X262070321Y-136296155D01*
X262061886Y-136276066D01*
X262045230Y-136232351D01*
X262037923Y-136212598D01*
X261996948Y-136144271D01*
X261937622Y-136110191D01*
X261861552Y-136111239D01*
X261855918Y-136112581D01*
X261815305Y-136131836D01*
X261785448Y-136169375D01*
X261765055Y-136229809D01*
X261752836Y-136317751D01*
X261747500Y-136437813D01*
X261747000Y-136501698D01*
X261746752Y-136602403D01*
X261745126Y-136671054D01*
X261740801Y-136714673D01*
X261732454Y-136740282D01*
X261718765Y-136754903D01*
X261698411Y-136765558D01*
X261697234Y-136766095D01*
X261658038Y-136782667D01*
X261638619Y-136788769D01*
X261635635Y-136770319D01*
X261633081Y-136719323D01*
X261631140Y-136642308D01*
X261629997Y-136545805D01*
X261629769Y-136475184D01*
X261630932Y-136338525D01*
X261635479Y-136234851D01*
X261644999Y-136158108D01*
X261661081Y-136102246D01*
X261685313Y-136061212D01*
X261719286Y-136028954D01*
X261752833Y-136006440D01*
X261833499Y-135976476D01*
X261927381Y-135969718D01*
X262015807Y-135986782D01*
G36*
X262690224Y-135997838D02*
G01*
X262767528Y-136048361D01*
X262804814Y-136093590D01*
X262834353Y-136175663D01*
X262836699Y-136240607D01*
X262831385Y-136327445D01*
X262631115Y-136415103D01*
X262533739Y-136459887D01*
X262470113Y-136495913D01*
X262437029Y-136527117D01*
X262431280Y-136557436D01*
X262449658Y-136590805D01*
X262469923Y-136612923D01*
X262528889Y-136648393D01*
X262593024Y-136650879D01*
X262651926Y-136623235D01*
X262695197Y-136568320D01*
X262702936Y-136548928D01*
X262740006Y-136488364D01*
X262782654Y-136462552D01*
X262841154Y-136440471D01*
X262841154Y-136524184D01*
X262835982Y-136581150D01*
X262815723Y-136629189D01*
X262773262Y-136684346D01*
X262766951Y-136691514D01*
X262719720Y-136740585D01*
X262679121Y-136766920D01*
X262628328Y-136779035D01*
X262586220Y-136783003D01*
X262510902Y-136783991D01*
X262457286Y-136771466D01*
X262423838Y-136752869D01*
X262371268Y-136711975D01*
X262334879Y-136667748D01*
X262311850Y-136612126D01*
X262299359Y-136537047D01*
X262294587Y-136434449D01*
X262294206Y-136382376D01*
X262295501Y-136319948D01*
X262413471Y-136319948D01*
X262414839Y-136353438D01*
X262418249Y-136358923D01*
X262440753Y-136351472D01*
X262489182Y-136331753D01*
X262553908Y-136303718D01*
X262567443Y-136297692D01*
X262649244Y-136256096D01*
X262694312Y-136219538D01*
X262704217Y-136185296D01*
X262680526Y-136150648D01*
X262660960Y-136135339D01*
X262590360Y-136104721D01*
X262524280Y-136109780D01*
X262468959Y-136147151D01*
X262430636Y-136213473D01*
X262418349Y-136266116D01*
X262413471Y-136319948D01*
X262295501Y-136319948D01*
X262296730Y-136260720D01*
X262306032Y-136170710D01*
X262324460Y-136105167D01*
X262354360Y-136056912D01*
X262398080Y-136018767D01*
X262417141Y-136006440D01*
X262503726Y-135974336D01*
X262598522Y-135972316D01*
X262690224Y-135997838D01*
G37*
X262690224Y-135997838D02*
X262767528Y-136048361D01*
X262804814Y-136093590D01*
X262834353Y-136175663D01*
X262836699Y-136240607D01*
X262831385Y-136327445D01*
X262631115Y-136415103D01*
X262533739Y-136459887D01*
X262470113Y-136495913D01*
X262437029Y-136527117D01*
X262431280Y-136557436D01*
X262449658Y-136590805D01*
X262469923Y-136612923D01*
X262528889Y-136648393D01*
X262593024Y-136650879D01*
X262651926Y-136623235D01*
X262695197Y-136568320D01*
X262702936Y-136548928D01*
X262740006Y-136488364D01*
X262782654Y-136462552D01*
X262841154Y-136440471D01*
X262841154Y-136524184D01*
X262835982Y-136581150D01*
X262815723Y-136629189D01*
X262773262Y-136684346D01*
X262766951Y-136691514D01*
X262719720Y-136740585D01*
X262679121Y-136766920D01*
X262628328Y-136779035D01*
X262586220Y-136783003D01*
X262510902Y-136783991D01*
X262457286Y-136771466D01*
X262423838Y-136752869D01*
X262371268Y-136711975D01*
X262334879Y-136667748D01*
X262311850Y-136612126D01*
X262299359Y-136537047D01*
X262294587Y-136434449D01*
X262294206Y-136382376D01*
X262295501Y-136319948D01*
X262413471Y-136319948D01*
X262414839Y-136353438D01*
X262418249Y-136358923D01*
X262440753Y-136351472D01*
X262489182Y-136331753D01*
X262553908Y-136303718D01*
X262567443Y-136297692D01*
X262649244Y-136256096D01*
X262694312Y-136219538D01*
X262704217Y-136185296D01*
X262680526Y-136150648D01*
X262660960Y-136135339D01*
X262590360Y-136104721D01*
X262524280Y-136109780D01*
X262468959Y-136147151D01*
X262430636Y-136213473D01*
X262418349Y-136266116D01*
X262413471Y-136319948D01*
X262295501Y-136319948D01*
X262296730Y-136260720D01*
X262306032Y-136170710D01*
X262324460Y-136105167D01*
X262354360Y-136056912D01*
X262398080Y-136018767D01*
X262417141Y-136006440D01*
X262503726Y-135974336D01*
X262598522Y-135972316D01*
X262690224Y-135997838D01*
G36*
X258584878Y-129637776D02*
G01*
X258690612Y-129638355D01*
X258767132Y-129639922D01*
X258819372Y-129642972D01*
X258852263Y-129647996D01*
X258870737Y-129655489D01*
X258879727Y-129665944D01*
X258884163Y-129679853D01*
X258884594Y-129681654D01*
X258891333Y-129714145D01*
X258903808Y-129778252D01*
X258920719Y-129867151D01*
X258940771Y-129974019D01*
X258962664Y-130092033D01*
X258963429Y-130096178D01*
X258985359Y-130211831D01*
X259005877Y-130314014D01*
X259023659Y-130396598D01*
X259037381Y-130453456D01*
X259045718Y-130478458D01*
X259046116Y-130478901D01*
X259070677Y-130491110D01*
X259121315Y-130511456D01*
X259187095Y-130535545D01*
X259187461Y-130535674D01*
X259270317Y-130566818D01*
X259368000Y-130606491D01*
X259460077Y-130646381D01*
X259464434Y-130648353D01*
X259614407Y-130716420D01*
X259946498Y-130489639D01*
X260048374Y-130420504D01*
X260140657Y-130358697D01*
X260218003Y-130307733D01*
X260275064Y-130271127D01*
X260306495Y-130252394D01*
X260309479Y-130251004D01*
X260332321Y-130257190D01*
X260374982Y-130287035D01*
X260439128Y-130341947D01*
X260526421Y-130423334D01*
X260615535Y-130509922D01*
X260701441Y-130595247D01*
X260778327Y-130673108D01*
X260841564Y-130738697D01*
X260886523Y-130787205D01*
X260908576Y-130813825D01*
X260909396Y-130815195D01*
X260911834Y-130833463D01*
X260902650Y-130863295D01*
X260879574Y-130908721D01*
X260840337Y-130973770D01*
X260782670Y-131062470D01*
X260705795Y-131176657D01*
X260637570Y-131277162D01*
X260576582Y-131367303D01*
X260526356Y-131441849D01*
X260490416Y-131495565D01*
X260472287Y-131523218D01*
X260471146Y-131525095D01*
X260473359Y-131551590D01*
X260490138Y-131603086D01*
X260518142Y-131669851D01*
X260528122Y-131691172D01*
X260571672Y-131786159D01*
X260618134Y-131893937D01*
X260655877Y-131987192D01*
X260683073Y-132056406D01*
X260704675Y-132109006D01*
X260717158Y-132136497D01*
X260718709Y-132138616D01*
X260741668Y-132142124D01*
X260795786Y-132151738D01*
X260873868Y-132166089D01*
X260968719Y-132183807D01*
X261073143Y-132203525D01*
X261179944Y-132223874D01*
X261281926Y-132243486D01*
X261371894Y-132260991D01*
X261442653Y-132275022D01*
X261487006Y-132284209D01*
X261497885Y-132286807D01*
X261509122Y-132293218D01*
X261517605Y-132307697D01*
X261523714Y-132335133D01*
X261527832Y-132380411D01*
X261530341Y-132448420D01*
X261531621Y-132544047D01*
X261532054Y-132672180D01*
X261532077Y-132724701D01*
X261532077Y-133151845D01*
X261429500Y-133172091D01*
X261372431Y-133183070D01*
X261287269Y-133199095D01*
X261184372Y-133218233D01*
X261074096Y-133238551D01*
X261043615Y-133244132D01*
X260941855Y-133263917D01*
X260853205Y-133283373D01*
X260785108Y-133300697D01*
X260745004Y-133314088D01*
X260738323Y-133318079D01*
X260721919Y-133346342D01*
X260698399Y-133401109D01*
X260672316Y-133471588D01*
X260667142Y-133486769D01*
X260632956Y-133580896D01*
X260590523Y-133687101D01*
X260548997Y-133782473D01*
X260548792Y-133782916D01*
X260479640Y-133932525D01*
X260934512Y-134601617D01*
X260642500Y-134894116D01*
X260554180Y-134981170D01*
X260473625Y-135057909D01*
X260405360Y-135120237D01*
X260353908Y-135164056D01*
X260323794Y-135185270D01*
X260319474Y-135186616D01*
X260294111Y-135176016D01*
X260242358Y-135146547D01*
X260169868Y-135101705D01*
X260082294Y-135044984D01*
X259987612Y-134981462D01*
X259891516Y-134916668D01*
X259805837Y-134860287D01*
X259736016Y-134815788D01*
X259687494Y-134786639D01*
X259665782Y-134776308D01*
X259639293Y-134785050D01*
X259589062Y-134808087D01*
X259525451Y-134840631D01*
X259518708Y-134844249D01*
X259433046Y-134887210D01*
X259374306Y-134908279D01*
X259337772Y-134908503D01*
X259318731Y-134888928D01*
X259318620Y-134888654D01*
X259309102Y-134865472D01*
X259286403Y-134810441D01*
X259252282Y-134727822D01*
X259208500Y-134621872D01*
X259156816Y-134496852D01*
X259098992Y-134357020D01*
X259042991Y-134221637D01*
X258981447Y-134072234D01*
X258924939Y-133933832D01*
X258875161Y-133810673D01*
X258833806Y-133707002D01*
X258802568Y-133627059D01*
X258783141Y-133575088D01*
X258777154Y-133555692D01*
X258792168Y-133533443D01*
X258831439Y-133497982D01*
X258883807Y-133458887D01*
X259032941Y-133335245D01*
X259149511Y-133193522D01*
X259232118Y-133036704D01*
X259279366Y-132867775D01*
X259289857Y-132689722D01*
X259282231Y-132607539D01*
X259240682Y-132437031D01*
X259169123Y-132286459D01*
X259071995Y-132157309D01*
X258953734Y-132051064D01*
X258818780Y-131969210D01*
X258671571Y-131913232D01*
X258516544Y-131884615D01*
X258358139Y-131884844D01*
X258200794Y-131915405D01*
X258048946Y-131977782D01*
X257907035Y-132073460D01*
X257847803Y-132127572D01*
X257734203Y-132266520D01*
X257655106Y-132418361D01*
X257609986Y-132578667D01*
X257598316Y-132743012D01*
X257619569Y-132906971D01*
X257673220Y-133066118D01*
X257758740Y-133216025D01*
X257875605Y-133352267D01*
X258006193Y-133458887D01*
X258060588Y-133499642D01*
X258099014Y-133534718D01*
X258112846Y-133555726D01*
X258105603Y-133578635D01*
X258085005Y-133633365D01*
X258052746Y-133715672D01*
X258010521Y-133821315D01*
X257960023Y-133946050D01*
X257902948Y-134085636D01*
X257846854Y-134221670D01*
X257784967Y-134371201D01*
X257727644Y-134509767D01*
X257676644Y-134633107D01*
X257633727Y-134736964D01*
X257600653Y-134817080D01*
X257579181Y-134869195D01*
X257571225Y-134888654D01*
X257552429Y-134908423D01*
X257516074Y-134908365D01*
X257457479Y-134887441D01*
X257371968Y-134844613D01*
X257371292Y-134844249D01*
X257306907Y-134811012D01*
X257254861Y-134786802D01*
X257225512Y-134776404D01*
X257224217Y-134776308D01*
X257202124Y-134786855D01*
X257153348Y-134816184D01*
X257083331Y-134860827D01*
X256997514Y-134917314D01*
X256902388Y-134981462D01*
X256805540Y-135046411D01*
X256718253Y-135102896D01*
X256646181Y-135147421D01*
X256594977Y-135176490D01*
X256570526Y-135186616D01*
X256548010Y-135173307D01*
X256502742Y-135136112D01*
X256439244Y-135079128D01*
X256362039Y-135006449D01*
X256275651Y-134922171D01*
X256247399Y-134894016D01*
X255955287Y-134601416D01*
X256177631Y-134275104D01*
X256245202Y-134174897D01*
X256304507Y-134084963D01*
X256352217Y-134010510D01*
X256385007Y-133956751D01*
X256399548Y-133928894D01*
X256399974Y-133926912D01*
X256392308Y-133900655D01*
X256371689Y-133847837D01*
X256341685Y-133777310D01*
X256320625Y-133730093D01*
X256281248Y-133639694D01*
X256244165Y-133548366D01*
X256215415Y-133471200D01*
X256207605Y-133447692D01*
X256185417Y-133384916D01*
X256163727Y-133336411D01*
X256151813Y-133318079D01*
X256125523Y-133306859D01*
X256068142Y-133290954D01*
X255987118Y-133272167D01*
X255889895Y-133252299D01*
X255846385Y-133244132D01*
X255735896Y-133223829D01*
X255629916Y-133204170D01*
X255538801Y-133187088D01*
X255472908Y-133174518D01*
X255460500Y-133172091D01*
X255357923Y-133151845D01*
X255357923Y-132724701D01*
X255358153Y-132584246D01*
X255359099Y-132477979D01*
X255361141Y-132401013D01*
X255364662Y-132348460D01*
X255370043Y-132315433D01*
X255377666Y-132297045D01*
X255387912Y-132288408D01*
X255392115Y-132286807D01*
X255417470Y-132281127D01*
X255473484Y-132269795D01*
X255552964Y-132254179D01*
X255648712Y-132235647D01*
X255753533Y-132215569D01*
X255860232Y-132195312D01*
X255961613Y-132176246D01*
X256050479Y-132159739D01*
X256119637Y-132147159D01*
X256161889Y-132139875D01*
X256171290Y-132138616D01*
X256179807Y-132121763D01*
X256198660Y-132076870D01*
X256224324Y-132012430D01*
X256234123Y-131987192D01*
X256273648Y-131889686D01*
X256320192Y-131781959D01*
X256361877Y-131691172D01*
X256392550Y-131621753D01*
X256412956Y-131564710D01*
X256419768Y-131529777D01*
X256418682Y-131525095D01*
X256404285Y-131502991D01*
X256371412Y-131453831D01*
X256323590Y-131382848D01*
X256264348Y-131295278D01*
X256197215Y-131196357D01*
X256183941Y-131176830D01*
X256106046Y-131061140D01*
X256048787Y-130973044D01*
X256009881Y-130908486D01*
X255987044Y-130863411D01*
X255977994Y-130833763D01*
X255980448Y-130815485D01*
X255980511Y-130815369D01*
X255999827Y-130791361D01*
X256042551Y-130744947D01*
X256104051Y-130680937D01*
X256179698Y-130604145D01*
X256264861Y-130519382D01*
X256274465Y-130509922D01*
X256381790Y-130405989D01*
X256464615Y-130329675D01*
X256524605Y-130279571D01*
X256563423Y-130254270D01*
X256580520Y-130251004D01*
X256605473Y-130265250D01*
X256657255Y-130298156D01*
X256730520Y-130346208D01*
X256819920Y-130405890D01*
X256920111Y-130473688D01*
X256943501Y-130489639D01*
X257275593Y-130716420D01*
X257425565Y-130648353D01*
X257516770Y-130608685D01*
X257614669Y-130568791D01*
X257698831Y-130536983D01*
X257702538Y-130535674D01*
X257768369Y-130511576D01*
X257819116Y-130491200D01*
X257843842Y-130478936D01*
X257843884Y-130478901D01*
X257851729Y-130456734D01*
X257865066Y-130402217D01*
X257882570Y-130321480D01*
X257902917Y-130220650D01*
X257924782Y-130105856D01*
X257926571Y-130096178D01*
X257948504Y-129977904D01*
X257968640Y-129870542D01*
X257985680Y-129780917D01*
X257998328Y-129715851D01*
X258005284Y-129682168D01*
X258005406Y-129681654D01*
X258009639Y-129667325D01*
X258017871Y-129656507D01*
X258035033Y-129648706D01*
X258066058Y-129643429D01*
X258115878Y-129640182D01*
X258189424Y-129638472D01*
X258291629Y-129637807D01*
X258427425Y-129637693D01*
X258445000Y-129637692D01*
X258584878Y-129637776D01*
G37*
X258584878Y-129637776D02*
X258690612Y-129638355D01*
X258767132Y-129639922D01*
X258819372Y-129642972D01*
X258852263Y-129647996D01*
X258870737Y-129655489D01*
X258879727Y-129665944D01*
X258884163Y-129679853D01*
X258884594Y-129681654D01*
X258891333Y-129714145D01*
X258903808Y-129778252D01*
X258920719Y-129867151D01*
X258940771Y-129974019D01*
X258962664Y-130092033D01*
X258963429Y-130096178D01*
X258985359Y-130211831D01*
X259005877Y-130314014D01*
X259023659Y-130396598D01*
X259037381Y-130453456D01*
X259045718Y-130478458D01*
X259046116Y-130478901D01*
X259070677Y-130491110D01*
X259121315Y-130511456D01*
X259187095Y-130535545D01*
X259187461Y-130535674D01*
X259270317Y-130566818D01*
X259368000Y-130606491D01*
X259460077Y-130646381D01*
X259464434Y-130648353D01*
X259614407Y-130716420D01*
X259946498Y-130489639D01*
X260048374Y-130420504D01*
X260140657Y-130358697D01*
X260218003Y-130307733D01*
X260275064Y-130271127D01*
X260306495Y-130252394D01*
X260309479Y-130251004D01*
X260332321Y-130257190D01*
X260374982Y-130287035D01*
X260439128Y-130341947D01*
X260526421Y-130423334D01*
X260615535Y-130509922D01*
X260701441Y-130595247D01*
X260778327Y-130673108D01*
X260841564Y-130738697D01*
X260886523Y-130787205D01*
X260908576Y-130813825D01*
X260909396Y-130815195D01*
X260911834Y-130833463D01*
X260902650Y-130863295D01*
X260879574Y-130908721D01*
X260840337Y-130973770D01*
X260782670Y-131062470D01*
X260705795Y-131176657D01*
X260637570Y-131277162D01*
X260576582Y-131367303D01*
X260526356Y-131441849D01*
X260490416Y-131495565D01*
X260472287Y-131523218D01*
X260471146Y-131525095D01*
X260473359Y-131551590D01*
X260490138Y-131603086D01*
X260518142Y-131669851D01*
X260528122Y-131691172D01*
X260571672Y-131786159D01*
X260618134Y-131893937D01*
X260655877Y-131987192D01*
X260683073Y-132056406D01*
X260704675Y-132109006D01*
X260717158Y-132136497D01*
X260718709Y-132138616D01*
X260741668Y-132142124D01*
X260795786Y-132151738D01*
X260873868Y-132166089D01*
X260968719Y-132183807D01*
X261073143Y-132203525D01*
X261179944Y-132223874D01*
X261281926Y-132243486D01*
X261371894Y-132260991D01*
X261442653Y-132275022D01*
X261487006Y-132284209D01*
X261497885Y-132286807D01*
X261509122Y-132293218D01*
X261517605Y-132307697D01*
X261523714Y-132335133D01*
X261527832Y-132380411D01*
X261530341Y-132448420D01*
X261531621Y-132544047D01*
X261532054Y-132672180D01*
X261532077Y-132724701D01*
X261532077Y-133151845D01*
X261429500Y-133172091D01*
X261372431Y-133183070D01*
X261287269Y-133199095D01*
X261184372Y-133218233D01*
X261074096Y-133238551D01*
X261043615Y-133244132D01*
X260941855Y-133263917D01*
X260853205Y-133283373D01*
X260785108Y-133300697D01*
X260745004Y-133314088D01*
X260738323Y-133318079D01*
X260721919Y-133346342D01*
X260698399Y-133401109D01*
X260672316Y-133471588D01*
X260667142Y-133486769D01*
X260632956Y-133580896D01*
X260590523Y-133687101D01*
X260548997Y-133782473D01*
X260548792Y-133782916D01*
X260479640Y-133932525D01*
X260934512Y-134601617D01*
X260642500Y-134894116D01*
X260554180Y-134981170D01*
X260473625Y-135057909D01*
X260405360Y-135120237D01*
X260353908Y-135164056D01*
X260323794Y-135185270D01*
X260319474Y-135186616D01*
X260294111Y-135176016D01*
X260242358Y-135146547D01*
X260169868Y-135101705D01*
X260082294Y-135044984D01*
X259987612Y-134981462D01*
X259891516Y-134916668D01*
X259805837Y-134860287D01*
X259736016Y-134815788D01*
X259687494Y-134786639D01*
X259665782Y-134776308D01*
X259639293Y-134785050D01*
X259589062Y-134808087D01*
X259525451Y-134840631D01*
X259518708Y-134844249D01*
X259433046Y-134887210D01*
X259374306Y-134908279D01*
X259337772Y-134908503D01*
X259318731Y-134888928D01*
X259318620Y-134888654D01*
X259309102Y-134865472D01*
X259286403Y-134810441D01*
X259252282Y-134727822D01*
X259208500Y-134621872D01*
X259156816Y-134496852D01*
X259098992Y-134357020D01*
X259042991Y-134221637D01*
X258981447Y-134072234D01*
X258924939Y-133933832D01*
X258875161Y-133810673D01*
X258833806Y-133707002D01*
X258802568Y-133627059D01*
X258783141Y-133575088D01*
X258777154Y-133555692D01*
X258792168Y-133533443D01*
X258831439Y-133497982D01*
X258883807Y-133458887D01*
X259032941Y-133335245D01*
X259149511Y-133193522D01*
X259232118Y-133036704D01*
X259279366Y-132867775D01*
X259289857Y-132689722D01*
X259282231Y-132607539D01*
X259240682Y-132437031D01*
X259169123Y-132286459D01*
X259071995Y-132157309D01*
X258953734Y-132051064D01*
X258818780Y-131969210D01*
X258671571Y-131913232D01*
X258516544Y-131884615D01*
X258358139Y-131884844D01*
X258200794Y-131915405D01*
X258048946Y-131977782D01*
X257907035Y-132073460D01*
X257847803Y-132127572D01*
X257734203Y-132266520D01*
X257655106Y-132418361D01*
X257609986Y-132578667D01*
X257598316Y-132743012D01*
X257619569Y-132906971D01*
X257673220Y-133066118D01*
X257758740Y-133216025D01*
X257875605Y-133352267D01*
X258006193Y-133458887D01*
X258060588Y-133499642D01*
X258099014Y-133534718D01*
X258112846Y-133555726D01*
X258105603Y-133578635D01*
X258085005Y-133633365D01*
X258052746Y-133715672D01*
X258010521Y-133821315D01*
X257960023Y-133946050D01*
X257902948Y-134085636D01*
X257846854Y-134221670D01*
X257784967Y-134371201D01*
X257727644Y-134509767D01*
X257676644Y-134633107D01*
X257633727Y-134736964D01*
X257600653Y-134817080D01*
X257579181Y-134869195D01*
X257571225Y-134888654D01*
X257552429Y-134908423D01*
X257516074Y-134908365D01*
X257457479Y-134887441D01*
X257371968Y-134844613D01*
X257371292Y-134844249D01*
X257306907Y-134811012D01*
X257254861Y-134786802D01*
X257225512Y-134776404D01*
X257224217Y-134776308D01*
X257202124Y-134786855D01*
X257153348Y-134816184D01*
X257083331Y-134860827D01*
X256997514Y-134917314D01*
X256902388Y-134981462D01*
X256805540Y-135046411D01*
X256718253Y-135102896D01*
X256646181Y-135147421D01*
X256594977Y-135176490D01*
X256570526Y-135186616D01*
X256548010Y-135173307D01*
X256502742Y-135136112D01*
X256439244Y-135079128D01*
X256362039Y-135006449D01*
X256275651Y-134922171D01*
X256247399Y-134894016D01*
X255955287Y-134601416D01*
X256177631Y-134275104D01*
X256245202Y-134174897D01*
X256304507Y-134084963D01*
X256352217Y-134010510D01*
X256385007Y-133956751D01*
X256399548Y-133928894D01*
X256399974Y-133926912D01*
X256392308Y-133900655D01*
X256371689Y-133847837D01*
X256341685Y-133777310D01*
X256320625Y-133730093D01*
X256281248Y-133639694D01*
X256244165Y-133548366D01*
X256215415Y-133471200D01*
X256207605Y-133447692D01*
X256185417Y-133384916D01*
X256163727Y-133336411D01*
X256151813Y-133318079D01*
X256125523Y-133306859D01*
X256068142Y-133290954D01*
X255987118Y-133272167D01*
X255889895Y-133252299D01*
X255846385Y-133244132D01*
X255735896Y-133223829D01*
X255629916Y-133204170D01*
X255538801Y-133187088D01*
X255472908Y-133174518D01*
X255460500Y-133172091D01*
X255357923Y-133151845D01*
X255357923Y-132724701D01*
X255358153Y-132584246D01*
X255359099Y-132477979D01*
X255361141Y-132401013D01*
X255364662Y-132348460D01*
X255370043Y-132315433D01*
X255377666Y-132297045D01*
X255387912Y-132288408D01*
X255392115Y-132286807D01*
X255417470Y-132281127D01*
X255473484Y-132269795D01*
X255552964Y-132254179D01*
X255648712Y-132235647D01*
X255753533Y-132215569D01*
X255860232Y-132195312D01*
X255961613Y-132176246D01*
X256050479Y-132159739D01*
X256119637Y-132147159D01*
X256161889Y-132139875D01*
X256171290Y-132138616D01*
X256179807Y-132121763D01*
X256198660Y-132076870D01*
X256224324Y-132012430D01*
X256234123Y-131987192D01*
X256273648Y-131889686D01*
X256320192Y-131781959D01*
X256361877Y-131691172D01*
X256392550Y-131621753D01*
X256412956Y-131564710D01*
X256419768Y-131529777D01*
X256418682Y-131525095D01*
X256404285Y-131502991D01*
X256371412Y-131453831D01*
X256323590Y-131382848D01*
X256264348Y-131295278D01*
X256197215Y-131196357D01*
X256183941Y-131176830D01*
X256106046Y-131061140D01*
X256048787Y-130973044D01*
X256009881Y-130908486D01*
X255987044Y-130863411D01*
X255977994Y-130833763D01*
X255980448Y-130815485D01*
X255980511Y-130815369D01*
X255999827Y-130791361D01*
X256042551Y-130744947D01*
X256104051Y-130680937D01*
X256179698Y-130604145D01*
X256264861Y-130519382D01*
X256274465Y-130509922D01*
X256381790Y-130405989D01*
X256464615Y-130329675D01*
X256524605Y-130279571D01*
X256563423Y-130254270D01*
X256580520Y-130251004D01*
X256605473Y-130265250D01*
X256657255Y-130298156D01*
X256730520Y-130346208D01*
X256819920Y-130405890D01*
X256920111Y-130473688D01*
X256943501Y-130489639D01*
X257275593Y-130716420D01*
X257425565Y-130648353D01*
X257516770Y-130608685D01*
X257614669Y-130568791D01*
X257698831Y-130536983D01*
X257702538Y-130535674D01*
X257768369Y-130511576D01*
X257819116Y-130491200D01*
X257843842Y-130478936D01*
X257843884Y-130478901D01*
X257851729Y-130456734D01*
X257865066Y-130402217D01*
X257882570Y-130321480D01*
X257902917Y-130220650D01*
X257924782Y-130105856D01*
X257926571Y-130096178D01*
X257948504Y-129977904D01*
X257968640Y-129870542D01*
X257985680Y-129780917D01*
X257998328Y-129715851D01*
X258005284Y-129682168D01*
X258005406Y-129681654D01*
X258009639Y-129667325D01*
X258017871Y-129656507D01*
X258035033Y-129648706D01*
X258066058Y-129643429D01*
X258115878Y-129640182D01*
X258189424Y-129638472D01*
X258291629Y-129637807D01*
X258427425Y-129637693D01*
X258445000Y-129637692D01*
X258584878Y-129637776D01*
D11*
X234696000Y-127465000D02*
X234696000Y-102489000D01*
X228600000Y-127465000D02*
X228600000Y-102405000D01*
D12*
X228600000Y-102405000D02*
X237720000Y-102405000D01*
X237720000Y-127465000D02*
X228600000Y-127465000D01*
X237720000Y-102405000D02*
X237720000Y-127465000D01*
X225675000Y-140210000D02*
X225675000Y-145090000D01*
X239145000Y-140210000D02*
X239145000Y-145090000D01*
X225675000Y-153420000D02*
X239145000Y-153420000D01*
X238375000Y-140210000D02*
X239145000Y-140210000D01*
X225675000Y-140210000D02*
X238375000Y-140210000D01*
X225675000Y-148540000D02*
X225675000Y-153420000D01*
X239145000Y-148540000D02*
X239145000Y-153420000D01*
X211035000Y-115155000D02*
X211035000Y-117255000D01*
X204035000Y-119655000D02*
X211035000Y-119655000D01*
X204035000Y-112755000D02*
X209135000Y-112755000D01*
X199135000Y-112755000D02*
X201635000Y-112755000D01*
X199135000Y-113505000D02*
X199135000Y-112755000D01*
X199135000Y-119655000D02*
X199135000Y-118905000D01*
X201635000Y-119655000D02*
X199135000Y-119655000D01*
X211035000Y-124045000D02*
X211035000Y-126145000D01*
X204035000Y-128545000D02*
X211035000Y-128545000D01*
X204035000Y-121645000D02*
X209135000Y-121645000D01*
X199135000Y-121645000D02*
X201635000Y-121645000D01*
X199135000Y-122395000D02*
X199135000Y-121645000D01*
X199135000Y-128545000D02*
X199135000Y-127795000D01*
X201635000Y-128545000D02*
X199135000Y-128545000D01*
X211035000Y-132935000D02*
X211035000Y-135035000D01*
X204035000Y-137435000D02*
X211035000Y-137435000D01*
X204035000Y-130535000D02*
X209135000Y-130535000D01*
X199135000Y-130535000D02*
X201635000Y-130535000D01*
X199135000Y-131285000D02*
X199135000Y-130535000D01*
X199135000Y-137435000D02*
X199135000Y-136685000D01*
X201635000Y-137435000D02*
X199135000Y-137435000D01*
X254805000Y-117555000D02*
X254805000Y-125295000D01*
X254805000Y-125295000D02*
X257465000Y-125295000D01*
X257465000Y-125295000D02*
X257465000Y-117555000D01*
X257465000Y-117555000D02*
X254805000Y-117555000D01*
X257465000Y-118505000D02*
X263465000Y-118505000D01*
X263465000Y-118505000D02*
X263465000Y-119265000D01*
X263465000Y-119265000D02*
X257465000Y-119265000D01*
X257465000Y-118565000D02*
X263465000Y-118565000D01*
X257465000Y-118685000D02*
X263465000Y-118685000D01*
X257465000Y-118805000D02*
X263465000Y-118805000D01*
X257465000Y-118925000D02*
X263465000Y-118925000D01*
X257465000Y-119045000D02*
X263465000Y-119045000D01*
X257465000Y-119165000D02*
X263465000Y-119165000D01*
X254475000Y-118505000D02*
X254805000Y-118505000D01*
X254475000Y-119265000D02*
X254805000Y-119265000D01*
X254805000Y-120155000D02*
X257465000Y-120155000D01*
X257465000Y-121045000D02*
X263465000Y-121045000D01*
X263465000Y-121045000D02*
X263465000Y-121805000D01*
X263465000Y-121805000D02*
X257465000Y-121805000D01*
X254407929Y-121045000D02*
X254805000Y-121045000D01*
X254407929Y-121805000D02*
X254805000Y-121805000D01*
X254805000Y-122695000D02*
X257465000Y-122695000D01*
X257465000Y-123585000D02*
X263465000Y-123585000D01*
X263465000Y-123585000D02*
X263465000Y-124345000D01*
X263465000Y-124345000D02*
X257465000Y-124345000D01*
X254407929Y-123585000D02*
X254805000Y-123585000D01*
X254407929Y-124345000D02*
X254805000Y-124345000D01*
X252095000Y-118885000D02*
X252095000Y-117615000D01*
X252095000Y-117615000D02*
X253365000Y-117615000D01*
X246955000Y-113725000D02*
X249615000Y-113725000D01*
X246955000Y-106045000D02*
X246955000Y-113725000D01*
X249615000Y-106045000D02*
X249615000Y-113725000D01*
X246955000Y-106045000D02*
X249615000Y-106045000D01*
X246955000Y-104775000D02*
X246955000Y-103445000D01*
X246955000Y-103445000D02*
X248285000Y-103445000D01*
X254780000Y-103445000D02*
X254780000Y-113725000D01*
X254780000Y-113725000D02*
X257440000Y-113725000D01*
X257440000Y-113725000D02*
X257440000Y-103445000D01*
X257440000Y-103445000D02*
X254780000Y-103445000D01*
X257440000Y-104395000D02*
X263440000Y-104395000D01*
X263440000Y-104395000D02*
X263440000Y-105155000D01*
X263440000Y-105155000D02*
X257440000Y-105155000D01*
X257440000Y-104455000D02*
X263440000Y-104455000D01*
X257440000Y-104575000D02*
X263440000Y-104575000D01*
X257440000Y-104695000D02*
X263440000Y-104695000D01*
X257440000Y-104815000D02*
X263440000Y-104815000D01*
X257440000Y-104935000D02*
X263440000Y-104935000D01*
X257440000Y-105055000D02*
X263440000Y-105055000D01*
X254450000Y-104395000D02*
X254780000Y-104395000D01*
X254450000Y-105155000D02*
X254780000Y-105155000D01*
X254780000Y-106045000D02*
X257440000Y-106045000D01*
X257440000Y-106935000D02*
X263440000Y-106935000D01*
X263440000Y-106935000D02*
X263440000Y-107695000D01*
X263440000Y-107695000D02*
X257440000Y-107695000D01*
X254382929Y-106935000D02*
X254780000Y-106935000D01*
X254382929Y-107695000D02*
X254780000Y-107695000D01*
X254780000Y-108585000D02*
X257440000Y-108585000D01*
X257440000Y-109475000D02*
X263440000Y-109475000D01*
X263440000Y-109475000D02*
X263440000Y-110235000D01*
X263440000Y-110235000D02*
X257440000Y-110235000D01*
X254382929Y-109475000D02*
X254780000Y-109475000D01*
X254382929Y-110235000D02*
X254780000Y-110235000D01*
X254780000Y-111125000D02*
X257440000Y-111125000D01*
X257440000Y-112015000D02*
X263440000Y-112015000D01*
X263440000Y-112015000D02*
X263440000Y-112775000D01*
X263440000Y-112775000D02*
X257440000Y-112775000D01*
X254382929Y-112015000D02*
X254780000Y-112015000D01*
X254382929Y-112775000D02*
X254780000Y-112775000D01*
X252070000Y-104775000D02*
X252070000Y-103505000D01*
X252070000Y-103505000D02*
X253340000Y-103505000D01*
X222285000Y-118455000D02*
X222285000Y-118785000D01*
X222285000Y-118785000D02*
X215865000Y-118785000D01*
X215865000Y-118785000D02*
X215865000Y-118455000D01*
X222285000Y-116495000D02*
X222285000Y-116165000D01*
X222285000Y-116165000D02*
X215865000Y-116165000D01*
X215865000Y-116165000D02*
X215865000Y-116495000D01*
X222285000Y-112740000D02*
X222285000Y-113070000D01*
X222285000Y-113070000D02*
X215865000Y-113070000D01*
X215865000Y-113070000D02*
X215865000Y-112740000D01*
X222285000Y-110780000D02*
X222285000Y-110450000D01*
X222285000Y-110450000D02*
X215865000Y-110450000D01*
X215865000Y-110450000D02*
X215865000Y-110780000D01*
X220920000Y-132985000D02*
G75*
G02X220920000Y-134985000I0J-1000000D01*
G01*
X220920000Y-134985000D02*
X220920000Y-136635000D01*
X220920000Y-136635000D02*
X241360000Y-136635000D01*
X241360000Y-136635000D02*
X241360000Y-131335000D01*
X241360000Y-131335000D02*
X220920000Y-131335000D01*
X220920000Y-131335000D02*
X220920000Y-132985000D01*
X242485000Y-125295000D02*
X245145000Y-125295000D01*
X242485000Y-120155000D02*
X242485000Y-125295000D01*
X245145000Y-120155000D02*
X245145000Y-125295000D01*
X242485000Y-120155000D02*
X245145000Y-120155000D01*
X242485000Y-118885000D02*
X242485000Y-117555000D01*
X242485000Y-117555000D02*
X243815000Y-117555000D01*
X245660000Y-125295000D02*
X248320000Y-125295000D01*
X245660000Y-120155000D02*
X245660000Y-125295000D01*
X248320000Y-120155000D02*
X248320000Y-125295000D01*
X245660000Y-120155000D02*
X248320000Y-120155000D01*
X245660000Y-118885000D02*
X245660000Y-117555000D01*
X245660000Y-117555000D02*
X246990000Y-117555000D01*
X248835000Y-125295000D02*
X251495000Y-125295000D01*
X248835000Y-120155000D02*
X248835000Y-125295000D01*
X251495000Y-120155000D02*
X251495000Y-125295000D01*
X248835000Y-120155000D02*
X251495000Y-120155000D01*
X248835000Y-118885000D02*
X248835000Y-117555000D01*
X248835000Y-117555000D02*
X250165000Y-117555000D01*
X222285000Y-107025000D02*
X222285000Y-107355000D01*
X222285000Y-107355000D02*
X215865000Y-107355000D01*
X215865000Y-107355000D02*
X215865000Y-107025000D01*
X222285000Y-105065000D02*
X222285000Y-104735000D01*
X222285000Y-104735000D02*
X215865000Y-104735000D01*
X215865000Y-104735000D02*
X215865000Y-105065000D01*
X242820000Y-140210000D02*
X242820000Y-145090000D01*
X256290000Y-140210000D02*
X256290000Y-145090000D01*
X242820000Y-153420000D02*
X256290000Y-153420000D01*
X255520000Y-140210000D02*
X256290000Y-140210000D01*
X242820000Y-140210000D02*
X255520000Y-140210000D01*
X242820000Y-148540000D02*
X242820000Y-153420000D01*
X256290000Y-148540000D02*
X256290000Y-153420000D01*
X211035000Y-106265000D02*
X211035000Y-108365000D01*
X204035000Y-110765000D02*
X211035000Y-110765000D01*
X204035000Y-103865000D02*
X209135000Y-103865000D01*
X199135000Y-103865000D02*
X201635000Y-103865000D01*
X199135000Y-104615000D02*
X199135000Y-103865000D01*
X199135000Y-110765000D02*
X199135000Y-110015000D01*
X201635000Y-110765000D02*
X199135000Y-110765000D01*
X208505000Y-140210000D02*
X208505000Y-145090000D01*
X221975000Y-140210000D02*
X221975000Y-145090000D01*
X208505000Y-153420000D02*
X221975000Y-153420000D01*
X221205000Y-140210000D02*
X221975000Y-140210000D01*
X208505000Y-140210000D02*
X221205000Y-140210000D01*
X208505000Y-148540000D02*
X208505000Y-153420000D01*
X221975000Y-148540000D02*
X221975000Y-153420000D01*
D11*
X226782380Y-115696904D02*
X227591904Y-115696904D01*
X227687142Y-115649285D01*
X227734761Y-115601666D01*
X227782380Y-115506428D01*
X227782380Y-115315952D01*
X227734761Y-115220714D01*
X227687142Y-115173095D01*
X227591904Y-115125476D01*
X226782380Y-115125476D01*
X227782380Y-114125476D02*
X227782380Y-114696904D01*
X227782380Y-114411190D02*
X226782380Y-114411190D01*
X226925238Y-114506428D01*
X227020476Y-114601666D01*
X227068095Y-114696904D01*
X232330714Y-126531666D02*
X232806904Y-126531666D01*
X232235476Y-126817380D02*
X232568809Y-125817380D01*
X232902142Y-126817380D01*
X233140238Y-125817380D02*
X233759285Y-125817380D01*
X233425952Y-126198333D01*
X233568809Y-126198333D01*
X233664047Y-126245952D01*
X233711666Y-126293571D01*
X233759285Y-126388809D01*
X233759285Y-126626904D01*
X233711666Y-126722142D01*
X233664047Y-126769761D01*
X233568809Y-126817380D01*
X233283095Y-126817380D01*
X233187857Y-126769761D01*
X233140238Y-126722142D01*
X232330714Y-123991666D02*
X232806904Y-123991666D01*
X232235476Y-124277380D02*
X232568809Y-123277380D01*
X232902142Y-124277380D01*
X233187857Y-123372619D02*
X233235476Y-123325000D01*
X233330714Y-123277380D01*
X233568809Y-123277380D01*
X233664047Y-123325000D01*
X233711666Y-123372619D01*
X233759285Y-123467857D01*
X233759285Y-123563095D01*
X233711666Y-123705952D01*
X233140238Y-124277380D01*
X233759285Y-124277380D01*
X232330714Y-121451666D02*
X232806904Y-121451666D01*
X232235476Y-121737380D02*
X232568809Y-120737380D01*
X232902142Y-121737380D01*
X233759285Y-121737380D02*
X233187857Y-121737380D01*
X233473571Y-121737380D02*
X233473571Y-120737380D01*
X233378333Y-120880238D01*
X233283095Y-120975476D01*
X233187857Y-121023095D01*
X232330714Y-118911666D02*
X232806904Y-118911666D01*
X232235476Y-119197380D02*
X232568809Y-118197380D01*
X232902142Y-119197380D01*
X233425952Y-118197380D02*
X233521190Y-118197380D01*
X233616428Y-118245000D01*
X233664047Y-118292619D01*
X233711666Y-118387857D01*
X233759285Y-118578333D01*
X233759285Y-118816428D01*
X233711666Y-119006904D01*
X233664047Y-119102142D01*
X233616428Y-119149761D01*
X233521190Y-119197380D01*
X233425952Y-119197380D01*
X233330714Y-119149761D01*
X233283095Y-119102142D01*
X233235476Y-119006904D01*
X233187857Y-118816428D01*
X233187857Y-118578333D01*
X233235476Y-118387857D01*
X233283095Y-118292619D01*
X233330714Y-118245000D01*
X233425952Y-118197380D01*
X229798809Y-116371666D02*
X230275000Y-116371666D01*
X229703571Y-116657380D02*
X230036904Y-115657380D01*
X230370238Y-116657380D01*
X231179761Y-116657380D02*
X230703571Y-116657380D01*
X230703571Y-115657380D01*
X231513095Y-116133571D02*
X231846428Y-116133571D01*
X231989285Y-116657380D02*
X231513095Y-116657380D01*
X231513095Y-115657380D01*
X231989285Y-115657380D01*
X232989285Y-116657380D02*
X232655952Y-116181190D01*
X232417857Y-116657380D02*
X232417857Y-115657380D01*
X232798809Y-115657380D01*
X232894047Y-115705000D01*
X232941666Y-115752619D01*
X232989285Y-115847857D01*
X232989285Y-115990714D01*
X232941666Y-116085952D01*
X232894047Y-116133571D01*
X232798809Y-116181190D01*
X232417857Y-116181190D01*
X233275000Y-115657380D02*
X233846428Y-115657380D01*
X233560714Y-116657380D02*
X233560714Y-115657380D01*
X230036904Y-113831666D02*
X230513095Y-113831666D01*
X229941666Y-114117380D02*
X230275000Y-113117380D01*
X230608333Y-114117380D01*
X230941666Y-114117380D02*
X230941666Y-113117380D01*
X231179761Y-113117380D01*
X231322619Y-113165000D01*
X231417857Y-113260238D01*
X231465476Y-113355476D01*
X231513095Y-113545952D01*
X231513095Y-113688809D01*
X231465476Y-113879285D01*
X231417857Y-113974523D01*
X231322619Y-114069761D01*
X231179761Y-114117380D01*
X230941666Y-114117380D01*
X231941666Y-114117380D02*
X231941666Y-113117380D01*
X232179761Y-113117380D01*
X232322619Y-113165000D01*
X232417857Y-113260238D01*
X232465476Y-113355476D01*
X232513095Y-113545952D01*
X232513095Y-113688809D01*
X232465476Y-113879285D01*
X232417857Y-113974523D01*
X232322619Y-114069761D01*
X232179761Y-114117380D01*
X231941666Y-114117380D01*
X233513095Y-114117380D02*
X233179761Y-113641190D01*
X232941666Y-114117380D02*
X232941666Y-113117380D01*
X233322619Y-113117380D01*
X233417857Y-113165000D01*
X233465476Y-113212619D01*
X233513095Y-113307857D01*
X233513095Y-113450714D01*
X233465476Y-113545952D01*
X233417857Y-113593571D01*
X233322619Y-113641190D01*
X232941666Y-113641190D01*
X231219523Y-111529761D02*
X231362380Y-111577380D01*
X231600476Y-111577380D01*
X231695714Y-111529761D01*
X231743333Y-111482142D01*
X231790952Y-111386904D01*
X231790952Y-111291666D01*
X231743333Y-111196428D01*
X231695714Y-111148809D01*
X231600476Y-111101190D01*
X231410000Y-111053571D01*
X231314761Y-111005952D01*
X231267142Y-110958333D01*
X231219523Y-110863095D01*
X231219523Y-110767857D01*
X231267142Y-110672619D01*
X231314761Y-110625000D01*
X231410000Y-110577380D01*
X231648095Y-110577380D01*
X231790952Y-110625000D01*
X232790952Y-111482142D02*
X232743333Y-111529761D01*
X232600476Y-111577380D01*
X232505238Y-111577380D01*
X232362380Y-111529761D01*
X232267142Y-111434523D01*
X232219523Y-111339285D01*
X232171904Y-111148809D01*
X232171904Y-111005952D01*
X232219523Y-110815476D01*
X232267142Y-110720238D01*
X232362380Y-110625000D01*
X232505238Y-110577380D01*
X232600476Y-110577380D01*
X232743333Y-110625000D01*
X232790952Y-110672619D01*
X233695714Y-111577380D02*
X233219523Y-111577380D01*
X233219523Y-110577380D01*
X231195714Y-108989761D02*
X231338571Y-109037380D01*
X231576666Y-109037380D01*
X231671904Y-108989761D01*
X231719523Y-108942142D01*
X231767142Y-108846904D01*
X231767142Y-108751666D01*
X231719523Y-108656428D01*
X231671904Y-108608809D01*
X231576666Y-108561190D01*
X231386190Y-108513571D01*
X231290952Y-108465952D01*
X231243333Y-108418333D01*
X231195714Y-108323095D01*
X231195714Y-108227857D01*
X231243333Y-108132619D01*
X231290952Y-108085000D01*
X231386190Y-108037380D01*
X231624285Y-108037380D01*
X231767142Y-108085000D01*
X232195714Y-109037380D02*
X232195714Y-108037380D01*
X232433809Y-108037380D01*
X232576666Y-108085000D01*
X232671904Y-108180238D01*
X232719523Y-108275476D01*
X232767142Y-108465952D01*
X232767142Y-108608809D01*
X232719523Y-108799285D01*
X232671904Y-108894523D01*
X232576666Y-108989761D01*
X232433809Y-109037380D01*
X232195714Y-109037380D01*
X233148095Y-108751666D02*
X233624285Y-108751666D01*
X233052857Y-109037380D02*
X233386190Y-108037380D01*
X233719523Y-109037380D01*
X231648095Y-105545000D02*
X231552857Y-105497380D01*
X231410000Y-105497380D01*
X231267142Y-105545000D01*
X231171904Y-105640238D01*
X231124285Y-105735476D01*
X231076666Y-105925952D01*
X231076666Y-106068809D01*
X231124285Y-106259285D01*
X231171904Y-106354523D01*
X231267142Y-106449761D01*
X231410000Y-106497380D01*
X231505238Y-106497380D01*
X231648095Y-106449761D01*
X231695714Y-106402142D01*
X231695714Y-106068809D01*
X231505238Y-106068809D01*
X232124285Y-106497380D02*
X232124285Y-105497380D01*
X232695714Y-106497380D01*
X232695714Y-105497380D01*
X233171904Y-106497380D02*
X233171904Y-105497380D01*
X233410000Y-105497380D01*
X233552857Y-105545000D01*
X233648095Y-105640238D01*
X233695714Y-105735476D01*
X233743333Y-105925952D01*
X233743333Y-106068809D01*
X233695714Y-106259285D01*
X233648095Y-106354523D01*
X233552857Y-106449761D01*
X233410000Y-106497380D01*
X233171904Y-106497380D01*
X231076666Y-102957380D02*
X231410000Y-103957380D01*
X231743333Y-102957380D01*
X232648095Y-103862142D02*
X232600476Y-103909761D01*
X232457619Y-103957380D01*
X232362380Y-103957380D01*
X232219523Y-103909761D01*
X232124285Y-103814523D01*
X232076666Y-103719285D01*
X232029047Y-103528809D01*
X232029047Y-103385952D01*
X232076666Y-103195476D01*
X232124285Y-103100238D01*
X232219523Y-103005000D01*
X232362380Y-102957380D01*
X232457619Y-102957380D01*
X232600476Y-103005000D01*
X232648095Y-103052619D01*
X233648095Y-103862142D02*
X233600476Y-103909761D01*
X233457619Y-103957380D01*
X233362380Y-103957380D01*
X233219523Y-103909761D01*
X233124285Y-103814523D01*
X233076666Y-103719285D01*
X233029047Y-103528809D01*
X233029047Y-103385952D01*
X233076666Y-103195476D01*
X233124285Y-103100238D01*
X233219523Y-103005000D01*
X233362380Y-102957380D01*
X233457619Y-102957380D01*
X233600476Y-103005000D01*
X233648095Y-103052619D01*
X232201666Y-150582380D02*
X232201666Y-151296666D01*
X232154047Y-151439523D01*
X232058809Y-151534761D01*
X231915952Y-151582380D01*
X231820714Y-151582380D01*
X233106428Y-150582380D02*
X232915952Y-150582380D01*
X232820714Y-150630000D01*
X232773095Y-150677619D01*
X232677857Y-150820476D01*
X232630238Y-151010952D01*
X232630238Y-151391904D01*
X232677857Y-151487142D01*
X232725476Y-151534761D01*
X232820714Y-151582380D01*
X233011190Y-151582380D01*
X233106428Y-151534761D01*
X233154047Y-151487142D01*
X233201666Y-151391904D01*
X233201666Y-151153809D01*
X233154047Y-151058571D01*
X233106428Y-151010952D01*
X233011190Y-150963333D01*
X232820714Y-150963333D01*
X232725476Y-151010952D01*
X232677857Y-151058571D01*
X232630238Y-151153809D01*
X203501666Y-111157380D02*
X203501666Y-111871666D01*
X203454047Y-112014523D01*
X203358809Y-112109761D01*
X203215952Y-112157380D01*
X203120714Y-112157380D01*
X203882619Y-111157380D02*
X204501666Y-111157380D01*
X204168333Y-111538333D01*
X204311190Y-111538333D01*
X204406428Y-111585952D01*
X204454047Y-111633571D01*
X204501666Y-111728809D01*
X204501666Y-111966904D01*
X204454047Y-112062142D01*
X204406428Y-112109761D01*
X204311190Y-112157380D01*
X204025476Y-112157380D01*
X203930238Y-112109761D01*
X203882619Y-112062142D01*
X203501666Y-120047380D02*
X203501666Y-120761666D01*
X203454047Y-120904523D01*
X203358809Y-120999761D01*
X203215952Y-121047380D01*
X203120714Y-121047380D01*
X204406428Y-120380714D02*
X204406428Y-121047380D01*
X204168333Y-119999761D02*
X203930238Y-120714047D01*
X204549285Y-120714047D01*
X203501666Y-128937380D02*
X203501666Y-129651666D01*
X203454047Y-129794523D01*
X203358809Y-129889761D01*
X203215952Y-129937380D01*
X203120714Y-129937380D01*
X204454047Y-128937380D02*
X203977857Y-128937380D01*
X203930238Y-129413571D01*
X203977857Y-129365952D01*
X204073095Y-129318333D01*
X204311190Y-129318333D01*
X204406428Y-129365952D01*
X204454047Y-129413571D01*
X204501666Y-129508809D01*
X204501666Y-129746904D01*
X204454047Y-129842142D01*
X204406428Y-129889761D01*
X204311190Y-129937380D01*
X204073095Y-129937380D01*
X203977857Y-129889761D01*
X203930238Y-129842142D01*
X257416666Y-116067380D02*
X257416666Y-116781666D01*
X257369047Y-116924523D01*
X257273809Y-117019761D01*
X257130952Y-117067380D01*
X257035714Y-117067380D01*
X258035714Y-116495952D02*
X257940476Y-116448333D01*
X257892857Y-116400714D01*
X257845238Y-116305476D01*
X257845238Y-116257857D01*
X257892857Y-116162619D01*
X257940476Y-116115000D01*
X258035714Y-116067380D01*
X258226190Y-116067380D01*
X258321428Y-116115000D01*
X258369047Y-116162619D01*
X258416666Y-116257857D01*
X258416666Y-116305476D01*
X258369047Y-116400714D01*
X258321428Y-116448333D01*
X258226190Y-116495952D01*
X258035714Y-116495952D01*
X257940476Y-116543571D01*
X257892857Y-116591190D01*
X257845238Y-116686428D01*
X257845238Y-116876904D01*
X257892857Y-116972142D01*
X257940476Y-117019761D01*
X258035714Y-117067380D01*
X258226190Y-117067380D01*
X258321428Y-117019761D01*
X258369047Y-116972142D01*
X258416666Y-116876904D01*
X258416666Y-116686428D01*
X258369047Y-116591190D01*
X258321428Y-116543571D01*
X258226190Y-116495952D01*
X247475476Y-101897380D02*
X247475476Y-102611666D01*
X247427857Y-102754523D01*
X247332619Y-102849761D01*
X247189761Y-102897380D01*
X247094523Y-102897380D01*
X248475476Y-102897380D02*
X247904047Y-102897380D01*
X248189761Y-102897380D02*
X248189761Y-101897380D01*
X248094523Y-102040238D01*
X247999285Y-102135476D01*
X247904047Y-102183095D01*
X249332619Y-102230714D02*
X249332619Y-102897380D01*
X249094523Y-101849761D02*
X248856428Y-102564047D01*
X249475476Y-102564047D01*
X256915476Y-101957380D02*
X256915476Y-102671666D01*
X256867857Y-102814523D01*
X256772619Y-102909761D01*
X256629761Y-102957380D01*
X256534523Y-102957380D01*
X257915476Y-102957380D02*
X257344047Y-102957380D01*
X257629761Y-102957380D02*
X257629761Y-101957380D01*
X257534523Y-102100238D01*
X257439285Y-102195476D01*
X257344047Y-102243095D01*
X258248809Y-101957380D02*
X258867857Y-101957380D01*
X258534523Y-102338333D01*
X258677380Y-102338333D01*
X258772619Y-102385952D01*
X258820238Y-102433571D01*
X258867857Y-102528809D01*
X258867857Y-102766904D01*
X258820238Y-102862142D01*
X258772619Y-102909761D01*
X258677380Y-102957380D01*
X258391666Y-102957380D01*
X258296428Y-102909761D01*
X258248809Y-102862142D01*
X218908333Y-120237380D02*
X218575000Y-119761190D01*
X218336904Y-120237380D02*
X218336904Y-119237380D01*
X218717857Y-119237380D01*
X218813095Y-119285000D01*
X218860714Y-119332619D01*
X218908333Y-119427857D01*
X218908333Y-119570714D01*
X218860714Y-119665952D01*
X218813095Y-119713571D01*
X218717857Y-119761190D01*
X218336904Y-119761190D01*
X219241666Y-119237380D02*
X219860714Y-119237380D01*
X219527380Y-119618333D01*
X219670238Y-119618333D01*
X219765476Y-119665952D01*
X219813095Y-119713571D01*
X219860714Y-119808809D01*
X219860714Y-120046904D01*
X219813095Y-120142142D01*
X219765476Y-120189761D01*
X219670238Y-120237380D01*
X219384523Y-120237380D01*
X219289285Y-120189761D01*
X219241666Y-120142142D01*
X218908333Y-114522380D02*
X218575000Y-114046190D01*
X218336904Y-114522380D02*
X218336904Y-113522380D01*
X218717857Y-113522380D01*
X218813095Y-113570000D01*
X218860714Y-113617619D01*
X218908333Y-113712857D01*
X218908333Y-113855714D01*
X218860714Y-113950952D01*
X218813095Y-113998571D01*
X218717857Y-114046190D01*
X218336904Y-114046190D01*
X219289285Y-113617619D02*
X219336904Y-113570000D01*
X219432142Y-113522380D01*
X219670238Y-113522380D01*
X219765476Y-113570000D01*
X219813095Y-113617619D01*
X219860714Y-113712857D01*
X219860714Y-113808095D01*
X219813095Y-113950952D01*
X219241666Y-114522380D01*
X219860714Y-114522380D01*
X219372380Y-134746904D02*
X220181904Y-134746904D01*
X220277142Y-134699285D01*
X220324761Y-134651666D01*
X220372380Y-134556428D01*
X220372380Y-134365952D01*
X220324761Y-134270714D01*
X220277142Y-134223095D01*
X220181904Y-134175476D01*
X219372380Y-134175476D01*
X219467619Y-133746904D02*
X219420000Y-133699285D01*
X219372380Y-133604047D01*
X219372380Y-133365952D01*
X219420000Y-133270714D01*
X219467619Y-133223095D01*
X219562857Y-133175476D01*
X219658095Y-133175476D01*
X219800952Y-133223095D01*
X220372380Y-133794523D01*
X220372380Y-133175476D01*
X243005476Y-116007380D02*
X243005476Y-116721666D01*
X242957857Y-116864523D01*
X242862619Y-116959761D01*
X242719761Y-117007380D01*
X242624523Y-117007380D01*
X244005476Y-117007380D02*
X243434047Y-117007380D01*
X243719761Y-117007380D02*
X243719761Y-116007380D01*
X243624523Y-116150238D01*
X243529285Y-116245476D01*
X243434047Y-116293095D01*
X244957857Y-117007380D02*
X244386428Y-117007380D01*
X244672142Y-117007380D02*
X244672142Y-116007380D01*
X244576904Y-116150238D01*
X244481666Y-116245476D01*
X244386428Y-116293095D01*
X246180476Y-116007380D02*
X246180476Y-116721666D01*
X246132857Y-116864523D01*
X246037619Y-116959761D01*
X245894761Y-117007380D01*
X245799523Y-117007380D01*
X247180476Y-117007380D02*
X246609047Y-117007380D01*
X246894761Y-117007380D02*
X246894761Y-116007380D01*
X246799523Y-116150238D01*
X246704285Y-116245476D01*
X246609047Y-116293095D01*
X247799523Y-116007380D02*
X247894761Y-116007380D01*
X247990000Y-116055000D01*
X248037619Y-116102619D01*
X248085238Y-116197857D01*
X248132857Y-116388333D01*
X248132857Y-116626428D01*
X248085238Y-116816904D01*
X248037619Y-116912142D01*
X247990000Y-116959761D01*
X247894761Y-117007380D01*
X247799523Y-117007380D01*
X247704285Y-116959761D01*
X247656666Y-116912142D01*
X247609047Y-116816904D01*
X247561428Y-116626428D01*
X247561428Y-116388333D01*
X247609047Y-116197857D01*
X247656666Y-116102619D01*
X247704285Y-116055000D01*
X247799523Y-116007380D01*
X249831666Y-116007380D02*
X249831666Y-116721666D01*
X249784047Y-116864523D01*
X249688809Y-116959761D01*
X249545952Y-117007380D01*
X249450714Y-117007380D01*
X250355476Y-117007380D02*
X250545952Y-117007380D01*
X250641190Y-116959761D01*
X250688809Y-116912142D01*
X250784047Y-116769285D01*
X250831666Y-116578809D01*
X250831666Y-116197857D01*
X250784047Y-116102619D01*
X250736428Y-116055000D01*
X250641190Y-116007380D01*
X250450714Y-116007380D01*
X250355476Y-116055000D01*
X250307857Y-116102619D01*
X250260238Y-116197857D01*
X250260238Y-116435952D01*
X250307857Y-116531190D01*
X250355476Y-116578809D01*
X250450714Y-116626428D01*
X250641190Y-116626428D01*
X250736428Y-116578809D01*
X250784047Y-116531190D01*
X250831666Y-116435952D01*
X218908333Y-108807380D02*
X218575000Y-108331190D01*
X218336904Y-108807380D02*
X218336904Y-107807380D01*
X218717857Y-107807380D01*
X218813095Y-107855000D01*
X218860714Y-107902619D01*
X218908333Y-107997857D01*
X218908333Y-108140714D01*
X218860714Y-108235952D01*
X218813095Y-108283571D01*
X218717857Y-108331190D01*
X218336904Y-108331190D01*
X219860714Y-108807380D02*
X219289285Y-108807380D01*
X219575000Y-108807380D02*
X219575000Y-107807380D01*
X219479761Y-107950238D01*
X219384523Y-108045476D01*
X219289285Y-108093095D01*
X249346666Y-150582380D02*
X249346666Y-151296666D01*
X249299047Y-151439523D01*
X249203809Y-151534761D01*
X249060952Y-151582380D01*
X248965714Y-151582380D01*
X249727619Y-150582380D02*
X250394285Y-150582380D01*
X249965714Y-151582380D01*
X203501666Y-102267380D02*
X203501666Y-102981666D01*
X203454047Y-103124523D01*
X203358809Y-103219761D01*
X203215952Y-103267380D01*
X203120714Y-103267380D01*
X203930238Y-102362619D02*
X203977857Y-102315000D01*
X204073095Y-102267380D01*
X204311190Y-102267380D01*
X204406428Y-102315000D01*
X204454047Y-102362619D01*
X204501666Y-102457857D01*
X204501666Y-102553095D01*
X204454047Y-102695952D01*
X203882619Y-103267380D01*
X204501666Y-103267380D01*
X215031666Y-150582380D02*
X215031666Y-151296666D01*
X214984047Y-151439523D01*
X214888809Y-151534761D01*
X214745952Y-151582380D01*
X214650714Y-151582380D01*
X216031666Y-151582380D02*
X215460238Y-151582380D01*
X215745952Y-151582380D02*
X215745952Y-150582380D01*
X215650714Y-150725238D01*
X215555476Y-150820476D01*
X215460238Y-150868095D01*
X260190476Y-143252380D02*
X260190476Y-142252380D01*
X260523809Y-142966666D01*
X260857142Y-142252380D01*
X260857142Y-143252380D01*
X261333333Y-143252380D02*
X261333333Y-142252380D01*
X261904761Y-143252380D02*
X261476190Y-142680952D01*
X261904761Y-142252380D02*
X261333333Y-142823809D01*
X262761904Y-142585714D02*
X262761904Y-143252380D01*
X262523809Y-142204761D02*
X262285714Y-142919047D01*
X262904761Y-142919047D01*
X202190476Y-143252380D02*
X202190476Y-142252380D01*
X202523809Y-142966666D01*
X202857142Y-142252380D01*
X202857142Y-143252380D01*
X203333333Y-143252380D02*
X203333333Y-142252380D01*
X203904761Y-143252380D02*
X203476190Y-142680952D01*
X203904761Y-142252380D02*
X203333333Y-142823809D01*
X204238095Y-142252380D02*
X204857142Y-142252380D01*
X204523809Y-142633333D01*
X204666666Y-142633333D01*
X204761904Y-142680952D01*
X204809523Y-142728571D01*
X204857142Y-142823809D01*
X204857142Y-143061904D01*
X204809523Y-143157142D01*
X204761904Y-143204761D01*
X204666666Y-143252380D01*
X204380952Y-143252380D01*
X204285714Y-143204761D01*
X204238095Y-143157142D01*
X260190476Y-101652380D02*
X260190476Y-100652380D01*
X260523809Y-101366666D01*
X260857142Y-100652380D01*
X260857142Y-101652380D01*
X261333333Y-101652380D02*
X261333333Y-100652380D01*
X261904761Y-101652380D02*
X261476190Y-101080952D01*
X261904761Y-100652380D02*
X261333333Y-101223809D01*
X262285714Y-100747619D02*
X262333333Y-100700000D01*
X262428571Y-100652380D01*
X262666666Y-100652380D01*
X262761904Y-100700000D01*
X262809523Y-100747619D01*
X262857142Y-100842857D01*
X262857142Y-100938095D01*
X262809523Y-101080952D01*
X262238095Y-101652380D01*
X262857142Y-101652380D01*
X202190476Y-101652380D02*
X202190476Y-100652380D01*
X202523809Y-101366666D01*
X202857142Y-100652380D01*
X202857142Y-101652380D01*
X203333333Y-101652380D02*
X203333333Y-100652380D01*
X203904761Y-101652380D02*
X203476190Y-101080952D01*
X203904761Y-100652380D02*
X203333333Y-101223809D01*
X204857142Y-101652380D02*
X204285714Y-101652380D01*
X204571428Y-101652380D02*
X204571428Y-100652380D01*
X204476190Y-100795238D01*
X204380952Y-100890476D01*
X204285714Y-100938095D01*
M02*
