M48
INCH,TZ
T1C0.0236
T2C0.0276
T3C0.0315
T4C0.0354
T5C0.0394
%
G90
G05
T1
X81102Y-43504
X81102Y-47244
X83661Y-43110
X84843Y-40157
X85433Y-54724
X85827Y-42323
X86417Y-42323
X86811Y-45079
X86811Y-46850
X87008Y-42323
X87598Y-42323
X88976Y-48228
X89567Y-43307
X95472Y-55315
X97047Y-44094
T2
X83268Y-39764
T3
X87500Y-51250
X87500Y-54250
X88500Y-51250
X88500Y-54250
X89500Y-51250
X89500Y-54250
X90500Y-51250
X90500Y-54250
X91500Y-51250
X91500Y-54250
X92500Y-51250
X92500Y-54250
X93500Y-51250
X93500Y-54250
X94500Y-51250
X94500Y-54250
X95276Y-41339
X95276Y-44339
X93307Y-41339
X93307Y-44339
X84843Y-50591
X84843Y-53591
X84843Y-44244
X84843Y-47244
X91142Y-40776
X91142Y-41776
X91142Y-42776
X91142Y-43776
X91142Y-44776
X91142Y-45776
X91142Y-46776
X91142Y-47776
X91142Y-48776
X91142Y-49776
T4
X97205Y-57299
X97606Y-56299
X98008Y-57299
X98409Y-56299
X98811Y-57299
X99213Y-56299
X91102Y-57299
X91504Y-56299
X91906Y-57299
X92307Y-56299
X92709Y-57299
X93110Y-56299
X85000Y-57299
X85402Y-56299
X85803Y-57299
X86205Y-56299
X86606Y-57299
X87008Y-56299
T5
X97144Y-46805
X97144Y-47805
X97144Y-48805
X100144Y-46805
X100144Y-47805
X100144Y-48805
X82035Y-37886
X82035Y-38886
X83035Y-37886
X83035Y-38886
X84035Y-37886
X84035Y-38886
X85035Y-37886
X85035Y-38886
X86035Y-37886
X86035Y-38886
X87035Y-37886
X87035Y-38886
X88035Y-37886
X88035Y-38886
X89035Y-37886
X89035Y-38886
X90035Y-37886
X90035Y-38886
X91035Y-37886
X91035Y-38886
X92035Y-37886
X92035Y-38886
X93035Y-37886
X93035Y-38886
X94035Y-37886
X94035Y-38886
X95035Y-37886
X95035Y-38886
X96035Y-37886
X96035Y-38886
X97035Y-37886
X97035Y-38886
X98035Y-37886
X98035Y-38886
X99035Y-37886
X99035Y-38886
X100035Y-37886
X100035Y-38886
X101035Y-37886
X101035Y-38886
X100134Y-41250
X100134Y-42250
X100134Y-43250
X100134Y-44250
X95644Y-46805
X95644Y-47805
X95644Y-48805
X98622Y-41250
X98622Y-42250
X98622Y-43250
X98622Y-44250
X98644Y-46805
X98644Y-47805
X98644Y-48805
T5
G00X79291Y-42756
M15
G01X79685Y-42756
M16
G05
G00X80433Y-40787
M15
G01X80827Y-40787
M16
G05
G00X81969Y-42756
M15
G01X82362Y-42756
M16
G05
G00X82815Y-40866
M15
G01X83012Y-40866
M16
G05
G00X79291Y-50630
M15
G01X79685Y-50630
M16
G05
G00X80433Y-48661
M15
G01X80827Y-48661
M16
G05
G00X81969Y-50630
M15
G01X82362Y-50630
M16
G05
G00X82815Y-48740
M15
G01X83012Y-48740
M16
G05
G00X82067Y-52461
M15
G01X82106Y-52461
M16
G05
G00X82067Y-55020
M15
G01X82106Y-55020
M16
G05
G00X83071Y-53661
M15
G01X83071Y-53819
M16
G05
G00X79291Y-46693
M15
G01X79685Y-46693
M16
G05
G00X80433Y-44724
M15
G01X80827Y-44724
M16
G05
G00X81969Y-46693
M15
G01X82362Y-46693
M16
G05
G00X82815Y-44803
M15
G01X83012Y-44803
M16
G05
T0
M30
