G04 #@! TF.GenerationSoftware,KiCad,Pcbnew,(5.1.5)-3*
G04 #@! TF.CreationDate,2020-06-12T22:17:56+02:00*
G04 #@! TF.ProjectId,Main,4d61696e-2e6b-4696-9361-645f70636258,rev?*
G04 #@! TF.SameCoordinates,Original*
G04 #@! TF.FileFunction,Legend,Top*
G04 #@! TF.FilePolarity,Positive*
%FSLAX46Y46*%
G04 Gerber Fmt 4.6, Leading zero omitted, Abs format (unit mm)*
G04 Created by KiCad (PCBNEW (5.1.5)-3) date 2020-06-12 22:17:56*
%MOMM*%
%LPD*%
G04 APERTURE LIST*
%ADD10C,0.200000*%
%ADD11C,0.150000*%
%ADD12C,0.120000*%
%ADD13C,0.110000*%
G04 APERTURE END LIST*
D10*
X238661904Y-119149761D02*
X238804761Y-119197380D01*
X239042857Y-119197380D01*
X239138095Y-119149761D01*
X239185714Y-119102142D01*
X239233333Y-119006904D01*
X239233333Y-118911666D01*
X239185714Y-118816428D01*
X239138095Y-118768809D01*
X239042857Y-118721190D01*
X238852380Y-118673571D01*
X238757142Y-118625952D01*
X238709523Y-118578333D01*
X238661904Y-118483095D01*
X238661904Y-118387857D01*
X238709523Y-118292619D01*
X238757142Y-118245000D01*
X238852380Y-118197380D01*
X239090476Y-118197380D01*
X239233333Y-118245000D01*
X239661904Y-119197380D02*
X239661904Y-118197380D01*
X240661904Y-118245000D02*
X240566666Y-118197380D01*
X240423809Y-118197380D01*
X240280952Y-118245000D01*
X240185714Y-118340238D01*
X240138095Y-118435476D01*
X240090476Y-118625952D01*
X240090476Y-118768809D01*
X240138095Y-118959285D01*
X240185714Y-119054523D01*
X240280952Y-119149761D01*
X240423809Y-119197380D01*
X240519047Y-119197380D01*
X240661904Y-119149761D01*
X240709523Y-119102142D01*
X240709523Y-118768809D01*
X240519047Y-118768809D01*
D11*
X243317904Y-137104380D02*
X243317904Y-136104380D01*
X243746476Y-137104380D02*
X243746476Y-136580571D01*
X243698857Y-136485333D01*
X243603619Y-136437714D01*
X243460761Y-136437714D01*
X243365523Y-136485333D01*
X243317904Y-136532952D01*
X244079809Y-136437714D02*
X244460761Y-136437714D01*
X244222666Y-136104380D02*
X244222666Y-136961523D01*
X244270285Y-137056761D01*
X244365523Y-137104380D01*
X244460761Y-137104380D01*
X244651238Y-136437714D02*
X245032190Y-136437714D01*
X244794095Y-136104380D02*
X244794095Y-136961523D01*
X244841714Y-137056761D01*
X244936952Y-137104380D01*
X245032190Y-137104380D01*
X245365523Y-136437714D02*
X245365523Y-137437714D01*
X245365523Y-136485333D02*
X245460761Y-136437714D01*
X245651238Y-136437714D01*
X245746476Y-136485333D01*
X245794095Y-136532952D01*
X245841714Y-136628190D01*
X245841714Y-136913904D01*
X245794095Y-137009142D01*
X245746476Y-137056761D01*
X245651238Y-137104380D01*
X245460761Y-137104380D01*
X245365523Y-137056761D01*
X246222666Y-137056761D02*
X246317904Y-137104380D01*
X246508380Y-137104380D01*
X246603619Y-137056761D01*
X246651238Y-136961523D01*
X246651238Y-136913904D01*
X246603619Y-136818666D01*
X246508380Y-136771047D01*
X246365523Y-136771047D01*
X246270285Y-136723428D01*
X246222666Y-136628190D01*
X246222666Y-136580571D01*
X246270285Y-136485333D01*
X246365523Y-136437714D01*
X246508380Y-136437714D01*
X246603619Y-136485333D01*
X247079809Y-137009142D02*
X247127428Y-137056761D01*
X247079809Y-137104380D01*
X247032190Y-137056761D01*
X247079809Y-137009142D01*
X247079809Y-137104380D01*
X247079809Y-136485333D02*
X247127428Y-136532952D01*
X247079809Y-136580571D01*
X247032190Y-136532952D01*
X247079809Y-136485333D01*
X247079809Y-136580571D01*
X248270285Y-136056761D02*
X247413142Y-137342476D01*
X249317904Y-136056761D02*
X248460761Y-137342476D01*
X250079809Y-137104380D02*
X250079809Y-136580571D01*
X250032190Y-136485333D01*
X249936952Y-136437714D01*
X249746476Y-136437714D01*
X249651238Y-136485333D01*
X250079809Y-137056761D02*
X249984571Y-137104380D01*
X249746476Y-137104380D01*
X249651238Y-137056761D01*
X249603619Y-136961523D01*
X249603619Y-136866285D01*
X249651238Y-136771047D01*
X249746476Y-136723428D01*
X249984571Y-136723428D01*
X250079809Y-136675809D01*
X250984571Y-136437714D02*
X250984571Y-137437714D01*
X250984571Y-137056761D02*
X250889333Y-137104380D01*
X250698857Y-137104380D01*
X250603619Y-137056761D01*
X250556000Y-137009142D01*
X250508380Y-136913904D01*
X250508380Y-136628190D01*
X250556000Y-136532952D01*
X250603619Y-136485333D01*
X250698857Y-136437714D01*
X250889333Y-136437714D01*
X250984571Y-136485333D01*
X251889333Y-136437714D02*
X251889333Y-137104380D01*
X251460761Y-136437714D02*
X251460761Y-136961523D01*
X251508380Y-137056761D01*
X251603619Y-137104380D01*
X251746476Y-137104380D01*
X251841714Y-137056761D01*
X251889333Y-137009142D01*
X252794095Y-137104380D02*
X252794095Y-136580571D01*
X252746476Y-136485333D01*
X252651238Y-136437714D01*
X252460761Y-136437714D01*
X252365523Y-136485333D01*
X252794095Y-137056761D02*
X252698857Y-137104380D01*
X252460761Y-137104380D01*
X252365523Y-137056761D01*
X252317904Y-136961523D01*
X252317904Y-136866285D01*
X252365523Y-136771047D01*
X252460761Y-136723428D01*
X252698857Y-136723428D01*
X252794095Y-136675809D01*
X253270285Y-136437714D02*
X253270285Y-137437714D01*
X253270285Y-136485333D02*
X253365523Y-136437714D01*
X253556000Y-136437714D01*
X253651238Y-136485333D01*
X253698857Y-136532952D01*
X253746476Y-136628190D01*
X253746476Y-136913904D01*
X253698857Y-137009142D01*
X253651238Y-137056761D01*
X253556000Y-137104380D01*
X253365523Y-137104380D01*
X253270285Y-137056761D01*
X254175047Y-137104380D02*
X254175047Y-136437714D01*
X254175047Y-136104380D02*
X254127428Y-136152000D01*
X254175047Y-136199619D01*
X254222666Y-136152000D01*
X254175047Y-136104380D01*
X254175047Y-136199619D01*
X254651238Y-137009142D02*
X254698857Y-137056761D01*
X254651238Y-137104380D01*
X254603619Y-137056761D01*
X254651238Y-137009142D01*
X254651238Y-137104380D01*
X255127428Y-136437714D02*
X255127428Y-137437714D01*
X255127428Y-136485333D02*
X255222666Y-136437714D01*
X255413142Y-136437714D01*
X255508380Y-136485333D01*
X255556000Y-136532952D01*
X255603619Y-136628190D01*
X255603619Y-136913904D01*
X255556000Y-137009142D01*
X255508380Y-137056761D01*
X255413142Y-137104380D01*
X255222666Y-137104380D01*
X255127428Y-137056761D01*
X256175047Y-137104380D02*
X256079809Y-137056761D01*
X256032190Y-137009142D01*
X255984571Y-136913904D01*
X255984571Y-136628190D01*
X256032190Y-136532952D01*
X256079809Y-136485333D01*
X256175047Y-136437714D01*
X256317904Y-136437714D01*
X256413142Y-136485333D01*
X256460761Y-136532952D01*
X256508380Y-136628190D01*
X256508380Y-136913904D01*
X256460761Y-137009142D01*
X256413142Y-137056761D01*
X256317904Y-137104380D01*
X256175047Y-137104380D01*
X257079809Y-137104380D02*
X256984571Y-137056761D01*
X256936952Y-136961523D01*
X256936952Y-136104380D01*
X257889333Y-137104380D02*
X257889333Y-136580571D01*
X257841714Y-136485333D01*
X257746476Y-136437714D01*
X257556000Y-136437714D01*
X257460761Y-136485333D01*
X257889333Y-137056761D02*
X257794095Y-137104380D01*
X257556000Y-137104380D01*
X257460761Y-137056761D01*
X257413142Y-136961523D01*
X257413142Y-136866285D01*
X257460761Y-136771047D01*
X257556000Y-136723428D01*
X257794095Y-136723428D01*
X257889333Y-136675809D01*
X258365523Y-137104380D02*
X258365523Y-136437714D01*
X258365523Y-136628190D02*
X258413142Y-136532952D01*
X258460761Y-136485333D01*
X258556000Y-136437714D01*
X258651238Y-136437714D01*
X258984571Y-136437714D02*
X258984571Y-137104380D01*
X258984571Y-136532952D02*
X259032190Y-136485333D01*
X259127428Y-136437714D01*
X259270285Y-136437714D01*
X259365523Y-136485333D01*
X259413142Y-136580571D01*
X259413142Y-137104380D01*
X260270285Y-137056761D02*
X260175047Y-137104380D01*
X259984571Y-137104380D01*
X259889333Y-137056761D01*
X259841714Y-136961523D01*
X259841714Y-136580571D01*
X259889333Y-136485333D01*
X259984571Y-136437714D01*
X260175047Y-136437714D01*
X260270285Y-136485333D01*
X260317904Y-136580571D01*
X260317904Y-136675809D01*
X259841714Y-136771047D01*
X260603619Y-136437714D02*
X260984571Y-136437714D01*
X260746476Y-136104380D02*
X260746476Y-136961523D01*
X260794095Y-137056761D01*
X260889333Y-137104380D01*
X260984571Y-137104380D01*
X261317904Y-137009142D02*
X261365523Y-137056761D01*
X261317904Y-137104380D01*
X261270285Y-137056761D01*
X261317904Y-137009142D01*
X261317904Y-137104380D01*
X261794095Y-136437714D02*
X261794095Y-137437714D01*
X261794095Y-136485333D02*
X261889333Y-136437714D01*
X262079809Y-136437714D01*
X262175047Y-136485333D01*
X262222666Y-136532952D01*
X262270285Y-136628190D01*
X262270285Y-136913904D01*
X262222666Y-137009142D01*
X262175047Y-137056761D01*
X262079809Y-137104380D01*
X261889333Y-137104380D01*
X261794095Y-137056761D01*
X262841714Y-137104380D02*
X262746476Y-137056761D01*
X262698857Y-136961523D01*
X262698857Y-136104380D01*
X263936952Y-136056761D02*
X263079809Y-137342476D01*
X248008380Y-134573380D02*
X248008380Y-133573380D01*
X248341714Y-134287666D01*
X248675047Y-133573380D01*
X248675047Y-134573380D01*
X249579809Y-134573380D02*
X249579809Y-134049571D01*
X249532190Y-133954333D01*
X249436952Y-133906714D01*
X249246476Y-133906714D01*
X249151238Y-133954333D01*
X249579809Y-134525761D02*
X249484571Y-134573380D01*
X249246476Y-134573380D01*
X249151238Y-134525761D01*
X249103619Y-134430523D01*
X249103619Y-134335285D01*
X249151238Y-134240047D01*
X249246476Y-134192428D01*
X249484571Y-134192428D01*
X249579809Y-134144809D01*
X250056000Y-134573380D02*
X250056000Y-133906714D01*
X250056000Y-133573380D02*
X250008380Y-133621000D01*
X250056000Y-133668619D01*
X250103619Y-133621000D01*
X250056000Y-133573380D01*
X250056000Y-133668619D01*
X250532190Y-133906714D02*
X250532190Y-134573380D01*
X250532190Y-134001952D02*
X250579809Y-133954333D01*
X250675047Y-133906714D01*
X250817904Y-133906714D01*
X250913142Y-133954333D01*
X250960761Y-134049571D01*
X250960761Y-134573380D01*
X251436952Y-134573380D02*
X251436952Y-133573380D01*
X251436952Y-133954333D02*
X251532190Y-133906714D01*
X251722666Y-133906714D01*
X251817904Y-133954333D01*
X251865523Y-134001952D01*
X251913142Y-134097190D01*
X251913142Y-134382904D01*
X251865523Y-134478142D01*
X251817904Y-134525761D01*
X251722666Y-134573380D01*
X251532190Y-134573380D01*
X251436952Y-134525761D01*
X252484571Y-134573380D02*
X252389333Y-134525761D01*
X252341714Y-134478142D01*
X252294095Y-134382904D01*
X252294095Y-134097190D01*
X252341714Y-134001952D01*
X252389333Y-133954333D01*
X252484571Y-133906714D01*
X252627428Y-133906714D01*
X252722666Y-133954333D01*
X252770285Y-134001952D01*
X252817904Y-134097190D01*
X252817904Y-134382904D01*
X252770285Y-134478142D01*
X252722666Y-134525761D01*
X252627428Y-134573380D01*
X252484571Y-134573380D01*
X253675047Y-134573380D02*
X253675047Y-134049571D01*
X253627428Y-133954333D01*
X253532190Y-133906714D01*
X253341714Y-133906714D01*
X253246476Y-133954333D01*
X253675047Y-134525761D02*
X253579809Y-134573380D01*
X253341714Y-134573380D01*
X253246476Y-134525761D01*
X253198857Y-134430523D01*
X253198857Y-134335285D01*
X253246476Y-134240047D01*
X253341714Y-134192428D01*
X253579809Y-134192428D01*
X253675047Y-134144809D01*
X254151238Y-134573380D02*
X254151238Y-133906714D01*
X254151238Y-134097190D02*
X254198857Y-134001952D01*
X254246476Y-133954333D01*
X254341714Y-133906714D01*
X254436952Y-133906714D01*
X255198857Y-134573380D02*
X255198857Y-133573380D01*
X255198857Y-134525761D02*
X255103619Y-134573380D01*
X254913142Y-134573380D01*
X254817904Y-134525761D01*
X254770285Y-134478142D01*
X254722666Y-134382904D01*
X254722666Y-134097190D01*
X254770285Y-134001952D01*
X254817904Y-133954333D01*
X254913142Y-133906714D01*
X255103619Y-133906714D01*
X255198857Y-133954333D01*
X256341714Y-133906714D02*
X256579809Y-134573380D01*
X256817904Y-133906714D01*
X257151238Y-133668619D02*
X257198857Y-133621000D01*
X257294095Y-133573380D01*
X257532190Y-133573380D01*
X257627428Y-133621000D01*
X257675047Y-133668619D01*
X257722666Y-133763857D01*
X257722666Y-133859095D01*
X257675047Y-134001952D01*
X257103619Y-134573380D01*
X257722666Y-134573380D01*
X258151238Y-134478142D02*
X258198857Y-134525761D01*
X258151238Y-134573380D01*
X258103619Y-134525761D01*
X258151238Y-134478142D01*
X258151238Y-134573380D01*
X258817904Y-133573380D02*
X258913142Y-133573380D01*
X259008380Y-133621000D01*
X259056000Y-133668619D01*
X259103619Y-133763857D01*
X259151238Y-133954333D01*
X259151238Y-134192428D01*
X259103619Y-134382904D01*
X259056000Y-134478142D01*
X259008380Y-134525761D01*
X258913142Y-134573380D01*
X258817904Y-134573380D01*
X258722666Y-134525761D01*
X258675047Y-134478142D01*
X258627428Y-134382904D01*
X258579809Y-134192428D01*
X258579809Y-133954333D01*
X258627428Y-133763857D01*
X258675047Y-133668619D01*
X258722666Y-133621000D01*
X258817904Y-133573380D01*
X248889333Y-131143333D02*
X249841714Y-131143333D01*
X248698857Y-131714761D02*
X249365523Y-129714761D01*
X250032190Y-131714761D01*
X251556000Y-130381428D02*
X251556000Y-132381428D01*
X251556000Y-131619523D02*
X251365523Y-131714761D01*
X250984571Y-131714761D01*
X250794095Y-131619523D01*
X250698857Y-131524285D01*
X250603619Y-131333809D01*
X250603619Y-130762380D01*
X250698857Y-130571904D01*
X250794095Y-130476666D01*
X250984571Y-130381428D01*
X251365523Y-130381428D01*
X251556000Y-130476666D01*
X253365523Y-130381428D02*
X253365523Y-131714761D01*
X252508380Y-130381428D02*
X252508380Y-131429047D01*
X252603619Y-131619523D01*
X252794095Y-131714761D01*
X253079809Y-131714761D01*
X253270285Y-131619523D01*
X253365523Y-131524285D01*
X255175047Y-131714761D02*
X255175047Y-130667142D01*
X255079809Y-130476666D01*
X254889333Y-130381428D01*
X254508380Y-130381428D01*
X254317904Y-130476666D01*
X255175047Y-131619523D02*
X254984571Y-131714761D01*
X254508380Y-131714761D01*
X254317904Y-131619523D01*
X254222666Y-131429047D01*
X254222666Y-131238571D01*
X254317904Y-131048095D01*
X254508380Y-130952857D01*
X254984571Y-130952857D01*
X255175047Y-130857619D01*
X256127428Y-131714761D02*
X256127428Y-129714761D01*
X256889333Y-129714761D01*
X257079809Y-129810000D01*
X257175047Y-129905238D01*
X257270285Y-130095714D01*
X257270285Y-130381428D01*
X257175047Y-130571904D01*
X257079809Y-130667142D01*
X256889333Y-130762380D01*
X256127428Y-130762380D01*
X258127428Y-131714761D02*
X258127428Y-129714761D01*
D10*
X238090476Y-123896428D02*
X238852380Y-123896428D01*
X238471428Y-124277380D02*
X238471428Y-123515476D01*
X239804761Y-123277380D02*
X239328571Y-123277380D01*
X239280952Y-123753571D01*
X239328571Y-123705952D01*
X239423809Y-123658333D01*
X239661904Y-123658333D01*
X239757142Y-123705952D01*
X239804761Y-123753571D01*
X239852380Y-123848809D01*
X239852380Y-124086904D01*
X239804761Y-124182142D01*
X239757142Y-124229761D01*
X239661904Y-124277380D01*
X239423809Y-124277380D01*
X239328571Y-124229761D01*
X239280952Y-124182142D01*
X240138095Y-123277380D02*
X240471428Y-124277380D01*
X240804761Y-123277380D01*
X238614285Y-120785000D02*
X238519047Y-120737380D01*
X238376190Y-120737380D01*
X238233333Y-120785000D01*
X238138095Y-120880238D01*
X238090476Y-120975476D01*
X238042857Y-121165952D01*
X238042857Y-121308809D01*
X238090476Y-121499285D01*
X238138095Y-121594523D01*
X238233333Y-121689761D01*
X238376190Y-121737380D01*
X238471428Y-121737380D01*
X238614285Y-121689761D01*
X238661904Y-121642142D01*
X238661904Y-121308809D01*
X238471428Y-121308809D01*
X239090476Y-121737380D02*
X239090476Y-120737380D01*
X239661904Y-121737380D01*
X239661904Y-120737380D01*
X240138095Y-121737380D02*
X240138095Y-120737380D01*
X240376190Y-120737380D01*
X240519047Y-120785000D01*
X240614285Y-120880238D01*
X240661904Y-120975476D01*
X240709523Y-121165952D01*
X240709523Y-121308809D01*
X240661904Y-121499285D01*
X240614285Y-121594523D01*
X240519047Y-121689761D01*
X240376190Y-121737380D01*
X240138095Y-121737380D01*
X245760714Y-112799761D02*
X245903571Y-112847380D01*
X246141666Y-112847380D01*
X246236904Y-112799761D01*
X246284523Y-112752142D01*
X246332142Y-112656904D01*
X246332142Y-112561666D01*
X246284523Y-112466428D01*
X246236904Y-112418809D01*
X246141666Y-112371190D01*
X245951190Y-112323571D01*
X245855952Y-112275952D01*
X245808333Y-112228333D01*
X245760714Y-112133095D01*
X245760714Y-112037857D01*
X245808333Y-111942619D01*
X245855952Y-111895000D01*
X245951190Y-111847380D01*
X246189285Y-111847380D01*
X246332142Y-111895000D01*
X246760714Y-112847380D02*
X246760714Y-111847380D01*
X246998809Y-111847380D01*
X247141666Y-111895000D01*
X247236904Y-111990238D01*
X247284523Y-112085476D01*
X247332142Y-112275952D01*
X247332142Y-112418809D01*
X247284523Y-112609285D01*
X247236904Y-112704523D01*
X247141666Y-112799761D01*
X246998809Y-112847380D01*
X246760714Y-112847380D01*
X247713095Y-112561666D02*
X248189285Y-112561666D01*
X247617857Y-112847380D02*
X247951190Y-111847380D01*
X248284523Y-112847380D01*
X245784523Y-110404761D02*
X245927380Y-110452380D01*
X246165476Y-110452380D01*
X246260714Y-110404761D01*
X246308333Y-110357142D01*
X246355952Y-110261904D01*
X246355952Y-110166666D01*
X246308333Y-110071428D01*
X246260714Y-110023809D01*
X246165476Y-109976190D01*
X245975000Y-109928571D01*
X245879761Y-109880952D01*
X245832142Y-109833333D01*
X245784523Y-109738095D01*
X245784523Y-109642857D01*
X245832142Y-109547619D01*
X245879761Y-109500000D01*
X245975000Y-109452380D01*
X246213095Y-109452380D01*
X246355952Y-109500000D01*
X247355952Y-110357142D02*
X247308333Y-110404761D01*
X247165476Y-110452380D01*
X247070238Y-110452380D01*
X246927380Y-110404761D01*
X246832142Y-110309523D01*
X246784523Y-110214285D01*
X246736904Y-110023809D01*
X246736904Y-109880952D01*
X246784523Y-109690476D01*
X246832142Y-109595238D01*
X246927380Y-109500000D01*
X247070238Y-109452380D01*
X247165476Y-109452380D01*
X247308333Y-109500000D01*
X247355952Y-109547619D01*
X248260714Y-110452380D02*
X247784523Y-110452380D01*
X247784523Y-109452380D01*
X245689285Y-107386428D02*
X246451190Y-107386428D01*
X246070238Y-107767380D02*
X246070238Y-107005476D01*
X247403571Y-106767380D02*
X246927380Y-106767380D01*
X246879761Y-107243571D01*
X246927380Y-107195952D01*
X247022619Y-107148333D01*
X247260714Y-107148333D01*
X247355952Y-107195952D01*
X247403571Y-107243571D01*
X247451190Y-107338809D01*
X247451190Y-107576904D01*
X247403571Y-107672142D01*
X247355952Y-107719761D01*
X247260714Y-107767380D01*
X247022619Y-107767380D01*
X246927380Y-107719761D01*
X246879761Y-107672142D01*
X247736904Y-106767380D02*
X248070238Y-107767380D01*
X248403571Y-106767380D01*
X246213095Y-104275000D02*
X246117857Y-104227380D01*
X245975000Y-104227380D01*
X245832142Y-104275000D01*
X245736904Y-104370238D01*
X245689285Y-104465476D01*
X245641666Y-104655952D01*
X245641666Y-104798809D01*
X245689285Y-104989285D01*
X245736904Y-105084523D01*
X245832142Y-105179761D01*
X245975000Y-105227380D01*
X246070238Y-105227380D01*
X246213095Y-105179761D01*
X246260714Y-105132142D01*
X246260714Y-104798809D01*
X246070238Y-104798809D01*
X246689285Y-105227380D02*
X246689285Y-104227380D01*
X247260714Y-105227380D01*
X247260714Y-104227380D01*
X247736904Y-105227380D02*
X247736904Y-104227380D01*
X247975000Y-104227380D01*
X248117857Y-104275000D01*
X248213095Y-104370238D01*
X248260714Y-104465476D01*
X248308333Y-104655952D01*
X248308333Y-104798809D01*
X248260714Y-104989285D01*
X248213095Y-105084523D01*
X248117857Y-105179761D01*
X247975000Y-105227380D01*
X247736904Y-105227380D01*
D12*
X240820000Y-142500000D02*
X240820000Y-143500000D01*
X240820000Y-142500000D02*
X240320000Y-143000000D01*
X240320000Y-143000000D02*
X240820000Y-143500000D01*
X240160000Y-149220000D02*
X240160000Y-153950000D01*
X227740000Y-149220000D02*
X227740000Y-153950000D01*
X227740000Y-140730000D02*
X240160000Y-140730000D01*
X227740000Y-153950000D02*
X240160000Y-153950000D01*
X240160000Y-140730000D02*
X240160000Y-146470000D01*
X227740000Y-140730000D02*
X227740000Y-146470000D01*
X256320000Y-142500000D02*
X256320000Y-143500000D01*
X256320000Y-142500000D02*
X255820000Y-143000000D01*
X255820000Y-143000000D02*
X256320000Y-143500000D01*
X255660000Y-149220000D02*
X255660000Y-153950000D01*
X243240000Y-149220000D02*
X243240000Y-153950000D01*
X243240000Y-140730000D02*
X255660000Y-140730000D01*
X243240000Y-153950000D02*
X255660000Y-153950000D01*
X255660000Y-140730000D02*
X255660000Y-146470000D01*
X243240000Y-140730000D02*
X243240000Y-146470000D01*
X225320000Y-142500000D02*
X225320000Y-143500000D01*
X225320000Y-142500000D02*
X224820000Y-143000000D01*
X224820000Y-143000000D02*
X225320000Y-143500000D01*
X224660000Y-149220000D02*
X224660000Y-153950000D01*
X212240000Y-149220000D02*
X212240000Y-153950000D01*
X212240000Y-140730000D02*
X224660000Y-140730000D01*
X212240000Y-153950000D02*
X224660000Y-153950000D01*
X224660000Y-140730000D02*
X224660000Y-146470000D01*
X212240000Y-140730000D02*
X212240000Y-146470000D01*
X216480000Y-129100000D02*
X216810000Y-129100000D01*
X216810000Y-129100000D02*
X216810000Y-135520000D01*
X216810000Y-135520000D02*
X216480000Y-135520000D01*
X214520000Y-129100000D02*
X214190000Y-129100000D01*
X214190000Y-129100000D02*
X214190000Y-135520000D01*
X214190000Y-135520000D02*
X214520000Y-135520000D01*
D13*
X211500000Y-133250000D02*
X198500000Y-133250000D01*
X198500000Y-139750000D02*
X211500000Y-139750000D01*
X198500000Y-139750000D02*
X198500000Y-133250000D01*
X211500000Y-133250000D02*
X211500000Y-139750000D01*
D11*
X229976000Y-127530000D02*
X229976000Y-102554000D01*
X223880000Y-127530000D02*
X223880000Y-102470000D01*
D12*
X223880000Y-102470000D02*
X233000000Y-102470000D01*
X233000000Y-127530000D02*
X223880000Y-127530000D01*
X233000000Y-102470000D02*
X233000000Y-127530000D01*
D13*
X211500000Y-103000000D02*
X200000000Y-103000000D01*
X200000000Y-109000000D02*
X211500000Y-109000000D01*
X197500000Y-103500000D02*
X197500000Y-108500000D01*
X200000000Y-103500000D02*
X197500000Y-103500000D01*
X200000000Y-103000000D02*
X200000000Y-103500000D01*
X200000000Y-108500000D02*
X197500000Y-108500000D01*
X200000000Y-109000000D02*
X200000000Y-108500000D01*
X211500000Y-103000000D02*
X211500000Y-109000000D01*
X211500000Y-123000000D02*
X200000000Y-123000000D01*
X200000000Y-129000000D02*
X211500000Y-129000000D01*
X197500000Y-123500000D02*
X197500000Y-128500000D01*
X200000000Y-123500000D02*
X197500000Y-123500000D01*
X200000000Y-123000000D02*
X200000000Y-123500000D01*
X200000000Y-128500000D02*
X197500000Y-128500000D01*
X200000000Y-129000000D02*
X200000000Y-128500000D01*
X211500000Y-123000000D02*
X211500000Y-129000000D01*
X211500000Y-113000000D02*
X200000000Y-113000000D01*
X200000000Y-119000000D02*
X211500000Y-119000000D01*
X197500000Y-113500000D02*
X197500000Y-118500000D01*
X200000000Y-113500000D02*
X197500000Y-113500000D01*
X200000000Y-113000000D02*
X200000000Y-113500000D01*
X200000000Y-118500000D02*
X197500000Y-118500000D01*
X200000000Y-119000000D02*
X200000000Y-118500000D01*
X211500000Y-113000000D02*
X211500000Y-119000000D01*
D12*
X241605000Y-125295000D02*
X244265000Y-125295000D01*
X241605000Y-120155000D02*
X241605000Y-125295000D01*
X244265000Y-120155000D02*
X244265000Y-125295000D01*
X241605000Y-120155000D02*
X244265000Y-120155000D01*
X241605000Y-118885000D02*
X241605000Y-117555000D01*
X241605000Y-117555000D02*
X242935000Y-117555000D01*
X245415000Y-125295000D02*
X248075000Y-125295000D01*
X245415000Y-120155000D02*
X245415000Y-125295000D01*
X248075000Y-120155000D02*
X248075000Y-125295000D01*
X245415000Y-120155000D02*
X248075000Y-120155000D01*
X245415000Y-118885000D02*
X245415000Y-117555000D01*
X245415000Y-117555000D02*
X246745000Y-117555000D01*
X255805000Y-117555000D02*
X255805000Y-125295000D01*
X255805000Y-125295000D02*
X258465000Y-125295000D01*
X258465000Y-125295000D02*
X258465000Y-117555000D01*
X258465000Y-117555000D02*
X255805000Y-117555000D01*
X258465000Y-118505000D02*
X264465000Y-118505000D01*
X264465000Y-118505000D02*
X264465000Y-119265000D01*
X264465000Y-119265000D02*
X258465000Y-119265000D01*
X258465000Y-118565000D02*
X264465000Y-118565000D01*
X258465000Y-118685000D02*
X264465000Y-118685000D01*
X258465000Y-118805000D02*
X264465000Y-118805000D01*
X258465000Y-118925000D02*
X264465000Y-118925000D01*
X258465000Y-119045000D02*
X264465000Y-119045000D01*
X258465000Y-119165000D02*
X264465000Y-119165000D01*
X255475000Y-118505000D02*
X255805000Y-118505000D01*
X255475000Y-119265000D02*
X255805000Y-119265000D01*
X255805000Y-120155000D02*
X258465000Y-120155000D01*
X258465000Y-121045000D02*
X264465000Y-121045000D01*
X264465000Y-121045000D02*
X264465000Y-121805000D01*
X264465000Y-121805000D02*
X258465000Y-121805000D01*
X255407929Y-121045000D02*
X255805000Y-121045000D01*
X255407929Y-121805000D02*
X255805000Y-121805000D01*
X255805000Y-122695000D02*
X258465000Y-122695000D01*
X258465000Y-123585000D02*
X264465000Y-123585000D01*
X264465000Y-123585000D02*
X264465000Y-124345000D01*
X264465000Y-124345000D02*
X258465000Y-124345000D01*
X255407929Y-123585000D02*
X255805000Y-123585000D01*
X255407929Y-124345000D02*
X255805000Y-124345000D01*
X253095000Y-118885000D02*
X253095000Y-117615000D01*
X253095000Y-117615000D02*
X254365000Y-117615000D01*
X249170000Y-113725000D02*
X251830000Y-113725000D01*
X249170000Y-106045000D02*
X249170000Y-113725000D01*
X251830000Y-106045000D02*
X251830000Y-113725000D01*
X249170000Y-106045000D02*
X251830000Y-106045000D01*
X249170000Y-104775000D02*
X249170000Y-103445000D01*
X249170000Y-103445000D02*
X250500000Y-103445000D01*
X255780000Y-103445000D02*
X255780000Y-113725000D01*
X255780000Y-113725000D02*
X258440000Y-113725000D01*
X258440000Y-113725000D02*
X258440000Y-103445000D01*
X258440000Y-103445000D02*
X255780000Y-103445000D01*
X258440000Y-104395000D02*
X264440000Y-104395000D01*
X264440000Y-104395000D02*
X264440000Y-105155000D01*
X264440000Y-105155000D02*
X258440000Y-105155000D01*
X258440000Y-104455000D02*
X264440000Y-104455000D01*
X258440000Y-104575000D02*
X264440000Y-104575000D01*
X258440000Y-104695000D02*
X264440000Y-104695000D01*
X258440000Y-104815000D02*
X264440000Y-104815000D01*
X258440000Y-104935000D02*
X264440000Y-104935000D01*
X258440000Y-105055000D02*
X264440000Y-105055000D01*
X255450000Y-104395000D02*
X255780000Y-104395000D01*
X255450000Y-105155000D02*
X255780000Y-105155000D01*
X255780000Y-106045000D02*
X258440000Y-106045000D01*
X258440000Y-106935000D02*
X264440000Y-106935000D01*
X264440000Y-106935000D02*
X264440000Y-107695000D01*
X264440000Y-107695000D02*
X258440000Y-107695000D01*
X255382929Y-106935000D02*
X255780000Y-106935000D01*
X255382929Y-107695000D02*
X255780000Y-107695000D01*
X255780000Y-108585000D02*
X258440000Y-108585000D01*
X258440000Y-109475000D02*
X264440000Y-109475000D01*
X264440000Y-109475000D02*
X264440000Y-110235000D01*
X264440000Y-110235000D02*
X258440000Y-110235000D01*
X255382929Y-109475000D02*
X255780000Y-109475000D01*
X255382929Y-110235000D02*
X255780000Y-110235000D01*
X255780000Y-111125000D02*
X258440000Y-111125000D01*
X258440000Y-112015000D02*
X264440000Y-112015000D01*
X264440000Y-112015000D02*
X264440000Y-112775000D01*
X264440000Y-112775000D02*
X258440000Y-112775000D01*
X255382929Y-112015000D02*
X255780000Y-112015000D01*
X255382929Y-112775000D02*
X255780000Y-112775000D01*
X253070000Y-104775000D02*
X253070000Y-103505000D01*
X253070000Y-103505000D02*
X254340000Y-103505000D01*
X242980000Y-105600000D02*
X243310000Y-105600000D01*
X243310000Y-105600000D02*
X243310000Y-112020000D01*
X243310000Y-112020000D02*
X242980000Y-112020000D01*
X241020000Y-105600000D02*
X240690000Y-105600000D01*
X240690000Y-105600000D02*
X240690000Y-112020000D01*
X240690000Y-112020000D02*
X241020000Y-112020000D01*
X237980000Y-105600000D02*
X238310000Y-105600000D01*
X238310000Y-105600000D02*
X238310000Y-112020000D01*
X238310000Y-112020000D02*
X237980000Y-112020000D01*
X236020000Y-105600000D02*
X235690000Y-105600000D01*
X235690000Y-105600000D02*
X235690000Y-112020000D01*
X235690000Y-112020000D02*
X236020000Y-112020000D01*
X220920000Y-132985000D02*
G75*
G02X220920000Y-134985000I0J-1000000D01*
G01*
X220920000Y-134985000D02*
X220920000Y-136635000D01*
X220920000Y-136635000D02*
X241360000Y-136635000D01*
X241360000Y-136635000D02*
X241360000Y-131335000D01*
X241360000Y-131335000D02*
X220920000Y-131335000D01*
X220920000Y-131335000D02*
X220920000Y-132985000D01*
X249225000Y-125295000D02*
X251885000Y-125295000D01*
X249225000Y-120155000D02*
X249225000Y-125295000D01*
X251885000Y-120155000D02*
X251885000Y-125295000D01*
X249225000Y-120155000D02*
X251885000Y-120155000D01*
X249225000Y-118885000D02*
X249225000Y-117555000D01*
X249225000Y-117555000D02*
X250555000Y-117555000D01*
X214520000Y-119400000D02*
X214190000Y-119400000D01*
X214190000Y-119400000D02*
X214190000Y-112980000D01*
X214190000Y-112980000D02*
X214520000Y-112980000D01*
X216480000Y-119400000D02*
X216810000Y-119400000D01*
X216810000Y-119400000D02*
X216810000Y-112980000D01*
X216810000Y-112980000D02*
X216480000Y-112980000D01*
D11*
X227967380Y-139753571D02*
X228300714Y-139753571D01*
X228443571Y-140277380D02*
X227967380Y-140277380D01*
X227967380Y-139277380D01*
X228443571Y-139277380D01*
X228776904Y-139277380D02*
X229443571Y-140277380D01*
X229443571Y-139277380D02*
X228776904Y-140277380D01*
X229681666Y-139277380D02*
X230253095Y-139277380D01*
X229967380Y-140277380D02*
X229967380Y-139277380D01*
X230538809Y-139372619D02*
X230586428Y-139325000D01*
X230681666Y-139277380D01*
X230919761Y-139277380D01*
X231015000Y-139325000D01*
X231062619Y-139372619D01*
X231110238Y-139467857D01*
X231110238Y-139563095D01*
X231062619Y-139705952D01*
X230491190Y-140277380D01*
X231110238Y-140277380D01*
X243467380Y-139753571D02*
X243800714Y-139753571D01*
X243943571Y-140277380D02*
X243467380Y-140277380D01*
X243467380Y-139277380D01*
X243943571Y-139277380D01*
X244276904Y-139277380D02*
X244943571Y-140277380D01*
X244943571Y-139277380D02*
X244276904Y-140277380D01*
X245181666Y-139277380D02*
X245753095Y-139277380D01*
X245467380Y-140277380D02*
X245467380Y-139277380D01*
X245991190Y-139277380D02*
X246610238Y-139277380D01*
X246276904Y-139658333D01*
X246419761Y-139658333D01*
X246515000Y-139705952D01*
X246562619Y-139753571D01*
X246610238Y-139848809D01*
X246610238Y-140086904D01*
X246562619Y-140182142D01*
X246515000Y-140229761D01*
X246419761Y-140277380D01*
X246134047Y-140277380D01*
X246038809Y-140229761D01*
X245991190Y-140182142D01*
X212467380Y-139753571D02*
X212800714Y-139753571D01*
X212943571Y-140277380D02*
X212467380Y-140277380D01*
X212467380Y-139277380D01*
X212943571Y-139277380D01*
X213276904Y-139277380D02*
X213943571Y-140277380D01*
X213943571Y-139277380D02*
X213276904Y-140277380D01*
X214181666Y-139277380D02*
X214753095Y-139277380D01*
X214467380Y-140277380D02*
X214467380Y-139277380D01*
X215610238Y-140277380D02*
X215038809Y-140277380D01*
X215324523Y-140277380D02*
X215324523Y-139277380D01*
X215229285Y-139420238D01*
X215134047Y-139515476D01*
X215038809Y-139563095D01*
X218262380Y-132476666D02*
X217786190Y-132810000D01*
X218262380Y-133048095D02*
X217262380Y-133048095D01*
X217262380Y-132667142D01*
X217310000Y-132571904D01*
X217357619Y-132524285D01*
X217452857Y-132476666D01*
X217595714Y-132476666D01*
X217690952Y-132524285D01*
X217738571Y-132571904D01*
X217786190Y-132667142D01*
X217786190Y-133048095D01*
X217595714Y-131619523D02*
X218262380Y-131619523D01*
X217214761Y-131857619D02*
X217929047Y-132095714D01*
X217929047Y-131476666D01*
X223062380Y-119809523D02*
X222062380Y-119809523D01*
X223062380Y-119238095D02*
X222490952Y-119666666D01*
X222062380Y-119238095D02*
X222633809Y-119809523D01*
X223062380Y-118809523D02*
X222062380Y-118809523D01*
X222062380Y-118476190D02*
X222062380Y-117904761D01*
X223062380Y-118190476D02*
X222062380Y-118190476D01*
X222681428Y-117571428D02*
X222681428Y-116809523D01*
X222776666Y-116380952D02*
X222776666Y-115904761D01*
X223062380Y-116476190D02*
X222062380Y-116142857D01*
X223062380Y-115809523D01*
X223062380Y-115476190D02*
X222062380Y-115476190D01*
X222062380Y-115238095D01*
X222110000Y-115095238D01*
X222205238Y-115000000D01*
X222300476Y-114952380D01*
X222490952Y-114904761D01*
X222633809Y-114904761D01*
X222824285Y-114952380D01*
X222919523Y-115000000D01*
X223014761Y-115095238D01*
X223062380Y-115238095D01*
X223062380Y-115476190D01*
X223014761Y-114523809D02*
X223062380Y-114380952D01*
X223062380Y-114142857D01*
X223014761Y-114047619D01*
X222967142Y-114000000D01*
X222871904Y-113952380D01*
X222776666Y-113952380D01*
X222681428Y-114000000D01*
X222633809Y-114047619D01*
X222586190Y-114142857D01*
X222538571Y-114333333D01*
X222490952Y-114428571D01*
X222443333Y-114476190D01*
X222348095Y-114523809D01*
X222252857Y-114523809D01*
X222157619Y-114476190D01*
X222110000Y-114428571D01*
X222062380Y-114333333D01*
X222062380Y-114095238D01*
X222110000Y-113952380D01*
X223062380Y-113000000D02*
X223062380Y-113571428D01*
X223062380Y-113285714D02*
X222062380Y-113285714D01*
X222205238Y-113380952D01*
X222300476Y-113476190D01*
X222348095Y-113571428D01*
X223062380Y-112047619D02*
X223062380Y-112619047D01*
X223062380Y-112333333D02*
X222062380Y-112333333D01*
X222205238Y-112428571D01*
X222300476Y-112523809D01*
X222348095Y-112619047D01*
X223062380Y-111095238D02*
X223062380Y-111666666D01*
X223062380Y-111380952D02*
X222062380Y-111380952D01*
X222205238Y-111476190D01*
X222300476Y-111571428D01*
X222348095Y-111666666D01*
X222062380Y-110190476D02*
X222062380Y-110666666D01*
X222538571Y-110714285D01*
X222490952Y-110666666D01*
X222443333Y-110571428D01*
X222443333Y-110333333D01*
X222490952Y-110238095D01*
X222538571Y-110190476D01*
X222633809Y-110142857D01*
X222871904Y-110142857D01*
X222967142Y-110190476D01*
X223014761Y-110238095D01*
X223062380Y-110333333D01*
X223062380Y-110571428D01*
X223014761Y-110666666D01*
X222967142Y-110714285D01*
X227610714Y-126596666D02*
X228086904Y-126596666D01*
X227515476Y-126882380D02*
X227848809Y-125882380D01*
X228182142Y-126882380D01*
X228420238Y-125882380D02*
X229039285Y-125882380D01*
X228705952Y-126263333D01*
X228848809Y-126263333D01*
X228944047Y-126310952D01*
X228991666Y-126358571D01*
X229039285Y-126453809D01*
X229039285Y-126691904D01*
X228991666Y-126787142D01*
X228944047Y-126834761D01*
X228848809Y-126882380D01*
X228563095Y-126882380D01*
X228467857Y-126834761D01*
X228420238Y-126787142D01*
X227610714Y-124056666D02*
X228086904Y-124056666D01*
X227515476Y-124342380D02*
X227848809Y-123342380D01*
X228182142Y-124342380D01*
X228467857Y-123437619D02*
X228515476Y-123390000D01*
X228610714Y-123342380D01*
X228848809Y-123342380D01*
X228944047Y-123390000D01*
X228991666Y-123437619D01*
X229039285Y-123532857D01*
X229039285Y-123628095D01*
X228991666Y-123770952D01*
X228420238Y-124342380D01*
X229039285Y-124342380D01*
X227610714Y-121516666D02*
X228086904Y-121516666D01*
X227515476Y-121802380D02*
X227848809Y-120802380D01*
X228182142Y-121802380D01*
X229039285Y-121802380D02*
X228467857Y-121802380D01*
X228753571Y-121802380D02*
X228753571Y-120802380D01*
X228658333Y-120945238D01*
X228563095Y-121040476D01*
X228467857Y-121088095D01*
X227610714Y-118976666D02*
X228086904Y-118976666D01*
X227515476Y-119262380D02*
X227848809Y-118262380D01*
X228182142Y-119262380D01*
X228705952Y-118262380D02*
X228801190Y-118262380D01*
X228896428Y-118310000D01*
X228944047Y-118357619D01*
X228991666Y-118452857D01*
X229039285Y-118643333D01*
X229039285Y-118881428D01*
X228991666Y-119071904D01*
X228944047Y-119167142D01*
X228896428Y-119214761D01*
X228801190Y-119262380D01*
X228705952Y-119262380D01*
X228610714Y-119214761D01*
X228563095Y-119167142D01*
X228515476Y-119071904D01*
X228467857Y-118881428D01*
X228467857Y-118643333D01*
X228515476Y-118452857D01*
X228563095Y-118357619D01*
X228610714Y-118310000D01*
X228705952Y-118262380D01*
X225078809Y-116436666D02*
X225555000Y-116436666D01*
X224983571Y-116722380D02*
X225316904Y-115722380D01*
X225650238Y-116722380D01*
X226459761Y-116722380D02*
X225983571Y-116722380D01*
X225983571Y-115722380D01*
X226793095Y-116198571D02*
X227126428Y-116198571D01*
X227269285Y-116722380D02*
X226793095Y-116722380D01*
X226793095Y-115722380D01*
X227269285Y-115722380D01*
X228269285Y-116722380D02*
X227935952Y-116246190D01*
X227697857Y-116722380D02*
X227697857Y-115722380D01*
X228078809Y-115722380D01*
X228174047Y-115770000D01*
X228221666Y-115817619D01*
X228269285Y-115912857D01*
X228269285Y-116055714D01*
X228221666Y-116150952D01*
X228174047Y-116198571D01*
X228078809Y-116246190D01*
X227697857Y-116246190D01*
X228555000Y-115722380D02*
X229126428Y-115722380D01*
X228840714Y-116722380D02*
X228840714Y-115722380D01*
X225316904Y-113896666D02*
X225793095Y-113896666D01*
X225221666Y-114182380D02*
X225555000Y-113182380D01*
X225888333Y-114182380D01*
X226221666Y-114182380D02*
X226221666Y-113182380D01*
X226459761Y-113182380D01*
X226602619Y-113230000D01*
X226697857Y-113325238D01*
X226745476Y-113420476D01*
X226793095Y-113610952D01*
X226793095Y-113753809D01*
X226745476Y-113944285D01*
X226697857Y-114039523D01*
X226602619Y-114134761D01*
X226459761Y-114182380D01*
X226221666Y-114182380D01*
X227221666Y-114182380D02*
X227221666Y-113182380D01*
X227459761Y-113182380D01*
X227602619Y-113230000D01*
X227697857Y-113325238D01*
X227745476Y-113420476D01*
X227793095Y-113610952D01*
X227793095Y-113753809D01*
X227745476Y-113944285D01*
X227697857Y-114039523D01*
X227602619Y-114134761D01*
X227459761Y-114182380D01*
X227221666Y-114182380D01*
X228793095Y-114182380D02*
X228459761Y-113706190D01*
X228221666Y-114182380D02*
X228221666Y-113182380D01*
X228602619Y-113182380D01*
X228697857Y-113230000D01*
X228745476Y-113277619D01*
X228793095Y-113372857D01*
X228793095Y-113515714D01*
X228745476Y-113610952D01*
X228697857Y-113658571D01*
X228602619Y-113706190D01*
X228221666Y-113706190D01*
X226475714Y-111594761D02*
X226618571Y-111642380D01*
X226856666Y-111642380D01*
X226951904Y-111594761D01*
X226999523Y-111547142D01*
X227047142Y-111451904D01*
X227047142Y-111356666D01*
X226999523Y-111261428D01*
X226951904Y-111213809D01*
X226856666Y-111166190D01*
X226666190Y-111118571D01*
X226570952Y-111070952D01*
X226523333Y-111023333D01*
X226475714Y-110928095D01*
X226475714Y-110832857D01*
X226523333Y-110737619D01*
X226570952Y-110690000D01*
X226666190Y-110642380D01*
X226904285Y-110642380D01*
X227047142Y-110690000D01*
X227475714Y-111642380D02*
X227475714Y-110642380D01*
X227713809Y-110642380D01*
X227856666Y-110690000D01*
X227951904Y-110785238D01*
X227999523Y-110880476D01*
X228047142Y-111070952D01*
X228047142Y-111213809D01*
X227999523Y-111404285D01*
X227951904Y-111499523D01*
X227856666Y-111594761D01*
X227713809Y-111642380D01*
X227475714Y-111642380D01*
X228428095Y-111356666D02*
X228904285Y-111356666D01*
X228332857Y-111642380D02*
X228666190Y-110642380D01*
X228999523Y-111642380D01*
X226499523Y-109054761D02*
X226642380Y-109102380D01*
X226880476Y-109102380D01*
X226975714Y-109054761D01*
X227023333Y-109007142D01*
X227070952Y-108911904D01*
X227070952Y-108816666D01*
X227023333Y-108721428D01*
X226975714Y-108673809D01*
X226880476Y-108626190D01*
X226690000Y-108578571D01*
X226594761Y-108530952D01*
X226547142Y-108483333D01*
X226499523Y-108388095D01*
X226499523Y-108292857D01*
X226547142Y-108197619D01*
X226594761Y-108150000D01*
X226690000Y-108102380D01*
X226928095Y-108102380D01*
X227070952Y-108150000D01*
X228070952Y-109007142D02*
X228023333Y-109054761D01*
X227880476Y-109102380D01*
X227785238Y-109102380D01*
X227642380Y-109054761D01*
X227547142Y-108959523D01*
X227499523Y-108864285D01*
X227451904Y-108673809D01*
X227451904Y-108530952D01*
X227499523Y-108340476D01*
X227547142Y-108245238D01*
X227642380Y-108150000D01*
X227785238Y-108102380D01*
X227880476Y-108102380D01*
X228023333Y-108150000D01*
X228070952Y-108197619D01*
X228975714Y-109102380D02*
X228499523Y-109102380D01*
X228499523Y-108102380D01*
X226928095Y-105610000D02*
X226832857Y-105562380D01*
X226690000Y-105562380D01*
X226547142Y-105610000D01*
X226451904Y-105705238D01*
X226404285Y-105800476D01*
X226356666Y-105990952D01*
X226356666Y-106133809D01*
X226404285Y-106324285D01*
X226451904Y-106419523D01*
X226547142Y-106514761D01*
X226690000Y-106562380D01*
X226785238Y-106562380D01*
X226928095Y-106514761D01*
X226975714Y-106467142D01*
X226975714Y-106133809D01*
X226785238Y-106133809D01*
X227404285Y-106562380D02*
X227404285Y-105562380D01*
X227975714Y-106562380D01*
X227975714Y-105562380D01*
X228451904Y-106562380D02*
X228451904Y-105562380D01*
X228690000Y-105562380D01*
X228832857Y-105610000D01*
X228928095Y-105705238D01*
X228975714Y-105800476D01*
X229023333Y-105990952D01*
X229023333Y-106133809D01*
X228975714Y-106324285D01*
X228928095Y-106419523D01*
X228832857Y-106514761D01*
X228690000Y-106562380D01*
X228451904Y-106562380D01*
X226356666Y-103022380D02*
X226690000Y-104022380D01*
X227023333Y-103022380D01*
X227928095Y-103927142D02*
X227880476Y-103974761D01*
X227737619Y-104022380D01*
X227642380Y-104022380D01*
X227499523Y-103974761D01*
X227404285Y-103879523D01*
X227356666Y-103784285D01*
X227309047Y-103593809D01*
X227309047Y-103450952D01*
X227356666Y-103260476D01*
X227404285Y-103165238D01*
X227499523Y-103070000D01*
X227642380Y-103022380D01*
X227737619Y-103022380D01*
X227880476Y-103070000D01*
X227928095Y-103117619D01*
X228928095Y-103927142D02*
X228880476Y-103974761D01*
X228737619Y-104022380D01*
X228642380Y-104022380D01*
X228499523Y-103974761D01*
X228404285Y-103879523D01*
X228356666Y-103784285D01*
X228309047Y-103593809D01*
X228309047Y-103450952D01*
X228356666Y-103260476D01*
X228404285Y-103165238D01*
X228499523Y-103070000D01*
X228642380Y-103022380D01*
X228737619Y-103022380D01*
X228880476Y-103070000D01*
X228928095Y-103117619D01*
X242220714Y-116371666D02*
X242696904Y-116371666D01*
X242125476Y-116657380D02*
X242458809Y-115657380D01*
X242792142Y-116657380D01*
X243030238Y-115657380D02*
X243649285Y-115657380D01*
X243315952Y-116038333D01*
X243458809Y-116038333D01*
X243554047Y-116085952D01*
X243601666Y-116133571D01*
X243649285Y-116228809D01*
X243649285Y-116466904D01*
X243601666Y-116562142D01*
X243554047Y-116609761D01*
X243458809Y-116657380D01*
X243173095Y-116657380D01*
X243077857Y-116609761D01*
X243030238Y-116562142D01*
X246030714Y-116371666D02*
X246506904Y-116371666D01*
X245935476Y-116657380D02*
X246268809Y-115657380D01*
X246602142Y-116657380D01*
X246887857Y-115752619D02*
X246935476Y-115705000D01*
X247030714Y-115657380D01*
X247268809Y-115657380D01*
X247364047Y-115705000D01*
X247411666Y-115752619D01*
X247459285Y-115847857D01*
X247459285Y-115943095D01*
X247411666Y-116085952D01*
X246840238Y-116657380D01*
X247459285Y-116657380D01*
X258035714Y-116371666D02*
X258511904Y-116371666D01*
X257940476Y-116657380D02*
X258273809Y-115657380D01*
X258607142Y-116657380D01*
X259130952Y-115657380D02*
X259226190Y-115657380D01*
X259321428Y-115705000D01*
X259369047Y-115752619D01*
X259416666Y-115847857D01*
X259464285Y-116038333D01*
X259464285Y-116276428D01*
X259416666Y-116466904D01*
X259369047Y-116562142D01*
X259321428Y-116609761D01*
X259226190Y-116657380D01*
X259130952Y-116657380D01*
X259035714Y-116609761D01*
X258988095Y-116562142D01*
X258940476Y-116466904D01*
X258892857Y-116276428D01*
X258892857Y-116038333D01*
X258940476Y-115847857D01*
X258988095Y-115752619D01*
X259035714Y-115705000D01*
X259130952Y-115657380D01*
X248666666Y-102687380D02*
X248666666Y-101687380D01*
X249095238Y-101782619D02*
X249142857Y-101735000D01*
X249238095Y-101687380D01*
X249476190Y-101687380D01*
X249571428Y-101735000D01*
X249619047Y-101782619D01*
X249666666Y-101877857D01*
X249666666Y-101973095D01*
X249619047Y-102115952D01*
X249047619Y-102687380D01*
X249666666Y-102687380D01*
X250666666Y-102592142D02*
X250619047Y-102639761D01*
X250476190Y-102687380D01*
X250380952Y-102687380D01*
X250238095Y-102639761D01*
X250142857Y-102544523D01*
X250095238Y-102449285D01*
X250047619Y-102258809D01*
X250047619Y-102115952D01*
X250095238Y-101925476D01*
X250142857Y-101830238D01*
X250238095Y-101735000D01*
X250380952Y-101687380D01*
X250476190Y-101687380D01*
X250619047Y-101735000D01*
X250666666Y-101782619D01*
X250857142Y-102782619D02*
X251619047Y-102782619D01*
X251809523Y-101782619D02*
X251857142Y-101735000D01*
X251952380Y-101687380D01*
X252190476Y-101687380D01*
X252285714Y-101735000D01*
X252333333Y-101782619D01*
X252380952Y-101877857D01*
X252380952Y-101973095D01*
X252333333Y-102115952D01*
X251761904Y-102687380D01*
X252380952Y-102687380D01*
X256891666Y-102687380D02*
X256891666Y-101687380D01*
X257320238Y-101782619D02*
X257367857Y-101735000D01*
X257463095Y-101687380D01*
X257701190Y-101687380D01*
X257796428Y-101735000D01*
X257844047Y-101782619D01*
X257891666Y-101877857D01*
X257891666Y-101973095D01*
X257844047Y-102115952D01*
X257272619Y-102687380D01*
X257891666Y-102687380D01*
X258891666Y-102592142D02*
X258844047Y-102639761D01*
X258701190Y-102687380D01*
X258605952Y-102687380D01*
X258463095Y-102639761D01*
X258367857Y-102544523D01*
X258320238Y-102449285D01*
X258272619Y-102258809D01*
X258272619Y-102115952D01*
X258320238Y-101925476D01*
X258367857Y-101830238D01*
X258463095Y-101735000D01*
X258605952Y-101687380D01*
X258701190Y-101687380D01*
X258844047Y-101735000D01*
X258891666Y-101782619D01*
X259082142Y-102782619D02*
X259844047Y-102782619D01*
X260605952Y-102687380D02*
X260034523Y-102687380D01*
X260320238Y-102687380D02*
X260320238Y-101687380D01*
X260225000Y-101830238D01*
X260129761Y-101925476D01*
X260034523Y-101973095D01*
X244762380Y-108976666D02*
X244286190Y-109310000D01*
X244762380Y-109548095D02*
X243762380Y-109548095D01*
X243762380Y-109167142D01*
X243810000Y-109071904D01*
X243857619Y-109024285D01*
X243952857Y-108976666D01*
X244095714Y-108976666D01*
X244190952Y-109024285D01*
X244238571Y-109071904D01*
X244286190Y-109167142D01*
X244286190Y-109548095D01*
X243762380Y-108643333D02*
X243762380Y-108024285D01*
X244143333Y-108357619D01*
X244143333Y-108214761D01*
X244190952Y-108119523D01*
X244238571Y-108071904D01*
X244333809Y-108024285D01*
X244571904Y-108024285D01*
X244667142Y-108071904D01*
X244714761Y-108119523D01*
X244762380Y-108214761D01*
X244762380Y-108500476D01*
X244714761Y-108595714D01*
X244667142Y-108643333D01*
X239762380Y-108976666D02*
X239286190Y-109310000D01*
X239762380Y-109548095D02*
X238762380Y-109548095D01*
X238762380Y-109167142D01*
X238810000Y-109071904D01*
X238857619Y-109024285D01*
X238952857Y-108976666D01*
X239095714Y-108976666D01*
X239190952Y-109024285D01*
X239238571Y-109071904D01*
X239286190Y-109167142D01*
X239286190Y-109548095D01*
X238857619Y-108595714D02*
X238810000Y-108548095D01*
X238762380Y-108452857D01*
X238762380Y-108214761D01*
X238810000Y-108119523D01*
X238857619Y-108071904D01*
X238952857Y-108024285D01*
X239048095Y-108024285D01*
X239190952Y-108071904D01*
X239762380Y-108643333D01*
X239762380Y-108024285D01*
X220372380Y-137080238D02*
X219372380Y-137080238D01*
X219372380Y-136699285D01*
X219420000Y-136604047D01*
X219467619Y-136556428D01*
X219562857Y-136508809D01*
X219705714Y-136508809D01*
X219800952Y-136556428D01*
X219848571Y-136604047D01*
X219896190Y-136699285D01*
X219896190Y-137080238D01*
X220277142Y-135508809D02*
X220324761Y-135556428D01*
X220372380Y-135699285D01*
X220372380Y-135794523D01*
X220324761Y-135937380D01*
X220229523Y-136032619D01*
X220134285Y-136080238D01*
X219943809Y-136127857D01*
X219800952Y-136127857D01*
X219610476Y-136080238D01*
X219515238Y-136032619D01*
X219420000Y-135937380D01*
X219372380Y-135794523D01*
X219372380Y-135699285D01*
X219420000Y-135556428D01*
X219467619Y-135508809D01*
X219848571Y-134746904D02*
X219848571Y-135080238D01*
X220372380Y-135080238D02*
X219372380Y-135080238D01*
X219372380Y-134604047D01*
X219800952Y-134080238D02*
X219753333Y-134175476D01*
X219705714Y-134223095D01*
X219610476Y-134270714D01*
X219562857Y-134270714D01*
X219467619Y-134223095D01*
X219420000Y-134175476D01*
X219372380Y-134080238D01*
X219372380Y-133889761D01*
X219420000Y-133794523D01*
X219467619Y-133746904D01*
X219562857Y-133699285D01*
X219610476Y-133699285D01*
X219705714Y-133746904D01*
X219753333Y-133794523D01*
X219800952Y-133889761D01*
X219800952Y-134080238D01*
X219848571Y-134175476D01*
X219896190Y-134223095D01*
X219991428Y-134270714D01*
X220181904Y-134270714D01*
X220277142Y-134223095D01*
X220324761Y-134175476D01*
X220372380Y-134080238D01*
X220372380Y-133889761D01*
X220324761Y-133794523D01*
X220277142Y-133746904D01*
X220181904Y-133699285D01*
X219991428Y-133699285D01*
X219896190Y-133746904D01*
X219848571Y-133794523D01*
X219800952Y-133889761D01*
X219372380Y-132794523D02*
X219372380Y-133270714D01*
X219848571Y-133318333D01*
X219800952Y-133270714D01*
X219753333Y-133175476D01*
X219753333Y-132937380D01*
X219800952Y-132842142D01*
X219848571Y-132794523D01*
X219943809Y-132746904D01*
X220181904Y-132746904D01*
X220277142Y-132794523D01*
X220324761Y-132842142D01*
X220372380Y-132937380D01*
X220372380Y-133175476D01*
X220324761Y-133270714D01*
X220277142Y-133318333D01*
X219372380Y-132413571D02*
X219372380Y-131746904D01*
X220372380Y-132175476D01*
X219705714Y-130937380D02*
X220372380Y-130937380D01*
X219324761Y-131175476D02*
X220039047Y-131413571D01*
X220039047Y-130794523D01*
X249840714Y-116371666D02*
X250316904Y-116371666D01*
X249745476Y-116657380D02*
X250078809Y-115657380D01*
X250412142Y-116657380D01*
X251269285Y-116657380D02*
X250697857Y-116657380D01*
X250983571Y-116657380D02*
X250983571Y-115657380D01*
X250888333Y-115800238D01*
X250793095Y-115895476D01*
X250697857Y-115943095D01*
X213642380Y-116356666D02*
X213166190Y-116690000D01*
X213642380Y-116928095D02*
X212642380Y-116928095D01*
X212642380Y-116547142D01*
X212690000Y-116451904D01*
X212737619Y-116404285D01*
X212832857Y-116356666D01*
X212975714Y-116356666D01*
X213070952Y-116404285D01*
X213118571Y-116451904D01*
X213166190Y-116547142D01*
X213166190Y-116928095D01*
X213642380Y-115404285D02*
X213642380Y-115975714D01*
X213642380Y-115690000D02*
X212642380Y-115690000D01*
X212785238Y-115785238D01*
X212880476Y-115880476D01*
X212928095Y-115975714D01*
M02*
