G04 #@! TF.GenerationSoftware,KiCad,Pcbnew,(5.1.5)-3*
G04 #@! TF.CreationDate,2020-05-01T12:00:19+02:00*
G04 #@! TF.ProjectId,Main,4d61696e-2e6b-4696-9361-645f70636258,rev?*
G04 #@! TF.SameCoordinates,Original*
G04 #@! TF.FileFunction,Legend,Top*
G04 #@! TF.FilePolarity,Positive*
%FSLAX46Y46*%
G04 Gerber Fmt 4.6, Leading zero omitted, Abs format (unit mm)*
G04 Created by KiCad (PCBNEW (5.1.5)-3) date 2020-05-01 12:00:19*
%MOMM*%
%LPD*%
G04 APERTURE LIST*
%ADD10C,0.150000*%
%ADD11C,0.200000*%
%ADD12C,0.010000*%
%ADD13C,0.120000*%
G04 APERTURE END LIST*
D10*
X243253904Y-137104380D02*
X243253904Y-136104380D01*
X243682476Y-137104380D02*
X243682476Y-136580571D01*
X243634857Y-136485333D01*
X243539619Y-136437714D01*
X243396761Y-136437714D01*
X243301523Y-136485333D01*
X243253904Y-136532952D01*
X244015809Y-136437714D02*
X244396761Y-136437714D01*
X244158666Y-136104380D02*
X244158666Y-136961523D01*
X244206285Y-137056761D01*
X244301523Y-137104380D01*
X244396761Y-137104380D01*
X244587238Y-136437714D02*
X244968190Y-136437714D01*
X244730095Y-136104380D02*
X244730095Y-136961523D01*
X244777714Y-137056761D01*
X244872952Y-137104380D01*
X244968190Y-137104380D01*
X245301523Y-136437714D02*
X245301523Y-137437714D01*
X245301523Y-136485333D02*
X245396761Y-136437714D01*
X245587238Y-136437714D01*
X245682476Y-136485333D01*
X245730095Y-136532952D01*
X245777714Y-136628190D01*
X245777714Y-136913904D01*
X245730095Y-137009142D01*
X245682476Y-137056761D01*
X245587238Y-137104380D01*
X245396761Y-137104380D01*
X245301523Y-137056761D01*
X246158666Y-137056761D02*
X246253904Y-137104380D01*
X246444380Y-137104380D01*
X246539619Y-137056761D01*
X246587238Y-136961523D01*
X246587238Y-136913904D01*
X246539619Y-136818666D01*
X246444380Y-136771047D01*
X246301523Y-136771047D01*
X246206285Y-136723428D01*
X246158666Y-136628190D01*
X246158666Y-136580571D01*
X246206285Y-136485333D01*
X246301523Y-136437714D01*
X246444380Y-136437714D01*
X246539619Y-136485333D01*
X247015809Y-137009142D02*
X247063428Y-137056761D01*
X247015809Y-137104380D01*
X246968190Y-137056761D01*
X247015809Y-137009142D01*
X247015809Y-137104380D01*
X247015809Y-136485333D02*
X247063428Y-136532952D01*
X247015809Y-136580571D01*
X246968190Y-136532952D01*
X247015809Y-136485333D01*
X247015809Y-136580571D01*
X248206285Y-136056761D02*
X247349142Y-137342476D01*
X249253904Y-136056761D02*
X248396761Y-137342476D01*
X250015809Y-137104380D02*
X250015809Y-136580571D01*
X249968190Y-136485333D01*
X249872952Y-136437714D01*
X249682476Y-136437714D01*
X249587238Y-136485333D01*
X250015809Y-137056761D02*
X249920571Y-137104380D01*
X249682476Y-137104380D01*
X249587238Y-137056761D01*
X249539619Y-136961523D01*
X249539619Y-136866285D01*
X249587238Y-136771047D01*
X249682476Y-136723428D01*
X249920571Y-136723428D01*
X250015809Y-136675809D01*
X250920571Y-136437714D02*
X250920571Y-137437714D01*
X250920571Y-137056761D02*
X250825333Y-137104380D01*
X250634857Y-137104380D01*
X250539619Y-137056761D01*
X250492000Y-137009142D01*
X250444380Y-136913904D01*
X250444380Y-136628190D01*
X250492000Y-136532952D01*
X250539619Y-136485333D01*
X250634857Y-136437714D01*
X250825333Y-136437714D01*
X250920571Y-136485333D01*
X251825333Y-136437714D02*
X251825333Y-137104380D01*
X251396761Y-136437714D02*
X251396761Y-136961523D01*
X251444380Y-137056761D01*
X251539619Y-137104380D01*
X251682476Y-137104380D01*
X251777714Y-137056761D01*
X251825333Y-137009142D01*
X252730095Y-137104380D02*
X252730095Y-136580571D01*
X252682476Y-136485333D01*
X252587238Y-136437714D01*
X252396761Y-136437714D01*
X252301523Y-136485333D01*
X252730095Y-137056761D02*
X252634857Y-137104380D01*
X252396761Y-137104380D01*
X252301523Y-137056761D01*
X252253904Y-136961523D01*
X252253904Y-136866285D01*
X252301523Y-136771047D01*
X252396761Y-136723428D01*
X252634857Y-136723428D01*
X252730095Y-136675809D01*
X253206285Y-136437714D02*
X253206285Y-137437714D01*
X253206285Y-136485333D02*
X253301523Y-136437714D01*
X253492000Y-136437714D01*
X253587238Y-136485333D01*
X253634857Y-136532952D01*
X253682476Y-136628190D01*
X253682476Y-136913904D01*
X253634857Y-137009142D01*
X253587238Y-137056761D01*
X253492000Y-137104380D01*
X253301523Y-137104380D01*
X253206285Y-137056761D01*
X254111047Y-137104380D02*
X254111047Y-136437714D01*
X254111047Y-136104380D02*
X254063428Y-136152000D01*
X254111047Y-136199619D01*
X254158666Y-136152000D01*
X254111047Y-136104380D01*
X254111047Y-136199619D01*
X254587238Y-137009142D02*
X254634857Y-137056761D01*
X254587238Y-137104380D01*
X254539619Y-137056761D01*
X254587238Y-137009142D01*
X254587238Y-137104380D01*
X255063428Y-136437714D02*
X255063428Y-137437714D01*
X255063428Y-136485333D02*
X255158666Y-136437714D01*
X255349142Y-136437714D01*
X255444380Y-136485333D01*
X255492000Y-136532952D01*
X255539619Y-136628190D01*
X255539619Y-136913904D01*
X255492000Y-137009142D01*
X255444380Y-137056761D01*
X255349142Y-137104380D01*
X255158666Y-137104380D01*
X255063428Y-137056761D01*
X256111047Y-137104380D02*
X256015809Y-137056761D01*
X255968190Y-137009142D01*
X255920571Y-136913904D01*
X255920571Y-136628190D01*
X255968190Y-136532952D01*
X256015809Y-136485333D01*
X256111047Y-136437714D01*
X256253904Y-136437714D01*
X256349142Y-136485333D01*
X256396761Y-136532952D01*
X256444380Y-136628190D01*
X256444380Y-136913904D01*
X256396761Y-137009142D01*
X256349142Y-137056761D01*
X256253904Y-137104380D01*
X256111047Y-137104380D01*
X257015809Y-137104380D02*
X256920571Y-137056761D01*
X256872952Y-136961523D01*
X256872952Y-136104380D01*
X257825333Y-137104380D02*
X257825333Y-136580571D01*
X257777714Y-136485333D01*
X257682476Y-136437714D01*
X257492000Y-136437714D01*
X257396761Y-136485333D01*
X257825333Y-137056761D02*
X257730095Y-137104380D01*
X257492000Y-137104380D01*
X257396761Y-137056761D01*
X257349142Y-136961523D01*
X257349142Y-136866285D01*
X257396761Y-136771047D01*
X257492000Y-136723428D01*
X257730095Y-136723428D01*
X257825333Y-136675809D01*
X258301523Y-137104380D02*
X258301523Y-136437714D01*
X258301523Y-136628190D02*
X258349142Y-136532952D01*
X258396761Y-136485333D01*
X258492000Y-136437714D01*
X258587238Y-136437714D01*
X258920571Y-136437714D02*
X258920571Y-137104380D01*
X258920571Y-136532952D02*
X258968190Y-136485333D01*
X259063428Y-136437714D01*
X259206285Y-136437714D01*
X259301523Y-136485333D01*
X259349142Y-136580571D01*
X259349142Y-137104380D01*
X260206285Y-137056761D02*
X260111047Y-137104380D01*
X259920571Y-137104380D01*
X259825333Y-137056761D01*
X259777714Y-136961523D01*
X259777714Y-136580571D01*
X259825333Y-136485333D01*
X259920571Y-136437714D01*
X260111047Y-136437714D01*
X260206285Y-136485333D01*
X260253904Y-136580571D01*
X260253904Y-136675809D01*
X259777714Y-136771047D01*
X260539619Y-136437714D02*
X260920571Y-136437714D01*
X260682476Y-136104380D02*
X260682476Y-136961523D01*
X260730095Y-137056761D01*
X260825333Y-137104380D01*
X260920571Y-137104380D01*
X261253904Y-137009142D02*
X261301523Y-137056761D01*
X261253904Y-137104380D01*
X261206285Y-137056761D01*
X261253904Y-137009142D01*
X261253904Y-137104380D01*
X261730095Y-136437714D02*
X261730095Y-137437714D01*
X261730095Y-136485333D02*
X261825333Y-136437714D01*
X262015809Y-136437714D01*
X262111047Y-136485333D01*
X262158666Y-136532952D01*
X262206285Y-136628190D01*
X262206285Y-136913904D01*
X262158666Y-137009142D01*
X262111047Y-137056761D01*
X262015809Y-137104380D01*
X261825333Y-137104380D01*
X261730095Y-137056761D01*
X262777714Y-137104380D02*
X262682476Y-137056761D01*
X262634857Y-136961523D01*
X262634857Y-136104380D01*
X263872952Y-136056761D02*
X263015809Y-137342476D01*
X252008380Y-134056380D02*
X252008380Y-133056380D01*
X252341714Y-133770666D01*
X252675047Y-133056380D01*
X252675047Y-134056380D01*
X253579809Y-134056380D02*
X253579809Y-133532571D01*
X253532190Y-133437333D01*
X253436952Y-133389714D01*
X253246476Y-133389714D01*
X253151238Y-133437333D01*
X253579809Y-134008761D02*
X253484571Y-134056380D01*
X253246476Y-134056380D01*
X253151238Y-134008761D01*
X253103619Y-133913523D01*
X253103619Y-133818285D01*
X253151238Y-133723047D01*
X253246476Y-133675428D01*
X253484571Y-133675428D01*
X253579809Y-133627809D01*
X254056000Y-134056380D02*
X254056000Y-133389714D01*
X254056000Y-133056380D02*
X254008380Y-133104000D01*
X254056000Y-133151619D01*
X254103619Y-133104000D01*
X254056000Y-133056380D01*
X254056000Y-133151619D01*
X254532190Y-133389714D02*
X254532190Y-134056380D01*
X254532190Y-133484952D02*
X254579809Y-133437333D01*
X254675047Y-133389714D01*
X254817904Y-133389714D01*
X254913142Y-133437333D01*
X254960761Y-133532571D01*
X254960761Y-134056380D01*
X255436952Y-134056380D02*
X255436952Y-133056380D01*
X255436952Y-133437333D02*
X255532190Y-133389714D01*
X255722666Y-133389714D01*
X255817904Y-133437333D01*
X255865523Y-133484952D01*
X255913142Y-133580190D01*
X255913142Y-133865904D01*
X255865523Y-133961142D01*
X255817904Y-134008761D01*
X255722666Y-134056380D01*
X255532190Y-134056380D01*
X255436952Y-134008761D01*
X256484571Y-134056380D02*
X256389333Y-134008761D01*
X256341714Y-133961142D01*
X256294095Y-133865904D01*
X256294095Y-133580190D01*
X256341714Y-133484952D01*
X256389333Y-133437333D01*
X256484571Y-133389714D01*
X256627428Y-133389714D01*
X256722666Y-133437333D01*
X256770285Y-133484952D01*
X256817904Y-133580190D01*
X256817904Y-133865904D01*
X256770285Y-133961142D01*
X256722666Y-134008761D01*
X256627428Y-134056380D01*
X256484571Y-134056380D01*
X257675047Y-134056380D02*
X257675047Y-133532571D01*
X257627428Y-133437333D01*
X257532190Y-133389714D01*
X257341714Y-133389714D01*
X257246476Y-133437333D01*
X257675047Y-134008761D02*
X257579809Y-134056380D01*
X257341714Y-134056380D01*
X257246476Y-134008761D01*
X257198857Y-133913523D01*
X257198857Y-133818285D01*
X257246476Y-133723047D01*
X257341714Y-133675428D01*
X257579809Y-133675428D01*
X257675047Y-133627809D01*
X258151238Y-134056380D02*
X258151238Y-133389714D01*
X258151238Y-133580190D02*
X258198857Y-133484952D01*
X258246476Y-133437333D01*
X258341714Y-133389714D01*
X258436952Y-133389714D01*
X259198857Y-134056380D02*
X259198857Y-133056380D01*
X259198857Y-134008761D02*
X259103619Y-134056380D01*
X258913142Y-134056380D01*
X258817904Y-134008761D01*
X258770285Y-133961142D01*
X258722666Y-133865904D01*
X258722666Y-133580190D01*
X258770285Y-133484952D01*
X258817904Y-133437333D01*
X258913142Y-133389714D01*
X259103619Y-133389714D01*
X259198857Y-133437333D01*
X260341714Y-133389714D02*
X260579809Y-134056380D01*
X260817904Y-133389714D01*
X261151238Y-133151619D02*
X261198857Y-133104000D01*
X261294095Y-133056380D01*
X261532190Y-133056380D01*
X261627428Y-133104000D01*
X261675047Y-133151619D01*
X261722666Y-133246857D01*
X261722666Y-133342095D01*
X261675047Y-133484952D01*
X261103619Y-134056380D01*
X261722666Y-134056380D01*
X262151238Y-133961142D02*
X262198857Y-134008761D01*
X262151238Y-134056380D01*
X262103619Y-134008761D01*
X262151238Y-133961142D01*
X262151238Y-134056380D01*
X262817904Y-133056380D02*
X262913142Y-133056380D01*
X263008380Y-133104000D01*
X263056000Y-133151619D01*
X263103619Y-133246857D01*
X263151238Y-133437333D01*
X263151238Y-133675428D01*
X263103619Y-133865904D01*
X263056000Y-133961142D01*
X263008380Y-134008761D01*
X262913142Y-134056380D01*
X262817904Y-134056380D01*
X262722666Y-134008761D01*
X262675047Y-133961142D01*
X262627428Y-133865904D01*
X262579809Y-133675428D01*
X262579809Y-133437333D01*
X262627428Y-133246857D01*
X262675047Y-133151619D01*
X262722666Y-133104000D01*
X262817904Y-133056380D01*
X252889333Y-131143333D02*
X253841714Y-131143333D01*
X252698857Y-131714761D02*
X253365523Y-129714761D01*
X254032190Y-131714761D01*
X255556000Y-130381428D02*
X255556000Y-132381428D01*
X255556000Y-131619523D02*
X255365523Y-131714761D01*
X254984571Y-131714761D01*
X254794095Y-131619523D01*
X254698857Y-131524285D01*
X254603619Y-131333809D01*
X254603619Y-130762380D01*
X254698857Y-130571904D01*
X254794095Y-130476666D01*
X254984571Y-130381428D01*
X255365523Y-130381428D01*
X255556000Y-130476666D01*
X257365523Y-130381428D02*
X257365523Y-131714761D01*
X256508380Y-130381428D02*
X256508380Y-131429047D01*
X256603619Y-131619523D01*
X256794095Y-131714761D01*
X257079809Y-131714761D01*
X257270285Y-131619523D01*
X257365523Y-131524285D01*
X259175047Y-131714761D02*
X259175047Y-130667142D01*
X259079809Y-130476666D01*
X258889333Y-130381428D01*
X258508380Y-130381428D01*
X258317904Y-130476666D01*
X259175047Y-131619523D02*
X258984571Y-131714761D01*
X258508380Y-131714761D01*
X258317904Y-131619523D01*
X258222666Y-131429047D01*
X258222666Y-131238571D01*
X258317904Y-131048095D01*
X258508380Y-130952857D01*
X258984571Y-130952857D01*
X259175047Y-130857619D01*
X260127428Y-131714761D02*
X260127428Y-129714761D01*
X260889333Y-129714761D01*
X261079809Y-129810000D01*
X261175047Y-129905238D01*
X261270285Y-130095714D01*
X261270285Y-130381428D01*
X261175047Y-130571904D01*
X261079809Y-130667142D01*
X260889333Y-130762380D01*
X260127428Y-130762380D01*
X262127428Y-131714761D02*
X262127428Y-129714761D01*
D11*
X237661904Y-119149761D02*
X237804761Y-119197380D01*
X238042857Y-119197380D01*
X238138095Y-119149761D01*
X238185714Y-119102142D01*
X238233333Y-119006904D01*
X238233333Y-118911666D01*
X238185714Y-118816428D01*
X238138095Y-118768809D01*
X238042857Y-118721190D01*
X237852380Y-118673571D01*
X237757142Y-118625952D01*
X237709523Y-118578333D01*
X237661904Y-118483095D01*
X237661904Y-118387857D01*
X237709523Y-118292619D01*
X237757142Y-118245000D01*
X237852380Y-118197380D01*
X238090476Y-118197380D01*
X238233333Y-118245000D01*
X238661904Y-119197380D02*
X238661904Y-118197380D01*
X239661904Y-118245000D02*
X239566666Y-118197380D01*
X239423809Y-118197380D01*
X239280952Y-118245000D01*
X239185714Y-118340238D01*
X239138095Y-118435476D01*
X239090476Y-118625952D01*
X239090476Y-118768809D01*
X239138095Y-118959285D01*
X239185714Y-119054523D01*
X239280952Y-119149761D01*
X239423809Y-119197380D01*
X239519047Y-119197380D01*
X239661904Y-119149761D01*
X239709523Y-119102142D01*
X239709523Y-118768809D01*
X239519047Y-118768809D01*
X237090476Y-123896428D02*
X237852380Y-123896428D01*
X237471428Y-124277380D02*
X237471428Y-123515476D01*
X238804761Y-123277380D02*
X238328571Y-123277380D01*
X238280952Y-123753571D01*
X238328571Y-123705952D01*
X238423809Y-123658333D01*
X238661904Y-123658333D01*
X238757142Y-123705952D01*
X238804761Y-123753571D01*
X238852380Y-123848809D01*
X238852380Y-124086904D01*
X238804761Y-124182142D01*
X238757142Y-124229761D01*
X238661904Y-124277380D01*
X238423809Y-124277380D01*
X238328571Y-124229761D01*
X238280952Y-124182142D01*
X239138095Y-123277380D02*
X239471428Y-124277380D01*
X239804761Y-123277380D01*
X237614285Y-120785000D02*
X237519047Y-120737380D01*
X237376190Y-120737380D01*
X237233333Y-120785000D01*
X237138095Y-120880238D01*
X237090476Y-120975476D01*
X237042857Y-121165952D01*
X237042857Y-121308809D01*
X237090476Y-121499285D01*
X237138095Y-121594523D01*
X237233333Y-121689761D01*
X237376190Y-121737380D01*
X237471428Y-121737380D01*
X237614285Y-121689761D01*
X237661904Y-121642142D01*
X237661904Y-121308809D01*
X237471428Y-121308809D01*
X238090476Y-121737380D02*
X238090476Y-120737380D01*
X238661904Y-121737380D01*
X238661904Y-120737380D01*
X239138095Y-121737380D02*
X239138095Y-120737380D01*
X239376190Y-120737380D01*
X239519047Y-120785000D01*
X239614285Y-120880238D01*
X239661904Y-120975476D01*
X239709523Y-121165952D01*
X239709523Y-121308809D01*
X239661904Y-121499285D01*
X239614285Y-121594523D01*
X239519047Y-121689761D01*
X239376190Y-121737380D01*
X239138095Y-121737380D01*
X243284523Y-112799761D02*
X243427380Y-112847380D01*
X243665476Y-112847380D01*
X243760714Y-112799761D01*
X243808333Y-112752142D01*
X243855952Y-112656904D01*
X243855952Y-112561666D01*
X243808333Y-112466428D01*
X243760714Y-112418809D01*
X243665476Y-112371190D01*
X243475000Y-112323571D01*
X243379761Y-112275952D01*
X243332142Y-112228333D01*
X243284523Y-112133095D01*
X243284523Y-112037857D01*
X243332142Y-111942619D01*
X243379761Y-111895000D01*
X243475000Y-111847380D01*
X243713095Y-111847380D01*
X243855952Y-111895000D01*
X244855952Y-112752142D02*
X244808333Y-112799761D01*
X244665476Y-112847380D01*
X244570238Y-112847380D01*
X244427380Y-112799761D01*
X244332142Y-112704523D01*
X244284523Y-112609285D01*
X244236904Y-112418809D01*
X244236904Y-112275952D01*
X244284523Y-112085476D01*
X244332142Y-111990238D01*
X244427380Y-111895000D01*
X244570238Y-111847380D01*
X244665476Y-111847380D01*
X244808333Y-111895000D01*
X244855952Y-111942619D01*
X245760714Y-112847380D02*
X245284523Y-112847380D01*
X245284523Y-111847380D01*
X243260714Y-110259761D02*
X243403571Y-110307380D01*
X243641666Y-110307380D01*
X243736904Y-110259761D01*
X243784523Y-110212142D01*
X243832142Y-110116904D01*
X243832142Y-110021666D01*
X243784523Y-109926428D01*
X243736904Y-109878809D01*
X243641666Y-109831190D01*
X243451190Y-109783571D01*
X243355952Y-109735952D01*
X243308333Y-109688333D01*
X243260714Y-109593095D01*
X243260714Y-109497857D01*
X243308333Y-109402619D01*
X243355952Y-109355000D01*
X243451190Y-109307380D01*
X243689285Y-109307380D01*
X243832142Y-109355000D01*
X244260714Y-110307380D02*
X244260714Y-109307380D01*
X244498809Y-109307380D01*
X244641666Y-109355000D01*
X244736904Y-109450238D01*
X244784523Y-109545476D01*
X244832142Y-109735952D01*
X244832142Y-109878809D01*
X244784523Y-110069285D01*
X244736904Y-110164523D01*
X244641666Y-110259761D01*
X244498809Y-110307380D01*
X244260714Y-110307380D01*
X245213095Y-110021666D02*
X245689285Y-110021666D01*
X245117857Y-110307380D02*
X245451190Y-109307380D01*
X245784523Y-110307380D01*
X243189285Y-107386428D02*
X243951190Y-107386428D01*
X243570238Y-107767380D02*
X243570238Y-107005476D01*
X244903571Y-106767380D02*
X244427380Y-106767380D01*
X244379761Y-107243571D01*
X244427380Y-107195952D01*
X244522619Y-107148333D01*
X244760714Y-107148333D01*
X244855952Y-107195952D01*
X244903571Y-107243571D01*
X244951190Y-107338809D01*
X244951190Y-107576904D01*
X244903571Y-107672142D01*
X244855952Y-107719761D01*
X244760714Y-107767380D01*
X244522619Y-107767380D01*
X244427380Y-107719761D01*
X244379761Y-107672142D01*
X245236904Y-106767380D02*
X245570238Y-107767380D01*
X245903571Y-106767380D01*
X243713095Y-104275000D02*
X243617857Y-104227380D01*
X243475000Y-104227380D01*
X243332142Y-104275000D01*
X243236904Y-104370238D01*
X243189285Y-104465476D01*
X243141666Y-104655952D01*
X243141666Y-104798809D01*
X243189285Y-104989285D01*
X243236904Y-105084523D01*
X243332142Y-105179761D01*
X243475000Y-105227380D01*
X243570238Y-105227380D01*
X243713095Y-105179761D01*
X243760714Y-105132142D01*
X243760714Y-104798809D01*
X243570238Y-104798809D01*
X244189285Y-105227380D02*
X244189285Y-104227380D01*
X244760714Y-105227380D01*
X244760714Y-104227380D01*
X245236904Y-105227380D02*
X245236904Y-104227380D01*
X245475000Y-104227380D01*
X245617857Y-104275000D01*
X245713095Y-104370238D01*
X245760714Y-104465476D01*
X245808333Y-104655952D01*
X245808333Y-104798809D01*
X245760714Y-104989285D01*
X245713095Y-105084523D01*
X245617857Y-105179761D01*
X245475000Y-105227380D01*
X245236904Y-105227380D01*
D12*
G36*
X244487744Y-133745918D02*
G01*
X244543201Y-133773568D01*
X244592148Y-133824480D01*
X244605629Y-133843338D01*
X244620314Y-133868015D01*
X244629842Y-133894816D01*
X244635293Y-133930587D01*
X244637747Y-133982169D01*
X244638286Y-134050267D01*
X244635852Y-134143588D01*
X244627394Y-134213657D01*
X244611174Y-134265931D01*
X244585454Y-134305869D01*
X244548497Y-134338929D01*
X244545782Y-134340886D01*
X244509360Y-134360908D01*
X244465502Y-134370815D01*
X244409724Y-134373257D01*
X244319048Y-134373257D01*
X244319010Y-134461283D01*
X244318166Y-134510308D01*
X244313024Y-134539065D01*
X244299587Y-134556311D01*
X244273858Y-134570808D01*
X244267679Y-134573769D01*
X244238764Y-134587648D01*
X244216376Y-134596414D01*
X244199729Y-134597171D01*
X244188036Y-134587023D01*
X244180510Y-134563073D01*
X244176366Y-134522426D01*
X244174815Y-134462186D01*
X244175071Y-134379455D01*
X244176349Y-134271339D01*
X244176748Y-134239000D01*
X244178185Y-134127524D01*
X244179472Y-134054603D01*
X244318971Y-134054603D01*
X244319755Y-134116499D01*
X244323240Y-134156997D01*
X244331124Y-134183708D01*
X244345105Y-134204244D01*
X244354597Y-134214260D01*
X244393404Y-134243567D01*
X244427763Y-134245952D01*
X244463216Y-134221750D01*
X244464114Y-134220857D01*
X244478539Y-134202153D01*
X244487313Y-134176732D01*
X244491739Y-134137584D01*
X244493118Y-134077697D01*
X244493143Y-134064430D01*
X244489812Y-133981901D01*
X244478969Y-133924691D01*
X244459340Y-133889766D01*
X244429650Y-133874094D01*
X244412491Y-133872514D01*
X244371766Y-133879926D01*
X244343832Y-133904330D01*
X244327017Y-133948980D01*
X244319650Y-134017130D01*
X244318971Y-134054603D01*
X244179472Y-134054603D01*
X244179708Y-134041245D01*
X244181677Y-133976333D01*
X244184450Y-133928958D01*
X244188388Y-133895290D01*
X244193849Y-133871498D01*
X244201192Y-133853753D01*
X244210777Y-133838224D01*
X244214887Y-133832381D01*
X244269405Y-133777185D01*
X244338336Y-133745890D01*
X244418072Y-133737165D01*
X244487744Y-133745918D01*
G37*
X244487744Y-133745918D02*
X244543201Y-133773568D01*
X244592148Y-133824480D01*
X244605629Y-133843338D01*
X244620314Y-133868015D01*
X244629842Y-133894816D01*
X244635293Y-133930587D01*
X244637747Y-133982169D01*
X244638286Y-134050267D01*
X244635852Y-134143588D01*
X244627394Y-134213657D01*
X244611174Y-134265931D01*
X244585454Y-134305869D01*
X244548497Y-134338929D01*
X244545782Y-134340886D01*
X244509360Y-134360908D01*
X244465502Y-134370815D01*
X244409724Y-134373257D01*
X244319048Y-134373257D01*
X244319010Y-134461283D01*
X244318166Y-134510308D01*
X244313024Y-134539065D01*
X244299587Y-134556311D01*
X244273858Y-134570808D01*
X244267679Y-134573769D01*
X244238764Y-134587648D01*
X244216376Y-134596414D01*
X244199729Y-134597171D01*
X244188036Y-134587023D01*
X244180510Y-134563073D01*
X244176366Y-134522426D01*
X244174815Y-134462186D01*
X244175071Y-134379455D01*
X244176349Y-134271339D01*
X244176748Y-134239000D01*
X244178185Y-134127524D01*
X244179472Y-134054603D01*
X244318971Y-134054603D01*
X244319755Y-134116499D01*
X244323240Y-134156997D01*
X244331124Y-134183708D01*
X244345105Y-134204244D01*
X244354597Y-134214260D01*
X244393404Y-134243567D01*
X244427763Y-134245952D01*
X244463216Y-134221750D01*
X244464114Y-134220857D01*
X244478539Y-134202153D01*
X244487313Y-134176732D01*
X244491739Y-134137584D01*
X244493118Y-134077697D01*
X244493143Y-134064430D01*
X244489812Y-133981901D01*
X244478969Y-133924691D01*
X244459340Y-133889766D01*
X244429650Y-133874094D01*
X244412491Y-133872514D01*
X244371766Y-133879926D01*
X244343832Y-133904330D01*
X244327017Y-133948980D01*
X244319650Y-134017130D01*
X244318971Y-134054603D01*
X244179472Y-134054603D01*
X244179708Y-134041245D01*
X244181677Y-133976333D01*
X244184450Y-133928958D01*
X244188388Y-133895290D01*
X244193849Y-133871498D01*
X244201192Y-133853753D01*
X244210777Y-133838224D01*
X244214887Y-133832381D01*
X244269405Y-133777185D01*
X244338336Y-133745890D01*
X244418072Y-133737165D01*
X244487744Y-133745918D01*
G36*
X245604093Y-133753780D02*
G01*
X245650672Y-133780723D01*
X245683057Y-133807466D01*
X245706742Y-133835484D01*
X245723059Y-133869748D01*
X245733339Y-133915227D01*
X245738914Y-133976892D01*
X245741116Y-134059711D01*
X245741371Y-134119246D01*
X245741371Y-134338391D01*
X245679686Y-134366044D01*
X245618000Y-134393697D01*
X245610743Y-134153670D01*
X245607744Y-134064028D01*
X245604598Y-133998962D01*
X245600701Y-133954026D01*
X245595447Y-133924770D01*
X245588231Y-133906748D01*
X245578450Y-133895511D01*
X245575312Y-133893079D01*
X245527761Y-133874083D01*
X245479697Y-133881600D01*
X245451086Y-133901543D01*
X245439447Y-133915675D01*
X245431391Y-133934220D01*
X245426271Y-133962334D01*
X245423441Y-134005173D01*
X245422256Y-134067895D01*
X245422057Y-134133261D01*
X245422018Y-134215268D01*
X245420614Y-134273316D01*
X245415914Y-134312465D01*
X245405987Y-134337780D01*
X245388903Y-134354323D01*
X245362732Y-134367156D01*
X245327775Y-134380491D01*
X245289596Y-134395007D01*
X245294141Y-134137389D01*
X245295971Y-134044519D01*
X245298112Y-133975889D01*
X245301181Y-133926711D01*
X245305794Y-133892198D01*
X245312568Y-133867562D01*
X245322119Y-133848016D01*
X245333634Y-133830770D01*
X245389190Y-133775680D01*
X245456980Y-133743822D01*
X245530713Y-133736191D01*
X245604093Y-133753780D01*
G37*
X245604093Y-133753780D02*
X245650672Y-133780723D01*
X245683057Y-133807466D01*
X245706742Y-133835484D01*
X245723059Y-133869748D01*
X245733339Y-133915227D01*
X245738914Y-133976892D01*
X245741116Y-134059711D01*
X245741371Y-134119246D01*
X245741371Y-134338391D01*
X245679686Y-134366044D01*
X245618000Y-134393697D01*
X245610743Y-134153670D01*
X245607744Y-134064028D01*
X245604598Y-133998962D01*
X245600701Y-133954026D01*
X245595447Y-133924770D01*
X245588231Y-133906748D01*
X245578450Y-133895511D01*
X245575312Y-133893079D01*
X245527761Y-133874083D01*
X245479697Y-133881600D01*
X245451086Y-133901543D01*
X245439447Y-133915675D01*
X245431391Y-133934220D01*
X245426271Y-133962334D01*
X245423441Y-134005173D01*
X245422256Y-134067895D01*
X245422057Y-134133261D01*
X245422018Y-134215268D01*
X245420614Y-134273316D01*
X245415914Y-134312465D01*
X245405987Y-134337780D01*
X245388903Y-134354323D01*
X245362732Y-134367156D01*
X245327775Y-134380491D01*
X245289596Y-134395007D01*
X245294141Y-134137389D01*
X245295971Y-134044519D01*
X245298112Y-133975889D01*
X245301181Y-133926711D01*
X245305794Y-133892198D01*
X245312568Y-133867562D01*
X245322119Y-133848016D01*
X245333634Y-133830770D01*
X245389190Y-133775680D01*
X245456980Y-133743822D01*
X245530713Y-133736191D01*
X245604093Y-133753780D01*
G36*
X243929115Y-133747962D02*
G01*
X243997145Y-133783733D01*
X244047351Y-133841301D01*
X244065185Y-133878312D01*
X244079063Y-133933882D01*
X244086167Y-134004096D01*
X244086840Y-134080727D01*
X244081427Y-134155552D01*
X244070270Y-134220342D01*
X244053714Y-134266873D01*
X244048626Y-134274887D01*
X243988355Y-134334707D01*
X243916769Y-134370535D01*
X243839092Y-134381020D01*
X243760548Y-134364810D01*
X243738689Y-134355092D01*
X243696122Y-134325143D01*
X243658763Y-134285433D01*
X243655232Y-134280397D01*
X243640881Y-134256124D01*
X243631394Y-134230178D01*
X243625790Y-134196022D01*
X243623086Y-134147119D01*
X243622299Y-134076935D01*
X243622286Y-134061200D01*
X243622322Y-134056192D01*
X243767429Y-134056192D01*
X243768273Y-134122430D01*
X243771596Y-134166386D01*
X243778583Y-134194779D01*
X243790416Y-134214325D01*
X243796457Y-134220857D01*
X243831186Y-134245680D01*
X243864903Y-134244548D01*
X243898995Y-134223016D01*
X243919329Y-134200029D01*
X243931371Y-134166478D01*
X243938134Y-134113569D01*
X243938598Y-134107399D01*
X243939752Y-134011513D01*
X243927688Y-133940299D01*
X243902570Y-133894194D01*
X243864560Y-133873635D01*
X243850992Y-133872514D01*
X243815364Y-133878152D01*
X243790994Y-133897686D01*
X243776093Y-133935042D01*
X243768875Y-133994150D01*
X243767429Y-134056192D01*
X243622322Y-134056192D01*
X243622826Y-133986413D01*
X243625096Y-133934159D01*
X243630068Y-133897949D01*
X243638713Y-133871299D01*
X243652005Y-133847722D01*
X243654943Y-133843338D01*
X243704313Y-133784249D01*
X243758109Y-133749947D01*
X243823602Y-133736331D01*
X243845842Y-133735665D01*
X243929115Y-133747962D01*
G37*
X243929115Y-133747962D02*
X243997145Y-133783733D01*
X244047351Y-133841301D01*
X244065185Y-133878312D01*
X244079063Y-133933882D01*
X244086167Y-134004096D01*
X244086840Y-134080727D01*
X244081427Y-134155552D01*
X244070270Y-134220342D01*
X244053714Y-134266873D01*
X244048626Y-134274887D01*
X243988355Y-134334707D01*
X243916769Y-134370535D01*
X243839092Y-134381020D01*
X243760548Y-134364810D01*
X243738689Y-134355092D01*
X243696122Y-134325143D01*
X243658763Y-134285433D01*
X243655232Y-134280397D01*
X243640881Y-134256124D01*
X243631394Y-134230178D01*
X243625790Y-134196022D01*
X243623086Y-134147119D01*
X243622299Y-134076935D01*
X243622286Y-134061200D01*
X243622322Y-134056192D01*
X243767429Y-134056192D01*
X243768273Y-134122430D01*
X243771596Y-134166386D01*
X243778583Y-134194779D01*
X243790416Y-134214325D01*
X243796457Y-134220857D01*
X243831186Y-134245680D01*
X243864903Y-134244548D01*
X243898995Y-134223016D01*
X243919329Y-134200029D01*
X243931371Y-134166478D01*
X243938134Y-134113569D01*
X243938598Y-134107399D01*
X243939752Y-134011513D01*
X243927688Y-133940299D01*
X243902570Y-133894194D01*
X243864560Y-133873635D01*
X243850992Y-133872514D01*
X243815364Y-133878152D01*
X243790994Y-133897686D01*
X243776093Y-133935042D01*
X243768875Y-133994150D01*
X243767429Y-134056192D01*
X243622322Y-134056192D01*
X243622826Y-133986413D01*
X243625096Y-133934159D01*
X243630068Y-133897949D01*
X243638713Y-133871299D01*
X243652005Y-133847722D01*
X243654943Y-133843338D01*
X243704313Y-133784249D01*
X243758109Y-133749947D01*
X243823602Y-133736331D01*
X243845842Y-133735665D01*
X243929115Y-133747962D01*
G36*
X245056303Y-133757239D02*
G01*
X245113527Y-133795735D01*
X245157749Y-133851335D01*
X245184167Y-133922086D01*
X245189510Y-133974162D01*
X245188903Y-133995893D01*
X245183822Y-134012531D01*
X245169855Y-134027437D01*
X245142589Y-134043973D01*
X245097612Y-134065498D01*
X245030511Y-134095374D01*
X245030171Y-134095524D01*
X244968407Y-134123813D01*
X244917759Y-134148933D01*
X244883404Y-134168179D01*
X244870518Y-134178848D01*
X244870514Y-134178934D01*
X244881872Y-134202166D01*
X244908431Y-134227774D01*
X244938923Y-134246221D01*
X244954370Y-134249886D01*
X244996515Y-134237212D01*
X245032808Y-134205471D01*
X245050517Y-134170572D01*
X245067552Y-134144845D01*
X245100922Y-134115546D01*
X245140149Y-134090235D01*
X245174756Y-134076471D01*
X245181993Y-134075714D01*
X245190139Y-134088160D01*
X245190630Y-134119972D01*
X245184643Y-134162866D01*
X245173357Y-134208558D01*
X245157950Y-134248761D01*
X245157171Y-134250322D01*
X245110804Y-134315062D01*
X245050711Y-134359097D01*
X244982465Y-134380711D01*
X244911638Y-134378185D01*
X244843804Y-134349804D01*
X244840788Y-134347808D01*
X244787427Y-134299448D01*
X244752340Y-134236352D01*
X244732922Y-134153387D01*
X244730316Y-134130078D01*
X244725701Y-134020055D01*
X244731233Y-133968748D01*
X244870514Y-133968748D01*
X244872324Y-134000753D01*
X244882222Y-134010093D01*
X244906898Y-134003105D01*
X244945795Y-133986587D01*
X244989275Y-133965881D01*
X244990356Y-133965333D01*
X245027209Y-133945949D01*
X245042000Y-133933013D01*
X245038353Y-133919451D01*
X245022995Y-133901632D01*
X244983923Y-133875845D01*
X244941846Y-133873950D01*
X244904103Y-133892717D01*
X244878034Y-133928915D01*
X244870514Y-133968748D01*
X244731233Y-133968748D01*
X244735194Y-133932027D01*
X244759550Y-133862212D01*
X244793456Y-133813302D01*
X244854653Y-133763878D01*
X244922063Y-133739359D01*
X244990880Y-133737797D01*
X245056303Y-133757239D01*
G37*
X245056303Y-133757239D02*
X245113527Y-133795735D01*
X245157749Y-133851335D01*
X245184167Y-133922086D01*
X245189510Y-133974162D01*
X245188903Y-133995893D01*
X245183822Y-134012531D01*
X245169855Y-134027437D01*
X245142589Y-134043973D01*
X245097612Y-134065498D01*
X245030511Y-134095374D01*
X245030171Y-134095524D01*
X244968407Y-134123813D01*
X244917759Y-134148933D01*
X244883404Y-134168179D01*
X244870518Y-134178848D01*
X244870514Y-134178934D01*
X244881872Y-134202166D01*
X244908431Y-134227774D01*
X244938923Y-134246221D01*
X244954370Y-134249886D01*
X244996515Y-134237212D01*
X245032808Y-134205471D01*
X245050517Y-134170572D01*
X245067552Y-134144845D01*
X245100922Y-134115546D01*
X245140149Y-134090235D01*
X245174756Y-134076471D01*
X245181993Y-134075714D01*
X245190139Y-134088160D01*
X245190630Y-134119972D01*
X245184643Y-134162866D01*
X245173357Y-134208558D01*
X245157950Y-134248761D01*
X245157171Y-134250322D01*
X245110804Y-134315062D01*
X245050711Y-134359097D01*
X244982465Y-134380711D01*
X244911638Y-134378185D01*
X244843804Y-134349804D01*
X244840788Y-134347808D01*
X244787427Y-134299448D01*
X244752340Y-134236352D01*
X244732922Y-134153387D01*
X244730316Y-134130078D01*
X244725701Y-134020055D01*
X244731233Y-133968748D01*
X244870514Y-133968748D01*
X244872324Y-134000753D01*
X244882222Y-134010093D01*
X244906898Y-134003105D01*
X244945795Y-133986587D01*
X244989275Y-133965881D01*
X244990356Y-133965333D01*
X245027209Y-133945949D01*
X245042000Y-133933013D01*
X245038353Y-133919451D01*
X245022995Y-133901632D01*
X244983923Y-133875845D01*
X244941846Y-133873950D01*
X244904103Y-133892717D01*
X244878034Y-133928915D01*
X244870514Y-133968748D01*
X244731233Y-133968748D01*
X244735194Y-133932027D01*
X244759550Y-133862212D01*
X244793456Y-133813302D01*
X244854653Y-133763878D01*
X244922063Y-133739359D01*
X244990880Y-133737797D01*
X245056303Y-133757239D01*
G36*
X246263886Y-133677289D02*
G01*
X246268139Y-133736613D01*
X246273025Y-133771572D01*
X246279795Y-133786820D01*
X246289702Y-133787015D01*
X246292914Y-133785195D01*
X246335644Y-133772015D01*
X246391227Y-133772785D01*
X246447737Y-133786333D01*
X246483082Y-133803861D01*
X246519321Y-133831861D01*
X246545813Y-133863549D01*
X246563999Y-133903813D01*
X246575322Y-133957543D01*
X246581222Y-134029626D01*
X246583143Y-134124951D01*
X246583177Y-134143237D01*
X246583200Y-134348646D01*
X246537491Y-134364580D01*
X246505027Y-134375420D01*
X246487215Y-134380468D01*
X246486691Y-134380514D01*
X246484937Y-134366828D01*
X246483444Y-134329076D01*
X246482326Y-134272224D01*
X246481697Y-134201234D01*
X246481600Y-134158073D01*
X246481398Y-134072973D01*
X246480358Y-134011981D01*
X246477831Y-133970177D01*
X246473164Y-133942642D01*
X246465707Y-133924456D01*
X246454811Y-133910698D01*
X246448007Y-133904073D01*
X246401272Y-133877375D01*
X246350272Y-133875375D01*
X246304001Y-133897955D01*
X246295444Y-133906107D01*
X246282893Y-133921436D01*
X246274188Y-133939618D01*
X246268631Y-133965909D01*
X246265526Y-134005562D01*
X246264176Y-134063832D01*
X246263886Y-134144173D01*
X246263886Y-134348646D01*
X246218177Y-134364580D01*
X246185713Y-134375420D01*
X246167901Y-134380468D01*
X246167377Y-134380514D01*
X246166037Y-134366623D01*
X246164828Y-134327439D01*
X246163801Y-134266700D01*
X246163002Y-134188141D01*
X246162481Y-134095498D01*
X246162286Y-133992509D01*
X246162286Y-133595342D01*
X246209457Y-133575444D01*
X246256629Y-133555547D01*
X246263886Y-133677289D01*
G37*
X246263886Y-133677289D02*
X246268139Y-133736613D01*
X246273025Y-133771572D01*
X246279795Y-133786820D01*
X246289702Y-133787015D01*
X246292914Y-133785195D01*
X246335644Y-133772015D01*
X246391227Y-133772785D01*
X246447737Y-133786333D01*
X246483082Y-133803861D01*
X246519321Y-133831861D01*
X246545813Y-133863549D01*
X246563999Y-133903813D01*
X246575322Y-133957543D01*
X246581222Y-134029626D01*
X246583143Y-134124951D01*
X246583177Y-134143237D01*
X246583200Y-134348646D01*
X246537491Y-134364580D01*
X246505027Y-134375420D01*
X246487215Y-134380468D01*
X246486691Y-134380514D01*
X246484937Y-134366828D01*
X246483444Y-134329076D01*
X246482326Y-134272224D01*
X246481697Y-134201234D01*
X246481600Y-134158073D01*
X246481398Y-134072973D01*
X246480358Y-134011981D01*
X246477831Y-133970177D01*
X246473164Y-133942642D01*
X246465707Y-133924456D01*
X246454811Y-133910698D01*
X246448007Y-133904073D01*
X246401272Y-133877375D01*
X246350272Y-133875375D01*
X246304001Y-133897955D01*
X246295444Y-133906107D01*
X246282893Y-133921436D01*
X246274188Y-133939618D01*
X246268631Y-133965909D01*
X246265526Y-134005562D01*
X246264176Y-134063832D01*
X246263886Y-134144173D01*
X246263886Y-134348646D01*
X246218177Y-134364580D01*
X246185713Y-134375420D01*
X246167901Y-134380468D01*
X246167377Y-134380514D01*
X246166037Y-134366623D01*
X246164828Y-134327439D01*
X246163801Y-134266700D01*
X246163002Y-134188141D01*
X246162481Y-134095498D01*
X246162286Y-133992509D01*
X246162286Y-133595342D01*
X246209457Y-133575444D01*
X246256629Y-133555547D01*
X246263886Y-133677289D01*
G36*
X246927744Y-133776968D02*
G01*
X246984616Y-133798087D01*
X246985267Y-133798493D01*
X247020440Y-133824380D01*
X247046407Y-133854633D01*
X247064670Y-133894058D01*
X247076732Y-133947462D01*
X247084096Y-134019651D01*
X247088264Y-134115432D01*
X247088629Y-134129078D01*
X247093876Y-134334842D01*
X247049716Y-134357678D01*
X247017763Y-134373110D01*
X246998470Y-134380423D01*
X246997578Y-134380514D01*
X246994239Y-134367022D01*
X246991587Y-134330626D01*
X246989956Y-134277452D01*
X246989600Y-134234393D01*
X246989592Y-134164641D01*
X246986403Y-134120837D01*
X246975288Y-134099944D01*
X246951501Y-134098925D01*
X246910296Y-134114741D01*
X246848086Y-134143815D01*
X246802341Y-134167963D01*
X246778813Y-134188913D01*
X246771896Y-134211747D01*
X246771886Y-134212877D01*
X246783299Y-134252212D01*
X246817092Y-134273462D01*
X246868809Y-134276539D01*
X246906061Y-134276006D01*
X246925703Y-134286735D01*
X246937952Y-134312505D01*
X246945002Y-134345337D01*
X246934842Y-134363966D01*
X246931017Y-134366632D01*
X246895001Y-134377340D01*
X246844566Y-134378856D01*
X246792626Y-134371759D01*
X246755822Y-134358788D01*
X246704938Y-134315585D01*
X246676014Y-134255446D01*
X246670286Y-134208462D01*
X246674657Y-134166082D01*
X246690475Y-134131488D01*
X246721797Y-134100763D01*
X246772678Y-134069990D01*
X246847176Y-134035252D01*
X246851714Y-134033288D01*
X246918821Y-134002287D01*
X246960232Y-133976862D01*
X246977981Y-133954014D01*
X246974107Y-133930745D01*
X246950643Y-133904056D01*
X246943627Y-133897914D01*
X246896630Y-133874100D01*
X246847933Y-133875103D01*
X246805522Y-133898451D01*
X246777384Y-133941675D01*
X246774769Y-133950160D01*
X246749308Y-133991308D01*
X246717001Y-134011128D01*
X246670286Y-134030770D01*
X246670286Y-133979950D01*
X246684496Y-133906082D01*
X246726675Y-133838327D01*
X246748624Y-133815661D01*
X246798517Y-133786569D01*
X246861967Y-133773400D01*
X246927744Y-133776968D01*
G37*
X246927744Y-133776968D02*
X246984616Y-133798087D01*
X246985267Y-133798493D01*
X247020440Y-133824380D01*
X247046407Y-133854633D01*
X247064670Y-133894058D01*
X247076732Y-133947462D01*
X247084096Y-134019651D01*
X247088264Y-134115432D01*
X247088629Y-134129078D01*
X247093876Y-134334842D01*
X247049716Y-134357678D01*
X247017763Y-134373110D01*
X246998470Y-134380423D01*
X246997578Y-134380514D01*
X246994239Y-134367022D01*
X246991587Y-134330626D01*
X246989956Y-134277452D01*
X246989600Y-134234393D01*
X246989592Y-134164641D01*
X246986403Y-134120837D01*
X246975288Y-134099944D01*
X246951501Y-134098925D01*
X246910296Y-134114741D01*
X246848086Y-134143815D01*
X246802341Y-134167963D01*
X246778813Y-134188913D01*
X246771896Y-134211747D01*
X246771886Y-134212877D01*
X246783299Y-134252212D01*
X246817092Y-134273462D01*
X246868809Y-134276539D01*
X246906061Y-134276006D01*
X246925703Y-134286735D01*
X246937952Y-134312505D01*
X246945002Y-134345337D01*
X246934842Y-134363966D01*
X246931017Y-134366632D01*
X246895001Y-134377340D01*
X246844566Y-134378856D01*
X246792626Y-134371759D01*
X246755822Y-134358788D01*
X246704938Y-134315585D01*
X246676014Y-134255446D01*
X246670286Y-134208462D01*
X246674657Y-134166082D01*
X246690475Y-134131488D01*
X246721797Y-134100763D01*
X246772678Y-134069990D01*
X246847176Y-134035252D01*
X246851714Y-134033288D01*
X246918821Y-134002287D01*
X246960232Y-133976862D01*
X246977981Y-133954014D01*
X246974107Y-133930745D01*
X246950643Y-133904056D01*
X246943627Y-133897914D01*
X246896630Y-133874100D01*
X246847933Y-133875103D01*
X246805522Y-133898451D01*
X246777384Y-133941675D01*
X246774769Y-133950160D01*
X246749308Y-133991308D01*
X246717001Y-134011128D01*
X246670286Y-134030770D01*
X246670286Y-133979950D01*
X246684496Y-133906082D01*
X246726675Y-133838327D01*
X246748624Y-133815661D01*
X246798517Y-133786569D01*
X246861967Y-133773400D01*
X246927744Y-133776968D01*
G36*
X247417926Y-133775755D02*
G01*
X247483858Y-133800084D01*
X247537273Y-133843117D01*
X247558164Y-133873409D01*
X247580939Y-133928994D01*
X247580466Y-133969186D01*
X247556562Y-133996217D01*
X247547717Y-134000813D01*
X247509530Y-134015144D01*
X247490028Y-134011472D01*
X247483422Y-133987407D01*
X247483086Y-133974114D01*
X247470992Y-133925210D01*
X247439471Y-133890999D01*
X247395659Y-133874476D01*
X247346695Y-133878634D01*
X247306894Y-133900227D01*
X247293450Y-133912544D01*
X247283921Y-133927487D01*
X247277485Y-133950075D01*
X247273317Y-133985328D01*
X247270597Y-134038266D01*
X247268502Y-134113907D01*
X247267960Y-134137857D01*
X247265981Y-134219790D01*
X247263731Y-134277455D01*
X247260357Y-134315608D01*
X247255006Y-134339004D01*
X247246824Y-134352398D01*
X247234959Y-134360545D01*
X247227362Y-134364144D01*
X247195102Y-134376452D01*
X247176111Y-134380514D01*
X247169836Y-134366948D01*
X247166006Y-134325934D01*
X247164600Y-134256999D01*
X247165598Y-134159669D01*
X247165908Y-134144657D01*
X247168101Y-134055859D01*
X247170693Y-133991019D01*
X247174382Y-133945067D01*
X247179864Y-133912935D01*
X247187835Y-133889553D01*
X247198993Y-133869852D01*
X247204830Y-133861410D01*
X247238296Y-133824057D01*
X247275727Y-133795003D01*
X247280309Y-133792467D01*
X247347426Y-133772443D01*
X247417926Y-133775755D01*
G37*
X247417926Y-133775755D02*
X247483858Y-133800084D01*
X247537273Y-133843117D01*
X247558164Y-133873409D01*
X247580939Y-133928994D01*
X247580466Y-133969186D01*
X247556562Y-133996217D01*
X247547717Y-134000813D01*
X247509530Y-134015144D01*
X247490028Y-134011472D01*
X247483422Y-133987407D01*
X247483086Y-133974114D01*
X247470992Y-133925210D01*
X247439471Y-133890999D01*
X247395659Y-133874476D01*
X247346695Y-133878634D01*
X247306894Y-133900227D01*
X247293450Y-133912544D01*
X247283921Y-133927487D01*
X247277485Y-133950075D01*
X247273317Y-133985328D01*
X247270597Y-134038266D01*
X247268502Y-134113907D01*
X247267960Y-134137857D01*
X247265981Y-134219790D01*
X247263731Y-134277455D01*
X247260357Y-134315608D01*
X247255006Y-134339004D01*
X247246824Y-134352398D01*
X247234959Y-134360545D01*
X247227362Y-134364144D01*
X247195102Y-134376452D01*
X247176111Y-134380514D01*
X247169836Y-134366948D01*
X247166006Y-134325934D01*
X247164600Y-134256999D01*
X247165598Y-134159669D01*
X247165908Y-134144657D01*
X247168101Y-134055859D01*
X247170693Y-133991019D01*
X247174382Y-133945067D01*
X247179864Y-133912935D01*
X247187835Y-133889553D01*
X247198993Y-133869852D01*
X247204830Y-133861410D01*
X247238296Y-133824057D01*
X247275727Y-133795003D01*
X247280309Y-133792467D01*
X247347426Y-133772443D01*
X247417926Y-133775755D01*
G36*
X248078117Y-133891358D02*
G01*
X248077933Y-133999837D01*
X248077219Y-134083287D01*
X248075675Y-134145704D01*
X248073001Y-134191085D01*
X248068894Y-134223429D01*
X248063055Y-134246733D01*
X248055182Y-134264995D01*
X248049221Y-134275418D01*
X247999855Y-134331945D01*
X247937264Y-134367377D01*
X247868013Y-134380090D01*
X247798668Y-134368463D01*
X247757375Y-134347568D01*
X247714025Y-134311422D01*
X247684481Y-134267276D01*
X247666655Y-134209462D01*
X247658463Y-134132313D01*
X247657302Y-134075714D01*
X247657458Y-134071647D01*
X247758857Y-134071647D01*
X247759476Y-134136550D01*
X247762314Y-134179514D01*
X247768840Y-134207622D01*
X247780523Y-134227953D01*
X247794483Y-134243288D01*
X247841365Y-134272890D01*
X247891701Y-134275419D01*
X247939276Y-134250705D01*
X247942979Y-134247356D01*
X247958783Y-134229935D01*
X247968693Y-134209209D01*
X247974058Y-134178362D01*
X247976228Y-134130577D01*
X247976571Y-134077748D01*
X247975827Y-134011381D01*
X247972748Y-133967106D01*
X247966061Y-133938009D01*
X247954496Y-133917173D01*
X247945013Y-133906107D01*
X247900960Y-133878198D01*
X247850224Y-133874843D01*
X247801796Y-133896159D01*
X247792450Y-133904073D01*
X247776540Y-133921647D01*
X247766610Y-133942587D01*
X247761278Y-133973782D01*
X247759163Y-134022122D01*
X247758857Y-134071647D01*
X247657458Y-134071647D01*
X247660810Y-133984568D01*
X247672726Y-133916086D01*
X247695135Y-133864600D01*
X247730124Y-133824443D01*
X247757375Y-133803861D01*
X247806907Y-133781625D01*
X247864316Y-133771304D01*
X247917682Y-133774067D01*
X247947543Y-133785212D01*
X247959261Y-133788383D01*
X247967037Y-133776557D01*
X247972465Y-133744866D01*
X247976571Y-133696593D01*
X247981067Y-133642829D01*
X247987313Y-133610482D01*
X247998676Y-133591985D01*
X248018528Y-133579770D01*
X248031000Y-133574362D01*
X248078171Y-133554601D01*
X248078117Y-133891358D01*
G37*
X248078117Y-133891358D02*
X248077933Y-133999837D01*
X248077219Y-134083287D01*
X248075675Y-134145704D01*
X248073001Y-134191085D01*
X248068894Y-134223429D01*
X248063055Y-134246733D01*
X248055182Y-134264995D01*
X248049221Y-134275418D01*
X247999855Y-134331945D01*
X247937264Y-134367377D01*
X247868013Y-134380090D01*
X247798668Y-134368463D01*
X247757375Y-134347568D01*
X247714025Y-134311422D01*
X247684481Y-134267276D01*
X247666655Y-134209462D01*
X247658463Y-134132313D01*
X247657302Y-134075714D01*
X247657458Y-134071647D01*
X247758857Y-134071647D01*
X247759476Y-134136550D01*
X247762314Y-134179514D01*
X247768840Y-134207622D01*
X247780523Y-134227953D01*
X247794483Y-134243288D01*
X247841365Y-134272890D01*
X247891701Y-134275419D01*
X247939276Y-134250705D01*
X247942979Y-134247356D01*
X247958783Y-134229935D01*
X247968693Y-134209209D01*
X247974058Y-134178362D01*
X247976228Y-134130577D01*
X247976571Y-134077748D01*
X247975827Y-134011381D01*
X247972748Y-133967106D01*
X247966061Y-133938009D01*
X247954496Y-133917173D01*
X247945013Y-133906107D01*
X247900960Y-133878198D01*
X247850224Y-133874843D01*
X247801796Y-133896159D01*
X247792450Y-133904073D01*
X247776540Y-133921647D01*
X247766610Y-133942587D01*
X247761278Y-133973782D01*
X247759163Y-134022122D01*
X247758857Y-134071647D01*
X247657458Y-134071647D01*
X247660810Y-133984568D01*
X247672726Y-133916086D01*
X247695135Y-133864600D01*
X247730124Y-133824443D01*
X247757375Y-133803861D01*
X247806907Y-133781625D01*
X247864316Y-133771304D01*
X247917682Y-133774067D01*
X247947543Y-133785212D01*
X247959261Y-133788383D01*
X247967037Y-133776557D01*
X247972465Y-133744866D01*
X247976571Y-133696593D01*
X247981067Y-133642829D01*
X247987313Y-133610482D01*
X247998676Y-133591985D01*
X248018528Y-133579770D01*
X248031000Y-133574362D01*
X248078171Y-133554601D01*
X248078117Y-133891358D01*
G36*
X248667833Y-133784663D02*
G01*
X248670048Y-133822850D01*
X248671784Y-133880886D01*
X248672899Y-133954180D01*
X248673257Y-134031055D01*
X248673257Y-134291196D01*
X248627326Y-134337127D01*
X248595675Y-134365429D01*
X248567890Y-134376893D01*
X248529915Y-134376168D01*
X248514840Y-134374321D01*
X248467726Y-134368948D01*
X248428756Y-134365869D01*
X248419257Y-134365585D01*
X248387233Y-134367445D01*
X248341432Y-134372114D01*
X248323674Y-134374321D01*
X248280057Y-134377735D01*
X248250745Y-134370320D01*
X248221680Y-134347427D01*
X248211188Y-134337127D01*
X248165257Y-134291196D01*
X248165257Y-133804602D01*
X248202226Y-133787758D01*
X248234059Y-133775282D01*
X248252683Y-133770914D01*
X248257458Y-133784718D01*
X248261921Y-133823286D01*
X248265775Y-133882356D01*
X248268722Y-133957663D01*
X248270143Y-134021286D01*
X248274114Y-134271657D01*
X248308759Y-134276556D01*
X248340268Y-134273131D01*
X248355708Y-134262041D01*
X248360023Y-134241308D01*
X248363708Y-134197145D01*
X248366469Y-134135146D01*
X248368012Y-134060909D01*
X248368235Y-134022706D01*
X248368457Y-133802783D01*
X248414166Y-133786849D01*
X248446518Y-133776015D01*
X248464115Y-133770962D01*
X248464623Y-133770914D01*
X248466388Y-133784648D01*
X248468329Y-133822730D01*
X248470282Y-133880482D01*
X248472084Y-133953227D01*
X248473343Y-134021286D01*
X248477314Y-134271657D01*
X248564400Y-134271657D01*
X248568396Y-134043240D01*
X248572392Y-133814822D01*
X248614847Y-133792868D01*
X248646192Y-133777793D01*
X248664744Y-133770951D01*
X248665279Y-133770914D01*
X248667833Y-133784663D01*
G37*
X248667833Y-133784663D02*
X248670048Y-133822850D01*
X248671784Y-133880886D01*
X248672899Y-133954180D01*
X248673257Y-134031055D01*
X248673257Y-134291196D01*
X248627326Y-134337127D01*
X248595675Y-134365429D01*
X248567890Y-134376893D01*
X248529915Y-134376168D01*
X248514840Y-134374321D01*
X248467726Y-134368948D01*
X248428756Y-134365869D01*
X248419257Y-134365585D01*
X248387233Y-134367445D01*
X248341432Y-134372114D01*
X248323674Y-134374321D01*
X248280057Y-134377735D01*
X248250745Y-134370320D01*
X248221680Y-134347427D01*
X248211188Y-134337127D01*
X248165257Y-134291196D01*
X248165257Y-133804602D01*
X248202226Y-133787758D01*
X248234059Y-133775282D01*
X248252683Y-133770914D01*
X248257458Y-133784718D01*
X248261921Y-133823286D01*
X248265775Y-133882356D01*
X248268722Y-133957663D01*
X248270143Y-134021286D01*
X248274114Y-134271657D01*
X248308759Y-134276556D01*
X248340268Y-134273131D01*
X248355708Y-134262041D01*
X248360023Y-134241308D01*
X248363708Y-134197145D01*
X248366469Y-134135146D01*
X248368012Y-134060909D01*
X248368235Y-134022706D01*
X248368457Y-133802783D01*
X248414166Y-133786849D01*
X248446518Y-133776015D01*
X248464115Y-133770962D01*
X248464623Y-133770914D01*
X248466388Y-133784648D01*
X248468329Y-133822730D01*
X248470282Y-133880482D01*
X248472084Y-133953227D01*
X248473343Y-134021286D01*
X248477314Y-134271657D01*
X248564400Y-134271657D01*
X248568396Y-134043240D01*
X248572392Y-133814822D01*
X248614847Y-133792868D01*
X248646192Y-133777793D01*
X248664744Y-133770951D01*
X248665279Y-133770914D01*
X248667833Y-133784663D01*
G36*
X249032876Y-133782335D02*
G01*
X249074667Y-133801344D01*
X249107469Y-133824378D01*
X249131503Y-133850133D01*
X249148097Y-133883358D01*
X249158577Y-133928800D01*
X249164271Y-133991207D01*
X249166507Y-134075327D01*
X249166743Y-134130721D01*
X249166743Y-134346826D01*
X249129774Y-134363670D01*
X249100656Y-134375981D01*
X249086231Y-134380514D01*
X249083472Y-134367025D01*
X249081282Y-134330653D01*
X249079942Y-134277542D01*
X249079657Y-134235372D01*
X249078434Y-134174447D01*
X249075136Y-134126115D01*
X249070321Y-134096518D01*
X249066496Y-134090229D01*
X249040783Y-134096652D01*
X249000418Y-134113125D01*
X248953679Y-134135458D01*
X248908845Y-134159457D01*
X248874193Y-134180930D01*
X248858002Y-134195685D01*
X248857938Y-134195845D01*
X248859330Y-134223152D01*
X248871818Y-134249219D01*
X248893743Y-134270392D01*
X248925743Y-134277474D01*
X248953092Y-134276649D01*
X248991826Y-134276042D01*
X249012158Y-134285116D01*
X249024369Y-134309092D01*
X249025909Y-134313613D01*
X249031203Y-134347806D01*
X249017047Y-134368568D01*
X248980148Y-134378462D01*
X248940289Y-134380292D01*
X248868562Y-134366727D01*
X248831432Y-134347355D01*
X248785576Y-134301845D01*
X248761256Y-134245983D01*
X248759073Y-134186957D01*
X248779629Y-134131953D01*
X248810549Y-134097486D01*
X248841420Y-134078189D01*
X248889942Y-134053759D01*
X248946485Y-134028985D01*
X248955910Y-134025199D01*
X249018019Y-133997791D01*
X249053822Y-133973634D01*
X249065337Y-133949619D01*
X249054580Y-133922635D01*
X249036114Y-133901543D01*
X248992469Y-133875572D01*
X248944446Y-133873624D01*
X248900406Y-133893637D01*
X248868709Y-133933551D01*
X248864549Y-133943848D01*
X248840327Y-133981724D01*
X248804965Y-134009842D01*
X248760343Y-134032917D01*
X248760343Y-133967485D01*
X248762969Y-133927506D01*
X248774230Y-133895997D01*
X248799199Y-133862378D01*
X248823169Y-133836484D01*
X248860441Y-133799817D01*
X248889401Y-133780121D01*
X248920505Y-133772220D01*
X248955713Y-133770914D01*
X249032876Y-133782335D01*
G37*
X249032876Y-133782335D02*
X249074667Y-133801344D01*
X249107469Y-133824378D01*
X249131503Y-133850133D01*
X249148097Y-133883358D01*
X249158577Y-133928800D01*
X249164271Y-133991207D01*
X249166507Y-134075327D01*
X249166743Y-134130721D01*
X249166743Y-134346826D01*
X249129774Y-134363670D01*
X249100656Y-134375981D01*
X249086231Y-134380514D01*
X249083472Y-134367025D01*
X249081282Y-134330653D01*
X249079942Y-134277542D01*
X249079657Y-134235372D01*
X249078434Y-134174447D01*
X249075136Y-134126115D01*
X249070321Y-134096518D01*
X249066496Y-134090229D01*
X249040783Y-134096652D01*
X249000418Y-134113125D01*
X248953679Y-134135458D01*
X248908845Y-134159457D01*
X248874193Y-134180930D01*
X248858002Y-134195685D01*
X248857938Y-134195845D01*
X248859330Y-134223152D01*
X248871818Y-134249219D01*
X248893743Y-134270392D01*
X248925743Y-134277474D01*
X248953092Y-134276649D01*
X248991826Y-134276042D01*
X249012158Y-134285116D01*
X249024369Y-134309092D01*
X249025909Y-134313613D01*
X249031203Y-134347806D01*
X249017047Y-134368568D01*
X248980148Y-134378462D01*
X248940289Y-134380292D01*
X248868562Y-134366727D01*
X248831432Y-134347355D01*
X248785576Y-134301845D01*
X248761256Y-134245983D01*
X248759073Y-134186957D01*
X248779629Y-134131953D01*
X248810549Y-134097486D01*
X248841420Y-134078189D01*
X248889942Y-134053759D01*
X248946485Y-134028985D01*
X248955910Y-134025199D01*
X249018019Y-133997791D01*
X249053822Y-133973634D01*
X249065337Y-133949619D01*
X249054580Y-133922635D01*
X249036114Y-133901543D01*
X248992469Y-133875572D01*
X248944446Y-133873624D01*
X248900406Y-133893637D01*
X248868709Y-133933551D01*
X248864549Y-133943848D01*
X248840327Y-133981724D01*
X248804965Y-134009842D01*
X248760343Y-134032917D01*
X248760343Y-133967485D01*
X248762969Y-133927506D01*
X248774230Y-133895997D01*
X248799199Y-133862378D01*
X248823169Y-133836484D01*
X248860441Y-133799817D01*
X248889401Y-133780121D01*
X248920505Y-133772220D01*
X248955713Y-133770914D01*
X249032876Y-133782335D01*
G36*
X249540600Y-133784752D02*
G01*
X249557948Y-133792334D01*
X249599356Y-133825128D01*
X249634765Y-133872547D01*
X249656664Y-133923151D01*
X249660229Y-133948098D01*
X249648279Y-133982927D01*
X249622067Y-134001357D01*
X249593964Y-134012516D01*
X249581095Y-134014572D01*
X249574829Y-133999649D01*
X249562456Y-133967175D01*
X249557028Y-133952502D01*
X249526590Y-133901744D01*
X249482520Y-133876427D01*
X249426010Y-133877206D01*
X249421825Y-133878203D01*
X249391655Y-133892507D01*
X249369476Y-133920393D01*
X249354327Y-133965287D01*
X249345250Y-134030615D01*
X249341286Y-134119804D01*
X249340914Y-134167261D01*
X249340730Y-134242071D01*
X249339522Y-134293069D01*
X249336309Y-134325471D01*
X249330109Y-134344495D01*
X249319940Y-134355356D01*
X249304819Y-134363272D01*
X249303946Y-134363670D01*
X249274828Y-134375981D01*
X249260403Y-134380514D01*
X249258186Y-134366809D01*
X249256289Y-134328925D01*
X249254847Y-134271715D01*
X249253998Y-134200027D01*
X249253829Y-134147565D01*
X249254692Y-134046047D01*
X249258070Y-133969032D01*
X249265142Y-133912023D01*
X249277088Y-133870526D01*
X249295090Y-133840043D01*
X249320327Y-133816080D01*
X249345247Y-133799355D01*
X249405171Y-133777097D01*
X249474911Y-133772076D01*
X249540600Y-133784752D01*
G37*
X249540600Y-133784752D02*
X249557948Y-133792334D01*
X249599356Y-133825128D01*
X249634765Y-133872547D01*
X249656664Y-133923151D01*
X249660229Y-133948098D01*
X249648279Y-133982927D01*
X249622067Y-134001357D01*
X249593964Y-134012516D01*
X249581095Y-134014572D01*
X249574829Y-133999649D01*
X249562456Y-133967175D01*
X249557028Y-133952502D01*
X249526590Y-133901744D01*
X249482520Y-133876427D01*
X249426010Y-133877206D01*
X249421825Y-133878203D01*
X249391655Y-133892507D01*
X249369476Y-133920393D01*
X249354327Y-133965287D01*
X249345250Y-134030615D01*
X249341286Y-134119804D01*
X249340914Y-134167261D01*
X249340730Y-134242071D01*
X249339522Y-134293069D01*
X249336309Y-134325471D01*
X249330109Y-134344495D01*
X249319940Y-134355356D01*
X249304819Y-134363272D01*
X249303946Y-134363670D01*
X249274828Y-134375981D01*
X249260403Y-134380514D01*
X249258186Y-134366809D01*
X249256289Y-134328925D01*
X249254847Y-134271715D01*
X249253998Y-134200027D01*
X249253829Y-134147565D01*
X249254692Y-134046047D01*
X249258070Y-133969032D01*
X249265142Y-133912023D01*
X249277088Y-133870526D01*
X249295090Y-133840043D01*
X249320327Y-133816080D01*
X249345247Y-133799355D01*
X249405171Y-133777097D01*
X249474911Y-133772076D01*
X249540600Y-133784752D01*
G36*
X250041595Y-133792966D02*
G01*
X250099021Y-133830497D01*
X250126719Y-133864096D01*
X250148662Y-133925064D01*
X250150405Y-133973308D01*
X250146457Y-134037816D01*
X249997686Y-134102934D01*
X249925349Y-134136202D01*
X249878084Y-134162964D01*
X249853507Y-134186144D01*
X249849237Y-134208667D01*
X249862889Y-134233455D01*
X249877943Y-134249886D01*
X249921746Y-134276235D01*
X249969389Y-134278081D01*
X250013145Y-134257546D01*
X250045289Y-134216752D01*
X250051038Y-134202347D01*
X250078576Y-134157356D01*
X250110258Y-134138182D01*
X250153714Y-134121779D01*
X250153714Y-134183966D01*
X250149872Y-134226283D01*
X250134823Y-134261969D01*
X250103280Y-134302943D01*
X250098592Y-134308267D01*
X250063506Y-134344720D01*
X250033347Y-134364283D01*
X249995615Y-134373283D01*
X249964335Y-134376230D01*
X249908385Y-134376965D01*
X249868555Y-134367660D01*
X249843708Y-134353846D01*
X249804656Y-134323467D01*
X249777625Y-134290613D01*
X249760517Y-134249294D01*
X249751238Y-134193521D01*
X249747693Y-134117305D01*
X249747410Y-134078622D01*
X249748372Y-134032247D01*
X249836007Y-134032247D01*
X249837023Y-134057126D01*
X249839556Y-134061200D01*
X249856274Y-134055665D01*
X249892249Y-134041017D01*
X249940331Y-134020190D01*
X249950386Y-134015714D01*
X250011152Y-133984814D01*
X250044632Y-133957657D01*
X250051990Y-133932220D01*
X250034391Y-133906481D01*
X250019856Y-133895109D01*
X249967410Y-133872364D01*
X249918322Y-133876122D01*
X249877227Y-133903884D01*
X249848758Y-133953152D01*
X249839631Y-133992257D01*
X249836007Y-134032247D01*
X249748372Y-134032247D01*
X249749285Y-133988249D01*
X249756196Y-133921384D01*
X249769884Y-133872695D01*
X249792096Y-133836849D01*
X249824574Y-133808513D01*
X249838733Y-133799355D01*
X249903053Y-133775507D01*
X249973473Y-133774006D01*
X250041595Y-133792966D01*
G37*
X250041595Y-133792966D02*
X250099021Y-133830497D01*
X250126719Y-133864096D01*
X250148662Y-133925064D01*
X250150405Y-133973308D01*
X250146457Y-134037816D01*
X249997686Y-134102934D01*
X249925349Y-134136202D01*
X249878084Y-134162964D01*
X249853507Y-134186144D01*
X249849237Y-134208667D01*
X249862889Y-134233455D01*
X249877943Y-134249886D01*
X249921746Y-134276235D01*
X249969389Y-134278081D01*
X250013145Y-134257546D01*
X250045289Y-134216752D01*
X250051038Y-134202347D01*
X250078576Y-134157356D01*
X250110258Y-134138182D01*
X250153714Y-134121779D01*
X250153714Y-134183966D01*
X250149872Y-134226283D01*
X250134823Y-134261969D01*
X250103280Y-134302943D01*
X250098592Y-134308267D01*
X250063506Y-134344720D01*
X250033347Y-134364283D01*
X249995615Y-134373283D01*
X249964335Y-134376230D01*
X249908385Y-134376965D01*
X249868555Y-134367660D01*
X249843708Y-134353846D01*
X249804656Y-134323467D01*
X249777625Y-134290613D01*
X249760517Y-134249294D01*
X249751238Y-134193521D01*
X249747693Y-134117305D01*
X249747410Y-134078622D01*
X249748372Y-134032247D01*
X249836007Y-134032247D01*
X249837023Y-134057126D01*
X249839556Y-134061200D01*
X249856274Y-134055665D01*
X249892249Y-134041017D01*
X249940331Y-134020190D01*
X249950386Y-134015714D01*
X250011152Y-133984814D01*
X250044632Y-133957657D01*
X250051990Y-133932220D01*
X250034391Y-133906481D01*
X250019856Y-133895109D01*
X249967410Y-133872364D01*
X249918322Y-133876122D01*
X249877227Y-133903884D01*
X249848758Y-133953152D01*
X249839631Y-133992257D01*
X249836007Y-134032247D01*
X249748372Y-134032247D01*
X249749285Y-133988249D01*
X249756196Y-133921384D01*
X249769884Y-133872695D01*
X249792096Y-133836849D01*
X249824574Y-133808513D01*
X249838733Y-133799355D01*
X249903053Y-133775507D01*
X249973473Y-133774006D01*
X250041595Y-133792966D01*
G36*
X246991910Y-129068348D02*
G01*
X247070454Y-129068778D01*
X247127298Y-129069942D01*
X247166105Y-129072207D01*
X247190538Y-129075940D01*
X247204262Y-129081506D01*
X247210940Y-129089273D01*
X247214236Y-129099605D01*
X247214556Y-129100943D01*
X247219562Y-129125079D01*
X247228829Y-129172701D01*
X247241392Y-129238741D01*
X247256287Y-129318128D01*
X247272551Y-129405796D01*
X247273119Y-129408875D01*
X247289410Y-129494789D01*
X247304652Y-129570696D01*
X247317861Y-129632045D01*
X247328054Y-129674282D01*
X247334248Y-129692855D01*
X247334543Y-129693184D01*
X247352788Y-129702253D01*
X247390405Y-129717367D01*
X247439271Y-129735262D01*
X247439543Y-129735358D01*
X247501093Y-129758493D01*
X247573657Y-129787965D01*
X247642057Y-129817597D01*
X247645294Y-129819062D01*
X247756702Y-129869626D01*
X248003399Y-129701160D01*
X248079077Y-129649803D01*
X248147631Y-129603889D01*
X248205088Y-129566030D01*
X248247476Y-129538837D01*
X248270825Y-129524921D01*
X248273042Y-129523889D01*
X248290010Y-129528484D01*
X248321701Y-129550655D01*
X248369352Y-129591447D01*
X248434198Y-129651905D01*
X248500397Y-129716227D01*
X248564214Y-129779612D01*
X248621329Y-129837451D01*
X248668305Y-129886175D01*
X248701703Y-129922210D01*
X248718085Y-129941984D01*
X248718694Y-129943002D01*
X248720505Y-129956572D01*
X248713683Y-129978733D01*
X248696540Y-130012478D01*
X248667393Y-130060800D01*
X248624555Y-130126692D01*
X248567448Y-130211517D01*
X248516766Y-130286177D01*
X248471461Y-130353140D01*
X248434150Y-130408516D01*
X248407452Y-130448420D01*
X248393985Y-130468962D01*
X248393137Y-130470356D01*
X248394781Y-130490038D01*
X248407245Y-130528293D01*
X248428048Y-130577889D01*
X248435462Y-130593728D01*
X248467814Y-130664290D01*
X248502328Y-130744353D01*
X248530365Y-130813629D01*
X248550568Y-130865045D01*
X248566615Y-130904119D01*
X248575888Y-130924541D01*
X248577041Y-130926114D01*
X248594096Y-130928721D01*
X248634298Y-130935863D01*
X248692302Y-130946523D01*
X248762763Y-130959685D01*
X248840335Y-130974333D01*
X248919672Y-130989449D01*
X248995431Y-131004018D01*
X249062264Y-131017022D01*
X249114828Y-131027445D01*
X249147776Y-131034270D01*
X249155857Y-131036199D01*
X249164205Y-131040962D01*
X249170506Y-131051718D01*
X249175045Y-131072098D01*
X249178104Y-131105734D01*
X249179967Y-131156255D01*
X249180918Y-131227292D01*
X249181240Y-131322476D01*
X249181257Y-131361492D01*
X249181257Y-131678799D01*
X249105057Y-131693839D01*
X249062663Y-131701995D01*
X248999400Y-131713899D01*
X248922962Y-131728116D01*
X248841043Y-131743210D01*
X248818400Y-131747355D01*
X248742806Y-131762053D01*
X248676953Y-131776505D01*
X248626366Y-131789375D01*
X248596574Y-131799322D01*
X248591612Y-131802287D01*
X248579426Y-131823283D01*
X248561953Y-131863967D01*
X248542577Y-131916322D01*
X248538734Y-131927600D01*
X248513339Y-131997523D01*
X248481817Y-132076418D01*
X248450969Y-132147266D01*
X248450817Y-132147595D01*
X248399447Y-132258733D01*
X248568399Y-132507253D01*
X248737352Y-132755772D01*
X248520429Y-132973058D01*
X248454819Y-133037726D01*
X248394979Y-133094733D01*
X248344267Y-133141033D01*
X248306046Y-133173584D01*
X248283675Y-133189343D01*
X248280466Y-133190343D01*
X248261626Y-133182469D01*
X248223180Y-133160578D01*
X248169330Y-133127267D01*
X248104276Y-133085131D01*
X248033940Y-133037943D01*
X247962555Y-132989810D01*
X247898908Y-132947928D01*
X247847041Y-132914871D01*
X247810995Y-132893218D01*
X247794867Y-132885543D01*
X247775189Y-132892037D01*
X247737875Y-132909150D01*
X247690621Y-132933326D01*
X247685612Y-132936013D01*
X247621977Y-132967927D01*
X247578341Y-132983579D01*
X247551202Y-132983745D01*
X247537057Y-132969204D01*
X247536975Y-132969000D01*
X247529905Y-132951779D01*
X247513042Y-132910899D01*
X247487695Y-132849525D01*
X247455171Y-132770819D01*
X247416778Y-132677947D01*
X247373822Y-132574072D01*
X247332222Y-132473502D01*
X247286504Y-132362516D01*
X247244526Y-132259703D01*
X247207548Y-132168215D01*
X247176827Y-132091201D01*
X247153622Y-132031815D01*
X247139190Y-131993209D01*
X247134743Y-131978800D01*
X247145896Y-131962272D01*
X247175069Y-131935930D01*
X247213971Y-131906887D01*
X247324757Y-131815039D01*
X247411351Y-131709759D01*
X247472716Y-131593266D01*
X247507815Y-131467776D01*
X247515608Y-131335507D01*
X247509943Y-131274457D01*
X247479078Y-131147795D01*
X247425920Y-131035941D01*
X247353767Y-130940001D01*
X247265917Y-130861076D01*
X247165665Y-130800270D01*
X247056310Y-130758687D01*
X246941147Y-130737428D01*
X246823475Y-130737599D01*
X246706590Y-130760301D01*
X246593789Y-130806638D01*
X246488369Y-130877713D01*
X246444368Y-130917911D01*
X246359979Y-131021129D01*
X246301222Y-131133925D01*
X246267704Y-131253010D01*
X246259035Y-131375095D01*
X246274823Y-131496893D01*
X246314678Y-131615116D01*
X246378207Y-131726475D01*
X246465021Y-131827684D01*
X246562029Y-131906887D01*
X246602437Y-131937162D01*
X246630982Y-131963219D01*
X246641257Y-131978825D01*
X246635877Y-131995843D01*
X246620575Y-132036500D01*
X246596612Y-132097642D01*
X246565244Y-132176119D01*
X246527732Y-132268780D01*
X246485333Y-132372472D01*
X246443663Y-132473526D01*
X246397690Y-132584607D01*
X246355107Y-132687541D01*
X246317221Y-132779165D01*
X246285340Y-132856316D01*
X246260771Y-132915831D01*
X246244820Y-132954544D01*
X246238910Y-132969000D01*
X246224948Y-132983685D01*
X246197940Y-132983642D01*
X246154413Y-132968099D01*
X246090890Y-132936284D01*
X246090388Y-132936013D01*
X246042560Y-132911323D01*
X246003897Y-132893338D01*
X245982095Y-132885614D01*
X245981133Y-132885543D01*
X245964721Y-132893378D01*
X245928487Y-132915165D01*
X245876474Y-132948328D01*
X245812725Y-132990291D01*
X245742060Y-133037943D01*
X245670116Y-133086191D01*
X245605274Y-133128151D01*
X245551735Y-133161227D01*
X245513697Y-133182821D01*
X245495533Y-133190343D01*
X245478808Y-133180457D01*
X245445180Y-133152826D01*
X245398010Y-133110495D01*
X245340658Y-133056505D01*
X245276484Y-132993899D01*
X245255497Y-132972983D01*
X245038499Y-132755623D01*
X245203668Y-132513220D01*
X245253864Y-132438781D01*
X245297919Y-132371972D01*
X245333362Y-132316665D01*
X245357719Y-132276729D01*
X245368522Y-132256036D01*
X245368838Y-132254563D01*
X245363143Y-132235058D01*
X245347826Y-132195822D01*
X245325537Y-132143430D01*
X245309893Y-132108355D01*
X245280641Y-132041201D01*
X245253094Y-131973358D01*
X245231737Y-131916034D01*
X245225935Y-131898572D01*
X245209452Y-131851938D01*
X245193340Y-131815905D01*
X245184490Y-131802287D01*
X245164960Y-131793952D01*
X245122334Y-131782137D01*
X245062145Y-131768181D01*
X244989922Y-131753422D01*
X244957600Y-131747355D01*
X244875522Y-131732273D01*
X244796795Y-131717669D01*
X244729109Y-131704980D01*
X244680160Y-131695642D01*
X244670943Y-131693839D01*
X244594743Y-131678799D01*
X244594743Y-131361492D01*
X244594914Y-131257154D01*
X244595616Y-131178213D01*
X244597134Y-131121038D01*
X244599749Y-131081999D01*
X244603746Y-131057465D01*
X244609409Y-131043805D01*
X244617020Y-131037389D01*
X244620143Y-131036199D01*
X244638978Y-131031980D01*
X244680588Y-131023562D01*
X244739630Y-131011961D01*
X244810757Y-130998195D01*
X244888625Y-130983280D01*
X244967887Y-130968232D01*
X245043198Y-130954069D01*
X245109213Y-130941806D01*
X245160587Y-130932461D01*
X245191975Y-130927050D01*
X245198959Y-130926114D01*
X245205285Y-130913596D01*
X245219290Y-130880246D01*
X245238355Y-130832377D01*
X245245634Y-130813629D01*
X245274996Y-130741195D01*
X245309571Y-130661170D01*
X245340537Y-130593728D01*
X245363323Y-130542159D01*
X245378482Y-130499785D01*
X245383542Y-130473834D01*
X245382736Y-130470356D01*
X245372041Y-130453936D01*
X245347620Y-130417417D01*
X245312095Y-130364687D01*
X245268087Y-130299635D01*
X245218217Y-130226151D01*
X245208356Y-130211645D01*
X245150492Y-130125704D01*
X245107956Y-130060261D01*
X245079054Y-130012304D01*
X245062090Y-129978820D01*
X245055367Y-129956795D01*
X245057190Y-129943217D01*
X245057236Y-129943131D01*
X245071586Y-129925297D01*
X245103323Y-129890817D01*
X245149010Y-129843268D01*
X245205204Y-129786222D01*
X245268468Y-129723255D01*
X245275602Y-129716227D01*
X245355330Y-129639020D01*
X245416857Y-129582330D01*
X245461421Y-129545110D01*
X245490257Y-129526315D01*
X245502958Y-129523889D01*
X245521494Y-129534471D01*
X245559961Y-129558916D01*
X245614386Y-129594612D01*
X245680798Y-129638947D01*
X245755225Y-129689311D01*
X245772601Y-129701160D01*
X246019297Y-129869626D01*
X246130706Y-129819062D01*
X246198457Y-129789595D01*
X246271183Y-129759959D01*
X246333703Y-129736330D01*
X246336457Y-129735358D01*
X246385360Y-129717457D01*
X246423057Y-129702320D01*
X246441425Y-129693210D01*
X246441456Y-129693184D01*
X246447285Y-129676717D01*
X246457192Y-129636219D01*
X246470195Y-129576242D01*
X246485309Y-129501340D01*
X246501552Y-129416064D01*
X246502881Y-129408875D01*
X246519175Y-129321014D01*
X246534133Y-129241260D01*
X246546791Y-129174681D01*
X246556186Y-129126347D01*
X246561354Y-129101325D01*
X246561444Y-129100943D01*
X246564589Y-129090299D01*
X246570704Y-129082262D01*
X246583453Y-129076467D01*
X246606500Y-129072547D01*
X246643509Y-129070135D01*
X246698144Y-129068865D01*
X246774067Y-129068371D01*
X246874944Y-129068286D01*
X246888000Y-129068286D01*
X246991910Y-129068348D01*
G37*
X246991910Y-129068348D02*
X247070454Y-129068778D01*
X247127298Y-129069942D01*
X247166105Y-129072207D01*
X247190538Y-129075940D01*
X247204262Y-129081506D01*
X247210940Y-129089273D01*
X247214236Y-129099605D01*
X247214556Y-129100943D01*
X247219562Y-129125079D01*
X247228829Y-129172701D01*
X247241392Y-129238741D01*
X247256287Y-129318128D01*
X247272551Y-129405796D01*
X247273119Y-129408875D01*
X247289410Y-129494789D01*
X247304652Y-129570696D01*
X247317861Y-129632045D01*
X247328054Y-129674282D01*
X247334248Y-129692855D01*
X247334543Y-129693184D01*
X247352788Y-129702253D01*
X247390405Y-129717367D01*
X247439271Y-129735262D01*
X247439543Y-129735358D01*
X247501093Y-129758493D01*
X247573657Y-129787965D01*
X247642057Y-129817597D01*
X247645294Y-129819062D01*
X247756702Y-129869626D01*
X248003399Y-129701160D01*
X248079077Y-129649803D01*
X248147631Y-129603889D01*
X248205088Y-129566030D01*
X248247476Y-129538837D01*
X248270825Y-129524921D01*
X248273042Y-129523889D01*
X248290010Y-129528484D01*
X248321701Y-129550655D01*
X248369352Y-129591447D01*
X248434198Y-129651905D01*
X248500397Y-129716227D01*
X248564214Y-129779612D01*
X248621329Y-129837451D01*
X248668305Y-129886175D01*
X248701703Y-129922210D01*
X248718085Y-129941984D01*
X248718694Y-129943002D01*
X248720505Y-129956572D01*
X248713683Y-129978733D01*
X248696540Y-130012478D01*
X248667393Y-130060800D01*
X248624555Y-130126692D01*
X248567448Y-130211517D01*
X248516766Y-130286177D01*
X248471461Y-130353140D01*
X248434150Y-130408516D01*
X248407452Y-130448420D01*
X248393985Y-130468962D01*
X248393137Y-130470356D01*
X248394781Y-130490038D01*
X248407245Y-130528293D01*
X248428048Y-130577889D01*
X248435462Y-130593728D01*
X248467814Y-130664290D01*
X248502328Y-130744353D01*
X248530365Y-130813629D01*
X248550568Y-130865045D01*
X248566615Y-130904119D01*
X248575888Y-130924541D01*
X248577041Y-130926114D01*
X248594096Y-130928721D01*
X248634298Y-130935863D01*
X248692302Y-130946523D01*
X248762763Y-130959685D01*
X248840335Y-130974333D01*
X248919672Y-130989449D01*
X248995431Y-131004018D01*
X249062264Y-131017022D01*
X249114828Y-131027445D01*
X249147776Y-131034270D01*
X249155857Y-131036199D01*
X249164205Y-131040962D01*
X249170506Y-131051718D01*
X249175045Y-131072098D01*
X249178104Y-131105734D01*
X249179967Y-131156255D01*
X249180918Y-131227292D01*
X249181240Y-131322476D01*
X249181257Y-131361492D01*
X249181257Y-131678799D01*
X249105057Y-131693839D01*
X249062663Y-131701995D01*
X248999400Y-131713899D01*
X248922962Y-131728116D01*
X248841043Y-131743210D01*
X248818400Y-131747355D01*
X248742806Y-131762053D01*
X248676953Y-131776505D01*
X248626366Y-131789375D01*
X248596574Y-131799322D01*
X248591612Y-131802287D01*
X248579426Y-131823283D01*
X248561953Y-131863967D01*
X248542577Y-131916322D01*
X248538734Y-131927600D01*
X248513339Y-131997523D01*
X248481817Y-132076418D01*
X248450969Y-132147266D01*
X248450817Y-132147595D01*
X248399447Y-132258733D01*
X248568399Y-132507253D01*
X248737352Y-132755772D01*
X248520429Y-132973058D01*
X248454819Y-133037726D01*
X248394979Y-133094733D01*
X248344267Y-133141033D01*
X248306046Y-133173584D01*
X248283675Y-133189343D01*
X248280466Y-133190343D01*
X248261626Y-133182469D01*
X248223180Y-133160578D01*
X248169330Y-133127267D01*
X248104276Y-133085131D01*
X248033940Y-133037943D01*
X247962555Y-132989810D01*
X247898908Y-132947928D01*
X247847041Y-132914871D01*
X247810995Y-132893218D01*
X247794867Y-132885543D01*
X247775189Y-132892037D01*
X247737875Y-132909150D01*
X247690621Y-132933326D01*
X247685612Y-132936013D01*
X247621977Y-132967927D01*
X247578341Y-132983579D01*
X247551202Y-132983745D01*
X247537057Y-132969204D01*
X247536975Y-132969000D01*
X247529905Y-132951779D01*
X247513042Y-132910899D01*
X247487695Y-132849525D01*
X247455171Y-132770819D01*
X247416778Y-132677947D01*
X247373822Y-132574072D01*
X247332222Y-132473502D01*
X247286504Y-132362516D01*
X247244526Y-132259703D01*
X247207548Y-132168215D01*
X247176827Y-132091201D01*
X247153622Y-132031815D01*
X247139190Y-131993209D01*
X247134743Y-131978800D01*
X247145896Y-131962272D01*
X247175069Y-131935930D01*
X247213971Y-131906887D01*
X247324757Y-131815039D01*
X247411351Y-131709759D01*
X247472716Y-131593266D01*
X247507815Y-131467776D01*
X247515608Y-131335507D01*
X247509943Y-131274457D01*
X247479078Y-131147795D01*
X247425920Y-131035941D01*
X247353767Y-130940001D01*
X247265917Y-130861076D01*
X247165665Y-130800270D01*
X247056310Y-130758687D01*
X246941147Y-130737428D01*
X246823475Y-130737599D01*
X246706590Y-130760301D01*
X246593789Y-130806638D01*
X246488369Y-130877713D01*
X246444368Y-130917911D01*
X246359979Y-131021129D01*
X246301222Y-131133925D01*
X246267704Y-131253010D01*
X246259035Y-131375095D01*
X246274823Y-131496893D01*
X246314678Y-131615116D01*
X246378207Y-131726475D01*
X246465021Y-131827684D01*
X246562029Y-131906887D01*
X246602437Y-131937162D01*
X246630982Y-131963219D01*
X246641257Y-131978825D01*
X246635877Y-131995843D01*
X246620575Y-132036500D01*
X246596612Y-132097642D01*
X246565244Y-132176119D01*
X246527732Y-132268780D01*
X246485333Y-132372472D01*
X246443663Y-132473526D01*
X246397690Y-132584607D01*
X246355107Y-132687541D01*
X246317221Y-132779165D01*
X246285340Y-132856316D01*
X246260771Y-132915831D01*
X246244820Y-132954544D01*
X246238910Y-132969000D01*
X246224948Y-132983685D01*
X246197940Y-132983642D01*
X246154413Y-132968099D01*
X246090890Y-132936284D01*
X246090388Y-132936013D01*
X246042560Y-132911323D01*
X246003897Y-132893338D01*
X245982095Y-132885614D01*
X245981133Y-132885543D01*
X245964721Y-132893378D01*
X245928487Y-132915165D01*
X245876474Y-132948328D01*
X245812725Y-132990291D01*
X245742060Y-133037943D01*
X245670116Y-133086191D01*
X245605274Y-133128151D01*
X245551735Y-133161227D01*
X245513697Y-133182821D01*
X245495533Y-133190343D01*
X245478808Y-133180457D01*
X245445180Y-133152826D01*
X245398010Y-133110495D01*
X245340658Y-133056505D01*
X245276484Y-132993899D01*
X245255497Y-132972983D01*
X245038499Y-132755623D01*
X245203668Y-132513220D01*
X245253864Y-132438781D01*
X245297919Y-132371972D01*
X245333362Y-132316665D01*
X245357719Y-132276729D01*
X245368522Y-132256036D01*
X245368838Y-132254563D01*
X245363143Y-132235058D01*
X245347826Y-132195822D01*
X245325537Y-132143430D01*
X245309893Y-132108355D01*
X245280641Y-132041201D01*
X245253094Y-131973358D01*
X245231737Y-131916034D01*
X245225935Y-131898572D01*
X245209452Y-131851938D01*
X245193340Y-131815905D01*
X245184490Y-131802287D01*
X245164960Y-131793952D01*
X245122334Y-131782137D01*
X245062145Y-131768181D01*
X244989922Y-131753422D01*
X244957600Y-131747355D01*
X244875522Y-131732273D01*
X244796795Y-131717669D01*
X244729109Y-131704980D01*
X244680160Y-131695642D01*
X244670943Y-131693839D01*
X244594743Y-131678799D01*
X244594743Y-131361492D01*
X244594914Y-131257154D01*
X244595616Y-131178213D01*
X244597134Y-131121038D01*
X244599749Y-131081999D01*
X244603746Y-131057465D01*
X244609409Y-131043805D01*
X244617020Y-131037389D01*
X244620143Y-131036199D01*
X244638978Y-131031980D01*
X244680588Y-131023562D01*
X244739630Y-131011961D01*
X244810757Y-130998195D01*
X244888625Y-130983280D01*
X244967887Y-130968232D01*
X245043198Y-130954069D01*
X245109213Y-130941806D01*
X245160587Y-130932461D01*
X245191975Y-130927050D01*
X245198959Y-130926114D01*
X245205285Y-130913596D01*
X245219290Y-130880246D01*
X245238355Y-130832377D01*
X245245634Y-130813629D01*
X245274996Y-130741195D01*
X245309571Y-130661170D01*
X245340537Y-130593728D01*
X245363323Y-130542159D01*
X245378482Y-130499785D01*
X245383542Y-130473834D01*
X245382736Y-130470356D01*
X245372041Y-130453936D01*
X245347620Y-130417417D01*
X245312095Y-130364687D01*
X245268087Y-130299635D01*
X245218217Y-130226151D01*
X245208356Y-130211645D01*
X245150492Y-130125704D01*
X245107956Y-130060261D01*
X245079054Y-130012304D01*
X245062090Y-129978820D01*
X245055367Y-129956795D01*
X245057190Y-129943217D01*
X245057236Y-129943131D01*
X245071586Y-129925297D01*
X245103323Y-129890817D01*
X245149010Y-129843268D01*
X245205204Y-129786222D01*
X245268468Y-129723255D01*
X245275602Y-129716227D01*
X245355330Y-129639020D01*
X245416857Y-129582330D01*
X245461421Y-129545110D01*
X245490257Y-129526315D01*
X245502958Y-129523889D01*
X245521494Y-129534471D01*
X245559961Y-129558916D01*
X245614386Y-129594612D01*
X245680798Y-129638947D01*
X245755225Y-129689311D01*
X245772601Y-129701160D01*
X246019297Y-129869626D01*
X246130706Y-129819062D01*
X246198457Y-129789595D01*
X246271183Y-129759959D01*
X246333703Y-129736330D01*
X246336457Y-129735358D01*
X246385360Y-129717457D01*
X246423057Y-129702320D01*
X246441425Y-129693210D01*
X246441456Y-129693184D01*
X246447285Y-129676717D01*
X246457192Y-129636219D01*
X246470195Y-129576242D01*
X246485309Y-129501340D01*
X246501552Y-129416064D01*
X246502881Y-129408875D01*
X246519175Y-129321014D01*
X246534133Y-129241260D01*
X246546791Y-129174681D01*
X246556186Y-129126347D01*
X246561354Y-129101325D01*
X246561444Y-129100943D01*
X246564589Y-129090299D01*
X246570704Y-129082262D01*
X246583453Y-129076467D01*
X246606500Y-129072547D01*
X246643509Y-129070135D01*
X246698144Y-129068865D01*
X246774067Y-129068371D01*
X246874944Y-129068286D01*
X246888000Y-129068286D01*
X246991910Y-129068348D01*
D13*
X240605000Y-125295000D02*
X243265000Y-125295000D01*
X240605000Y-120155000D02*
X240605000Y-125295000D01*
X243265000Y-120155000D02*
X243265000Y-125295000D01*
X240605000Y-120155000D02*
X243265000Y-120155000D01*
X240605000Y-118885000D02*
X240605000Y-117555000D01*
X240605000Y-117555000D02*
X241935000Y-117555000D01*
D10*
X233426000Y-127465000D02*
X233426000Y-102489000D01*
X227330000Y-127465000D02*
X227330000Y-102405000D01*
D13*
X227330000Y-102405000D02*
X236450000Y-102405000D01*
X236450000Y-127465000D02*
X227330000Y-127465000D01*
X236450000Y-102405000D02*
X236450000Y-127465000D01*
X244415000Y-125295000D02*
X247075000Y-125295000D01*
X244415000Y-120155000D02*
X244415000Y-125295000D01*
X247075000Y-120155000D02*
X247075000Y-125295000D01*
X244415000Y-120155000D02*
X247075000Y-120155000D01*
X244415000Y-118885000D02*
X244415000Y-117555000D01*
X244415000Y-117555000D02*
X245745000Y-117555000D01*
X225675000Y-140210000D02*
X225675000Y-145090000D01*
X239145000Y-140210000D02*
X239145000Y-145090000D01*
X225675000Y-153420000D02*
X239145000Y-153420000D01*
X238375000Y-140210000D02*
X239145000Y-140210000D01*
X225675000Y-140210000D02*
X238375000Y-140210000D01*
X225675000Y-148540000D02*
X225675000Y-153420000D01*
X239145000Y-148540000D02*
X239145000Y-153420000D01*
X211035000Y-115155000D02*
X211035000Y-117255000D01*
X204035000Y-119655000D02*
X211035000Y-119655000D01*
X204035000Y-112755000D02*
X209135000Y-112755000D01*
X199135000Y-112755000D02*
X201635000Y-112755000D01*
X199135000Y-113505000D02*
X199135000Y-112755000D01*
X199135000Y-119655000D02*
X199135000Y-118905000D01*
X201635000Y-119655000D02*
X199135000Y-119655000D01*
X211035000Y-124045000D02*
X211035000Y-126145000D01*
X204035000Y-128545000D02*
X211035000Y-128545000D01*
X204035000Y-121645000D02*
X209135000Y-121645000D01*
X199135000Y-121645000D02*
X201635000Y-121645000D01*
X199135000Y-122395000D02*
X199135000Y-121645000D01*
X199135000Y-128545000D02*
X199135000Y-127795000D01*
X201635000Y-128545000D02*
X199135000Y-128545000D01*
X211035000Y-132935000D02*
X211035000Y-135035000D01*
X204035000Y-137435000D02*
X211035000Y-137435000D01*
X204035000Y-130535000D02*
X209135000Y-130535000D01*
X199135000Y-130535000D02*
X201635000Y-130535000D01*
X199135000Y-131285000D02*
X199135000Y-130535000D01*
X199135000Y-137435000D02*
X199135000Y-136685000D01*
X201635000Y-137435000D02*
X199135000Y-137435000D01*
X254805000Y-117555000D02*
X254805000Y-125295000D01*
X254805000Y-125295000D02*
X257465000Y-125295000D01*
X257465000Y-125295000D02*
X257465000Y-117555000D01*
X257465000Y-117555000D02*
X254805000Y-117555000D01*
X257465000Y-118505000D02*
X263465000Y-118505000D01*
X263465000Y-118505000D02*
X263465000Y-119265000D01*
X263465000Y-119265000D02*
X257465000Y-119265000D01*
X257465000Y-118565000D02*
X263465000Y-118565000D01*
X257465000Y-118685000D02*
X263465000Y-118685000D01*
X257465000Y-118805000D02*
X263465000Y-118805000D01*
X257465000Y-118925000D02*
X263465000Y-118925000D01*
X257465000Y-119045000D02*
X263465000Y-119045000D01*
X257465000Y-119165000D02*
X263465000Y-119165000D01*
X254475000Y-118505000D02*
X254805000Y-118505000D01*
X254475000Y-119265000D02*
X254805000Y-119265000D01*
X254805000Y-120155000D02*
X257465000Y-120155000D01*
X257465000Y-121045000D02*
X263465000Y-121045000D01*
X263465000Y-121045000D02*
X263465000Y-121805000D01*
X263465000Y-121805000D02*
X257465000Y-121805000D01*
X254407929Y-121045000D02*
X254805000Y-121045000D01*
X254407929Y-121805000D02*
X254805000Y-121805000D01*
X254805000Y-122695000D02*
X257465000Y-122695000D01*
X257465000Y-123585000D02*
X263465000Y-123585000D01*
X263465000Y-123585000D02*
X263465000Y-124345000D01*
X263465000Y-124345000D02*
X257465000Y-124345000D01*
X254407929Y-123585000D02*
X254805000Y-123585000D01*
X254407929Y-124345000D02*
X254805000Y-124345000D01*
X252095000Y-118885000D02*
X252095000Y-117615000D01*
X252095000Y-117615000D02*
X253365000Y-117615000D01*
X246955000Y-113725000D02*
X249615000Y-113725000D01*
X246955000Y-106045000D02*
X246955000Y-113725000D01*
X249615000Y-106045000D02*
X249615000Y-113725000D01*
X246955000Y-106045000D02*
X249615000Y-106045000D01*
X246955000Y-104775000D02*
X246955000Y-103445000D01*
X246955000Y-103445000D02*
X248285000Y-103445000D01*
X254780000Y-103445000D02*
X254780000Y-113725000D01*
X254780000Y-113725000D02*
X257440000Y-113725000D01*
X257440000Y-113725000D02*
X257440000Y-103445000D01*
X257440000Y-103445000D02*
X254780000Y-103445000D01*
X257440000Y-104395000D02*
X263440000Y-104395000D01*
X263440000Y-104395000D02*
X263440000Y-105155000D01*
X263440000Y-105155000D02*
X257440000Y-105155000D01*
X257440000Y-104455000D02*
X263440000Y-104455000D01*
X257440000Y-104575000D02*
X263440000Y-104575000D01*
X257440000Y-104695000D02*
X263440000Y-104695000D01*
X257440000Y-104815000D02*
X263440000Y-104815000D01*
X257440000Y-104935000D02*
X263440000Y-104935000D01*
X257440000Y-105055000D02*
X263440000Y-105055000D01*
X254450000Y-104395000D02*
X254780000Y-104395000D01*
X254450000Y-105155000D02*
X254780000Y-105155000D01*
X254780000Y-106045000D02*
X257440000Y-106045000D01*
X257440000Y-106935000D02*
X263440000Y-106935000D01*
X263440000Y-106935000D02*
X263440000Y-107695000D01*
X263440000Y-107695000D02*
X257440000Y-107695000D01*
X254382929Y-106935000D02*
X254780000Y-106935000D01*
X254382929Y-107695000D02*
X254780000Y-107695000D01*
X254780000Y-108585000D02*
X257440000Y-108585000D01*
X257440000Y-109475000D02*
X263440000Y-109475000D01*
X263440000Y-109475000D02*
X263440000Y-110235000D01*
X263440000Y-110235000D02*
X257440000Y-110235000D01*
X254382929Y-109475000D02*
X254780000Y-109475000D01*
X254382929Y-110235000D02*
X254780000Y-110235000D01*
X254780000Y-111125000D02*
X257440000Y-111125000D01*
X257440000Y-112015000D02*
X263440000Y-112015000D01*
X263440000Y-112015000D02*
X263440000Y-112775000D01*
X263440000Y-112775000D02*
X257440000Y-112775000D01*
X254382929Y-112015000D02*
X254780000Y-112015000D01*
X254382929Y-112775000D02*
X254780000Y-112775000D01*
X252070000Y-104775000D02*
X252070000Y-103505000D01*
X252070000Y-103505000D02*
X253340000Y-103505000D01*
X222285000Y-118455000D02*
X222285000Y-118785000D01*
X222285000Y-118785000D02*
X215865000Y-118785000D01*
X215865000Y-118785000D02*
X215865000Y-118455000D01*
X222285000Y-116495000D02*
X222285000Y-116165000D01*
X222285000Y-116165000D02*
X215865000Y-116165000D01*
X215865000Y-116165000D02*
X215865000Y-116495000D01*
X222285000Y-112740000D02*
X222285000Y-113070000D01*
X222285000Y-113070000D02*
X215865000Y-113070000D01*
X215865000Y-113070000D02*
X215865000Y-112740000D01*
X222285000Y-110780000D02*
X222285000Y-110450000D01*
X222285000Y-110450000D02*
X215865000Y-110450000D01*
X215865000Y-110450000D02*
X215865000Y-110780000D01*
X220920000Y-132985000D02*
G75*
G02X220920000Y-134985000I0J-1000000D01*
G01*
X220920000Y-134985000D02*
X220920000Y-136635000D01*
X220920000Y-136635000D02*
X241360000Y-136635000D01*
X241360000Y-136635000D02*
X241360000Y-131335000D01*
X241360000Y-131335000D02*
X220920000Y-131335000D01*
X220920000Y-131335000D02*
X220920000Y-132985000D01*
X248225000Y-125295000D02*
X250885000Y-125295000D01*
X248225000Y-120155000D02*
X248225000Y-125295000D01*
X250885000Y-120155000D02*
X250885000Y-125295000D01*
X248225000Y-120155000D02*
X250885000Y-120155000D01*
X248225000Y-118885000D02*
X248225000Y-117555000D01*
X248225000Y-117555000D02*
X249555000Y-117555000D01*
X222285000Y-107025000D02*
X222285000Y-107355000D01*
X222285000Y-107355000D02*
X215865000Y-107355000D01*
X215865000Y-107355000D02*
X215865000Y-107025000D01*
X222285000Y-105065000D02*
X222285000Y-104735000D01*
X222285000Y-104735000D02*
X215865000Y-104735000D01*
X215865000Y-104735000D02*
X215865000Y-105065000D01*
X242820000Y-140210000D02*
X242820000Y-145090000D01*
X256290000Y-140210000D02*
X256290000Y-145090000D01*
X242820000Y-153420000D02*
X256290000Y-153420000D01*
X255520000Y-140210000D02*
X256290000Y-140210000D01*
X242820000Y-140210000D02*
X255520000Y-140210000D01*
X242820000Y-148540000D02*
X242820000Y-153420000D01*
X256290000Y-148540000D02*
X256290000Y-153420000D01*
X211035000Y-106265000D02*
X211035000Y-108365000D01*
X204035000Y-110765000D02*
X211035000Y-110765000D01*
X204035000Y-103865000D02*
X209135000Y-103865000D01*
X199135000Y-103865000D02*
X201635000Y-103865000D01*
X199135000Y-104615000D02*
X199135000Y-103865000D01*
X199135000Y-110765000D02*
X199135000Y-110015000D01*
X201635000Y-110765000D02*
X199135000Y-110765000D01*
X208505000Y-140210000D02*
X208505000Y-145090000D01*
X221975000Y-140210000D02*
X221975000Y-145090000D01*
X208505000Y-153420000D02*
X221975000Y-153420000D01*
X221205000Y-140210000D02*
X221975000Y-140210000D01*
X208505000Y-140210000D02*
X221205000Y-140210000D01*
X208505000Y-148540000D02*
X208505000Y-153420000D01*
X221975000Y-148540000D02*
X221975000Y-153420000D01*
D10*
X241220714Y-116371666D02*
X241696904Y-116371666D01*
X241125476Y-116657380D02*
X241458809Y-115657380D01*
X241792142Y-116657380D01*
X242030238Y-115657380D02*
X242649285Y-115657380D01*
X242315952Y-116038333D01*
X242458809Y-116038333D01*
X242554047Y-116085952D01*
X242601666Y-116133571D01*
X242649285Y-116228809D01*
X242649285Y-116466904D01*
X242601666Y-116562142D01*
X242554047Y-116609761D01*
X242458809Y-116657380D01*
X242173095Y-116657380D01*
X242077857Y-116609761D01*
X242030238Y-116562142D01*
X226512380Y-119744523D02*
X225512380Y-119744523D01*
X226512380Y-119173095D02*
X225940952Y-119601666D01*
X225512380Y-119173095D02*
X226083809Y-119744523D01*
X226512380Y-118744523D02*
X225512380Y-118744523D01*
X225512380Y-118411190D02*
X225512380Y-117839761D01*
X226512380Y-118125476D02*
X225512380Y-118125476D01*
X226131428Y-117506428D02*
X226131428Y-116744523D01*
X226226666Y-116315952D02*
X226226666Y-115839761D01*
X226512380Y-116411190D02*
X225512380Y-116077857D01*
X226512380Y-115744523D01*
X226512380Y-115411190D02*
X225512380Y-115411190D01*
X225512380Y-115173095D01*
X225560000Y-115030238D01*
X225655238Y-114935000D01*
X225750476Y-114887380D01*
X225940952Y-114839761D01*
X226083809Y-114839761D01*
X226274285Y-114887380D01*
X226369523Y-114935000D01*
X226464761Y-115030238D01*
X226512380Y-115173095D01*
X226512380Y-115411190D01*
X226464761Y-114458809D02*
X226512380Y-114315952D01*
X226512380Y-114077857D01*
X226464761Y-113982619D01*
X226417142Y-113935000D01*
X226321904Y-113887380D01*
X226226666Y-113887380D01*
X226131428Y-113935000D01*
X226083809Y-113982619D01*
X226036190Y-114077857D01*
X225988571Y-114268333D01*
X225940952Y-114363571D01*
X225893333Y-114411190D01*
X225798095Y-114458809D01*
X225702857Y-114458809D01*
X225607619Y-114411190D01*
X225560000Y-114363571D01*
X225512380Y-114268333D01*
X225512380Y-114030238D01*
X225560000Y-113887380D01*
X226512380Y-112935000D02*
X226512380Y-113506428D01*
X226512380Y-113220714D02*
X225512380Y-113220714D01*
X225655238Y-113315952D01*
X225750476Y-113411190D01*
X225798095Y-113506428D01*
X226512380Y-111982619D02*
X226512380Y-112554047D01*
X226512380Y-112268333D02*
X225512380Y-112268333D01*
X225655238Y-112363571D01*
X225750476Y-112458809D01*
X225798095Y-112554047D01*
X226512380Y-111030238D02*
X226512380Y-111601666D01*
X226512380Y-111315952D02*
X225512380Y-111315952D01*
X225655238Y-111411190D01*
X225750476Y-111506428D01*
X225798095Y-111601666D01*
X225512380Y-110125476D02*
X225512380Y-110601666D01*
X225988571Y-110649285D01*
X225940952Y-110601666D01*
X225893333Y-110506428D01*
X225893333Y-110268333D01*
X225940952Y-110173095D01*
X225988571Y-110125476D01*
X226083809Y-110077857D01*
X226321904Y-110077857D01*
X226417142Y-110125476D01*
X226464761Y-110173095D01*
X226512380Y-110268333D01*
X226512380Y-110506428D01*
X226464761Y-110601666D01*
X226417142Y-110649285D01*
X231060714Y-126531666D02*
X231536904Y-126531666D01*
X230965476Y-126817380D02*
X231298809Y-125817380D01*
X231632142Y-126817380D01*
X231870238Y-125817380D02*
X232489285Y-125817380D01*
X232155952Y-126198333D01*
X232298809Y-126198333D01*
X232394047Y-126245952D01*
X232441666Y-126293571D01*
X232489285Y-126388809D01*
X232489285Y-126626904D01*
X232441666Y-126722142D01*
X232394047Y-126769761D01*
X232298809Y-126817380D01*
X232013095Y-126817380D01*
X231917857Y-126769761D01*
X231870238Y-126722142D01*
X231060714Y-123991666D02*
X231536904Y-123991666D01*
X230965476Y-124277380D02*
X231298809Y-123277380D01*
X231632142Y-124277380D01*
X231917857Y-123372619D02*
X231965476Y-123325000D01*
X232060714Y-123277380D01*
X232298809Y-123277380D01*
X232394047Y-123325000D01*
X232441666Y-123372619D01*
X232489285Y-123467857D01*
X232489285Y-123563095D01*
X232441666Y-123705952D01*
X231870238Y-124277380D01*
X232489285Y-124277380D01*
X231060714Y-121451666D02*
X231536904Y-121451666D01*
X230965476Y-121737380D02*
X231298809Y-120737380D01*
X231632142Y-121737380D01*
X232489285Y-121737380D02*
X231917857Y-121737380D01*
X232203571Y-121737380D02*
X232203571Y-120737380D01*
X232108333Y-120880238D01*
X232013095Y-120975476D01*
X231917857Y-121023095D01*
X231060714Y-118911666D02*
X231536904Y-118911666D01*
X230965476Y-119197380D02*
X231298809Y-118197380D01*
X231632142Y-119197380D01*
X232155952Y-118197380D02*
X232251190Y-118197380D01*
X232346428Y-118245000D01*
X232394047Y-118292619D01*
X232441666Y-118387857D01*
X232489285Y-118578333D01*
X232489285Y-118816428D01*
X232441666Y-119006904D01*
X232394047Y-119102142D01*
X232346428Y-119149761D01*
X232251190Y-119197380D01*
X232155952Y-119197380D01*
X232060714Y-119149761D01*
X232013095Y-119102142D01*
X231965476Y-119006904D01*
X231917857Y-118816428D01*
X231917857Y-118578333D01*
X231965476Y-118387857D01*
X232013095Y-118292619D01*
X232060714Y-118245000D01*
X232155952Y-118197380D01*
X228528809Y-116371666D02*
X229005000Y-116371666D01*
X228433571Y-116657380D02*
X228766904Y-115657380D01*
X229100238Y-116657380D01*
X229909761Y-116657380D02*
X229433571Y-116657380D01*
X229433571Y-115657380D01*
X230243095Y-116133571D02*
X230576428Y-116133571D01*
X230719285Y-116657380D02*
X230243095Y-116657380D01*
X230243095Y-115657380D01*
X230719285Y-115657380D01*
X231719285Y-116657380D02*
X231385952Y-116181190D01*
X231147857Y-116657380D02*
X231147857Y-115657380D01*
X231528809Y-115657380D01*
X231624047Y-115705000D01*
X231671666Y-115752619D01*
X231719285Y-115847857D01*
X231719285Y-115990714D01*
X231671666Y-116085952D01*
X231624047Y-116133571D01*
X231528809Y-116181190D01*
X231147857Y-116181190D01*
X232005000Y-115657380D02*
X232576428Y-115657380D01*
X232290714Y-116657380D02*
X232290714Y-115657380D01*
X228766904Y-113831666D02*
X229243095Y-113831666D01*
X228671666Y-114117380D02*
X229005000Y-113117380D01*
X229338333Y-114117380D01*
X229671666Y-114117380D02*
X229671666Y-113117380D01*
X229909761Y-113117380D01*
X230052619Y-113165000D01*
X230147857Y-113260238D01*
X230195476Y-113355476D01*
X230243095Y-113545952D01*
X230243095Y-113688809D01*
X230195476Y-113879285D01*
X230147857Y-113974523D01*
X230052619Y-114069761D01*
X229909761Y-114117380D01*
X229671666Y-114117380D01*
X230671666Y-114117380D02*
X230671666Y-113117380D01*
X230909761Y-113117380D01*
X231052619Y-113165000D01*
X231147857Y-113260238D01*
X231195476Y-113355476D01*
X231243095Y-113545952D01*
X231243095Y-113688809D01*
X231195476Y-113879285D01*
X231147857Y-113974523D01*
X231052619Y-114069761D01*
X230909761Y-114117380D01*
X230671666Y-114117380D01*
X232243095Y-114117380D02*
X231909761Y-113641190D01*
X231671666Y-114117380D02*
X231671666Y-113117380D01*
X232052619Y-113117380D01*
X232147857Y-113165000D01*
X232195476Y-113212619D01*
X232243095Y-113307857D01*
X232243095Y-113450714D01*
X232195476Y-113545952D01*
X232147857Y-113593571D01*
X232052619Y-113641190D01*
X231671666Y-113641190D01*
X229949523Y-111529761D02*
X230092380Y-111577380D01*
X230330476Y-111577380D01*
X230425714Y-111529761D01*
X230473333Y-111482142D01*
X230520952Y-111386904D01*
X230520952Y-111291666D01*
X230473333Y-111196428D01*
X230425714Y-111148809D01*
X230330476Y-111101190D01*
X230140000Y-111053571D01*
X230044761Y-111005952D01*
X229997142Y-110958333D01*
X229949523Y-110863095D01*
X229949523Y-110767857D01*
X229997142Y-110672619D01*
X230044761Y-110625000D01*
X230140000Y-110577380D01*
X230378095Y-110577380D01*
X230520952Y-110625000D01*
X231520952Y-111482142D02*
X231473333Y-111529761D01*
X231330476Y-111577380D01*
X231235238Y-111577380D01*
X231092380Y-111529761D01*
X230997142Y-111434523D01*
X230949523Y-111339285D01*
X230901904Y-111148809D01*
X230901904Y-111005952D01*
X230949523Y-110815476D01*
X230997142Y-110720238D01*
X231092380Y-110625000D01*
X231235238Y-110577380D01*
X231330476Y-110577380D01*
X231473333Y-110625000D01*
X231520952Y-110672619D01*
X232425714Y-111577380D02*
X231949523Y-111577380D01*
X231949523Y-110577380D01*
X229925714Y-108989761D02*
X230068571Y-109037380D01*
X230306666Y-109037380D01*
X230401904Y-108989761D01*
X230449523Y-108942142D01*
X230497142Y-108846904D01*
X230497142Y-108751666D01*
X230449523Y-108656428D01*
X230401904Y-108608809D01*
X230306666Y-108561190D01*
X230116190Y-108513571D01*
X230020952Y-108465952D01*
X229973333Y-108418333D01*
X229925714Y-108323095D01*
X229925714Y-108227857D01*
X229973333Y-108132619D01*
X230020952Y-108085000D01*
X230116190Y-108037380D01*
X230354285Y-108037380D01*
X230497142Y-108085000D01*
X230925714Y-109037380D02*
X230925714Y-108037380D01*
X231163809Y-108037380D01*
X231306666Y-108085000D01*
X231401904Y-108180238D01*
X231449523Y-108275476D01*
X231497142Y-108465952D01*
X231497142Y-108608809D01*
X231449523Y-108799285D01*
X231401904Y-108894523D01*
X231306666Y-108989761D01*
X231163809Y-109037380D01*
X230925714Y-109037380D01*
X231878095Y-108751666D02*
X232354285Y-108751666D01*
X231782857Y-109037380D02*
X232116190Y-108037380D01*
X232449523Y-109037380D01*
X230378095Y-105545000D02*
X230282857Y-105497380D01*
X230140000Y-105497380D01*
X229997142Y-105545000D01*
X229901904Y-105640238D01*
X229854285Y-105735476D01*
X229806666Y-105925952D01*
X229806666Y-106068809D01*
X229854285Y-106259285D01*
X229901904Y-106354523D01*
X229997142Y-106449761D01*
X230140000Y-106497380D01*
X230235238Y-106497380D01*
X230378095Y-106449761D01*
X230425714Y-106402142D01*
X230425714Y-106068809D01*
X230235238Y-106068809D01*
X230854285Y-106497380D02*
X230854285Y-105497380D01*
X231425714Y-106497380D01*
X231425714Y-105497380D01*
X231901904Y-106497380D02*
X231901904Y-105497380D01*
X232140000Y-105497380D01*
X232282857Y-105545000D01*
X232378095Y-105640238D01*
X232425714Y-105735476D01*
X232473333Y-105925952D01*
X232473333Y-106068809D01*
X232425714Y-106259285D01*
X232378095Y-106354523D01*
X232282857Y-106449761D01*
X232140000Y-106497380D01*
X231901904Y-106497380D01*
X229806666Y-102957380D02*
X230140000Y-103957380D01*
X230473333Y-102957380D01*
X231378095Y-103862142D02*
X231330476Y-103909761D01*
X231187619Y-103957380D01*
X231092380Y-103957380D01*
X230949523Y-103909761D01*
X230854285Y-103814523D01*
X230806666Y-103719285D01*
X230759047Y-103528809D01*
X230759047Y-103385952D01*
X230806666Y-103195476D01*
X230854285Y-103100238D01*
X230949523Y-103005000D01*
X231092380Y-102957380D01*
X231187619Y-102957380D01*
X231330476Y-103005000D01*
X231378095Y-103052619D01*
X232378095Y-103862142D02*
X232330476Y-103909761D01*
X232187619Y-103957380D01*
X232092380Y-103957380D01*
X231949523Y-103909761D01*
X231854285Y-103814523D01*
X231806666Y-103719285D01*
X231759047Y-103528809D01*
X231759047Y-103385952D01*
X231806666Y-103195476D01*
X231854285Y-103100238D01*
X231949523Y-103005000D01*
X232092380Y-102957380D01*
X232187619Y-102957380D01*
X232330476Y-103005000D01*
X232378095Y-103052619D01*
X245030714Y-116371666D02*
X245506904Y-116371666D01*
X244935476Y-116657380D02*
X245268809Y-115657380D01*
X245602142Y-116657380D01*
X245887857Y-115752619D02*
X245935476Y-115705000D01*
X246030714Y-115657380D01*
X246268809Y-115657380D01*
X246364047Y-115705000D01*
X246411666Y-115752619D01*
X246459285Y-115847857D01*
X246459285Y-115943095D01*
X246411666Y-116085952D01*
X245840238Y-116657380D01*
X246459285Y-116657380D01*
X230987380Y-148518571D02*
X231320714Y-148518571D01*
X231463571Y-149042380D02*
X230987380Y-149042380D01*
X230987380Y-148042380D01*
X231463571Y-148042380D01*
X231796904Y-148042380D02*
X232463571Y-149042380D01*
X232463571Y-148042380D02*
X231796904Y-149042380D01*
X232701666Y-148042380D02*
X233273095Y-148042380D01*
X232987380Y-149042380D02*
X232987380Y-148042380D01*
X233558809Y-148137619D02*
X233606428Y-148090000D01*
X233701666Y-148042380D01*
X233939761Y-148042380D01*
X234035000Y-148090000D01*
X234082619Y-148137619D01*
X234130238Y-148232857D01*
X234130238Y-148328095D01*
X234082619Y-148470952D01*
X233511190Y-149042380D01*
X234130238Y-149042380D01*
X202454047Y-116657380D02*
X201882619Y-116657380D01*
X202168333Y-116657380D02*
X202168333Y-115657380D01*
X202073095Y-115800238D01*
X201977857Y-115895476D01*
X201882619Y-115943095D01*
X202787380Y-115657380D02*
X203025476Y-116657380D01*
X203215952Y-115943095D01*
X203406428Y-116657380D01*
X203644523Y-115657380D01*
X204025476Y-116276428D02*
X204787380Y-116276428D01*
X205215952Y-115752619D02*
X205263571Y-115705000D01*
X205358809Y-115657380D01*
X205596904Y-115657380D01*
X205692142Y-115705000D01*
X205739761Y-115752619D01*
X205787380Y-115847857D01*
X205787380Y-115943095D01*
X205739761Y-116085952D01*
X205168333Y-116657380D01*
X205787380Y-116657380D01*
X202454047Y-125547380D02*
X201882619Y-125547380D01*
X202168333Y-125547380D02*
X202168333Y-124547380D01*
X202073095Y-124690238D01*
X201977857Y-124785476D01*
X201882619Y-124833095D01*
X202787380Y-124547380D02*
X203025476Y-125547380D01*
X203215952Y-124833095D01*
X203406428Y-125547380D01*
X203644523Y-124547380D01*
X204025476Y-125166428D02*
X204787380Y-125166428D01*
X205168333Y-124547380D02*
X205787380Y-124547380D01*
X205454047Y-124928333D01*
X205596904Y-124928333D01*
X205692142Y-124975952D01*
X205739761Y-125023571D01*
X205787380Y-125118809D01*
X205787380Y-125356904D01*
X205739761Y-125452142D01*
X205692142Y-125499761D01*
X205596904Y-125547380D01*
X205311190Y-125547380D01*
X205215952Y-125499761D01*
X205168333Y-125452142D01*
X202454047Y-134437380D02*
X201882619Y-134437380D01*
X202168333Y-134437380D02*
X202168333Y-133437380D01*
X202073095Y-133580238D01*
X201977857Y-133675476D01*
X201882619Y-133723095D01*
X202787380Y-133437380D02*
X203025476Y-134437380D01*
X203215952Y-133723095D01*
X203406428Y-134437380D01*
X203644523Y-133437380D01*
X204025476Y-134056428D02*
X204787380Y-134056428D01*
X205692142Y-133770714D02*
X205692142Y-134437380D01*
X205454047Y-133389761D02*
X205215952Y-134104047D01*
X205835000Y-134104047D01*
X257035714Y-116371666D02*
X257511904Y-116371666D01*
X256940476Y-116657380D02*
X257273809Y-115657380D01*
X257607142Y-116657380D01*
X258130952Y-115657380D02*
X258226190Y-115657380D01*
X258321428Y-115705000D01*
X258369047Y-115752619D01*
X258416666Y-115847857D01*
X258464285Y-116038333D01*
X258464285Y-116276428D01*
X258416666Y-116466904D01*
X258369047Y-116562142D01*
X258321428Y-116609761D01*
X258226190Y-116657380D01*
X258130952Y-116657380D01*
X258035714Y-116609761D01*
X257988095Y-116562142D01*
X257940476Y-116466904D01*
X257892857Y-116276428D01*
X257892857Y-116038333D01*
X257940476Y-115847857D01*
X257988095Y-115752619D01*
X258035714Y-115705000D01*
X258130952Y-115657380D01*
X246451666Y-102687380D02*
X246451666Y-101687380D01*
X246880238Y-101782619D02*
X246927857Y-101735000D01*
X247023095Y-101687380D01*
X247261190Y-101687380D01*
X247356428Y-101735000D01*
X247404047Y-101782619D01*
X247451666Y-101877857D01*
X247451666Y-101973095D01*
X247404047Y-102115952D01*
X246832619Y-102687380D01*
X247451666Y-102687380D01*
X248451666Y-102592142D02*
X248404047Y-102639761D01*
X248261190Y-102687380D01*
X248165952Y-102687380D01*
X248023095Y-102639761D01*
X247927857Y-102544523D01*
X247880238Y-102449285D01*
X247832619Y-102258809D01*
X247832619Y-102115952D01*
X247880238Y-101925476D01*
X247927857Y-101830238D01*
X248023095Y-101735000D01*
X248165952Y-101687380D01*
X248261190Y-101687380D01*
X248404047Y-101735000D01*
X248451666Y-101782619D01*
X248642142Y-102782619D02*
X249404047Y-102782619D01*
X249594523Y-101782619D02*
X249642142Y-101735000D01*
X249737380Y-101687380D01*
X249975476Y-101687380D01*
X250070714Y-101735000D01*
X250118333Y-101782619D01*
X250165952Y-101877857D01*
X250165952Y-101973095D01*
X250118333Y-102115952D01*
X249546904Y-102687380D01*
X250165952Y-102687380D01*
X255891666Y-102687380D02*
X255891666Y-101687380D01*
X256320238Y-101782619D02*
X256367857Y-101735000D01*
X256463095Y-101687380D01*
X256701190Y-101687380D01*
X256796428Y-101735000D01*
X256844047Y-101782619D01*
X256891666Y-101877857D01*
X256891666Y-101973095D01*
X256844047Y-102115952D01*
X256272619Y-102687380D01*
X256891666Y-102687380D01*
X257891666Y-102592142D02*
X257844047Y-102639761D01*
X257701190Y-102687380D01*
X257605952Y-102687380D01*
X257463095Y-102639761D01*
X257367857Y-102544523D01*
X257320238Y-102449285D01*
X257272619Y-102258809D01*
X257272619Y-102115952D01*
X257320238Y-101925476D01*
X257367857Y-101830238D01*
X257463095Y-101735000D01*
X257605952Y-101687380D01*
X257701190Y-101687380D01*
X257844047Y-101735000D01*
X257891666Y-101782619D01*
X258082142Y-102782619D02*
X258844047Y-102782619D01*
X259605952Y-102687380D02*
X259034523Y-102687380D01*
X259320238Y-102687380D02*
X259320238Y-101687380D01*
X259225000Y-101830238D01*
X259129761Y-101925476D01*
X259034523Y-101973095D01*
X218908333Y-120237380D02*
X218575000Y-119761190D01*
X218336904Y-120237380D02*
X218336904Y-119237380D01*
X218717857Y-119237380D01*
X218813095Y-119285000D01*
X218860714Y-119332619D01*
X218908333Y-119427857D01*
X218908333Y-119570714D01*
X218860714Y-119665952D01*
X218813095Y-119713571D01*
X218717857Y-119761190D01*
X218336904Y-119761190D01*
X219241666Y-119237380D02*
X219860714Y-119237380D01*
X219527380Y-119618333D01*
X219670238Y-119618333D01*
X219765476Y-119665952D01*
X219813095Y-119713571D01*
X219860714Y-119808809D01*
X219860714Y-120046904D01*
X219813095Y-120142142D01*
X219765476Y-120189761D01*
X219670238Y-120237380D01*
X219384523Y-120237380D01*
X219289285Y-120189761D01*
X219241666Y-120142142D01*
X218908333Y-114522380D02*
X218575000Y-114046190D01*
X218336904Y-114522380D02*
X218336904Y-113522380D01*
X218717857Y-113522380D01*
X218813095Y-113570000D01*
X218860714Y-113617619D01*
X218908333Y-113712857D01*
X218908333Y-113855714D01*
X218860714Y-113950952D01*
X218813095Y-113998571D01*
X218717857Y-114046190D01*
X218336904Y-114046190D01*
X219289285Y-113617619D02*
X219336904Y-113570000D01*
X219432142Y-113522380D01*
X219670238Y-113522380D01*
X219765476Y-113570000D01*
X219813095Y-113617619D01*
X219860714Y-113712857D01*
X219860714Y-113808095D01*
X219813095Y-113950952D01*
X219241666Y-114522380D01*
X219860714Y-114522380D01*
X220372380Y-137080238D02*
X219372380Y-137080238D01*
X219372380Y-136699285D01*
X219420000Y-136604047D01*
X219467619Y-136556428D01*
X219562857Y-136508809D01*
X219705714Y-136508809D01*
X219800952Y-136556428D01*
X219848571Y-136604047D01*
X219896190Y-136699285D01*
X219896190Y-137080238D01*
X220277142Y-135508809D02*
X220324761Y-135556428D01*
X220372380Y-135699285D01*
X220372380Y-135794523D01*
X220324761Y-135937380D01*
X220229523Y-136032619D01*
X220134285Y-136080238D01*
X219943809Y-136127857D01*
X219800952Y-136127857D01*
X219610476Y-136080238D01*
X219515238Y-136032619D01*
X219420000Y-135937380D01*
X219372380Y-135794523D01*
X219372380Y-135699285D01*
X219420000Y-135556428D01*
X219467619Y-135508809D01*
X219848571Y-134746904D02*
X219848571Y-135080238D01*
X220372380Y-135080238D02*
X219372380Y-135080238D01*
X219372380Y-134604047D01*
X219800952Y-134080238D02*
X219753333Y-134175476D01*
X219705714Y-134223095D01*
X219610476Y-134270714D01*
X219562857Y-134270714D01*
X219467619Y-134223095D01*
X219420000Y-134175476D01*
X219372380Y-134080238D01*
X219372380Y-133889761D01*
X219420000Y-133794523D01*
X219467619Y-133746904D01*
X219562857Y-133699285D01*
X219610476Y-133699285D01*
X219705714Y-133746904D01*
X219753333Y-133794523D01*
X219800952Y-133889761D01*
X219800952Y-134080238D01*
X219848571Y-134175476D01*
X219896190Y-134223095D01*
X219991428Y-134270714D01*
X220181904Y-134270714D01*
X220277142Y-134223095D01*
X220324761Y-134175476D01*
X220372380Y-134080238D01*
X220372380Y-133889761D01*
X220324761Y-133794523D01*
X220277142Y-133746904D01*
X220181904Y-133699285D01*
X219991428Y-133699285D01*
X219896190Y-133746904D01*
X219848571Y-133794523D01*
X219800952Y-133889761D01*
X219372380Y-132794523D02*
X219372380Y-133270714D01*
X219848571Y-133318333D01*
X219800952Y-133270714D01*
X219753333Y-133175476D01*
X219753333Y-132937380D01*
X219800952Y-132842142D01*
X219848571Y-132794523D01*
X219943809Y-132746904D01*
X220181904Y-132746904D01*
X220277142Y-132794523D01*
X220324761Y-132842142D01*
X220372380Y-132937380D01*
X220372380Y-133175476D01*
X220324761Y-133270714D01*
X220277142Y-133318333D01*
X219372380Y-132413571D02*
X219372380Y-131746904D01*
X220372380Y-132175476D01*
X219705714Y-130937380D02*
X220372380Y-130937380D01*
X219324761Y-131175476D02*
X220039047Y-131413571D01*
X220039047Y-130794523D01*
X248840714Y-116371666D02*
X249316904Y-116371666D01*
X248745476Y-116657380D02*
X249078809Y-115657380D01*
X249412142Y-116657380D01*
X250269285Y-116657380D02*
X249697857Y-116657380D01*
X249983571Y-116657380D02*
X249983571Y-115657380D01*
X249888333Y-115800238D01*
X249793095Y-115895476D01*
X249697857Y-115943095D01*
X218908333Y-108807380D02*
X218575000Y-108331190D01*
X218336904Y-108807380D02*
X218336904Y-107807380D01*
X218717857Y-107807380D01*
X218813095Y-107855000D01*
X218860714Y-107902619D01*
X218908333Y-107997857D01*
X218908333Y-108140714D01*
X218860714Y-108235952D01*
X218813095Y-108283571D01*
X218717857Y-108331190D01*
X218336904Y-108331190D01*
X219860714Y-108807380D02*
X219289285Y-108807380D01*
X219575000Y-108807380D02*
X219575000Y-107807380D01*
X219479761Y-107950238D01*
X219384523Y-108045476D01*
X219289285Y-108093095D01*
X248132380Y-148518571D02*
X248465714Y-148518571D01*
X248608571Y-149042380D02*
X248132380Y-149042380D01*
X248132380Y-148042380D01*
X248608571Y-148042380D01*
X248941904Y-148042380D02*
X249608571Y-149042380D01*
X249608571Y-148042380D02*
X248941904Y-149042380D01*
X249846666Y-148042380D02*
X250418095Y-148042380D01*
X250132380Y-149042380D02*
X250132380Y-148042380D01*
X250656190Y-148042380D02*
X251275238Y-148042380D01*
X250941904Y-148423333D01*
X251084761Y-148423333D01*
X251180000Y-148470952D01*
X251227619Y-148518571D01*
X251275238Y-148613809D01*
X251275238Y-148851904D01*
X251227619Y-148947142D01*
X251180000Y-148994761D01*
X251084761Y-149042380D01*
X250799047Y-149042380D01*
X250703809Y-148994761D01*
X250656190Y-148947142D01*
X202454047Y-107767380D02*
X201882619Y-107767380D01*
X202168333Y-107767380D02*
X202168333Y-106767380D01*
X202073095Y-106910238D01*
X201977857Y-107005476D01*
X201882619Y-107053095D01*
X202787380Y-106767380D02*
X203025476Y-107767380D01*
X203215952Y-107053095D01*
X203406428Y-107767380D01*
X203644523Y-106767380D01*
X204025476Y-107386428D02*
X204787380Y-107386428D01*
X205787380Y-107767380D02*
X205215952Y-107767380D01*
X205501666Y-107767380D02*
X205501666Y-106767380D01*
X205406428Y-106910238D01*
X205311190Y-107005476D01*
X205215952Y-107053095D01*
X213817380Y-148518571D02*
X214150714Y-148518571D01*
X214293571Y-149042380D02*
X213817380Y-149042380D01*
X213817380Y-148042380D01*
X214293571Y-148042380D01*
X214626904Y-148042380D02*
X215293571Y-149042380D01*
X215293571Y-148042380D02*
X214626904Y-149042380D01*
X215531666Y-148042380D02*
X216103095Y-148042380D01*
X215817380Y-149042380D02*
X215817380Y-148042380D01*
X216960238Y-149042380D02*
X216388809Y-149042380D01*
X216674523Y-149042380D02*
X216674523Y-148042380D01*
X216579285Y-148185238D01*
X216484047Y-148280476D01*
X216388809Y-148328095D01*
M02*
