G04 #@! TF.GenerationSoftware,KiCad,Pcbnew,(5.1.5)-3*
G04 #@! TF.CreationDate,2020-06-12T22:17:56+02:00*
G04 #@! TF.ProjectId,Main,4d61696e-2e6b-4696-9361-645f70636258,rev?*
G04 #@! TF.SameCoordinates,Original*
G04 #@! TF.FileFunction,Soldermask,Top*
G04 #@! TF.FilePolarity,Negative*
%FSLAX46Y46*%
G04 Gerber Fmt 4.6, Leading zero omitted, Abs format (unit mm)*
G04 Created by KiCad (PCBNEW (5.1.5)-3) date 2020-06-12 22:17:56*
%MOMM*%
%LPD*%
G04 APERTURE LIST*
%ADD10C,2.300000*%
%ADD11C,1.520000*%
%ADD12R,1.520000X1.520000*%
%ADD13C,1.600000*%
%ADD14O,1.600000X1.600000*%
%ADD15O,2.000000X2.500000*%
%ADD16O,2.500000X2.000000*%
%ADD17O,3.000000X2.000000*%
%ADD18C,1.800000*%
%ADD19O,2.000000X1.200000*%
%ADD20R,1.700000X1.700000*%
%ADD21O,1.700000X1.700000*%
%ADD22R,1.600000X1.600000*%
%ADD23C,2.700000*%
G04 APERTURE END LIST*
D10*
X227950000Y-147840000D03*
X239950000Y-147840000D03*
D11*
X231400000Y-145540000D03*
X232420000Y-143000000D03*
X233440000Y-145540000D03*
X234460000Y-143000000D03*
X235480000Y-145540000D03*
D12*
X236500000Y-143000000D03*
D10*
X243450000Y-147840000D03*
X255450000Y-147840000D03*
D11*
X246900000Y-145540000D03*
X247920000Y-143000000D03*
X248940000Y-145540000D03*
X249960000Y-143000000D03*
X250980000Y-145540000D03*
D12*
X252000000Y-143000000D03*
D10*
X212450000Y-147840000D03*
X224450000Y-147840000D03*
D11*
X215900000Y-145540000D03*
X216920000Y-143000000D03*
X217940000Y-145540000D03*
X218960000Y-143000000D03*
X219980000Y-145540000D03*
D12*
X221000000Y-143000000D03*
D13*
X215500000Y-128500000D03*
D14*
X215500000Y-136120000D03*
D15*
X211000000Y-136500000D03*
D16*
X208500000Y-133250000D03*
D17*
X202000000Y-139750000D03*
X202000000Y-133250000D03*
D16*
X208500000Y-139750000D03*
D18*
X202000000Y-136500000D03*
D19*
X231500000Y-126430000D03*
X231500000Y-123890000D03*
X231500000Y-121350000D03*
X231500000Y-118810000D03*
X231500000Y-116270000D03*
X231500000Y-113730000D03*
X231500000Y-111190000D03*
X231500000Y-108650000D03*
X231500000Y-106110000D03*
X231500000Y-103570000D03*
D16*
X210600000Y-103800000D03*
D17*
X201900000Y-108600000D03*
X204800000Y-103600000D03*
X208700000Y-108600000D03*
D13*
X208500000Y-106000000D03*
X202500000Y-106000000D03*
D16*
X210600000Y-123800000D03*
D17*
X201900000Y-128600000D03*
X204800000Y-123600000D03*
X208700000Y-128600000D03*
D13*
X208500000Y-126000000D03*
X202500000Y-126000000D03*
D16*
X210600000Y-113800000D03*
D17*
X201900000Y-118600000D03*
X204800000Y-113600000D03*
X208700000Y-118600000D03*
D13*
X208500000Y-116000000D03*
X202500000Y-116000000D03*
D20*
X242935000Y-118885000D03*
D21*
X242935000Y-121425000D03*
X242935000Y-123965000D03*
D20*
X246745000Y-118885000D03*
D21*
X246745000Y-121425000D03*
X246745000Y-123965000D03*
D20*
X254365000Y-118885000D03*
D21*
X254365000Y-121425000D03*
X254365000Y-123965000D03*
D20*
X250500000Y-104775000D03*
D21*
X250500000Y-107315000D03*
X250500000Y-109855000D03*
X250500000Y-112395000D03*
D20*
X254340000Y-104775000D03*
D21*
X254340000Y-107315000D03*
X254340000Y-109855000D03*
X254340000Y-112395000D03*
D13*
X242000000Y-105000000D03*
D14*
X242000000Y-112620000D03*
D13*
X237000000Y-105000000D03*
D14*
X237000000Y-112620000D03*
D22*
X222250000Y-137795000D03*
D14*
X240030000Y-130175000D03*
X224790000Y-137795000D03*
X237490000Y-130175000D03*
X227330000Y-137795000D03*
X234950000Y-130175000D03*
X229870000Y-137795000D03*
X232410000Y-130175000D03*
X232410000Y-137795000D03*
X229870000Y-130175000D03*
X234950000Y-137795000D03*
X227330000Y-130175000D03*
X237490000Y-137795000D03*
X224790000Y-130175000D03*
X240030000Y-137795000D03*
X222250000Y-130175000D03*
D20*
X250555000Y-118885000D03*
D21*
X250555000Y-121425000D03*
X250555000Y-123965000D03*
D13*
X215500000Y-120000000D03*
D14*
X215500000Y-112380000D03*
D20*
X208370000Y-98770000D03*
D21*
X208370000Y-96230000D03*
X210910000Y-98770000D03*
X210910000Y-96230000D03*
X213450000Y-98770000D03*
X213450000Y-96230000D03*
X215990000Y-98770000D03*
X215990000Y-96230000D03*
X218530000Y-98770000D03*
X218530000Y-96230000D03*
X221070000Y-98770000D03*
X221070000Y-96230000D03*
X223610000Y-98770000D03*
X223610000Y-96230000D03*
X226150000Y-98770000D03*
X226150000Y-96230000D03*
X228690000Y-98770000D03*
X228690000Y-96230000D03*
X231230000Y-98770000D03*
X231230000Y-96230000D03*
X233770000Y-98770000D03*
X233770000Y-96230000D03*
X236310000Y-98770000D03*
X236310000Y-96230000D03*
X238850000Y-98770000D03*
X238850000Y-96230000D03*
X241390000Y-98770000D03*
X241390000Y-96230000D03*
X243930000Y-98770000D03*
X243930000Y-96230000D03*
X246470000Y-98770000D03*
X246470000Y-96230000D03*
X249010000Y-98770000D03*
X249010000Y-96230000D03*
X251550000Y-98770000D03*
X251550000Y-96230000D03*
X254090000Y-98770000D03*
X254090000Y-96230000D03*
X256630000Y-98770000D03*
X256630000Y-96230000D03*
D23*
X261500000Y-146500000D03*
X203500000Y-146500000D03*
X261500000Y-97500000D03*
X203500000Y-97500000D03*
M02*
