G04 #@! TF.GenerationSoftware,KiCad,Pcbnew,(5.1.5)-3*
G04 #@! TF.CreationDate,2020-05-01T12:00:19+02:00*
G04 #@! TF.ProjectId,Main,4d61696e-2e6b-4696-9361-645f70636258,rev?*
G04 #@! TF.SameCoordinates,Original*
G04 #@! TF.FileFunction,Soldermask,Bot*
G04 #@! TF.FilePolarity,Negative*
%FSLAX46Y46*%
G04 Gerber Fmt 4.6, Leading zero omitted, Abs format (unit mm)*
G04 Created by KiCad (PCBNEW (5.1.5)-3) date 2020-05-01 12:00:19*
%MOMM*%
%LPD*%
G04 APERTURE LIST*
%ADD10R,1.700000X1.700000*%
%ADD11O,1.700000X1.700000*%
%ADD12O,2.000000X1.200000*%
%ADD13C,1.520000*%
%ADD14C,3.000000*%
%ADD15C,1.000000*%
%ADD16C,1.900000*%
%ADD17R,1.900000X1.900000*%
%ADD18C,1.600000*%
%ADD19O,1.600000X1.600000*%
%ADD20R,1.600000X1.600000*%
%ADD21C,2.700000*%
G04 APERTURE END LIST*
D10*
X241935000Y-118885000D03*
D11*
X241935000Y-121425000D03*
X241935000Y-123965000D03*
D12*
X234950000Y-126365000D03*
X234950000Y-123825000D03*
X234950000Y-121285000D03*
X234950000Y-118745000D03*
X234950000Y-116205000D03*
X234950000Y-113665000D03*
X234950000Y-111125000D03*
X234950000Y-108585000D03*
X234950000Y-106045000D03*
X234950000Y-103505000D03*
D10*
X245745000Y-118885000D03*
D11*
X245745000Y-121425000D03*
X245745000Y-123965000D03*
D13*
X233045000Y-142240000D03*
X230505000Y-142240000D03*
X235585000Y-142240000D03*
X229235000Y-144780000D03*
X231775000Y-144780000D03*
X234315000Y-144780000D03*
D14*
X239145000Y-146810000D03*
X225675000Y-146810000D03*
D15*
X206335000Y-113705000D03*
X206335000Y-118705000D03*
D16*
X210335000Y-118455000D03*
D17*
X210335000Y-113955000D03*
D16*
X202835000Y-119105000D03*
X202835000Y-113305000D03*
D15*
X206335000Y-122595000D03*
X206335000Y-127595000D03*
D16*
X210335000Y-127345000D03*
D17*
X210335000Y-122845000D03*
D16*
X202835000Y-127995000D03*
X202835000Y-122195000D03*
D15*
X206335000Y-131485000D03*
X206335000Y-136485000D03*
D16*
X210335000Y-136235000D03*
D17*
X210335000Y-131735000D03*
D16*
X202835000Y-136885000D03*
X202835000Y-131085000D03*
D10*
X253365000Y-118885000D03*
D11*
X253365000Y-121425000D03*
X253365000Y-123965000D03*
D10*
X248285000Y-104775000D03*
D11*
X248285000Y-107315000D03*
X248285000Y-109855000D03*
X248285000Y-112395000D03*
D10*
X253340000Y-104775000D03*
D11*
X253340000Y-107315000D03*
X253340000Y-109855000D03*
X253340000Y-112395000D03*
D18*
X222885000Y-117475000D03*
D19*
X215265000Y-117475000D03*
D18*
X222885000Y-111760000D03*
D19*
X215265000Y-111760000D03*
D20*
X222250000Y-137795000D03*
D19*
X240030000Y-130175000D03*
X224790000Y-137795000D03*
X237490000Y-130175000D03*
X227330000Y-137795000D03*
X234950000Y-130175000D03*
X229870000Y-137795000D03*
X232410000Y-130175000D03*
X232410000Y-137795000D03*
X229870000Y-130175000D03*
X234950000Y-137795000D03*
X227330000Y-130175000D03*
X237490000Y-137795000D03*
X224790000Y-130175000D03*
X240030000Y-137795000D03*
X222250000Y-130175000D03*
D10*
X249555000Y-118885000D03*
D11*
X249555000Y-121425000D03*
X249555000Y-123965000D03*
D18*
X222885000Y-106045000D03*
D19*
X215265000Y-106045000D03*
D13*
X250190000Y-142240000D03*
X247650000Y-142240000D03*
X252730000Y-142240000D03*
X246380000Y-144780000D03*
X248920000Y-144780000D03*
X251460000Y-144780000D03*
D14*
X256290000Y-146810000D03*
X242820000Y-146810000D03*
D15*
X206335000Y-104815000D03*
X206335000Y-109815000D03*
D16*
X210335000Y-109565000D03*
D17*
X210335000Y-105065000D03*
D16*
X202835000Y-110215000D03*
X202835000Y-104415000D03*
D13*
X215875000Y-142240000D03*
X213335000Y-142240000D03*
X218415000Y-142240000D03*
X212065000Y-144780000D03*
X214605000Y-144780000D03*
X217145000Y-144780000D03*
D14*
X221975000Y-146810000D03*
X208505000Y-146810000D03*
D10*
X208370000Y-98770000D03*
D11*
X208370000Y-96230000D03*
X210910000Y-98770000D03*
X210910000Y-96230000D03*
X213450000Y-98770000D03*
X213450000Y-96230000D03*
X215990000Y-98770000D03*
X215990000Y-96230000D03*
X218530000Y-98770000D03*
X218530000Y-96230000D03*
X221070000Y-98770000D03*
X221070000Y-96230000D03*
X223610000Y-98770000D03*
X223610000Y-96230000D03*
X226150000Y-98770000D03*
X226150000Y-96230000D03*
X228690000Y-98770000D03*
X228690000Y-96230000D03*
X231230000Y-98770000D03*
X231230000Y-96230000D03*
X233770000Y-98770000D03*
X233770000Y-96230000D03*
X236310000Y-98770000D03*
X236310000Y-96230000D03*
X238850000Y-98770000D03*
X238850000Y-96230000D03*
X241390000Y-98770000D03*
X241390000Y-96230000D03*
X243930000Y-98770000D03*
X243930000Y-96230000D03*
X246470000Y-98770000D03*
X246470000Y-96230000D03*
X249010000Y-98770000D03*
X249010000Y-96230000D03*
X251550000Y-98770000D03*
X251550000Y-96230000D03*
X254090000Y-98770000D03*
X254090000Y-96230000D03*
X256630000Y-98770000D03*
X256630000Y-96230000D03*
D21*
X261500000Y-146500000D03*
X203500000Y-146500000D03*
X261500000Y-97500000D03*
X203500000Y-97500000D03*
M02*
