M48
INCH,TZ
T1C0.0394
T2C0.0630
T3C0.0709
T4C0.0906
T5C0.1063
%
G90
G05
T2
X79724Y-41732
X82087Y-41732
X79724Y-49606
X82087Y-49606
X79724Y-45669
X82087Y-45669
T3
X79528Y-53740
T4
X95846Y-58205
X100571Y-58205
X89744Y-58205
X94469Y-58205
X83642Y-58205
X88366Y-58205
T5
X102953Y-38386
X80118Y-57677
X102953Y-57677
X80118Y-38386
T1
G00X79409Y-52461
M15
G01X79646Y-52461
M16
G05
G00X79409Y-55020
M15
G01X79646Y-55020
M16
G05
T0
M30
