M48
INCH,TZ
T1C0.0315
T2C0.0319
T3C0.0394
T4C0.0472
%
G90
G05
T1
X84750Y-44000
X87750Y-44000
X87500Y-51250
X87500Y-54250
X88500Y-51250
X88500Y-54250
X89500Y-51250
X89500Y-54250
X90500Y-51250
X90500Y-54250
X91500Y-51250
X91500Y-54250
X92500Y-51250
X92500Y-54250
X93500Y-51250
X93500Y-54250
X94500Y-51250
X94500Y-54250
X84750Y-46250
X87750Y-46250
X84750Y-41750
X87750Y-41750
X92500Y-40750
X92500Y-41750
X92500Y-42750
X92500Y-43750
X92500Y-44750
X92500Y-45750
X92500Y-46750
X92500Y-47750
X92500Y-48750
X92500Y-49750
T2
X82089Y-57799
X83490Y-57000
X83990Y-56000
X84490Y-57000
X84990Y-56000
X85490Y-57000
X85990Y-56000
X87392Y-57799
X95598Y-57799
X97000Y-57000
X97500Y-56000
X98000Y-57000
X98500Y-56000
X99000Y-57000
X99500Y-56000
X100902Y-57799
X88848Y-57799
X90250Y-57000
X90750Y-56000
X91250Y-57000
X91750Y-56000
X92250Y-57000
X92750Y-56000
X94152Y-57799
T3
X98250Y-46805
X98250Y-47805
X98250Y-48805
X82035Y-37886
X82035Y-38886
X83035Y-37886
X83035Y-38886
X84035Y-37886
X84035Y-38886
X85035Y-37886
X85035Y-38886
X86035Y-37886
X86035Y-38886
X87035Y-37886
X87035Y-38886
X88035Y-37886
X88035Y-38886
X89035Y-37886
X89035Y-38886
X90035Y-37886
X90035Y-38886
X91035Y-37886
X91035Y-38886
X92035Y-37886
X92035Y-38886
X93035Y-37886
X93035Y-38886
X94035Y-37886
X94035Y-38886
X95035Y-37886
X95035Y-38886
X96035Y-37886
X96035Y-38886
X97035Y-37886
X97035Y-38886
X98035Y-37886
X98035Y-38886
X99035Y-37886
X99035Y-38886
X100035Y-37886
X100035Y-38886
X101035Y-37886
X101035Y-38886
X99750Y-46805
X99750Y-47805
X99750Y-48805
X99740Y-41250
X99740Y-42250
X99740Y-43250
X99740Y-44250
X95250Y-46805
X95250Y-47805
X95250Y-48805
X96750Y-46805
X96750Y-47805
X96750Y-48805
X97750Y-41250
X97750Y-42250
X97750Y-43250
X97750Y-44250
T4
X79856Y-41108
X79856Y-43392
X82809Y-41364
X82809Y-43136
X79856Y-51608
X79856Y-53892
X82809Y-51864
X82809Y-53636
X79856Y-44608
X79856Y-46892
X82809Y-44864
X82809Y-46636
X79856Y-48108
X79856Y-50392
X82809Y-48364
X82809Y-50136
T0
M30
