G04 #@! TF.GenerationSoftware,KiCad,Pcbnew,(5.1.5)-3*
G04 #@! TF.CreationDate,2020-06-12T22:17:55+02:00*
G04 #@! TF.ProjectId,Main,4d61696e-2e6b-4696-9361-645f70636258,rev?*
G04 #@! TF.SameCoordinates,Original*
G04 #@! TF.FileFunction,Copper,L1,Top*
G04 #@! TF.FilePolarity,Positive*
%FSLAX46Y46*%
G04 Gerber Fmt 4.6, Leading zero omitted, Abs format (unit mm)*
G04 Created by KiCad (PCBNEW (5.1.5)-3) date 2020-06-12 22:17:55*
%MOMM*%
%LPD*%
G04 APERTURE LIST*
%ADD10C,1.520000*%
%ADD11R,1.520000X1.520000*%
%ADD12C,1.600000*%
%ADD13O,1.600000X1.600000*%
%ADD14O,2.000000X2.500000*%
%ADD15O,2.500000X2.000000*%
%ADD16O,3.000000X2.000000*%
%ADD17O,2.000000X1.200000*%
%ADD18R,1.700000X1.700000*%
%ADD19O,1.700000X1.700000*%
%ADD20R,1.600000X1.600000*%
%ADD21C,1.000000*%
%ADD22C,0.900000*%
%ADD23C,0.500000*%
%ADD24C,0.200000*%
%ADD25C,0.254000*%
G04 APERTURE END LIST*
D10*
X231400000Y-145540000D03*
X232420000Y-143000000D03*
X233440000Y-145540000D03*
X234460000Y-143000000D03*
X235480000Y-145540000D03*
D11*
X236500000Y-143000000D03*
D10*
X246900000Y-145540000D03*
X247920000Y-143000000D03*
X248940000Y-145540000D03*
X249960000Y-143000000D03*
X250980000Y-145540000D03*
D11*
X252000000Y-143000000D03*
D10*
X215900000Y-145540000D03*
X216920000Y-143000000D03*
X217940000Y-145540000D03*
X218960000Y-143000000D03*
X219980000Y-145540000D03*
D11*
X221000000Y-143000000D03*
D12*
X215500000Y-128500000D03*
D13*
X215500000Y-136120000D03*
D14*
X211000000Y-136500000D03*
D15*
X208500000Y-133250000D03*
D16*
X202000000Y-139750000D03*
X202000000Y-133250000D03*
D15*
X208500000Y-139750000D03*
D17*
X231500000Y-126430000D03*
X231500000Y-123890000D03*
X231500000Y-121350000D03*
X231500000Y-118810000D03*
X231500000Y-116270000D03*
X231500000Y-113730000D03*
X231500000Y-111190000D03*
X231500000Y-108650000D03*
X231500000Y-106110000D03*
X231500000Y-103570000D03*
D15*
X210600000Y-103800000D03*
D16*
X201900000Y-108600000D03*
X204800000Y-103600000D03*
X208700000Y-108600000D03*
D15*
X210600000Y-123800000D03*
D16*
X201900000Y-128600000D03*
X204800000Y-123600000D03*
X208700000Y-128600000D03*
D15*
X210600000Y-113800000D03*
D16*
X201900000Y-118600000D03*
X204800000Y-113600000D03*
X208700000Y-118600000D03*
D18*
X242935000Y-118885000D03*
D19*
X242935000Y-121425000D03*
X242935000Y-123965000D03*
D18*
X246745000Y-118885000D03*
D19*
X246745000Y-121425000D03*
X246745000Y-123965000D03*
D18*
X254365000Y-118885000D03*
D19*
X254365000Y-121425000D03*
X254365000Y-123965000D03*
D18*
X250500000Y-104775000D03*
D19*
X250500000Y-107315000D03*
X250500000Y-109855000D03*
X250500000Y-112395000D03*
D18*
X254340000Y-104775000D03*
D19*
X254340000Y-107315000D03*
X254340000Y-109855000D03*
X254340000Y-112395000D03*
D12*
X242000000Y-105000000D03*
D13*
X242000000Y-112620000D03*
D12*
X237000000Y-105000000D03*
D13*
X237000000Y-112620000D03*
D20*
X222250000Y-137795000D03*
D13*
X240030000Y-130175000D03*
X224790000Y-137795000D03*
X237490000Y-130175000D03*
X227330000Y-137795000D03*
X234950000Y-130175000D03*
X229870000Y-137795000D03*
X232410000Y-130175000D03*
X232410000Y-137795000D03*
X229870000Y-130175000D03*
X234950000Y-137795000D03*
X227330000Y-130175000D03*
X237490000Y-137795000D03*
X224790000Y-130175000D03*
X240030000Y-137795000D03*
X222250000Y-130175000D03*
D18*
X250555000Y-118885000D03*
D19*
X250555000Y-121425000D03*
X250555000Y-123965000D03*
D12*
X215500000Y-120000000D03*
D13*
X215500000Y-112380000D03*
D18*
X208370000Y-98770000D03*
D19*
X208370000Y-96230000D03*
X210910000Y-98770000D03*
X210910000Y-96230000D03*
X213450000Y-98770000D03*
X213450000Y-96230000D03*
X215990000Y-98770000D03*
X215990000Y-96230000D03*
X218530000Y-98770000D03*
X218530000Y-96230000D03*
X221070000Y-98770000D03*
X221070000Y-96230000D03*
X223610000Y-98770000D03*
X223610000Y-96230000D03*
X226150000Y-98770000D03*
X226150000Y-96230000D03*
X228690000Y-98770000D03*
X228690000Y-96230000D03*
X231230000Y-98770000D03*
X231230000Y-96230000D03*
X233770000Y-98770000D03*
X233770000Y-96230000D03*
X236310000Y-98770000D03*
X236310000Y-96230000D03*
X238850000Y-98770000D03*
X238850000Y-96230000D03*
X241390000Y-98770000D03*
X241390000Y-96230000D03*
X243930000Y-98770000D03*
X243930000Y-96230000D03*
X246470000Y-98770000D03*
X246470000Y-96230000D03*
X249010000Y-98770000D03*
X249010000Y-96230000D03*
X251550000Y-98770000D03*
X251550000Y-96230000D03*
X254090000Y-98770000D03*
X254090000Y-96230000D03*
X256630000Y-98770000D03*
X256630000Y-96230000D03*
D21*
X211500000Y-101000000D03*
D22*
X212500000Y-109500000D03*
X206000000Y-110500000D03*
X246500000Y-112000000D03*
X242500000Y-140500000D03*
X206000000Y-120000000D03*
X215500000Y-102000000D03*
X226000000Y-122500000D03*
X227500000Y-110000000D03*
X217000000Y-139000000D03*
X219500000Y-107500000D03*
X220500000Y-114500000D03*
X221000000Y-107500000D03*
X220500000Y-119000000D03*
X222500000Y-107500000D03*
X218000000Y-107500000D03*
D23*
X242000000Y-105000000D02*
X237000000Y-105000000D01*
X229539999Y-99619999D02*
X228690000Y-98770000D01*
X232439990Y-102519990D02*
X229539999Y-99619999D01*
X234519990Y-102519990D02*
X232439990Y-102519990D01*
X237000000Y-105000000D02*
X234519990Y-102519990D01*
X255189999Y-106465001D02*
X254340000Y-107315000D01*
X257930001Y-103724999D02*
X255189999Y-106465001D01*
X257930001Y-95605999D02*
X257930001Y-103724999D01*
X257254001Y-94929999D02*
X257930001Y-95605999D01*
X212210001Y-94929999D02*
X257254001Y-94929999D01*
X210910000Y-96230000D02*
X212210001Y-94929999D01*
X250980000Y-145540000D02*
X247020000Y-149500000D01*
X235480000Y-146614802D02*
X235480000Y-145540000D01*
X238365198Y-149500000D02*
X235480000Y-146614802D01*
X247020000Y-149500000D02*
X238365198Y-149500000D01*
X222805199Y-149440001D02*
X219980000Y-146614802D01*
X231579999Y-149440001D02*
X222805199Y-149440001D01*
X219980000Y-146614802D02*
X219980000Y-145540000D01*
X235480000Y-145540000D02*
X231579999Y-149440001D01*
X240030000Y-138926370D02*
X240030000Y-137795000D01*
X240030000Y-142064802D02*
X240030000Y-138926370D01*
X236554802Y-145540000D02*
X240030000Y-142064802D01*
X235480000Y-145540000D02*
X236554802Y-145540000D01*
X221054802Y-145540000D02*
X219980000Y-145540000D01*
X222250000Y-144344802D02*
X221054802Y-145540000D01*
X222250000Y-137795000D02*
X222250000Y-144344802D01*
X203900000Y-128600000D02*
X201900000Y-128600000D01*
X205350010Y-130050010D02*
X203900000Y-128600000D01*
X213949990Y-130050010D02*
X205350010Y-130050010D01*
X215500000Y-128500000D02*
X213949990Y-130050010D01*
X242085001Y-122274999D02*
X242935000Y-121425000D01*
X241280001Y-123079999D02*
X242085001Y-122274999D01*
X241280001Y-136544999D02*
X241280001Y-123079999D01*
X240030000Y-137795000D02*
X241280001Y-136544999D01*
X249150000Y-104775000D02*
X250500000Y-104775000D01*
X233140001Y-106250001D02*
X247674999Y-106250001D01*
X233000000Y-106110000D02*
X233140001Y-106250001D01*
X247674999Y-106250001D02*
X249150000Y-104775000D01*
X231500000Y-106110000D02*
X233000000Y-106110000D01*
X201500000Y-108200000D02*
X201900000Y-108600000D01*
X204849377Y-101000000D02*
X201249999Y-104599378D01*
X211500000Y-101000000D02*
X204849377Y-101000000D01*
X201249999Y-104599378D02*
X201249999Y-106600001D01*
X201500000Y-106850002D02*
X201500000Y-108200000D01*
X201249999Y-106600001D02*
X201500000Y-106850002D01*
D24*
X224790000Y-129043630D02*
X224790000Y-130175000D01*
X224790000Y-116700000D02*
X224790000Y-129043630D01*
X230300000Y-111190000D02*
X224790000Y-116700000D01*
X230300000Y-111190000D02*
X231500000Y-111190000D01*
X213049990Y-105115689D02*
X219124301Y-111190000D01*
X213049990Y-100909990D02*
X213049990Y-105115689D01*
X219124301Y-111190000D02*
X230300000Y-111190000D01*
X210910000Y-98770000D02*
X213049990Y-100909990D01*
X227330000Y-129043630D02*
X227330000Y-130175000D01*
X230727204Y-112829990D02*
X227330000Y-116227194D01*
X227330000Y-116227194D02*
X227330000Y-129043630D01*
X232170010Y-112829990D02*
X230727204Y-112829990D01*
X232800010Y-112199990D02*
X232170010Y-112829990D01*
X232800010Y-108750010D02*
X232800010Y-112199990D01*
X232700000Y-108650000D02*
X232800010Y-108750010D01*
X231500000Y-108650000D02*
X232700000Y-108650000D01*
X231500000Y-108650000D02*
X217150000Y-108650000D01*
X213450000Y-104950000D02*
X213450000Y-98770000D01*
X217150000Y-108650000D02*
X213450000Y-104950000D01*
X204800000Y-112400000D02*
X204800000Y-113600000D01*
X204820000Y-112380000D02*
X204800000Y-112400000D01*
X215500000Y-112380000D02*
X204820000Y-112380000D01*
X219500000Y-100340000D02*
X221070000Y-98770000D01*
X219500000Y-107500000D02*
X219500000Y-100340000D01*
X221000000Y-101380000D02*
X223610000Y-98770000D01*
X221000000Y-107500000D02*
X221000000Y-101380000D01*
X217679999Y-142240001D02*
X216920000Y-143000000D01*
X220900010Y-139019990D02*
X217679999Y-142240001D01*
X220900010Y-124599990D02*
X220900010Y-139019990D01*
X221250001Y-124249999D02*
X220900010Y-124599990D01*
X221250001Y-115250001D02*
X221250001Y-124249999D01*
X220500000Y-114500000D02*
X221250001Y-115250001D01*
X222500000Y-102420000D02*
X226150000Y-98770000D01*
X222500000Y-107500000D02*
X222500000Y-102420000D01*
X215140001Y-144780001D02*
X215900000Y-145540000D01*
X220500000Y-132748002D02*
X215140001Y-138108001D01*
X215140001Y-138108001D02*
X215140001Y-144780001D01*
X220500000Y-119000000D02*
X220500000Y-132748002D01*
X219919999Y-99322001D02*
X219919999Y-97380001D01*
X218000000Y-101242000D02*
X219919999Y-99322001D01*
X220220001Y-97079999D02*
X221070000Y-96230000D01*
X219919999Y-97380001D02*
X220220001Y-97079999D01*
X218000000Y-107500000D02*
X218000000Y-101242000D01*
X230640001Y-144780001D02*
X231400000Y-145540000D01*
X233849999Y-138323001D02*
X230640001Y-141532999D01*
X234421999Y-136694999D02*
X233849999Y-137266999D01*
X233849999Y-137266999D02*
X233849999Y-138323001D01*
X236389999Y-136694999D02*
X234421999Y-136694999D01*
X230640001Y-141532999D02*
X230640001Y-144780001D01*
X237490000Y-137795000D02*
X236389999Y-136694999D01*
X232420000Y-140325000D02*
X232420000Y-143000000D01*
X234950000Y-137795000D02*
X232420000Y-140325000D01*
X232575021Y-116934979D02*
X231500000Y-118010000D01*
X251364979Y-116934979D02*
X232575021Y-116934979D01*
X253315000Y-118885000D02*
X251364979Y-116934979D01*
X231500000Y-118010000D02*
X231500000Y-118810000D01*
X254365000Y-118885000D02*
X253315000Y-118885000D01*
X231500000Y-120550000D02*
X231500000Y-121350000D01*
X247954989Y-117334989D02*
X234715011Y-117334989D01*
X234715011Y-117334989D02*
X231500000Y-120550000D01*
X249505000Y-118885000D02*
X247954989Y-117334989D01*
X250555000Y-118885000D02*
X249505000Y-118885000D01*
X236855001Y-117734999D02*
X231500000Y-123090000D01*
X244544999Y-117734999D02*
X236855001Y-117734999D01*
X245695000Y-118885000D02*
X244544999Y-117734999D01*
X231500000Y-123090000D02*
X231500000Y-123890000D01*
X246745000Y-118885000D02*
X245695000Y-118885000D01*
X231500000Y-125630000D02*
X231500000Y-126430000D01*
X238245000Y-118885000D02*
X231500000Y-125630000D01*
X242935000Y-118885000D02*
X238245000Y-118885000D01*
D25*
G36*
X211128960Y-94759461D02*
G01*
X211056260Y-94745000D01*
X210763740Y-94745000D01*
X210476842Y-94802068D01*
X210206589Y-94914010D01*
X209963368Y-95076525D01*
X209756525Y-95283368D01*
X209640000Y-95457760D01*
X209523475Y-95283368D01*
X209316632Y-95076525D01*
X209073411Y-94914010D01*
X208803158Y-94802068D01*
X208516260Y-94745000D01*
X208223740Y-94745000D01*
X207936842Y-94802068D01*
X207666589Y-94914010D01*
X207423368Y-95076525D01*
X207216525Y-95283368D01*
X207054010Y-95526589D01*
X206942068Y-95796842D01*
X206885000Y-96083740D01*
X206885000Y-96376260D01*
X206942068Y-96663158D01*
X207054010Y-96933411D01*
X207216525Y-97176632D01*
X207348380Y-97308487D01*
X207275820Y-97330498D01*
X207165506Y-97389463D01*
X207068815Y-97468815D01*
X206989463Y-97565506D01*
X206930498Y-97675820D01*
X206894188Y-97795518D01*
X206881928Y-97920000D01*
X206881928Y-99620000D01*
X206894188Y-99744482D01*
X206930498Y-99864180D01*
X206989463Y-99974494D01*
X207068815Y-100071185D01*
X207165506Y-100150537D01*
X207275820Y-100209502D01*
X207395518Y-100245812D01*
X207520000Y-100258072D01*
X209220000Y-100258072D01*
X209344482Y-100245812D01*
X209464180Y-100209502D01*
X209574494Y-100150537D01*
X209671185Y-100071185D01*
X209750537Y-99974494D01*
X209809502Y-99864180D01*
X209831513Y-99791620D01*
X209963368Y-99923475D01*
X210206589Y-100085990D01*
X210476842Y-100197932D01*
X210763740Y-100255000D01*
X211056260Y-100255000D01*
X211305897Y-100205344D01*
X212314990Y-101214437D01*
X212314991Y-103072388D01*
X212216031Y-102887248D01*
X212011714Y-102638286D01*
X211762752Y-102433969D01*
X211478715Y-102282148D01*
X211170516Y-102188657D01*
X210930322Y-102165000D01*
X210269678Y-102165000D01*
X210029484Y-102188657D01*
X209721285Y-102282148D01*
X209437248Y-102433969D01*
X209188286Y-102638286D01*
X208983969Y-102887248D01*
X208832148Y-103171285D01*
X208738657Y-103479484D01*
X208707089Y-103800000D01*
X208738657Y-104120516D01*
X208832148Y-104428715D01*
X208938991Y-104628604D01*
X208918574Y-104620147D01*
X208641335Y-104565000D01*
X208358665Y-104565000D01*
X208081426Y-104620147D01*
X207820273Y-104728320D01*
X207585241Y-104885363D01*
X207385363Y-105085241D01*
X207228320Y-105320273D01*
X207120147Y-105581426D01*
X207065000Y-105858665D01*
X207065000Y-106141335D01*
X207120147Y-106418574D01*
X207228320Y-106679727D01*
X207385363Y-106914759D01*
X207559208Y-107088604D01*
X207287248Y-107233969D01*
X207038286Y-107438286D01*
X206833969Y-107687248D01*
X206682148Y-107971285D01*
X206588657Y-108279484D01*
X206557089Y-108600000D01*
X206588657Y-108920516D01*
X206682148Y-109228715D01*
X206833969Y-109512752D01*
X207038286Y-109761714D01*
X207287248Y-109966031D01*
X207571285Y-110117852D01*
X207879484Y-110211343D01*
X208119678Y-110235000D01*
X209280322Y-110235000D01*
X209520516Y-110211343D01*
X209828715Y-110117852D01*
X210112752Y-109966031D01*
X210361714Y-109761714D01*
X210566031Y-109512752D01*
X210717852Y-109228715D01*
X210811343Y-108920516D01*
X210842911Y-108600000D01*
X210811343Y-108279484D01*
X210717852Y-107971285D01*
X210566031Y-107687248D01*
X210361714Y-107438286D01*
X210112752Y-107233969D01*
X209828715Y-107082148D01*
X209536032Y-106993364D01*
X209614637Y-106914759D01*
X209771680Y-106679727D01*
X209879853Y-106418574D01*
X209935000Y-106141335D01*
X209935000Y-105858665D01*
X209879853Y-105581426D01*
X209777775Y-105334988D01*
X210029484Y-105411343D01*
X210269678Y-105435000D01*
X210930322Y-105435000D01*
X211170516Y-105411343D01*
X211478715Y-105317852D01*
X211762752Y-105166031D01*
X212011714Y-104961714D01*
X212216031Y-104712752D01*
X212314991Y-104527611D01*
X212314991Y-105079574D01*
X212311434Y-105115689D01*
X212325625Y-105259774D01*
X212350057Y-105340313D01*
X212367654Y-105398322D01*
X212435904Y-105526009D01*
X212527753Y-105637927D01*
X212555798Y-105660943D01*
X218579047Y-111684193D01*
X218602063Y-111712238D01*
X218713981Y-111804087D01*
X218841668Y-111872337D01*
X218938187Y-111901616D01*
X218980215Y-111914365D01*
X219124301Y-111928556D01*
X219160406Y-111925000D01*
X228525553Y-111925000D01*
X224295808Y-116154746D01*
X224267762Y-116177763D01*
X224175913Y-116289681D01*
X224107663Y-116417368D01*
X224079616Y-116509827D01*
X224065635Y-116555915D01*
X224051444Y-116700000D01*
X224055000Y-116736105D01*
X224055001Y-128940251D01*
X223875241Y-129060363D01*
X223675363Y-129260241D01*
X223520000Y-129492759D01*
X223364637Y-129260241D01*
X223164759Y-129060363D01*
X222929727Y-128903320D01*
X222668574Y-128795147D01*
X222391335Y-128740000D01*
X222108665Y-128740000D01*
X221831426Y-128795147D01*
X221635010Y-128876505D01*
X221635010Y-124904436D01*
X221744188Y-124795258D01*
X221772239Y-124772237D01*
X221864088Y-124660319D01*
X221932338Y-124532632D01*
X221974366Y-124394084D01*
X221985001Y-124286104D01*
X221988557Y-124250000D01*
X221985001Y-124213895D01*
X221985001Y-115286106D01*
X221988557Y-115250001D01*
X221974366Y-115105916D01*
X221932338Y-114967367D01*
X221864088Y-114839681D01*
X221795254Y-114755807D01*
X221795251Y-114755804D01*
X221772238Y-114727763D01*
X221744198Y-114704751D01*
X221585000Y-114545553D01*
X221585000Y-114393137D01*
X221543304Y-114183517D01*
X221461515Y-113986060D01*
X221342775Y-113808353D01*
X221191647Y-113657225D01*
X221013940Y-113538485D01*
X220816483Y-113456696D01*
X220606863Y-113415000D01*
X220393137Y-113415000D01*
X220183517Y-113456696D01*
X219986060Y-113538485D01*
X219808353Y-113657225D01*
X219657225Y-113808353D01*
X219538485Y-113986060D01*
X219456696Y-114183517D01*
X219415000Y-114393137D01*
X219415000Y-114606863D01*
X219456696Y-114816483D01*
X219538485Y-115013940D01*
X219657225Y-115191647D01*
X219808353Y-115342775D01*
X219986060Y-115461515D01*
X220183517Y-115543304D01*
X220393137Y-115585000D01*
X220515001Y-115585000D01*
X220515001Y-117915000D01*
X220393137Y-117915000D01*
X220183517Y-117956696D01*
X219986060Y-118038485D01*
X219808353Y-118157225D01*
X219657225Y-118308353D01*
X219538485Y-118486060D01*
X219456696Y-118683517D01*
X219415000Y-118893137D01*
X219415000Y-119106863D01*
X219456696Y-119316483D01*
X219538485Y-119513940D01*
X219657225Y-119691647D01*
X219765000Y-119799422D01*
X219765001Y-132443554D01*
X216770319Y-135438236D01*
X216614637Y-135205241D01*
X216414759Y-135005363D01*
X216179727Y-134848320D01*
X215918574Y-134740147D01*
X215641335Y-134685000D01*
X215358665Y-134685000D01*
X215081426Y-134740147D01*
X214820273Y-134848320D01*
X214585241Y-135005363D01*
X214385363Y-135205241D01*
X214228320Y-135440273D01*
X214120147Y-135701426D01*
X214065000Y-135978665D01*
X214065000Y-136261335D01*
X214120147Y-136538574D01*
X214228320Y-136799727D01*
X214385363Y-137034759D01*
X214585241Y-137234637D01*
X214818237Y-137390319D01*
X214645809Y-137562747D01*
X214617763Y-137585764D01*
X214525914Y-137697682D01*
X214457664Y-137825369D01*
X214440763Y-137881085D01*
X214415636Y-137963916D01*
X214401445Y-138108001D01*
X214405001Y-138144106D01*
X214405002Y-144743886D01*
X214401445Y-144780001D01*
X214415636Y-144924086D01*
X214452560Y-145045806D01*
X214457665Y-145062634D01*
X214525915Y-145190321D01*
X214543068Y-145211222D01*
X214505000Y-145402604D01*
X214505000Y-145677396D01*
X214558609Y-145946907D01*
X214663767Y-146200780D01*
X214816433Y-146429261D01*
X215010739Y-146623567D01*
X215239220Y-146776233D01*
X215493093Y-146881391D01*
X215762604Y-146935000D01*
X216037396Y-146935000D01*
X216306907Y-146881391D01*
X216560780Y-146776233D01*
X216789261Y-146623567D01*
X216920000Y-146492828D01*
X217050739Y-146623567D01*
X217279220Y-146776233D01*
X217533093Y-146881391D01*
X217802604Y-146935000D01*
X218077396Y-146935000D01*
X218346907Y-146881391D01*
X218600780Y-146776233D01*
X218829261Y-146623567D01*
X218948691Y-146504137D01*
X219195469Y-146504137D01*
X219262206Y-146744025D01*
X219510892Y-146860924D01*
X219777606Y-146927061D01*
X220052097Y-146939895D01*
X220323817Y-146898931D01*
X220582326Y-146805744D01*
X220697794Y-146744025D01*
X220764531Y-146504137D01*
X219980000Y-145719605D01*
X219195469Y-146504137D01*
X218948691Y-146504137D01*
X219023567Y-146429261D01*
X219176233Y-146200780D01*
X219202127Y-146138268D01*
X219800395Y-145540000D01*
X220159605Y-145540000D01*
X220944137Y-146324531D01*
X221184025Y-146257794D01*
X221300924Y-146009108D01*
X221367061Y-145742394D01*
X221379895Y-145467903D01*
X221338931Y-145196183D01*
X221245744Y-144937674D01*
X221184025Y-144822206D01*
X220944137Y-144755469D01*
X220159605Y-145540000D01*
X219800395Y-145540000D01*
X219202127Y-144941732D01*
X219176233Y-144879220D01*
X219023567Y-144650739D01*
X218829261Y-144456433D01*
X218701170Y-144370845D01*
X218822604Y-144395000D01*
X219097396Y-144395000D01*
X219254478Y-144363755D01*
X219195469Y-144575863D01*
X219980000Y-145360395D01*
X220764531Y-144575863D01*
X220715069Y-144398072D01*
X221760000Y-144398072D01*
X221884482Y-144385812D01*
X222004180Y-144349502D01*
X222114494Y-144290537D01*
X222211185Y-144211185D01*
X222290537Y-144114494D01*
X222349502Y-144004180D01*
X222385812Y-143884482D01*
X222398072Y-143760000D01*
X222398072Y-142240000D01*
X222385812Y-142115518D01*
X222349502Y-141995820D01*
X222290537Y-141885506D01*
X222211185Y-141788815D01*
X222114494Y-141709463D01*
X222004180Y-141650498D01*
X221884482Y-141614188D01*
X221760000Y-141601928D01*
X220240000Y-141601928D01*
X220115518Y-141614188D01*
X219995820Y-141650498D01*
X219885506Y-141709463D01*
X219788815Y-141788815D01*
X219742581Y-141845152D01*
X219620780Y-141763767D01*
X219366907Y-141658609D01*
X219311799Y-141647647D01*
X221394203Y-139565244D01*
X221422248Y-139542228D01*
X221514097Y-139430310D01*
X221582347Y-139302623D01*
X221603724Y-139232154D01*
X221964250Y-139230000D01*
X222123000Y-139071250D01*
X222123000Y-137922000D01*
X222377000Y-137922000D01*
X222377000Y-139071250D01*
X222535750Y-139230000D01*
X223050000Y-139233072D01*
X223174482Y-139220812D01*
X223294180Y-139184502D01*
X223404494Y-139125537D01*
X223501185Y-139046185D01*
X223580537Y-138949494D01*
X223639502Y-138839180D01*
X223675812Y-138719482D01*
X223678231Y-138694920D01*
X223826586Y-138858519D01*
X224052580Y-139026037D01*
X224306913Y-139146246D01*
X224440961Y-139186904D01*
X224663000Y-139064915D01*
X224663000Y-137922000D01*
X224917000Y-137922000D01*
X224917000Y-139064915D01*
X225139039Y-139186904D01*
X225273087Y-139146246D01*
X225527420Y-139026037D01*
X225753414Y-138858519D01*
X225942385Y-138650131D01*
X226060000Y-138454018D01*
X226177615Y-138650131D01*
X226366586Y-138858519D01*
X226592580Y-139026037D01*
X226846913Y-139146246D01*
X226980961Y-139186904D01*
X227203000Y-139064915D01*
X227203000Y-137922000D01*
X224917000Y-137922000D01*
X224663000Y-137922000D01*
X222377000Y-137922000D01*
X222123000Y-137922000D01*
X222103000Y-137922000D01*
X222103000Y-137668000D01*
X222123000Y-137668000D01*
X222123000Y-136518750D01*
X222377000Y-136518750D01*
X222377000Y-137668000D01*
X224663000Y-137668000D01*
X224663000Y-136525085D01*
X224917000Y-136525085D01*
X224917000Y-137668000D01*
X227203000Y-137668000D01*
X227203000Y-136525085D01*
X227457000Y-136525085D01*
X227457000Y-137668000D01*
X227477000Y-137668000D01*
X227477000Y-137922000D01*
X227457000Y-137922000D01*
X227457000Y-139064915D01*
X227679039Y-139186904D01*
X227813087Y-139146246D01*
X228067420Y-139026037D01*
X228293414Y-138858519D01*
X228482385Y-138650131D01*
X228593933Y-138464135D01*
X228598320Y-138474727D01*
X228755363Y-138709759D01*
X228955241Y-138909637D01*
X229190273Y-139066680D01*
X229451426Y-139174853D01*
X229728665Y-139230000D01*
X230011335Y-139230000D01*
X230288574Y-139174853D01*
X230549727Y-139066680D01*
X230784759Y-138909637D01*
X230984637Y-138709759D01*
X231140000Y-138477241D01*
X231295363Y-138709759D01*
X231495241Y-138909637D01*
X231730273Y-139066680D01*
X231968286Y-139165268D01*
X230145809Y-140987745D01*
X230117763Y-141010762D01*
X230025914Y-141122680D01*
X229957664Y-141250367D01*
X229928385Y-141346886D01*
X229915636Y-141388914D01*
X229901445Y-141532999D01*
X229905001Y-141569104D01*
X229905002Y-144743886D01*
X229901445Y-144780001D01*
X229915636Y-144924086D01*
X229952560Y-145045806D01*
X229957665Y-145062634D01*
X230025915Y-145190321D01*
X230043068Y-145211222D01*
X230005000Y-145402604D01*
X230005000Y-145677396D01*
X230058609Y-145946907D01*
X230163767Y-146200780D01*
X230316433Y-146429261D01*
X230510739Y-146623567D01*
X230739220Y-146776233D01*
X230993093Y-146881391D01*
X231262604Y-146935000D01*
X231537396Y-146935000D01*
X231806907Y-146881391D01*
X232060780Y-146776233D01*
X232289261Y-146623567D01*
X232420000Y-146492828D01*
X232550739Y-146623567D01*
X232779220Y-146776233D01*
X233033093Y-146881391D01*
X233302604Y-146935000D01*
X233577396Y-146935000D01*
X233846907Y-146881391D01*
X234100780Y-146776233D01*
X234329261Y-146623567D01*
X234448691Y-146504137D01*
X234695469Y-146504137D01*
X234762206Y-146744025D01*
X235010892Y-146860924D01*
X235277606Y-146927061D01*
X235552097Y-146939895D01*
X235823817Y-146898931D01*
X236082326Y-146805744D01*
X236197794Y-146744025D01*
X236264531Y-146504137D01*
X235480000Y-145719605D01*
X234695469Y-146504137D01*
X234448691Y-146504137D01*
X234523567Y-146429261D01*
X234676233Y-146200780D01*
X234702127Y-146138268D01*
X235300395Y-145540000D01*
X235659605Y-145540000D01*
X236444137Y-146324531D01*
X236684025Y-146257794D01*
X236800924Y-146009108D01*
X236867061Y-145742394D01*
X236879895Y-145467903D01*
X236870051Y-145402604D01*
X245505000Y-145402604D01*
X245505000Y-145677396D01*
X245558609Y-145946907D01*
X245663767Y-146200780D01*
X245816433Y-146429261D01*
X246010739Y-146623567D01*
X246239220Y-146776233D01*
X246493093Y-146881391D01*
X246762604Y-146935000D01*
X247037396Y-146935000D01*
X247306907Y-146881391D01*
X247560780Y-146776233D01*
X247789261Y-146623567D01*
X247920000Y-146492828D01*
X248050739Y-146623567D01*
X248279220Y-146776233D01*
X248533093Y-146881391D01*
X248802604Y-146935000D01*
X249077396Y-146935000D01*
X249346907Y-146881391D01*
X249600780Y-146776233D01*
X249829261Y-146623567D01*
X249948691Y-146504137D01*
X250195469Y-146504137D01*
X250262206Y-146744025D01*
X250510892Y-146860924D01*
X250777606Y-146927061D01*
X251052097Y-146939895D01*
X251323817Y-146898931D01*
X251582326Y-146805744D01*
X251697794Y-146744025D01*
X251764531Y-146504137D01*
X250980000Y-145719605D01*
X250195469Y-146504137D01*
X249948691Y-146504137D01*
X250023567Y-146429261D01*
X250176233Y-146200780D01*
X250202127Y-146138268D01*
X250800395Y-145540000D01*
X251159605Y-145540000D01*
X251944137Y-146324531D01*
X252184025Y-146257794D01*
X252300924Y-146009108D01*
X252367061Y-145742394D01*
X252379895Y-145467903D01*
X252338931Y-145196183D01*
X252245744Y-144937674D01*
X252184025Y-144822206D01*
X251944137Y-144755469D01*
X251159605Y-145540000D01*
X250800395Y-145540000D01*
X250202127Y-144941732D01*
X250176233Y-144879220D01*
X250023567Y-144650739D01*
X249829261Y-144456433D01*
X249701170Y-144370845D01*
X249822604Y-144395000D01*
X250097396Y-144395000D01*
X250254478Y-144363755D01*
X250195469Y-144575863D01*
X250980000Y-145360395D01*
X251764531Y-144575863D01*
X251715069Y-144398072D01*
X252760000Y-144398072D01*
X252884482Y-144385812D01*
X253004180Y-144349502D01*
X253114494Y-144290537D01*
X253211185Y-144211185D01*
X253290537Y-144114494D01*
X253349502Y-144004180D01*
X253385812Y-143884482D01*
X253398072Y-143760000D01*
X253398072Y-142240000D01*
X253385812Y-142115518D01*
X253349502Y-141995820D01*
X253290537Y-141885506D01*
X253211185Y-141788815D01*
X253114494Y-141709463D01*
X253004180Y-141650498D01*
X252884482Y-141614188D01*
X252760000Y-141601928D01*
X251240000Y-141601928D01*
X251115518Y-141614188D01*
X250995820Y-141650498D01*
X250885506Y-141709463D01*
X250788815Y-141788815D01*
X250742581Y-141845152D01*
X250620780Y-141763767D01*
X250366907Y-141658609D01*
X250097396Y-141605000D01*
X249822604Y-141605000D01*
X249553093Y-141658609D01*
X249299220Y-141763767D01*
X249070739Y-141916433D01*
X248940000Y-142047172D01*
X248809261Y-141916433D01*
X248580780Y-141763767D01*
X248326907Y-141658609D01*
X248057396Y-141605000D01*
X247782604Y-141605000D01*
X247513093Y-141658609D01*
X247259220Y-141763767D01*
X247030739Y-141916433D01*
X246836433Y-142110739D01*
X246683767Y-142339220D01*
X246578609Y-142593093D01*
X246525000Y-142862604D01*
X246525000Y-143137396D01*
X246578609Y-143406907D01*
X246683767Y-143660780D01*
X246836433Y-143889261D01*
X247030739Y-144083567D01*
X247158830Y-144169155D01*
X247037396Y-144145000D01*
X246762604Y-144145000D01*
X246493093Y-144198609D01*
X246239220Y-144303767D01*
X246010739Y-144456433D01*
X245816433Y-144650739D01*
X245663767Y-144879220D01*
X245558609Y-145133093D01*
X245505000Y-145402604D01*
X236870051Y-145402604D01*
X236838931Y-145196183D01*
X236745744Y-144937674D01*
X236684025Y-144822206D01*
X236444137Y-144755469D01*
X235659605Y-145540000D01*
X235300395Y-145540000D01*
X234702127Y-144941732D01*
X234676233Y-144879220D01*
X234523567Y-144650739D01*
X234329261Y-144456433D01*
X234201170Y-144370845D01*
X234322604Y-144395000D01*
X234597396Y-144395000D01*
X234754478Y-144363755D01*
X234695469Y-144575863D01*
X235480000Y-145360395D01*
X236264531Y-144575863D01*
X236215069Y-144398072D01*
X237260000Y-144398072D01*
X237384482Y-144385812D01*
X237504180Y-144349502D01*
X237614494Y-144290537D01*
X237711185Y-144211185D01*
X237790537Y-144114494D01*
X237849502Y-144004180D01*
X237885812Y-143884482D01*
X237898072Y-143760000D01*
X237898072Y-142240000D01*
X237885812Y-142115518D01*
X237849502Y-141995820D01*
X237790537Y-141885506D01*
X237711185Y-141788815D01*
X237614494Y-141709463D01*
X237504180Y-141650498D01*
X237384482Y-141614188D01*
X237260000Y-141601928D01*
X235740000Y-141601928D01*
X235615518Y-141614188D01*
X235495820Y-141650498D01*
X235385506Y-141709463D01*
X235288815Y-141788815D01*
X235242581Y-141845152D01*
X235120780Y-141763767D01*
X234866907Y-141658609D01*
X234597396Y-141605000D01*
X234322604Y-141605000D01*
X234053093Y-141658609D01*
X233799220Y-141763767D01*
X233570739Y-141916433D01*
X233440000Y-142047172D01*
X233309261Y-141916433D01*
X233155000Y-141813359D01*
X233155000Y-140629446D01*
X234596625Y-139187822D01*
X234808665Y-139230000D01*
X235091335Y-139230000D01*
X235368574Y-139174853D01*
X235629727Y-139066680D01*
X235864759Y-138909637D01*
X236064637Y-138709759D01*
X236220000Y-138477241D01*
X236375363Y-138709759D01*
X236575241Y-138909637D01*
X236810273Y-139066680D01*
X237071426Y-139174853D01*
X237348665Y-139230000D01*
X237631335Y-139230000D01*
X237908574Y-139174853D01*
X238169727Y-139066680D01*
X238404759Y-138909637D01*
X238604637Y-138709759D01*
X238761680Y-138474727D01*
X238766067Y-138464135D01*
X238877615Y-138650131D01*
X239066586Y-138858519D01*
X239292580Y-139026037D01*
X239546913Y-139146246D01*
X239680961Y-139186904D01*
X239903000Y-139064915D01*
X239903000Y-137922000D01*
X240157000Y-137922000D01*
X240157000Y-139064915D01*
X240379039Y-139186904D01*
X240513087Y-139146246D01*
X240767420Y-139026037D01*
X240993414Y-138858519D01*
X241182385Y-138650131D01*
X241327070Y-138408881D01*
X241421909Y-138144040D01*
X241300624Y-137922000D01*
X240157000Y-137922000D01*
X239903000Y-137922000D01*
X239883000Y-137922000D01*
X239883000Y-137668000D01*
X239903000Y-137668000D01*
X239903000Y-136525085D01*
X240157000Y-136525085D01*
X240157000Y-137668000D01*
X241300624Y-137668000D01*
X241421909Y-137445960D01*
X241327070Y-137181119D01*
X241182385Y-136939869D01*
X240993414Y-136731481D01*
X240767420Y-136563963D01*
X240513087Y-136443754D01*
X240379039Y-136403096D01*
X240157000Y-136525085D01*
X239903000Y-136525085D01*
X239680961Y-136403096D01*
X239546913Y-136443754D01*
X239292580Y-136563963D01*
X239066586Y-136731481D01*
X238877615Y-136939869D01*
X238766067Y-137125865D01*
X238761680Y-137115273D01*
X238604637Y-136880241D01*
X238404759Y-136680363D01*
X238169727Y-136523320D01*
X237908574Y-136415147D01*
X237631335Y-136360000D01*
X237348665Y-136360000D01*
X237136624Y-136402178D01*
X236935257Y-136200811D01*
X236912237Y-136172761D01*
X236800319Y-136080912D01*
X236672632Y-136012662D01*
X236534084Y-135970634D01*
X236426104Y-135959999D01*
X236389999Y-135956443D01*
X236353894Y-135959999D01*
X234458095Y-135959999D01*
X234421998Y-135956444D01*
X234385901Y-135959999D01*
X234385894Y-135959999D01*
X234292131Y-135969234D01*
X234277913Y-135970634D01*
X234251439Y-135978665D01*
X234139366Y-136012662D01*
X234011679Y-136080912D01*
X233899761Y-136172761D01*
X233876745Y-136200806D01*
X233360974Y-136716578D01*
X233324759Y-136680363D01*
X233089727Y-136523320D01*
X232828574Y-136415147D01*
X232551335Y-136360000D01*
X232268665Y-136360000D01*
X231991426Y-136415147D01*
X231730273Y-136523320D01*
X231495241Y-136680363D01*
X231295363Y-136880241D01*
X231140000Y-137112759D01*
X230984637Y-136880241D01*
X230784759Y-136680363D01*
X230549727Y-136523320D01*
X230288574Y-136415147D01*
X230011335Y-136360000D01*
X229728665Y-136360000D01*
X229451426Y-136415147D01*
X229190273Y-136523320D01*
X228955241Y-136680363D01*
X228755363Y-136880241D01*
X228598320Y-137115273D01*
X228593933Y-137125865D01*
X228482385Y-136939869D01*
X228293414Y-136731481D01*
X228067420Y-136563963D01*
X227813087Y-136443754D01*
X227679039Y-136403096D01*
X227457000Y-136525085D01*
X227203000Y-136525085D01*
X226980961Y-136403096D01*
X226846913Y-136443754D01*
X226592580Y-136563963D01*
X226366586Y-136731481D01*
X226177615Y-136939869D01*
X226060000Y-137135982D01*
X225942385Y-136939869D01*
X225753414Y-136731481D01*
X225527420Y-136563963D01*
X225273087Y-136443754D01*
X225139039Y-136403096D01*
X224917000Y-136525085D01*
X224663000Y-136525085D01*
X224440961Y-136403096D01*
X224306913Y-136443754D01*
X224052580Y-136563963D01*
X223826586Y-136731481D01*
X223678231Y-136895080D01*
X223675812Y-136870518D01*
X223639502Y-136750820D01*
X223580537Y-136640506D01*
X223501185Y-136543815D01*
X223404494Y-136464463D01*
X223294180Y-136405498D01*
X223174482Y-136369188D01*
X223050000Y-136356928D01*
X222535750Y-136360000D01*
X222377000Y-136518750D01*
X222123000Y-136518750D01*
X221964250Y-136360000D01*
X221635010Y-136358033D01*
X221635010Y-131473495D01*
X221831426Y-131554853D01*
X222108665Y-131610000D01*
X222391335Y-131610000D01*
X222668574Y-131554853D01*
X222929727Y-131446680D01*
X223164759Y-131289637D01*
X223364637Y-131089759D01*
X223520000Y-130857241D01*
X223675363Y-131089759D01*
X223875241Y-131289637D01*
X224110273Y-131446680D01*
X224371426Y-131554853D01*
X224648665Y-131610000D01*
X224931335Y-131610000D01*
X225208574Y-131554853D01*
X225469727Y-131446680D01*
X225704759Y-131289637D01*
X225904637Y-131089759D01*
X226060000Y-130857241D01*
X226215363Y-131089759D01*
X226415241Y-131289637D01*
X226650273Y-131446680D01*
X226911426Y-131554853D01*
X227188665Y-131610000D01*
X227471335Y-131610000D01*
X227748574Y-131554853D01*
X228009727Y-131446680D01*
X228244759Y-131289637D01*
X228444637Y-131089759D01*
X228600000Y-130857241D01*
X228755363Y-131089759D01*
X228955241Y-131289637D01*
X229190273Y-131446680D01*
X229451426Y-131554853D01*
X229728665Y-131610000D01*
X230011335Y-131610000D01*
X230288574Y-131554853D01*
X230549727Y-131446680D01*
X230784759Y-131289637D01*
X230984637Y-131089759D01*
X231140000Y-130857241D01*
X231295363Y-131089759D01*
X231495241Y-131289637D01*
X231730273Y-131446680D01*
X231991426Y-131554853D01*
X232268665Y-131610000D01*
X232551335Y-131610000D01*
X232828574Y-131554853D01*
X233089727Y-131446680D01*
X233324759Y-131289637D01*
X233524637Y-131089759D01*
X233680000Y-130857241D01*
X233835363Y-131089759D01*
X234035241Y-131289637D01*
X234270273Y-131446680D01*
X234531426Y-131554853D01*
X234808665Y-131610000D01*
X235091335Y-131610000D01*
X235368574Y-131554853D01*
X235629727Y-131446680D01*
X235864759Y-131289637D01*
X236064637Y-131089759D01*
X236220000Y-130857241D01*
X236375363Y-131089759D01*
X236575241Y-131289637D01*
X236810273Y-131446680D01*
X237071426Y-131554853D01*
X237348665Y-131610000D01*
X237631335Y-131610000D01*
X237908574Y-131554853D01*
X238169727Y-131446680D01*
X238404759Y-131289637D01*
X238604637Y-131089759D01*
X238760000Y-130857241D01*
X238915363Y-131089759D01*
X239115241Y-131289637D01*
X239350273Y-131446680D01*
X239611426Y-131554853D01*
X239888665Y-131610000D01*
X240171335Y-131610000D01*
X240448574Y-131554853D01*
X240709727Y-131446680D01*
X240944759Y-131289637D01*
X241144637Y-131089759D01*
X241301680Y-130854727D01*
X241409853Y-130593574D01*
X241465000Y-130316335D01*
X241465000Y-130033665D01*
X241409853Y-129756426D01*
X241301680Y-129495273D01*
X241144637Y-129260241D01*
X240944759Y-129060363D01*
X240709727Y-128903320D01*
X240448574Y-128795147D01*
X240171335Y-128740000D01*
X239888665Y-128740000D01*
X239611426Y-128795147D01*
X239350273Y-128903320D01*
X239115241Y-129060363D01*
X238915363Y-129260241D01*
X238760000Y-129492759D01*
X238604637Y-129260241D01*
X238404759Y-129060363D01*
X238169727Y-128903320D01*
X237908574Y-128795147D01*
X237631335Y-128740000D01*
X237348665Y-128740000D01*
X237071426Y-128795147D01*
X236810273Y-128903320D01*
X236575241Y-129060363D01*
X236375363Y-129260241D01*
X236220000Y-129492759D01*
X236064637Y-129260241D01*
X235864759Y-129060363D01*
X235629727Y-128903320D01*
X235368574Y-128795147D01*
X235091335Y-128740000D01*
X234808665Y-128740000D01*
X234531426Y-128795147D01*
X234270273Y-128903320D01*
X234035241Y-129060363D01*
X233835363Y-129260241D01*
X233680000Y-129492759D01*
X233524637Y-129260241D01*
X233324759Y-129060363D01*
X233089727Y-128903320D01*
X232828574Y-128795147D01*
X232551335Y-128740000D01*
X232268665Y-128740000D01*
X231991426Y-128795147D01*
X231730273Y-128903320D01*
X231495241Y-129060363D01*
X231295363Y-129260241D01*
X231140000Y-129492759D01*
X230984637Y-129260241D01*
X230784759Y-129060363D01*
X230549727Y-128903320D01*
X230288574Y-128795147D01*
X230011335Y-128740000D01*
X229728665Y-128740000D01*
X229451426Y-128795147D01*
X229190273Y-128903320D01*
X228955241Y-129060363D01*
X228755363Y-129260241D01*
X228600000Y-129492759D01*
X228444637Y-129260241D01*
X228244759Y-129060363D01*
X228065000Y-128940252D01*
X228065000Y-116531640D01*
X228326640Y-116270000D01*
X229859025Y-116270000D01*
X229882870Y-116512102D01*
X229953489Y-116744901D01*
X230068167Y-116959449D01*
X230222498Y-117147502D01*
X230410551Y-117301833D01*
X230625099Y-117416511D01*
X230857898Y-117487130D01*
X230969279Y-117498100D01*
X230894458Y-117589269D01*
X230857898Y-117592870D01*
X230625099Y-117663489D01*
X230410551Y-117778167D01*
X230222498Y-117932498D01*
X230068167Y-118120551D01*
X229953489Y-118335099D01*
X229882870Y-118567898D01*
X229859025Y-118810000D01*
X229882870Y-119052102D01*
X229953489Y-119284901D01*
X230068167Y-119499449D01*
X230222498Y-119687502D01*
X230410551Y-119841833D01*
X230625099Y-119956511D01*
X230857898Y-120027130D01*
X230969279Y-120038100D01*
X230894458Y-120129269D01*
X230857898Y-120132870D01*
X230625099Y-120203489D01*
X230410551Y-120318167D01*
X230222498Y-120472498D01*
X230068167Y-120660551D01*
X229953489Y-120875099D01*
X229882870Y-121107898D01*
X229859025Y-121350000D01*
X229882870Y-121592102D01*
X229953489Y-121824901D01*
X230068167Y-122039449D01*
X230222498Y-122227502D01*
X230410551Y-122381833D01*
X230625099Y-122496511D01*
X230857898Y-122567130D01*
X230969279Y-122578100D01*
X230894458Y-122669269D01*
X230857898Y-122672870D01*
X230625099Y-122743489D01*
X230410551Y-122858167D01*
X230222498Y-123012498D01*
X230068167Y-123200551D01*
X229953489Y-123415099D01*
X229882870Y-123647898D01*
X229859025Y-123890000D01*
X229882870Y-124132102D01*
X229953489Y-124364901D01*
X230068167Y-124579449D01*
X230222498Y-124767502D01*
X230410551Y-124921833D01*
X230625099Y-125036511D01*
X230857898Y-125107130D01*
X230969279Y-125118100D01*
X230894458Y-125209269D01*
X230857898Y-125212870D01*
X230625099Y-125283489D01*
X230410551Y-125398167D01*
X230222498Y-125552498D01*
X230068167Y-125740551D01*
X229953489Y-125955099D01*
X229882870Y-126187898D01*
X229859025Y-126430000D01*
X229882870Y-126672102D01*
X229953489Y-126904901D01*
X230068167Y-127119449D01*
X230222498Y-127307502D01*
X230410551Y-127461833D01*
X230625099Y-127576511D01*
X230857898Y-127647130D01*
X231039335Y-127665000D01*
X231960665Y-127665000D01*
X232142102Y-127647130D01*
X232374901Y-127576511D01*
X232589449Y-127461833D01*
X232777502Y-127307502D01*
X232931833Y-127119449D01*
X233046511Y-126904901D01*
X233117130Y-126672102D01*
X233140975Y-126430000D01*
X233117130Y-126187898D01*
X233046511Y-125955099D01*
X232931833Y-125740551D01*
X232777502Y-125552498D01*
X232689318Y-125480128D01*
X234350706Y-123818740D01*
X241450000Y-123818740D01*
X241450000Y-124111260D01*
X241507068Y-124398158D01*
X241619010Y-124668411D01*
X241781525Y-124911632D01*
X241988368Y-125118475D01*
X242231589Y-125280990D01*
X242501842Y-125392932D01*
X242788740Y-125450000D01*
X243081260Y-125450000D01*
X243368158Y-125392932D01*
X243638411Y-125280990D01*
X243881632Y-125118475D01*
X244088475Y-124911632D01*
X244250990Y-124668411D01*
X244362932Y-124398158D01*
X244420000Y-124111260D01*
X244420000Y-123818740D01*
X245260000Y-123818740D01*
X245260000Y-124111260D01*
X245317068Y-124398158D01*
X245429010Y-124668411D01*
X245591525Y-124911632D01*
X245798368Y-125118475D01*
X246041589Y-125280990D01*
X246311842Y-125392932D01*
X246598740Y-125450000D01*
X246891260Y-125450000D01*
X247178158Y-125392932D01*
X247448411Y-125280990D01*
X247691632Y-125118475D01*
X247898475Y-124911632D01*
X248060990Y-124668411D01*
X248172932Y-124398158D01*
X248230000Y-124111260D01*
X248230000Y-123818740D01*
X249070000Y-123818740D01*
X249070000Y-124111260D01*
X249127068Y-124398158D01*
X249239010Y-124668411D01*
X249401525Y-124911632D01*
X249608368Y-125118475D01*
X249851589Y-125280990D01*
X250121842Y-125392932D01*
X250408740Y-125450000D01*
X250701260Y-125450000D01*
X250988158Y-125392932D01*
X251258411Y-125280990D01*
X251501632Y-125118475D01*
X251708475Y-124911632D01*
X251870990Y-124668411D01*
X251982932Y-124398158D01*
X252040000Y-124111260D01*
X252040000Y-123818740D01*
X252880000Y-123818740D01*
X252880000Y-124111260D01*
X252937068Y-124398158D01*
X253049010Y-124668411D01*
X253211525Y-124911632D01*
X253418368Y-125118475D01*
X253661589Y-125280990D01*
X253931842Y-125392932D01*
X254218740Y-125450000D01*
X254511260Y-125450000D01*
X254798158Y-125392932D01*
X255068411Y-125280990D01*
X255311632Y-125118475D01*
X255518475Y-124911632D01*
X255680990Y-124668411D01*
X255792932Y-124398158D01*
X255850000Y-124111260D01*
X255850000Y-123818740D01*
X255792932Y-123531842D01*
X255680990Y-123261589D01*
X255518475Y-123018368D01*
X255311632Y-122811525D01*
X255129466Y-122689805D01*
X255246355Y-122620178D01*
X255462588Y-122425269D01*
X255636641Y-122191920D01*
X255761825Y-121929099D01*
X255806476Y-121781890D01*
X255685155Y-121552000D01*
X254492000Y-121552000D01*
X254492000Y-121572000D01*
X254238000Y-121572000D01*
X254238000Y-121552000D01*
X253044845Y-121552000D01*
X252923524Y-121781890D01*
X252968175Y-121929099D01*
X253093359Y-122191920D01*
X253267412Y-122425269D01*
X253483645Y-122620178D01*
X253600534Y-122689805D01*
X253418368Y-122811525D01*
X253211525Y-123018368D01*
X253049010Y-123261589D01*
X252937068Y-123531842D01*
X252880000Y-123818740D01*
X252040000Y-123818740D01*
X251982932Y-123531842D01*
X251870990Y-123261589D01*
X251708475Y-123018368D01*
X251501632Y-122811525D01*
X251319466Y-122689805D01*
X251436355Y-122620178D01*
X251652588Y-122425269D01*
X251826641Y-122191920D01*
X251951825Y-121929099D01*
X251996476Y-121781890D01*
X251875155Y-121552000D01*
X250682000Y-121552000D01*
X250682000Y-121572000D01*
X250428000Y-121572000D01*
X250428000Y-121552000D01*
X249234845Y-121552000D01*
X249113524Y-121781890D01*
X249158175Y-121929099D01*
X249283359Y-122191920D01*
X249457412Y-122425269D01*
X249673645Y-122620178D01*
X249790534Y-122689805D01*
X249608368Y-122811525D01*
X249401525Y-123018368D01*
X249239010Y-123261589D01*
X249127068Y-123531842D01*
X249070000Y-123818740D01*
X248230000Y-123818740D01*
X248172932Y-123531842D01*
X248060990Y-123261589D01*
X247898475Y-123018368D01*
X247691632Y-122811525D01*
X247509466Y-122689805D01*
X247626355Y-122620178D01*
X247842588Y-122425269D01*
X248016641Y-122191920D01*
X248141825Y-121929099D01*
X248186476Y-121781890D01*
X248065155Y-121552000D01*
X246872000Y-121552000D01*
X246872000Y-121572000D01*
X246618000Y-121572000D01*
X246618000Y-121552000D01*
X245424845Y-121552000D01*
X245303524Y-121781890D01*
X245348175Y-121929099D01*
X245473359Y-122191920D01*
X245647412Y-122425269D01*
X245863645Y-122620178D01*
X245980534Y-122689805D01*
X245798368Y-122811525D01*
X245591525Y-123018368D01*
X245429010Y-123261589D01*
X245317068Y-123531842D01*
X245260000Y-123818740D01*
X244420000Y-123818740D01*
X244362932Y-123531842D01*
X244250990Y-123261589D01*
X244088475Y-123018368D01*
X243881632Y-122811525D01*
X243699466Y-122689805D01*
X243816355Y-122620178D01*
X244032588Y-122425269D01*
X244206641Y-122191920D01*
X244331825Y-121929099D01*
X244376476Y-121781890D01*
X244255155Y-121552000D01*
X243062000Y-121552000D01*
X243062000Y-121572000D01*
X242808000Y-121572000D01*
X242808000Y-121552000D01*
X241614845Y-121552000D01*
X241493524Y-121781890D01*
X241538175Y-121929099D01*
X241663359Y-122191920D01*
X241837412Y-122425269D01*
X242053645Y-122620178D01*
X242170534Y-122689805D01*
X241988368Y-122811525D01*
X241781525Y-123018368D01*
X241619010Y-123261589D01*
X241507068Y-123531842D01*
X241450000Y-123818740D01*
X234350706Y-123818740D01*
X238549447Y-119620000D01*
X241446928Y-119620000D01*
X241446928Y-119735000D01*
X241459188Y-119859482D01*
X241495498Y-119979180D01*
X241554463Y-120089494D01*
X241633815Y-120186185D01*
X241730506Y-120265537D01*
X241840820Y-120324502D01*
X241921466Y-120348966D01*
X241837412Y-120424731D01*
X241663359Y-120658080D01*
X241538175Y-120920901D01*
X241493524Y-121068110D01*
X241614845Y-121298000D01*
X242808000Y-121298000D01*
X242808000Y-121278000D01*
X243062000Y-121278000D01*
X243062000Y-121298000D01*
X244255155Y-121298000D01*
X244376476Y-121068110D01*
X244331825Y-120920901D01*
X244206641Y-120658080D01*
X244032588Y-120424731D01*
X243948534Y-120348966D01*
X244029180Y-120324502D01*
X244139494Y-120265537D01*
X244236185Y-120186185D01*
X244315537Y-120089494D01*
X244374502Y-119979180D01*
X244410812Y-119859482D01*
X244423072Y-119735000D01*
X244423072Y-118652518D01*
X245149746Y-119379193D01*
X245172762Y-119407238D01*
X245256928Y-119476311D01*
X245256928Y-119735000D01*
X245269188Y-119859482D01*
X245305498Y-119979180D01*
X245364463Y-120089494D01*
X245443815Y-120186185D01*
X245540506Y-120265537D01*
X245650820Y-120324502D01*
X245731466Y-120348966D01*
X245647412Y-120424731D01*
X245473359Y-120658080D01*
X245348175Y-120920901D01*
X245303524Y-121068110D01*
X245424845Y-121298000D01*
X246618000Y-121298000D01*
X246618000Y-121278000D01*
X246872000Y-121278000D01*
X246872000Y-121298000D01*
X248065155Y-121298000D01*
X248186476Y-121068110D01*
X248141825Y-120920901D01*
X248016641Y-120658080D01*
X247842588Y-120424731D01*
X247758534Y-120348966D01*
X247839180Y-120324502D01*
X247949494Y-120265537D01*
X248046185Y-120186185D01*
X248125537Y-120089494D01*
X248184502Y-119979180D01*
X248220812Y-119859482D01*
X248233072Y-119735000D01*
X248233072Y-118652519D01*
X248959746Y-119379193D01*
X248982762Y-119407238D01*
X249010806Y-119430253D01*
X249066928Y-119476311D01*
X249066928Y-119735000D01*
X249079188Y-119859482D01*
X249115498Y-119979180D01*
X249174463Y-120089494D01*
X249253815Y-120186185D01*
X249350506Y-120265537D01*
X249460820Y-120324502D01*
X249541466Y-120348966D01*
X249457412Y-120424731D01*
X249283359Y-120658080D01*
X249158175Y-120920901D01*
X249113524Y-121068110D01*
X249234845Y-121298000D01*
X250428000Y-121298000D01*
X250428000Y-121278000D01*
X250682000Y-121278000D01*
X250682000Y-121298000D01*
X251875155Y-121298000D01*
X251996476Y-121068110D01*
X251951825Y-120920901D01*
X251826641Y-120658080D01*
X251652588Y-120424731D01*
X251568534Y-120348966D01*
X251649180Y-120324502D01*
X251759494Y-120265537D01*
X251856185Y-120186185D01*
X251935537Y-120089494D01*
X251994502Y-119979180D01*
X252030812Y-119859482D01*
X252043072Y-119735000D01*
X252043072Y-118652519D01*
X252769746Y-119379193D01*
X252792762Y-119407238D01*
X252876928Y-119476311D01*
X252876928Y-119735000D01*
X252889188Y-119859482D01*
X252925498Y-119979180D01*
X252984463Y-120089494D01*
X253063815Y-120186185D01*
X253160506Y-120265537D01*
X253270820Y-120324502D01*
X253351466Y-120348966D01*
X253267412Y-120424731D01*
X253093359Y-120658080D01*
X252968175Y-120920901D01*
X252923524Y-121068110D01*
X253044845Y-121298000D01*
X254238000Y-121298000D01*
X254238000Y-121278000D01*
X254492000Y-121278000D01*
X254492000Y-121298000D01*
X255685155Y-121298000D01*
X255806476Y-121068110D01*
X255761825Y-120920901D01*
X255636641Y-120658080D01*
X255462588Y-120424731D01*
X255378534Y-120348966D01*
X255459180Y-120324502D01*
X255569494Y-120265537D01*
X255666185Y-120186185D01*
X255745537Y-120089494D01*
X255804502Y-119979180D01*
X255840812Y-119859482D01*
X255853072Y-119735000D01*
X255853072Y-118035000D01*
X255840812Y-117910518D01*
X255804502Y-117790820D01*
X255745537Y-117680506D01*
X255666185Y-117583815D01*
X255569494Y-117504463D01*
X255459180Y-117445498D01*
X255339482Y-117409188D01*
X255215000Y-117396928D01*
X253515000Y-117396928D01*
X253390518Y-117409188D01*
X253270820Y-117445498D01*
X253160506Y-117504463D01*
X253063815Y-117583815D01*
X253059058Y-117589611D01*
X251910237Y-116440791D01*
X251887217Y-116412741D01*
X251775299Y-116320892D01*
X251647612Y-116252642D01*
X251509064Y-116210614D01*
X251401084Y-116199979D01*
X251364979Y-116196423D01*
X251328874Y-116199979D01*
X233134079Y-116199979D01*
X233117130Y-116027898D01*
X233046511Y-115795099D01*
X232931833Y-115580551D01*
X232777502Y-115392498D01*
X232589449Y-115238167D01*
X232374901Y-115123489D01*
X232142102Y-115052870D01*
X231960665Y-115035000D01*
X231039335Y-115035000D01*
X230857898Y-115052870D01*
X230625099Y-115123489D01*
X230410551Y-115238167D01*
X230222498Y-115392498D01*
X230068167Y-115580551D01*
X229953489Y-115795099D01*
X229882870Y-116027898D01*
X229859025Y-116270000D01*
X228326640Y-116270000D01*
X230115511Y-114481130D01*
X230136922Y-114513474D01*
X230308275Y-114686307D01*
X230510054Y-114822390D01*
X230734504Y-114916493D01*
X230973000Y-114965000D01*
X231373000Y-114965000D01*
X231373000Y-113857000D01*
X231627000Y-113857000D01*
X231627000Y-114965000D01*
X232027000Y-114965000D01*
X232265496Y-114916493D01*
X232489946Y-114822390D01*
X232691725Y-114686307D01*
X232863078Y-114513474D01*
X232997421Y-114310533D01*
X233089591Y-114085282D01*
X233093462Y-114047609D01*
X232968731Y-113857000D01*
X231627000Y-113857000D01*
X231373000Y-113857000D01*
X231353000Y-113857000D01*
X231353000Y-113603000D01*
X231373000Y-113603000D01*
X231373000Y-113583000D01*
X231627000Y-113583000D01*
X231627000Y-113603000D01*
X232968731Y-113603000D01*
X233093462Y-113412391D01*
X233089591Y-113374718D01*
X232997421Y-113149467D01*
X232954626Y-113084820D01*
X233294203Y-112745244D01*
X233322248Y-112722228D01*
X233414097Y-112610310D01*
X233451005Y-112541260D01*
X233482347Y-112482624D01*
X233483547Y-112478665D01*
X235565000Y-112478665D01*
X235565000Y-112761335D01*
X235620147Y-113038574D01*
X235728320Y-113299727D01*
X235885363Y-113534759D01*
X236085241Y-113734637D01*
X236320273Y-113891680D01*
X236581426Y-113999853D01*
X236858665Y-114055000D01*
X237141335Y-114055000D01*
X237418574Y-113999853D01*
X237679727Y-113891680D01*
X237914759Y-113734637D01*
X238114637Y-113534759D01*
X238271680Y-113299727D01*
X238379853Y-113038574D01*
X238435000Y-112761335D01*
X238435000Y-112478665D01*
X240565000Y-112478665D01*
X240565000Y-112761335D01*
X240620147Y-113038574D01*
X240728320Y-113299727D01*
X240885363Y-113534759D01*
X241085241Y-113734637D01*
X241320273Y-113891680D01*
X241581426Y-113999853D01*
X241858665Y-114055000D01*
X242141335Y-114055000D01*
X242418574Y-113999853D01*
X242679727Y-113891680D01*
X242914759Y-113734637D01*
X243114637Y-113534759D01*
X243271680Y-113299727D01*
X243379853Y-113038574D01*
X243435000Y-112761335D01*
X243435000Y-112478665D01*
X243379853Y-112201426D01*
X243271680Y-111940273D01*
X243114637Y-111705241D01*
X242914759Y-111505363D01*
X242679727Y-111348320D01*
X242418574Y-111240147D01*
X242141335Y-111185000D01*
X241858665Y-111185000D01*
X241581426Y-111240147D01*
X241320273Y-111348320D01*
X241085241Y-111505363D01*
X240885363Y-111705241D01*
X240728320Y-111940273D01*
X240620147Y-112201426D01*
X240565000Y-112478665D01*
X238435000Y-112478665D01*
X238379853Y-112201426D01*
X238271680Y-111940273D01*
X238114637Y-111705241D01*
X237914759Y-111505363D01*
X237679727Y-111348320D01*
X237418574Y-111240147D01*
X237141335Y-111185000D01*
X236858665Y-111185000D01*
X236581426Y-111240147D01*
X236320273Y-111348320D01*
X236085241Y-111505363D01*
X235885363Y-111705241D01*
X235728320Y-111940273D01*
X235620147Y-112201426D01*
X235565000Y-112478665D01*
X233483547Y-112478665D01*
X233524375Y-112344075D01*
X233538566Y-112199990D01*
X233535010Y-112163885D01*
X233535010Y-108786104D01*
X233538565Y-108750009D01*
X233535010Y-108713914D01*
X233535010Y-108713905D01*
X233524375Y-108605925D01*
X233482347Y-108467377D01*
X233414097Y-108339690D01*
X233322247Y-108227772D01*
X233294202Y-108204756D01*
X233245259Y-108155813D01*
X233222238Y-108127762D01*
X233110320Y-108035913D01*
X232982633Y-107967663D01*
X232922766Y-107949502D01*
X232777502Y-107772498D01*
X232589449Y-107618167D01*
X232374901Y-107503489D01*
X232142102Y-107432870D01*
X231960665Y-107415000D01*
X231039335Y-107415000D01*
X230857898Y-107432870D01*
X230625099Y-107503489D01*
X230410551Y-107618167D01*
X230222498Y-107772498D01*
X230105550Y-107915000D01*
X223502497Y-107915000D01*
X223543304Y-107816483D01*
X223585000Y-107606863D01*
X223585000Y-107393137D01*
X223543304Y-107183517D01*
X223461515Y-106986060D01*
X223342775Y-106808353D01*
X223235000Y-106700578D01*
X223235000Y-106427609D01*
X229906538Y-106427609D01*
X229910409Y-106465282D01*
X230002579Y-106690533D01*
X230136922Y-106893474D01*
X230308275Y-107066307D01*
X230510054Y-107202390D01*
X230734504Y-107296493D01*
X230973000Y-107345000D01*
X231373000Y-107345000D01*
X231373000Y-106237000D01*
X231627000Y-106237000D01*
X231627000Y-107345000D01*
X232027000Y-107345000D01*
X232265496Y-107296493D01*
X232489946Y-107202390D01*
X232691725Y-107066307D01*
X232863078Y-106893474D01*
X232997421Y-106690533D01*
X233089591Y-106465282D01*
X233093462Y-106427609D01*
X232968731Y-106237000D01*
X231627000Y-106237000D01*
X231373000Y-106237000D01*
X230031269Y-106237000D01*
X229906538Y-106427609D01*
X223235000Y-106427609D01*
X223235000Y-105792391D01*
X229906538Y-105792391D01*
X230031269Y-105983000D01*
X231373000Y-105983000D01*
X231373000Y-104875000D01*
X231627000Y-104875000D01*
X231627000Y-105983000D01*
X232968731Y-105983000D01*
X233093462Y-105792391D01*
X233089591Y-105754718D01*
X232997421Y-105529467D01*
X232863078Y-105326526D01*
X232691725Y-105153693D01*
X232489946Y-105017610D01*
X232265496Y-104923507D01*
X232027000Y-104875000D01*
X231627000Y-104875000D01*
X231373000Y-104875000D01*
X230973000Y-104875000D01*
X230734504Y-104923507D01*
X230510054Y-105017610D01*
X230308275Y-105153693D01*
X230136922Y-105326526D01*
X230002579Y-105529467D01*
X229910409Y-105754718D01*
X229906538Y-105792391D01*
X223235000Y-105792391D01*
X223235000Y-102724446D01*
X225754103Y-100205344D01*
X226003740Y-100255000D01*
X226296260Y-100255000D01*
X226583158Y-100197932D01*
X226853411Y-100085990D01*
X227096632Y-99923475D01*
X227303475Y-99716632D01*
X227420000Y-99542240D01*
X227536525Y-99716632D01*
X227743368Y-99923475D01*
X227986589Y-100085990D01*
X228256842Y-100197932D01*
X228543740Y-100255000D01*
X228836260Y-100255000D01*
X228908960Y-100240539D01*
X228944952Y-100276531D01*
X228944957Y-100276535D01*
X231006641Y-102338220D01*
X230857898Y-102352870D01*
X230625099Y-102423489D01*
X230410551Y-102538167D01*
X230222498Y-102692498D01*
X230068167Y-102880551D01*
X229953489Y-103095099D01*
X229882870Y-103327898D01*
X229859025Y-103570000D01*
X229882870Y-103812102D01*
X229953489Y-104044901D01*
X230068167Y-104259449D01*
X230222498Y-104447502D01*
X230410551Y-104601833D01*
X230625099Y-104716511D01*
X230857898Y-104787130D01*
X231039335Y-104805000D01*
X231960665Y-104805000D01*
X232142102Y-104787130D01*
X232374901Y-104716511D01*
X232589449Y-104601833D01*
X232777502Y-104447502D01*
X232931833Y-104259449D01*
X233046511Y-104044901D01*
X233117130Y-103812102D01*
X233140975Y-103570000D01*
X233124723Y-103404990D01*
X234153412Y-103404990D01*
X235571983Y-104823561D01*
X235565000Y-104858665D01*
X235565000Y-105141335D01*
X235620147Y-105418574D01*
X235728320Y-105679727D01*
X235885363Y-105914759D01*
X236085241Y-106114637D01*
X236320273Y-106271680D01*
X236581426Y-106379853D01*
X236858665Y-106435000D01*
X237141335Y-106435000D01*
X237418574Y-106379853D01*
X237679727Y-106271680D01*
X237914759Y-106114637D01*
X238114637Y-105914759D01*
X238134521Y-105885000D01*
X240865479Y-105885000D01*
X240885363Y-105914759D01*
X241085241Y-106114637D01*
X241320273Y-106271680D01*
X241581426Y-106379853D01*
X241858665Y-106435000D01*
X242141335Y-106435000D01*
X242418574Y-106379853D01*
X242679727Y-106271680D01*
X242914759Y-106114637D01*
X243114637Y-105914759D01*
X243271680Y-105679727D01*
X243294348Y-105625000D01*
X249011928Y-105625000D01*
X249024188Y-105749482D01*
X249060498Y-105869180D01*
X249119463Y-105979494D01*
X249198815Y-106076185D01*
X249295506Y-106155537D01*
X249405820Y-106214502D01*
X249478380Y-106236513D01*
X249346525Y-106368368D01*
X249184010Y-106611589D01*
X249072068Y-106881842D01*
X249015000Y-107168740D01*
X249015000Y-107461260D01*
X249072068Y-107748158D01*
X249184010Y-108018411D01*
X249346525Y-108261632D01*
X249553368Y-108468475D01*
X249727760Y-108585000D01*
X249553368Y-108701525D01*
X249346525Y-108908368D01*
X249184010Y-109151589D01*
X249072068Y-109421842D01*
X249015000Y-109708740D01*
X249015000Y-110001260D01*
X249072068Y-110288158D01*
X249184010Y-110558411D01*
X249346525Y-110801632D01*
X249553368Y-111008475D01*
X249727760Y-111125000D01*
X249553368Y-111241525D01*
X249346525Y-111448368D01*
X249184010Y-111691589D01*
X249072068Y-111961842D01*
X249015000Y-112248740D01*
X249015000Y-112541260D01*
X249072068Y-112828158D01*
X249184010Y-113098411D01*
X249346525Y-113341632D01*
X249553368Y-113548475D01*
X249796589Y-113710990D01*
X250066842Y-113822932D01*
X250353740Y-113880000D01*
X250646260Y-113880000D01*
X250933158Y-113822932D01*
X251203411Y-113710990D01*
X251446632Y-113548475D01*
X251653475Y-113341632D01*
X251815990Y-113098411D01*
X251927932Y-112828158D01*
X251985000Y-112541260D01*
X251985000Y-112248740D01*
X251927932Y-111961842D01*
X251815990Y-111691589D01*
X251653475Y-111448368D01*
X251446632Y-111241525D01*
X251272240Y-111125000D01*
X251446632Y-111008475D01*
X251653475Y-110801632D01*
X251815990Y-110558411D01*
X251927932Y-110288158D01*
X251985000Y-110001260D01*
X251985000Y-109708740D01*
X251927932Y-109421842D01*
X251815990Y-109151589D01*
X251653475Y-108908368D01*
X251446632Y-108701525D01*
X251272240Y-108585000D01*
X251446632Y-108468475D01*
X251653475Y-108261632D01*
X251815990Y-108018411D01*
X251927932Y-107748158D01*
X251985000Y-107461260D01*
X251985000Y-107168740D01*
X251927932Y-106881842D01*
X251815990Y-106611589D01*
X251653475Y-106368368D01*
X251521620Y-106236513D01*
X251594180Y-106214502D01*
X251704494Y-106155537D01*
X251801185Y-106076185D01*
X251880537Y-105979494D01*
X251939502Y-105869180D01*
X251975812Y-105749482D01*
X251988072Y-105625000D01*
X251985000Y-105060750D01*
X251826250Y-104902000D01*
X250627000Y-104902000D01*
X250627000Y-104922000D01*
X250373000Y-104922000D01*
X250373000Y-104902000D01*
X249173750Y-104902000D01*
X249015000Y-105060750D01*
X249011928Y-105625000D01*
X243294348Y-105625000D01*
X243379853Y-105418574D01*
X243435000Y-105141335D01*
X243435000Y-104858665D01*
X243379853Y-104581426D01*
X243271680Y-104320273D01*
X243114637Y-104085241D01*
X242954396Y-103925000D01*
X249011928Y-103925000D01*
X249015000Y-104489250D01*
X249173750Y-104648000D01*
X250373000Y-104648000D01*
X250373000Y-103448750D01*
X250627000Y-103448750D01*
X250627000Y-104648000D01*
X251826250Y-104648000D01*
X251985000Y-104489250D01*
X251988072Y-103925000D01*
X252851928Y-103925000D01*
X252855000Y-104489250D01*
X253013750Y-104648000D01*
X254213000Y-104648000D01*
X254213000Y-103448750D01*
X254054250Y-103290000D01*
X253490000Y-103286928D01*
X253365518Y-103299188D01*
X253245820Y-103335498D01*
X253135506Y-103394463D01*
X253038815Y-103473815D01*
X252959463Y-103570506D01*
X252900498Y-103680820D01*
X252864188Y-103800518D01*
X252851928Y-103925000D01*
X251988072Y-103925000D01*
X251975812Y-103800518D01*
X251939502Y-103680820D01*
X251880537Y-103570506D01*
X251801185Y-103473815D01*
X251704494Y-103394463D01*
X251594180Y-103335498D01*
X251474482Y-103299188D01*
X251350000Y-103286928D01*
X250785750Y-103290000D01*
X250627000Y-103448750D01*
X250373000Y-103448750D01*
X250214250Y-103290000D01*
X249650000Y-103286928D01*
X249525518Y-103299188D01*
X249405820Y-103335498D01*
X249295506Y-103394463D01*
X249198815Y-103473815D01*
X249119463Y-103570506D01*
X249060498Y-103680820D01*
X249024188Y-103800518D01*
X249011928Y-103925000D01*
X242954396Y-103925000D01*
X242914759Y-103885363D01*
X242679727Y-103728320D01*
X242418574Y-103620147D01*
X242141335Y-103565000D01*
X241858665Y-103565000D01*
X241581426Y-103620147D01*
X241320273Y-103728320D01*
X241085241Y-103885363D01*
X240885363Y-104085241D01*
X240865479Y-104115000D01*
X238134521Y-104115000D01*
X238114637Y-104085241D01*
X237914759Y-103885363D01*
X237679727Y-103728320D01*
X237418574Y-103620147D01*
X237141335Y-103565000D01*
X236858665Y-103565000D01*
X236823561Y-103571983D01*
X235176524Y-101924946D01*
X235148807Y-101891173D01*
X235014049Y-101780579D01*
X234860303Y-101698401D01*
X234693480Y-101647795D01*
X234563467Y-101634990D01*
X234563459Y-101634990D01*
X234519990Y-101630709D01*
X234476521Y-101634990D01*
X232806569Y-101634990D01*
X231418230Y-100246652D01*
X231663158Y-100197932D01*
X231933411Y-100085990D01*
X232176632Y-99923475D01*
X232383475Y-99716632D01*
X232500000Y-99542240D01*
X232616525Y-99716632D01*
X232823368Y-99923475D01*
X233066589Y-100085990D01*
X233336842Y-100197932D01*
X233623740Y-100255000D01*
X233916260Y-100255000D01*
X234203158Y-100197932D01*
X234473411Y-100085990D01*
X234716632Y-99923475D01*
X234923475Y-99716632D01*
X235040000Y-99542240D01*
X235156525Y-99716632D01*
X235363368Y-99923475D01*
X235606589Y-100085990D01*
X235876842Y-100197932D01*
X236163740Y-100255000D01*
X236456260Y-100255000D01*
X236743158Y-100197932D01*
X237013411Y-100085990D01*
X237256632Y-99923475D01*
X237463475Y-99716632D01*
X237585195Y-99534466D01*
X237654822Y-99651355D01*
X237849731Y-99867588D01*
X238083080Y-100041641D01*
X238345901Y-100166825D01*
X238493110Y-100211476D01*
X238723000Y-100090155D01*
X238723000Y-98897000D01*
X238703000Y-98897000D01*
X238703000Y-98643000D01*
X238723000Y-98643000D01*
X238723000Y-98623000D01*
X238977000Y-98623000D01*
X238977000Y-98643000D01*
X238997000Y-98643000D01*
X238997000Y-98897000D01*
X238977000Y-98897000D01*
X238977000Y-100090155D01*
X239206890Y-100211476D01*
X239354099Y-100166825D01*
X239616920Y-100041641D01*
X239850269Y-99867588D01*
X240045178Y-99651355D01*
X240114805Y-99534466D01*
X240236525Y-99716632D01*
X240443368Y-99923475D01*
X240686589Y-100085990D01*
X240956842Y-100197932D01*
X241243740Y-100255000D01*
X241536260Y-100255000D01*
X241823158Y-100197932D01*
X242093411Y-100085990D01*
X242336632Y-99923475D01*
X242543475Y-99716632D01*
X242660000Y-99542240D01*
X242776525Y-99716632D01*
X242983368Y-99923475D01*
X243226589Y-100085990D01*
X243496842Y-100197932D01*
X243783740Y-100255000D01*
X244076260Y-100255000D01*
X244363158Y-100197932D01*
X244633411Y-100085990D01*
X244876632Y-99923475D01*
X245083475Y-99716632D01*
X245200000Y-99542240D01*
X245316525Y-99716632D01*
X245523368Y-99923475D01*
X245766589Y-100085990D01*
X246036842Y-100197932D01*
X246323740Y-100255000D01*
X246616260Y-100255000D01*
X246903158Y-100197932D01*
X247173411Y-100085990D01*
X247416632Y-99923475D01*
X247623475Y-99716632D01*
X247740000Y-99542240D01*
X247856525Y-99716632D01*
X248063368Y-99923475D01*
X248306589Y-100085990D01*
X248576842Y-100197932D01*
X248863740Y-100255000D01*
X249156260Y-100255000D01*
X249443158Y-100197932D01*
X249713411Y-100085990D01*
X249956632Y-99923475D01*
X250163475Y-99716632D01*
X250280000Y-99542240D01*
X250396525Y-99716632D01*
X250603368Y-99923475D01*
X250846589Y-100085990D01*
X251116842Y-100197932D01*
X251403740Y-100255000D01*
X251696260Y-100255000D01*
X251983158Y-100197932D01*
X252253411Y-100085990D01*
X252496632Y-99923475D01*
X252703475Y-99716632D01*
X252820000Y-99542240D01*
X252936525Y-99716632D01*
X253143368Y-99923475D01*
X253386589Y-100085990D01*
X253656842Y-100197932D01*
X253943740Y-100255000D01*
X254236260Y-100255000D01*
X254523158Y-100197932D01*
X254793411Y-100085990D01*
X255036632Y-99923475D01*
X255243475Y-99716632D01*
X255365195Y-99534466D01*
X255434822Y-99651355D01*
X255629731Y-99867588D01*
X255863080Y-100041641D01*
X256125901Y-100166825D01*
X256273110Y-100211476D01*
X256503000Y-100090155D01*
X256503000Y-98897000D01*
X256483000Y-98897000D01*
X256483000Y-98643000D01*
X256503000Y-98643000D01*
X256503000Y-98623000D01*
X256757000Y-98623000D01*
X256757000Y-98643000D01*
X256777000Y-98643000D01*
X256777000Y-98897000D01*
X256757000Y-98897000D01*
X256757000Y-100090155D01*
X256986890Y-100211476D01*
X257045002Y-100193850D01*
X257045002Y-103358419D01*
X255755424Y-104647998D01*
X255666252Y-104647998D01*
X255825000Y-104489250D01*
X255828072Y-103925000D01*
X255815812Y-103800518D01*
X255779502Y-103680820D01*
X255720537Y-103570506D01*
X255641185Y-103473815D01*
X255544494Y-103394463D01*
X255434180Y-103335498D01*
X255314482Y-103299188D01*
X255190000Y-103286928D01*
X254625750Y-103290000D01*
X254467000Y-103448750D01*
X254467000Y-104648000D01*
X254487000Y-104648000D01*
X254487000Y-104902000D01*
X254467000Y-104902000D01*
X254467000Y-104922000D01*
X254213000Y-104922000D01*
X254213000Y-104902000D01*
X253013750Y-104902000D01*
X252855000Y-105060750D01*
X252851928Y-105625000D01*
X252864188Y-105749482D01*
X252900498Y-105869180D01*
X252959463Y-105979494D01*
X253038815Y-106076185D01*
X253135506Y-106155537D01*
X253245820Y-106214502D01*
X253318380Y-106236513D01*
X253186525Y-106368368D01*
X253024010Y-106611589D01*
X252912068Y-106881842D01*
X252855000Y-107168740D01*
X252855000Y-107461260D01*
X252912068Y-107748158D01*
X253024010Y-108018411D01*
X253186525Y-108261632D01*
X253393368Y-108468475D01*
X253567760Y-108585000D01*
X253393368Y-108701525D01*
X253186525Y-108908368D01*
X253024010Y-109151589D01*
X252912068Y-109421842D01*
X252855000Y-109708740D01*
X252855000Y-110001260D01*
X252912068Y-110288158D01*
X253024010Y-110558411D01*
X253186525Y-110801632D01*
X253393368Y-111008475D01*
X253567760Y-111125000D01*
X253393368Y-111241525D01*
X253186525Y-111448368D01*
X253024010Y-111691589D01*
X252912068Y-111961842D01*
X252855000Y-112248740D01*
X252855000Y-112541260D01*
X252912068Y-112828158D01*
X253024010Y-113098411D01*
X253186525Y-113341632D01*
X253393368Y-113548475D01*
X253636589Y-113710990D01*
X253906842Y-113822932D01*
X254193740Y-113880000D01*
X254486260Y-113880000D01*
X254773158Y-113822932D01*
X255043411Y-113710990D01*
X255286632Y-113548475D01*
X255493475Y-113341632D01*
X255655990Y-113098411D01*
X255767932Y-112828158D01*
X255825000Y-112541260D01*
X255825000Y-112248740D01*
X255767932Y-111961842D01*
X255655990Y-111691589D01*
X255493475Y-111448368D01*
X255286632Y-111241525D01*
X255112240Y-111125000D01*
X255286632Y-111008475D01*
X255493475Y-110801632D01*
X255655990Y-110558411D01*
X255767932Y-110288158D01*
X255825000Y-110001260D01*
X255825000Y-109708740D01*
X255767932Y-109421842D01*
X255655990Y-109151589D01*
X255493475Y-108908368D01*
X255286632Y-108701525D01*
X255112240Y-108585000D01*
X255286632Y-108468475D01*
X255493475Y-108261632D01*
X255655990Y-108018411D01*
X255767932Y-107748158D01*
X255825000Y-107461260D01*
X255825000Y-107168740D01*
X255810539Y-107096040D01*
X255846531Y-107060048D01*
X255846535Y-107060043D01*
X258525050Y-104381529D01*
X258558818Y-104353816D01*
X258669412Y-104219058D01*
X258751590Y-104065312D01*
X258802196Y-103898489D01*
X258815001Y-103768476D01*
X258815001Y-103768468D01*
X258819282Y-103724999D01*
X258815001Y-103681530D01*
X258815001Y-97304495D01*
X259515000Y-97304495D01*
X259515000Y-97695505D01*
X259591282Y-98079003D01*
X259740915Y-98440250D01*
X259958149Y-98765364D01*
X260234636Y-99041851D01*
X260559750Y-99259085D01*
X260920997Y-99408718D01*
X261304495Y-99485000D01*
X261695505Y-99485000D01*
X262079003Y-99408718D01*
X262440250Y-99259085D01*
X262765364Y-99041851D01*
X263041851Y-98765364D01*
X263259085Y-98440250D01*
X263408718Y-98079003D01*
X263485000Y-97695505D01*
X263485000Y-97304495D01*
X263408718Y-96920997D01*
X263259085Y-96559750D01*
X263041851Y-96234636D01*
X262765364Y-95958149D01*
X262440250Y-95740915D01*
X262079003Y-95591282D01*
X261695505Y-95515000D01*
X261304495Y-95515000D01*
X260920997Y-95591282D01*
X260559750Y-95740915D01*
X260234636Y-95958149D01*
X259958149Y-96234636D01*
X259740915Y-96559750D01*
X259591282Y-96920997D01*
X259515000Y-97304495D01*
X258815001Y-97304495D01*
X258815001Y-95649464D01*
X258819282Y-95605998D01*
X258815001Y-95562532D01*
X258815001Y-95562522D01*
X258802196Y-95432509D01*
X258751590Y-95265686D01*
X258669412Y-95111940D01*
X258630637Y-95064693D01*
X258586533Y-95010952D01*
X258586531Y-95010950D01*
X258558818Y-94977182D01*
X258525051Y-94949470D01*
X258260581Y-94685000D01*
X261966495Y-94685000D01*
X262449016Y-94732312D01*
X262880930Y-94862714D01*
X263279285Y-95074524D01*
X263628914Y-95359675D01*
X263916497Y-95707303D01*
X264131086Y-96104177D01*
X264264498Y-96535161D01*
X264315001Y-97015663D01*
X264315000Y-146966495D01*
X264267688Y-147449016D01*
X264137287Y-147880927D01*
X263925480Y-148279280D01*
X263640325Y-148628914D01*
X263292697Y-148916497D01*
X262895825Y-149131085D01*
X262464834Y-149264500D01*
X261984346Y-149315000D01*
X256455422Y-149315000D01*
X256587871Y-149226500D01*
X256836500Y-148977871D01*
X257031847Y-148685515D01*
X257166404Y-148360665D01*
X257235000Y-148015807D01*
X257235000Y-147664193D01*
X257166404Y-147319335D01*
X257031847Y-146994485D01*
X256836500Y-146702129D01*
X256587871Y-146453500D01*
X256364871Y-146304495D01*
X259515000Y-146304495D01*
X259515000Y-146695505D01*
X259591282Y-147079003D01*
X259740915Y-147440250D01*
X259958149Y-147765364D01*
X260234636Y-148041851D01*
X260559750Y-148259085D01*
X260920997Y-148408718D01*
X261304495Y-148485000D01*
X261695505Y-148485000D01*
X262079003Y-148408718D01*
X262440250Y-148259085D01*
X262765364Y-148041851D01*
X263041851Y-147765364D01*
X263259085Y-147440250D01*
X263408718Y-147079003D01*
X263485000Y-146695505D01*
X263485000Y-146304495D01*
X263408718Y-145920997D01*
X263259085Y-145559750D01*
X263041851Y-145234636D01*
X262765364Y-144958149D01*
X262440250Y-144740915D01*
X262079003Y-144591282D01*
X261695505Y-144515000D01*
X261304495Y-144515000D01*
X260920997Y-144591282D01*
X260559750Y-144740915D01*
X260234636Y-144958149D01*
X259958149Y-145234636D01*
X259740915Y-145559750D01*
X259591282Y-145920997D01*
X259515000Y-146304495D01*
X256364871Y-146304495D01*
X256295515Y-146258153D01*
X255970665Y-146123596D01*
X255625807Y-146055000D01*
X255274193Y-146055000D01*
X254929335Y-146123596D01*
X254604485Y-146258153D01*
X254312129Y-146453500D01*
X254063500Y-146702129D01*
X253868153Y-146994485D01*
X253733596Y-147319335D01*
X253665000Y-147664193D01*
X253665000Y-148015807D01*
X253733596Y-148360665D01*
X253868153Y-148685515D01*
X254063500Y-148977871D01*
X254312129Y-149226500D01*
X254444578Y-149315000D01*
X244455422Y-149315000D01*
X244587871Y-149226500D01*
X244836500Y-148977871D01*
X245031847Y-148685515D01*
X245166404Y-148360665D01*
X245235000Y-148015807D01*
X245235000Y-147664193D01*
X245166404Y-147319335D01*
X245031847Y-146994485D01*
X244836500Y-146702129D01*
X244587871Y-146453500D01*
X244295515Y-146258153D01*
X243970665Y-146123596D01*
X243625807Y-146055000D01*
X243274193Y-146055000D01*
X242929335Y-146123596D01*
X242604485Y-146258153D01*
X242312129Y-146453500D01*
X242063500Y-146702129D01*
X241868153Y-146994485D01*
X241733596Y-147319335D01*
X241700000Y-147488235D01*
X241666404Y-147319335D01*
X241531847Y-146994485D01*
X241336500Y-146702129D01*
X241087871Y-146453500D01*
X240795515Y-146258153D01*
X240470665Y-146123596D01*
X240125807Y-146055000D01*
X239774193Y-146055000D01*
X239429335Y-146123596D01*
X239104485Y-146258153D01*
X238812129Y-146453500D01*
X238563500Y-146702129D01*
X238368153Y-146994485D01*
X238233596Y-147319335D01*
X238165000Y-147664193D01*
X238165000Y-148015807D01*
X238233596Y-148360665D01*
X238368153Y-148685515D01*
X238563500Y-148977871D01*
X238812129Y-149226500D01*
X238944578Y-149315000D01*
X228955422Y-149315000D01*
X229087871Y-149226500D01*
X229336500Y-148977871D01*
X229531847Y-148685515D01*
X229666404Y-148360665D01*
X229735000Y-148015807D01*
X229735000Y-147664193D01*
X229666404Y-147319335D01*
X229531847Y-146994485D01*
X229336500Y-146702129D01*
X229087871Y-146453500D01*
X228795515Y-146258153D01*
X228470665Y-146123596D01*
X228125807Y-146055000D01*
X227774193Y-146055000D01*
X227429335Y-146123596D01*
X227104485Y-146258153D01*
X226812129Y-146453500D01*
X226563500Y-146702129D01*
X226368153Y-146994485D01*
X226233596Y-147319335D01*
X226200000Y-147488235D01*
X226166404Y-147319335D01*
X226031847Y-146994485D01*
X225836500Y-146702129D01*
X225587871Y-146453500D01*
X225295515Y-146258153D01*
X224970665Y-146123596D01*
X224625807Y-146055000D01*
X224274193Y-146055000D01*
X223929335Y-146123596D01*
X223604485Y-146258153D01*
X223312129Y-146453500D01*
X223063500Y-146702129D01*
X222868153Y-146994485D01*
X222733596Y-147319335D01*
X222665000Y-147664193D01*
X222665000Y-148015807D01*
X222733596Y-148360665D01*
X222868153Y-148685515D01*
X223063500Y-148977871D01*
X223312129Y-149226500D01*
X223444578Y-149315000D01*
X213455422Y-149315000D01*
X213587871Y-149226500D01*
X213836500Y-148977871D01*
X214031847Y-148685515D01*
X214166404Y-148360665D01*
X214235000Y-148015807D01*
X214235000Y-147664193D01*
X214166404Y-147319335D01*
X214031847Y-146994485D01*
X213836500Y-146702129D01*
X213587871Y-146453500D01*
X213295515Y-146258153D01*
X212970665Y-146123596D01*
X212625807Y-146055000D01*
X212274193Y-146055000D01*
X211929335Y-146123596D01*
X211604485Y-146258153D01*
X211312129Y-146453500D01*
X211063500Y-146702129D01*
X210868153Y-146994485D01*
X210733596Y-147319335D01*
X210665000Y-147664193D01*
X210665000Y-148015807D01*
X210733596Y-148360665D01*
X210868153Y-148685515D01*
X211063500Y-148977871D01*
X211312129Y-149226500D01*
X211444578Y-149315000D01*
X203033504Y-149315000D01*
X202550984Y-149267688D01*
X202119073Y-149137287D01*
X201720720Y-148925480D01*
X201371086Y-148640325D01*
X201083503Y-148292697D01*
X200868915Y-147895825D01*
X200735500Y-147464834D01*
X200685000Y-146984346D01*
X200685000Y-146304495D01*
X201515000Y-146304495D01*
X201515000Y-146695505D01*
X201591282Y-147079003D01*
X201740915Y-147440250D01*
X201958149Y-147765364D01*
X202234636Y-148041851D01*
X202559750Y-148259085D01*
X202920997Y-148408718D01*
X203304495Y-148485000D01*
X203695505Y-148485000D01*
X204079003Y-148408718D01*
X204440250Y-148259085D01*
X204765364Y-148041851D01*
X205041851Y-147765364D01*
X205259085Y-147440250D01*
X205408718Y-147079003D01*
X205485000Y-146695505D01*
X205485000Y-146304495D01*
X205408718Y-145920997D01*
X205259085Y-145559750D01*
X205041851Y-145234636D01*
X204765364Y-144958149D01*
X204440250Y-144740915D01*
X204079003Y-144591282D01*
X203695505Y-144515000D01*
X203304495Y-144515000D01*
X202920997Y-144591282D01*
X202559750Y-144740915D01*
X202234636Y-144958149D01*
X201958149Y-145234636D01*
X201740915Y-145559750D01*
X201591282Y-145920997D01*
X201515000Y-146304495D01*
X200685000Y-146304495D01*
X200685000Y-141168281D01*
X200871285Y-141267852D01*
X201179484Y-141361343D01*
X201419678Y-141385000D01*
X202580322Y-141385000D01*
X202820516Y-141361343D01*
X203128715Y-141267852D01*
X203412752Y-141116031D01*
X203661714Y-140911714D01*
X203866031Y-140662752D01*
X204017852Y-140378715D01*
X204111343Y-140070516D01*
X204142911Y-139750000D01*
X206607089Y-139750000D01*
X206638657Y-140070516D01*
X206732148Y-140378715D01*
X206883969Y-140662752D01*
X207088286Y-140911714D01*
X207337248Y-141116031D01*
X207621285Y-141267852D01*
X207929484Y-141361343D01*
X208169678Y-141385000D01*
X208830322Y-141385000D01*
X209070516Y-141361343D01*
X209378715Y-141267852D01*
X209662752Y-141116031D01*
X209911714Y-140911714D01*
X210116031Y-140662752D01*
X210267852Y-140378715D01*
X210361343Y-140070516D01*
X210392911Y-139750000D01*
X210361343Y-139429484D01*
X210267852Y-139121285D01*
X210116031Y-138837248D01*
X209911714Y-138588286D01*
X209662752Y-138383969D01*
X209378715Y-138232148D01*
X209070516Y-138138657D01*
X208830322Y-138115000D01*
X208169678Y-138115000D01*
X207929484Y-138138657D01*
X207621285Y-138232148D01*
X207337248Y-138383969D01*
X207088286Y-138588286D01*
X206883969Y-138837248D01*
X206732148Y-139121285D01*
X206638657Y-139429484D01*
X206607089Y-139750000D01*
X204142911Y-139750000D01*
X204111343Y-139429484D01*
X204017852Y-139121285D01*
X203866031Y-138837248D01*
X203661714Y-138588286D01*
X203412752Y-138383969D01*
X203128715Y-138232148D01*
X202820516Y-138138657D01*
X202580322Y-138115000D01*
X201419678Y-138115000D01*
X201179484Y-138138657D01*
X200871285Y-138232148D01*
X200685000Y-138331719D01*
X200685000Y-137294890D01*
X200807688Y-137478505D01*
X201021495Y-137692312D01*
X201272905Y-137860299D01*
X201552257Y-137976011D01*
X201848816Y-138035000D01*
X202151184Y-138035000D01*
X202447743Y-137976011D01*
X202727095Y-137860299D01*
X202978505Y-137692312D01*
X203192312Y-137478505D01*
X203360299Y-137227095D01*
X203476011Y-136947743D01*
X203535000Y-136651184D01*
X203535000Y-136348816D01*
X203499368Y-136169679D01*
X209365000Y-136169679D01*
X209365000Y-136830322D01*
X209388657Y-137070516D01*
X209482148Y-137378715D01*
X209633969Y-137662752D01*
X209838286Y-137911714D01*
X210087249Y-138116031D01*
X210371286Y-138267852D01*
X210679485Y-138361343D01*
X211000000Y-138392911D01*
X211320516Y-138361343D01*
X211628715Y-138267852D01*
X211912752Y-138116031D01*
X212161714Y-137911714D01*
X212366031Y-137662752D01*
X212517852Y-137378715D01*
X212611343Y-137070515D01*
X212635000Y-136830321D01*
X212635000Y-136169678D01*
X212611343Y-135929484D01*
X212517852Y-135621285D01*
X212366031Y-135337248D01*
X212161714Y-135088286D01*
X211912751Y-134883969D01*
X211628714Y-134732148D01*
X211320515Y-134638657D01*
X211000000Y-134607089D01*
X210679484Y-134638657D01*
X210371285Y-134732148D01*
X210087248Y-134883969D01*
X209838286Y-135088286D01*
X209633969Y-135337249D01*
X209482148Y-135621286D01*
X209388657Y-135929485D01*
X209365000Y-136169679D01*
X203499368Y-136169679D01*
X203476011Y-136052257D01*
X203360299Y-135772905D01*
X203192312Y-135521495D01*
X202978505Y-135307688D01*
X202727095Y-135139701D01*
X202447743Y-135023989D01*
X202151184Y-134965000D01*
X201848816Y-134965000D01*
X201552257Y-135023989D01*
X201272905Y-135139701D01*
X201021495Y-135307688D01*
X200807688Y-135521495D01*
X200685000Y-135705110D01*
X200685000Y-134668281D01*
X200871285Y-134767852D01*
X201179484Y-134861343D01*
X201419678Y-134885000D01*
X202580322Y-134885000D01*
X202820516Y-134861343D01*
X203128715Y-134767852D01*
X203412752Y-134616031D01*
X203661714Y-134411714D01*
X203866031Y-134162752D01*
X204017852Y-133878715D01*
X204111343Y-133570516D01*
X204142911Y-133250000D01*
X206607089Y-133250000D01*
X206638657Y-133570516D01*
X206732148Y-133878715D01*
X206883969Y-134162752D01*
X207088286Y-134411714D01*
X207337248Y-134616031D01*
X207621285Y-134767852D01*
X207929484Y-134861343D01*
X208169678Y-134885000D01*
X208830322Y-134885000D01*
X209070516Y-134861343D01*
X209378715Y-134767852D01*
X209662752Y-134616031D01*
X209911714Y-134411714D01*
X210116031Y-134162752D01*
X210267852Y-133878715D01*
X210361343Y-133570516D01*
X210392911Y-133250000D01*
X210361343Y-132929484D01*
X210267852Y-132621285D01*
X210116031Y-132337248D01*
X209911714Y-132088286D01*
X209662752Y-131883969D01*
X209378715Y-131732148D01*
X209070516Y-131638657D01*
X208830322Y-131615000D01*
X208169678Y-131615000D01*
X207929484Y-131638657D01*
X207621285Y-131732148D01*
X207337248Y-131883969D01*
X207088286Y-132088286D01*
X206883969Y-132337248D01*
X206732148Y-132621285D01*
X206638657Y-132929484D01*
X206607089Y-133250000D01*
X204142911Y-133250000D01*
X204111343Y-132929484D01*
X204017852Y-132621285D01*
X203866031Y-132337248D01*
X203661714Y-132088286D01*
X203412752Y-131883969D01*
X203128715Y-131732148D01*
X202820516Y-131638657D01*
X202580322Y-131615000D01*
X201419678Y-131615000D01*
X201179484Y-131638657D01*
X200871285Y-131732148D01*
X200685000Y-131831719D01*
X200685000Y-130072876D01*
X200956468Y-130178807D01*
X201273000Y-130235000D01*
X201773000Y-130235000D01*
X201773000Y-128727000D01*
X202027000Y-128727000D01*
X202027000Y-130235000D01*
X202527000Y-130235000D01*
X202843532Y-130178807D01*
X203143020Y-130061942D01*
X203413954Y-129888895D01*
X203645922Y-129666317D01*
X203830010Y-129402761D01*
X203959144Y-129108355D01*
X203990124Y-128980434D01*
X203870777Y-128727000D01*
X202027000Y-128727000D01*
X201773000Y-128727000D01*
X201753000Y-128727000D01*
X201753000Y-128600000D01*
X206557089Y-128600000D01*
X206588657Y-128920516D01*
X206682148Y-129228715D01*
X206833969Y-129512752D01*
X207038286Y-129761714D01*
X207287248Y-129966031D01*
X207571285Y-130117852D01*
X207879484Y-130211343D01*
X208119678Y-130235000D01*
X209280322Y-130235000D01*
X209520516Y-130211343D01*
X209828715Y-130117852D01*
X210112752Y-129966031D01*
X210361714Y-129761714D01*
X210566031Y-129512752D01*
X210576747Y-129492702D01*
X214686903Y-129492702D01*
X214758486Y-129736671D01*
X215013996Y-129857571D01*
X215288184Y-129926300D01*
X215570512Y-129940217D01*
X215850130Y-129898787D01*
X216116292Y-129803603D01*
X216241514Y-129736671D01*
X216313097Y-129492702D01*
X215500000Y-128679605D01*
X214686903Y-129492702D01*
X210576747Y-129492702D01*
X210717852Y-129228715D01*
X210811343Y-128920516D01*
X210842911Y-128600000D01*
X210840007Y-128570512D01*
X214059783Y-128570512D01*
X214101213Y-128850130D01*
X214196397Y-129116292D01*
X214263329Y-129241514D01*
X214507298Y-129313097D01*
X215320395Y-128500000D01*
X215679605Y-128500000D01*
X216492702Y-129313097D01*
X216736671Y-129241514D01*
X216857571Y-128986004D01*
X216926300Y-128711816D01*
X216940217Y-128429488D01*
X216898787Y-128149870D01*
X216803603Y-127883708D01*
X216736671Y-127758486D01*
X216492702Y-127686903D01*
X215679605Y-128500000D01*
X215320395Y-128500000D01*
X214507298Y-127686903D01*
X214263329Y-127758486D01*
X214142429Y-128013996D01*
X214073700Y-128288184D01*
X214059783Y-128570512D01*
X210840007Y-128570512D01*
X210811343Y-128279484D01*
X210717852Y-127971285D01*
X210566031Y-127687248D01*
X210418351Y-127507298D01*
X214686903Y-127507298D01*
X215500000Y-128320395D01*
X216313097Y-127507298D01*
X216241514Y-127263329D01*
X215986004Y-127142429D01*
X215711816Y-127073700D01*
X215429488Y-127059783D01*
X215149870Y-127101213D01*
X214883708Y-127196397D01*
X214758486Y-127263329D01*
X214686903Y-127507298D01*
X210418351Y-127507298D01*
X210361714Y-127438286D01*
X210112752Y-127233969D01*
X209828715Y-127082148D01*
X209536032Y-126993364D01*
X209614637Y-126914759D01*
X209771680Y-126679727D01*
X209879853Y-126418574D01*
X209935000Y-126141335D01*
X209935000Y-125858665D01*
X209879853Y-125581426D01*
X209777775Y-125334988D01*
X210029484Y-125411343D01*
X210269678Y-125435000D01*
X210930322Y-125435000D01*
X211170516Y-125411343D01*
X211478715Y-125317852D01*
X211762752Y-125166031D01*
X212011714Y-124961714D01*
X212216031Y-124712752D01*
X212367852Y-124428715D01*
X212461343Y-124120516D01*
X212492911Y-123800000D01*
X212461343Y-123479484D01*
X212367852Y-123171285D01*
X212216031Y-122887248D01*
X212011714Y-122638286D01*
X211762752Y-122433969D01*
X211478715Y-122282148D01*
X211170516Y-122188657D01*
X210930322Y-122165000D01*
X210269678Y-122165000D01*
X210029484Y-122188657D01*
X209721285Y-122282148D01*
X209437248Y-122433969D01*
X209188286Y-122638286D01*
X208983969Y-122887248D01*
X208832148Y-123171285D01*
X208738657Y-123479484D01*
X208707089Y-123800000D01*
X208738657Y-124120516D01*
X208832148Y-124428715D01*
X208938991Y-124628604D01*
X208918574Y-124620147D01*
X208641335Y-124565000D01*
X208358665Y-124565000D01*
X208081426Y-124620147D01*
X207820273Y-124728320D01*
X207585241Y-124885363D01*
X207385363Y-125085241D01*
X207228320Y-125320273D01*
X207120147Y-125581426D01*
X207065000Y-125858665D01*
X207065000Y-126141335D01*
X207120147Y-126418574D01*
X207228320Y-126679727D01*
X207385363Y-126914759D01*
X207559208Y-127088604D01*
X207287248Y-127233969D01*
X207038286Y-127438286D01*
X206833969Y-127687248D01*
X206682148Y-127971285D01*
X206588657Y-128279484D01*
X206557089Y-128600000D01*
X201753000Y-128600000D01*
X201753000Y-128473000D01*
X201773000Y-128473000D01*
X201773000Y-128453000D01*
X202027000Y-128453000D01*
X202027000Y-128473000D01*
X203870777Y-128473000D01*
X203990124Y-128219566D01*
X203959144Y-128091645D01*
X203830010Y-127797239D01*
X203645922Y-127533683D01*
X203413954Y-127311105D01*
X203264032Y-127215349D01*
X203414759Y-127114637D01*
X203614637Y-126914759D01*
X203771680Y-126679727D01*
X203879853Y-126418574D01*
X203935000Y-126141335D01*
X203935000Y-125858665D01*
X203879853Y-125581426D01*
X203771680Y-125320273D01*
X203617061Y-125088869D01*
X203671285Y-125117852D01*
X203979484Y-125211343D01*
X204219678Y-125235000D01*
X205380322Y-125235000D01*
X205620516Y-125211343D01*
X205928715Y-125117852D01*
X206212752Y-124966031D01*
X206461714Y-124761714D01*
X206666031Y-124512752D01*
X206817852Y-124228715D01*
X206911343Y-123920516D01*
X206942911Y-123600000D01*
X206911343Y-123279484D01*
X206817852Y-122971285D01*
X206666031Y-122687248D01*
X206461714Y-122438286D01*
X206212752Y-122233969D01*
X205928715Y-122082148D01*
X205620516Y-121988657D01*
X205380322Y-121965000D01*
X204219678Y-121965000D01*
X203979484Y-121988657D01*
X203671285Y-122082148D01*
X203387248Y-122233969D01*
X203138286Y-122438286D01*
X202933969Y-122687248D01*
X202782148Y-122971285D01*
X202688657Y-123279484D01*
X202657089Y-123600000D01*
X202688657Y-123920516D01*
X202782148Y-124228715D01*
X202933969Y-124512752D01*
X203075424Y-124685116D01*
X202918574Y-124620147D01*
X202641335Y-124565000D01*
X202358665Y-124565000D01*
X202081426Y-124620147D01*
X201820273Y-124728320D01*
X201585241Y-124885363D01*
X201385363Y-125085241D01*
X201228320Y-125320273D01*
X201120147Y-125581426D01*
X201065000Y-125858665D01*
X201065000Y-126141335D01*
X201120147Y-126418574D01*
X201228320Y-126679727D01*
X201385363Y-126914759D01*
X201435604Y-126965000D01*
X201273000Y-126965000D01*
X200956468Y-127021193D01*
X200685000Y-127127124D01*
X200685000Y-120072876D01*
X200956468Y-120178807D01*
X201273000Y-120235000D01*
X201773000Y-120235000D01*
X201773000Y-118727000D01*
X202027000Y-118727000D01*
X202027000Y-120235000D01*
X202527000Y-120235000D01*
X202843532Y-120178807D01*
X203143020Y-120061942D01*
X203413954Y-119888895D01*
X203645922Y-119666317D01*
X203830010Y-119402761D01*
X203959144Y-119108355D01*
X203990124Y-118980434D01*
X203870777Y-118727000D01*
X202027000Y-118727000D01*
X201773000Y-118727000D01*
X201753000Y-118727000D01*
X201753000Y-118473000D01*
X201773000Y-118473000D01*
X201773000Y-118453000D01*
X202027000Y-118453000D01*
X202027000Y-118473000D01*
X203870777Y-118473000D01*
X203990124Y-118219566D01*
X203959144Y-118091645D01*
X203830010Y-117797239D01*
X203645922Y-117533683D01*
X203413954Y-117311105D01*
X203264032Y-117215349D01*
X203414759Y-117114637D01*
X203614637Y-116914759D01*
X203771680Y-116679727D01*
X203879853Y-116418574D01*
X203935000Y-116141335D01*
X203935000Y-115858665D01*
X203879853Y-115581426D01*
X203771680Y-115320273D01*
X203617061Y-115088869D01*
X203671285Y-115117852D01*
X203979484Y-115211343D01*
X204219678Y-115235000D01*
X205380322Y-115235000D01*
X205620516Y-115211343D01*
X205928715Y-115117852D01*
X206212752Y-114966031D01*
X206461714Y-114761714D01*
X206666031Y-114512752D01*
X206817852Y-114228715D01*
X206911343Y-113920516D01*
X206942911Y-113600000D01*
X206911343Y-113279484D01*
X206861447Y-113115000D01*
X208862233Y-113115000D01*
X208832148Y-113171285D01*
X208738657Y-113479484D01*
X208707089Y-113800000D01*
X208738657Y-114120516D01*
X208832148Y-114428715D01*
X208938991Y-114628604D01*
X208918574Y-114620147D01*
X208641335Y-114565000D01*
X208358665Y-114565000D01*
X208081426Y-114620147D01*
X207820273Y-114728320D01*
X207585241Y-114885363D01*
X207385363Y-115085241D01*
X207228320Y-115320273D01*
X207120147Y-115581426D01*
X207065000Y-115858665D01*
X207065000Y-116141335D01*
X207120147Y-116418574D01*
X207228320Y-116679727D01*
X207385363Y-116914759D01*
X207559208Y-117088604D01*
X207287248Y-117233969D01*
X207038286Y-117438286D01*
X206833969Y-117687248D01*
X206682148Y-117971285D01*
X206588657Y-118279484D01*
X206557089Y-118600000D01*
X206588657Y-118920516D01*
X206682148Y-119228715D01*
X206833969Y-119512752D01*
X207038286Y-119761714D01*
X207287248Y-119966031D01*
X207571285Y-120117852D01*
X207879484Y-120211343D01*
X208119678Y-120235000D01*
X209280322Y-120235000D01*
X209520516Y-120211343D01*
X209828715Y-120117852D01*
X210112752Y-119966031D01*
X210243578Y-119858665D01*
X214065000Y-119858665D01*
X214065000Y-120141335D01*
X214120147Y-120418574D01*
X214228320Y-120679727D01*
X214385363Y-120914759D01*
X214585241Y-121114637D01*
X214820273Y-121271680D01*
X215081426Y-121379853D01*
X215358665Y-121435000D01*
X215641335Y-121435000D01*
X215918574Y-121379853D01*
X216179727Y-121271680D01*
X216414759Y-121114637D01*
X216614637Y-120914759D01*
X216771680Y-120679727D01*
X216879853Y-120418574D01*
X216935000Y-120141335D01*
X216935000Y-119858665D01*
X216879853Y-119581426D01*
X216771680Y-119320273D01*
X216614637Y-119085241D01*
X216414759Y-118885363D01*
X216179727Y-118728320D01*
X215918574Y-118620147D01*
X215641335Y-118565000D01*
X215358665Y-118565000D01*
X215081426Y-118620147D01*
X214820273Y-118728320D01*
X214585241Y-118885363D01*
X214385363Y-119085241D01*
X214228320Y-119320273D01*
X214120147Y-119581426D01*
X214065000Y-119858665D01*
X210243578Y-119858665D01*
X210361714Y-119761714D01*
X210566031Y-119512752D01*
X210717852Y-119228715D01*
X210811343Y-118920516D01*
X210842911Y-118600000D01*
X210811343Y-118279484D01*
X210717852Y-117971285D01*
X210566031Y-117687248D01*
X210361714Y-117438286D01*
X210112752Y-117233969D01*
X209828715Y-117082148D01*
X209536032Y-116993364D01*
X209614637Y-116914759D01*
X209771680Y-116679727D01*
X209879853Y-116418574D01*
X209935000Y-116141335D01*
X209935000Y-115858665D01*
X209879853Y-115581426D01*
X209777775Y-115334988D01*
X210029484Y-115411343D01*
X210269678Y-115435000D01*
X210930322Y-115435000D01*
X211170516Y-115411343D01*
X211478715Y-115317852D01*
X211762752Y-115166031D01*
X212011714Y-114961714D01*
X212216031Y-114712752D01*
X212367852Y-114428715D01*
X212461343Y-114120516D01*
X212492911Y-113800000D01*
X212461343Y-113479484D01*
X212367852Y-113171285D01*
X212337767Y-113115000D01*
X214265252Y-113115000D01*
X214385363Y-113294759D01*
X214585241Y-113494637D01*
X214820273Y-113651680D01*
X215081426Y-113759853D01*
X215358665Y-113815000D01*
X215641335Y-113815000D01*
X215918574Y-113759853D01*
X216179727Y-113651680D01*
X216414759Y-113494637D01*
X216614637Y-113294759D01*
X216771680Y-113059727D01*
X216879853Y-112798574D01*
X216935000Y-112521335D01*
X216935000Y-112238665D01*
X216879853Y-111961426D01*
X216771680Y-111700273D01*
X216614637Y-111465241D01*
X216414759Y-111265363D01*
X216179727Y-111108320D01*
X215918574Y-111000147D01*
X215641335Y-110945000D01*
X215358665Y-110945000D01*
X215081426Y-111000147D01*
X214820273Y-111108320D01*
X214585241Y-111265363D01*
X214385363Y-111465241D01*
X214265252Y-111645000D01*
X204856094Y-111645000D01*
X204819999Y-111641445D01*
X204783904Y-111645000D01*
X204783895Y-111645000D01*
X204675915Y-111655635D01*
X204537367Y-111697663D01*
X204409680Y-111765913D01*
X204297762Y-111857762D01*
X204288745Y-111868750D01*
X204277762Y-111877763D01*
X204204980Y-111966448D01*
X203979484Y-111988657D01*
X203671285Y-112082148D01*
X203387248Y-112233969D01*
X203138286Y-112438286D01*
X202933969Y-112687248D01*
X202782148Y-112971285D01*
X202688657Y-113279484D01*
X202657089Y-113600000D01*
X202688657Y-113920516D01*
X202782148Y-114228715D01*
X202933969Y-114512752D01*
X203075424Y-114685116D01*
X202918574Y-114620147D01*
X202641335Y-114565000D01*
X202358665Y-114565000D01*
X202081426Y-114620147D01*
X201820273Y-114728320D01*
X201585241Y-114885363D01*
X201385363Y-115085241D01*
X201228320Y-115320273D01*
X201120147Y-115581426D01*
X201065000Y-115858665D01*
X201065000Y-116141335D01*
X201120147Y-116418574D01*
X201228320Y-116679727D01*
X201385363Y-116914759D01*
X201435604Y-116965000D01*
X201273000Y-116965000D01*
X200956468Y-117021193D01*
X200685000Y-117127124D01*
X200685000Y-110072876D01*
X200956468Y-110178807D01*
X201273000Y-110235000D01*
X201773000Y-110235000D01*
X201773000Y-108727000D01*
X202027000Y-108727000D01*
X202027000Y-110235000D01*
X202527000Y-110235000D01*
X202843532Y-110178807D01*
X203143020Y-110061942D01*
X203413954Y-109888895D01*
X203645922Y-109666317D01*
X203830010Y-109402761D01*
X203959144Y-109108355D01*
X203990124Y-108980434D01*
X203870777Y-108727000D01*
X202027000Y-108727000D01*
X201773000Y-108727000D01*
X201753000Y-108727000D01*
X201753000Y-108473000D01*
X201773000Y-108473000D01*
X201773000Y-108453000D01*
X202027000Y-108453000D01*
X202027000Y-108473000D01*
X203870777Y-108473000D01*
X203990124Y-108219566D01*
X203959144Y-108091645D01*
X203830010Y-107797239D01*
X203645922Y-107533683D01*
X203413954Y-107311105D01*
X203264032Y-107215349D01*
X203414759Y-107114637D01*
X203614637Y-106914759D01*
X203771680Y-106679727D01*
X203879853Y-106418574D01*
X203935000Y-106141335D01*
X203935000Y-105858665D01*
X203879853Y-105581426D01*
X203771680Y-105320273D01*
X203617061Y-105088869D01*
X203671285Y-105117852D01*
X203979484Y-105211343D01*
X204219678Y-105235000D01*
X205380322Y-105235000D01*
X205620516Y-105211343D01*
X205928715Y-105117852D01*
X206212752Y-104966031D01*
X206461714Y-104761714D01*
X206666031Y-104512752D01*
X206817852Y-104228715D01*
X206911343Y-103920516D01*
X206942911Y-103600000D01*
X206911343Y-103279484D01*
X206817852Y-102971285D01*
X206666031Y-102687248D01*
X206461714Y-102438286D01*
X206212752Y-102233969D01*
X205928715Y-102082148D01*
X205620516Y-101988657D01*
X205380322Y-101965000D01*
X204219678Y-101965000D01*
X203979484Y-101988657D01*
X203671285Y-102082148D01*
X203387248Y-102233969D01*
X203138286Y-102438286D01*
X202933969Y-102687248D01*
X202782148Y-102971285D01*
X202688657Y-103279484D01*
X202657089Y-103600000D01*
X202688657Y-103920516D01*
X202782148Y-104228715D01*
X202933969Y-104512752D01*
X203075424Y-104685116D01*
X202918574Y-104620147D01*
X202641335Y-104565000D01*
X202358665Y-104565000D01*
X202081426Y-104620147D01*
X201820273Y-104728320D01*
X201585241Y-104885363D01*
X201385363Y-105085241D01*
X201228320Y-105320273D01*
X201120147Y-105581426D01*
X201065000Y-105858665D01*
X201065000Y-106141335D01*
X201120147Y-106418574D01*
X201228320Y-106679727D01*
X201385363Y-106914759D01*
X201435604Y-106965000D01*
X201273000Y-106965000D01*
X200956468Y-107021193D01*
X200685000Y-107127124D01*
X200685000Y-97304495D01*
X201515000Y-97304495D01*
X201515000Y-97695505D01*
X201591282Y-98079003D01*
X201740915Y-98440250D01*
X201958149Y-98765364D01*
X202234636Y-99041851D01*
X202559750Y-99259085D01*
X202920997Y-99408718D01*
X203304495Y-99485000D01*
X203695505Y-99485000D01*
X204079003Y-99408718D01*
X204440250Y-99259085D01*
X204765364Y-99041851D01*
X205041851Y-98765364D01*
X205259085Y-98440250D01*
X205408718Y-98079003D01*
X205485000Y-97695505D01*
X205485000Y-97304495D01*
X205408718Y-96920997D01*
X205259085Y-96559750D01*
X205041851Y-96234636D01*
X204765364Y-95958149D01*
X204440250Y-95740915D01*
X204079003Y-95591282D01*
X203695505Y-95515000D01*
X203304495Y-95515000D01*
X202920997Y-95591282D01*
X202559750Y-95740915D01*
X202234636Y-95958149D01*
X201958149Y-96234636D01*
X201740915Y-96559750D01*
X201591282Y-96920997D01*
X201515000Y-97304495D01*
X200685000Y-97304495D01*
X200685000Y-97033505D01*
X200732312Y-96550984D01*
X200862714Y-96119070D01*
X201074524Y-95720715D01*
X201359675Y-95371086D01*
X201707303Y-95083503D01*
X202104177Y-94868914D01*
X202535161Y-94735502D01*
X203015654Y-94685000D01*
X211203421Y-94685000D01*
X211128960Y-94759461D01*
G37*
X211128960Y-94759461D02*
X211056260Y-94745000D01*
X210763740Y-94745000D01*
X210476842Y-94802068D01*
X210206589Y-94914010D01*
X209963368Y-95076525D01*
X209756525Y-95283368D01*
X209640000Y-95457760D01*
X209523475Y-95283368D01*
X209316632Y-95076525D01*
X209073411Y-94914010D01*
X208803158Y-94802068D01*
X208516260Y-94745000D01*
X208223740Y-94745000D01*
X207936842Y-94802068D01*
X207666589Y-94914010D01*
X207423368Y-95076525D01*
X207216525Y-95283368D01*
X207054010Y-95526589D01*
X206942068Y-95796842D01*
X206885000Y-96083740D01*
X206885000Y-96376260D01*
X206942068Y-96663158D01*
X207054010Y-96933411D01*
X207216525Y-97176632D01*
X207348380Y-97308487D01*
X207275820Y-97330498D01*
X207165506Y-97389463D01*
X207068815Y-97468815D01*
X206989463Y-97565506D01*
X206930498Y-97675820D01*
X206894188Y-97795518D01*
X206881928Y-97920000D01*
X206881928Y-99620000D01*
X206894188Y-99744482D01*
X206930498Y-99864180D01*
X206989463Y-99974494D01*
X207068815Y-100071185D01*
X207165506Y-100150537D01*
X207275820Y-100209502D01*
X207395518Y-100245812D01*
X207520000Y-100258072D01*
X209220000Y-100258072D01*
X209344482Y-100245812D01*
X209464180Y-100209502D01*
X209574494Y-100150537D01*
X209671185Y-100071185D01*
X209750537Y-99974494D01*
X209809502Y-99864180D01*
X209831513Y-99791620D01*
X209963368Y-99923475D01*
X210206589Y-100085990D01*
X210476842Y-100197932D01*
X210763740Y-100255000D01*
X211056260Y-100255000D01*
X211305897Y-100205344D01*
X212314990Y-101214437D01*
X212314991Y-103072388D01*
X212216031Y-102887248D01*
X212011714Y-102638286D01*
X211762752Y-102433969D01*
X211478715Y-102282148D01*
X211170516Y-102188657D01*
X210930322Y-102165000D01*
X210269678Y-102165000D01*
X210029484Y-102188657D01*
X209721285Y-102282148D01*
X209437248Y-102433969D01*
X209188286Y-102638286D01*
X208983969Y-102887248D01*
X208832148Y-103171285D01*
X208738657Y-103479484D01*
X208707089Y-103800000D01*
X208738657Y-104120516D01*
X208832148Y-104428715D01*
X208938991Y-104628604D01*
X208918574Y-104620147D01*
X208641335Y-104565000D01*
X208358665Y-104565000D01*
X208081426Y-104620147D01*
X207820273Y-104728320D01*
X207585241Y-104885363D01*
X207385363Y-105085241D01*
X207228320Y-105320273D01*
X207120147Y-105581426D01*
X207065000Y-105858665D01*
X207065000Y-106141335D01*
X207120147Y-106418574D01*
X207228320Y-106679727D01*
X207385363Y-106914759D01*
X207559208Y-107088604D01*
X207287248Y-107233969D01*
X207038286Y-107438286D01*
X206833969Y-107687248D01*
X206682148Y-107971285D01*
X206588657Y-108279484D01*
X206557089Y-108600000D01*
X206588657Y-108920516D01*
X206682148Y-109228715D01*
X206833969Y-109512752D01*
X207038286Y-109761714D01*
X207287248Y-109966031D01*
X207571285Y-110117852D01*
X207879484Y-110211343D01*
X208119678Y-110235000D01*
X209280322Y-110235000D01*
X209520516Y-110211343D01*
X209828715Y-110117852D01*
X210112752Y-109966031D01*
X210361714Y-109761714D01*
X210566031Y-109512752D01*
X210717852Y-109228715D01*
X210811343Y-108920516D01*
X210842911Y-108600000D01*
X210811343Y-108279484D01*
X210717852Y-107971285D01*
X210566031Y-107687248D01*
X210361714Y-107438286D01*
X210112752Y-107233969D01*
X209828715Y-107082148D01*
X209536032Y-106993364D01*
X209614637Y-106914759D01*
X209771680Y-106679727D01*
X209879853Y-106418574D01*
X209935000Y-106141335D01*
X209935000Y-105858665D01*
X209879853Y-105581426D01*
X209777775Y-105334988D01*
X210029484Y-105411343D01*
X210269678Y-105435000D01*
X210930322Y-105435000D01*
X211170516Y-105411343D01*
X211478715Y-105317852D01*
X211762752Y-105166031D01*
X212011714Y-104961714D01*
X212216031Y-104712752D01*
X212314991Y-104527611D01*
X212314991Y-105079574D01*
X212311434Y-105115689D01*
X212325625Y-105259774D01*
X212350057Y-105340313D01*
X212367654Y-105398322D01*
X212435904Y-105526009D01*
X212527753Y-105637927D01*
X212555798Y-105660943D01*
X218579047Y-111684193D01*
X218602063Y-111712238D01*
X218713981Y-111804087D01*
X218841668Y-111872337D01*
X218938187Y-111901616D01*
X218980215Y-111914365D01*
X219124301Y-111928556D01*
X219160406Y-111925000D01*
X228525553Y-111925000D01*
X224295808Y-116154746D01*
X224267762Y-116177763D01*
X224175913Y-116289681D01*
X224107663Y-116417368D01*
X224079616Y-116509827D01*
X224065635Y-116555915D01*
X224051444Y-116700000D01*
X224055000Y-116736105D01*
X224055001Y-128940251D01*
X223875241Y-129060363D01*
X223675363Y-129260241D01*
X223520000Y-129492759D01*
X223364637Y-129260241D01*
X223164759Y-129060363D01*
X222929727Y-128903320D01*
X222668574Y-128795147D01*
X222391335Y-128740000D01*
X222108665Y-128740000D01*
X221831426Y-128795147D01*
X221635010Y-128876505D01*
X221635010Y-124904436D01*
X221744188Y-124795258D01*
X221772239Y-124772237D01*
X221864088Y-124660319D01*
X221932338Y-124532632D01*
X221974366Y-124394084D01*
X221985001Y-124286104D01*
X221988557Y-124250000D01*
X221985001Y-124213895D01*
X221985001Y-115286106D01*
X221988557Y-115250001D01*
X221974366Y-115105916D01*
X221932338Y-114967367D01*
X221864088Y-114839681D01*
X221795254Y-114755807D01*
X221795251Y-114755804D01*
X221772238Y-114727763D01*
X221744198Y-114704751D01*
X221585000Y-114545553D01*
X221585000Y-114393137D01*
X221543304Y-114183517D01*
X221461515Y-113986060D01*
X221342775Y-113808353D01*
X221191647Y-113657225D01*
X221013940Y-113538485D01*
X220816483Y-113456696D01*
X220606863Y-113415000D01*
X220393137Y-113415000D01*
X220183517Y-113456696D01*
X219986060Y-113538485D01*
X219808353Y-113657225D01*
X219657225Y-113808353D01*
X219538485Y-113986060D01*
X219456696Y-114183517D01*
X219415000Y-114393137D01*
X219415000Y-114606863D01*
X219456696Y-114816483D01*
X219538485Y-115013940D01*
X219657225Y-115191647D01*
X219808353Y-115342775D01*
X219986060Y-115461515D01*
X220183517Y-115543304D01*
X220393137Y-115585000D01*
X220515001Y-115585000D01*
X220515001Y-117915000D01*
X220393137Y-117915000D01*
X220183517Y-117956696D01*
X219986060Y-118038485D01*
X219808353Y-118157225D01*
X219657225Y-118308353D01*
X219538485Y-118486060D01*
X219456696Y-118683517D01*
X219415000Y-118893137D01*
X219415000Y-119106863D01*
X219456696Y-119316483D01*
X219538485Y-119513940D01*
X219657225Y-119691647D01*
X219765000Y-119799422D01*
X219765001Y-132443554D01*
X216770319Y-135438236D01*
X216614637Y-135205241D01*
X216414759Y-135005363D01*
X216179727Y-134848320D01*
X215918574Y-134740147D01*
X215641335Y-134685000D01*
X215358665Y-134685000D01*
X215081426Y-134740147D01*
X214820273Y-134848320D01*
X214585241Y-135005363D01*
X214385363Y-135205241D01*
X214228320Y-135440273D01*
X214120147Y-135701426D01*
X214065000Y-135978665D01*
X214065000Y-136261335D01*
X214120147Y-136538574D01*
X214228320Y-136799727D01*
X214385363Y-137034759D01*
X214585241Y-137234637D01*
X214818237Y-137390319D01*
X214645809Y-137562747D01*
X214617763Y-137585764D01*
X214525914Y-137697682D01*
X214457664Y-137825369D01*
X214440763Y-137881085D01*
X214415636Y-137963916D01*
X214401445Y-138108001D01*
X214405001Y-138144106D01*
X214405002Y-144743886D01*
X214401445Y-144780001D01*
X214415636Y-144924086D01*
X214452560Y-145045806D01*
X214457665Y-145062634D01*
X214525915Y-145190321D01*
X214543068Y-145211222D01*
X214505000Y-145402604D01*
X214505000Y-145677396D01*
X214558609Y-145946907D01*
X214663767Y-146200780D01*
X214816433Y-146429261D01*
X215010739Y-146623567D01*
X215239220Y-146776233D01*
X215493093Y-146881391D01*
X215762604Y-146935000D01*
X216037396Y-146935000D01*
X216306907Y-146881391D01*
X216560780Y-146776233D01*
X216789261Y-146623567D01*
X216920000Y-146492828D01*
X217050739Y-146623567D01*
X217279220Y-146776233D01*
X217533093Y-146881391D01*
X217802604Y-146935000D01*
X218077396Y-146935000D01*
X218346907Y-146881391D01*
X218600780Y-146776233D01*
X218829261Y-146623567D01*
X218948691Y-146504137D01*
X219195469Y-146504137D01*
X219262206Y-146744025D01*
X219510892Y-146860924D01*
X219777606Y-146927061D01*
X220052097Y-146939895D01*
X220323817Y-146898931D01*
X220582326Y-146805744D01*
X220697794Y-146744025D01*
X220764531Y-146504137D01*
X219980000Y-145719605D01*
X219195469Y-146504137D01*
X218948691Y-146504137D01*
X219023567Y-146429261D01*
X219176233Y-146200780D01*
X219202127Y-146138268D01*
X219800395Y-145540000D01*
X220159605Y-145540000D01*
X220944137Y-146324531D01*
X221184025Y-146257794D01*
X221300924Y-146009108D01*
X221367061Y-145742394D01*
X221379895Y-145467903D01*
X221338931Y-145196183D01*
X221245744Y-144937674D01*
X221184025Y-144822206D01*
X220944137Y-144755469D01*
X220159605Y-145540000D01*
X219800395Y-145540000D01*
X219202127Y-144941732D01*
X219176233Y-144879220D01*
X219023567Y-144650739D01*
X218829261Y-144456433D01*
X218701170Y-144370845D01*
X218822604Y-144395000D01*
X219097396Y-144395000D01*
X219254478Y-144363755D01*
X219195469Y-144575863D01*
X219980000Y-145360395D01*
X220764531Y-144575863D01*
X220715069Y-144398072D01*
X221760000Y-144398072D01*
X221884482Y-144385812D01*
X222004180Y-144349502D01*
X222114494Y-144290537D01*
X222211185Y-144211185D01*
X222290537Y-144114494D01*
X222349502Y-144004180D01*
X222385812Y-143884482D01*
X222398072Y-143760000D01*
X222398072Y-142240000D01*
X222385812Y-142115518D01*
X222349502Y-141995820D01*
X222290537Y-141885506D01*
X222211185Y-141788815D01*
X222114494Y-141709463D01*
X222004180Y-141650498D01*
X221884482Y-141614188D01*
X221760000Y-141601928D01*
X220240000Y-141601928D01*
X220115518Y-141614188D01*
X219995820Y-141650498D01*
X219885506Y-141709463D01*
X219788815Y-141788815D01*
X219742581Y-141845152D01*
X219620780Y-141763767D01*
X219366907Y-141658609D01*
X219311799Y-141647647D01*
X221394203Y-139565244D01*
X221422248Y-139542228D01*
X221514097Y-139430310D01*
X221582347Y-139302623D01*
X221603724Y-139232154D01*
X221964250Y-139230000D01*
X222123000Y-139071250D01*
X222123000Y-137922000D01*
X222377000Y-137922000D01*
X222377000Y-139071250D01*
X222535750Y-139230000D01*
X223050000Y-139233072D01*
X223174482Y-139220812D01*
X223294180Y-139184502D01*
X223404494Y-139125537D01*
X223501185Y-139046185D01*
X223580537Y-138949494D01*
X223639502Y-138839180D01*
X223675812Y-138719482D01*
X223678231Y-138694920D01*
X223826586Y-138858519D01*
X224052580Y-139026037D01*
X224306913Y-139146246D01*
X224440961Y-139186904D01*
X224663000Y-139064915D01*
X224663000Y-137922000D01*
X224917000Y-137922000D01*
X224917000Y-139064915D01*
X225139039Y-139186904D01*
X225273087Y-139146246D01*
X225527420Y-139026037D01*
X225753414Y-138858519D01*
X225942385Y-138650131D01*
X226060000Y-138454018D01*
X226177615Y-138650131D01*
X226366586Y-138858519D01*
X226592580Y-139026037D01*
X226846913Y-139146246D01*
X226980961Y-139186904D01*
X227203000Y-139064915D01*
X227203000Y-137922000D01*
X224917000Y-137922000D01*
X224663000Y-137922000D01*
X222377000Y-137922000D01*
X222123000Y-137922000D01*
X222103000Y-137922000D01*
X222103000Y-137668000D01*
X222123000Y-137668000D01*
X222123000Y-136518750D01*
X222377000Y-136518750D01*
X222377000Y-137668000D01*
X224663000Y-137668000D01*
X224663000Y-136525085D01*
X224917000Y-136525085D01*
X224917000Y-137668000D01*
X227203000Y-137668000D01*
X227203000Y-136525085D01*
X227457000Y-136525085D01*
X227457000Y-137668000D01*
X227477000Y-137668000D01*
X227477000Y-137922000D01*
X227457000Y-137922000D01*
X227457000Y-139064915D01*
X227679039Y-139186904D01*
X227813087Y-139146246D01*
X228067420Y-139026037D01*
X228293414Y-138858519D01*
X228482385Y-138650131D01*
X228593933Y-138464135D01*
X228598320Y-138474727D01*
X228755363Y-138709759D01*
X228955241Y-138909637D01*
X229190273Y-139066680D01*
X229451426Y-139174853D01*
X229728665Y-139230000D01*
X230011335Y-139230000D01*
X230288574Y-139174853D01*
X230549727Y-139066680D01*
X230784759Y-138909637D01*
X230984637Y-138709759D01*
X231140000Y-138477241D01*
X231295363Y-138709759D01*
X231495241Y-138909637D01*
X231730273Y-139066680D01*
X231968286Y-139165268D01*
X230145809Y-140987745D01*
X230117763Y-141010762D01*
X230025914Y-141122680D01*
X229957664Y-141250367D01*
X229928385Y-141346886D01*
X229915636Y-141388914D01*
X229901445Y-141532999D01*
X229905001Y-141569104D01*
X229905002Y-144743886D01*
X229901445Y-144780001D01*
X229915636Y-144924086D01*
X229952560Y-145045806D01*
X229957665Y-145062634D01*
X230025915Y-145190321D01*
X230043068Y-145211222D01*
X230005000Y-145402604D01*
X230005000Y-145677396D01*
X230058609Y-145946907D01*
X230163767Y-146200780D01*
X230316433Y-146429261D01*
X230510739Y-146623567D01*
X230739220Y-146776233D01*
X230993093Y-146881391D01*
X231262604Y-146935000D01*
X231537396Y-146935000D01*
X231806907Y-146881391D01*
X232060780Y-146776233D01*
X232289261Y-146623567D01*
X232420000Y-146492828D01*
X232550739Y-146623567D01*
X232779220Y-146776233D01*
X233033093Y-146881391D01*
X233302604Y-146935000D01*
X233577396Y-146935000D01*
X233846907Y-146881391D01*
X234100780Y-146776233D01*
X234329261Y-146623567D01*
X234448691Y-146504137D01*
X234695469Y-146504137D01*
X234762206Y-146744025D01*
X235010892Y-146860924D01*
X235277606Y-146927061D01*
X235552097Y-146939895D01*
X235823817Y-146898931D01*
X236082326Y-146805744D01*
X236197794Y-146744025D01*
X236264531Y-146504137D01*
X235480000Y-145719605D01*
X234695469Y-146504137D01*
X234448691Y-146504137D01*
X234523567Y-146429261D01*
X234676233Y-146200780D01*
X234702127Y-146138268D01*
X235300395Y-145540000D01*
X235659605Y-145540000D01*
X236444137Y-146324531D01*
X236684025Y-146257794D01*
X236800924Y-146009108D01*
X236867061Y-145742394D01*
X236879895Y-145467903D01*
X236870051Y-145402604D01*
X245505000Y-145402604D01*
X245505000Y-145677396D01*
X245558609Y-145946907D01*
X245663767Y-146200780D01*
X245816433Y-146429261D01*
X246010739Y-146623567D01*
X246239220Y-146776233D01*
X246493093Y-146881391D01*
X246762604Y-146935000D01*
X247037396Y-146935000D01*
X247306907Y-146881391D01*
X247560780Y-146776233D01*
X247789261Y-146623567D01*
X247920000Y-146492828D01*
X248050739Y-146623567D01*
X248279220Y-146776233D01*
X248533093Y-146881391D01*
X248802604Y-146935000D01*
X249077396Y-146935000D01*
X249346907Y-146881391D01*
X249600780Y-146776233D01*
X249829261Y-146623567D01*
X249948691Y-146504137D01*
X250195469Y-146504137D01*
X250262206Y-146744025D01*
X250510892Y-146860924D01*
X250777606Y-146927061D01*
X251052097Y-146939895D01*
X251323817Y-146898931D01*
X251582326Y-146805744D01*
X251697794Y-146744025D01*
X251764531Y-146504137D01*
X250980000Y-145719605D01*
X250195469Y-146504137D01*
X249948691Y-146504137D01*
X250023567Y-146429261D01*
X250176233Y-146200780D01*
X250202127Y-146138268D01*
X250800395Y-145540000D01*
X251159605Y-145540000D01*
X251944137Y-146324531D01*
X252184025Y-146257794D01*
X252300924Y-146009108D01*
X252367061Y-145742394D01*
X252379895Y-145467903D01*
X252338931Y-145196183D01*
X252245744Y-144937674D01*
X252184025Y-144822206D01*
X251944137Y-144755469D01*
X251159605Y-145540000D01*
X250800395Y-145540000D01*
X250202127Y-144941732D01*
X250176233Y-144879220D01*
X250023567Y-144650739D01*
X249829261Y-144456433D01*
X249701170Y-144370845D01*
X249822604Y-144395000D01*
X250097396Y-144395000D01*
X250254478Y-144363755D01*
X250195469Y-144575863D01*
X250980000Y-145360395D01*
X251764531Y-144575863D01*
X251715069Y-144398072D01*
X252760000Y-144398072D01*
X252884482Y-144385812D01*
X253004180Y-144349502D01*
X253114494Y-144290537D01*
X253211185Y-144211185D01*
X253290537Y-144114494D01*
X253349502Y-144004180D01*
X253385812Y-143884482D01*
X253398072Y-143760000D01*
X253398072Y-142240000D01*
X253385812Y-142115518D01*
X253349502Y-141995820D01*
X253290537Y-141885506D01*
X253211185Y-141788815D01*
X253114494Y-141709463D01*
X253004180Y-141650498D01*
X252884482Y-141614188D01*
X252760000Y-141601928D01*
X251240000Y-141601928D01*
X251115518Y-141614188D01*
X250995820Y-141650498D01*
X250885506Y-141709463D01*
X250788815Y-141788815D01*
X250742581Y-141845152D01*
X250620780Y-141763767D01*
X250366907Y-141658609D01*
X250097396Y-141605000D01*
X249822604Y-141605000D01*
X249553093Y-141658609D01*
X249299220Y-141763767D01*
X249070739Y-141916433D01*
X248940000Y-142047172D01*
X248809261Y-141916433D01*
X248580780Y-141763767D01*
X248326907Y-141658609D01*
X248057396Y-141605000D01*
X247782604Y-141605000D01*
X247513093Y-141658609D01*
X247259220Y-141763767D01*
X247030739Y-141916433D01*
X246836433Y-142110739D01*
X246683767Y-142339220D01*
X246578609Y-142593093D01*
X246525000Y-142862604D01*
X246525000Y-143137396D01*
X246578609Y-143406907D01*
X246683767Y-143660780D01*
X246836433Y-143889261D01*
X247030739Y-144083567D01*
X247158830Y-144169155D01*
X247037396Y-144145000D01*
X246762604Y-144145000D01*
X246493093Y-144198609D01*
X246239220Y-144303767D01*
X246010739Y-144456433D01*
X245816433Y-144650739D01*
X245663767Y-144879220D01*
X245558609Y-145133093D01*
X245505000Y-145402604D01*
X236870051Y-145402604D01*
X236838931Y-145196183D01*
X236745744Y-144937674D01*
X236684025Y-144822206D01*
X236444137Y-144755469D01*
X235659605Y-145540000D01*
X235300395Y-145540000D01*
X234702127Y-144941732D01*
X234676233Y-144879220D01*
X234523567Y-144650739D01*
X234329261Y-144456433D01*
X234201170Y-144370845D01*
X234322604Y-144395000D01*
X234597396Y-144395000D01*
X234754478Y-144363755D01*
X234695469Y-144575863D01*
X235480000Y-145360395D01*
X236264531Y-144575863D01*
X236215069Y-144398072D01*
X237260000Y-144398072D01*
X237384482Y-144385812D01*
X237504180Y-144349502D01*
X237614494Y-144290537D01*
X237711185Y-144211185D01*
X237790537Y-144114494D01*
X237849502Y-144004180D01*
X237885812Y-143884482D01*
X237898072Y-143760000D01*
X237898072Y-142240000D01*
X237885812Y-142115518D01*
X237849502Y-141995820D01*
X237790537Y-141885506D01*
X237711185Y-141788815D01*
X237614494Y-141709463D01*
X237504180Y-141650498D01*
X237384482Y-141614188D01*
X237260000Y-141601928D01*
X235740000Y-141601928D01*
X235615518Y-141614188D01*
X235495820Y-141650498D01*
X235385506Y-141709463D01*
X235288815Y-141788815D01*
X235242581Y-141845152D01*
X235120780Y-141763767D01*
X234866907Y-141658609D01*
X234597396Y-141605000D01*
X234322604Y-141605000D01*
X234053093Y-141658609D01*
X233799220Y-141763767D01*
X233570739Y-141916433D01*
X233440000Y-142047172D01*
X233309261Y-141916433D01*
X233155000Y-141813359D01*
X233155000Y-140629446D01*
X234596625Y-139187822D01*
X234808665Y-139230000D01*
X235091335Y-139230000D01*
X235368574Y-139174853D01*
X235629727Y-139066680D01*
X235864759Y-138909637D01*
X236064637Y-138709759D01*
X236220000Y-138477241D01*
X236375363Y-138709759D01*
X236575241Y-138909637D01*
X236810273Y-139066680D01*
X237071426Y-139174853D01*
X237348665Y-139230000D01*
X237631335Y-139230000D01*
X237908574Y-139174853D01*
X238169727Y-139066680D01*
X238404759Y-138909637D01*
X238604637Y-138709759D01*
X238761680Y-138474727D01*
X238766067Y-138464135D01*
X238877615Y-138650131D01*
X239066586Y-138858519D01*
X239292580Y-139026037D01*
X239546913Y-139146246D01*
X239680961Y-139186904D01*
X239903000Y-139064915D01*
X239903000Y-137922000D01*
X240157000Y-137922000D01*
X240157000Y-139064915D01*
X240379039Y-139186904D01*
X240513087Y-139146246D01*
X240767420Y-139026037D01*
X240993414Y-138858519D01*
X241182385Y-138650131D01*
X241327070Y-138408881D01*
X241421909Y-138144040D01*
X241300624Y-137922000D01*
X240157000Y-137922000D01*
X239903000Y-137922000D01*
X239883000Y-137922000D01*
X239883000Y-137668000D01*
X239903000Y-137668000D01*
X239903000Y-136525085D01*
X240157000Y-136525085D01*
X240157000Y-137668000D01*
X241300624Y-137668000D01*
X241421909Y-137445960D01*
X241327070Y-137181119D01*
X241182385Y-136939869D01*
X240993414Y-136731481D01*
X240767420Y-136563963D01*
X240513087Y-136443754D01*
X240379039Y-136403096D01*
X240157000Y-136525085D01*
X239903000Y-136525085D01*
X239680961Y-136403096D01*
X239546913Y-136443754D01*
X239292580Y-136563963D01*
X239066586Y-136731481D01*
X238877615Y-136939869D01*
X238766067Y-137125865D01*
X238761680Y-137115273D01*
X238604637Y-136880241D01*
X238404759Y-136680363D01*
X238169727Y-136523320D01*
X237908574Y-136415147D01*
X237631335Y-136360000D01*
X237348665Y-136360000D01*
X237136624Y-136402178D01*
X236935257Y-136200811D01*
X236912237Y-136172761D01*
X236800319Y-136080912D01*
X236672632Y-136012662D01*
X236534084Y-135970634D01*
X236426104Y-135959999D01*
X236389999Y-135956443D01*
X236353894Y-135959999D01*
X234458095Y-135959999D01*
X234421998Y-135956444D01*
X234385901Y-135959999D01*
X234385894Y-135959999D01*
X234292131Y-135969234D01*
X234277913Y-135970634D01*
X234251439Y-135978665D01*
X234139366Y-136012662D01*
X234011679Y-136080912D01*
X233899761Y-136172761D01*
X233876745Y-136200806D01*
X233360974Y-136716578D01*
X233324759Y-136680363D01*
X233089727Y-136523320D01*
X232828574Y-136415147D01*
X232551335Y-136360000D01*
X232268665Y-136360000D01*
X231991426Y-136415147D01*
X231730273Y-136523320D01*
X231495241Y-136680363D01*
X231295363Y-136880241D01*
X231140000Y-137112759D01*
X230984637Y-136880241D01*
X230784759Y-136680363D01*
X230549727Y-136523320D01*
X230288574Y-136415147D01*
X230011335Y-136360000D01*
X229728665Y-136360000D01*
X229451426Y-136415147D01*
X229190273Y-136523320D01*
X228955241Y-136680363D01*
X228755363Y-136880241D01*
X228598320Y-137115273D01*
X228593933Y-137125865D01*
X228482385Y-136939869D01*
X228293414Y-136731481D01*
X228067420Y-136563963D01*
X227813087Y-136443754D01*
X227679039Y-136403096D01*
X227457000Y-136525085D01*
X227203000Y-136525085D01*
X226980961Y-136403096D01*
X226846913Y-136443754D01*
X226592580Y-136563963D01*
X226366586Y-136731481D01*
X226177615Y-136939869D01*
X226060000Y-137135982D01*
X225942385Y-136939869D01*
X225753414Y-136731481D01*
X225527420Y-136563963D01*
X225273087Y-136443754D01*
X225139039Y-136403096D01*
X224917000Y-136525085D01*
X224663000Y-136525085D01*
X224440961Y-136403096D01*
X224306913Y-136443754D01*
X224052580Y-136563963D01*
X223826586Y-136731481D01*
X223678231Y-136895080D01*
X223675812Y-136870518D01*
X223639502Y-136750820D01*
X223580537Y-136640506D01*
X223501185Y-136543815D01*
X223404494Y-136464463D01*
X223294180Y-136405498D01*
X223174482Y-136369188D01*
X223050000Y-136356928D01*
X222535750Y-136360000D01*
X222377000Y-136518750D01*
X222123000Y-136518750D01*
X221964250Y-136360000D01*
X221635010Y-136358033D01*
X221635010Y-131473495D01*
X221831426Y-131554853D01*
X222108665Y-131610000D01*
X222391335Y-131610000D01*
X222668574Y-131554853D01*
X222929727Y-131446680D01*
X223164759Y-131289637D01*
X223364637Y-131089759D01*
X223520000Y-130857241D01*
X223675363Y-131089759D01*
X223875241Y-131289637D01*
X224110273Y-131446680D01*
X224371426Y-131554853D01*
X224648665Y-131610000D01*
X224931335Y-131610000D01*
X225208574Y-131554853D01*
X225469727Y-131446680D01*
X225704759Y-131289637D01*
X225904637Y-131089759D01*
X226060000Y-130857241D01*
X226215363Y-131089759D01*
X226415241Y-131289637D01*
X226650273Y-131446680D01*
X226911426Y-131554853D01*
X227188665Y-131610000D01*
X227471335Y-131610000D01*
X227748574Y-131554853D01*
X228009727Y-131446680D01*
X228244759Y-131289637D01*
X228444637Y-131089759D01*
X228600000Y-130857241D01*
X228755363Y-131089759D01*
X228955241Y-131289637D01*
X229190273Y-131446680D01*
X229451426Y-131554853D01*
X229728665Y-131610000D01*
X230011335Y-131610000D01*
X230288574Y-131554853D01*
X230549727Y-131446680D01*
X230784759Y-131289637D01*
X230984637Y-131089759D01*
X231140000Y-130857241D01*
X231295363Y-131089759D01*
X231495241Y-131289637D01*
X231730273Y-131446680D01*
X231991426Y-131554853D01*
X232268665Y-131610000D01*
X232551335Y-131610000D01*
X232828574Y-131554853D01*
X233089727Y-131446680D01*
X233324759Y-131289637D01*
X233524637Y-131089759D01*
X233680000Y-130857241D01*
X233835363Y-131089759D01*
X234035241Y-131289637D01*
X234270273Y-131446680D01*
X234531426Y-131554853D01*
X234808665Y-131610000D01*
X235091335Y-131610000D01*
X235368574Y-131554853D01*
X235629727Y-131446680D01*
X235864759Y-131289637D01*
X236064637Y-131089759D01*
X236220000Y-130857241D01*
X236375363Y-131089759D01*
X236575241Y-131289637D01*
X236810273Y-131446680D01*
X237071426Y-131554853D01*
X237348665Y-131610000D01*
X237631335Y-131610000D01*
X237908574Y-131554853D01*
X238169727Y-131446680D01*
X238404759Y-131289637D01*
X238604637Y-131089759D01*
X238760000Y-130857241D01*
X238915363Y-131089759D01*
X239115241Y-131289637D01*
X239350273Y-131446680D01*
X239611426Y-131554853D01*
X239888665Y-131610000D01*
X240171335Y-131610000D01*
X240448574Y-131554853D01*
X240709727Y-131446680D01*
X240944759Y-131289637D01*
X241144637Y-131089759D01*
X241301680Y-130854727D01*
X241409853Y-130593574D01*
X241465000Y-130316335D01*
X241465000Y-130033665D01*
X241409853Y-129756426D01*
X241301680Y-129495273D01*
X241144637Y-129260241D01*
X240944759Y-129060363D01*
X240709727Y-128903320D01*
X240448574Y-128795147D01*
X240171335Y-128740000D01*
X239888665Y-128740000D01*
X239611426Y-128795147D01*
X239350273Y-128903320D01*
X239115241Y-129060363D01*
X238915363Y-129260241D01*
X238760000Y-129492759D01*
X238604637Y-129260241D01*
X238404759Y-129060363D01*
X238169727Y-128903320D01*
X237908574Y-128795147D01*
X237631335Y-128740000D01*
X237348665Y-128740000D01*
X237071426Y-128795147D01*
X236810273Y-128903320D01*
X236575241Y-129060363D01*
X236375363Y-129260241D01*
X236220000Y-129492759D01*
X236064637Y-129260241D01*
X235864759Y-129060363D01*
X235629727Y-128903320D01*
X235368574Y-128795147D01*
X235091335Y-128740000D01*
X234808665Y-128740000D01*
X234531426Y-128795147D01*
X234270273Y-128903320D01*
X234035241Y-129060363D01*
X233835363Y-129260241D01*
X233680000Y-129492759D01*
X233524637Y-129260241D01*
X233324759Y-129060363D01*
X233089727Y-128903320D01*
X232828574Y-128795147D01*
X232551335Y-128740000D01*
X232268665Y-128740000D01*
X231991426Y-128795147D01*
X231730273Y-128903320D01*
X231495241Y-129060363D01*
X231295363Y-129260241D01*
X231140000Y-129492759D01*
X230984637Y-129260241D01*
X230784759Y-129060363D01*
X230549727Y-128903320D01*
X230288574Y-128795147D01*
X230011335Y-128740000D01*
X229728665Y-128740000D01*
X229451426Y-128795147D01*
X229190273Y-128903320D01*
X228955241Y-129060363D01*
X228755363Y-129260241D01*
X228600000Y-129492759D01*
X228444637Y-129260241D01*
X228244759Y-129060363D01*
X228065000Y-128940252D01*
X228065000Y-116531640D01*
X228326640Y-116270000D01*
X229859025Y-116270000D01*
X229882870Y-116512102D01*
X229953489Y-116744901D01*
X230068167Y-116959449D01*
X230222498Y-117147502D01*
X230410551Y-117301833D01*
X230625099Y-117416511D01*
X230857898Y-117487130D01*
X230969279Y-117498100D01*
X230894458Y-117589269D01*
X230857898Y-117592870D01*
X230625099Y-117663489D01*
X230410551Y-117778167D01*
X230222498Y-117932498D01*
X230068167Y-118120551D01*
X229953489Y-118335099D01*
X229882870Y-118567898D01*
X229859025Y-118810000D01*
X229882870Y-119052102D01*
X229953489Y-119284901D01*
X230068167Y-119499449D01*
X230222498Y-119687502D01*
X230410551Y-119841833D01*
X230625099Y-119956511D01*
X230857898Y-120027130D01*
X230969279Y-120038100D01*
X230894458Y-120129269D01*
X230857898Y-120132870D01*
X230625099Y-120203489D01*
X230410551Y-120318167D01*
X230222498Y-120472498D01*
X230068167Y-120660551D01*
X229953489Y-120875099D01*
X229882870Y-121107898D01*
X229859025Y-121350000D01*
X229882870Y-121592102D01*
X229953489Y-121824901D01*
X230068167Y-122039449D01*
X230222498Y-122227502D01*
X230410551Y-122381833D01*
X230625099Y-122496511D01*
X230857898Y-122567130D01*
X230969279Y-122578100D01*
X230894458Y-122669269D01*
X230857898Y-122672870D01*
X230625099Y-122743489D01*
X230410551Y-122858167D01*
X230222498Y-123012498D01*
X230068167Y-123200551D01*
X229953489Y-123415099D01*
X229882870Y-123647898D01*
X229859025Y-123890000D01*
X229882870Y-124132102D01*
X229953489Y-124364901D01*
X230068167Y-124579449D01*
X230222498Y-124767502D01*
X230410551Y-124921833D01*
X230625099Y-125036511D01*
X230857898Y-125107130D01*
X230969279Y-125118100D01*
X230894458Y-125209269D01*
X230857898Y-125212870D01*
X230625099Y-125283489D01*
X230410551Y-125398167D01*
X230222498Y-125552498D01*
X230068167Y-125740551D01*
X229953489Y-125955099D01*
X229882870Y-126187898D01*
X229859025Y-126430000D01*
X229882870Y-126672102D01*
X229953489Y-126904901D01*
X230068167Y-127119449D01*
X230222498Y-127307502D01*
X230410551Y-127461833D01*
X230625099Y-127576511D01*
X230857898Y-127647130D01*
X231039335Y-127665000D01*
X231960665Y-127665000D01*
X232142102Y-127647130D01*
X232374901Y-127576511D01*
X232589449Y-127461833D01*
X232777502Y-127307502D01*
X232931833Y-127119449D01*
X233046511Y-126904901D01*
X233117130Y-126672102D01*
X233140975Y-126430000D01*
X233117130Y-126187898D01*
X233046511Y-125955099D01*
X232931833Y-125740551D01*
X232777502Y-125552498D01*
X232689318Y-125480128D01*
X234350706Y-123818740D01*
X241450000Y-123818740D01*
X241450000Y-124111260D01*
X241507068Y-124398158D01*
X241619010Y-124668411D01*
X241781525Y-124911632D01*
X241988368Y-125118475D01*
X242231589Y-125280990D01*
X242501842Y-125392932D01*
X242788740Y-125450000D01*
X243081260Y-125450000D01*
X243368158Y-125392932D01*
X243638411Y-125280990D01*
X243881632Y-125118475D01*
X244088475Y-124911632D01*
X244250990Y-124668411D01*
X244362932Y-124398158D01*
X244420000Y-124111260D01*
X244420000Y-123818740D01*
X245260000Y-123818740D01*
X245260000Y-124111260D01*
X245317068Y-124398158D01*
X245429010Y-124668411D01*
X245591525Y-124911632D01*
X245798368Y-125118475D01*
X246041589Y-125280990D01*
X246311842Y-125392932D01*
X246598740Y-125450000D01*
X246891260Y-125450000D01*
X247178158Y-125392932D01*
X247448411Y-125280990D01*
X247691632Y-125118475D01*
X247898475Y-124911632D01*
X248060990Y-124668411D01*
X248172932Y-124398158D01*
X248230000Y-124111260D01*
X248230000Y-123818740D01*
X249070000Y-123818740D01*
X249070000Y-124111260D01*
X249127068Y-124398158D01*
X249239010Y-124668411D01*
X249401525Y-124911632D01*
X249608368Y-125118475D01*
X249851589Y-125280990D01*
X250121842Y-125392932D01*
X250408740Y-125450000D01*
X250701260Y-125450000D01*
X250988158Y-125392932D01*
X251258411Y-125280990D01*
X251501632Y-125118475D01*
X251708475Y-124911632D01*
X251870990Y-124668411D01*
X251982932Y-124398158D01*
X252040000Y-124111260D01*
X252040000Y-123818740D01*
X252880000Y-123818740D01*
X252880000Y-124111260D01*
X252937068Y-124398158D01*
X253049010Y-124668411D01*
X253211525Y-124911632D01*
X253418368Y-125118475D01*
X253661589Y-125280990D01*
X253931842Y-125392932D01*
X254218740Y-125450000D01*
X254511260Y-125450000D01*
X254798158Y-125392932D01*
X255068411Y-125280990D01*
X255311632Y-125118475D01*
X255518475Y-124911632D01*
X255680990Y-124668411D01*
X255792932Y-124398158D01*
X255850000Y-124111260D01*
X255850000Y-123818740D01*
X255792932Y-123531842D01*
X255680990Y-123261589D01*
X255518475Y-123018368D01*
X255311632Y-122811525D01*
X255129466Y-122689805D01*
X255246355Y-122620178D01*
X255462588Y-122425269D01*
X255636641Y-122191920D01*
X255761825Y-121929099D01*
X255806476Y-121781890D01*
X255685155Y-121552000D01*
X254492000Y-121552000D01*
X254492000Y-121572000D01*
X254238000Y-121572000D01*
X254238000Y-121552000D01*
X253044845Y-121552000D01*
X252923524Y-121781890D01*
X252968175Y-121929099D01*
X253093359Y-122191920D01*
X253267412Y-122425269D01*
X253483645Y-122620178D01*
X253600534Y-122689805D01*
X253418368Y-122811525D01*
X253211525Y-123018368D01*
X253049010Y-123261589D01*
X252937068Y-123531842D01*
X252880000Y-123818740D01*
X252040000Y-123818740D01*
X251982932Y-123531842D01*
X251870990Y-123261589D01*
X251708475Y-123018368D01*
X251501632Y-122811525D01*
X251319466Y-122689805D01*
X251436355Y-122620178D01*
X251652588Y-122425269D01*
X251826641Y-122191920D01*
X251951825Y-121929099D01*
X251996476Y-121781890D01*
X251875155Y-121552000D01*
X250682000Y-121552000D01*
X250682000Y-121572000D01*
X250428000Y-121572000D01*
X250428000Y-121552000D01*
X249234845Y-121552000D01*
X249113524Y-121781890D01*
X249158175Y-121929099D01*
X249283359Y-122191920D01*
X249457412Y-122425269D01*
X249673645Y-122620178D01*
X249790534Y-122689805D01*
X249608368Y-122811525D01*
X249401525Y-123018368D01*
X249239010Y-123261589D01*
X249127068Y-123531842D01*
X249070000Y-123818740D01*
X248230000Y-123818740D01*
X248172932Y-123531842D01*
X248060990Y-123261589D01*
X247898475Y-123018368D01*
X247691632Y-122811525D01*
X247509466Y-122689805D01*
X247626355Y-122620178D01*
X247842588Y-122425269D01*
X248016641Y-122191920D01*
X248141825Y-121929099D01*
X248186476Y-121781890D01*
X248065155Y-121552000D01*
X246872000Y-121552000D01*
X246872000Y-121572000D01*
X246618000Y-121572000D01*
X246618000Y-121552000D01*
X245424845Y-121552000D01*
X245303524Y-121781890D01*
X245348175Y-121929099D01*
X245473359Y-122191920D01*
X245647412Y-122425269D01*
X245863645Y-122620178D01*
X245980534Y-122689805D01*
X245798368Y-122811525D01*
X245591525Y-123018368D01*
X245429010Y-123261589D01*
X245317068Y-123531842D01*
X245260000Y-123818740D01*
X244420000Y-123818740D01*
X244362932Y-123531842D01*
X244250990Y-123261589D01*
X244088475Y-123018368D01*
X243881632Y-122811525D01*
X243699466Y-122689805D01*
X243816355Y-122620178D01*
X244032588Y-122425269D01*
X244206641Y-122191920D01*
X244331825Y-121929099D01*
X244376476Y-121781890D01*
X244255155Y-121552000D01*
X243062000Y-121552000D01*
X243062000Y-121572000D01*
X242808000Y-121572000D01*
X242808000Y-121552000D01*
X241614845Y-121552000D01*
X241493524Y-121781890D01*
X241538175Y-121929099D01*
X241663359Y-122191920D01*
X241837412Y-122425269D01*
X242053645Y-122620178D01*
X242170534Y-122689805D01*
X241988368Y-122811525D01*
X241781525Y-123018368D01*
X241619010Y-123261589D01*
X241507068Y-123531842D01*
X241450000Y-123818740D01*
X234350706Y-123818740D01*
X238549447Y-119620000D01*
X241446928Y-119620000D01*
X241446928Y-119735000D01*
X241459188Y-119859482D01*
X241495498Y-119979180D01*
X241554463Y-120089494D01*
X241633815Y-120186185D01*
X241730506Y-120265537D01*
X241840820Y-120324502D01*
X241921466Y-120348966D01*
X241837412Y-120424731D01*
X241663359Y-120658080D01*
X241538175Y-120920901D01*
X241493524Y-121068110D01*
X241614845Y-121298000D01*
X242808000Y-121298000D01*
X242808000Y-121278000D01*
X243062000Y-121278000D01*
X243062000Y-121298000D01*
X244255155Y-121298000D01*
X244376476Y-121068110D01*
X244331825Y-120920901D01*
X244206641Y-120658080D01*
X244032588Y-120424731D01*
X243948534Y-120348966D01*
X244029180Y-120324502D01*
X244139494Y-120265537D01*
X244236185Y-120186185D01*
X244315537Y-120089494D01*
X244374502Y-119979180D01*
X244410812Y-119859482D01*
X244423072Y-119735000D01*
X244423072Y-118652518D01*
X245149746Y-119379193D01*
X245172762Y-119407238D01*
X245256928Y-119476311D01*
X245256928Y-119735000D01*
X245269188Y-119859482D01*
X245305498Y-119979180D01*
X245364463Y-120089494D01*
X245443815Y-120186185D01*
X245540506Y-120265537D01*
X245650820Y-120324502D01*
X245731466Y-120348966D01*
X245647412Y-120424731D01*
X245473359Y-120658080D01*
X245348175Y-120920901D01*
X245303524Y-121068110D01*
X245424845Y-121298000D01*
X246618000Y-121298000D01*
X246618000Y-121278000D01*
X246872000Y-121278000D01*
X246872000Y-121298000D01*
X248065155Y-121298000D01*
X248186476Y-121068110D01*
X248141825Y-120920901D01*
X248016641Y-120658080D01*
X247842588Y-120424731D01*
X247758534Y-120348966D01*
X247839180Y-120324502D01*
X247949494Y-120265537D01*
X248046185Y-120186185D01*
X248125537Y-120089494D01*
X248184502Y-119979180D01*
X248220812Y-119859482D01*
X248233072Y-119735000D01*
X248233072Y-118652519D01*
X248959746Y-119379193D01*
X248982762Y-119407238D01*
X249010806Y-119430253D01*
X249066928Y-119476311D01*
X249066928Y-119735000D01*
X249079188Y-119859482D01*
X249115498Y-119979180D01*
X249174463Y-120089494D01*
X249253815Y-120186185D01*
X249350506Y-120265537D01*
X249460820Y-120324502D01*
X249541466Y-120348966D01*
X249457412Y-120424731D01*
X249283359Y-120658080D01*
X249158175Y-120920901D01*
X249113524Y-121068110D01*
X249234845Y-121298000D01*
X250428000Y-121298000D01*
X250428000Y-121278000D01*
X250682000Y-121278000D01*
X250682000Y-121298000D01*
X251875155Y-121298000D01*
X251996476Y-121068110D01*
X251951825Y-120920901D01*
X251826641Y-120658080D01*
X251652588Y-120424731D01*
X251568534Y-120348966D01*
X251649180Y-120324502D01*
X251759494Y-120265537D01*
X251856185Y-120186185D01*
X251935537Y-120089494D01*
X251994502Y-119979180D01*
X252030812Y-119859482D01*
X252043072Y-119735000D01*
X252043072Y-118652519D01*
X252769746Y-119379193D01*
X252792762Y-119407238D01*
X252876928Y-119476311D01*
X252876928Y-119735000D01*
X252889188Y-119859482D01*
X252925498Y-119979180D01*
X252984463Y-120089494D01*
X253063815Y-120186185D01*
X253160506Y-120265537D01*
X253270820Y-120324502D01*
X253351466Y-120348966D01*
X253267412Y-120424731D01*
X253093359Y-120658080D01*
X252968175Y-120920901D01*
X252923524Y-121068110D01*
X253044845Y-121298000D01*
X254238000Y-121298000D01*
X254238000Y-121278000D01*
X254492000Y-121278000D01*
X254492000Y-121298000D01*
X255685155Y-121298000D01*
X255806476Y-121068110D01*
X255761825Y-120920901D01*
X255636641Y-120658080D01*
X255462588Y-120424731D01*
X255378534Y-120348966D01*
X255459180Y-120324502D01*
X255569494Y-120265537D01*
X255666185Y-120186185D01*
X255745537Y-120089494D01*
X255804502Y-119979180D01*
X255840812Y-119859482D01*
X255853072Y-119735000D01*
X255853072Y-118035000D01*
X255840812Y-117910518D01*
X255804502Y-117790820D01*
X255745537Y-117680506D01*
X255666185Y-117583815D01*
X255569494Y-117504463D01*
X255459180Y-117445498D01*
X255339482Y-117409188D01*
X255215000Y-117396928D01*
X253515000Y-117396928D01*
X253390518Y-117409188D01*
X253270820Y-117445498D01*
X253160506Y-117504463D01*
X253063815Y-117583815D01*
X253059058Y-117589611D01*
X251910237Y-116440791D01*
X251887217Y-116412741D01*
X251775299Y-116320892D01*
X251647612Y-116252642D01*
X251509064Y-116210614D01*
X251401084Y-116199979D01*
X251364979Y-116196423D01*
X251328874Y-116199979D01*
X233134079Y-116199979D01*
X233117130Y-116027898D01*
X233046511Y-115795099D01*
X232931833Y-115580551D01*
X232777502Y-115392498D01*
X232589449Y-115238167D01*
X232374901Y-115123489D01*
X232142102Y-115052870D01*
X231960665Y-115035000D01*
X231039335Y-115035000D01*
X230857898Y-115052870D01*
X230625099Y-115123489D01*
X230410551Y-115238167D01*
X230222498Y-115392498D01*
X230068167Y-115580551D01*
X229953489Y-115795099D01*
X229882870Y-116027898D01*
X229859025Y-116270000D01*
X228326640Y-116270000D01*
X230115511Y-114481130D01*
X230136922Y-114513474D01*
X230308275Y-114686307D01*
X230510054Y-114822390D01*
X230734504Y-114916493D01*
X230973000Y-114965000D01*
X231373000Y-114965000D01*
X231373000Y-113857000D01*
X231627000Y-113857000D01*
X231627000Y-114965000D01*
X232027000Y-114965000D01*
X232265496Y-114916493D01*
X232489946Y-114822390D01*
X232691725Y-114686307D01*
X232863078Y-114513474D01*
X232997421Y-114310533D01*
X233089591Y-114085282D01*
X233093462Y-114047609D01*
X232968731Y-113857000D01*
X231627000Y-113857000D01*
X231373000Y-113857000D01*
X231353000Y-113857000D01*
X231353000Y-113603000D01*
X231373000Y-113603000D01*
X231373000Y-113583000D01*
X231627000Y-113583000D01*
X231627000Y-113603000D01*
X232968731Y-113603000D01*
X233093462Y-113412391D01*
X233089591Y-113374718D01*
X232997421Y-113149467D01*
X232954626Y-113084820D01*
X233294203Y-112745244D01*
X233322248Y-112722228D01*
X233414097Y-112610310D01*
X233451005Y-112541260D01*
X233482347Y-112482624D01*
X233483547Y-112478665D01*
X235565000Y-112478665D01*
X235565000Y-112761335D01*
X235620147Y-113038574D01*
X235728320Y-113299727D01*
X235885363Y-113534759D01*
X236085241Y-113734637D01*
X236320273Y-113891680D01*
X236581426Y-113999853D01*
X236858665Y-114055000D01*
X237141335Y-114055000D01*
X237418574Y-113999853D01*
X237679727Y-113891680D01*
X237914759Y-113734637D01*
X238114637Y-113534759D01*
X238271680Y-113299727D01*
X238379853Y-113038574D01*
X238435000Y-112761335D01*
X238435000Y-112478665D01*
X240565000Y-112478665D01*
X240565000Y-112761335D01*
X240620147Y-113038574D01*
X240728320Y-113299727D01*
X240885363Y-113534759D01*
X241085241Y-113734637D01*
X241320273Y-113891680D01*
X241581426Y-113999853D01*
X241858665Y-114055000D01*
X242141335Y-114055000D01*
X242418574Y-113999853D01*
X242679727Y-113891680D01*
X242914759Y-113734637D01*
X243114637Y-113534759D01*
X243271680Y-113299727D01*
X243379853Y-113038574D01*
X243435000Y-112761335D01*
X243435000Y-112478665D01*
X243379853Y-112201426D01*
X243271680Y-111940273D01*
X243114637Y-111705241D01*
X242914759Y-111505363D01*
X242679727Y-111348320D01*
X242418574Y-111240147D01*
X242141335Y-111185000D01*
X241858665Y-111185000D01*
X241581426Y-111240147D01*
X241320273Y-111348320D01*
X241085241Y-111505363D01*
X240885363Y-111705241D01*
X240728320Y-111940273D01*
X240620147Y-112201426D01*
X240565000Y-112478665D01*
X238435000Y-112478665D01*
X238379853Y-112201426D01*
X238271680Y-111940273D01*
X238114637Y-111705241D01*
X237914759Y-111505363D01*
X237679727Y-111348320D01*
X237418574Y-111240147D01*
X237141335Y-111185000D01*
X236858665Y-111185000D01*
X236581426Y-111240147D01*
X236320273Y-111348320D01*
X236085241Y-111505363D01*
X235885363Y-111705241D01*
X235728320Y-111940273D01*
X235620147Y-112201426D01*
X235565000Y-112478665D01*
X233483547Y-112478665D01*
X233524375Y-112344075D01*
X233538566Y-112199990D01*
X233535010Y-112163885D01*
X233535010Y-108786104D01*
X233538565Y-108750009D01*
X233535010Y-108713914D01*
X233535010Y-108713905D01*
X233524375Y-108605925D01*
X233482347Y-108467377D01*
X233414097Y-108339690D01*
X233322247Y-108227772D01*
X233294202Y-108204756D01*
X233245259Y-108155813D01*
X233222238Y-108127762D01*
X233110320Y-108035913D01*
X232982633Y-107967663D01*
X232922766Y-107949502D01*
X232777502Y-107772498D01*
X232589449Y-107618167D01*
X232374901Y-107503489D01*
X232142102Y-107432870D01*
X231960665Y-107415000D01*
X231039335Y-107415000D01*
X230857898Y-107432870D01*
X230625099Y-107503489D01*
X230410551Y-107618167D01*
X230222498Y-107772498D01*
X230105550Y-107915000D01*
X223502497Y-107915000D01*
X223543304Y-107816483D01*
X223585000Y-107606863D01*
X223585000Y-107393137D01*
X223543304Y-107183517D01*
X223461515Y-106986060D01*
X223342775Y-106808353D01*
X223235000Y-106700578D01*
X223235000Y-106427609D01*
X229906538Y-106427609D01*
X229910409Y-106465282D01*
X230002579Y-106690533D01*
X230136922Y-106893474D01*
X230308275Y-107066307D01*
X230510054Y-107202390D01*
X230734504Y-107296493D01*
X230973000Y-107345000D01*
X231373000Y-107345000D01*
X231373000Y-106237000D01*
X231627000Y-106237000D01*
X231627000Y-107345000D01*
X232027000Y-107345000D01*
X232265496Y-107296493D01*
X232489946Y-107202390D01*
X232691725Y-107066307D01*
X232863078Y-106893474D01*
X232997421Y-106690533D01*
X233089591Y-106465282D01*
X233093462Y-106427609D01*
X232968731Y-106237000D01*
X231627000Y-106237000D01*
X231373000Y-106237000D01*
X230031269Y-106237000D01*
X229906538Y-106427609D01*
X223235000Y-106427609D01*
X223235000Y-105792391D01*
X229906538Y-105792391D01*
X230031269Y-105983000D01*
X231373000Y-105983000D01*
X231373000Y-104875000D01*
X231627000Y-104875000D01*
X231627000Y-105983000D01*
X232968731Y-105983000D01*
X233093462Y-105792391D01*
X233089591Y-105754718D01*
X232997421Y-105529467D01*
X232863078Y-105326526D01*
X232691725Y-105153693D01*
X232489946Y-105017610D01*
X232265496Y-104923507D01*
X232027000Y-104875000D01*
X231627000Y-104875000D01*
X231373000Y-104875000D01*
X230973000Y-104875000D01*
X230734504Y-104923507D01*
X230510054Y-105017610D01*
X230308275Y-105153693D01*
X230136922Y-105326526D01*
X230002579Y-105529467D01*
X229910409Y-105754718D01*
X229906538Y-105792391D01*
X223235000Y-105792391D01*
X223235000Y-102724446D01*
X225754103Y-100205344D01*
X226003740Y-100255000D01*
X226296260Y-100255000D01*
X226583158Y-100197932D01*
X226853411Y-100085990D01*
X227096632Y-99923475D01*
X227303475Y-99716632D01*
X227420000Y-99542240D01*
X227536525Y-99716632D01*
X227743368Y-99923475D01*
X227986589Y-100085990D01*
X228256842Y-100197932D01*
X228543740Y-100255000D01*
X228836260Y-100255000D01*
X228908960Y-100240539D01*
X228944952Y-100276531D01*
X228944957Y-100276535D01*
X231006641Y-102338220D01*
X230857898Y-102352870D01*
X230625099Y-102423489D01*
X230410551Y-102538167D01*
X230222498Y-102692498D01*
X230068167Y-102880551D01*
X229953489Y-103095099D01*
X229882870Y-103327898D01*
X229859025Y-103570000D01*
X229882870Y-103812102D01*
X229953489Y-104044901D01*
X230068167Y-104259449D01*
X230222498Y-104447502D01*
X230410551Y-104601833D01*
X230625099Y-104716511D01*
X230857898Y-104787130D01*
X231039335Y-104805000D01*
X231960665Y-104805000D01*
X232142102Y-104787130D01*
X232374901Y-104716511D01*
X232589449Y-104601833D01*
X232777502Y-104447502D01*
X232931833Y-104259449D01*
X233046511Y-104044901D01*
X233117130Y-103812102D01*
X233140975Y-103570000D01*
X233124723Y-103404990D01*
X234153412Y-103404990D01*
X235571983Y-104823561D01*
X235565000Y-104858665D01*
X235565000Y-105141335D01*
X235620147Y-105418574D01*
X235728320Y-105679727D01*
X235885363Y-105914759D01*
X236085241Y-106114637D01*
X236320273Y-106271680D01*
X236581426Y-106379853D01*
X236858665Y-106435000D01*
X237141335Y-106435000D01*
X237418574Y-106379853D01*
X237679727Y-106271680D01*
X237914759Y-106114637D01*
X238114637Y-105914759D01*
X238134521Y-105885000D01*
X240865479Y-105885000D01*
X240885363Y-105914759D01*
X241085241Y-106114637D01*
X241320273Y-106271680D01*
X241581426Y-106379853D01*
X241858665Y-106435000D01*
X242141335Y-106435000D01*
X242418574Y-106379853D01*
X242679727Y-106271680D01*
X242914759Y-106114637D01*
X243114637Y-105914759D01*
X243271680Y-105679727D01*
X243294348Y-105625000D01*
X249011928Y-105625000D01*
X249024188Y-105749482D01*
X249060498Y-105869180D01*
X249119463Y-105979494D01*
X249198815Y-106076185D01*
X249295506Y-106155537D01*
X249405820Y-106214502D01*
X249478380Y-106236513D01*
X249346525Y-106368368D01*
X249184010Y-106611589D01*
X249072068Y-106881842D01*
X249015000Y-107168740D01*
X249015000Y-107461260D01*
X249072068Y-107748158D01*
X249184010Y-108018411D01*
X249346525Y-108261632D01*
X249553368Y-108468475D01*
X249727760Y-108585000D01*
X249553368Y-108701525D01*
X249346525Y-108908368D01*
X249184010Y-109151589D01*
X249072068Y-109421842D01*
X249015000Y-109708740D01*
X249015000Y-110001260D01*
X249072068Y-110288158D01*
X249184010Y-110558411D01*
X249346525Y-110801632D01*
X249553368Y-111008475D01*
X249727760Y-111125000D01*
X249553368Y-111241525D01*
X249346525Y-111448368D01*
X249184010Y-111691589D01*
X249072068Y-111961842D01*
X249015000Y-112248740D01*
X249015000Y-112541260D01*
X249072068Y-112828158D01*
X249184010Y-113098411D01*
X249346525Y-113341632D01*
X249553368Y-113548475D01*
X249796589Y-113710990D01*
X250066842Y-113822932D01*
X250353740Y-113880000D01*
X250646260Y-113880000D01*
X250933158Y-113822932D01*
X251203411Y-113710990D01*
X251446632Y-113548475D01*
X251653475Y-113341632D01*
X251815990Y-113098411D01*
X251927932Y-112828158D01*
X251985000Y-112541260D01*
X251985000Y-112248740D01*
X251927932Y-111961842D01*
X251815990Y-111691589D01*
X251653475Y-111448368D01*
X251446632Y-111241525D01*
X251272240Y-111125000D01*
X251446632Y-111008475D01*
X251653475Y-110801632D01*
X251815990Y-110558411D01*
X251927932Y-110288158D01*
X251985000Y-110001260D01*
X251985000Y-109708740D01*
X251927932Y-109421842D01*
X251815990Y-109151589D01*
X251653475Y-108908368D01*
X251446632Y-108701525D01*
X251272240Y-108585000D01*
X251446632Y-108468475D01*
X251653475Y-108261632D01*
X251815990Y-108018411D01*
X251927932Y-107748158D01*
X251985000Y-107461260D01*
X251985000Y-107168740D01*
X251927932Y-106881842D01*
X251815990Y-106611589D01*
X251653475Y-106368368D01*
X251521620Y-106236513D01*
X251594180Y-106214502D01*
X251704494Y-106155537D01*
X251801185Y-106076185D01*
X251880537Y-105979494D01*
X251939502Y-105869180D01*
X251975812Y-105749482D01*
X251988072Y-105625000D01*
X251985000Y-105060750D01*
X251826250Y-104902000D01*
X250627000Y-104902000D01*
X250627000Y-104922000D01*
X250373000Y-104922000D01*
X250373000Y-104902000D01*
X249173750Y-104902000D01*
X249015000Y-105060750D01*
X249011928Y-105625000D01*
X243294348Y-105625000D01*
X243379853Y-105418574D01*
X243435000Y-105141335D01*
X243435000Y-104858665D01*
X243379853Y-104581426D01*
X243271680Y-104320273D01*
X243114637Y-104085241D01*
X242954396Y-103925000D01*
X249011928Y-103925000D01*
X249015000Y-104489250D01*
X249173750Y-104648000D01*
X250373000Y-104648000D01*
X250373000Y-103448750D01*
X250627000Y-103448750D01*
X250627000Y-104648000D01*
X251826250Y-104648000D01*
X251985000Y-104489250D01*
X251988072Y-103925000D01*
X252851928Y-103925000D01*
X252855000Y-104489250D01*
X253013750Y-104648000D01*
X254213000Y-104648000D01*
X254213000Y-103448750D01*
X254054250Y-103290000D01*
X253490000Y-103286928D01*
X253365518Y-103299188D01*
X253245820Y-103335498D01*
X253135506Y-103394463D01*
X253038815Y-103473815D01*
X252959463Y-103570506D01*
X252900498Y-103680820D01*
X252864188Y-103800518D01*
X252851928Y-103925000D01*
X251988072Y-103925000D01*
X251975812Y-103800518D01*
X251939502Y-103680820D01*
X251880537Y-103570506D01*
X251801185Y-103473815D01*
X251704494Y-103394463D01*
X251594180Y-103335498D01*
X251474482Y-103299188D01*
X251350000Y-103286928D01*
X250785750Y-103290000D01*
X250627000Y-103448750D01*
X250373000Y-103448750D01*
X250214250Y-103290000D01*
X249650000Y-103286928D01*
X249525518Y-103299188D01*
X249405820Y-103335498D01*
X249295506Y-103394463D01*
X249198815Y-103473815D01*
X249119463Y-103570506D01*
X249060498Y-103680820D01*
X249024188Y-103800518D01*
X249011928Y-103925000D01*
X242954396Y-103925000D01*
X242914759Y-103885363D01*
X242679727Y-103728320D01*
X242418574Y-103620147D01*
X242141335Y-103565000D01*
X241858665Y-103565000D01*
X241581426Y-103620147D01*
X241320273Y-103728320D01*
X241085241Y-103885363D01*
X240885363Y-104085241D01*
X240865479Y-104115000D01*
X238134521Y-104115000D01*
X238114637Y-104085241D01*
X237914759Y-103885363D01*
X237679727Y-103728320D01*
X237418574Y-103620147D01*
X237141335Y-103565000D01*
X236858665Y-103565000D01*
X236823561Y-103571983D01*
X235176524Y-101924946D01*
X235148807Y-101891173D01*
X235014049Y-101780579D01*
X234860303Y-101698401D01*
X234693480Y-101647795D01*
X234563467Y-101634990D01*
X234563459Y-101634990D01*
X234519990Y-101630709D01*
X234476521Y-101634990D01*
X232806569Y-101634990D01*
X231418230Y-100246652D01*
X231663158Y-100197932D01*
X231933411Y-100085990D01*
X232176632Y-99923475D01*
X232383475Y-99716632D01*
X232500000Y-99542240D01*
X232616525Y-99716632D01*
X232823368Y-99923475D01*
X233066589Y-100085990D01*
X233336842Y-100197932D01*
X233623740Y-100255000D01*
X233916260Y-100255000D01*
X234203158Y-100197932D01*
X234473411Y-100085990D01*
X234716632Y-99923475D01*
X234923475Y-99716632D01*
X235040000Y-99542240D01*
X235156525Y-99716632D01*
X235363368Y-99923475D01*
X235606589Y-100085990D01*
X235876842Y-100197932D01*
X236163740Y-100255000D01*
X236456260Y-100255000D01*
X236743158Y-100197932D01*
X237013411Y-100085990D01*
X237256632Y-99923475D01*
X237463475Y-99716632D01*
X237585195Y-99534466D01*
X237654822Y-99651355D01*
X237849731Y-99867588D01*
X238083080Y-100041641D01*
X238345901Y-100166825D01*
X238493110Y-100211476D01*
X238723000Y-100090155D01*
X238723000Y-98897000D01*
X238703000Y-98897000D01*
X238703000Y-98643000D01*
X238723000Y-98643000D01*
X238723000Y-98623000D01*
X238977000Y-98623000D01*
X238977000Y-98643000D01*
X238997000Y-98643000D01*
X238997000Y-98897000D01*
X238977000Y-98897000D01*
X238977000Y-100090155D01*
X239206890Y-100211476D01*
X239354099Y-100166825D01*
X239616920Y-100041641D01*
X239850269Y-99867588D01*
X240045178Y-99651355D01*
X240114805Y-99534466D01*
X240236525Y-99716632D01*
X240443368Y-99923475D01*
X240686589Y-100085990D01*
X240956842Y-100197932D01*
X241243740Y-100255000D01*
X241536260Y-100255000D01*
X241823158Y-100197932D01*
X242093411Y-100085990D01*
X242336632Y-99923475D01*
X242543475Y-99716632D01*
X242660000Y-99542240D01*
X242776525Y-99716632D01*
X242983368Y-99923475D01*
X243226589Y-100085990D01*
X243496842Y-100197932D01*
X243783740Y-100255000D01*
X244076260Y-100255000D01*
X244363158Y-100197932D01*
X244633411Y-100085990D01*
X244876632Y-99923475D01*
X245083475Y-99716632D01*
X245200000Y-99542240D01*
X245316525Y-99716632D01*
X245523368Y-99923475D01*
X245766589Y-100085990D01*
X246036842Y-100197932D01*
X246323740Y-100255000D01*
X246616260Y-100255000D01*
X246903158Y-100197932D01*
X247173411Y-100085990D01*
X247416632Y-99923475D01*
X247623475Y-99716632D01*
X247740000Y-99542240D01*
X247856525Y-99716632D01*
X248063368Y-99923475D01*
X248306589Y-100085990D01*
X248576842Y-100197932D01*
X248863740Y-100255000D01*
X249156260Y-100255000D01*
X249443158Y-100197932D01*
X249713411Y-100085990D01*
X249956632Y-99923475D01*
X250163475Y-99716632D01*
X250280000Y-99542240D01*
X250396525Y-99716632D01*
X250603368Y-99923475D01*
X250846589Y-100085990D01*
X251116842Y-100197932D01*
X251403740Y-100255000D01*
X251696260Y-100255000D01*
X251983158Y-100197932D01*
X252253411Y-100085990D01*
X252496632Y-99923475D01*
X252703475Y-99716632D01*
X252820000Y-99542240D01*
X252936525Y-99716632D01*
X253143368Y-99923475D01*
X253386589Y-100085990D01*
X253656842Y-100197932D01*
X253943740Y-100255000D01*
X254236260Y-100255000D01*
X254523158Y-100197932D01*
X254793411Y-100085990D01*
X255036632Y-99923475D01*
X255243475Y-99716632D01*
X255365195Y-99534466D01*
X255434822Y-99651355D01*
X255629731Y-99867588D01*
X255863080Y-100041641D01*
X256125901Y-100166825D01*
X256273110Y-100211476D01*
X256503000Y-100090155D01*
X256503000Y-98897000D01*
X256483000Y-98897000D01*
X256483000Y-98643000D01*
X256503000Y-98643000D01*
X256503000Y-98623000D01*
X256757000Y-98623000D01*
X256757000Y-98643000D01*
X256777000Y-98643000D01*
X256777000Y-98897000D01*
X256757000Y-98897000D01*
X256757000Y-100090155D01*
X256986890Y-100211476D01*
X257045002Y-100193850D01*
X257045002Y-103358419D01*
X255755424Y-104647998D01*
X255666252Y-104647998D01*
X255825000Y-104489250D01*
X255828072Y-103925000D01*
X255815812Y-103800518D01*
X255779502Y-103680820D01*
X255720537Y-103570506D01*
X255641185Y-103473815D01*
X255544494Y-103394463D01*
X255434180Y-103335498D01*
X255314482Y-103299188D01*
X255190000Y-103286928D01*
X254625750Y-103290000D01*
X254467000Y-103448750D01*
X254467000Y-104648000D01*
X254487000Y-104648000D01*
X254487000Y-104902000D01*
X254467000Y-104902000D01*
X254467000Y-104922000D01*
X254213000Y-104922000D01*
X254213000Y-104902000D01*
X253013750Y-104902000D01*
X252855000Y-105060750D01*
X252851928Y-105625000D01*
X252864188Y-105749482D01*
X252900498Y-105869180D01*
X252959463Y-105979494D01*
X253038815Y-106076185D01*
X253135506Y-106155537D01*
X253245820Y-106214502D01*
X253318380Y-106236513D01*
X253186525Y-106368368D01*
X253024010Y-106611589D01*
X252912068Y-106881842D01*
X252855000Y-107168740D01*
X252855000Y-107461260D01*
X252912068Y-107748158D01*
X253024010Y-108018411D01*
X253186525Y-108261632D01*
X253393368Y-108468475D01*
X253567760Y-108585000D01*
X253393368Y-108701525D01*
X253186525Y-108908368D01*
X253024010Y-109151589D01*
X252912068Y-109421842D01*
X252855000Y-109708740D01*
X252855000Y-110001260D01*
X252912068Y-110288158D01*
X253024010Y-110558411D01*
X253186525Y-110801632D01*
X253393368Y-111008475D01*
X253567760Y-111125000D01*
X253393368Y-111241525D01*
X253186525Y-111448368D01*
X253024010Y-111691589D01*
X252912068Y-111961842D01*
X252855000Y-112248740D01*
X252855000Y-112541260D01*
X252912068Y-112828158D01*
X253024010Y-113098411D01*
X253186525Y-113341632D01*
X253393368Y-113548475D01*
X253636589Y-113710990D01*
X253906842Y-113822932D01*
X254193740Y-113880000D01*
X254486260Y-113880000D01*
X254773158Y-113822932D01*
X255043411Y-113710990D01*
X255286632Y-113548475D01*
X255493475Y-113341632D01*
X255655990Y-113098411D01*
X255767932Y-112828158D01*
X255825000Y-112541260D01*
X255825000Y-112248740D01*
X255767932Y-111961842D01*
X255655990Y-111691589D01*
X255493475Y-111448368D01*
X255286632Y-111241525D01*
X255112240Y-111125000D01*
X255286632Y-111008475D01*
X255493475Y-110801632D01*
X255655990Y-110558411D01*
X255767932Y-110288158D01*
X255825000Y-110001260D01*
X255825000Y-109708740D01*
X255767932Y-109421842D01*
X255655990Y-109151589D01*
X255493475Y-108908368D01*
X255286632Y-108701525D01*
X255112240Y-108585000D01*
X255286632Y-108468475D01*
X255493475Y-108261632D01*
X255655990Y-108018411D01*
X255767932Y-107748158D01*
X255825000Y-107461260D01*
X255825000Y-107168740D01*
X255810539Y-107096040D01*
X255846531Y-107060048D01*
X255846535Y-107060043D01*
X258525050Y-104381529D01*
X258558818Y-104353816D01*
X258669412Y-104219058D01*
X258751590Y-104065312D01*
X258802196Y-103898489D01*
X258815001Y-103768476D01*
X258815001Y-103768468D01*
X258819282Y-103724999D01*
X258815001Y-103681530D01*
X258815001Y-97304495D01*
X259515000Y-97304495D01*
X259515000Y-97695505D01*
X259591282Y-98079003D01*
X259740915Y-98440250D01*
X259958149Y-98765364D01*
X260234636Y-99041851D01*
X260559750Y-99259085D01*
X260920997Y-99408718D01*
X261304495Y-99485000D01*
X261695505Y-99485000D01*
X262079003Y-99408718D01*
X262440250Y-99259085D01*
X262765364Y-99041851D01*
X263041851Y-98765364D01*
X263259085Y-98440250D01*
X263408718Y-98079003D01*
X263485000Y-97695505D01*
X263485000Y-97304495D01*
X263408718Y-96920997D01*
X263259085Y-96559750D01*
X263041851Y-96234636D01*
X262765364Y-95958149D01*
X262440250Y-95740915D01*
X262079003Y-95591282D01*
X261695505Y-95515000D01*
X261304495Y-95515000D01*
X260920997Y-95591282D01*
X260559750Y-95740915D01*
X260234636Y-95958149D01*
X259958149Y-96234636D01*
X259740915Y-96559750D01*
X259591282Y-96920997D01*
X259515000Y-97304495D01*
X258815001Y-97304495D01*
X258815001Y-95649464D01*
X258819282Y-95605998D01*
X258815001Y-95562532D01*
X258815001Y-95562522D01*
X258802196Y-95432509D01*
X258751590Y-95265686D01*
X258669412Y-95111940D01*
X258630637Y-95064693D01*
X258586533Y-95010952D01*
X258586531Y-95010950D01*
X258558818Y-94977182D01*
X258525051Y-94949470D01*
X258260581Y-94685000D01*
X261966495Y-94685000D01*
X262449016Y-94732312D01*
X262880930Y-94862714D01*
X263279285Y-95074524D01*
X263628914Y-95359675D01*
X263916497Y-95707303D01*
X264131086Y-96104177D01*
X264264498Y-96535161D01*
X264315001Y-97015663D01*
X264315000Y-146966495D01*
X264267688Y-147449016D01*
X264137287Y-147880927D01*
X263925480Y-148279280D01*
X263640325Y-148628914D01*
X263292697Y-148916497D01*
X262895825Y-149131085D01*
X262464834Y-149264500D01*
X261984346Y-149315000D01*
X256455422Y-149315000D01*
X256587871Y-149226500D01*
X256836500Y-148977871D01*
X257031847Y-148685515D01*
X257166404Y-148360665D01*
X257235000Y-148015807D01*
X257235000Y-147664193D01*
X257166404Y-147319335D01*
X257031847Y-146994485D01*
X256836500Y-146702129D01*
X256587871Y-146453500D01*
X256364871Y-146304495D01*
X259515000Y-146304495D01*
X259515000Y-146695505D01*
X259591282Y-147079003D01*
X259740915Y-147440250D01*
X259958149Y-147765364D01*
X260234636Y-148041851D01*
X260559750Y-148259085D01*
X260920997Y-148408718D01*
X261304495Y-148485000D01*
X261695505Y-148485000D01*
X262079003Y-148408718D01*
X262440250Y-148259085D01*
X262765364Y-148041851D01*
X263041851Y-147765364D01*
X263259085Y-147440250D01*
X263408718Y-147079003D01*
X263485000Y-146695505D01*
X263485000Y-146304495D01*
X263408718Y-145920997D01*
X263259085Y-145559750D01*
X263041851Y-145234636D01*
X262765364Y-144958149D01*
X262440250Y-144740915D01*
X262079003Y-144591282D01*
X261695505Y-144515000D01*
X261304495Y-144515000D01*
X260920997Y-144591282D01*
X260559750Y-144740915D01*
X260234636Y-144958149D01*
X259958149Y-145234636D01*
X259740915Y-145559750D01*
X259591282Y-145920997D01*
X259515000Y-146304495D01*
X256364871Y-146304495D01*
X256295515Y-146258153D01*
X255970665Y-146123596D01*
X255625807Y-146055000D01*
X255274193Y-146055000D01*
X254929335Y-146123596D01*
X254604485Y-146258153D01*
X254312129Y-146453500D01*
X254063500Y-146702129D01*
X253868153Y-146994485D01*
X253733596Y-147319335D01*
X253665000Y-147664193D01*
X253665000Y-148015807D01*
X253733596Y-148360665D01*
X253868153Y-148685515D01*
X254063500Y-148977871D01*
X254312129Y-149226500D01*
X254444578Y-149315000D01*
X244455422Y-149315000D01*
X244587871Y-149226500D01*
X244836500Y-148977871D01*
X245031847Y-148685515D01*
X245166404Y-148360665D01*
X245235000Y-148015807D01*
X245235000Y-147664193D01*
X245166404Y-147319335D01*
X245031847Y-146994485D01*
X244836500Y-146702129D01*
X244587871Y-146453500D01*
X244295515Y-146258153D01*
X243970665Y-146123596D01*
X243625807Y-146055000D01*
X243274193Y-146055000D01*
X242929335Y-146123596D01*
X242604485Y-146258153D01*
X242312129Y-146453500D01*
X242063500Y-146702129D01*
X241868153Y-146994485D01*
X241733596Y-147319335D01*
X241700000Y-147488235D01*
X241666404Y-147319335D01*
X241531847Y-146994485D01*
X241336500Y-146702129D01*
X241087871Y-146453500D01*
X240795515Y-146258153D01*
X240470665Y-146123596D01*
X240125807Y-146055000D01*
X239774193Y-146055000D01*
X239429335Y-146123596D01*
X239104485Y-146258153D01*
X238812129Y-146453500D01*
X238563500Y-146702129D01*
X238368153Y-146994485D01*
X238233596Y-147319335D01*
X238165000Y-147664193D01*
X238165000Y-148015807D01*
X238233596Y-148360665D01*
X238368153Y-148685515D01*
X238563500Y-148977871D01*
X238812129Y-149226500D01*
X238944578Y-149315000D01*
X228955422Y-149315000D01*
X229087871Y-149226500D01*
X229336500Y-148977871D01*
X229531847Y-148685515D01*
X229666404Y-148360665D01*
X229735000Y-148015807D01*
X229735000Y-147664193D01*
X229666404Y-147319335D01*
X229531847Y-146994485D01*
X229336500Y-146702129D01*
X229087871Y-146453500D01*
X228795515Y-146258153D01*
X228470665Y-146123596D01*
X228125807Y-146055000D01*
X227774193Y-146055000D01*
X227429335Y-146123596D01*
X227104485Y-146258153D01*
X226812129Y-146453500D01*
X226563500Y-146702129D01*
X226368153Y-146994485D01*
X226233596Y-147319335D01*
X226200000Y-147488235D01*
X226166404Y-147319335D01*
X226031847Y-146994485D01*
X225836500Y-146702129D01*
X225587871Y-146453500D01*
X225295515Y-146258153D01*
X224970665Y-146123596D01*
X224625807Y-146055000D01*
X224274193Y-146055000D01*
X223929335Y-146123596D01*
X223604485Y-146258153D01*
X223312129Y-146453500D01*
X223063500Y-146702129D01*
X222868153Y-146994485D01*
X222733596Y-147319335D01*
X222665000Y-147664193D01*
X222665000Y-148015807D01*
X222733596Y-148360665D01*
X222868153Y-148685515D01*
X223063500Y-148977871D01*
X223312129Y-149226500D01*
X223444578Y-149315000D01*
X213455422Y-149315000D01*
X213587871Y-149226500D01*
X213836500Y-148977871D01*
X214031847Y-148685515D01*
X214166404Y-148360665D01*
X214235000Y-148015807D01*
X214235000Y-147664193D01*
X214166404Y-147319335D01*
X214031847Y-146994485D01*
X213836500Y-146702129D01*
X213587871Y-146453500D01*
X213295515Y-146258153D01*
X212970665Y-146123596D01*
X212625807Y-146055000D01*
X212274193Y-146055000D01*
X211929335Y-146123596D01*
X211604485Y-146258153D01*
X211312129Y-146453500D01*
X211063500Y-146702129D01*
X210868153Y-146994485D01*
X210733596Y-147319335D01*
X210665000Y-147664193D01*
X210665000Y-148015807D01*
X210733596Y-148360665D01*
X210868153Y-148685515D01*
X211063500Y-148977871D01*
X211312129Y-149226500D01*
X211444578Y-149315000D01*
X203033504Y-149315000D01*
X202550984Y-149267688D01*
X202119073Y-149137287D01*
X201720720Y-148925480D01*
X201371086Y-148640325D01*
X201083503Y-148292697D01*
X200868915Y-147895825D01*
X200735500Y-147464834D01*
X200685000Y-146984346D01*
X200685000Y-146304495D01*
X201515000Y-146304495D01*
X201515000Y-146695505D01*
X201591282Y-147079003D01*
X201740915Y-147440250D01*
X201958149Y-147765364D01*
X202234636Y-148041851D01*
X202559750Y-148259085D01*
X202920997Y-148408718D01*
X203304495Y-148485000D01*
X203695505Y-148485000D01*
X204079003Y-148408718D01*
X204440250Y-148259085D01*
X204765364Y-148041851D01*
X205041851Y-147765364D01*
X205259085Y-147440250D01*
X205408718Y-147079003D01*
X205485000Y-146695505D01*
X205485000Y-146304495D01*
X205408718Y-145920997D01*
X205259085Y-145559750D01*
X205041851Y-145234636D01*
X204765364Y-144958149D01*
X204440250Y-144740915D01*
X204079003Y-144591282D01*
X203695505Y-144515000D01*
X203304495Y-144515000D01*
X202920997Y-144591282D01*
X202559750Y-144740915D01*
X202234636Y-144958149D01*
X201958149Y-145234636D01*
X201740915Y-145559750D01*
X201591282Y-145920997D01*
X201515000Y-146304495D01*
X200685000Y-146304495D01*
X200685000Y-141168281D01*
X200871285Y-141267852D01*
X201179484Y-141361343D01*
X201419678Y-141385000D01*
X202580322Y-141385000D01*
X202820516Y-141361343D01*
X203128715Y-141267852D01*
X203412752Y-141116031D01*
X203661714Y-140911714D01*
X203866031Y-140662752D01*
X204017852Y-140378715D01*
X204111343Y-140070516D01*
X204142911Y-139750000D01*
X206607089Y-139750000D01*
X206638657Y-140070516D01*
X206732148Y-140378715D01*
X206883969Y-140662752D01*
X207088286Y-140911714D01*
X207337248Y-141116031D01*
X207621285Y-141267852D01*
X207929484Y-141361343D01*
X208169678Y-141385000D01*
X208830322Y-141385000D01*
X209070516Y-141361343D01*
X209378715Y-141267852D01*
X209662752Y-141116031D01*
X209911714Y-140911714D01*
X210116031Y-140662752D01*
X210267852Y-140378715D01*
X210361343Y-140070516D01*
X210392911Y-139750000D01*
X210361343Y-139429484D01*
X210267852Y-139121285D01*
X210116031Y-138837248D01*
X209911714Y-138588286D01*
X209662752Y-138383969D01*
X209378715Y-138232148D01*
X209070516Y-138138657D01*
X208830322Y-138115000D01*
X208169678Y-138115000D01*
X207929484Y-138138657D01*
X207621285Y-138232148D01*
X207337248Y-138383969D01*
X207088286Y-138588286D01*
X206883969Y-138837248D01*
X206732148Y-139121285D01*
X206638657Y-139429484D01*
X206607089Y-139750000D01*
X204142911Y-139750000D01*
X204111343Y-139429484D01*
X204017852Y-139121285D01*
X203866031Y-138837248D01*
X203661714Y-138588286D01*
X203412752Y-138383969D01*
X203128715Y-138232148D01*
X202820516Y-138138657D01*
X202580322Y-138115000D01*
X201419678Y-138115000D01*
X201179484Y-138138657D01*
X200871285Y-138232148D01*
X200685000Y-138331719D01*
X200685000Y-137294890D01*
X200807688Y-137478505D01*
X201021495Y-137692312D01*
X201272905Y-137860299D01*
X201552257Y-137976011D01*
X201848816Y-138035000D01*
X202151184Y-138035000D01*
X202447743Y-137976011D01*
X202727095Y-137860299D01*
X202978505Y-137692312D01*
X203192312Y-137478505D01*
X203360299Y-137227095D01*
X203476011Y-136947743D01*
X203535000Y-136651184D01*
X203535000Y-136348816D01*
X203499368Y-136169679D01*
X209365000Y-136169679D01*
X209365000Y-136830322D01*
X209388657Y-137070516D01*
X209482148Y-137378715D01*
X209633969Y-137662752D01*
X209838286Y-137911714D01*
X210087249Y-138116031D01*
X210371286Y-138267852D01*
X210679485Y-138361343D01*
X211000000Y-138392911D01*
X211320516Y-138361343D01*
X211628715Y-138267852D01*
X211912752Y-138116031D01*
X212161714Y-137911714D01*
X212366031Y-137662752D01*
X212517852Y-137378715D01*
X212611343Y-137070515D01*
X212635000Y-136830321D01*
X212635000Y-136169678D01*
X212611343Y-135929484D01*
X212517852Y-135621285D01*
X212366031Y-135337248D01*
X212161714Y-135088286D01*
X211912751Y-134883969D01*
X211628714Y-134732148D01*
X211320515Y-134638657D01*
X211000000Y-134607089D01*
X210679484Y-134638657D01*
X210371285Y-134732148D01*
X210087248Y-134883969D01*
X209838286Y-135088286D01*
X209633969Y-135337249D01*
X209482148Y-135621286D01*
X209388657Y-135929485D01*
X209365000Y-136169679D01*
X203499368Y-136169679D01*
X203476011Y-136052257D01*
X203360299Y-135772905D01*
X203192312Y-135521495D01*
X202978505Y-135307688D01*
X202727095Y-135139701D01*
X202447743Y-135023989D01*
X202151184Y-134965000D01*
X201848816Y-134965000D01*
X201552257Y-135023989D01*
X201272905Y-135139701D01*
X201021495Y-135307688D01*
X200807688Y-135521495D01*
X200685000Y-135705110D01*
X200685000Y-134668281D01*
X200871285Y-134767852D01*
X201179484Y-134861343D01*
X201419678Y-134885000D01*
X202580322Y-134885000D01*
X202820516Y-134861343D01*
X203128715Y-134767852D01*
X203412752Y-134616031D01*
X203661714Y-134411714D01*
X203866031Y-134162752D01*
X204017852Y-133878715D01*
X204111343Y-133570516D01*
X204142911Y-133250000D01*
X206607089Y-133250000D01*
X206638657Y-133570516D01*
X206732148Y-133878715D01*
X206883969Y-134162752D01*
X207088286Y-134411714D01*
X207337248Y-134616031D01*
X207621285Y-134767852D01*
X207929484Y-134861343D01*
X208169678Y-134885000D01*
X208830322Y-134885000D01*
X209070516Y-134861343D01*
X209378715Y-134767852D01*
X209662752Y-134616031D01*
X209911714Y-134411714D01*
X210116031Y-134162752D01*
X210267852Y-133878715D01*
X210361343Y-133570516D01*
X210392911Y-133250000D01*
X210361343Y-132929484D01*
X210267852Y-132621285D01*
X210116031Y-132337248D01*
X209911714Y-132088286D01*
X209662752Y-131883969D01*
X209378715Y-131732148D01*
X209070516Y-131638657D01*
X208830322Y-131615000D01*
X208169678Y-131615000D01*
X207929484Y-131638657D01*
X207621285Y-131732148D01*
X207337248Y-131883969D01*
X207088286Y-132088286D01*
X206883969Y-132337248D01*
X206732148Y-132621285D01*
X206638657Y-132929484D01*
X206607089Y-133250000D01*
X204142911Y-133250000D01*
X204111343Y-132929484D01*
X204017852Y-132621285D01*
X203866031Y-132337248D01*
X203661714Y-132088286D01*
X203412752Y-131883969D01*
X203128715Y-131732148D01*
X202820516Y-131638657D01*
X202580322Y-131615000D01*
X201419678Y-131615000D01*
X201179484Y-131638657D01*
X200871285Y-131732148D01*
X200685000Y-131831719D01*
X200685000Y-130072876D01*
X200956468Y-130178807D01*
X201273000Y-130235000D01*
X201773000Y-130235000D01*
X201773000Y-128727000D01*
X202027000Y-128727000D01*
X202027000Y-130235000D01*
X202527000Y-130235000D01*
X202843532Y-130178807D01*
X203143020Y-130061942D01*
X203413954Y-129888895D01*
X203645922Y-129666317D01*
X203830010Y-129402761D01*
X203959144Y-129108355D01*
X203990124Y-128980434D01*
X203870777Y-128727000D01*
X202027000Y-128727000D01*
X201773000Y-128727000D01*
X201753000Y-128727000D01*
X201753000Y-128600000D01*
X206557089Y-128600000D01*
X206588657Y-128920516D01*
X206682148Y-129228715D01*
X206833969Y-129512752D01*
X207038286Y-129761714D01*
X207287248Y-129966031D01*
X207571285Y-130117852D01*
X207879484Y-130211343D01*
X208119678Y-130235000D01*
X209280322Y-130235000D01*
X209520516Y-130211343D01*
X209828715Y-130117852D01*
X210112752Y-129966031D01*
X210361714Y-129761714D01*
X210566031Y-129512752D01*
X210576747Y-129492702D01*
X214686903Y-129492702D01*
X214758486Y-129736671D01*
X215013996Y-129857571D01*
X215288184Y-129926300D01*
X215570512Y-129940217D01*
X215850130Y-129898787D01*
X216116292Y-129803603D01*
X216241514Y-129736671D01*
X216313097Y-129492702D01*
X215500000Y-128679605D01*
X214686903Y-129492702D01*
X210576747Y-129492702D01*
X210717852Y-129228715D01*
X210811343Y-128920516D01*
X210842911Y-128600000D01*
X210840007Y-128570512D01*
X214059783Y-128570512D01*
X214101213Y-128850130D01*
X214196397Y-129116292D01*
X214263329Y-129241514D01*
X214507298Y-129313097D01*
X215320395Y-128500000D01*
X215679605Y-128500000D01*
X216492702Y-129313097D01*
X216736671Y-129241514D01*
X216857571Y-128986004D01*
X216926300Y-128711816D01*
X216940217Y-128429488D01*
X216898787Y-128149870D01*
X216803603Y-127883708D01*
X216736671Y-127758486D01*
X216492702Y-127686903D01*
X215679605Y-128500000D01*
X215320395Y-128500000D01*
X214507298Y-127686903D01*
X214263329Y-127758486D01*
X214142429Y-128013996D01*
X214073700Y-128288184D01*
X214059783Y-128570512D01*
X210840007Y-128570512D01*
X210811343Y-128279484D01*
X210717852Y-127971285D01*
X210566031Y-127687248D01*
X210418351Y-127507298D01*
X214686903Y-127507298D01*
X215500000Y-128320395D01*
X216313097Y-127507298D01*
X216241514Y-127263329D01*
X215986004Y-127142429D01*
X215711816Y-127073700D01*
X215429488Y-127059783D01*
X215149870Y-127101213D01*
X214883708Y-127196397D01*
X214758486Y-127263329D01*
X214686903Y-127507298D01*
X210418351Y-127507298D01*
X210361714Y-127438286D01*
X210112752Y-127233969D01*
X209828715Y-127082148D01*
X209536032Y-126993364D01*
X209614637Y-126914759D01*
X209771680Y-126679727D01*
X209879853Y-126418574D01*
X209935000Y-126141335D01*
X209935000Y-125858665D01*
X209879853Y-125581426D01*
X209777775Y-125334988D01*
X210029484Y-125411343D01*
X210269678Y-125435000D01*
X210930322Y-125435000D01*
X211170516Y-125411343D01*
X211478715Y-125317852D01*
X211762752Y-125166031D01*
X212011714Y-124961714D01*
X212216031Y-124712752D01*
X212367852Y-124428715D01*
X212461343Y-124120516D01*
X212492911Y-123800000D01*
X212461343Y-123479484D01*
X212367852Y-123171285D01*
X212216031Y-122887248D01*
X212011714Y-122638286D01*
X211762752Y-122433969D01*
X211478715Y-122282148D01*
X211170516Y-122188657D01*
X210930322Y-122165000D01*
X210269678Y-122165000D01*
X210029484Y-122188657D01*
X209721285Y-122282148D01*
X209437248Y-122433969D01*
X209188286Y-122638286D01*
X208983969Y-122887248D01*
X208832148Y-123171285D01*
X208738657Y-123479484D01*
X208707089Y-123800000D01*
X208738657Y-124120516D01*
X208832148Y-124428715D01*
X208938991Y-124628604D01*
X208918574Y-124620147D01*
X208641335Y-124565000D01*
X208358665Y-124565000D01*
X208081426Y-124620147D01*
X207820273Y-124728320D01*
X207585241Y-124885363D01*
X207385363Y-125085241D01*
X207228320Y-125320273D01*
X207120147Y-125581426D01*
X207065000Y-125858665D01*
X207065000Y-126141335D01*
X207120147Y-126418574D01*
X207228320Y-126679727D01*
X207385363Y-126914759D01*
X207559208Y-127088604D01*
X207287248Y-127233969D01*
X207038286Y-127438286D01*
X206833969Y-127687248D01*
X206682148Y-127971285D01*
X206588657Y-128279484D01*
X206557089Y-128600000D01*
X201753000Y-128600000D01*
X201753000Y-128473000D01*
X201773000Y-128473000D01*
X201773000Y-128453000D01*
X202027000Y-128453000D01*
X202027000Y-128473000D01*
X203870777Y-128473000D01*
X203990124Y-128219566D01*
X203959144Y-128091645D01*
X203830010Y-127797239D01*
X203645922Y-127533683D01*
X203413954Y-127311105D01*
X203264032Y-127215349D01*
X203414759Y-127114637D01*
X203614637Y-126914759D01*
X203771680Y-126679727D01*
X203879853Y-126418574D01*
X203935000Y-126141335D01*
X203935000Y-125858665D01*
X203879853Y-125581426D01*
X203771680Y-125320273D01*
X203617061Y-125088869D01*
X203671285Y-125117852D01*
X203979484Y-125211343D01*
X204219678Y-125235000D01*
X205380322Y-125235000D01*
X205620516Y-125211343D01*
X205928715Y-125117852D01*
X206212752Y-124966031D01*
X206461714Y-124761714D01*
X206666031Y-124512752D01*
X206817852Y-124228715D01*
X206911343Y-123920516D01*
X206942911Y-123600000D01*
X206911343Y-123279484D01*
X206817852Y-122971285D01*
X206666031Y-122687248D01*
X206461714Y-122438286D01*
X206212752Y-122233969D01*
X205928715Y-122082148D01*
X205620516Y-121988657D01*
X205380322Y-121965000D01*
X204219678Y-121965000D01*
X203979484Y-121988657D01*
X203671285Y-122082148D01*
X203387248Y-122233969D01*
X203138286Y-122438286D01*
X202933969Y-122687248D01*
X202782148Y-122971285D01*
X202688657Y-123279484D01*
X202657089Y-123600000D01*
X202688657Y-123920516D01*
X202782148Y-124228715D01*
X202933969Y-124512752D01*
X203075424Y-124685116D01*
X202918574Y-124620147D01*
X202641335Y-124565000D01*
X202358665Y-124565000D01*
X202081426Y-124620147D01*
X201820273Y-124728320D01*
X201585241Y-124885363D01*
X201385363Y-125085241D01*
X201228320Y-125320273D01*
X201120147Y-125581426D01*
X201065000Y-125858665D01*
X201065000Y-126141335D01*
X201120147Y-126418574D01*
X201228320Y-126679727D01*
X201385363Y-126914759D01*
X201435604Y-126965000D01*
X201273000Y-126965000D01*
X200956468Y-127021193D01*
X200685000Y-127127124D01*
X200685000Y-120072876D01*
X200956468Y-120178807D01*
X201273000Y-120235000D01*
X201773000Y-120235000D01*
X201773000Y-118727000D01*
X202027000Y-118727000D01*
X202027000Y-120235000D01*
X202527000Y-120235000D01*
X202843532Y-120178807D01*
X203143020Y-120061942D01*
X203413954Y-119888895D01*
X203645922Y-119666317D01*
X203830010Y-119402761D01*
X203959144Y-119108355D01*
X203990124Y-118980434D01*
X203870777Y-118727000D01*
X202027000Y-118727000D01*
X201773000Y-118727000D01*
X201753000Y-118727000D01*
X201753000Y-118473000D01*
X201773000Y-118473000D01*
X201773000Y-118453000D01*
X202027000Y-118453000D01*
X202027000Y-118473000D01*
X203870777Y-118473000D01*
X203990124Y-118219566D01*
X203959144Y-118091645D01*
X203830010Y-117797239D01*
X203645922Y-117533683D01*
X203413954Y-117311105D01*
X203264032Y-117215349D01*
X203414759Y-117114637D01*
X203614637Y-116914759D01*
X203771680Y-116679727D01*
X203879853Y-116418574D01*
X203935000Y-116141335D01*
X203935000Y-115858665D01*
X203879853Y-115581426D01*
X203771680Y-115320273D01*
X203617061Y-115088869D01*
X203671285Y-115117852D01*
X203979484Y-115211343D01*
X204219678Y-115235000D01*
X205380322Y-115235000D01*
X205620516Y-115211343D01*
X205928715Y-115117852D01*
X206212752Y-114966031D01*
X206461714Y-114761714D01*
X206666031Y-114512752D01*
X206817852Y-114228715D01*
X206911343Y-113920516D01*
X206942911Y-113600000D01*
X206911343Y-113279484D01*
X206861447Y-113115000D01*
X208862233Y-113115000D01*
X208832148Y-113171285D01*
X208738657Y-113479484D01*
X208707089Y-113800000D01*
X208738657Y-114120516D01*
X208832148Y-114428715D01*
X208938991Y-114628604D01*
X208918574Y-114620147D01*
X208641335Y-114565000D01*
X208358665Y-114565000D01*
X208081426Y-114620147D01*
X207820273Y-114728320D01*
X207585241Y-114885363D01*
X207385363Y-115085241D01*
X207228320Y-115320273D01*
X207120147Y-115581426D01*
X207065000Y-115858665D01*
X207065000Y-116141335D01*
X207120147Y-116418574D01*
X207228320Y-116679727D01*
X207385363Y-116914759D01*
X207559208Y-117088604D01*
X207287248Y-117233969D01*
X207038286Y-117438286D01*
X206833969Y-117687248D01*
X206682148Y-117971285D01*
X206588657Y-118279484D01*
X206557089Y-118600000D01*
X206588657Y-118920516D01*
X206682148Y-119228715D01*
X206833969Y-119512752D01*
X207038286Y-119761714D01*
X207287248Y-119966031D01*
X207571285Y-120117852D01*
X207879484Y-120211343D01*
X208119678Y-120235000D01*
X209280322Y-120235000D01*
X209520516Y-120211343D01*
X209828715Y-120117852D01*
X210112752Y-119966031D01*
X210243578Y-119858665D01*
X214065000Y-119858665D01*
X214065000Y-120141335D01*
X214120147Y-120418574D01*
X214228320Y-120679727D01*
X214385363Y-120914759D01*
X214585241Y-121114637D01*
X214820273Y-121271680D01*
X215081426Y-121379853D01*
X215358665Y-121435000D01*
X215641335Y-121435000D01*
X215918574Y-121379853D01*
X216179727Y-121271680D01*
X216414759Y-121114637D01*
X216614637Y-120914759D01*
X216771680Y-120679727D01*
X216879853Y-120418574D01*
X216935000Y-120141335D01*
X216935000Y-119858665D01*
X216879853Y-119581426D01*
X216771680Y-119320273D01*
X216614637Y-119085241D01*
X216414759Y-118885363D01*
X216179727Y-118728320D01*
X215918574Y-118620147D01*
X215641335Y-118565000D01*
X215358665Y-118565000D01*
X215081426Y-118620147D01*
X214820273Y-118728320D01*
X214585241Y-118885363D01*
X214385363Y-119085241D01*
X214228320Y-119320273D01*
X214120147Y-119581426D01*
X214065000Y-119858665D01*
X210243578Y-119858665D01*
X210361714Y-119761714D01*
X210566031Y-119512752D01*
X210717852Y-119228715D01*
X210811343Y-118920516D01*
X210842911Y-118600000D01*
X210811343Y-118279484D01*
X210717852Y-117971285D01*
X210566031Y-117687248D01*
X210361714Y-117438286D01*
X210112752Y-117233969D01*
X209828715Y-117082148D01*
X209536032Y-116993364D01*
X209614637Y-116914759D01*
X209771680Y-116679727D01*
X209879853Y-116418574D01*
X209935000Y-116141335D01*
X209935000Y-115858665D01*
X209879853Y-115581426D01*
X209777775Y-115334988D01*
X210029484Y-115411343D01*
X210269678Y-115435000D01*
X210930322Y-115435000D01*
X211170516Y-115411343D01*
X211478715Y-115317852D01*
X211762752Y-115166031D01*
X212011714Y-114961714D01*
X212216031Y-114712752D01*
X212367852Y-114428715D01*
X212461343Y-114120516D01*
X212492911Y-113800000D01*
X212461343Y-113479484D01*
X212367852Y-113171285D01*
X212337767Y-113115000D01*
X214265252Y-113115000D01*
X214385363Y-113294759D01*
X214585241Y-113494637D01*
X214820273Y-113651680D01*
X215081426Y-113759853D01*
X215358665Y-113815000D01*
X215641335Y-113815000D01*
X215918574Y-113759853D01*
X216179727Y-113651680D01*
X216414759Y-113494637D01*
X216614637Y-113294759D01*
X216771680Y-113059727D01*
X216879853Y-112798574D01*
X216935000Y-112521335D01*
X216935000Y-112238665D01*
X216879853Y-111961426D01*
X216771680Y-111700273D01*
X216614637Y-111465241D01*
X216414759Y-111265363D01*
X216179727Y-111108320D01*
X215918574Y-111000147D01*
X215641335Y-110945000D01*
X215358665Y-110945000D01*
X215081426Y-111000147D01*
X214820273Y-111108320D01*
X214585241Y-111265363D01*
X214385363Y-111465241D01*
X214265252Y-111645000D01*
X204856094Y-111645000D01*
X204819999Y-111641445D01*
X204783904Y-111645000D01*
X204783895Y-111645000D01*
X204675915Y-111655635D01*
X204537367Y-111697663D01*
X204409680Y-111765913D01*
X204297762Y-111857762D01*
X204288745Y-111868750D01*
X204277762Y-111877763D01*
X204204980Y-111966448D01*
X203979484Y-111988657D01*
X203671285Y-112082148D01*
X203387248Y-112233969D01*
X203138286Y-112438286D01*
X202933969Y-112687248D01*
X202782148Y-112971285D01*
X202688657Y-113279484D01*
X202657089Y-113600000D01*
X202688657Y-113920516D01*
X202782148Y-114228715D01*
X202933969Y-114512752D01*
X203075424Y-114685116D01*
X202918574Y-114620147D01*
X202641335Y-114565000D01*
X202358665Y-114565000D01*
X202081426Y-114620147D01*
X201820273Y-114728320D01*
X201585241Y-114885363D01*
X201385363Y-115085241D01*
X201228320Y-115320273D01*
X201120147Y-115581426D01*
X201065000Y-115858665D01*
X201065000Y-116141335D01*
X201120147Y-116418574D01*
X201228320Y-116679727D01*
X201385363Y-116914759D01*
X201435604Y-116965000D01*
X201273000Y-116965000D01*
X200956468Y-117021193D01*
X200685000Y-117127124D01*
X200685000Y-110072876D01*
X200956468Y-110178807D01*
X201273000Y-110235000D01*
X201773000Y-110235000D01*
X201773000Y-108727000D01*
X202027000Y-108727000D01*
X202027000Y-110235000D01*
X202527000Y-110235000D01*
X202843532Y-110178807D01*
X203143020Y-110061942D01*
X203413954Y-109888895D01*
X203645922Y-109666317D01*
X203830010Y-109402761D01*
X203959144Y-109108355D01*
X203990124Y-108980434D01*
X203870777Y-108727000D01*
X202027000Y-108727000D01*
X201773000Y-108727000D01*
X201753000Y-108727000D01*
X201753000Y-108473000D01*
X201773000Y-108473000D01*
X201773000Y-108453000D01*
X202027000Y-108453000D01*
X202027000Y-108473000D01*
X203870777Y-108473000D01*
X203990124Y-108219566D01*
X203959144Y-108091645D01*
X203830010Y-107797239D01*
X203645922Y-107533683D01*
X203413954Y-107311105D01*
X203264032Y-107215349D01*
X203414759Y-107114637D01*
X203614637Y-106914759D01*
X203771680Y-106679727D01*
X203879853Y-106418574D01*
X203935000Y-106141335D01*
X203935000Y-105858665D01*
X203879853Y-105581426D01*
X203771680Y-105320273D01*
X203617061Y-105088869D01*
X203671285Y-105117852D01*
X203979484Y-105211343D01*
X204219678Y-105235000D01*
X205380322Y-105235000D01*
X205620516Y-105211343D01*
X205928715Y-105117852D01*
X206212752Y-104966031D01*
X206461714Y-104761714D01*
X206666031Y-104512752D01*
X206817852Y-104228715D01*
X206911343Y-103920516D01*
X206942911Y-103600000D01*
X206911343Y-103279484D01*
X206817852Y-102971285D01*
X206666031Y-102687248D01*
X206461714Y-102438286D01*
X206212752Y-102233969D01*
X205928715Y-102082148D01*
X205620516Y-101988657D01*
X205380322Y-101965000D01*
X204219678Y-101965000D01*
X203979484Y-101988657D01*
X203671285Y-102082148D01*
X203387248Y-102233969D01*
X203138286Y-102438286D01*
X202933969Y-102687248D01*
X202782148Y-102971285D01*
X202688657Y-103279484D01*
X202657089Y-103600000D01*
X202688657Y-103920516D01*
X202782148Y-104228715D01*
X202933969Y-104512752D01*
X203075424Y-104685116D01*
X202918574Y-104620147D01*
X202641335Y-104565000D01*
X202358665Y-104565000D01*
X202081426Y-104620147D01*
X201820273Y-104728320D01*
X201585241Y-104885363D01*
X201385363Y-105085241D01*
X201228320Y-105320273D01*
X201120147Y-105581426D01*
X201065000Y-105858665D01*
X201065000Y-106141335D01*
X201120147Y-106418574D01*
X201228320Y-106679727D01*
X201385363Y-106914759D01*
X201435604Y-106965000D01*
X201273000Y-106965000D01*
X200956468Y-107021193D01*
X200685000Y-107127124D01*
X200685000Y-97304495D01*
X201515000Y-97304495D01*
X201515000Y-97695505D01*
X201591282Y-98079003D01*
X201740915Y-98440250D01*
X201958149Y-98765364D01*
X202234636Y-99041851D01*
X202559750Y-99259085D01*
X202920997Y-99408718D01*
X203304495Y-99485000D01*
X203695505Y-99485000D01*
X204079003Y-99408718D01*
X204440250Y-99259085D01*
X204765364Y-99041851D01*
X205041851Y-98765364D01*
X205259085Y-98440250D01*
X205408718Y-98079003D01*
X205485000Y-97695505D01*
X205485000Y-97304495D01*
X205408718Y-96920997D01*
X205259085Y-96559750D01*
X205041851Y-96234636D01*
X204765364Y-95958149D01*
X204440250Y-95740915D01*
X204079003Y-95591282D01*
X203695505Y-95515000D01*
X203304495Y-95515000D01*
X202920997Y-95591282D01*
X202559750Y-95740915D01*
X202234636Y-95958149D01*
X201958149Y-96234636D01*
X201740915Y-96559750D01*
X201591282Y-96920997D01*
X201515000Y-97304495D01*
X200685000Y-97304495D01*
X200685000Y-97033505D01*
X200732312Y-96550984D01*
X200862714Y-96119070D01*
X201074524Y-95720715D01*
X201359675Y-95371086D01*
X201707303Y-95083503D01*
X202104177Y-94868914D01*
X202535161Y-94735502D01*
X203015654Y-94685000D01*
X211203421Y-94685000D01*
X211128960Y-94759461D01*
G36*
X220165011Y-138715542D02*
G01*
X217239359Y-141641195D01*
X217057396Y-141605000D01*
X216782604Y-141605000D01*
X216513093Y-141658609D01*
X216259220Y-141763767D01*
X216030739Y-141916433D01*
X215875001Y-142072171D01*
X215875001Y-138412447D01*
X220165011Y-134122438D01*
X220165011Y-138715542D01*
G37*
X220165011Y-138715542D02*
X217239359Y-141641195D01*
X217057396Y-141605000D01*
X216782604Y-141605000D01*
X216513093Y-141658609D01*
X216259220Y-141763767D01*
X216030739Y-141916433D01*
X215875001Y-142072171D01*
X215875001Y-138412447D01*
X220165011Y-134122438D01*
X220165011Y-138715542D01*
G36*
X226715913Y-115816875D02*
G01*
X226647663Y-115944562D01*
X226625488Y-116017663D01*
X226605635Y-116083109D01*
X226591444Y-116227194D01*
X226595000Y-116263299D01*
X226595001Y-128940251D01*
X226415241Y-129060363D01*
X226215363Y-129260241D01*
X226060000Y-129492759D01*
X225904637Y-129260241D01*
X225704759Y-129060363D01*
X225525000Y-128940252D01*
X225525000Y-117004446D01*
X226731207Y-115798239D01*
X226715913Y-115816875D01*
G37*
X226715913Y-115816875D02*
X226647663Y-115944562D01*
X226625488Y-116017663D01*
X226605635Y-116083109D01*
X226591444Y-116227194D01*
X226595000Y-116263299D01*
X226595001Y-128940251D01*
X226415241Y-129060363D01*
X226215363Y-129260241D01*
X226060000Y-129492759D01*
X225904637Y-129260241D01*
X225704759Y-129060363D01*
X225525000Y-128940252D01*
X225525000Y-117004446D01*
X226731207Y-115798239D01*
X226715913Y-115816875D01*
G36*
X230222498Y-109527502D02*
G01*
X230410551Y-109681833D01*
X230625099Y-109796511D01*
X230857898Y-109867130D01*
X231039335Y-109885000D01*
X231960665Y-109885000D01*
X232065010Y-109874723D01*
X232065010Y-109965277D01*
X231960665Y-109955000D01*
X231039335Y-109955000D01*
X230857898Y-109972870D01*
X230625099Y-110043489D01*
X230410551Y-110158167D01*
X230222498Y-110312498D01*
X230105550Y-110455000D01*
X219428748Y-110455000D01*
X218358748Y-109385000D01*
X230105550Y-109385000D01*
X230222498Y-109527502D01*
G37*
X230222498Y-109527502D02*
X230410551Y-109681833D01*
X230625099Y-109796511D01*
X230857898Y-109867130D01*
X231039335Y-109885000D01*
X231960665Y-109885000D01*
X232065010Y-109874723D01*
X232065010Y-109965277D01*
X231960665Y-109955000D01*
X231039335Y-109955000D01*
X230857898Y-109972870D01*
X230625099Y-110043489D01*
X230410551Y-110158167D01*
X230222498Y-110312498D01*
X230105550Y-110455000D01*
X219428748Y-110455000D01*
X218358748Y-109385000D01*
X230105550Y-109385000D01*
X230222498Y-109527502D01*
G36*
X217334822Y-99651355D02*
G01*
X217529731Y-99867588D01*
X217763080Y-100041641D01*
X218025901Y-100166825D01*
X218033442Y-100169112D01*
X217505808Y-100696746D01*
X217477763Y-100719762D01*
X217385914Y-100831680D01*
X217357279Y-100885253D01*
X217317664Y-100959367D01*
X217275635Y-101097915D01*
X217261444Y-101242000D01*
X217265001Y-101278115D01*
X217265000Y-106700578D01*
X217157225Y-106808353D01*
X217038485Y-106986060D01*
X216956696Y-107183517D01*
X216917917Y-107378471D01*
X214185000Y-104645554D01*
X214185000Y-100064883D01*
X214396632Y-99923475D01*
X214603475Y-99716632D01*
X214720000Y-99542240D01*
X214836525Y-99716632D01*
X215043368Y-99923475D01*
X215286589Y-100085990D01*
X215556842Y-100197932D01*
X215843740Y-100255000D01*
X216136260Y-100255000D01*
X216423158Y-100197932D01*
X216693411Y-100085990D01*
X216936632Y-99923475D01*
X217143475Y-99716632D01*
X217265195Y-99534466D01*
X217334822Y-99651355D01*
G37*
X217334822Y-99651355D02*
X217529731Y-99867588D01*
X217763080Y-100041641D01*
X218025901Y-100166825D01*
X218033442Y-100169112D01*
X217505808Y-100696746D01*
X217477763Y-100719762D01*
X217385914Y-100831680D01*
X217357279Y-100885253D01*
X217317664Y-100959367D01*
X217275635Y-101097915D01*
X217261444Y-101242000D01*
X217265001Y-101278115D01*
X217265000Y-106700578D01*
X217157225Y-106808353D01*
X217038485Y-106986060D01*
X216956696Y-107183517D01*
X216917917Y-107378471D01*
X214185000Y-104645554D01*
X214185000Y-100064883D01*
X214396632Y-99923475D01*
X214603475Y-99716632D01*
X214720000Y-99542240D01*
X214836525Y-99716632D01*
X215043368Y-99923475D01*
X215286589Y-100085990D01*
X215556842Y-100197932D01*
X215843740Y-100255000D01*
X216136260Y-100255000D01*
X216423158Y-100197932D01*
X216693411Y-100085990D01*
X216936632Y-99923475D01*
X217143475Y-99716632D01*
X217265195Y-99534466D01*
X217334822Y-99651355D01*
G36*
X218657000Y-98643000D02*
G01*
X218677000Y-98643000D01*
X218677000Y-98897000D01*
X218657000Y-98897000D01*
X218657000Y-98917000D01*
X218403000Y-98917000D01*
X218403000Y-98897000D01*
X218383000Y-98897000D01*
X218383000Y-98643000D01*
X218403000Y-98643000D01*
X218403000Y-98623000D01*
X218657000Y-98623000D01*
X218657000Y-98643000D01*
G37*
X218657000Y-98643000D02*
X218677000Y-98643000D01*
X218677000Y-98897000D01*
X218657000Y-98897000D01*
X218657000Y-98917000D01*
X218403000Y-98917000D01*
X218403000Y-98897000D01*
X218383000Y-98897000D01*
X218383000Y-98643000D01*
X218403000Y-98643000D01*
X218403000Y-98623000D01*
X218657000Y-98623000D01*
X218657000Y-98643000D01*
G36*
X249137000Y-96103000D02*
G01*
X249157000Y-96103000D01*
X249157000Y-96357000D01*
X249137000Y-96357000D01*
X249137000Y-96377000D01*
X248883000Y-96377000D01*
X248883000Y-96357000D01*
X248863000Y-96357000D01*
X248863000Y-96103000D01*
X248883000Y-96103000D01*
X248883000Y-96083000D01*
X249137000Y-96083000D01*
X249137000Y-96103000D01*
G37*
X249137000Y-96103000D02*
X249157000Y-96103000D01*
X249157000Y-96357000D01*
X249137000Y-96357000D01*
X249137000Y-96377000D01*
X248883000Y-96377000D01*
X248883000Y-96357000D01*
X248863000Y-96357000D01*
X248863000Y-96103000D01*
X248883000Y-96103000D01*
X248883000Y-96083000D01*
X249137000Y-96083000D01*
X249137000Y-96103000D01*
G36*
X244057000Y-96103000D02*
G01*
X244077000Y-96103000D01*
X244077000Y-96357000D01*
X244057000Y-96357000D01*
X244057000Y-96377000D01*
X243803000Y-96377000D01*
X243803000Y-96357000D01*
X243783000Y-96357000D01*
X243783000Y-96103000D01*
X243803000Y-96103000D01*
X243803000Y-96083000D01*
X244057000Y-96083000D01*
X244057000Y-96103000D01*
G37*
X244057000Y-96103000D02*
X244077000Y-96103000D01*
X244077000Y-96357000D01*
X244057000Y-96357000D01*
X244057000Y-96377000D01*
X243803000Y-96377000D01*
X243803000Y-96357000D01*
X243783000Y-96357000D01*
X243783000Y-96103000D01*
X243803000Y-96103000D01*
X243803000Y-96083000D01*
X244057000Y-96083000D01*
X244057000Y-96103000D01*
G36*
X231357000Y-96103000D02*
G01*
X231377000Y-96103000D01*
X231377000Y-96357000D01*
X231357000Y-96357000D01*
X231357000Y-96377000D01*
X231103000Y-96377000D01*
X231103000Y-96357000D01*
X231083000Y-96357000D01*
X231083000Y-96103000D01*
X231103000Y-96103000D01*
X231103000Y-96083000D01*
X231357000Y-96083000D01*
X231357000Y-96103000D01*
G37*
X231357000Y-96103000D02*
X231377000Y-96103000D01*
X231377000Y-96357000D01*
X231357000Y-96357000D01*
X231357000Y-96377000D01*
X231103000Y-96377000D01*
X231103000Y-96357000D01*
X231083000Y-96357000D01*
X231083000Y-96103000D01*
X231103000Y-96103000D01*
X231103000Y-96083000D01*
X231357000Y-96083000D01*
X231357000Y-96103000D01*
G36*
X223737000Y-96103000D02*
G01*
X223757000Y-96103000D01*
X223757000Y-96357000D01*
X223737000Y-96357000D01*
X223737000Y-96377000D01*
X223483000Y-96377000D01*
X223483000Y-96357000D01*
X223463000Y-96357000D01*
X223463000Y-96103000D01*
X223483000Y-96103000D01*
X223483000Y-96083000D01*
X223737000Y-96083000D01*
X223737000Y-96103000D01*
G37*
X223737000Y-96103000D02*
X223757000Y-96103000D01*
X223757000Y-96357000D01*
X223737000Y-96357000D01*
X223737000Y-96377000D01*
X223483000Y-96377000D01*
X223483000Y-96357000D01*
X223463000Y-96357000D01*
X223463000Y-96103000D01*
X223483000Y-96103000D01*
X223483000Y-96083000D01*
X223737000Y-96083000D01*
X223737000Y-96103000D01*
G36*
X213577000Y-96103000D02*
G01*
X213597000Y-96103000D01*
X213597000Y-96357000D01*
X213577000Y-96357000D01*
X213577000Y-96377000D01*
X213323000Y-96377000D01*
X213323000Y-96357000D01*
X213303000Y-96357000D01*
X213303000Y-96103000D01*
X213323000Y-96103000D01*
X213323000Y-96083000D01*
X213577000Y-96083000D01*
X213577000Y-96103000D01*
G37*
X213577000Y-96103000D02*
X213597000Y-96103000D01*
X213597000Y-96357000D01*
X213577000Y-96357000D01*
X213577000Y-96377000D01*
X213323000Y-96377000D01*
X213323000Y-96357000D01*
X213303000Y-96357000D01*
X213303000Y-96103000D01*
X213323000Y-96103000D01*
X213323000Y-96083000D01*
X213577000Y-96083000D01*
X213577000Y-96103000D01*
M02*
