G04 #@! TF.GenerationSoftware,KiCad,Pcbnew,(5.1.5)-3*
G04 #@! TF.CreationDate,2020-06-12T22:16:18+02:00*
G04 #@! TF.ProjectId,pwm,70776d2e-6b69-4636-9164-5f7063625858,rev?*
G04 #@! TF.SameCoordinates,Original*
G04 #@! TF.FileFunction,Soldermask,Bot*
G04 #@! TF.FilePolarity,Negative*
%FSLAX46Y46*%
G04 Gerber Fmt 4.6, Leading zero omitted, Abs format (unit mm)*
G04 Created by KiCad (PCBNEW (5.1.5)-3) date 2020-06-12 22:16:18*
%MOMM*%
%LPD*%
G04 APERTURE LIST*
%ADD10C,0.100000*%
G04 APERTURE END LIST*
D10*
G36*
X161384333Y-122801000D02*
G01*
X157782333Y-122801000D01*
X157782333Y-119199000D01*
X161384333Y-119199000D01*
X161384333Y-122801000D01*
G37*
G36*
X145051000Y-122801000D02*
G01*
X141449000Y-122801000D01*
X141449000Y-119199000D01*
X145051000Y-119199000D01*
X145051000Y-122801000D01*
G37*
G36*
X194051000Y-122801000D02*
G01*
X190449000Y-122801000D01*
X190449000Y-119199000D01*
X194051000Y-119199000D01*
X194051000Y-122801000D01*
G37*
G36*
X177717666Y-122801000D02*
G01*
X174115666Y-122801000D01*
X174115666Y-119199000D01*
X177717666Y-119199000D01*
X177717666Y-122801000D01*
G37*
G36*
X203843433Y-118009893D02*
G01*
X203933657Y-118027839D01*
X204039267Y-118071585D01*
X204188621Y-118133449D01*
X204188622Y-118133450D01*
X204418086Y-118286772D01*
X204613228Y-118481914D01*
X204715675Y-118635237D01*
X204766551Y-118711379D01*
X204872161Y-118966344D01*
X204926000Y-119237012D01*
X204926000Y-119512988D01*
X204872161Y-119783656D01*
X204766551Y-120038621D01*
X204766550Y-120038622D01*
X204613228Y-120268086D01*
X204418086Y-120463228D01*
X204264763Y-120565675D01*
X204188621Y-120616551D01*
X204039267Y-120678415D01*
X203933657Y-120722161D01*
X203843433Y-120740107D01*
X203662988Y-120776000D01*
X203387012Y-120776000D01*
X203206567Y-120740107D01*
X203116343Y-120722161D01*
X203010733Y-120678415D01*
X202861379Y-120616551D01*
X202785237Y-120565675D01*
X202631914Y-120463228D01*
X202436772Y-120268086D01*
X202283450Y-120038622D01*
X202283449Y-120038621D01*
X202177839Y-119783656D01*
X202124000Y-119512988D01*
X202124000Y-119237012D01*
X202177839Y-118966344D01*
X202283449Y-118711379D01*
X202334325Y-118635237D01*
X202436772Y-118481914D01*
X202631914Y-118286772D01*
X202861378Y-118133450D01*
X202861379Y-118133449D01*
X203010733Y-118071585D01*
X203116343Y-118027839D01*
X203206567Y-118009893D01*
X203387012Y-117974000D01*
X203662988Y-117974000D01*
X203843433Y-118009893D01*
G37*
G36*
X132293433Y-118009893D02*
G01*
X132383657Y-118027839D01*
X132489267Y-118071585D01*
X132638621Y-118133449D01*
X132638622Y-118133450D01*
X132868086Y-118286772D01*
X133063228Y-118481914D01*
X133165675Y-118635237D01*
X133216551Y-118711379D01*
X133322161Y-118966344D01*
X133376000Y-119237012D01*
X133376000Y-119512988D01*
X133322161Y-119783656D01*
X133216551Y-120038621D01*
X133216550Y-120038622D01*
X133063228Y-120268086D01*
X132868086Y-120463228D01*
X132714763Y-120565675D01*
X132638621Y-120616551D01*
X132489267Y-120678415D01*
X132383657Y-120722161D01*
X132293433Y-120740107D01*
X132112988Y-120776000D01*
X131837012Y-120776000D01*
X131656567Y-120740107D01*
X131566343Y-120722161D01*
X131460733Y-120678415D01*
X131311379Y-120616551D01*
X131235237Y-120565675D01*
X131081914Y-120463228D01*
X130886772Y-120268086D01*
X130733450Y-120038622D01*
X130733449Y-120038621D01*
X130627839Y-119783656D01*
X130574000Y-119512988D01*
X130574000Y-119237012D01*
X130627839Y-118966344D01*
X130733449Y-118711379D01*
X130784325Y-118635237D01*
X130886772Y-118481914D01*
X131081914Y-118286772D01*
X131311378Y-118133450D01*
X131311379Y-118133449D01*
X131460733Y-118071585D01*
X131566343Y-118027839D01*
X131656567Y-118009893D01*
X131837012Y-117974000D01*
X132112988Y-117974000D01*
X132293433Y-118009893D01*
G37*
G36*
X182417666Y-119801000D02*
G01*
X178815666Y-119801000D01*
X178815666Y-116199000D01*
X182417666Y-116199000D01*
X182417666Y-119801000D01*
G37*
G36*
X149751000Y-119801000D02*
G01*
X146149000Y-119801000D01*
X146149000Y-116199000D01*
X149751000Y-116199000D01*
X149751000Y-119801000D01*
G37*
G36*
X166084333Y-119801000D02*
G01*
X162482333Y-119801000D01*
X162482333Y-116199000D01*
X166084333Y-116199000D01*
X166084333Y-119801000D01*
G37*
G36*
X198751000Y-119801000D02*
G01*
X195149000Y-119801000D01*
X195149000Y-116199000D01*
X198751000Y-116199000D01*
X198751000Y-119801000D01*
G37*
G36*
X194051000Y-116801000D02*
G01*
X190449000Y-116801000D01*
X190449000Y-113199000D01*
X194051000Y-113199000D01*
X194051000Y-116801000D01*
G37*
G36*
X161384333Y-116801000D02*
G01*
X157782333Y-116801000D01*
X157782333Y-113199000D01*
X161384333Y-113199000D01*
X161384333Y-116801000D01*
G37*
G36*
X177717666Y-116801000D02*
G01*
X174115666Y-116801000D01*
X174115666Y-113199000D01*
X177717666Y-113199000D01*
X177717666Y-116801000D01*
G37*
G36*
X145051000Y-116801000D02*
G01*
X141449000Y-116801000D01*
X141449000Y-113199000D01*
X145051000Y-113199000D01*
X145051000Y-116801000D01*
G37*
G36*
X196628228Y-106181703D02*
G01*
X196783100Y-106245853D01*
X196922481Y-106338985D01*
X197041015Y-106457519D01*
X197134147Y-106596900D01*
X197198297Y-106751772D01*
X197231000Y-106916184D01*
X197231000Y-107083816D01*
X197198297Y-107248228D01*
X197134147Y-107403100D01*
X197041015Y-107542481D01*
X196922481Y-107661015D01*
X196783100Y-107754147D01*
X196628228Y-107818297D01*
X196463816Y-107851000D01*
X196296184Y-107851000D01*
X196131772Y-107818297D01*
X195976900Y-107754147D01*
X195837519Y-107661015D01*
X195718985Y-107542481D01*
X195625853Y-107403100D01*
X195561703Y-107248228D01*
X195529000Y-107083816D01*
X195529000Y-106916184D01*
X195561703Y-106751772D01*
X195625853Y-106596900D01*
X195718985Y-106457519D01*
X195837519Y-106338985D01*
X195976900Y-106245853D01*
X196131772Y-106181703D01*
X196296184Y-106149000D01*
X196463816Y-106149000D01*
X196628228Y-106181703D01*
G37*
G36*
X186248228Y-106181703D02*
G01*
X186403100Y-106245853D01*
X186542481Y-106338985D01*
X186661015Y-106457519D01*
X186754147Y-106596900D01*
X186818297Y-106751772D01*
X186851000Y-106916184D01*
X186851000Y-107083816D01*
X186818297Y-107248228D01*
X186754147Y-107403100D01*
X186661015Y-107542481D01*
X186542481Y-107661015D01*
X186403100Y-107754147D01*
X186248228Y-107818297D01*
X186083816Y-107851000D01*
X185916184Y-107851000D01*
X185751772Y-107818297D01*
X185596900Y-107754147D01*
X185457519Y-107661015D01*
X185338985Y-107542481D01*
X185245853Y-107403100D01*
X185181703Y-107248228D01*
X185149000Y-107083816D01*
X185149000Y-106916184D01*
X185181703Y-106751772D01*
X185245853Y-106596900D01*
X185338985Y-106457519D01*
X185457519Y-106338985D01*
X185596900Y-106245853D01*
X185751772Y-106181703D01*
X185916184Y-106149000D01*
X186083816Y-106149000D01*
X186248228Y-106181703D01*
G37*
G36*
X149628228Y-106181703D02*
G01*
X149783100Y-106245853D01*
X149922481Y-106338985D01*
X150041015Y-106457519D01*
X150134147Y-106596900D01*
X150198297Y-106751772D01*
X150231000Y-106916184D01*
X150231000Y-107083816D01*
X150198297Y-107248228D01*
X150134147Y-107403100D01*
X150041015Y-107542481D01*
X149922481Y-107661015D01*
X149783100Y-107754147D01*
X149628228Y-107818297D01*
X149463816Y-107851000D01*
X149296184Y-107851000D01*
X149131772Y-107818297D01*
X148976900Y-107754147D01*
X148837519Y-107661015D01*
X148718985Y-107542481D01*
X148625853Y-107403100D01*
X148561703Y-107248228D01*
X148529000Y-107083816D01*
X148529000Y-106916184D01*
X148561703Y-106751772D01*
X148625853Y-106596900D01*
X148718985Y-106457519D01*
X148837519Y-106338985D01*
X148976900Y-106245853D01*
X149131772Y-106181703D01*
X149296184Y-106149000D01*
X149463816Y-106149000D01*
X149628228Y-106181703D01*
G37*
G36*
X157248228Y-106181703D02*
G01*
X157403100Y-106245853D01*
X157542481Y-106338985D01*
X157661015Y-106457519D01*
X157754147Y-106596900D01*
X157818297Y-106751772D01*
X157851000Y-106916184D01*
X157851000Y-107083816D01*
X157818297Y-107248228D01*
X157754147Y-107403100D01*
X157661015Y-107542481D01*
X157542481Y-107661015D01*
X157403100Y-107754147D01*
X157248228Y-107818297D01*
X157083816Y-107851000D01*
X156916184Y-107851000D01*
X156751772Y-107818297D01*
X156596900Y-107754147D01*
X156457519Y-107661015D01*
X156338985Y-107542481D01*
X156245853Y-107403100D01*
X156181703Y-107248228D01*
X156149000Y-107083816D01*
X156149000Y-106916184D01*
X156181703Y-106751772D01*
X156245853Y-106596900D01*
X156338985Y-106457519D01*
X156457519Y-106338985D01*
X156596900Y-106245853D01*
X156751772Y-106181703D01*
X156916184Y-106149000D01*
X157083816Y-106149000D01*
X157248228Y-106181703D01*
G37*
G36*
X131628228Y-106181703D02*
G01*
X131783100Y-106245853D01*
X131922481Y-106338985D01*
X132041015Y-106457519D01*
X132134147Y-106596900D01*
X132198297Y-106751772D01*
X132231000Y-106916184D01*
X132231000Y-107083816D01*
X132198297Y-107248228D01*
X132134147Y-107403100D01*
X132041015Y-107542481D01*
X131922481Y-107661015D01*
X131783100Y-107754147D01*
X131628228Y-107818297D01*
X131463816Y-107851000D01*
X131296184Y-107851000D01*
X131131772Y-107818297D01*
X130976900Y-107754147D01*
X130837519Y-107661015D01*
X130718985Y-107542481D01*
X130625853Y-107403100D01*
X130561703Y-107248228D01*
X130529000Y-107083816D01*
X130529000Y-106916184D01*
X130561703Y-106751772D01*
X130625853Y-106596900D01*
X130718985Y-106457519D01*
X130837519Y-106338985D01*
X130976900Y-106245853D01*
X131131772Y-106181703D01*
X131296184Y-106149000D01*
X131463816Y-106149000D01*
X131628228Y-106181703D01*
G37*
G36*
X139248228Y-106181703D02*
G01*
X139403100Y-106245853D01*
X139542481Y-106338985D01*
X139661015Y-106457519D01*
X139754147Y-106596900D01*
X139818297Y-106751772D01*
X139851000Y-106916184D01*
X139851000Y-107083816D01*
X139818297Y-107248228D01*
X139754147Y-107403100D01*
X139661015Y-107542481D01*
X139542481Y-107661015D01*
X139403100Y-107754147D01*
X139248228Y-107818297D01*
X139083816Y-107851000D01*
X138916184Y-107851000D01*
X138751772Y-107818297D01*
X138596900Y-107754147D01*
X138457519Y-107661015D01*
X138338985Y-107542481D01*
X138245853Y-107403100D01*
X138181703Y-107248228D01*
X138149000Y-107083816D01*
X138149000Y-106916184D01*
X138181703Y-106751772D01*
X138245853Y-106596900D01*
X138338985Y-106457519D01*
X138457519Y-106338985D01*
X138596900Y-106245853D01*
X138751772Y-106181703D01*
X138916184Y-106149000D01*
X139083816Y-106149000D01*
X139248228Y-106181703D01*
G37*
G36*
X204248228Y-106181703D02*
G01*
X204403100Y-106245853D01*
X204542481Y-106338985D01*
X204661015Y-106457519D01*
X204754147Y-106596900D01*
X204818297Y-106751772D01*
X204851000Y-106916184D01*
X204851000Y-107083816D01*
X204818297Y-107248228D01*
X204754147Y-107403100D01*
X204661015Y-107542481D01*
X204542481Y-107661015D01*
X204403100Y-107754147D01*
X204248228Y-107818297D01*
X204083816Y-107851000D01*
X203916184Y-107851000D01*
X203751772Y-107818297D01*
X203596900Y-107754147D01*
X203457519Y-107661015D01*
X203338985Y-107542481D01*
X203245853Y-107403100D01*
X203181703Y-107248228D01*
X203149000Y-107083816D01*
X203149000Y-106916184D01*
X203181703Y-106751772D01*
X203245853Y-106596900D01*
X203338985Y-106457519D01*
X203457519Y-106338985D01*
X203596900Y-106245853D01*
X203751772Y-106181703D01*
X203916184Y-106149000D01*
X204083816Y-106149000D01*
X204248228Y-106181703D01*
G37*
G36*
X178628228Y-106181703D02*
G01*
X178783100Y-106245853D01*
X178922481Y-106338985D01*
X179041015Y-106457519D01*
X179134147Y-106596900D01*
X179198297Y-106751772D01*
X179231000Y-106916184D01*
X179231000Y-107083816D01*
X179198297Y-107248228D01*
X179134147Y-107403100D01*
X179041015Y-107542481D01*
X178922481Y-107661015D01*
X178783100Y-107754147D01*
X178628228Y-107818297D01*
X178463816Y-107851000D01*
X178296184Y-107851000D01*
X178131772Y-107818297D01*
X177976900Y-107754147D01*
X177837519Y-107661015D01*
X177718985Y-107542481D01*
X177625853Y-107403100D01*
X177561703Y-107248228D01*
X177529000Y-107083816D01*
X177529000Y-106916184D01*
X177561703Y-106751772D01*
X177625853Y-106596900D01*
X177718985Y-106457519D01*
X177837519Y-106338985D01*
X177976900Y-106245853D01*
X178131772Y-106181703D01*
X178296184Y-106149000D01*
X178463816Y-106149000D01*
X178628228Y-106181703D01*
G37*
G36*
X198661000Y-97451000D02*
G01*
X196759000Y-97451000D01*
X196759000Y-95549000D01*
X198661000Y-95549000D01*
X198661000Y-97451000D01*
G37*
G36*
X151661000Y-97451000D02*
G01*
X149759000Y-97451000D01*
X149759000Y-95549000D01*
X151661000Y-95549000D01*
X151661000Y-97451000D01*
G37*
G36*
X153527395Y-95585546D02*
G01*
X153700466Y-95657234D01*
X153700467Y-95657235D01*
X153856227Y-95761310D01*
X153988690Y-95893773D01*
X153988691Y-95893775D01*
X154092766Y-96049534D01*
X154164454Y-96222605D01*
X154201000Y-96406333D01*
X154201000Y-96593667D01*
X154164454Y-96777395D01*
X154092766Y-96950466D01*
X154092765Y-96950467D01*
X153988690Y-97106227D01*
X153856227Y-97238690D01*
X153777818Y-97291081D01*
X153700466Y-97342766D01*
X153527395Y-97414454D01*
X153343667Y-97451000D01*
X153156333Y-97451000D01*
X152972605Y-97414454D01*
X152799534Y-97342766D01*
X152722182Y-97291081D01*
X152643773Y-97238690D01*
X152511310Y-97106227D01*
X152407235Y-96950467D01*
X152407234Y-96950466D01*
X152335546Y-96777395D01*
X152299000Y-96593667D01*
X152299000Y-96406333D01*
X152335546Y-96222605D01*
X152407234Y-96049534D01*
X152511309Y-95893775D01*
X152511310Y-95893773D01*
X152643773Y-95761310D01*
X152799533Y-95657235D01*
X152799534Y-95657234D01*
X152972605Y-95585546D01*
X153156333Y-95549000D01*
X153343667Y-95549000D01*
X153527395Y-95585546D01*
G37*
G36*
X133661000Y-97451000D02*
G01*
X131759000Y-97451000D01*
X131759000Y-95549000D01*
X133661000Y-95549000D01*
X133661000Y-97451000D01*
G37*
G36*
X156067395Y-95585546D02*
G01*
X156240466Y-95657234D01*
X156240467Y-95657235D01*
X156396227Y-95761310D01*
X156528690Y-95893773D01*
X156528691Y-95893775D01*
X156632766Y-96049534D01*
X156704454Y-96222605D01*
X156741000Y-96406333D01*
X156741000Y-96593667D01*
X156704454Y-96777395D01*
X156632766Y-96950466D01*
X156632765Y-96950467D01*
X156528690Y-97106227D01*
X156396227Y-97238690D01*
X156317818Y-97291081D01*
X156240466Y-97342766D01*
X156067395Y-97414454D01*
X155883667Y-97451000D01*
X155696333Y-97451000D01*
X155512605Y-97414454D01*
X155339534Y-97342766D01*
X155262182Y-97291081D01*
X155183773Y-97238690D01*
X155051310Y-97106227D01*
X154947235Y-96950467D01*
X154947234Y-96950466D01*
X154875546Y-96777395D01*
X154839000Y-96593667D01*
X154839000Y-96406333D01*
X154875546Y-96222605D01*
X154947234Y-96049534D01*
X155051309Y-95893775D01*
X155051310Y-95893773D01*
X155183773Y-95761310D01*
X155339533Y-95657235D01*
X155339534Y-95657234D01*
X155512605Y-95585546D01*
X155696333Y-95549000D01*
X155883667Y-95549000D01*
X156067395Y-95585546D01*
G37*
G36*
X180661000Y-97451000D02*
G01*
X178759000Y-97451000D01*
X178759000Y-95549000D01*
X180661000Y-95549000D01*
X180661000Y-97451000D01*
G37*
G36*
X138067395Y-95585546D02*
G01*
X138240466Y-95657234D01*
X138240467Y-95657235D01*
X138396227Y-95761310D01*
X138528690Y-95893773D01*
X138528691Y-95893775D01*
X138632766Y-96049534D01*
X138704454Y-96222605D01*
X138741000Y-96406333D01*
X138741000Y-96593667D01*
X138704454Y-96777395D01*
X138632766Y-96950466D01*
X138632765Y-96950467D01*
X138528690Y-97106227D01*
X138396227Y-97238690D01*
X138317818Y-97291081D01*
X138240466Y-97342766D01*
X138067395Y-97414454D01*
X137883667Y-97451000D01*
X137696333Y-97451000D01*
X137512605Y-97414454D01*
X137339534Y-97342766D01*
X137262182Y-97291081D01*
X137183773Y-97238690D01*
X137051310Y-97106227D01*
X136947235Y-96950467D01*
X136947234Y-96950466D01*
X136875546Y-96777395D01*
X136839000Y-96593667D01*
X136839000Y-96406333D01*
X136875546Y-96222605D01*
X136947234Y-96049534D01*
X137051309Y-95893775D01*
X137051310Y-95893773D01*
X137183773Y-95761310D01*
X137339533Y-95657235D01*
X137339534Y-95657234D01*
X137512605Y-95585546D01*
X137696333Y-95549000D01*
X137883667Y-95549000D01*
X138067395Y-95585546D01*
G37*
G36*
X135527395Y-95585546D02*
G01*
X135700466Y-95657234D01*
X135700467Y-95657235D01*
X135856227Y-95761310D01*
X135988690Y-95893773D01*
X135988691Y-95893775D01*
X136092766Y-96049534D01*
X136164454Y-96222605D01*
X136201000Y-96406333D01*
X136201000Y-96593667D01*
X136164454Y-96777395D01*
X136092766Y-96950466D01*
X136092765Y-96950467D01*
X135988690Y-97106227D01*
X135856227Y-97238690D01*
X135777818Y-97291081D01*
X135700466Y-97342766D01*
X135527395Y-97414454D01*
X135343667Y-97451000D01*
X135156333Y-97451000D01*
X134972605Y-97414454D01*
X134799534Y-97342766D01*
X134722182Y-97291081D01*
X134643773Y-97238690D01*
X134511310Y-97106227D01*
X134407235Y-96950467D01*
X134407234Y-96950466D01*
X134335546Y-96777395D01*
X134299000Y-96593667D01*
X134299000Y-96406333D01*
X134335546Y-96222605D01*
X134407234Y-96049534D01*
X134511309Y-95893775D01*
X134511310Y-95893773D01*
X134643773Y-95761310D01*
X134799533Y-95657235D01*
X134799534Y-95657234D01*
X134972605Y-95585546D01*
X135156333Y-95549000D01*
X135343667Y-95549000D01*
X135527395Y-95585546D01*
G37*
G36*
X203067395Y-95585546D02*
G01*
X203240466Y-95657234D01*
X203240467Y-95657235D01*
X203396227Y-95761310D01*
X203528690Y-95893773D01*
X203528691Y-95893775D01*
X203632766Y-96049534D01*
X203704454Y-96222605D01*
X203741000Y-96406333D01*
X203741000Y-96593667D01*
X203704454Y-96777395D01*
X203632766Y-96950466D01*
X203632765Y-96950467D01*
X203528690Y-97106227D01*
X203396227Y-97238690D01*
X203317818Y-97291081D01*
X203240466Y-97342766D01*
X203067395Y-97414454D01*
X202883667Y-97451000D01*
X202696333Y-97451000D01*
X202512605Y-97414454D01*
X202339534Y-97342766D01*
X202262182Y-97291081D01*
X202183773Y-97238690D01*
X202051310Y-97106227D01*
X201947235Y-96950467D01*
X201947234Y-96950466D01*
X201875546Y-96777395D01*
X201839000Y-96593667D01*
X201839000Y-96406333D01*
X201875546Y-96222605D01*
X201947234Y-96049534D01*
X202051309Y-95893775D01*
X202051310Y-95893773D01*
X202183773Y-95761310D01*
X202339533Y-95657235D01*
X202339534Y-95657234D01*
X202512605Y-95585546D01*
X202696333Y-95549000D01*
X202883667Y-95549000D01*
X203067395Y-95585546D01*
G37*
G36*
X185067395Y-95585546D02*
G01*
X185240466Y-95657234D01*
X185240467Y-95657235D01*
X185396227Y-95761310D01*
X185528690Y-95893773D01*
X185528691Y-95893775D01*
X185632766Y-96049534D01*
X185704454Y-96222605D01*
X185741000Y-96406333D01*
X185741000Y-96593667D01*
X185704454Y-96777395D01*
X185632766Y-96950466D01*
X185632765Y-96950467D01*
X185528690Y-97106227D01*
X185396227Y-97238690D01*
X185317818Y-97291081D01*
X185240466Y-97342766D01*
X185067395Y-97414454D01*
X184883667Y-97451000D01*
X184696333Y-97451000D01*
X184512605Y-97414454D01*
X184339534Y-97342766D01*
X184262182Y-97291081D01*
X184183773Y-97238690D01*
X184051310Y-97106227D01*
X183947235Y-96950467D01*
X183947234Y-96950466D01*
X183875546Y-96777395D01*
X183839000Y-96593667D01*
X183839000Y-96406333D01*
X183875546Y-96222605D01*
X183947234Y-96049534D01*
X184051309Y-95893775D01*
X184051310Y-95893773D01*
X184183773Y-95761310D01*
X184339533Y-95657235D01*
X184339534Y-95657234D01*
X184512605Y-95585546D01*
X184696333Y-95549000D01*
X184883667Y-95549000D01*
X185067395Y-95585546D01*
G37*
G36*
X200527395Y-95585546D02*
G01*
X200700466Y-95657234D01*
X200700467Y-95657235D01*
X200856227Y-95761310D01*
X200988690Y-95893773D01*
X200988691Y-95893775D01*
X201092766Y-96049534D01*
X201164454Y-96222605D01*
X201201000Y-96406333D01*
X201201000Y-96593667D01*
X201164454Y-96777395D01*
X201092766Y-96950466D01*
X201092765Y-96950467D01*
X200988690Y-97106227D01*
X200856227Y-97238690D01*
X200777818Y-97291081D01*
X200700466Y-97342766D01*
X200527395Y-97414454D01*
X200343667Y-97451000D01*
X200156333Y-97451000D01*
X199972605Y-97414454D01*
X199799534Y-97342766D01*
X199722182Y-97291081D01*
X199643773Y-97238690D01*
X199511310Y-97106227D01*
X199407235Y-96950467D01*
X199407234Y-96950466D01*
X199335546Y-96777395D01*
X199299000Y-96593667D01*
X199299000Y-96406333D01*
X199335546Y-96222605D01*
X199407234Y-96049534D01*
X199511309Y-95893775D01*
X199511310Y-95893773D01*
X199643773Y-95761310D01*
X199799533Y-95657235D01*
X199799534Y-95657234D01*
X199972605Y-95585546D01*
X200156333Y-95549000D01*
X200343667Y-95549000D01*
X200527395Y-95585546D01*
G37*
G36*
X182527395Y-95585546D02*
G01*
X182700466Y-95657234D01*
X182700467Y-95657235D01*
X182856227Y-95761310D01*
X182988690Y-95893773D01*
X182988691Y-95893775D01*
X183092766Y-96049534D01*
X183164454Y-96222605D01*
X183201000Y-96406333D01*
X183201000Y-96593667D01*
X183164454Y-96777395D01*
X183092766Y-96950466D01*
X183092765Y-96950467D01*
X182988690Y-97106227D01*
X182856227Y-97238690D01*
X182777818Y-97291081D01*
X182700466Y-97342766D01*
X182527395Y-97414454D01*
X182343667Y-97451000D01*
X182156333Y-97451000D01*
X181972605Y-97414454D01*
X181799534Y-97342766D01*
X181722182Y-97291081D01*
X181643773Y-97238690D01*
X181511310Y-97106227D01*
X181407235Y-96950467D01*
X181407234Y-96950466D01*
X181335546Y-96777395D01*
X181299000Y-96593667D01*
X181299000Y-96406333D01*
X181335546Y-96222605D01*
X181407234Y-96049534D01*
X181511309Y-95893775D01*
X181511310Y-95893773D01*
X181643773Y-95761310D01*
X181799533Y-95657235D01*
X181799534Y-95657234D01*
X181972605Y-95585546D01*
X182156333Y-95549000D01*
X182343667Y-95549000D01*
X182527395Y-95585546D01*
G37*
G36*
X173051000Y-86801000D02*
G01*
X169449000Y-86801000D01*
X169449000Y-83199000D01*
X173051000Y-83199000D01*
X173051000Y-86801000D01*
G37*
G36*
X168351000Y-83801000D02*
G01*
X164749000Y-83801000D01*
X164749000Y-80199000D01*
X168351000Y-80199000D01*
X168351000Y-83801000D01*
G37*
G36*
X188561000Y-83311000D02*
G01*
X186939000Y-83311000D01*
X186939000Y-81689000D01*
X188561000Y-81689000D01*
X188561000Y-83311000D01*
G37*
G36*
X192031680Y-81713228D02*
G01*
X192066560Y-81720166D01*
X192214153Y-81781301D01*
X192341736Y-81866550D01*
X192346982Y-81870055D01*
X192459945Y-81983018D01*
X192548700Y-82115849D01*
X192609834Y-82263440D01*
X192628566Y-82357610D01*
X192641000Y-82420123D01*
X192641000Y-82579877D01*
X192609834Y-82736560D01*
X192548699Y-82884153D01*
X192459945Y-83016982D01*
X192346982Y-83129945D01*
X192214153Y-83218699D01*
X192214152Y-83218700D01*
X192214151Y-83218700D01*
X192066560Y-83279834D01*
X191909878Y-83311000D01*
X191750122Y-83311000D01*
X191593440Y-83279834D01*
X191445849Y-83218700D01*
X191445848Y-83218700D01*
X191445847Y-83218699D01*
X191313018Y-83129945D01*
X191200055Y-83016982D01*
X191111301Y-82884153D01*
X191050166Y-82736560D01*
X191019000Y-82579877D01*
X191019000Y-82420123D01*
X191031435Y-82357610D01*
X191050166Y-82263440D01*
X191111300Y-82115849D01*
X191200055Y-81983018D01*
X191313018Y-81870055D01*
X191318264Y-81866550D01*
X191445847Y-81781301D01*
X191593440Y-81720166D01*
X191628320Y-81713228D01*
X191750122Y-81689000D01*
X191909878Y-81689000D01*
X192031680Y-81713228D01*
G37*
G36*
X189991680Y-81713228D02*
G01*
X190026560Y-81720166D01*
X190174153Y-81781301D01*
X190301736Y-81866550D01*
X190306982Y-81870055D01*
X190419945Y-81983018D01*
X190508700Y-82115849D01*
X190569834Y-82263440D01*
X190588566Y-82357610D01*
X190601000Y-82420123D01*
X190601000Y-82579877D01*
X190569834Y-82736560D01*
X190508699Y-82884153D01*
X190419945Y-83016982D01*
X190306982Y-83129945D01*
X190174153Y-83218699D01*
X190174152Y-83218700D01*
X190174151Y-83218700D01*
X190026560Y-83279834D01*
X189869878Y-83311000D01*
X189710122Y-83311000D01*
X189553440Y-83279834D01*
X189405849Y-83218700D01*
X189405848Y-83218700D01*
X189405847Y-83218699D01*
X189273018Y-83129945D01*
X189160055Y-83016982D01*
X189071301Y-82884153D01*
X189010166Y-82736560D01*
X188979000Y-82579877D01*
X188979000Y-82420123D01*
X188991435Y-82357610D01*
X189010166Y-82263440D01*
X189071300Y-82115849D01*
X189160055Y-81983018D01*
X189273018Y-81870055D01*
X189278264Y-81866550D01*
X189405847Y-81781301D01*
X189553440Y-81720166D01*
X189588320Y-81713228D01*
X189710122Y-81689000D01*
X189869878Y-81689000D01*
X189991680Y-81713228D01*
G37*
G36*
X154357610Y-80821114D02*
G01*
X154580727Y-80913532D01*
X154580729Y-80913533D01*
X154631269Y-80947303D01*
X154781529Y-81047703D01*
X154952297Y-81218471D01*
X155086468Y-81419273D01*
X155178886Y-81642390D01*
X155226000Y-81879248D01*
X155226000Y-82120752D01*
X155178886Y-82357610D01*
X155086468Y-82580727D01*
X154952297Y-82781529D01*
X154781529Y-82952297D01*
X154631269Y-83052697D01*
X154580729Y-83086467D01*
X154580728Y-83086468D01*
X154580727Y-83086468D01*
X154357610Y-83178886D01*
X154120752Y-83226000D01*
X153879248Y-83226000D01*
X153642390Y-83178886D01*
X153419273Y-83086468D01*
X153419272Y-83086468D01*
X153419271Y-83086467D01*
X153368731Y-83052697D01*
X153218471Y-82952297D01*
X153047703Y-82781529D01*
X152913532Y-82580727D01*
X152821114Y-82357610D01*
X152774000Y-82120752D01*
X152774000Y-81879248D01*
X152821114Y-81642390D01*
X152913532Y-81419273D01*
X153047703Y-81218471D01*
X153218471Y-81047703D01*
X153368731Y-80947303D01*
X153419271Y-80913533D01*
X153419273Y-80913532D01*
X153642390Y-80821114D01*
X153879248Y-80774000D01*
X154120752Y-80774000D01*
X154357610Y-80821114D01*
G37*
G36*
X159357610Y-80821114D02*
G01*
X159580727Y-80913532D01*
X159580729Y-80913533D01*
X159631269Y-80947303D01*
X159781529Y-81047703D01*
X159952297Y-81218471D01*
X160086468Y-81419273D01*
X160178886Y-81642390D01*
X160226000Y-81879248D01*
X160226000Y-82120752D01*
X160178886Y-82357610D01*
X160086468Y-82580727D01*
X159952297Y-82781529D01*
X159781529Y-82952297D01*
X159631269Y-83052697D01*
X159580729Y-83086467D01*
X159580728Y-83086468D01*
X159580727Y-83086468D01*
X159357610Y-83178886D01*
X159120752Y-83226000D01*
X158879248Y-83226000D01*
X158642390Y-83178886D01*
X158419273Y-83086468D01*
X158419272Y-83086468D01*
X158419271Y-83086467D01*
X158368731Y-83052697D01*
X158218471Y-82952297D01*
X158047703Y-82781529D01*
X157913532Y-82580727D01*
X157821114Y-82357610D01*
X157774000Y-82120752D01*
X157774000Y-81879248D01*
X157821114Y-81642390D01*
X157913532Y-81419273D01*
X158047703Y-81218471D01*
X158218471Y-81047703D01*
X158368731Y-80947303D01*
X158419271Y-80913533D01*
X158419273Y-80913532D01*
X158642390Y-80821114D01*
X158879248Y-80774000D01*
X159120752Y-80774000D01*
X159357610Y-80821114D01*
G37*
G36*
X139357610Y-80821114D02*
G01*
X139580727Y-80913532D01*
X139580729Y-80913533D01*
X139631269Y-80947303D01*
X139781529Y-81047703D01*
X139952297Y-81218471D01*
X140086468Y-81419273D01*
X140178886Y-81642390D01*
X140226000Y-81879248D01*
X140226000Y-82120752D01*
X140178886Y-82357610D01*
X140086468Y-82580727D01*
X139952297Y-82781529D01*
X139781529Y-82952297D01*
X139631269Y-83052697D01*
X139580729Y-83086467D01*
X139580728Y-83086468D01*
X139580727Y-83086468D01*
X139357610Y-83178886D01*
X139120752Y-83226000D01*
X138879248Y-83226000D01*
X138642390Y-83178886D01*
X138419273Y-83086468D01*
X138419272Y-83086468D01*
X138419271Y-83086467D01*
X138368731Y-83052697D01*
X138218471Y-82952297D01*
X138047703Y-82781529D01*
X137913532Y-82580727D01*
X137821114Y-82357610D01*
X137774000Y-82120752D01*
X137774000Y-81879248D01*
X137821114Y-81642390D01*
X137913532Y-81419273D01*
X138047703Y-81218471D01*
X138218471Y-81047703D01*
X138368731Y-80947303D01*
X138419271Y-80913533D01*
X138419273Y-80913532D01*
X138642390Y-80821114D01*
X138879248Y-80774000D01*
X139120752Y-80774000D01*
X139357610Y-80821114D01*
G37*
G36*
X144357610Y-80821114D02*
G01*
X144580727Y-80913532D01*
X144580729Y-80913533D01*
X144631269Y-80947303D01*
X144781529Y-81047703D01*
X144952297Y-81218471D01*
X145086468Y-81419273D01*
X145178886Y-81642390D01*
X145226000Y-81879248D01*
X145226000Y-82120752D01*
X145178886Y-82357610D01*
X145086468Y-82580727D01*
X144952297Y-82781529D01*
X144781529Y-82952297D01*
X144631269Y-83052697D01*
X144580729Y-83086467D01*
X144580728Y-83086468D01*
X144580727Y-83086468D01*
X144357610Y-83178886D01*
X144120752Y-83226000D01*
X143879248Y-83226000D01*
X143642390Y-83178886D01*
X143419273Y-83086468D01*
X143419272Y-83086468D01*
X143419271Y-83086467D01*
X143368731Y-83052697D01*
X143218471Y-82952297D01*
X143047703Y-82781529D01*
X142913532Y-82580727D01*
X142821114Y-82357610D01*
X142774000Y-82120752D01*
X142774000Y-81879248D01*
X142821114Y-81642390D01*
X142913532Y-81419273D01*
X143047703Y-81218471D01*
X143218471Y-81047703D01*
X143368731Y-80947303D01*
X143419271Y-80913533D01*
X143419273Y-80913532D01*
X143642390Y-80821114D01*
X143879248Y-80774000D01*
X144120752Y-80774000D01*
X144357610Y-80821114D01*
G37*
G36*
X132293433Y-79259893D02*
G01*
X132383657Y-79277839D01*
X132489267Y-79321585D01*
X132638621Y-79383449D01*
X132638622Y-79383450D01*
X132868086Y-79536772D01*
X133063228Y-79731914D01*
X133162257Y-79880122D01*
X133216551Y-79961379D01*
X133249066Y-80039877D01*
X133313967Y-80196560D01*
X133322161Y-80216344D01*
X133376000Y-80487012D01*
X133376000Y-80762988D01*
X133322161Y-81033656D01*
X133216551Y-81288621D01*
X133216550Y-81288622D01*
X133063228Y-81518086D01*
X132868086Y-81713228D01*
X132857702Y-81720166D01*
X132638621Y-81866551D01*
X132489267Y-81928415D01*
X132383657Y-81972161D01*
X132329074Y-81983018D01*
X132112988Y-82026000D01*
X131837012Y-82026000D01*
X131620926Y-81983018D01*
X131566343Y-81972161D01*
X131460733Y-81928415D01*
X131311379Y-81866551D01*
X131092298Y-81720166D01*
X131081914Y-81713228D01*
X130886772Y-81518086D01*
X130733450Y-81288622D01*
X130733449Y-81288621D01*
X130627839Y-81033656D01*
X130574000Y-80762988D01*
X130574000Y-80487012D01*
X130627839Y-80216344D01*
X130636034Y-80196560D01*
X130700934Y-80039877D01*
X130733449Y-79961379D01*
X130787743Y-79880122D01*
X130886772Y-79731914D01*
X131081914Y-79536772D01*
X131311378Y-79383450D01*
X131311379Y-79383449D01*
X131460733Y-79321585D01*
X131566343Y-79277839D01*
X131656567Y-79259893D01*
X131837012Y-79224000D01*
X132112988Y-79224000D01*
X132293433Y-79259893D01*
G37*
G36*
X203843433Y-79259893D02*
G01*
X203933657Y-79277839D01*
X204039267Y-79321585D01*
X204188621Y-79383449D01*
X204188622Y-79383450D01*
X204418086Y-79536772D01*
X204613228Y-79731914D01*
X204712257Y-79880122D01*
X204766551Y-79961379D01*
X204799066Y-80039877D01*
X204863967Y-80196560D01*
X204872161Y-80216344D01*
X204926000Y-80487012D01*
X204926000Y-80762988D01*
X204872161Y-81033656D01*
X204766551Y-81288621D01*
X204766550Y-81288622D01*
X204613228Y-81518086D01*
X204418086Y-81713228D01*
X204407702Y-81720166D01*
X204188621Y-81866551D01*
X204039267Y-81928415D01*
X203933657Y-81972161D01*
X203879074Y-81983018D01*
X203662988Y-82026000D01*
X203387012Y-82026000D01*
X203170926Y-81983018D01*
X203116343Y-81972161D01*
X203010733Y-81928415D01*
X202861379Y-81866551D01*
X202642298Y-81720166D01*
X202631914Y-81713228D01*
X202436772Y-81518086D01*
X202283450Y-81288622D01*
X202283449Y-81288621D01*
X202177839Y-81033656D01*
X202124000Y-80762988D01*
X202124000Y-80487012D01*
X202177839Y-80216344D01*
X202186034Y-80196560D01*
X202250934Y-80039877D01*
X202283449Y-79961379D01*
X202337743Y-79880122D01*
X202436772Y-79731914D01*
X202631914Y-79536772D01*
X202861378Y-79383450D01*
X202861379Y-79383449D01*
X203010733Y-79321585D01*
X203116343Y-79277839D01*
X203206567Y-79259893D01*
X203387012Y-79224000D01*
X203662988Y-79224000D01*
X203843433Y-79259893D01*
G37*
G36*
X173051000Y-80801000D02*
G01*
X169449000Y-80801000D01*
X169449000Y-77199000D01*
X173051000Y-77199000D01*
X173051000Y-80801000D01*
G37*
G36*
X189006560Y-79180166D02*
G01*
X189154153Y-79241301D01*
X189286982Y-79330055D01*
X189399945Y-79443018D01*
X189488699Y-79575847D01*
X189549834Y-79723440D01*
X189581000Y-79880123D01*
X189581000Y-80039877D01*
X189549834Y-80196560D01*
X189488699Y-80344153D01*
X189399945Y-80476982D01*
X189286982Y-80589945D01*
X189154153Y-80678699D01*
X189154152Y-80678700D01*
X189154151Y-80678700D01*
X189006560Y-80739834D01*
X188849878Y-80771000D01*
X188690122Y-80771000D01*
X188533440Y-80739834D01*
X188385849Y-80678700D01*
X188385848Y-80678700D01*
X188385847Y-80678699D01*
X188253018Y-80589945D01*
X188140055Y-80476982D01*
X188051301Y-80344153D01*
X187990166Y-80196560D01*
X187959000Y-80039877D01*
X187959000Y-79880123D01*
X187990166Y-79723440D01*
X188051301Y-79575847D01*
X188140055Y-79443018D01*
X188253018Y-79330055D01*
X188385847Y-79241301D01*
X188533440Y-79180166D01*
X188690122Y-79149000D01*
X188849878Y-79149000D01*
X189006560Y-79180166D01*
G37*
G36*
X193086560Y-79180166D02*
G01*
X193234153Y-79241301D01*
X193366982Y-79330055D01*
X193479945Y-79443018D01*
X193568699Y-79575847D01*
X193629834Y-79723440D01*
X193661000Y-79880123D01*
X193661000Y-80039877D01*
X193629834Y-80196560D01*
X193568699Y-80344153D01*
X193479945Y-80476982D01*
X193366982Y-80589945D01*
X193234153Y-80678699D01*
X193234152Y-80678700D01*
X193234151Y-80678700D01*
X193086560Y-80739834D01*
X192929878Y-80771000D01*
X192770122Y-80771000D01*
X192613440Y-80739834D01*
X192465849Y-80678700D01*
X192465848Y-80678700D01*
X192465847Y-80678699D01*
X192333018Y-80589945D01*
X192220055Y-80476982D01*
X192131301Y-80344153D01*
X192070166Y-80196560D01*
X192039000Y-80039877D01*
X192039000Y-79880123D01*
X192070166Y-79723440D01*
X192131301Y-79575847D01*
X192220055Y-79443018D01*
X192333018Y-79330055D01*
X192465847Y-79241301D01*
X192613440Y-79180166D01*
X192770122Y-79149000D01*
X192929878Y-79149000D01*
X193086560Y-79180166D01*
G37*
G36*
X191046560Y-79180166D02*
G01*
X191194153Y-79241301D01*
X191326982Y-79330055D01*
X191439945Y-79443018D01*
X191528699Y-79575847D01*
X191589834Y-79723440D01*
X191621000Y-79880123D01*
X191621000Y-80039877D01*
X191589834Y-80196560D01*
X191528699Y-80344153D01*
X191439945Y-80476982D01*
X191326982Y-80589945D01*
X191194153Y-80678699D01*
X191194152Y-80678700D01*
X191194151Y-80678700D01*
X191046560Y-80739834D01*
X190889878Y-80771000D01*
X190730122Y-80771000D01*
X190573440Y-80739834D01*
X190425849Y-80678700D01*
X190425848Y-80678700D01*
X190425847Y-80678699D01*
X190293018Y-80589945D01*
X190180055Y-80476982D01*
X190091301Y-80344153D01*
X190030166Y-80196560D01*
X189999000Y-80039877D01*
X189999000Y-79880123D01*
X190030166Y-79723440D01*
X190091301Y-79575847D01*
X190180055Y-79443018D01*
X190293018Y-79330055D01*
X190425847Y-79241301D01*
X190573440Y-79180166D01*
X190730122Y-79149000D01*
X190889878Y-79149000D01*
X191046560Y-79180166D01*
G37*
G36*
X196650318Y-76505153D02*
G01*
X196868885Y-76595687D01*
X196868887Y-76595688D01*
X197065593Y-76727122D01*
X197232878Y-76894407D01*
X197364312Y-77091113D01*
X197364313Y-77091115D01*
X197454847Y-77309682D01*
X197501000Y-77541710D01*
X197501000Y-77778290D01*
X197454847Y-78010318D01*
X197364313Y-78228885D01*
X197364312Y-78228887D01*
X197232878Y-78425593D01*
X197065593Y-78592878D01*
X196868887Y-78724312D01*
X196868886Y-78724313D01*
X196868885Y-78724313D01*
X196650318Y-78814847D01*
X196418290Y-78861000D01*
X196181710Y-78861000D01*
X195949682Y-78814847D01*
X195731115Y-78724313D01*
X195731114Y-78724313D01*
X195731113Y-78724312D01*
X195534407Y-78592878D01*
X195367122Y-78425593D01*
X195235688Y-78228887D01*
X195235687Y-78228885D01*
X195145153Y-78010318D01*
X195099000Y-77778290D01*
X195099000Y-77541710D01*
X195145153Y-77309682D01*
X195235687Y-77091115D01*
X195235688Y-77091113D01*
X195367122Y-76894407D01*
X195534407Y-76727122D01*
X195731113Y-76595688D01*
X195731115Y-76595687D01*
X195949682Y-76505153D01*
X196181710Y-76459000D01*
X196418290Y-76459000D01*
X196650318Y-76505153D01*
G37*
G36*
X184650318Y-76505153D02*
G01*
X184868885Y-76595687D01*
X184868887Y-76595688D01*
X185065593Y-76727122D01*
X185232878Y-76894407D01*
X185364312Y-77091113D01*
X185364313Y-77091115D01*
X185454847Y-77309682D01*
X185501000Y-77541710D01*
X185501000Y-77778290D01*
X185454847Y-78010318D01*
X185364313Y-78228885D01*
X185364312Y-78228887D01*
X185232878Y-78425593D01*
X185065593Y-78592878D01*
X184868887Y-78724312D01*
X184868886Y-78724313D01*
X184868885Y-78724313D01*
X184650318Y-78814847D01*
X184418290Y-78861000D01*
X184181710Y-78861000D01*
X183949682Y-78814847D01*
X183731115Y-78724313D01*
X183731114Y-78724313D01*
X183731113Y-78724312D01*
X183534407Y-78592878D01*
X183367122Y-78425593D01*
X183235688Y-78228887D01*
X183235687Y-78228885D01*
X183145153Y-78010318D01*
X183099000Y-77778290D01*
X183099000Y-77541710D01*
X183145153Y-77309682D01*
X183235687Y-77091115D01*
X183235688Y-77091113D01*
X183367122Y-76894407D01*
X183534407Y-76727122D01*
X183731113Y-76595688D01*
X183731115Y-76595687D01*
X183949682Y-76505153D01*
X184181710Y-76459000D01*
X184418290Y-76459000D01*
X184650318Y-76505153D01*
G37*
M02*
