M48
INCH,TZ
T1C0.0315
T2C0.0354
T3C0.0394
T4C0.0531
%
G90
G05
T1
X77315Y-42126
X80315Y-42126
X51724Y-42126
X54724Y-42126
X70228Y-42126
X73228Y-42126
X58811Y-42126
X61811Y-42126
T2
X73917Y-32480
X74319Y-31480
X74720Y-32480
X75122Y-31480
X75524Y-32480
X75925Y-31480
T3
X52248Y-37992
X53248Y-37992
X54248Y-37992
X70752Y-37992
X71752Y-37992
X72752Y-37992
X59335Y-37992
X60335Y-37992
X61335Y-37992
X77839Y-37992
X78839Y-37992
X79839Y-37992
T4
X54724Y-32283
X56693Y-32283
X60630Y-32283
X62598Y-32283
T3
G00X68865Y-45276
M15
G01X69652Y-45276
M16
G05
G00X68865Y-47638
M15
G01X69652Y-47638
M16
G05
G00X71109Y-46850
M15
G01X71109Y-46063
M16
G05
G00X65571Y-31890
M15
G01X65571Y-32677
M16
G05
G00X67815Y-31102
M15
G01X67028Y-31102
M16
G05
G00X67815Y-33465
M15
G01X67028Y-33465
M16
G05
G00X56004Y-45276
M15
G01X56791Y-45276
M16
G05
G00X56004Y-47638
M15
G01X56791Y-47638
M16
G05
G00X58248Y-46850
M15
G01X58248Y-46063
M16
G05
G00X75295Y-45276
M15
G01X76083Y-45276
M16
G05
G00X75295Y-47638
M15
G01X76083Y-47638
M16
G05
G00X77539Y-46850
M15
G01X77539Y-46063
M16
G05
G00X62434Y-45276
M15
G01X63222Y-45276
M16
G05
G00X62434Y-47638
M15
G01X63222Y-47638
M16
G05
G00X64678Y-46850
M15
G01X64678Y-46063
M16
G05
T0
M30
