G04 #@! TF.GenerationSoftware,KiCad,Pcbnew,(5.1.5)-3*
G04 #@! TF.CreationDate,2020-06-12T22:16:17+02:00*
G04 #@! TF.ProjectId,pwm,70776d2e-6b69-4636-9164-5f7063625858,rev?*
G04 #@! TF.SameCoordinates,Original*
G04 #@! TF.FileFunction,Copper,L1,Top*
G04 #@! TF.FilePolarity,Positive*
%FSLAX46Y46*%
G04 Gerber Fmt 4.6, Leading zero omitted, Abs format (unit mm)*
G04 Created by KiCad (PCBNEW (5.1.5)-3) date 2020-06-12 22:16:17*
%MOMM*%
%LPD*%
G04 APERTURE LIST*
%ADD10R,1.800000X1.800000*%
%ADD11O,1.800000X1.800000*%
%ADD12C,1.520000*%
%ADD13R,1.520000X1.520000*%
%ADD14C,2.350000*%
%ADD15R,3.500000X3.500000*%
%ADD16C,1.600000*%
%ADD17O,1.600000X1.600000*%
%ADD18C,2.000000*%
%ADD19C,0.250000*%
%ADD20C,0.254000*%
G04 APERTURE END LIST*
D10*
X150710000Y-96500000D03*
D11*
X153250000Y-96500000D03*
X155790000Y-96500000D03*
D10*
X179710000Y-96500000D03*
D11*
X182250000Y-96500000D03*
X184790000Y-96500000D03*
D10*
X197710000Y-96500000D03*
D11*
X200250000Y-96500000D03*
X202790000Y-96500000D03*
D10*
X132710000Y-96500000D03*
D11*
X135250000Y-96500000D03*
X137790000Y-96500000D03*
D12*
X192850000Y-79960000D03*
X191830000Y-82500000D03*
X190810000Y-79960000D03*
X189790000Y-82500000D03*
X188770000Y-79960000D03*
D13*
X187750000Y-82500000D03*
D14*
X154000000Y-82000000D03*
X159000000Y-82000000D03*
X144000000Y-82000000D03*
X139000000Y-82000000D03*
D15*
X175916666Y-115000000D03*
X175916666Y-121000000D03*
X180616666Y-118000000D03*
X143250000Y-115000000D03*
X143250000Y-121000000D03*
X147950000Y-118000000D03*
D16*
X139000000Y-107000000D03*
D17*
X131380000Y-107000000D03*
D16*
X157000000Y-107000000D03*
D17*
X149380000Y-107000000D03*
D16*
X186000000Y-107000000D03*
D17*
X178380000Y-107000000D03*
D16*
X204000000Y-107000000D03*
D17*
X196380000Y-107000000D03*
D15*
X171250000Y-85000000D03*
X171250000Y-79000000D03*
X166550000Y-82000000D03*
X159583333Y-115000000D03*
X159583333Y-121000000D03*
X164283333Y-118000000D03*
X192250000Y-115000000D03*
X192250000Y-121000000D03*
X196950000Y-118000000D03*
D18*
X143600001Y-114649999D02*
X143250000Y-115000000D01*
X155483332Y-114649999D02*
X143600001Y-114649999D01*
X155833333Y-115000000D02*
X155483332Y-114649999D01*
X159583333Y-115000000D02*
X155833333Y-115000000D01*
X171816665Y-114649999D02*
X159933334Y-114649999D01*
X172166666Y-115000000D02*
X171816665Y-114649999D01*
X159933334Y-114649999D02*
X159583333Y-115000000D01*
X175916666Y-115000000D02*
X172166666Y-115000000D01*
X176266667Y-114649999D02*
X175916666Y-115000000D01*
X188500000Y-115000000D02*
X188149999Y-114649999D01*
X188149999Y-114649999D02*
X176266667Y-114649999D01*
X192250000Y-115000000D02*
X188500000Y-115000000D01*
X139000000Y-82000000D02*
X144000000Y-82000000D01*
X144000000Y-114250000D02*
X143250000Y-115000000D01*
X144000000Y-82000000D02*
X144000000Y-114250000D01*
D19*
X190810000Y-78885198D02*
X190810000Y-79960000D01*
X190399801Y-78474999D02*
X190810000Y-78885198D01*
X188057199Y-78474999D02*
X190399801Y-78474999D01*
X179710000Y-86822198D02*
X188057199Y-78474999D01*
X179710000Y-96500000D02*
X179710000Y-86822198D01*
X197710000Y-90420000D02*
X197710000Y-96500000D01*
X189790000Y-82500000D02*
X197710000Y-90420000D01*
X150710000Y-95350000D02*
X150710000Y-96500000D01*
X151185001Y-94874999D02*
X150710000Y-95350000D01*
X176565001Y-84490001D02*
X166180003Y-94874999D01*
X190680801Y-76184999D02*
X176565001Y-76184999D01*
X193935001Y-79439199D02*
X190680801Y-76184999D01*
X176565001Y-76184999D02*
X176565001Y-84490001D01*
X193935001Y-81469801D02*
X193935001Y-79439199D01*
X192904802Y-82500000D02*
X193935001Y-81469801D01*
X166180003Y-94874999D02*
X151185001Y-94874999D01*
X191830000Y-82500000D02*
X192904802Y-82500000D01*
D18*
X160174999Y-83174999D02*
X159000000Y-82000000D01*
X162350001Y-85350001D02*
X160174999Y-83174999D01*
X170899999Y-85350001D02*
X162350001Y-85350001D01*
X171250000Y-85000000D02*
X170899999Y-85350001D01*
X159000000Y-82000000D02*
X154000000Y-82000000D01*
D20*
G36*
X207703893Y-74707670D02*
G01*
X208140498Y-74839489D01*
X208543185Y-75053600D01*
X208896612Y-75341848D01*
X209187327Y-75693261D01*
X209404242Y-76094439D01*
X209539106Y-76530113D01*
X209590000Y-77014344D01*
X209590001Y-122967711D01*
X209542330Y-123453894D01*
X209410512Y-123890497D01*
X209196399Y-124293186D01*
X208908150Y-124646613D01*
X208556739Y-124937327D01*
X208155564Y-125154240D01*
X207719886Y-125289106D01*
X207235664Y-125340000D01*
X128282279Y-125340000D01*
X127796106Y-125292330D01*
X127359503Y-125160512D01*
X126956814Y-124946399D01*
X126603387Y-124658150D01*
X126312673Y-124306739D01*
X126095760Y-123905564D01*
X125960894Y-123469886D01*
X125910000Y-122985664D01*
X125910000Y-119170433D01*
X129898000Y-119170433D01*
X129898000Y-119579567D01*
X129977818Y-119980839D01*
X130134386Y-120358829D01*
X130361689Y-120699011D01*
X130650989Y-120988311D01*
X130991171Y-121215614D01*
X131369161Y-121372182D01*
X131770433Y-121452000D01*
X132179567Y-121452000D01*
X132580839Y-121372182D01*
X132958829Y-121215614D01*
X133299011Y-120988311D01*
X133588311Y-120699011D01*
X133815614Y-120358829D01*
X133972182Y-119980839D01*
X134052000Y-119579567D01*
X134052000Y-119170433D01*
X133972182Y-118769161D01*
X133815614Y-118391171D01*
X133588311Y-118050989D01*
X133299011Y-117761689D01*
X132958829Y-117534386D01*
X132580839Y-117377818D01*
X132179567Y-117298000D01*
X131770433Y-117298000D01*
X131369161Y-117377818D01*
X130991171Y-117534386D01*
X130650989Y-117761689D01*
X130361689Y-118050989D01*
X130134386Y-118391171D01*
X129977818Y-118769161D01*
X129898000Y-119170433D01*
X125910000Y-119170433D01*
X125910000Y-106849604D01*
X129853000Y-106849604D01*
X129853000Y-107150396D01*
X129911681Y-107445410D01*
X130026790Y-107723306D01*
X130193901Y-107973406D01*
X130406594Y-108186099D01*
X130656694Y-108353210D01*
X130934590Y-108468319D01*
X131229604Y-108527000D01*
X131530396Y-108527000D01*
X131825410Y-108468319D01*
X132103306Y-108353210D01*
X132353406Y-108186099D01*
X132546803Y-107992702D01*
X138186903Y-107992702D01*
X138258486Y-108236671D01*
X138513996Y-108357571D01*
X138788184Y-108426300D01*
X139070512Y-108440217D01*
X139350130Y-108398787D01*
X139616292Y-108303603D01*
X139741514Y-108236671D01*
X139813097Y-107992702D01*
X139000000Y-107179605D01*
X138186903Y-107992702D01*
X132546803Y-107992702D01*
X132566099Y-107973406D01*
X132733210Y-107723306D01*
X132848319Y-107445410D01*
X132907000Y-107150396D01*
X132907000Y-107070512D01*
X137559783Y-107070512D01*
X137601213Y-107350130D01*
X137696397Y-107616292D01*
X137763329Y-107741514D01*
X138007298Y-107813097D01*
X138820395Y-107000000D01*
X139179605Y-107000000D01*
X139992702Y-107813097D01*
X140236671Y-107741514D01*
X140357571Y-107486004D01*
X140426300Y-107211816D01*
X140440217Y-106929488D01*
X140398787Y-106649870D01*
X140303603Y-106383708D01*
X140236671Y-106258486D01*
X139992702Y-106186903D01*
X139179605Y-107000000D01*
X138820395Y-107000000D01*
X138007298Y-106186903D01*
X137763329Y-106258486D01*
X137642429Y-106513996D01*
X137573700Y-106788184D01*
X137559783Y-107070512D01*
X132907000Y-107070512D01*
X132907000Y-106849604D01*
X132848319Y-106554590D01*
X132733210Y-106276694D01*
X132566099Y-106026594D01*
X132546803Y-106007298D01*
X138186903Y-106007298D01*
X139000000Y-106820395D01*
X139813097Y-106007298D01*
X139741514Y-105763329D01*
X139486004Y-105642429D01*
X139211816Y-105573700D01*
X138929488Y-105559783D01*
X138649870Y-105601213D01*
X138383708Y-105696397D01*
X138258486Y-105763329D01*
X138186903Y-106007298D01*
X132546803Y-106007298D01*
X132353406Y-105813901D01*
X132103306Y-105646790D01*
X131825410Y-105531681D01*
X131530396Y-105473000D01*
X131229604Y-105473000D01*
X130934590Y-105531681D01*
X130656694Y-105646790D01*
X130406594Y-105813901D01*
X130193901Y-106026594D01*
X130026790Y-106276694D01*
X129911681Y-106554590D01*
X129853000Y-106849604D01*
X125910000Y-106849604D01*
X125910000Y-95600000D01*
X131079483Y-95600000D01*
X131079483Y-97400000D01*
X131093520Y-97542517D01*
X131135090Y-97679557D01*
X131202597Y-97805853D01*
X131293446Y-97916554D01*
X131404147Y-98007403D01*
X131530443Y-98074910D01*
X131667483Y-98116480D01*
X131810000Y-98130517D01*
X133610000Y-98130517D01*
X133752517Y-98116480D01*
X133889557Y-98074910D01*
X134015853Y-98007403D01*
X134126554Y-97916554D01*
X134217403Y-97805853D01*
X134232778Y-97777089D01*
X134479327Y-97941828D01*
X134775422Y-98064475D01*
X135089755Y-98127000D01*
X135410245Y-98127000D01*
X135724578Y-98064475D01*
X136020673Y-97941828D01*
X136287152Y-97763773D01*
X136513773Y-97537152D01*
X136581892Y-97435205D01*
X136658351Y-97537116D01*
X136882427Y-97737962D01*
X137141380Y-97891234D01*
X137425259Y-97991041D01*
X137663000Y-97870992D01*
X137663000Y-96627000D01*
X137917000Y-96627000D01*
X137917000Y-97870992D01*
X138154741Y-97991041D01*
X138438620Y-97891234D01*
X138697573Y-97737962D01*
X138921649Y-97537116D01*
X139102236Y-97296414D01*
X139232394Y-97025107D01*
X139281036Y-96864740D01*
X139160378Y-96627000D01*
X137917000Y-96627000D01*
X137663000Y-96627000D01*
X137643000Y-96627000D01*
X137643000Y-96373000D01*
X137663000Y-96373000D01*
X137663000Y-95129008D01*
X137917000Y-95129008D01*
X137917000Y-96373000D01*
X139160378Y-96373000D01*
X139281036Y-96135260D01*
X139232394Y-95974893D01*
X139102236Y-95703586D01*
X138921649Y-95462884D01*
X138697573Y-95262038D01*
X138438620Y-95108766D01*
X138154741Y-95008959D01*
X137917000Y-95129008D01*
X137663000Y-95129008D01*
X137425259Y-95008959D01*
X137141380Y-95108766D01*
X136882427Y-95262038D01*
X136658351Y-95462884D01*
X136581892Y-95564795D01*
X136513773Y-95462848D01*
X136287152Y-95236227D01*
X136020673Y-95058172D01*
X135724578Y-94935525D01*
X135410245Y-94873000D01*
X135089755Y-94873000D01*
X134775422Y-94935525D01*
X134479327Y-95058172D01*
X134232778Y-95222911D01*
X134217403Y-95194147D01*
X134126554Y-95083446D01*
X134015853Y-94992597D01*
X133889557Y-94925090D01*
X133752517Y-94883520D01*
X133610000Y-94869483D01*
X131810000Y-94869483D01*
X131667483Y-94883520D01*
X131530443Y-94925090D01*
X131404147Y-94992597D01*
X131293446Y-95083446D01*
X131202597Y-95194147D01*
X131135090Y-95320443D01*
X131093520Y-95457483D01*
X131079483Y-95600000D01*
X125910000Y-95600000D01*
X125910000Y-80420433D01*
X129898000Y-80420433D01*
X129898000Y-80829567D01*
X129977818Y-81230839D01*
X130134386Y-81608829D01*
X130361689Y-81949011D01*
X130650989Y-82238311D01*
X130991171Y-82465614D01*
X131369161Y-82622182D01*
X131770433Y-82702000D01*
X132179567Y-82702000D01*
X132580839Y-82622182D01*
X132958829Y-82465614D01*
X133299011Y-82238311D01*
X133588311Y-81949011D01*
X133679412Y-81812669D01*
X137098000Y-81812669D01*
X137098000Y-82187331D01*
X137171093Y-82554793D01*
X137314469Y-82900935D01*
X137522620Y-83212454D01*
X137787546Y-83477380D01*
X138099065Y-83685531D01*
X138445207Y-83828907D01*
X138812669Y-83902000D01*
X139187331Y-83902000D01*
X139554793Y-83828907D01*
X139800819Y-83727000D01*
X142273000Y-83727000D01*
X142273001Y-112519483D01*
X141500000Y-112519483D01*
X141357483Y-112533520D01*
X141220443Y-112575090D01*
X141094147Y-112642597D01*
X140983446Y-112733446D01*
X140892597Y-112844147D01*
X140825090Y-112970443D01*
X140783520Y-113107483D01*
X140769483Y-113250000D01*
X140769483Y-116750000D01*
X140783520Y-116892517D01*
X140825090Y-117029557D01*
X140892597Y-117155853D01*
X140983446Y-117266554D01*
X141094147Y-117357403D01*
X141220443Y-117424910D01*
X141357483Y-117466480D01*
X141500000Y-117480517D01*
X145000000Y-117480517D01*
X145142517Y-117466480D01*
X145279557Y-117424910D01*
X145405853Y-117357403D01*
X145469483Y-117305184D01*
X145469483Y-118694816D01*
X145405853Y-118642597D01*
X145279557Y-118575090D01*
X145142517Y-118533520D01*
X145000000Y-118519483D01*
X141500000Y-118519483D01*
X141357483Y-118533520D01*
X141220443Y-118575090D01*
X141094147Y-118642597D01*
X140983446Y-118733446D01*
X140892597Y-118844147D01*
X140825090Y-118970443D01*
X140783520Y-119107483D01*
X140769483Y-119250000D01*
X140769483Y-122750000D01*
X140783520Y-122892517D01*
X140825090Y-123029557D01*
X140892597Y-123155853D01*
X140983446Y-123266554D01*
X141094147Y-123357403D01*
X141220443Y-123424910D01*
X141357483Y-123466480D01*
X141500000Y-123480517D01*
X145000000Y-123480517D01*
X145142517Y-123466480D01*
X145279557Y-123424910D01*
X145405853Y-123357403D01*
X145516554Y-123266554D01*
X145607403Y-123155853D01*
X145674910Y-123029557D01*
X145716480Y-122892517D01*
X145730517Y-122750000D01*
X145730517Y-120305184D01*
X145794147Y-120357403D01*
X145920443Y-120424910D01*
X146057483Y-120466480D01*
X146200000Y-120480517D01*
X149700000Y-120480517D01*
X149842517Y-120466480D01*
X149979557Y-120424910D01*
X150105853Y-120357403D01*
X150216554Y-120266554D01*
X150307403Y-120155853D01*
X150374910Y-120029557D01*
X150416480Y-119892517D01*
X150430517Y-119750000D01*
X150430517Y-116376999D01*
X154788925Y-116376999D01*
X154869221Y-116442896D01*
X155169241Y-116603260D01*
X155494782Y-116702012D01*
X155748492Y-116727000D01*
X155748501Y-116727000D01*
X155833332Y-116735355D01*
X155918163Y-116727000D01*
X157102816Y-116727000D01*
X157102816Y-116750000D01*
X157116853Y-116892517D01*
X157158423Y-117029557D01*
X157225930Y-117155853D01*
X157316779Y-117266554D01*
X157427480Y-117357403D01*
X157553776Y-117424910D01*
X157690816Y-117466480D01*
X157833333Y-117480517D01*
X161333333Y-117480517D01*
X161475850Y-117466480D01*
X161612890Y-117424910D01*
X161739186Y-117357403D01*
X161802816Y-117305184D01*
X161802816Y-118694816D01*
X161739186Y-118642597D01*
X161612890Y-118575090D01*
X161475850Y-118533520D01*
X161333333Y-118519483D01*
X157833333Y-118519483D01*
X157690816Y-118533520D01*
X157553776Y-118575090D01*
X157427480Y-118642597D01*
X157316779Y-118733446D01*
X157225930Y-118844147D01*
X157158423Y-118970443D01*
X157116853Y-119107483D01*
X157102816Y-119250000D01*
X157102816Y-122750000D01*
X157116853Y-122892517D01*
X157158423Y-123029557D01*
X157225930Y-123155853D01*
X157316779Y-123266554D01*
X157427480Y-123357403D01*
X157553776Y-123424910D01*
X157690816Y-123466480D01*
X157833333Y-123480517D01*
X161333333Y-123480517D01*
X161475850Y-123466480D01*
X161612890Y-123424910D01*
X161739186Y-123357403D01*
X161849887Y-123266554D01*
X161940736Y-123155853D01*
X162008243Y-123029557D01*
X162049813Y-122892517D01*
X162063850Y-122750000D01*
X162063850Y-120305184D01*
X162127480Y-120357403D01*
X162253776Y-120424910D01*
X162390816Y-120466480D01*
X162533333Y-120480517D01*
X166033333Y-120480517D01*
X166175850Y-120466480D01*
X166312890Y-120424910D01*
X166439186Y-120357403D01*
X166549887Y-120266554D01*
X166640736Y-120155853D01*
X166708243Y-120029557D01*
X166749813Y-119892517D01*
X166763850Y-119750000D01*
X166763850Y-116376999D01*
X171122258Y-116376999D01*
X171202554Y-116442896D01*
X171502574Y-116603260D01*
X171828115Y-116702012D01*
X172081825Y-116727000D01*
X172081834Y-116727000D01*
X172166665Y-116735355D01*
X172251496Y-116727000D01*
X173436149Y-116727000D01*
X173436149Y-116750000D01*
X173450186Y-116892517D01*
X173491756Y-117029557D01*
X173559263Y-117155853D01*
X173650112Y-117266554D01*
X173760813Y-117357403D01*
X173887109Y-117424910D01*
X174024149Y-117466480D01*
X174166666Y-117480517D01*
X177666666Y-117480517D01*
X177809183Y-117466480D01*
X177946223Y-117424910D01*
X178072519Y-117357403D01*
X178136149Y-117305184D01*
X178136149Y-118694816D01*
X178072519Y-118642597D01*
X177946223Y-118575090D01*
X177809183Y-118533520D01*
X177666666Y-118519483D01*
X174166666Y-118519483D01*
X174024149Y-118533520D01*
X173887109Y-118575090D01*
X173760813Y-118642597D01*
X173650112Y-118733446D01*
X173559263Y-118844147D01*
X173491756Y-118970443D01*
X173450186Y-119107483D01*
X173436149Y-119250000D01*
X173436149Y-122750000D01*
X173450186Y-122892517D01*
X173491756Y-123029557D01*
X173559263Y-123155853D01*
X173650112Y-123266554D01*
X173760813Y-123357403D01*
X173887109Y-123424910D01*
X174024149Y-123466480D01*
X174166666Y-123480517D01*
X177666666Y-123480517D01*
X177809183Y-123466480D01*
X177946223Y-123424910D01*
X178072519Y-123357403D01*
X178183220Y-123266554D01*
X178274069Y-123155853D01*
X178341576Y-123029557D01*
X178383146Y-122892517D01*
X178397183Y-122750000D01*
X178397183Y-120305184D01*
X178460813Y-120357403D01*
X178587109Y-120424910D01*
X178724149Y-120466480D01*
X178866666Y-120480517D01*
X182366666Y-120480517D01*
X182509183Y-120466480D01*
X182646223Y-120424910D01*
X182772519Y-120357403D01*
X182883220Y-120266554D01*
X182974069Y-120155853D01*
X183041576Y-120029557D01*
X183083146Y-119892517D01*
X183097183Y-119750000D01*
X183097183Y-116376999D01*
X187455592Y-116376999D01*
X187535888Y-116442896D01*
X187835908Y-116603260D01*
X188161449Y-116702012D01*
X188415159Y-116727000D01*
X188415168Y-116727000D01*
X188499999Y-116735355D01*
X188584830Y-116727000D01*
X189769483Y-116727000D01*
X189769483Y-116750000D01*
X189783520Y-116892517D01*
X189825090Y-117029557D01*
X189892597Y-117155853D01*
X189983446Y-117266554D01*
X190094147Y-117357403D01*
X190220443Y-117424910D01*
X190357483Y-117466480D01*
X190500000Y-117480517D01*
X194000000Y-117480517D01*
X194142517Y-117466480D01*
X194279557Y-117424910D01*
X194405853Y-117357403D01*
X194469483Y-117305184D01*
X194469483Y-118694816D01*
X194405853Y-118642597D01*
X194279557Y-118575090D01*
X194142517Y-118533520D01*
X194000000Y-118519483D01*
X190500000Y-118519483D01*
X190357483Y-118533520D01*
X190220443Y-118575090D01*
X190094147Y-118642597D01*
X189983446Y-118733446D01*
X189892597Y-118844147D01*
X189825090Y-118970443D01*
X189783520Y-119107483D01*
X189769483Y-119250000D01*
X189769483Y-122750000D01*
X189783520Y-122892517D01*
X189825090Y-123029557D01*
X189892597Y-123155853D01*
X189983446Y-123266554D01*
X190094147Y-123357403D01*
X190220443Y-123424910D01*
X190357483Y-123466480D01*
X190500000Y-123480517D01*
X194000000Y-123480517D01*
X194142517Y-123466480D01*
X194279557Y-123424910D01*
X194405853Y-123357403D01*
X194516554Y-123266554D01*
X194607403Y-123155853D01*
X194674910Y-123029557D01*
X194716480Y-122892517D01*
X194730517Y-122750000D01*
X194730517Y-120305184D01*
X194794147Y-120357403D01*
X194920443Y-120424910D01*
X195057483Y-120466480D01*
X195200000Y-120480517D01*
X198700000Y-120480517D01*
X198842517Y-120466480D01*
X198979557Y-120424910D01*
X199105853Y-120357403D01*
X199216554Y-120266554D01*
X199307403Y-120155853D01*
X199374910Y-120029557D01*
X199416480Y-119892517D01*
X199430517Y-119750000D01*
X199430517Y-119170433D01*
X201448000Y-119170433D01*
X201448000Y-119579567D01*
X201527818Y-119980839D01*
X201684386Y-120358829D01*
X201911689Y-120699011D01*
X202200989Y-120988311D01*
X202541171Y-121215614D01*
X202919161Y-121372182D01*
X203320433Y-121452000D01*
X203729567Y-121452000D01*
X204130839Y-121372182D01*
X204508829Y-121215614D01*
X204849011Y-120988311D01*
X205138311Y-120699011D01*
X205365614Y-120358829D01*
X205522182Y-119980839D01*
X205602000Y-119579567D01*
X205602000Y-119170433D01*
X205522182Y-118769161D01*
X205365614Y-118391171D01*
X205138311Y-118050989D01*
X204849011Y-117761689D01*
X204508829Y-117534386D01*
X204130839Y-117377818D01*
X203729567Y-117298000D01*
X203320433Y-117298000D01*
X202919161Y-117377818D01*
X202541171Y-117534386D01*
X202200989Y-117761689D01*
X201911689Y-118050989D01*
X201684386Y-118391171D01*
X201527818Y-118769161D01*
X201448000Y-119170433D01*
X199430517Y-119170433D01*
X199430517Y-116250000D01*
X199416480Y-116107483D01*
X199374910Y-115970443D01*
X199307403Y-115844147D01*
X199216554Y-115733446D01*
X199105853Y-115642597D01*
X198979557Y-115575090D01*
X198842517Y-115533520D01*
X198700000Y-115519483D01*
X195200000Y-115519483D01*
X195057483Y-115533520D01*
X194920443Y-115575090D01*
X194794147Y-115642597D01*
X194730517Y-115694816D01*
X194730517Y-113250000D01*
X194716480Y-113107483D01*
X194674910Y-112970443D01*
X194607403Y-112844147D01*
X194516554Y-112733446D01*
X194405853Y-112642597D01*
X194279557Y-112575090D01*
X194142517Y-112533520D01*
X194000000Y-112519483D01*
X190500000Y-112519483D01*
X190357483Y-112533520D01*
X190220443Y-112575090D01*
X190094147Y-112642597D01*
X189983446Y-112733446D01*
X189892597Y-112844147D01*
X189825090Y-112970443D01*
X189783520Y-113107483D01*
X189769483Y-113250000D01*
X189769483Y-113273000D01*
X189194407Y-113273000D01*
X189114111Y-113207103D01*
X188814091Y-113046739D01*
X188488550Y-112947987D01*
X188234840Y-112922999D01*
X188234837Y-112922999D01*
X188149999Y-112914643D01*
X188065161Y-112922999D01*
X178316217Y-112922999D01*
X178274069Y-112844147D01*
X178183220Y-112733446D01*
X178072519Y-112642597D01*
X177946223Y-112575090D01*
X177809183Y-112533520D01*
X177666666Y-112519483D01*
X174166666Y-112519483D01*
X174024149Y-112533520D01*
X173887109Y-112575090D01*
X173760813Y-112642597D01*
X173650112Y-112733446D01*
X173559263Y-112844147D01*
X173491756Y-112970443D01*
X173450186Y-113107483D01*
X173436149Y-113250000D01*
X173436149Y-113273000D01*
X172861073Y-113273000D01*
X172780777Y-113207103D01*
X172480757Y-113046739D01*
X172155216Y-112947987D01*
X171901506Y-112922999D01*
X171901503Y-112922999D01*
X171816665Y-112914643D01*
X171731827Y-112922999D01*
X161982884Y-112922999D01*
X161940736Y-112844147D01*
X161849887Y-112733446D01*
X161739186Y-112642597D01*
X161612890Y-112575090D01*
X161475850Y-112533520D01*
X161333333Y-112519483D01*
X157833333Y-112519483D01*
X157690816Y-112533520D01*
X157553776Y-112575090D01*
X157427480Y-112642597D01*
X157316779Y-112733446D01*
X157225930Y-112844147D01*
X157158423Y-112970443D01*
X157116853Y-113107483D01*
X157102816Y-113250000D01*
X157102816Y-113273000D01*
X156527740Y-113273000D01*
X156447444Y-113207103D01*
X156147424Y-113046739D01*
X155821883Y-112947987D01*
X155568173Y-112922999D01*
X155568170Y-112922999D01*
X155483332Y-112914643D01*
X155398494Y-112922999D01*
X145727000Y-112922999D01*
X145727000Y-106849604D01*
X147853000Y-106849604D01*
X147853000Y-107150396D01*
X147911681Y-107445410D01*
X148026790Y-107723306D01*
X148193901Y-107973406D01*
X148406594Y-108186099D01*
X148656694Y-108353210D01*
X148934590Y-108468319D01*
X149229604Y-108527000D01*
X149530396Y-108527000D01*
X149825410Y-108468319D01*
X150103306Y-108353210D01*
X150353406Y-108186099D01*
X150546803Y-107992702D01*
X156186903Y-107992702D01*
X156258486Y-108236671D01*
X156513996Y-108357571D01*
X156788184Y-108426300D01*
X157070512Y-108440217D01*
X157350130Y-108398787D01*
X157616292Y-108303603D01*
X157741514Y-108236671D01*
X157813097Y-107992702D01*
X157000000Y-107179605D01*
X156186903Y-107992702D01*
X150546803Y-107992702D01*
X150566099Y-107973406D01*
X150733210Y-107723306D01*
X150848319Y-107445410D01*
X150907000Y-107150396D01*
X150907000Y-107070512D01*
X155559783Y-107070512D01*
X155601213Y-107350130D01*
X155696397Y-107616292D01*
X155763329Y-107741514D01*
X156007298Y-107813097D01*
X156820395Y-107000000D01*
X157179605Y-107000000D01*
X157992702Y-107813097D01*
X158236671Y-107741514D01*
X158357571Y-107486004D01*
X158426300Y-107211816D01*
X158440217Y-106929488D01*
X158428381Y-106849604D01*
X176853000Y-106849604D01*
X176853000Y-107150396D01*
X176911681Y-107445410D01*
X177026790Y-107723306D01*
X177193901Y-107973406D01*
X177406594Y-108186099D01*
X177656694Y-108353210D01*
X177934590Y-108468319D01*
X178229604Y-108527000D01*
X178530396Y-108527000D01*
X178825410Y-108468319D01*
X179103306Y-108353210D01*
X179353406Y-108186099D01*
X179546803Y-107992702D01*
X185186903Y-107992702D01*
X185258486Y-108236671D01*
X185513996Y-108357571D01*
X185788184Y-108426300D01*
X186070512Y-108440217D01*
X186350130Y-108398787D01*
X186616292Y-108303603D01*
X186741514Y-108236671D01*
X186813097Y-107992702D01*
X186000000Y-107179605D01*
X185186903Y-107992702D01*
X179546803Y-107992702D01*
X179566099Y-107973406D01*
X179733210Y-107723306D01*
X179848319Y-107445410D01*
X179907000Y-107150396D01*
X179907000Y-107070512D01*
X184559783Y-107070512D01*
X184601213Y-107350130D01*
X184696397Y-107616292D01*
X184763329Y-107741514D01*
X185007298Y-107813097D01*
X185820395Y-107000000D01*
X186179605Y-107000000D01*
X186992702Y-107813097D01*
X187236671Y-107741514D01*
X187357571Y-107486004D01*
X187426300Y-107211816D01*
X187440217Y-106929488D01*
X187428381Y-106849604D01*
X194853000Y-106849604D01*
X194853000Y-107150396D01*
X194911681Y-107445410D01*
X195026790Y-107723306D01*
X195193901Y-107973406D01*
X195406594Y-108186099D01*
X195656694Y-108353210D01*
X195934590Y-108468319D01*
X196229604Y-108527000D01*
X196530396Y-108527000D01*
X196825410Y-108468319D01*
X197103306Y-108353210D01*
X197353406Y-108186099D01*
X197546803Y-107992702D01*
X203186903Y-107992702D01*
X203258486Y-108236671D01*
X203513996Y-108357571D01*
X203788184Y-108426300D01*
X204070512Y-108440217D01*
X204350130Y-108398787D01*
X204616292Y-108303603D01*
X204741514Y-108236671D01*
X204813097Y-107992702D01*
X204000000Y-107179605D01*
X203186903Y-107992702D01*
X197546803Y-107992702D01*
X197566099Y-107973406D01*
X197733210Y-107723306D01*
X197848319Y-107445410D01*
X197907000Y-107150396D01*
X197907000Y-107070512D01*
X202559783Y-107070512D01*
X202601213Y-107350130D01*
X202696397Y-107616292D01*
X202763329Y-107741514D01*
X203007298Y-107813097D01*
X203820395Y-107000000D01*
X204179605Y-107000000D01*
X204992702Y-107813097D01*
X205236671Y-107741514D01*
X205357571Y-107486004D01*
X205426300Y-107211816D01*
X205440217Y-106929488D01*
X205398787Y-106649870D01*
X205303603Y-106383708D01*
X205236671Y-106258486D01*
X204992702Y-106186903D01*
X204179605Y-107000000D01*
X203820395Y-107000000D01*
X203007298Y-106186903D01*
X202763329Y-106258486D01*
X202642429Y-106513996D01*
X202573700Y-106788184D01*
X202559783Y-107070512D01*
X197907000Y-107070512D01*
X197907000Y-106849604D01*
X197848319Y-106554590D01*
X197733210Y-106276694D01*
X197566099Y-106026594D01*
X197546803Y-106007298D01*
X203186903Y-106007298D01*
X204000000Y-106820395D01*
X204813097Y-106007298D01*
X204741514Y-105763329D01*
X204486004Y-105642429D01*
X204211816Y-105573700D01*
X203929488Y-105559783D01*
X203649870Y-105601213D01*
X203383708Y-105696397D01*
X203258486Y-105763329D01*
X203186903Y-106007298D01*
X197546803Y-106007298D01*
X197353406Y-105813901D01*
X197103306Y-105646790D01*
X196825410Y-105531681D01*
X196530396Y-105473000D01*
X196229604Y-105473000D01*
X195934590Y-105531681D01*
X195656694Y-105646790D01*
X195406594Y-105813901D01*
X195193901Y-106026594D01*
X195026790Y-106276694D01*
X194911681Y-106554590D01*
X194853000Y-106849604D01*
X187428381Y-106849604D01*
X187398787Y-106649870D01*
X187303603Y-106383708D01*
X187236671Y-106258486D01*
X186992702Y-106186903D01*
X186179605Y-107000000D01*
X185820395Y-107000000D01*
X185007298Y-106186903D01*
X184763329Y-106258486D01*
X184642429Y-106513996D01*
X184573700Y-106788184D01*
X184559783Y-107070512D01*
X179907000Y-107070512D01*
X179907000Y-106849604D01*
X179848319Y-106554590D01*
X179733210Y-106276694D01*
X179566099Y-106026594D01*
X179546803Y-106007298D01*
X185186903Y-106007298D01*
X186000000Y-106820395D01*
X186813097Y-106007298D01*
X186741514Y-105763329D01*
X186486004Y-105642429D01*
X186211816Y-105573700D01*
X185929488Y-105559783D01*
X185649870Y-105601213D01*
X185383708Y-105696397D01*
X185258486Y-105763329D01*
X185186903Y-106007298D01*
X179546803Y-106007298D01*
X179353406Y-105813901D01*
X179103306Y-105646790D01*
X178825410Y-105531681D01*
X178530396Y-105473000D01*
X178229604Y-105473000D01*
X177934590Y-105531681D01*
X177656694Y-105646790D01*
X177406594Y-105813901D01*
X177193901Y-106026594D01*
X177026790Y-106276694D01*
X176911681Y-106554590D01*
X176853000Y-106849604D01*
X158428381Y-106849604D01*
X158398787Y-106649870D01*
X158303603Y-106383708D01*
X158236671Y-106258486D01*
X157992702Y-106186903D01*
X157179605Y-107000000D01*
X156820395Y-107000000D01*
X156007298Y-106186903D01*
X155763329Y-106258486D01*
X155642429Y-106513996D01*
X155573700Y-106788184D01*
X155559783Y-107070512D01*
X150907000Y-107070512D01*
X150907000Y-106849604D01*
X150848319Y-106554590D01*
X150733210Y-106276694D01*
X150566099Y-106026594D01*
X150546803Y-106007298D01*
X156186903Y-106007298D01*
X157000000Y-106820395D01*
X157813097Y-106007298D01*
X157741514Y-105763329D01*
X157486004Y-105642429D01*
X157211816Y-105573700D01*
X156929488Y-105559783D01*
X156649870Y-105601213D01*
X156383708Y-105696397D01*
X156258486Y-105763329D01*
X156186903Y-106007298D01*
X150546803Y-106007298D01*
X150353406Y-105813901D01*
X150103306Y-105646790D01*
X149825410Y-105531681D01*
X149530396Y-105473000D01*
X149229604Y-105473000D01*
X148934590Y-105531681D01*
X148656694Y-105646790D01*
X148406594Y-105813901D01*
X148193901Y-106026594D01*
X148026790Y-106276694D01*
X147911681Y-106554590D01*
X147853000Y-106849604D01*
X145727000Y-106849604D01*
X145727000Y-95600000D01*
X149079483Y-95600000D01*
X149079483Y-97400000D01*
X149093520Y-97542517D01*
X149135090Y-97679557D01*
X149202597Y-97805853D01*
X149293446Y-97916554D01*
X149404147Y-98007403D01*
X149530443Y-98074910D01*
X149667483Y-98116480D01*
X149810000Y-98130517D01*
X151610000Y-98130517D01*
X151752517Y-98116480D01*
X151889557Y-98074910D01*
X152015853Y-98007403D01*
X152126554Y-97916554D01*
X152217403Y-97805853D01*
X152232778Y-97777089D01*
X152479327Y-97941828D01*
X152775422Y-98064475D01*
X153089755Y-98127000D01*
X153410245Y-98127000D01*
X153724578Y-98064475D01*
X154020673Y-97941828D01*
X154287152Y-97763773D01*
X154513773Y-97537152D01*
X154581892Y-97435205D01*
X154658351Y-97537116D01*
X154882427Y-97737962D01*
X155141380Y-97891234D01*
X155425259Y-97991041D01*
X155663000Y-97870992D01*
X155663000Y-96627000D01*
X155917000Y-96627000D01*
X155917000Y-97870992D01*
X156154741Y-97991041D01*
X156438620Y-97891234D01*
X156697573Y-97737962D01*
X156921649Y-97537116D01*
X157102236Y-97296414D01*
X157232394Y-97025107D01*
X157281036Y-96864740D01*
X157160378Y-96627000D01*
X155917000Y-96627000D01*
X155663000Y-96627000D01*
X155643000Y-96627000D01*
X155643000Y-96373000D01*
X155663000Y-96373000D01*
X155663000Y-96353000D01*
X155917000Y-96353000D01*
X155917000Y-96373000D01*
X157160378Y-96373000D01*
X157281036Y-96135260D01*
X157232394Y-95974893D01*
X157113468Y-95726999D01*
X164837966Y-95726999D01*
X164745305Y-95780497D01*
X164001058Y-96425391D01*
X163392307Y-97199481D01*
X162941054Y-98074788D01*
X162663609Y-99019679D01*
X162570000Y-100000000D01*
X162663609Y-100980321D01*
X162941054Y-101925212D01*
X163392307Y-102800519D01*
X164001058Y-103574609D01*
X164745305Y-104219503D01*
X165598150Y-104711894D01*
X166528769Y-105033984D01*
X167503526Y-105174133D01*
X168487191Y-105127275D01*
X169444212Y-104895104D01*
X170340000Y-104486012D01*
X171142179Y-103914783D01*
X171821755Y-103202064D01*
X172354168Y-102373613D01*
X172720174Y-101459375D01*
X172906545Y-100492390D01*
X172906545Y-99507610D01*
X172720174Y-98540625D01*
X172354168Y-97626387D01*
X171821755Y-96797936D01*
X171142179Y-96085217D01*
X170340000Y-95513988D01*
X169444212Y-95104896D01*
X168487191Y-94872725D01*
X167503526Y-94825867D01*
X167422377Y-94837535D01*
X177137861Y-85122051D01*
X177170371Y-85095371D01*
X177239243Y-85011450D01*
X177276840Y-84965638D01*
X177355955Y-84817625D01*
X177367896Y-84778259D01*
X177404673Y-84657022D01*
X177417001Y-84531853D01*
X177417001Y-84531851D01*
X177421123Y-84490002D01*
X177417001Y-84448153D01*
X177417001Y-77036999D01*
X182526405Y-77036999D01*
X182495132Y-77112499D01*
X182423000Y-77475132D01*
X182423000Y-77844868D01*
X182495132Y-78207501D01*
X182636624Y-78549093D01*
X182842039Y-78856518D01*
X183103482Y-79117961D01*
X183410907Y-79323376D01*
X183752499Y-79464868D01*
X184115132Y-79537000D01*
X184484868Y-79537000D01*
X184847501Y-79464868D01*
X185189093Y-79323376D01*
X185496518Y-79117961D01*
X185757961Y-78856518D01*
X185963376Y-78549093D01*
X186104868Y-78207501D01*
X186177000Y-77844868D01*
X186177000Y-77475132D01*
X186104868Y-77112499D01*
X186073595Y-77036999D01*
X190327892Y-77036999D01*
X192018251Y-78727358D01*
X191902093Y-78804972D01*
X191830000Y-78877065D01*
X191757907Y-78804972D01*
X191651198Y-78733671D01*
X191649672Y-78718177D01*
X191600954Y-78557574D01*
X191521839Y-78409562D01*
X191415370Y-78279828D01*
X191382855Y-78253144D01*
X191031856Y-77902145D01*
X191005171Y-77869629D01*
X190875437Y-77763160D01*
X190727425Y-77684045D01*
X190566822Y-77635327D01*
X190441653Y-77622999D01*
X190441650Y-77622999D01*
X190399801Y-77618877D01*
X190357952Y-77622999D01*
X188099047Y-77622999D01*
X188057198Y-77618877D01*
X188015349Y-77622999D01*
X188015347Y-77622999D01*
X187890178Y-77635327D01*
X187729575Y-77684045D01*
X187581562Y-77763160D01*
X187515658Y-77817246D01*
X187451829Y-77869629D01*
X187425149Y-77902139D01*
X179137141Y-86190148D01*
X179104631Y-86216828D01*
X179077952Y-86249337D01*
X178998161Y-86346562D01*
X178919046Y-86494575D01*
X178870329Y-86655178D01*
X178853878Y-86822198D01*
X178858001Y-86864057D01*
X178858000Y-94869483D01*
X178810000Y-94869483D01*
X178667483Y-94883520D01*
X178530443Y-94925090D01*
X178404147Y-94992597D01*
X178293446Y-95083446D01*
X178202597Y-95194147D01*
X178135090Y-95320443D01*
X178093520Y-95457483D01*
X178079483Y-95600000D01*
X178079483Y-97400000D01*
X178093520Y-97542517D01*
X178135090Y-97679557D01*
X178202597Y-97805853D01*
X178293446Y-97916554D01*
X178404147Y-98007403D01*
X178530443Y-98074910D01*
X178667483Y-98116480D01*
X178810000Y-98130517D01*
X180610000Y-98130517D01*
X180752517Y-98116480D01*
X180889557Y-98074910D01*
X181015853Y-98007403D01*
X181126554Y-97916554D01*
X181217403Y-97805853D01*
X181232778Y-97777089D01*
X181479327Y-97941828D01*
X181775422Y-98064475D01*
X182089755Y-98127000D01*
X182410245Y-98127000D01*
X182724578Y-98064475D01*
X183020673Y-97941828D01*
X183287152Y-97763773D01*
X183513773Y-97537152D01*
X183581892Y-97435205D01*
X183658351Y-97537116D01*
X183882427Y-97737962D01*
X184141380Y-97891234D01*
X184425259Y-97991041D01*
X184663000Y-97870992D01*
X184663000Y-96627000D01*
X184917000Y-96627000D01*
X184917000Y-97870992D01*
X185154741Y-97991041D01*
X185438620Y-97891234D01*
X185697573Y-97737962D01*
X185921649Y-97537116D01*
X186102236Y-97296414D01*
X186232394Y-97025107D01*
X186281036Y-96864740D01*
X186160378Y-96627000D01*
X184917000Y-96627000D01*
X184663000Y-96627000D01*
X184643000Y-96627000D01*
X184643000Y-96373000D01*
X184663000Y-96373000D01*
X184663000Y-95129008D01*
X184917000Y-95129008D01*
X184917000Y-96373000D01*
X186160378Y-96373000D01*
X186281036Y-96135260D01*
X186232394Y-95974893D01*
X186102236Y-95703586D01*
X185921649Y-95462884D01*
X185697573Y-95262038D01*
X185438620Y-95108766D01*
X185154741Y-95008959D01*
X184917000Y-95129008D01*
X184663000Y-95129008D01*
X184425259Y-95008959D01*
X184141380Y-95108766D01*
X183882427Y-95262038D01*
X183658351Y-95462884D01*
X183581892Y-95564795D01*
X183513773Y-95462848D01*
X183287152Y-95236227D01*
X183020673Y-95058172D01*
X182724578Y-94935525D01*
X182410245Y-94873000D01*
X182089755Y-94873000D01*
X181775422Y-94935525D01*
X181479327Y-95058172D01*
X181232778Y-95222911D01*
X181217403Y-95194147D01*
X181126554Y-95083446D01*
X181015853Y-94992597D01*
X180889557Y-94925090D01*
X180752517Y-94883520D01*
X180610000Y-94869483D01*
X180562000Y-94869483D01*
X180562000Y-87175107D01*
X186359213Y-81377894D01*
X186315090Y-81460443D01*
X186273520Y-81597483D01*
X186259483Y-81740000D01*
X186259483Y-83260000D01*
X186273520Y-83402517D01*
X186315090Y-83539557D01*
X186382597Y-83665853D01*
X186473446Y-83776554D01*
X186584147Y-83867403D01*
X186710443Y-83934910D01*
X186847483Y-83976480D01*
X186990000Y-83990517D01*
X188510000Y-83990517D01*
X188652517Y-83976480D01*
X188789557Y-83934910D01*
X188915853Y-83867403D01*
X189025394Y-83777506D01*
X189085641Y-83817762D01*
X189356258Y-83929855D01*
X189643543Y-83987000D01*
X189936457Y-83987000D01*
X190049588Y-83964497D01*
X196858000Y-90772910D01*
X196858001Y-94869483D01*
X196810000Y-94869483D01*
X196667483Y-94883520D01*
X196530443Y-94925090D01*
X196404147Y-94992597D01*
X196293446Y-95083446D01*
X196202597Y-95194147D01*
X196135090Y-95320443D01*
X196093520Y-95457483D01*
X196079483Y-95600000D01*
X196079483Y-97400000D01*
X196093520Y-97542517D01*
X196135090Y-97679557D01*
X196202597Y-97805853D01*
X196293446Y-97916554D01*
X196404147Y-98007403D01*
X196530443Y-98074910D01*
X196667483Y-98116480D01*
X196810000Y-98130517D01*
X198610000Y-98130517D01*
X198752517Y-98116480D01*
X198889557Y-98074910D01*
X199015853Y-98007403D01*
X199126554Y-97916554D01*
X199217403Y-97805853D01*
X199232778Y-97777089D01*
X199479327Y-97941828D01*
X199775422Y-98064475D01*
X200089755Y-98127000D01*
X200410245Y-98127000D01*
X200724578Y-98064475D01*
X201020673Y-97941828D01*
X201287152Y-97763773D01*
X201513773Y-97537152D01*
X201581892Y-97435205D01*
X201658351Y-97537116D01*
X201882427Y-97737962D01*
X202141380Y-97891234D01*
X202425259Y-97991041D01*
X202663000Y-97870992D01*
X202663000Y-96627000D01*
X202917000Y-96627000D01*
X202917000Y-97870992D01*
X203154741Y-97991041D01*
X203438620Y-97891234D01*
X203697573Y-97737962D01*
X203921649Y-97537116D01*
X204102236Y-97296414D01*
X204232394Y-97025107D01*
X204281036Y-96864740D01*
X204160378Y-96627000D01*
X202917000Y-96627000D01*
X202663000Y-96627000D01*
X202643000Y-96627000D01*
X202643000Y-96373000D01*
X202663000Y-96373000D01*
X202663000Y-95129008D01*
X202917000Y-95129008D01*
X202917000Y-96373000D01*
X204160378Y-96373000D01*
X204281036Y-96135260D01*
X204232394Y-95974893D01*
X204102236Y-95703586D01*
X203921649Y-95462884D01*
X203697573Y-95262038D01*
X203438620Y-95108766D01*
X203154741Y-95008959D01*
X202917000Y-95129008D01*
X202663000Y-95129008D01*
X202425259Y-95008959D01*
X202141380Y-95108766D01*
X201882427Y-95262038D01*
X201658351Y-95462884D01*
X201581892Y-95564795D01*
X201513773Y-95462848D01*
X201287152Y-95236227D01*
X201020673Y-95058172D01*
X200724578Y-94935525D01*
X200410245Y-94873000D01*
X200089755Y-94873000D01*
X199775422Y-94935525D01*
X199479327Y-95058172D01*
X199232778Y-95222911D01*
X199217403Y-95194147D01*
X199126554Y-95083446D01*
X199015853Y-94992597D01*
X198889557Y-94925090D01*
X198752517Y-94883520D01*
X198610000Y-94869483D01*
X198562000Y-94869483D01*
X198562000Y-90461848D01*
X198566122Y-90419999D01*
X198562000Y-90378148D01*
X198549672Y-90252979D01*
X198500954Y-90092376D01*
X198421840Y-89944365D01*
X198421839Y-89944363D01*
X198342048Y-89847138D01*
X198315370Y-89814630D01*
X198282861Y-89787951D01*
X192377602Y-83882693D01*
X192534359Y-83817762D01*
X192777907Y-83655028D01*
X192985028Y-83447907D01*
X193056329Y-83341198D01*
X193071823Y-83339672D01*
X193232426Y-83290954D01*
X193380438Y-83211839D01*
X193510172Y-83105370D01*
X193536857Y-83072855D01*
X194507862Y-82101850D01*
X194540371Y-82075171D01*
X194602062Y-82000000D01*
X194646840Y-81945438D01*
X194689128Y-81866323D01*
X194725955Y-81797425D01*
X194774673Y-81636822D01*
X194787001Y-81511653D01*
X194787001Y-81511651D01*
X194791123Y-81469802D01*
X194787001Y-81427953D01*
X194787001Y-80420433D01*
X201448000Y-80420433D01*
X201448000Y-80829567D01*
X201527818Y-81230839D01*
X201684386Y-81608829D01*
X201911689Y-81949011D01*
X202200989Y-82238311D01*
X202541171Y-82465614D01*
X202919161Y-82622182D01*
X203320433Y-82702000D01*
X203729567Y-82702000D01*
X204130839Y-82622182D01*
X204508829Y-82465614D01*
X204849011Y-82238311D01*
X205138311Y-81949011D01*
X205365614Y-81608829D01*
X205522182Y-81230839D01*
X205602000Y-80829567D01*
X205602000Y-80420433D01*
X205522182Y-80019161D01*
X205365614Y-79641171D01*
X205138311Y-79300989D01*
X204849011Y-79011689D01*
X204508829Y-78784386D01*
X204130839Y-78627818D01*
X203729567Y-78548000D01*
X203320433Y-78548000D01*
X202919161Y-78627818D01*
X202541171Y-78784386D01*
X202200989Y-79011689D01*
X201911689Y-79300989D01*
X201684386Y-79641171D01*
X201527818Y-80019161D01*
X201448000Y-80420433D01*
X194787001Y-80420433D01*
X194787001Y-79481048D01*
X194791123Y-79439199D01*
X194787001Y-79397347D01*
X194774673Y-79272178D01*
X194725955Y-79111575D01*
X194646840Y-78963563D01*
X194540371Y-78833829D01*
X194507855Y-78807144D01*
X193175843Y-77475132D01*
X194423000Y-77475132D01*
X194423000Y-77844868D01*
X194495132Y-78207501D01*
X194636624Y-78549093D01*
X194842039Y-78856518D01*
X195103482Y-79117961D01*
X195410907Y-79323376D01*
X195752499Y-79464868D01*
X196115132Y-79537000D01*
X196484868Y-79537000D01*
X196847501Y-79464868D01*
X197189093Y-79323376D01*
X197496518Y-79117961D01*
X197757961Y-78856518D01*
X197963376Y-78549093D01*
X198104868Y-78207501D01*
X198177000Y-77844868D01*
X198177000Y-77475132D01*
X198104868Y-77112499D01*
X197963376Y-76770907D01*
X197757961Y-76463482D01*
X197496518Y-76202039D01*
X197189093Y-75996624D01*
X196847501Y-75855132D01*
X196484868Y-75783000D01*
X196115132Y-75783000D01*
X195752499Y-75855132D01*
X195410907Y-75996624D01*
X195103482Y-76202039D01*
X194842039Y-76463482D01*
X194636624Y-76770907D01*
X194495132Y-77112499D01*
X194423000Y-77475132D01*
X193175843Y-77475132D01*
X191312856Y-75612145D01*
X191286171Y-75579629D01*
X191156437Y-75473160D01*
X191008425Y-75394045D01*
X190847822Y-75345327D01*
X190722653Y-75332999D01*
X190722650Y-75332999D01*
X190680801Y-75328877D01*
X190638952Y-75332999D01*
X176606852Y-75332999D01*
X176565001Y-75328877D01*
X176523149Y-75332999D01*
X176397980Y-75345327D01*
X176237377Y-75394045D01*
X176089365Y-75473160D01*
X175959631Y-75579629D01*
X175853162Y-75709363D01*
X175774047Y-75857375D01*
X175725329Y-76017978D01*
X175708879Y-76184999D01*
X175713001Y-76226851D01*
X175713002Y-84137090D01*
X173730517Y-86119575D01*
X173730517Y-83250000D01*
X173716480Y-83107483D01*
X173674910Y-82970443D01*
X173607403Y-82844147D01*
X173516554Y-82733446D01*
X173405853Y-82642597D01*
X173279557Y-82575090D01*
X173142517Y-82533520D01*
X173000000Y-82519483D01*
X169500000Y-82519483D01*
X169357483Y-82533520D01*
X169220443Y-82575090D01*
X169094147Y-82642597D01*
X168983446Y-82733446D01*
X168936060Y-82791186D01*
X168935000Y-82285750D01*
X168776250Y-82127000D01*
X166677000Y-82127000D01*
X166677000Y-82147000D01*
X166423000Y-82147000D01*
X166423000Y-82127000D01*
X164323750Y-82127000D01*
X164165000Y-82285750D01*
X164162194Y-83623001D01*
X163065347Y-83623001D01*
X161456169Y-82013823D01*
X161456164Y-82013817D01*
X160787438Y-81345092D01*
X160685531Y-81099065D01*
X160477380Y-80787546D01*
X160212454Y-80522620D01*
X159900935Y-80314469D01*
X159745293Y-80250000D01*
X164161928Y-80250000D01*
X164165000Y-81714250D01*
X164323750Y-81873000D01*
X166423000Y-81873000D01*
X166423000Y-79773750D01*
X166677000Y-79773750D01*
X166677000Y-81873000D01*
X168776250Y-81873000D01*
X168935000Y-81714250D01*
X168936409Y-81042655D01*
X168969463Y-81104494D01*
X169048815Y-81201185D01*
X169145506Y-81280537D01*
X169255820Y-81339502D01*
X169375518Y-81375812D01*
X169500000Y-81388072D01*
X170964250Y-81385000D01*
X171123000Y-81226250D01*
X171123000Y-79127000D01*
X171377000Y-79127000D01*
X171377000Y-81226250D01*
X171535750Y-81385000D01*
X173000000Y-81388072D01*
X173124482Y-81375812D01*
X173244180Y-81339502D01*
X173354494Y-81280537D01*
X173451185Y-81201185D01*
X173530537Y-81104494D01*
X173589502Y-80994180D01*
X173625812Y-80874482D01*
X173638072Y-80750000D01*
X173635000Y-79285750D01*
X173476250Y-79127000D01*
X171377000Y-79127000D01*
X171123000Y-79127000D01*
X169023750Y-79127000D01*
X168865000Y-79285750D01*
X168863591Y-79957345D01*
X168830537Y-79895506D01*
X168751185Y-79798815D01*
X168654494Y-79719463D01*
X168544180Y-79660498D01*
X168424482Y-79624188D01*
X168300000Y-79611928D01*
X166835750Y-79615000D01*
X166677000Y-79773750D01*
X166423000Y-79773750D01*
X166264250Y-79615000D01*
X164800000Y-79611928D01*
X164675518Y-79624188D01*
X164555820Y-79660498D01*
X164445506Y-79719463D01*
X164348815Y-79798815D01*
X164269463Y-79895506D01*
X164210498Y-80005820D01*
X164174188Y-80125518D01*
X164161928Y-80250000D01*
X159745293Y-80250000D01*
X159554793Y-80171093D01*
X159187331Y-80098000D01*
X158812669Y-80098000D01*
X158445207Y-80171093D01*
X158199181Y-80273000D01*
X154800819Y-80273000D01*
X154554793Y-80171093D01*
X154187331Y-80098000D01*
X153812669Y-80098000D01*
X153445207Y-80171093D01*
X153099065Y-80314469D01*
X152787546Y-80522620D01*
X152522620Y-80787546D01*
X152314469Y-81099065D01*
X152171093Y-81445207D01*
X152098000Y-81812669D01*
X152098000Y-82187331D01*
X152171093Y-82554793D01*
X152314469Y-82900935D01*
X152522620Y-83212454D01*
X152787546Y-83477380D01*
X153099065Y-83685531D01*
X153445207Y-83828907D01*
X153812669Y-83902000D01*
X154187331Y-83902000D01*
X154554793Y-83828907D01*
X154800819Y-83727000D01*
X158199181Y-83727000D01*
X158345092Y-83787438D01*
X159013817Y-84456164D01*
X159013823Y-84456169D01*
X161068833Y-86511179D01*
X161122919Y-86577083D01*
X161385889Y-86792897D01*
X161685909Y-86953261D01*
X162011450Y-87052013D01*
X162265160Y-87077001D01*
X162265169Y-87077001D01*
X162350000Y-87085356D01*
X162434831Y-87077001D01*
X168850449Y-87077001D01*
X168892597Y-87155853D01*
X168983446Y-87266554D01*
X169094147Y-87357403D01*
X169220443Y-87424910D01*
X169357483Y-87466480D01*
X169500000Y-87480517D01*
X172369575Y-87480517D01*
X165827094Y-94022999D01*
X151226850Y-94022999D01*
X151185001Y-94018877D01*
X151143152Y-94022999D01*
X151143149Y-94022999D01*
X151017980Y-94035327D01*
X150857377Y-94084045D01*
X150709365Y-94163160D01*
X150579631Y-94269629D01*
X150552946Y-94302145D01*
X150137146Y-94717945D01*
X150104630Y-94744630D01*
X150037962Y-94825867D01*
X150002167Y-94869483D01*
X149810000Y-94869483D01*
X149667483Y-94883520D01*
X149530443Y-94925090D01*
X149404147Y-94992597D01*
X149293446Y-95083446D01*
X149202597Y-95194147D01*
X149135090Y-95320443D01*
X149093520Y-95457483D01*
X149079483Y-95600000D01*
X145727000Y-95600000D01*
X145727000Y-82800819D01*
X145828907Y-82554793D01*
X145902000Y-82187331D01*
X145902000Y-81812669D01*
X145828907Y-81445207D01*
X145685531Y-81099065D01*
X145477380Y-80787546D01*
X145212454Y-80522620D01*
X144900935Y-80314469D01*
X144554793Y-80171093D01*
X144187331Y-80098000D01*
X143812669Y-80098000D01*
X143445207Y-80171093D01*
X143199181Y-80273000D01*
X139800819Y-80273000D01*
X139554793Y-80171093D01*
X139187331Y-80098000D01*
X138812669Y-80098000D01*
X138445207Y-80171093D01*
X138099065Y-80314469D01*
X137787546Y-80522620D01*
X137522620Y-80787546D01*
X137314469Y-81099065D01*
X137171093Y-81445207D01*
X137098000Y-81812669D01*
X133679412Y-81812669D01*
X133815614Y-81608829D01*
X133972182Y-81230839D01*
X134052000Y-80829567D01*
X134052000Y-80420433D01*
X133972182Y-80019161D01*
X133815614Y-79641171D01*
X133588311Y-79300989D01*
X133299011Y-79011689D01*
X132958829Y-78784386D01*
X132580839Y-78627818D01*
X132179567Y-78548000D01*
X131770433Y-78548000D01*
X131369161Y-78627818D01*
X130991171Y-78784386D01*
X130650989Y-79011689D01*
X130361689Y-79300989D01*
X130134386Y-79641171D01*
X129977818Y-80019161D01*
X129898000Y-80420433D01*
X125910000Y-80420433D01*
X125910000Y-77250000D01*
X168861928Y-77250000D01*
X168865000Y-78714250D01*
X169023750Y-78873000D01*
X171123000Y-78873000D01*
X171123000Y-76773750D01*
X171377000Y-76773750D01*
X171377000Y-78873000D01*
X173476250Y-78873000D01*
X173635000Y-78714250D01*
X173638072Y-77250000D01*
X173625812Y-77125518D01*
X173589502Y-77005820D01*
X173530537Y-76895506D01*
X173451185Y-76798815D01*
X173354494Y-76719463D01*
X173244180Y-76660498D01*
X173124482Y-76624188D01*
X173000000Y-76611928D01*
X171535750Y-76615000D01*
X171377000Y-76773750D01*
X171123000Y-76773750D01*
X170964250Y-76615000D01*
X169500000Y-76611928D01*
X169375518Y-76624188D01*
X169255820Y-76660498D01*
X169145506Y-76719463D01*
X169048815Y-76798815D01*
X168969463Y-76895506D01*
X168910498Y-77005820D01*
X168874188Y-77125518D01*
X168861928Y-77250000D01*
X125910000Y-77250000D01*
X125910000Y-77032279D01*
X125957670Y-76546107D01*
X126089489Y-76109502D01*
X126303600Y-75706815D01*
X126591848Y-75353388D01*
X126943261Y-75062673D01*
X127344439Y-74845758D01*
X127780113Y-74710894D01*
X128264344Y-74660000D01*
X207217721Y-74660000D01*
X207703893Y-74707670D01*
G37*
X207703893Y-74707670D02*
X208140498Y-74839489D01*
X208543185Y-75053600D01*
X208896612Y-75341848D01*
X209187327Y-75693261D01*
X209404242Y-76094439D01*
X209539106Y-76530113D01*
X209590000Y-77014344D01*
X209590001Y-122967711D01*
X209542330Y-123453894D01*
X209410512Y-123890497D01*
X209196399Y-124293186D01*
X208908150Y-124646613D01*
X208556739Y-124937327D01*
X208155564Y-125154240D01*
X207719886Y-125289106D01*
X207235664Y-125340000D01*
X128282279Y-125340000D01*
X127796106Y-125292330D01*
X127359503Y-125160512D01*
X126956814Y-124946399D01*
X126603387Y-124658150D01*
X126312673Y-124306739D01*
X126095760Y-123905564D01*
X125960894Y-123469886D01*
X125910000Y-122985664D01*
X125910000Y-119170433D01*
X129898000Y-119170433D01*
X129898000Y-119579567D01*
X129977818Y-119980839D01*
X130134386Y-120358829D01*
X130361689Y-120699011D01*
X130650989Y-120988311D01*
X130991171Y-121215614D01*
X131369161Y-121372182D01*
X131770433Y-121452000D01*
X132179567Y-121452000D01*
X132580839Y-121372182D01*
X132958829Y-121215614D01*
X133299011Y-120988311D01*
X133588311Y-120699011D01*
X133815614Y-120358829D01*
X133972182Y-119980839D01*
X134052000Y-119579567D01*
X134052000Y-119170433D01*
X133972182Y-118769161D01*
X133815614Y-118391171D01*
X133588311Y-118050989D01*
X133299011Y-117761689D01*
X132958829Y-117534386D01*
X132580839Y-117377818D01*
X132179567Y-117298000D01*
X131770433Y-117298000D01*
X131369161Y-117377818D01*
X130991171Y-117534386D01*
X130650989Y-117761689D01*
X130361689Y-118050989D01*
X130134386Y-118391171D01*
X129977818Y-118769161D01*
X129898000Y-119170433D01*
X125910000Y-119170433D01*
X125910000Y-106849604D01*
X129853000Y-106849604D01*
X129853000Y-107150396D01*
X129911681Y-107445410D01*
X130026790Y-107723306D01*
X130193901Y-107973406D01*
X130406594Y-108186099D01*
X130656694Y-108353210D01*
X130934590Y-108468319D01*
X131229604Y-108527000D01*
X131530396Y-108527000D01*
X131825410Y-108468319D01*
X132103306Y-108353210D01*
X132353406Y-108186099D01*
X132546803Y-107992702D01*
X138186903Y-107992702D01*
X138258486Y-108236671D01*
X138513996Y-108357571D01*
X138788184Y-108426300D01*
X139070512Y-108440217D01*
X139350130Y-108398787D01*
X139616292Y-108303603D01*
X139741514Y-108236671D01*
X139813097Y-107992702D01*
X139000000Y-107179605D01*
X138186903Y-107992702D01*
X132546803Y-107992702D01*
X132566099Y-107973406D01*
X132733210Y-107723306D01*
X132848319Y-107445410D01*
X132907000Y-107150396D01*
X132907000Y-107070512D01*
X137559783Y-107070512D01*
X137601213Y-107350130D01*
X137696397Y-107616292D01*
X137763329Y-107741514D01*
X138007298Y-107813097D01*
X138820395Y-107000000D01*
X139179605Y-107000000D01*
X139992702Y-107813097D01*
X140236671Y-107741514D01*
X140357571Y-107486004D01*
X140426300Y-107211816D01*
X140440217Y-106929488D01*
X140398787Y-106649870D01*
X140303603Y-106383708D01*
X140236671Y-106258486D01*
X139992702Y-106186903D01*
X139179605Y-107000000D01*
X138820395Y-107000000D01*
X138007298Y-106186903D01*
X137763329Y-106258486D01*
X137642429Y-106513996D01*
X137573700Y-106788184D01*
X137559783Y-107070512D01*
X132907000Y-107070512D01*
X132907000Y-106849604D01*
X132848319Y-106554590D01*
X132733210Y-106276694D01*
X132566099Y-106026594D01*
X132546803Y-106007298D01*
X138186903Y-106007298D01*
X139000000Y-106820395D01*
X139813097Y-106007298D01*
X139741514Y-105763329D01*
X139486004Y-105642429D01*
X139211816Y-105573700D01*
X138929488Y-105559783D01*
X138649870Y-105601213D01*
X138383708Y-105696397D01*
X138258486Y-105763329D01*
X138186903Y-106007298D01*
X132546803Y-106007298D01*
X132353406Y-105813901D01*
X132103306Y-105646790D01*
X131825410Y-105531681D01*
X131530396Y-105473000D01*
X131229604Y-105473000D01*
X130934590Y-105531681D01*
X130656694Y-105646790D01*
X130406594Y-105813901D01*
X130193901Y-106026594D01*
X130026790Y-106276694D01*
X129911681Y-106554590D01*
X129853000Y-106849604D01*
X125910000Y-106849604D01*
X125910000Y-95600000D01*
X131079483Y-95600000D01*
X131079483Y-97400000D01*
X131093520Y-97542517D01*
X131135090Y-97679557D01*
X131202597Y-97805853D01*
X131293446Y-97916554D01*
X131404147Y-98007403D01*
X131530443Y-98074910D01*
X131667483Y-98116480D01*
X131810000Y-98130517D01*
X133610000Y-98130517D01*
X133752517Y-98116480D01*
X133889557Y-98074910D01*
X134015853Y-98007403D01*
X134126554Y-97916554D01*
X134217403Y-97805853D01*
X134232778Y-97777089D01*
X134479327Y-97941828D01*
X134775422Y-98064475D01*
X135089755Y-98127000D01*
X135410245Y-98127000D01*
X135724578Y-98064475D01*
X136020673Y-97941828D01*
X136287152Y-97763773D01*
X136513773Y-97537152D01*
X136581892Y-97435205D01*
X136658351Y-97537116D01*
X136882427Y-97737962D01*
X137141380Y-97891234D01*
X137425259Y-97991041D01*
X137663000Y-97870992D01*
X137663000Y-96627000D01*
X137917000Y-96627000D01*
X137917000Y-97870992D01*
X138154741Y-97991041D01*
X138438620Y-97891234D01*
X138697573Y-97737962D01*
X138921649Y-97537116D01*
X139102236Y-97296414D01*
X139232394Y-97025107D01*
X139281036Y-96864740D01*
X139160378Y-96627000D01*
X137917000Y-96627000D01*
X137663000Y-96627000D01*
X137643000Y-96627000D01*
X137643000Y-96373000D01*
X137663000Y-96373000D01*
X137663000Y-95129008D01*
X137917000Y-95129008D01*
X137917000Y-96373000D01*
X139160378Y-96373000D01*
X139281036Y-96135260D01*
X139232394Y-95974893D01*
X139102236Y-95703586D01*
X138921649Y-95462884D01*
X138697573Y-95262038D01*
X138438620Y-95108766D01*
X138154741Y-95008959D01*
X137917000Y-95129008D01*
X137663000Y-95129008D01*
X137425259Y-95008959D01*
X137141380Y-95108766D01*
X136882427Y-95262038D01*
X136658351Y-95462884D01*
X136581892Y-95564795D01*
X136513773Y-95462848D01*
X136287152Y-95236227D01*
X136020673Y-95058172D01*
X135724578Y-94935525D01*
X135410245Y-94873000D01*
X135089755Y-94873000D01*
X134775422Y-94935525D01*
X134479327Y-95058172D01*
X134232778Y-95222911D01*
X134217403Y-95194147D01*
X134126554Y-95083446D01*
X134015853Y-94992597D01*
X133889557Y-94925090D01*
X133752517Y-94883520D01*
X133610000Y-94869483D01*
X131810000Y-94869483D01*
X131667483Y-94883520D01*
X131530443Y-94925090D01*
X131404147Y-94992597D01*
X131293446Y-95083446D01*
X131202597Y-95194147D01*
X131135090Y-95320443D01*
X131093520Y-95457483D01*
X131079483Y-95600000D01*
X125910000Y-95600000D01*
X125910000Y-80420433D01*
X129898000Y-80420433D01*
X129898000Y-80829567D01*
X129977818Y-81230839D01*
X130134386Y-81608829D01*
X130361689Y-81949011D01*
X130650989Y-82238311D01*
X130991171Y-82465614D01*
X131369161Y-82622182D01*
X131770433Y-82702000D01*
X132179567Y-82702000D01*
X132580839Y-82622182D01*
X132958829Y-82465614D01*
X133299011Y-82238311D01*
X133588311Y-81949011D01*
X133679412Y-81812669D01*
X137098000Y-81812669D01*
X137098000Y-82187331D01*
X137171093Y-82554793D01*
X137314469Y-82900935D01*
X137522620Y-83212454D01*
X137787546Y-83477380D01*
X138099065Y-83685531D01*
X138445207Y-83828907D01*
X138812669Y-83902000D01*
X139187331Y-83902000D01*
X139554793Y-83828907D01*
X139800819Y-83727000D01*
X142273000Y-83727000D01*
X142273001Y-112519483D01*
X141500000Y-112519483D01*
X141357483Y-112533520D01*
X141220443Y-112575090D01*
X141094147Y-112642597D01*
X140983446Y-112733446D01*
X140892597Y-112844147D01*
X140825090Y-112970443D01*
X140783520Y-113107483D01*
X140769483Y-113250000D01*
X140769483Y-116750000D01*
X140783520Y-116892517D01*
X140825090Y-117029557D01*
X140892597Y-117155853D01*
X140983446Y-117266554D01*
X141094147Y-117357403D01*
X141220443Y-117424910D01*
X141357483Y-117466480D01*
X141500000Y-117480517D01*
X145000000Y-117480517D01*
X145142517Y-117466480D01*
X145279557Y-117424910D01*
X145405853Y-117357403D01*
X145469483Y-117305184D01*
X145469483Y-118694816D01*
X145405853Y-118642597D01*
X145279557Y-118575090D01*
X145142517Y-118533520D01*
X145000000Y-118519483D01*
X141500000Y-118519483D01*
X141357483Y-118533520D01*
X141220443Y-118575090D01*
X141094147Y-118642597D01*
X140983446Y-118733446D01*
X140892597Y-118844147D01*
X140825090Y-118970443D01*
X140783520Y-119107483D01*
X140769483Y-119250000D01*
X140769483Y-122750000D01*
X140783520Y-122892517D01*
X140825090Y-123029557D01*
X140892597Y-123155853D01*
X140983446Y-123266554D01*
X141094147Y-123357403D01*
X141220443Y-123424910D01*
X141357483Y-123466480D01*
X141500000Y-123480517D01*
X145000000Y-123480517D01*
X145142517Y-123466480D01*
X145279557Y-123424910D01*
X145405853Y-123357403D01*
X145516554Y-123266554D01*
X145607403Y-123155853D01*
X145674910Y-123029557D01*
X145716480Y-122892517D01*
X145730517Y-122750000D01*
X145730517Y-120305184D01*
X145794147Y-120357403D01*
X145920443Y-120424910D01*
X146057483Y-120466480D01*
X146200000Y-120480517D01*
X149700000Y-120480517D01*
X149842517Y-120466480D01*
X149979557Y-120424910D01*
X150105853Y-120357403D01*
X150216554Y-120266554D01*
X150307403Y-120155853D01*
X150374910Y-120029557D01*
X150416480Y-119892517D01*
X150430517Y-119750000D01*
X150430517Y-116376999D01*
X154788925Y-116376999D01*
X154869221Y-116442896D01*
X155169241Y-116603260D01*
X155494782Y-116702012D01*
X155748492Y-116727000D01*
X155748501Y-116727000D01*
X155833332Y-116735355D01*
X155918163Y-116727000D01*
X157102816Y-116727000D01*
X157102816Y-116750000D01*
X157116853Y-116892517D01*
X157158423Y-117029557D01*
X157225930Y-117155853D01*
X157316779Y-117266554D01*
X157427480Y-117357403D01*
X157553776Y-117424910D01*
X157690816Y-117466480D01*
X157833333Y-117480517D01*
X161333333Y-117480517D01*
X161475850Y-117466480D01*
X161612890Y-117424910D01*
X161739186Y-117357403D01*
X161802816Y-117305184D01*
X161802816Y-118694816D01*
X161739186Y-118642597D01*
X161612890Y-118575090D01*
X161475850Y-118533520D01*
X161333333Y-118519483D01*
X157833333Y-118519483D01*
X157690816Y-118533520D01*
X157553776Y-118575090D01*
X157427480Y-118642597D01*
X157316779Y-118733446D01*
X157225930Y-118844147D01*
X157158423Y-118970443D01*
X157116853Y-119107483D01*
X157102816Y-119250000D01*
X157102816Y-122750000D01*
X157116853Y-122892517D01*
X157158423Y-123029557D01*
X157225930Y-123155853D01*
X157316779Y-123266554D01*
X157427480Y-123357403D01*
X157553776Y-123424910D01*
X157690816Y-123466480D01*
X157833333Y-123480517D01*
X161333333Y-123480517D01*
X161475850Y-123466480D01*
X161612890Y-123424910D01*
X161739186Y-123357403D01*
X161849887Y-123266554D01*
X161940736Y-123155853D01*
X162008243Y-123029557D01*
X162049813Y-122892517D01*
X162063850Y-122750000D01*
X162063850Y-120305184D01*
X162127480Y-120357403D01*
X162253776Y-120424910D01*
X162390816Y-120466480D01*
X162533333Y-120480517D01*
X166033333Y-120480517D01*
X166175850Y-120466480D01*
X166312890Y-120424910D01*
X166439186Y-120357403D01*
X166549887Y-120266554D01*
X166640736Y-120155853D01*
X166708243Y-120029557D01*
X166749813Y-119892517D01*
X166763850Y-119750000D01*
X166763850Y-116376999D01*
X171122258Y-116376999D01*
X171202554Y-116442896D01*
X171502574Y-116603260D01*
X171828115Y-116702012D01*
X172081825Y-116727000D01*
X172081834Y-116727000D01*
X172166665Y-116735355D01*
X172251496Y-116727000D01*
X173436149Y-116727000D01*
X173436149Y-116750000D01*
X173450186Y-116892517D01*
X173491756Y-117029557D01*
X173559263Y-117155853D01*
X173650112Y-117266554D01*
X173760813Y-117357403D01*
X173887109Y-117424910D01*
X174024149Y-117466480D01*
X174166666Y-117480517D01*
X177666666Y-117480517D01*
X177809183Y-117466480D01*
X177946223Y-117424910D01*
X178072519Y-117357403D01*
X178136149Y-117305184D01*
X178136149Y-118694816D01*
X178072519Y-118642597D01*
X177946223Y-118575090D01*
X177809183Y-118533520D01*
X177666666Y-118519483D01*
X174166666Y-118519483D01*
X174024149Y-118533520D01*
X173887109Y-118575090D01*
X173760813Y-118642597D01*
X173650112Y-118733446D01*
X173559263Y-118844147D01*
X173491756Y-118970443D01*
X173450186Y-119107483D01*
X173436149Y-119250000D01*
X173436149Y-122750000D01*
X173450186Y-122892517D01*
X173491756Y-123029557D01*
X173559263Y-123155853D01*
X173650112Y-123266554D01*
X173760813Y-123357403D01*
X173887109Y-123424910D01*
X174024149Y-123466480D01*
X174166666Y-123480517D01*
X177666666Y-123480517D01*
X177809183Y-123466480D01*
X177946223Y-123424910D01*
X178072519Y-123357403D01*
X178183220Y-123266554D01*
X178274069Y-123155853D01*
X178341576Y-123029557D01*
X178383146Y-122892517D01*
X178397183Y-122750000D01*
X178397183Y-120305184D01*
X178460813Y-120357403D01*
X178587109Y-120424910D01*
X178724149Y-120466480D01*
X178866666Y-120480517D01*
X182366666Y-120480517D01*
X182509183Y-120466480D01*
X182646223Y-120424910D01*
X182772519Y-120357403D01*
X182883220Y-120266554D01*
X182974069Y-120155853D01*
X183041576Y-120029557D01*
X183083146Y-119892517D01*
X183097183Y-119750000D01*
X183097183Y-116376999D01*
X187455592Y-116376999D01*
X187535888Y-116442896D01*
X187835908Y-116603260D01*
X188161449Y-116702012D01*
X188415159Y-116727000D01*
X188415168Y-116727000D01*
X188499999Y-116735355D01*
X188584830Y-116727000D01*
X189769483Y-116727000D01*
X189769483Y-116750000D01*
X189783520Y-116892517D01*
X189825090Y-117029557D01*
X189892597Y-117155853D01*
X189983446Y-117266554D01*
X190094147Y-117357403D01*
X190220443Y-117424910D01*
X190357483Y-117466480D01*
X190500000Y-117480517D01*
X194000000Y-117480517D01*
X194142517Y-117466480D01*
X194279557Y-117424910D01*
X194405853Y-117357403D01*
X194469483Y-117305184D01*
X194469483Y-118694816D01*
X194405853Y-118642597D01*
X194279557Y-118575090D01*
X194142517Y-118533520D01*
X194000000Y-118519483D01*
X190500000Y-118519483D01*
X190357483Y-118533520D01*
X190220443Y-118575090D01*
X190094147Y-118642597D01*
X189983446Y-118733446D01*
X189892597Y-118844147D01*
X189825090Y-118970443D01*
X189783520Y-119107483D01*
X189769483Y-119250000D01*
X189769483Y-122750000D01*
X189783520Y-122892517D01*
X189825090Y-123029557D01*
X189892597Y-123155853D01*
X189983446Y-123266554D01*
X190094147Y-123357403D01*
X190220443Y-123424910D01*
X190357483Y-123466480D01*
X190500000Y-123480517D01*
X194000000Y-123480517D01*
X194142517Y-123466480D01*
X194279557Y-123424910D01*
X194405853Y-123357403D01*
X194516554Y-123266554D01*
X194607403Y-123155853D01*
X194674910Y-123029557D01*
X194716480Y-122892517D01*
X194730517Y-122750000D01*
X194730517Y-120305184D01*
X194794147Y-120357403D01*
X194920443Y-120424910D01*
X195057483Y-120466480D01*
X195200000Y-120480517D01*
X198700000Y-120480517D01*
X198842517Y-120466480D01*
X198979557Y-120424910D01*
X199105853Y-120357403D01*
X199216554Y-120266554D01*
X199307403Y-120155853D01*
X199374910Y-120029557D01*
X199416480Y-119892517D01*
X199430517Y-119750000D01*
X199430517Y-119170433D01*
X201448000Y-119170433D01*
X201448000Y-119579567D01*
X201527818Y-119980839D01*
X201684386Y-120358829D01*
X201911689Y-120699011D01*
X202200989Y-120988311D01*
X202541171Y-121215614D01*
X202919161Y-121372182D01*
X203320433Y-121452000D01*
X203729567Y-121452000D01*
X204130839Y-121372182D01*
X204508829Y-121215614D01*
X204849011Y-120988311D01*
X205138311Y-120699011D01*
X205365614Y-120358829D01*
X205522182Y-119980839D01*
X205602000Y-119579567D01*
X205602000Y-119170433D01*
X205522182Y-118769161D01*
X205365614Y-118391171D01*
X205138311Y-118050989D01*
X204849011Y-117761689D01*
X204508829Y-117534386D01*
X204130839Y-117377818D01*
X203729567Y-117298000D01*
X203320433Y-117298000D01*
X202919161Y-117377818D01*
X202541171Y-117534386D01*
X202200989Y-117761689D01*
X201911689Y-118050989D01*
X201684386Y-118391171D01*
X201527818Y-118769161D01*
X201448000Y-119170433D01*
X199430517Y-119170433D01*
X199430517Y-116250000D01*
X199416480Y-116107483D01*
X199374910Y-115970443D01*
X199307403Y-115844147D01*
X199216554Y-115733446D01*
X199105853Y-115642597D01*
X198979557Y-115575090D01*
X198842517Y-115533520D01*
X198700000Y-115519483D01*
X195200000Y-115519483D01*
X195057483Y-115533520D01*
X194920443Y-115575090D01*
X194794147Y-115642597D01*
X194730517Y-115694816D01*
X194730517Y-113250000D01*
X194716480Y-113107483D01*
X194674910Y-112970443D01*
X194607403Y-112844147D01*
X194516554Y-112733446D01*
X194405853Y-112642597D01*
X194279557Y-112575090D01*
X194142517Y-112533520D01*
X194000000Y-112519483D01*
X190500000Y-112519483D01*
X190357483Y-112533520D01*
X190220443Y-112575090D01*
X190094147Y-112642597D01*
X189983446Y-112733446D01*
X189892597Y-112844147D01*
X189825090Y-112970443D01*
X189783520Y-113107483D01*
X189769483Y-113250000D01*
X189769483Y-113273000D01*
X189194407Y-113273000D01*
X189114111Y-113207103D01*
X188814091Y-113046739D01*
X188488550Y-112947987D01*
X188234840Y-112922999D01*
X188234837Y-112922999D01*
X188149999Y-112914643D01*
X188065161Y-112922999D01*
X178316217Y-112922999D01*
X178274069Y-112844147D01*
X178183220Y-112733446D01*
X178072519Y-112642597D01*
X177946223Y-112575090D01*
X177809183Y-112533520D01*
X177666666Y-112519483D01*
X174166666Y-112519483D01*
X174024149Y-112533520D01*
X173887109Y-112575090D01*
X173760813Y-112642597D01*
X173650112Y-112733446D01*
X173559263Y-112844147D01*
X173491756Y-112970443D01*
X173450186Y-113107483D01*
X173436149Y-113250000D01*
X173436149Y-113273000D01*
X172861073Y-113273000D01*
X172780777Y-113207103D01*
X172480757Y-113046739D01*
X172155216Y-112947987D01*
X171901506Y-112922999D01*
X171901503Y-112922999D01*
X171816665Y-112914643D01*
X171731827Y-112922999D01*
X161982884Y-112922999D01*
X161940736Y-112844147D01*
X161849887Y-112733446D01*
X161739186Y-112642597D01*
X161612890Y-112575090D01*
X161475850Y-112533520D01*
X161333333Y-112519483D01*
X157833333Y-112519483D01*
X157690816Y-112533520D01*
X157553776Y-112575090D01*
X157427480Y-112642597D01*
X157316779Y-112733446D01*
X157225930Y-112844147D01*
X157158423Y-112970443D01*
X157116853Y-113107483D01*
X157102816Y-113250000D01*
X157102816Y-113273000D01*
X156527740Y-113273000D01*
X156447444Y-113207103D01*
X156147424Y-113046739D01*
X155821883Y-112947987D01*
X155568173Y-112922999D01*
X155568170Y-112922999D01*
X155483332Y-112914643D01*
X155398494Y-112922999D01*
X145727000Y-112922999D01*
X145727000Y-106849604D01*
X147853000Y-106849604D01*
X147853000Y-107150396D01*
X147911681Y-107445410D01*
X148026790Y-107723306D01*
X148193901Y-107973406D01*
X148406594Y-108186099D01*
X148656694Y-108353210D01*
X148934590Y-108468319D01*
X149229604Y-108527000D01*
X149530396Y-108527000D01*
X149825410Y-108468319D01*
X150103306Y-108353210D01*
X150353406Y-108186099D01*
X150546803Y-107992702D01*
X156186903Y-107992702D01*
X156258486Y-108236671D01*
X156513996Y-108357571D01*
X156788184Y-108426300D01*
X157070512Y-108440217D01*
X157350130Y-108398787D01*
X157616292Y-108303603D01*
X157741514Y-108236671D01*
X157813097Y-107992702D01*
X157000000Y-107179605D01*
X156186903Y-107992702D01*
X150546803Y-107992702D01*
X150566099Y-107973406D01*
X150733210Y-107723306D01*
X150848319Y-107445410D01*
X150907000Y-107150396D01*
X150907000Y-107070512D01*
X155559783Y-107070512D01*
X155601213Y-107350130D01*
X155696397Y-107616292D01*
X155763329Y-107741514D01*
X156007298Y-107813097D01*
X156820395Y-107000000D01*
X157179605Y-107000000D01*
X157992702Y-107813097D01*
X158236671Y-107741514D01*
X158357571Y-107486004D01*
X158426300Y-107211816D01*
X158440217Y-106929488D01*
X158428381Y-106849604D01*
X176853000Y-106849604D01*
X176853000Y-107150396D01*
X176911681Y-107445410D01*
X177026790Y-107723306D01*
X177193901Y-107973406D01*
X177406594Y-108186099D01*
X177656694Y-108353210D01*
X177934590Y-108468319D01*
X178229604Y-108527000D01*
X178530396Y-108527000D01*
X178825410Y-108468319D01*
X179103306Y-108353210D01*
X179353406Y-108186099D01*
X179546803Y-107992702D01*
X185186903Y-107992702D01*
X185258486Y-108236671D01*
X185513996Y-108357571D01*
X185788184Y-108426300D01*
X186070512Y-108440217D01*
X186350130Y-108398787D01*
X186616292Y-108303603D01*
X186741514Y-108236671D01*
X186813097Y-107992702D01*
X186000000Y-107179605D01*
X185186903Y-107992702D01*
X179546803Y-107992702D01*
X179566099Y-107973406D01*
X179733210Y-107723306D01*
X179848319Y-107445410D01*
X179907000Y-107150396D01*
X179907000Y-107070512D01*
X184559783Y-107070512D01*
X184601213Y-107350130D01*
X184696397Y-107616292D01*
X184763329Y-107741514D01*
X185007298Y-107813097D01*
X185820395Y-107000000D01*
X186179605Y-107000000D01*
X186992702Y-107813097D01*
X187236671Y-107741514D01*
X187357571Y-107486004D01*
X187426300Y-107211816D01*
X187440217Y-106929488D01*
X187428381Y-106849604D01*
X194853000Y-106849604D01*
X194853000Y-107150396D01*
X194911681Y-107445410D01*
X195026790Y-107723306D01*
X195193901Y-107973406D01*
X195406594Y-108186099D01*
X195656694Y-108353210D01*
X195934590Y-108468319D01*
X196229604Y-108527000D01*
X196530396Y-108527000D01*
X196825410Y-108468319D01*
X197103306Y-108353210D01*
X197353406Y-108186099D01*
X197546803Y-107992702D01*
X203186903Y-107992702D01*
X203258486Y-108236671D01*
X203513996Y-108357571D01*
X203788184Y-108426300D01*
X204070512Y-108440217D01*
X204350130Y-108398787D01*
X204616292Y-108303603D01*
X204741514Y-108236671D01*
X204813097Y-107992702D01*
X204000000Y-107179605D01*
X203186903Y-107992702D01*
X197546803Y-107992702D01*
X197566099Y-107973406D01*
X197733210Y-107723306D01*
X197848319Y-107445410D01*
X197907000Y-107150396D01*
X197907000Y-107070512D01*
X202559783Y-107070512D01*
X202601213Y-107350130D01*
X202696397Y-107616292D01*
X202763329Y-107741514D01*
X203007298Y-107813097D01*
X203820395Y-107000000D01*
X204179605Y-107000000D01*
X204992702Y-107813097D01*
X205236671Y-107741514D01*
X205357571Y-107486004D01*
X205426300Y-107211816D01*
X205440217Y-106929488D01*
X205398787Y-106649870D01*
X205303603Y-106383708D01*
X205236671Y-106258486D01*
X204992702Y-106186903D01*
X204179605Y-107000000D01*
X203820395Y-107000000D01*
X203007298Y-106186903D01*
X202763329Y-106258486D01*
X202642429Y-106513996D01*
X202573700Y-106788184D01*
X202559783Y-107070512D01*
X197907000Y-107070512D01*
X197907000Y-106849604D01*
X197848319Y-106554590D01*
X197733210Y-106276694D01*
X197566099Y-106026594D01*
X197546803Y-106007298D01*
X203186903Y-106007298D01*
X204000000Y-106820395D01*
X204813097Y-106007298D01*
X204741514Y-105763329D01*
X204486004Y-105642429D01*
X204211816Y-105573700D01*
X203929488Y-105559783D01*
X203649870Y-105601213D01*
X203383708Y-105696397D01*
X203258486Y-105763329D01*
X203186903Y-106007298D01*
X197546803Y-106007298D01*
X197353406Y-105813901D01*
X197103306Y-105646790D01*
X196825410Y-105531681D01*
X196530396Y-105473000D01*
X196229604Y-105473000D01*
X195934590Y-105531681D01*
X195656694Y-105646790D01*
X195406594Y-105813901D01*
X195193901Y-106026594D01*
X195026790Y-106276694D01*
X194911681Y-106554590D01*
X194853000Y-106849604D01*
X187428381Y-106849604D01*
X187398787Y-106649870D01*
X187303603Y-106383708D01*
X187236671Y-106258486D01*
X186992702Y-106186903D01*
X186179605Y-107000000D01*
X185820395Y-107000000D01*
X185007298Y-106186903D01*
X184763329Y-106258486D01*
X184642429Y-106513996D01*
X184573700Y-106788184D01*
X184559783Y-107070512D01*
X179907000Y-107070512D01*
X179907000Y-106849604D01*
X179848319Y-106554590D01*
X179733210Y-106276694D01*
X179566099Y-106026594D01*
X179546803Y-106007298D01*
X185186903Y-106007298D01*
X186000000Y-106820395D01*
X186813097Y-106007298D01*
X186741514Y-105763329D01*
X186486004Y-105642429D01*
X186211816Y-105573700D01*
X185929488Y-105559783D01*
X185649870Y-105601213D01*
X185383708Y-105696397D01*
X185258486Y-105763329D01*
X185186903Y-106007298D01*
X179546803Y-106007298D01*
X179353406Y-105813901D01*
X179103306Y-105646790D01*
X178825410Y-105531681D01*
X178530396Y-105473000D01*
X178229604Y-105473000D01*
X177934590Y-105531681D01*
X177656694Y-105646790D01*
X177406594Y-105813901D01*
X177193901Y-106026594D01*
X177026790Y-106276694D01*
X176911681Y-106554590D01*
X176853000Y-106849604D01*
X158428381Y-106849604D01*
X158398787Y-106649870D01*
X158303603Y-106383708D01*
X158236671Y-106258486D01*
X157992702Y-106186903D01*
X157179605Y-107000000D01*
X156820395Y-107000000D01*
X156007298Y-106186903D01*
X155763329Y-106258486D01*
X155642429Y-106513996D01*
X155573700Y-106788184D01*
X155559783Y-107070512D01*
X150907000Y-107070512D01*
X150907000Y-106849604D01*
X150848319Y-106554590D01*
X150733210Y-106276694D01*
X150566099Y-106026594D01*
X150546803Y-106007298D01*
X156186903Y-106007298D01*
X157000000Y-106820395D01*
X157813097Y-106007298D01*
X157741514Y-105763329D01*
X157486004Y-105642429D01*
X157211816Y-105573700D01*
X156929488Y-105559783D01*
X156649870Y-105601213D01*
X156383708Y-105696397D01*
X156258486Y-105763329D01*
X156186903Y-106007298D01*
X150546803Y-106007298D01*
X150353406Y-105813901D01*
X150103306Y-105646790D01*
X149825410Y-105531681D01*
X149530396Y-105473000D01*
X149229604Y-105473000D01*
X148934590Y-105531681D01*
X148656694Y-105646790D01*
X148406594Y-105813901D01*
X148193901Y-106026594D01*
X148026790Y-106276694D01*
X147911681Y-106554590D01*
X147853000Y-106849604D01*
X145727000Y-106849604D01*
X145727000Y-95600000D01*
X149079483Y-95600000D01*
X149079483Y-97400000D01*
X149093520Y-97542517D01*
X149135090Y-97679557D01*
X149202597Y-97805853D01*
X149293446Y-97916554D01*
X149404147Y-98007403D01*
X149530443Y-98074910D01*
X149667483Y-98116480D01*
X149810000Y-98130517D01*
X151610000Y-98130517D01*
X151752517Y-98116480D01*
X151889557Y-98074910D01*
X152015853Y-98007403D01*
X152126554Y-97916554D01*
X152217403Y-97805853D01*
X152232778Y-97777089D01*
X152479327Y-97941828D01*
X152775422Y-98064475D01*
X153089755Y-98127000D01*
X153410245Y-98127000D01*
X153724578Y-98064475D01*
X154020673Y-97941828D01*
X154287152Y-97763773D01*
X154513773Y-97537152D01*
X154581892Y-97435205D01*
X154658351Y-97537116D01*
X154882427Y-97737962D01*
X155141380Y-97891234D01*
X155425259Y-97991041D01*
X155663000Y-97870992D01*
X155663000Y-96627000D01*
X155917000Y-96627000D01*
X155917000Y-97870992D01*
X156154741Y-97991041D01*
X156438620Y-97891234D01*
X156697573Y-97737962D01*
X156921649Y-97537116D01*
X157102236Y-97296414D01*
X157232394Y-97025107D01*
X157281036Y-96864740D01*
X157160378Y-96627000D01*
X155917000Y-96627000D01*
X155663000Y-96627000D01*
X155643000Y-96627000D01*
X155643000Y-96373000D01*
X155663000Y-96373000D01*
X155663000Y-96353000D01*
X155917000Y-96353000D01*
X155917000Y-96373000D01*
X157160378Y-96373000D01*
X157281036Y-96135260D01*
X157232394Y-95974893D01*
X157113468Y-95726999D01*
X164837966Y-95726999D01*
X164745305Y-95780497D01*
X164001058Y-96425391D01*
X163392307Y-97199481D01*
X162941054Y-98074788D01*
X162663609Y-99019679D01*
X162570000Y-100000000D01*
X162663609Y-100980321D01*
X162941054Y-101925212D01*
X163392307Y-102800519D01*
X164001058Y-103574609D01*
X164745305Y-104219503D01*
X165598150Y-104711894D01*
X166528769Y-105033984D01*
X167503526Y-105174133D01*
X168487191Y-105127275D01*
X169444212Y-104895104D01*
X170340000Y-104486012D01*
X171142179Y-103914783D01*
X171821755Y-103202064D01*
X172354168Y-102373613D01*
X172720174Y-101459375D01*
X172906545Y-100492390D01*
X172906545Y-99507610D01*
X172720174Y-98540625D01*
X172354168Y-97626387D01*
X171821755Y-96797936D01*
X171142179Y-96085217D01*
X170340000Y-95513988D01*
X169444212Y-95104896D01*
X168487191Y-94872725D01*
X167503526Y-94825867D01*
X167422377Y-94837535D01*
X177137861Y-85122051D01*
X177170371Y-85095371D01*
X177239243Y-85011450D01*
X177276840Y-84965638D01*
X177355955Y-84817625D01*
X177367896Y-84778259D01*
X177404673Y-84657022D01*
X177417001Y-84531853D01*
X177417001Y-84531851D01*
X177421123Y-84490002D01*
X177417001Y-84448153D01*
X177417001Y-77036999D01*
X182526405Y-77036999D01*
X182495132Y-77112499D01*
X182423000Y-77475132D01*
X182423000Y-77844868D01*
X182495132Y-78207501D01*
X182636624Y-78549093D01*
X182842039Y-78856518D01*
X183103482Y-79117961D01*
X183410907Y-79323376D01*
X183752499Y-79464868D01*
X184115132Y-79537000D01*
X184484868Y-79537000D01*
X184847501Y-79464868D01*
X185189093Y-79323376D01*
X185496518Y-79117961D01*
X185757961Y-78856518D01*
X185963376Y-78549093D01*
X186104868Y-78207501D01*
X186177000Y-77844868D01*
X186177000Y-77475132D01*
X186104868Y-77112499D01*
X186073595Y-77036999D01*
X190327892Y-77036999D01*
X192018251Y-78727358D01*
X191902093Y-78804972D01*
X191830000Y-78877065D01*
X191757907Y-78804972D01*
X191651198Y-78733671D01*
X191649672Y-78718177D01*
X191600954Y-78557574D01*
X191521839Y-78409562D01*
X191415370Y-78279828D01*
X191382855Y-78253144D01*
X191031856Y-77902145D01*
X191005171Y-77869629D01*
X190875437Y-77763160D01*
X190727425Y-77684045D01*
X190566822Y-77635327D01*
X190441653Y-77622999D01*
X190441650Y-77622999D01*
X190399801Y-77618877D01*
X190357952Y-77622999D01*
X188099047Y-77622999D01*
X188057198Y-77618877D01*
X188015349Y-77622999D01*
X188015347Y-77622999D01*
X187890178Y-77635327D01*
X187729575Y-77684045D01*
X187581562Y-77763160D01*
X187515658Y-77817246D01*
X187451829Y-77869629D01*
X187425149Y-77902139D01*
X179137141Y-86190148D01*
X179104631Y-86216828D01*
X179077952Y-86249337D01*
X178998161Y-86346562D01*
X178919046Y-86494575D01*
X178870329Y-86655178D01*
X178853878Y-86822198D01*
X178858001Y-86864057D01*
X178858000Y-94869483D01*
X178810000Y-94869483D01*
X178667483Y-94883520D01*
X178530443Y-94925090D01*
X178404147Y-94992597D01*
X178293446Y-95083446D01*
X178202597Y-95194147D01*
X178135090Y-95320443D01*
X178093520Y-95457483D01*
X178079483Y-95600000D01*
X178079483Y-97400000D01*
X178093520Y-97542517D01*
X178135090Y-97679557D01*
X178202597Y-97805853D01*
X178293446Y-97916554D01*
X178404147Y-98007403D01*
X178530443Y-98074910D01*
X178667483Y-98116480D01*
X178810000Y-98130517D01*
X180610000Y-98130517D01*
X180752517Y-98116480D01*
X180889557Y-98074910D01*
X181015853Y-98007403D01*
X181126554Y-97916554D01*
X181217403Y-97805853D01*
X181232778Y-97777089D01*
X181479327Y-97941828D01*
X181775422Y-98064475D01*
X182089755Y-98127000D01*
X182410245Y-98127000D01*
X182724578Y-98064475D01*
X183020673Y-97941828D01*
X183287152Y-97763773D01*
X183513773Y-97537152D01*
X183581892Y-97435205D01*
X183658351Y-97537116D01*
X183882427Y-97737962D01*
X184141380Y-97891234D01*
X184425259Y-97991041D01*
X184663000Y-97870992D01*
X184663000Y-96627000D01*
X184917000Y-96627000D01*
X184917000Y-97870992D01*
X185154741Y-97991041D01*
X185438620Y-97891234D01*
X185697573Y-97737962D01*
X185921649Y-97537116D01*
X186102236Y-97296414D01*
X186232394Y-97025107D01*
X186281036Y-96864740D01*
X186160378Y-96627000D01*
X184917000Y-96627000D01*
X184663000Y-96627000D01*
X184643000Y-96627000D01*
X184643000Y-96373000D01*
X184663000Y-96373000D01*
X184663000Y-95129008D01*
X184917000Y-95129008D01*
X184917000Y-96373000D01*
X186160378Y-96373000D01*
X186281036Y-96135260D01*
X186232394Y-95974893D01*
X186102236Y-95703586D01*
X185921649Y-95462884D01*
X185697573Y-95262038D01*
X185438620Y-95108766D01*
X185154741Y-95008959D01*
X184917000Y-95129008D01*
X184663000Y-95129008D01*
X184425259Y-95008959D01*
X184141380Y-95108766D01*
X183882427Y-95262038D01*
X183658351Y-95462884D01*
X183581892Y-95564795D01*
X183513773Y-95462848D01*
X183287152Y-95236227D01*
X183020673Y-95058172D01*
X182724578Y-94935525D01*
X182410245Y-94873000D01*
X182089755Y-94873000D01*
X181775422Y-94935525D01*
X181479327Y-95058172D01*
X181232778Y-95222911D01*
X181217403Y-95194147D01*
X181126554Y-95083446D01*
X181015853Y-94992597D01*
X180889557Y-94925090D01*
X180752517Y-94883520D01*
X180610000Y-94869483D01*
X180562000Y-94869483D01*
X180562000Y-87175107D01*
X186359213Y-81377894D01*
X186315090Y-81460443D01*
X186273520Y-81597483D01*
X186259483Y-81740000D01*
X186259483Y-83260000D01*
X186273520Y-83402517D01*
X186315090Y-83539557D01*
X186382597Y-83665853D01*
X186473446Y-83776554D01*
X186584147Y-83867403D01*
X186710443Y-83934910D01*
X186847483Y-83976480D01*
X186990000Y-83990517D01*
X188510000Y-83990517D01*
X188652517Y-83976480D01*
X188789557Y-83934910D01*
X188915853Y-83867403D01*
X189025394Y-83777506D01*
X189085641Y-83817762D01*
X189356258Y-83929855D01*
X189643543Y-83987000D01*
X189936457Y-83987000D01*
X190049588Y-83964497D01*
X196858000Y-90772910D01*
X196858001Y-94869483D01*
X196810000Y-94869483D01*
X196667483Y-94883520D01*
X196530443Y-94925090D01*
X196404147Y-94992597D01*
X196293446Y-95083446D01*
X196202597Y-95194147D01*
X196135090Y-95320443D01*
X196093520Y-95457483D01*
X196079483Y-95600000D01*
X196079483Y-97400000D01*
X196093520Y-97542517D01*
X196135090Y-97679557D01*
X196202597Y-97805853D01*
X196293446Y-97916554D01*
X196404147Y-98007403D01*
X196530443Y-98074910D01*
X196667483Y-98116480D01*
X196810000Y-98130517D01*
X198610000Y-98130517D01*
X198752517Y-98116480D01*
X198889557Y-98074910D01*
X199015853Y-98007403D01*
X199126554Y-97916554D01*
X199217403Y-97805853D01*
X199232778Y-97777089D01*
X199479327Y-97941828D01*
X199775422Y-98064475D01*
X200089755Y-98127000D01*
X200410245Y-98127000D01*
X200724578Y-98064475D01*
X201020673Y-97941828D01*
X201287152Y-97763773D01*
X201513773Y-97537152D01*
X201581892Y-97435205D01*
X201658351Y-97537116D01*
X201882427Y-97737962D01*
X202141380Y-97891234D01*
X202425259Y-97991041D01*
X202663000Y-97870992D01*
X202663000Y-96627000D01*
X202917000Y-96627000D01*
X202917000Y-97870992D01*
X203154741Y-97991041D01*
X203438620Y-97891234D01*
X203697573Y-97737962D01*
X203921649Y-97537116D01*
X204102236Y-97296414D01*
X204232394Y-97025107D01*
X204281036Y-96864740D01*
X204160378Y-96627000D01*
X202917000Y-96627000D01*
X202663000Y-96627000D01*
X202643000Y-96627000D01*
X202643000Y-96373000D01*
X202663000Y-96373000D01*
X202663000Y-95129008D01*
X202917000Y-95129008D01*
X202917000Y-96373000D01*
X204160378Y-96373000D01*
X204281036Y-96135260D01*
X204232394Y-95974893D01*
X204102236Y-95703586D01*
X203921649Y-95462884D01*
X203697573Y-95262038D01*
X203438620Y-95108766D01*
X203154741Y-95008959D01*
X202917000Y-95129008D01*
X202663000Y-95129008D01*
X202425259Y-95008959D01*
X202141380Y-95108766D01*
X201882427Y-95262038D01*
X201658351Y-95462884D01*
X201581892Y-95564795D01*
X201513773Y-95462848D01*
X201287152Y-95236227D01*
X201020673Y-95058172D01*
X200724578Y-94935525D01*
X200410245Y-94873000D01*
X200089755Y-94873000D01*
X199775422Y-94935525D01*
X199479327Y-95058172D01*
X199232778Y-95222911D01*
X199217403Y-95194147D01*
X199126554Y-95083446D01*
X199015853Y-94992597D01*
X198889557Y-94925090D01*
X198752517Y-94883520D01*
X198610000Y-94869483D01*
X198562000Y-94869483D01*
X198562000Y-90461848D01*
X198566122Y-90419999D01*
X198562000Y-90378148D01*
X198549672Y-90252979D01*
X198500954Y-90092376D01*
X198421840Y-89944365D01*
X198421839Y-89944363D01*
X198342048Y-89847138D01*
X198315370Y-89814630D01*
X198282861Y-89787951D01*
X192377602Y-83882693D01*
X192534359Y-83817762D01*
X192777907Y-83655028D01*
X192985028Y-83447907D01*
X193056329Y-83341198D01*
X193071823Y-83339672D01*
X193232426Y-83290954D01*
X193380438Y-83211839D01*
X193510172Y-83105370D01*
X193536857Y-83072855D01*
X194507862Y-82101850D01*
X194540371Y-82075171D01*
X194602062Y-82000000D01*
X194646840Y-81945438D01*
X194689128Y-81866323D01*
X194725955Y-81797425D01*
X194774673Y-81636822D01*
X194787001Y-81511653D01*
X194787001Y-81511651D01*
X194791123Y-81469802D01*
X194787001Y-81427953D01*
X194787001Y-80420433D01*
X201448000Y-80420433D01*
X201448000Y-80829567D01*
X201527818Y-81230839D01*
X201684386Y-81608829D01*
X201911689Y-81949011D01*
X202200989Y-82238311D01*
X202541171Y-82465614D01*
X202919161Y-82622182D01*
X203320433Y-82702000D01*
X203729567Y-82702000D01*
X204130839Y-82622182D01*
X204508829Y-82465614D01*
X204849011Y-82238311D01*
X205138311Y-81949011D01*
X205365614Y-81608829D01*
X205522182Y-81230839D01*
X205602000Y-80829567D01*
X205602000Y-80420433D01*
X205522182Y-80019161D01*
X205365614Y-79641171D01*
X205138311Y-79300989D01*
X204849011Y-79011689D01*
X204508829Y-78784386D01*
X204130839Y-78627818D01*
X203729567Y-78548000D01*
X203320433Y-78548000D01*
X202919161Y-78627818D01*
X202541171Y-78784386D01*
X202200989Y-79011689D01*
X201911689Y-79300989D01*
X201684386Y-79641171D01*
X201527818Y-80019161D01*
X201448000Y-80420433D01*
X194787001Y-80420433D01*
X194787001Y-79481048D01*
X194791123Y-79439199D01*
X194787001Y-79397347D01*
X194774673Y-79272178D01*
X194725955Y-79111575D01*
X194646840Y-78963563D01*
X194540371Y-78833829D01*
X194507855Y-78807144D01*
X193175843Y-77475132D01*
X194423000Y-77475132D01*
X194423000Y-77844868D01*
X194495132Y-78207501D01*
X194636624Y-78549093D01*
X194842039Y-78856518D01*
X195103482Y-79117961D01*
X195410907Y-79323376D01*
X195752499Y-79464868D01*
X196115132Y-79537000D01*
X196484868Y-79537000D01*
X196847501Y-79464868D01*
X197189093Y-79323376D01*
X197496518Y-79117961D01*
X197757961Y-78856518D01*
X197963376Y-78549093D01*
X198104868Y-78207501D01*
X198177000Y-77844868D01*
X198177000Y-77475132D01*
X198104868Y-77112499D01*
X197963376Y-76770907D01*
X197757961Y-76463482D01*
X197496518Y-76202039D01*
X197189093Y-75996624D01*
X196847501Y-75855132D01*
X196484868Y-75783000D01*
X196115132Y-75783000D01*
X195752499Y-75855132D01*
X195410907Y-75996624D01*
X195103482Y-76202039D01*
X194842039Y-76463482D01*
X194636624Y-76770907D01*
X194495132Y-77112499D01*
X194423000Y-77475132D01*
X193175843Y-77475132D01*
X191312856Y-75612145D01*
X191286171Y-75579629D01*
X191156437Y-75473160D01*
X191008425Y-75394045D01*
X190847822Y-75345327D01*
X190722653Y-75332999D01*
X190722650Y-75332999D01*
X190680801Y-75328877D01*
X190638952Y-75332999D01*
X176606852Y-75332999D01*
X176565001Y-75328877D01*
X176523149Y-75332999D01*
X176397980Y-75345327D01*
X176237377Y-75394045D01*
X176089365Y-75473160D01*
X175959631Y-75579629D01*
X175853162Y-75709363D01*
X175774047Y-75857375D01*
X175725329Y-76017978D01*
X175708879Y-76184999D01*
X175713001Y-76226851D01*
X175713002Y-84137090D01*
X173730517Y-86119575D01*
X173730517Y-83250000D01*
X173716480Y-83107483D01*
X173674910Y-82970443D01*
X173607403Y-82844147D01*
X173516554Y-82733446D01*
X173405853Y-82642597D01*
X173279557Y-82575090D01*
X173142517Y-82533520D01*
X173000000Y-82519483D01*
X169500000Y-82519483D01*
X169357483Y-82533520D01*
X169220443Y-82575090D01*
X169094147Y-82642597D01*
X168983446Y-82733446D01*
X168936060Y-82791186D01*
X168935000Y-82285750D01*
X168776250Y-82127000D01*
X166677000Y-82127000D01*
X166677000Y-82147000D01*
X166423000Y-82147000D01*
X166423000Y-82127000D01*
X164323750Y-82127000D01*
X164165000Y-82285750D01*
X164162194Y-83623001D01*
X163065347Y-83623001D01*
X161456169Y-82013823D01*
X161456164Y-82013817D01*
X160787438Y-81345092D01*
X160685531Y-81099065D01*
X160477380Y-80787546D01*
X160212454Y-80522620D01*
X159900935Y-80314469D01*
X159745293Y-80250000D01*
X164161928Y-80250000D01*
X164165000Y-81714250D01*
X164323750Y-81873000D01*
X166423000Y-81873000D01*
X166423000Y-79773750D01*
X166677000Y-79773750D01*
X166677000Y-81873000D01*
X168776250Y-81873000D01*
X168935000Y-81714250D01*
X168936409Y-81042655D01*
X168969463Y-81104494D01*
X169048815Y-81201185D01*
X169145506Y-81280537D01*
X169255820Y-81339502D01*
X169375518Y-81375812D01*
X169500000Y-81388072D01*
X170964250Y-81385000D01*
X171123000Y-81226250D01*
X171123000Y-79127000D01*
X171377000Y-79127000D01*
X171377000Y-81226250D01*
X171535750Y-81385000D01*
X173000000Y-81388072D01*
X173124482Y-81375812D01*
X173244180Y-81339502D01*
X173354494Y-81280537D01*
X173451185Y-81201185D01*
X173530537Y-81104494D01*
X173589502Y-80994180D01*
X173625812Y-80874482D01*
X173638072Y-80750000D01*
X173635000Y-79285750D01*
X173476250Y-79127000D01*
X171377000Y-79127000D01*
X171123000Y-79127000D01*
X169023750Y-79127000D01*
X168865000Y-79285750D01*
X168863591Y-79957345D01*
X168830537Y-79895506D01*
X168751185Y-79798815D01*
X168654494Y-79719463D01*
X168544180Y-79660498D01*
X168424482Y-79624188D01*
X168300000Y-79611928D01*
X166835750Y-79615000D01*
X166677000Y-79773750D01*
X166423000Y-79773750D01*
X166264250Y-79615000D01*
X164800000Y-79611928D01*
X164675518Y-79624188D01*
X164555820Y-79660498D01*
X164445506Y-79719463D01*
X164348815Y-79798815D01*
X164269463Y-79895506D01*
X164210498Y-80005820D01*
X164174188Y-80125518D01*
X164161928Y-80250000D01*
X159745293Y-80250000D01*
X159554793Y-80171093D01*
X159187331Y-80098000D01*
X158812669Y-80098000D01*
X158445207Y-80171093D01*
X158199181Y-80273000D01*
X154800819Y-80273000D01*
X154554793Y-80171093D01*
X154187331Y-80098000D01*
X153812669Y-80098000D01*
X153445207Y-80171093D01*
X153099065Y-80314469D01*
X152787546Y-80522620D01*
X152522620Y-80787546D01*
X152314469Y-81099065D01*
X152171093Y-81445207D01*
X152098000Y-81812669D01*
X152098000Y-82187331D01*
X152171093Y-82554793D01*
X152314469Y-82900935D01*
X152522620Y-83212454D01*
X152787546Y-83477380D01*
X153099065Y-83685531D01*
X153445207Y-83828907D01*
X153812669Y-83902000D01*
X154187331Y-83902000D01*
X154554793Y-83828907D01*
X154800819Y-83727000D01*
X158199181Y-83727000D01*
X158345092Y-83787438D01*
X159013817Y-84456164D01*
X159013823Y-84456169D01*
X161068833Y-86511179D01*
X161122919Y-86577083D01*
X161385889Y-86792897D01*
X161685909Y-86953261D01*
X162011450Y-87052013D01*
X162265160Y-87077001D01*
X162265169Y-87077001D01*
X162350000Y-87085356D01*
X162434831Y-87077001D01*
X168850449Y-87077001D01*
X168892597Y-87155853D01*
X168983446Y-87266554D01*
X169094147Y-87357403D01*
X169220443Y-87424910D01*
X169357483Y-87466480D01*
X169500000Y-87480517D01*
X172369575Y-87480517D01*
X165827094Y-94022999D01*
X151226850Y-94022999D01*
X151185001Y-94018877D01*
X151143152Y-94022999D01*
X151143149Y-94022999D01*
X151017980Y-94035327D01*
X150857377Y-94084045D01*
X150709365Y-94163160D01*
X150579631Y-94269629D01*
X150552946Y-94302145D01*
X150137146Y-94717945D01*
X150104630Y-94744630D01*
X150037962Y-94825867D01*
X150002167Y-94869483D01*
X149810000Y-94869483D01*
X149667483Y-94883520D01*
X149530443Y-94925090D01*
X149404147Y-94992597D01*
X149293446Y-95083446D01*
X149202597Y-95194147D01*
X149135090Y-95320443D01*
X149093520Y-95457483D01*
X149079483Y-95600000D01*
X145727000Y-95600000D01*
X145727000Y-82800819D01*
X145828907Y-82554793D01*
X145902000Y-82187331D01*
X145902000Y-81812669D01*
X145828907Y-81445207D01*
X145685531Y-81099065D01*
X145477380Y-80787546D01*
X145212454Y-80522620D01*
X144900935Y-80314469D01*
X144554793Y-80171093D01*
X144187331Y-80098000D01*
X143812669Y-80098000D01*
X143445207Y-80171093D01*
X143199181Y-80273000D01*
X139800819Y-80273000D01*
X139554793Y-80171093D01*
X139187331Y-80098000D01*
X138812669Y-80098000D01*
X138445207Y-80171093D01*
X138099065Y-80314469D01*
X137787546Y-80522620D01*
X137522620Y-80787546D01*
X137314469Y-81099065D01*
X137171093Y-81445207D01*
X137098000Y-81812669D01*
X133679412Y-81812669D01*
X133815614Y-81608829D01*
X133972182Y-81230839D01*
X134052000Y-80829567D01*
X134052000Y-80420433D01*
X133972182Y-80019161D01*
X133815614Y-79641171D01*
X133588311Y-79300989D01*
X133299011Y-79011689D01*
X132958829Y-78784386D01*
X132580839Y-78627818D01*
X132179567Y-78548000D01*
X131770433Y-78548000D01*
X131369161Y-78627818D01*
X130991171Y-78784386D01*
X130650989Y-79011689D01*
X130361689Y-79300989D01*
X130134386Y-79641171D01*
X129977818Y-80019161D01*
X129898000Y-80420433D01*
X125910000Y-80420433D01*
X125910000Y-77250000D01*
X168861928Y-77250000D01*
X168865000Y-78714250D01*
X169023750Y-78873000D01*
X171123000Y-78873000D01*
X171123000Y-76773750D01*
X171377000Y-76773750D01*
X171377000Y-78873000D01*
X173476250Y-78873000D01*
X173635000Y-78714250D01*
X173638072Y-77250000D01*
X173625812Y-77125518D01*
X173589502Y-77005820D01*
X173530537Y-76895506D01*
X173451185Y-76798815D01*
X173354494Y-76719463D01*
X173244180Y-76660498D01*
X173124482Y-76624188D01*
X173000000Y-76611928D01*
X171535750Y-76615000D01*
X171377000Y-76773750D01*
X171123000Y-76773750D01*
X170964250Y-76615000D01*
X169500000Y-76611928D01*
X169375518Y-76624188D01*
X169255820Y-76660498D01*
X169145506Y-76719463D01*
X169048815Y-76798815D01*
X168969463Y-76895506D01*
X168910498Y-77005820D01*
X168874188Y-77125518D01*
X168861928Y-77250000D01*
X125910000Y-77250000D01*
X125910000Y-77032279D01*
X125957670Y-76546107D01*
X126089489Y-76109502D01*
X126303600Y-75706815D01*
X126591848Y-75353388D01*
X126943261Y-75062673D01*
X127344439Y-74845758D01*
X127780113Y-74710894D01*
X128264344Y-74660000D01*
X207217721Y-74660000D01*
X207703893Y-74707670D01*
G36*
X188963748Y-79945858D02*
G01*
X188949605Y-79960000D01*
X188963748Y-79974142D01*
X188784142Y-80153748D01*
X188770000Y-80139605D01*
X187985469Y-80924137D01*
X188009212Y-81009483D01*
X186990000Y-81009483D01*
X186847483Y-81023520D01*
X186710443Y-81065090D01*
X186627894Y-81109213D01*
X187416957Y-80320151D01*
X187504256Y-80562326D01*
X187565975Y-80677794D01*
X187805863Y-80744531D01*
X188590395Y-79960000D01*
X188576252Y-79945858D01*
X188755858Y-79766252D01*
X188770000Y-79780395D01*
X188784142Y-79766252D01*
X188963748Y-79945858D01*
G37*
X188963748Y-79945858D02*
X188949605Y-79960000D01*
X188963748Y-79974142D01*
X188784142Y-80153748D01*
X188770000Y-80139605D01*
X187985469Y-80924137D01*
X188009212Y-81009483D01*
X186990000Y-81009483D01*
X186847483Y-81023520D01*
X186710443Y-81065090D01*
X186627894Y-81109213D01*
X187416957Y-80320151D01*
X187504256Y-80562326D01*
X187565975Y-80677794D01*
X187805863Y-80744531D01*
X188590395Y-79960000D01*
X188576252Y-79945858D01*
X188755858Y-79766252D01*
X188770000Y-79780395D01*
X188784142Y-79766252D01*
X188963748Y-79945858D01*
M02*
