G04 #@! TF.GenerationSoftware,KiCad,Pcbnew,(5.1.5)-3*
G04 #@! TF.CreationDate,2020-06-12T22:16:17+02:00*
G04 #@! TF.ProjectId,pwm,70776d2e-6b69-4636-9164-5f7063625858,rev?*
G04 #@! TF.SameCoordinates,Original*
G04 #@! TF.FileFunction,Legend,Top*
G04 #@! TF.FilePolarity,Positive*
%FSLAX46Y46*%
G04 Gerber Fmt 4.6, Leading zero omitted, Abs format (unit mm)*
G04 Created by KiCad (PCBNEW (5.1.5)-3) date 2020-06-12 22:16:17*
%MOMM*%
%LPD*%
G04 APERTURE LIST*
%ADD10C,0.150000*%
%ADD11C,0.120000*%
G04 APERTURE END LIST*
D10*
X144773809Y-86428571D02*
X144440476Y-86428571D01*
X144440476Y-86952380D02*
X144440476Y-85952380D01*
X144916666Y-85952380D01*
X145726190Y-86285714D02*
X145726190Y-86952380D01*
X145297619Y-86285714D02*
X145297619Y-86809523D01*
X145345238Y-86904761D01*
X145440476Y-86952380D01*
X145583333Y-86952380D01*
X145678571Y-86904761D01*
X145726190Y-86857142D01*
X146154761Y-86904761D02*
X146250000Y-86952380D01*
X146440476Y-86952380D01*
X146535714Y-86904761D01*
X146583333Y-86809523D01*
X146583333Y-86761904D01*
X146535714Y-86666666D01*
X146440476Y-86619047D01*
X146297619Y-86619047D01*
X146202380Y-86571428D01*
X146154761Y-86476190D01*
X146154761Y-86428571D01*
X146202380Y-86333333D01*
X146297619Y-86285714D01*
X146440476Y-86285714D01*
X146535714Y-86333333D01*
X147392857Y-86904761D02*
X147297619Y-86952380D01*
X147107142Y-86952380D01*
X147011904Y-86904761D01*
X146964285Y-86809523D01*
X146964285Y-86428571D01*
X147011904Y-86333333D01*
X147107142Y-86285714D01*
X147297619Y-86285714D01*
X147392857Y-86333333D01*
X147440476Y-86428571D01*
X147440476Y-86523809D01*
X146964285Y-86619047D01*
X147869047Y-86857142D02*
X147916666Y-86904761D01*
X147869047Y-86952380D01*
X147821428Y-86904761D01*
X147869047Y-86857142D01*
X147869047Y-86952380D01*
X147869047Y-86333333D02*
X147916666Y-86380952D01*
X147869047Y-86428571D01*
X147821428Y-86380952D01*
X147869047Y-86333333D01*
X147869047Y-86428571D01*
X149107142Y-86952380D02*
X149107142Y-85952380D01*
X149440476Y-86666666D01*
X149773809Y-85952380D01*
X149773809Y-86952380D01*
X150678571Y-86952380D02*
X150678571Y-86428571D01*
X150630952Y-86333333D01*
X150535714Y-86285714D01*
X150345238Y-86285714D01*
X150250000Y-86333333D01*
X150678571Y-86904761D02*
X150583333Y-86952380D01*
X150345238Y-86952380D01*
X150250000Y-86904761D01*
X150202380Y-86809523D01*
X150202380Y-86714285D01*
X150250000Y-86619047D01*
X150345238Y-86571428D01*
X150583333Y-86571428D01*
X150678571Y-86523809D01*
X151059523Y-86952380D02*
X151583333Y-86285714D01*
X151059523Y-86285714D02*
X151583333Y-86952380D01*
X152630952Y-85952380D02*
X153250000Y-85952380D01*
X152916666Y-86333333D01*
X153059523Y-86333333D01*
X153154761Y-86380952D01*
X153202380Y-86428571D01*
X153250000Y-86523809D01*
X153250000Y-86761904D01*
X153202380Y-86857142D01*
X153154761Y-86904761D01*
X153059523Y-86952380D01*
X152773809Y-86952380D01*
X152678571Y-86904761D01*
X152630952Y-86857142D01*
X153630952Y-86666666D02*
X154107142Y-86666666D01*
X153535714Y-86952380D02*
X153869047Y-85952380D01*
X154202380Y-86952380D01*
X161845238Y-110452380D02*
X161845238Y-109452380D01*
X162226190Y-109452380D01*
X162321428Y-109500000D01*
X162369047Y-109547619D01*
X162416666Y-109642857D01*
X162416666Y-109785714D01*
X162369047Y-109880952D01*
X162321428Y-109928571D01*
X162226190Y-109976190D01*
X161845238Y-109976190D01*
X162750000Y-109452380D02*
X162988095Y-110452380D01*
X163178571Y-109738095D01*
X163369047Y-110452380D01*
X163607142Y-109452380D01*
X163988095Y-110452380D02*
X163988095Y-109452380D01*
X164321428Y-110166666D01*
X164654761Y-109452380D01*
X164654761Y-110452380D01*
X166226190Y-109928571D02*
X166369047Y-109976190D01*
X166416666Y-110023809D01*
X166464285Y-110119047D01*
X166464285Y-110261904D01*
X166416666Y-110357142D01*
X166369047Y-110404761D01*
X166273809Y-110452380D01*
X165892857Y-110452380D01*
X165892857Y-109452380D01*
X166226190Y-109452380D01*
X166321428Y-109500000D01*
X166369047Y-109547619D01*
X166416666Y-109642857D01*
X166416666Y-109738095D01*
X166369047Y-109833333D01*
X166321428Y-109880952D01*
X166226190Y-109928571D01*
X165892857Y-109928571D01*
X167035714Y-110452380D02*
X166940476Y-110404761D01*
X166892857Y-110357142D01*
X166845238Y-110261904D01*
X166845238Y-109976190D01*
X166892857Y-109880952D01*
X166940476Y-109833333D01*
X167035714Y-109785714D01*
X167178571Y-109785714D01*
X167273809Y-109833333D01*
X167321428Y-109880952D01*
X167369047Y-109976190D01*
X167369047Y-110261904D01*
X167321428Y-110357142D01*
X167273809Y-110404761D01*
X167178571Y-110452380D01*
X167035714Y-110452380D01*
X168226190Y-110452380D02*
X168226190Y-109928571D01*
X168178571Y-109833333D01*
X168083333Y-109785714D01*
X167892857Y-109785714D01*
X167797619Y-109833333D01*
X168226190Y-110404761D02*
X168130952Y-110452380D01*
X167892857Y-110452380D01*
X167797619Y-110404761D01*
X167750000Y-110309523D01*
X167750000Y-110214285D01*
X167797619Y-110119047D01*
X167892857Y-110071428D01*
X168130952Y-110071428D01*
X168226190Y-110023809D01*
X168702380Y-110452380D02*
X168702380Y-109785714D01*
X168702380Y-109976190D02*
X168750000Y-109880952D01*
X168797619Y-109833333D01*
X168892857Y-109785714D01*
X168988095Y-109785714D01*
X169750000Y-110452380D02*
X169750000Y-109452380D01*
X169750000Y-110404761D02*
X169654761Y-110452380D01*
X169464285Y-110452380D01*
X169369047Y-110404761D01*
X169321428Y-110357142D01*
X169273809Y-110261904D01*
X169273809Y-109976190D01*
X169321428Y-109880952D01*
X169369047Y-109833333D01*
X169464285Y-109785714D01*
X169654761Y-109785714D01*
X169750000Y-109833333D01*
X170892857Y-109785714D02*
X171130952Y-110452380D01*
X171369047Y-109785714D01*
X172273809Y-110452380D02*
X171702380Y-110452380D01*
X171988095Y-110452380D02*
X171988095Y-109452380D01*
X171892857Y-109595238D01*
X171797619Y-109690476D01*
X171702380Y-109738095D01*
X172702380Y-110357142D02*
X172750000Y-110404761D01*
X172702380Y-110452380D01*
X172654761Y-110404761D01*
X172702380Y-110357142D01*
X172702380Y-110452380D01*
X173369047Y-109452380D02*
X173464285Y-109452380D01*
X173559523Y-109500000D01*
X173607142Y-109547619D01*
X173654761Y-109642857D01*
X173702380Y-109833333D01*
X173702380Y-110071428D01*
X173654761Y-110261904D01*
X173607142Y-110357142D01*
X173559523Y-110404761D01*
X173464285Y-110452380D01*
X173369047Y-110452380D01*
X173273809Y-110404761D01*
X173226190Y-110357142D01*
X173178571Y-110261904D01*
X173130952Y-110071428D01*
X173130952Y-109833333D01*
X173178571Y-109642857D01*
X173226190Y-109547619D01*
X173273809Y-109500000D01*
X173369047Y-109452380D01*
X163083333Y-107333333D02*
X164035714Y-107333333D01*
X162892857Y-107904761D02*
X163559523Y-105904761D01*
X164226190Y-107904761D01*
X165750000Y-106571428D02*
X165750000Y-108571428D01*
X165750000Y-107809523D02*
X165559523Y-107904761D01*
X165178571Y-107904761D01*
X164988095Y-107809523D01*
X164892857Y-107714285D01*
X164797619Y-107523809D01*
X164797619Y-106952380D01*
X164892857Y-106761904D01*
X164988095Y-106666666D01*
X165178571Y-106571428D01*
X165559523Y-106571428D01*
X165750000Y-106666666D01*
X167559523Y-106571428D02*
X167559523Y-107904761D01*
X166702380Y-106571428D02*
X166702380Y-107619047D01*
X166797619Y-107809523D01*
X166988095Y-107904761D01*
X167273809Y-107904761D01*
X167464285Y-107809523D01*
X167559523Y-107714285D01*
X169369047Y-107904761D02*
X169369047Y-106857142D01*
X169273809Y-106666666D01*
X169083333Y-106571428D01*
X168702380Y-106571428D01*
X168511904Y-106666666D01*
X169369047Y-107809523D02*
X169178571Y-107904761D01*
X168702380Y-107904761D01*
X168511904Y-107809523D01*
X168416666Y-107619047D01*
X168416666Y-107428571D01*
X168511904Y-107238095D01*
X168702380Y-107142857D01*
X169178571Y-107142857D01*
X169369047Y-107047619D01*
X170321428Y-107904761D02*
X170321428Y-105904761D01*
X171083333Y-105904761D01*
X171273809Y-106000000D01*
X171369047Y-106095238D01*
X171464285Y-106285714D01*
X171464285Y-106571428D01*
X171369047Y-106761904D01*
X171273809Y-106857142D01*
X171083333Y-106952380D01*
X170321428Y-106952380D01*
X172321428Y-107904761D02*
X172321428Y-105904761D01*
X192750000Y-101750000D02*
X194750000Y-101750000D01*
X192750000Y-100750000D02*
X192750000Y-101750000D01*
X192750000Y-91750000D02*
X192750000Y-93750000D01*
X194750000Y-91750000D02*
X192750000Y-91750000D01*
X198750000Y-91750000D02*
X196750000Y-91750000D01*
X203750000Y-91750000D02*
X201750000Y-91750000D01*
X207750000Y-91750000D02*
X205750000Y-91750000D01*
X207750000Y-93750000D02*
X207750000Y-91750000D01*
X207750000Y-101750000D02*
X207750000Y-100750000D01*
X205750000Y-101750000D02*
X207750000Y-101750000D01*
X205750000Y-93750000D02*
X205750000Y-101750000D01*
X194750000Y-93750000D02*
X205750000Y-93750000D01*
X194750000Y-101750000D02*
X194750000Y-93750000D01*
X201750000Y-92750000D02*
X201750000Y-91750000D01*
X198750000Y-92750000D02*
X201750000Y-92750000D01*
X198750000Y-91750000D02*
X198750000Y-92750000D01*
X203750000Y-92750000D02*
X203750000Y-91750000D01*
X205750000Y-92750000D02*
X203750000Y-92750000D01*
X205750000Y-91750000D02*
X205750000Y-92750000D01*
X196750000Y-92750000D02*
X196750000Y-91750000D01*
X194750000Y-92750000D02*
X196750000Y-92750000D01*
X194750000Y-91750000D02*
X194750000Y-92750000D01*
X206750000Y-93750000D02*
X207750000Y-93750000D01*
X206750000Y-94750000D02*
X206750000Y-93750000D01*
X207750000Y-94750000D02*
X206750000Y-94750000D01*
X207750000Y-95750000D02*
X207750000Y-94750000D01*
X206750000Y-95750000D02*
X207750000Y-95750000D01*
X206750000Y-96750000D02*
X206750000Y-95750000D01*
X207750000Y-96750000D02*
X206750000Y-96750000D01*
X207750000Y-97750000D02*
X207750000Y-96750000D01*
X206750000Y-97750000D02*
X207750000Y-97750000D01*
X206750000Y-98750000D02*
X206750000Y-97750000D01*
X207750000Y-98750000D02*
X206750000Y-98750000D01*
X207750000Y-99750000D02*
X207750000Y-98750000D01*
X206750000Y-99750000D02*
X207750000Y-99750000D01*
X206750000Y-100750000D02*
X206750000Y-99750000D01*
X207750000Y-100750000D02*
X206750000Y-100750000D01*
X193750000Y-93750000D02*
X192750000Y-93750000D01*
X193750000Y-94750000D02*
X193750000Y-93750000D01*
X192750000Y-94750000D02*
X193750000Y-94750000D01*
X192750000Y-95750000D02*
X192750000Y-94750000D01*
X193750000Y-95750000D02*
X192750000Y-95750000D01*
X193750000Y-96750000D02*
X193750000Y-95750000D01*
X192750000Y-96750000D02*
X193750000Y-96750000D01*
X192750000Y-97750000D02*
X192750000Y-96750000D01*
X193750000Y-97750000D02*
X192750000Y-97750000D01*
X193750000Y-98750000D02*
X193750000Y-97750000D01*
X192750000Y-98750000D02*
X193750000Y-98750000D01*
X192750000Y-99750000D02*
X192750000Y-98750000D01*
X193750000Y-99750000D02*
X192750000Y-99750000D01*
X193750000Y-100750000D02*
X193750000Y-99750000D01*
X192750000Y-100750000D02*
X193750000Y-100750000D01*
X174750000Y-101750000D02*
X176750000Y-101750000D01*
X174750000Y-100750000D02*
X174750000Y-101750000D01*
X174750000Y-91750000D02*
X174750000Y-93750000D01*
X176750000Y-91750000D02*
X174750000Y-91750000D01*
X180750000Y-91750000D02*
X178750000Y-91750000D01*
X185750000Y-91750000D02*
X183750000Y-91750000D01*
X189750000Y-91750000D02*
X187750000Y-91750000D01*
X189750000Y-93750000D02*
X189750000Y-91750000D01*
X189750000Y-101750000D02*
X189750000Y-100750000D01*
X187750000Y-101750000D02*
X189750000Y-101750000D01*
X187750000Y-93750000D02*
X187750000Y-101750000D01*
X176750000Y-93750000D02*
X187750000Y-93750000D01*
X176750000Y-101750000D02*
X176750000Y-93750000D01*
X183750000Y-92750000D02*
X183750000Y-91750000D01*
X180750000Y-92750000D02*
X183750000Y-92750000D01*
X180750000Y-91750000D02*
X180750000Y-92750000D01*
X185750000Y-92750000D02*
X185750000Y-91750000D01*
X187750000Y-92750000D02*
X185750000Y-92750000D01*
X187750000Y-91750000D02*
X187750000Y-92750000D01*
X178750000Y-92750000D02*
X178750000Y-91750000D01*
X176750000Y-92750000D02*
X178750000Y-92750000D01*
X176750000Y-91750000D02*
X176750000Y-92750000D01*
X188750000Y-93750000D02*
X189750000Y-93750000D01*
X188750000Y-94750000D02*
X188750000Y-93750000D01*
X189750000Y-94750000D02*
X188750000Y-94750000D01*
X189750000Y-95750000D02*
X189750000Y-94750000D01*
X188750000Y-95750000D02*
X189750000Y-95750000D01*
X188750000Y-96750000D02*
X188750000Y-95750000D01*
X189750000Y-96750000D02*
X188750000Y-96750000D01*
X189750000Y-97750000D02*
X189750000Y-96750000D01*
X188750000Y-97750000D02*
X189750000Y-97750000D01*
X188750000Y-98750000D02*
X188750000Y-97750000D01*
X189750000Y-98750000D02*
X188750000Y-98750000D01*
X189750000Y-99750000D02*
X189750000Y-98750000D01*
X188750000Y-99750000D02*
X189750000Y-99750000D01*
X188750000Y-100750000D02*
X188750000Y-99750000D01*
X189750000Y-100750000D02*
X188750000Y-100750000D01*
X175750000Y-93750000D02*
X174750000Y-93750000D01*
X175750000Y-94750000D02*
X175750000Y-93750000D01*
X174750000Y-94750000D02*
X175750000Y-94750000D01*
X174750000Y-95750000D02*
X174750000Y-94750000D01*
X175750000Y-95750000D02*
X174750000Y-95750000D01*
X175750000Y-96750000D02*
X175750000Y-95750000D01*
X174750000Y-96750000D02*
X175750000Y-96750000D01*
X174750000Y-97750000D02*
X174750000Y-96750000D01*
X175750000Y-97750000D02*
X174750000Y-97750000D01*
X175750000Y-98750000D02*
X175750000Y-97750000D01*
X174750000Y-98750000D02*
X175750000Y-98750000D01*
X174750000Y-99750000D02*
X174750000Y-98750000D01*
X175750000Y-99750000D02*
X174750000Y-99750000D01*
X175750000Y-100750000D02*
X175750000Y-99750000D01*
X174750000Y-100750000D02*
X175750000Y-100750000D01*
X145750000Y-101750000D02*
X147750000Y-101750000D01*
X145750000Y-100750000D02*
X145750000Y-101750000D01*
X145750000Y-91750000D02*
X145750000Y-93750000D01*
X147750000Y-91750000D02*
X145750000Y-91750000D01*
X151750000Y-91750000D02*
X149750000Y-91750000D01*
X156750000Y-91750000D02*
X154750000Y-91750000D01*
X160750000Y-91750000D02*
X158750000Y-91750000D01*
X160750000Y-93750000D02*
X160750000Y-91750000D01*
X160750000Y-101750000D02*
X160750000Y-100750000D01*
X158750000Y-101750000D02*
X160750000Y-101750000D01*
X158750000Y-93750000D02*
X158750000Y-101750000D01*
X147750000Y-93750000D02*
X158750000Y-93750000D01*
X147750000Y-101750000D02*
X147750000Y-93750000D01*
X154750000Y-92750000D02*
X154750000Y-91750000D01*
X151750000Y-92750000D02*
X154750000Y-92750000D01*
X151750000Y-91750000D02*
X151750000Y-92750000D01*
X156750000Y-92750000D02*
X156750000Y-91750000D01*
X158750000Y-92750000D02*
X156750000Y-92750000D01*
X158750000Y-91750000D02*
X158750000Y-92750000D01*
X149750000Y-92750000D02*
X149750000Y-91750000D01*
X147750000Y-92750000D02*
X149750000Y-92750000D01*
X147750000Y-91750000D02*
X147750000Y-92750000D01*
X159750000Y-93750000D02*
X160750000Y-93750000D01*
X159750000Y-94750000D02*
X159750000Y-93750000D01*
X160750000Y-94750000D02*
X159750000Y-94750000D01*
X160750000Y-95750000D02*
X160750000Y-94750000D01*
X159750000Y-95750000D02*
X160750000Y-95750000D01*
X159750000Y-96750000D02*
X159750000Y-95750000D01*
X160750000Y-96750000D02*
X159750000Y-96750000D01*
X160750000Y-97750000D02*
X160750000Y-96750000D01*
X159750000Y-97750000D02*
X160750000Y-97750000D01*
X159750000Y-98750000D02*
X159750000Y-97750000D01*
X160750000Y-98750000D02*
X159750000Y-98750000D01*
X160750000Y-99750000D02*
X160750000Y-98750000D01*
X159750000Y-99750000D02*
X160750000Y-99750000D01*
X159750000Y-100750000D02*
X159750000Y-99750000D01*
X160750000Y-100750000D02*
X159750000Y-100750000D01*
X146750000Y-93750000D02*
X145750000Y-93750000D01*
X146750000Y-94750000D02*
X146750000Y-93750000D01*
X145750000Y-94750000D02*
X146750000Y-94750000D01*
X145750000Y-95750000D02*
X145750000Y-94750000D01*
X146750000Y-95750000D02*
X145750000Y-95750000D01*
X146750000Y-96750000D02*
X146750000Y-95750000D01*
X145750000Y-96750000D02*
X146750000Y-96750000D01*
X145750000Y-97750000D02*
X145750000Y-96750000D01*
X146750000Y-97750000D02*
X145750000Y-97750000D01*
X146750000Y-98750000D02*
X146750000Y-97750000D01*
X145750000Y-98750000D02*
X146750000Y-98750000D01*
X145750000Y-99750000D02*
X145750000Y-98750000D01*
X146750000Y-99750000D02*
X145750000Y-99750000D01*
X146750000Y-100750000D02*
X146750000Y-99750000D01*
X145750000Y-100750000D02*
X146750000Y-100750000D01*
X127750000Y-101750000D02*
X129750000Y-101750000D01*
X127750000Y-100750000D02*
X127750000Y-101750000D01*
X127750000Y-91750000D02*
X127750000Y-93750000D01*
X129750000Y-91750000D02*
X127750000Y-91750000D01*
X133750000Y-91750000D02*
X131750000Y-91750000D01*
X138750000Y-91750000D02*
X136750000Y-91750000D01*
X142750000Y-91750000D02*
X140750000Y-91750000D01*
X142750000Y-93750000D02*
X142750000Y-91750000D01*
X142750000Y-101750000D02*
X142750000Y-100750000D01*
X140750000Y-101750000D02*
X142750000Y-101750000D01*
X140750000Y-93750000D02*
X140750000Y-101750000D01*
X129750000Y-93750000D02*
X140750000Y-93750000D01*
X129750000Y-101750000D02*
X129750000Y-93750000D01*
X136750000Y-92750000D02*
X136750000Y-91750000D01*
X133750000Y-92750000D02*
X136750000Y-92750000D01*
X133750000Y-91750000D02*
X133750000Y-92750000D01*
X138750000Y-92750000D02*
X138750000Y-91750000D01*
X140750000Y-92750000D02*
X138750000Y-92750000D01*
X140750000Y-91750000D02*
X140750000Y-92750000D01*
X131750000Y-92750000D02*
X131750000Y-91750000D01*
X129750000Y-92750000D02*
X131750000Y-92750000D01*
X129750000Y-91750000D02*
X129750000Y-92750000D01*
X141750000Y-93750000D02*
X142750000Y-93750000D01*
X141750000Y-94750000D02*
X141750000Y-93750000D01*
X142750000Y-94750000D02*
X141750000Y-94750000D01*
X142750000Y-95750000D02*
X142750000Y-94750000D01*
X141750000Y-95750000D02*
X142750000Y-95750000D01*
X141750000Y-96750000D02*
X141750000Y-95750000D01*
X142750000Y-96750000D02*
X141750000Y-96750000D01*
X142750000Y-97750000D02*
X142750000Y-96750000D01*
X141750000Y-97750000D02*
X142750000Y-97750000D01*
X141750000Y-98750000D02*
X141750000Y-97750000D01*
X142750000Y-98750000D02*
X141750000Y-98750000D01*
X142750000Y-99750000D02*
X142750000Y-98750000D01*
X141750000Y-99750000D02*
X142750000Y-99750000D01*
X141750000Y-100750000D02*
X141750000Y-99750000D01*
X142750000Y-100750000D02*
X141750000Y-100750000D01*
X128750000Y-93750000D02*
X127750000Y-93750000D01*
X128750000Y-94750000D02*
X128750000Y-93750000D01*
X127750000Y-94750000D02*
X128750000Y-94750000D01*
X127750000Y-95750000D02*
X127750000Y-94750000D01*
X128750000Y-95750000D02*
X127750000Y-95750000D01*
X128750000Y-96750000D02*
X128750000Y-95750000D01*
X127750000Y-96750000D02*
X128750000Y-96750000D01*
X127750000Y-97750000D02*
X127750000Y-96750000D01*
X128750000Y-97750000D02*
X127750000Y-97750000D01*
X128750000Y-98750000D02*
X128750000Y-97750000D01*
X127750000Y-98750000D02*
X128750000Y-98750000D01*
X127750000Y-99750000D02*
X127750000Y-98750000D01*
X128750000Y-99750000D02*
X127750000Y-99750000D01*
X128750000Y-100750000D02*
X128750000Y-99750000D01*
X127750000Y-100750000D02*
X128750000Y-100750000D01*
D11*
X148130000Y-93880000D02*
X158370000Y-93880000D01*
X148130000Y-98521000D02*
X158370000Y-98521000D01*
X148130000Y-93880000D02*
X148130000Y-98521000D01*
X158370000Y-93880000D02*
X158370000Y-98521000D01*
X148130000Y-95390000D02*
X158370000Y-95390000D01*
X151400000Y-93880000D02*
X151400000Y-95390000D01*
X155101000Y-93880000D02*
X155101000Y-95390000D01*
X177130000Y-93880000D02*
X187370000Y-93880000D01*
X177130000Y-98521000D02*
X187370000Y-98521000D01*
X177130000Y-93880000D02*
X177130000Y-98521000D01*
X187370000Y-93880000D02*
X187370000Y-98521000D01*
X177130000Y-95390000D02*
X187370000Y-95390000D01*
X180400000Y-93880000D02*
X180400000Y-95390000D01*
X184101000Y-93880000D02*
X184101000Y-95390000D01*
X195130000Y-93880000D02*
X205370000Y-93880000D01*
X195130000Y-98521000D02*
X205370000Y-98521000D01*
X195130000Y-93880000D02*
X195130000Y-98521000D01*
X205370000Y-93880000D02*
X205370000Y-98521000D01*
X195130000Y-95390000D02*
X205370000Y-95390000D01*
X198400000Y-93880000D02*
X198400000Y-95390000D01*
X202101000Y-93880000D02*
X202101000Y-95390000D01*
X130130000Y-93880000D02*
X140370000Y-93880000D01*
X130130000Y-98521000D02*
X140370000Y-98521000D01*
X130130000Y-93880000D02*
X130130000Y-98521000D01*
X140370000Y-93880000D02*
X140370000Y-98521000D01*
X130130000Y-95390000D02*
X140370000Y-95390000D01*
X133400000Y-93880000D02*
X133400000Y-95390000D01*
X137101000Y-93880000D02*
X137101000Y-95390000D01*
X183430000Y-83000000D02*
X183430000Y-82000000D01*
X183430000Y-83000000D02*
X183930000Y-82500000D01*
X183930000Y-82500000D02*
X183430000Y-82000000D01*
X184090000Y-76280000D02*
X184090000Y-71550000D01*
X196510000Y-76280000D02*
X196510000Y-71550000D01*
X196510000Y-84770000D02*
X184090000Y-84770000D01*
X196510000Y-71550000D02*
X184090000Y-71550000D01*
X184090000Y-84770000D02*
X184090000Y-79030000D01*
X196510000Y-84770000D02*
X196510000Y-79030000D01*
X152250000Y-82000000D02*
X145750000Y-82000000D01*
X152250000Y-78500000D02*
X152250000Y-85500000D01*
X161000000Y-85500000D02*
X152250000Y-85500000D01*
X161000000Y-78500000D02*
X152250000Y-78500000D01*
X138250000Y-84500000D02*
X137000000Y-84500000D01*
X138500000Y-79500000D02*
X137000000Y-79500000D01*
X150500000Y-84500000D02*
X138250000Y-84500000D01*
X150250000Y-79500000D02*
X138500000Y-79500000D01*
X161000000Y-84500000D02*
X150500000Y-84500000D01*
X161000000Y-79500000D02*
X150250000Y-79500000D01*
X161000000Y-79500000D02*
X161000000Y-84500000D01*
X162000000Y-78500000D02*
X161000000Y-78500000D01*
X162000000Y-78500000D02*
X162000000Y-85500000D01*
X162000000Y-85500000D02*
X161000000Y-85500000D01*
X137000000Y-79500000D02*
X137000000Y-84500000D01*
X145750000Y-78500000D02*
X136000000Y-78500000D01*
X136000000Y-78500000D02*
X136000000Y-85500000D01*
X145750000Y-85500000D02*
X136000000Y-85500000D01*
X145750000Y-78500000D02*
X145750000Y-85500000D01*
X180516666Y-120000000D02*
X180516666Y-128800000D01*
X180516666Y-128800000D02*
X171316666Y-128800000D01*
X177816666Y-114100000D02*
X180516666Y-114100000D01*
X180516666Y-114100000D02*
X180516666Y-116000000D01*
X171316666Y-128800000D02*
X171316666Y-114100000D01*
X171316666Y-114100000D02*
X173916666Y-114100000D01*
X147850000Y-120000000D02*
X147850000Y-128800000D01*
X147850000Y-128800000D02*
X138650000Y-128800000D01*
X145150000Y-114100000D02*
X147850000Y-114100000D01*
X147850000Y-114100000D02*
X147850000Y-116000000D01*
X138650000Y-128800000D02*
X138650000Y-114100000D01*
X138650000Y-114100000D02*
X141250000Y-114100000D01*
X138400000Y-107980000D02*
X138400000Y-108310000D01*
X138400000Y-108310000D02*
X131980000Y-108310000D01*
X131980000Y-108310000D02*
X131980000Y-107980000D01*
X138400000Y-106020000D02*
X138400000Y-105690000D01*
X138400000Y-105690000D02*
X131980000Y-105690000D01*
X131980000Y-105690000D02*
X131980000Y-106020000D01*
X156400000Y-107980000D02*
X156400000Y-108310000D01*
X156400000Y-108310000D02*
X149980000Y-108310000D01*
X149980000Y-108310000D02*
X149980000Y-107980000D01*
X156400000Y-106020000D02*
X156400000Y-105690000D01*
X156400000Y-105690000D02*
X149980000Y-105690000D01*
X149980000Y-105690000D02*
X149980000Y-106020000D01*
X185400000Y-107980000D02*
X185400000Y-108310000D01*
X185400000Y-108310000D02*
X178980000Y-108310000D01*
X178980000Y-108310000D02*
X178980000Y-107980000D01*
X185400000Y-106020000D02*
X185400000Y-105690000D01*
X185400000Y-105690000D02*
X178980000Y-105690000D01*
X178980000Y-105690000D02*
X178980000Y-106020000D01*
X203400000Y-107980000D02*
X203400000Y-108310000D01*
X203400000Y-108310000D02*
X196980000Y-108310000D01*
X196980000Y-108310000D02*
X196980000Y-107980000D01*
X203400000Y-106020000D02*
X203400000Y-105690000D01*
X203400000Y-105690000D02*
X196980000Y-105690000D01*
X196980000Y-105690000D02*
X196980000Y-106020000D01*
X166650000Y-80000000D02*
X166650000Y-71200000D01*
X166650000Y-71200000D02*
X175850000Y-71200000D01*
X169350000Y-85900000D02*
X166650000Y-85900000D01*
X166650000Y-85900000D02*
X166650000Y-84000000D01*
X175850000Y-71200000D02*
X175850000Y-85900000D01*
X175850000Y-85900000D02*
X173250000Y-85900000D01*
X164183333Y-120000000D02*
X164183333Y-128800000D01*
X164183333Y-128800000D02*
X154983333Y-128800000D01*
X161483333Y-114100000D02*
X164183333Y-114100000D01*
X164183333Y-114100000D02*
X164183333Y-116000000D01*
X154983333Y-128800000D02*
X154983333Y-114100000D01*
X154983333Y-114100000D02*
X157583333Y-114100000D01*
X196850000Y-120000000D02*
X196850000Y-128800000D01*
X196850000Y-128800000D02*
X187650000Y-128800000D01*
X194150000Y-114100000D02*
X196850000Y-114100000D01*
X196850000Y-114100000D02*
X196850000Y-116000000D01*
X187650000Y-128800000D02*
X187650000Y-114100000D01*
X187650000Y-114100000D02*
X190250000Y-114100000D01*
D10*
X152488095Y-92332380D02*
X153059523Y-92332380D01*
X152773809Y-93332380D02*
X152773809Y-92332380D01*
X153297619Y-92332380D02*
X153916666Y-92332380D01*
X153583333Y-92713333D01*
X153726190Y-92713333D01*
X153821428Y-92760952D01*
X153869047Y-92808571D01*
X153916666Y-92903809D01*
X153916666Y-93141904D01*
X153869047Y-93237142D01*
X153821428Y-93284761D01*
X153726190Y-93332380D01*
X153440476Y-93332380D01*
X153345238Y-93284761D01*
X153297619Y-93237142D01*
X181488095Y-92332380D02*
X182059523Y-92332380D01*
X181773809Y-93332380D02*
X181773809Y-92332380D01*
X182345238Y-92427619D02*
X182392857Y-92380000D01*
X182488095Y-92332380D01*
X182726190Y-92332380D01*
X182821428Y-92380000D01*
X182869047Y-92427619D01*
X182916666Y-92522857D01*
X182916666Y-92618095D01*
X182869047Y-92760952D01*
X182297619Y-93332380D01*
X182916666Y-93332380D01*
X199488095Y-92332380D02*
X200059523Y-92332380D01*
X199773809Y-93332380D02*
X199773809Y-92332380D01*
X200916666Y-93332380D02*
X200345238Y-93332380D01*
X200630952Y-93332380D02*
X200630952Y-92332380D01*
X200535714Y-92475238D01*
X200440476Y-92570476D01*
X200345238Y-92618095D01*
X134488095Y-92332380D02*
X135059523Y-92332380D01*
X134773809Y-93332380D02*
X134773809Y-92332380D01*
X135821428Y-92665714D02*
X135821428Y-93332380D01*
X135583333Y-92284761D02*
X135345238Y-92999047D01*
X135964285Y-92999047D01*
X192758809Y-86127380D02*
X192758809Y-85127380D01*
X192996904Y-85127380D01*
X193139761Y-85175000D01*
X193235000Y-85270238D01*
X193282619Y-85365476D01*
X193330238Y-85555952D01*
X193330238Y-85698809D01*
X193282619Y-85889285D01*
X193235000Y-85984523D01*
X193139761Y-86079761D01*
X192996904Y-86127380D01*
X192758809Y-86127380D01*
X193711190Y-85841666D02*
X194187380Y-85841666D01*
X193615952Y-86127380D02*
X193949285Y-85127380D01*
X194282619Y-86127380D01*
X194473095Y-85127380D02*
X195044523Y-85127380D01*
X194758809Y-86127380D02*
X194758809Y-85127380D01*
X195330238Y-85841666D02*
X195806428Y-85841666D01*
X195235000Y-86127380D02*
X195568333Y-85127380D01*
X195901666Y-86127380D01*
X196758809Y-86127380D02*
X196187380Y-86127380D01*
X196473095Y-86127380D02*
X196473095Y-85127380D01*
X196377857Y-85270238D01*
X196282619Y-85365476D01*
X196187380Y-85413095D01*
X148916666Y-81928571D02*
X148583333Y-81928571D01*
X148583333Y-82452380D02*
X148583333Y-81452380D01*
X149059523Y-81452380D01*
X149964285Y-82452380D02*
X149392857Y-82452380D01*
X149678571Y-82452380D02*
X149678571Y-81452380D01*
X149583333Y-81595238D01*
X149488095Y-81690476D01*
X149392857Y-81738095D01*
X175619046Y-125333333D02*
X176333332Y-125333333D01*
X176476189Y-125380952D01*
X176571427Y-125476190D01*
X176619046Y-125619047D01*
X176619046Y-125714285D01*
X175714285Y-124904761D02*
X175666666Y-124857142D01*
X175619046Y-124761904D01*
X175619046Y-124523809D01*
X175666666Y-124428571D01*
X175714285Y-124380952D01*
X175809523Y-124333333D01*
X175904761Y-124333333D01*
X176047618Y-124380952D01*
X176619046Y-124952380D01*
X176619046Y-124333333D01*
X142952380Y-125333333D02*
X143666666Y-125333333D01*
X143809523Y-125380952D01*
X143904761Y-125476190D01*
X143952380Y-125619047D01*
X143952380Y-125714285D01*
X143285714Y-124428571D02*
X143952380Y-124428571D01*
X142904761Y-124666666D02*
X143619047Y-124904761D01*
X143619047Y-124285714D01*
X135083333Y-105452380D02*
X134750000Y-104976190D01*
X134511904Y-105452380D02*
X134511904Y-104452380D01*
X134892857Y-104452380D01*
X134988095Y-104500000D01*
X135035714Y-104547619D01*
X135083333Y-104642857D01*
X135083333Y-104785714D01*
X135035714Y-104880952D01*
X134988095Y-104928571D01*
X134892857Y-104976190D01*
X134511904Y-104976190D01*
X135940476Y-104785714D02*
X135940476Y-105452380D01*
X135702380Y-104404761D02*
X135464285Y-105119047D01*
X136083333Y-105119047D01*
X153083333Y-105452380D02*
X152750000Y-104976190D01*
X152511904Y-105452380D02*
X152511904Y-104452380D01*
X152892857Y-104452380D01*
X152988095Y-104500000D01*
X153035714Y-104547619D01*
X153083333Y-104642857D01*
X153083333Y-104785714D01*
X153035714Y-104880952D01*
X152988095Y-104928571D01*
X152892857Y-104976190D01*
X152511904Y-104976190D01*
X153416666Y-104452380D02*
X154035714Y-104452380D01*
X153702380Y-104833333D01*
X153845238Y-104833333D01*
X153940476Y-104880952D01*
X153988095Y-104928571D01*
X154035714Y-105023809D01*
X154035714Y-105261904D01*
X153988095Y-105357142D01*
X153940476Y-105404761D01*
X153845238Y-105452380D01*
X153559523Y-105452380D01*
X153464285Y-105404761D01*
X153416666Y-105357142D01*
X182023333Y-105452380D02*
X181690000Y-104976190D01*
X181451904Y-105452380D02*
X181451904Y-104452380D01*
X181832857Y-104452380D01*
X181928095Y-104500000D01*
X181975714Y-104547619D01*
X182023333Y-104642857D01*
X182023333Y-104785714D01*
X181975714Y-104880952D01*
X181928095Y-104928571D01*
X181832857Y-104976190D01*
X181451904Y-104976190D01*
X182404285Y-104547619D02*
X182451904Y-104500000D01*
X182547142Y-104452380D01*
X182785238Y-104452380D01*
X182880476Y-104500000D01*
X182928095Y-104547619D01*
X182975714Y-104642857D01*
X182975714Y-104738095D01*
X182928095Y-104880952D01*
X182356666Y-105452380D01*
X182975714Y-105452380D01*
X200083333Y-105452380D02*
X199750000Y-104976190D01*
X199511904Y-105452380D02*
X199511904Y-104452380D01*
X199892857Y-104452380D01*
X199988095Y-104500000D01*
X200035714Y-104547619D01*
X200083333Y-104642857D01*
X200083333Y-104785714D01*
X200035714Y-104880952D01*
X199988095Y-104928571D01*
X199892857Y-104976190D01*
X199511904Y-104976190D01*
X201035714Y-105452380D02*
X200464285Y-105452380D01*
X200750000Y-105452380D02*
X200750000Y-104452380D01*
X200654761Y-104595238D01*
X200559523Y-104690476D01*
X200464285Y-104738095D01*
X170952380Y-75333333D02*
X171666666Y-75333333D01*
X171809523Y-75380952D01*
X171904761Y-75476190D01*
X171952380Y-75619047D01*
X171952380Y-75714285D01*
X170952380Y-74666666D02*
X170952380Y-74571428D01*
X171000000Y-74476190D01*
X171047619Y-74428571D01*
X171142857Y-74380952D01*
X171333333Y-74333333D01*
X171571428Y-74333333D01*
X171761904Y-74380952D01*
X171857142Y-74428571D01*
X171904761Y-74476190D01*
X171952380Y-74571428D01*
X171952380Y-74666666D01*
X171904761Y-74761904D01*
X171857142Y-74809523D01*
X171761904Y-74857142D01*
X171571428Y-74904761D01*
X171333333Y-74904761D01*
X171142857Y-74857142D01*
X171047619Y-74809523D01*
X171000000Y-74761904D01*
X170952380Y-74666666D01*
X159285713Y-125333333D02*
X159999999Y-125333333D01*
X160142856Y-125380952D01*
X160238094Y-125476190D01*
X160285713Y-125619047D01*
X160285713Y-125714285D01*
X159285713Y-124952380D02*
X159285713Y-124333333D01*
X159666666Y-124666666D01*
X159666666Y-124523809D01*
X159714285Y-124428571D01*
X159761904Y-124380952D01*
X159857142Y-124333333D01*
X160095237Y-124333333D01*
X160190475Y-124380952D01*
X160238094Y-124428571D01*
X160285713Y-124523809D01*
X160285713Y-124809523D01*
X160238094Y-124904761D01*
X160190475Y-124952380D01*
X191952380Y-125333333D02*
X192666666Y-125333333D01*
X192809523Y-125380952D01*
X192904761Y-125476190D01*
X192952380Y-125619047D01*
X192952380Y-125714285D01*
X192952380Y-124333333D02*
X192952380Y-124904761D01*
X192952380Y-124619047D02*
X191952380Y-124619047D01*
X192095238Y-124714285D01*
X192190476Y-124809523D01*
X192238095Y-124904761D01*
M02*
