<?xml version="1.0" encoding="UTF-8" standalone="no"?>
<!-- Generator: Adobe Illustrator 13.0.0, SVG Export Plug-In . SVG Version: 6.00 Build 14948)  -->

<svg
   xmlns:dc="http://purl.org/dc/elements/1.1/"
   xmlns:cc="http://creativecommons.org/ns#"
   xmlns:rdf="http://www.w3.org/1999/02/22-rdf-syntax-ns#"
   xmlns:svg="http://www.w3.org/2000/svg"
   xmlns="http://www.w3.org/2000/svg"
   xmlns:sodipodi="http://sodipodi.sourceforge.net/DTD/sodipodi-0.dtd"
   xmlns:inkscape="http://www.inkscape.org/namespaces/inkscape"
   version="1.1"
   x="0px"
   y="0px"
   width="96"
   height="20"
   viewBox="0 0 96 20"
   enable-background="new 0 0 166 157"
   xml:space="preserve"
   id="svg4790"
   sodipodi:docname="logo.svg"
   inkscape:version="0.91 r13725"><metadata
     id="metadata4796"><rdf:RDF><cc:Work
         rdf:about=""><dc:format>image/svg+xml</dc:format><dc:type
           rdf:resource="http://purl.org/dc/dcmitype/StillImage" /><dc:title></dc:title></cc:Work></rdf:RDF></metadata><defs
     id="defs4794"><filter
       style="color-interpolation-filters:sRGB"
       inkscape:label="Greyscale"
       id="filter4840"><feColorMatrix
         values="0.21 0.72 0.072 0 0 0.21 0.72 0.072 0 0 0.21 0.72 0.072 0 0 0 0 0 1 0 "
         id="feColorMatrix4838" /></filter><filter
       style="color-interpolation-filters:sRGB"
       inkscape:label="Greyscale"
       id="filter4844"><feColorMatrix
         values="0.21 0.72 0.072 0 0 0.21 0.72 0.072 0 0 0.21 0.72 0.072 0 0 0 0 0 1 0 "
         id="feColorMatrix4842" /></filter><filter
       style="color-interpolation-filters:sRGB"
       inkscape:label="Greyscale"
       id="filter4848"><feColorMatrix
         values="0.21 0.72 0.072 0 0 0.21 0.72 0.072 0 0 0.21 0.72 0.072 0 0 0 0 0 1 0 "
         id="feColorMatrix4846" /></filter><filter
       style="color-interpolation-filters:sRGB"
       inkscape:label="Greyscale"
       id="filter4852"><feColorMatrix
         values="0.21 0.72 0.072 0 0 0.21 0.72 0.072 0 0 0.21 0.72 0.072 0 0 0 0 0 1 0 "
         id="feColorMatrix4850" /></filter></defs><sodipodi:namedview
     pagecolor="#ffffff"
     bordercolor="#666666"
     borderopacity="1"
     objecttolerance="10"
     gridtolerance="10"
     guidetolerance="10"
     inkscape:pageopacity="0"
     inkscape:pageshadow="2"
     inkscape:window-width="1366"
     inkscape:window-height="705"
     id="namedview4792"
     showgrid="false"
     inkscape:zoom="3.7607271"
     inkscape:cx="76.831033"
     inkscape:cy="39.106807"
     inkscape:window-x="-8"
     inkscape:window-y="-8"
     inkscape:window-maximized="1"
     inkscape:current-layer="svg4790" /><filter
     id="AI_GaußscherWeichzeichner_1.5"><feGaussianBlur
       stdDeviation="1.5"
       id="feGaussianBlur4485" /></filter><g
     id="g5348"
     transform="matrix(0.12416329,0,0,0.12416329,1.3852745,-1.2015724)"><g
       style="filter:url(#filter4852)"
       id="Ebene_6"><path
         id="path4488"
         d="m 131.244,98.191 c 0,10.063 3.485,17.457 3.485,17.457 0,0 -27.636,-4.625 -27.636,-23.375 0,-6.427 13.901,-24.079 37.632,-24.079 0.001,0 -13.481,9.813 -13.481,29.997 z m -31.081,-34.372 7.141,22.663 c 0,0 12.263,-11.496 12.263,-23.163 0,-6.25 -4.338,-9.405 -8.147,-12.583 -2.975,-2.482 -5.375,-4.667 -5.375,-4.667 z m -6.215,-38.75 c 0,0 -15.455,6 -27.466,14.25 -12.011,8.25 -14.112,10.833 -14.112,10.833 0,0 -0.252,-1.333 0.336,-2.417 0.697,-1.284 1.512,-2.583 1.512,-2.583 0,0 -8.568,7.583 -11.676,12.917 -3.108,5.334 -5.124,9.5 -5.124,9.5 L 82.021,39.486 c 0,0 3.273,-4.833 6.131,-8.333 2.841,-3.482 5.796,-6.084 5.796,-6.084 z m 34.945,-3.25 c 0,0 -59.134,13.833 -78.285,32.5 C 30.1,74.308 18.352,76.986 18.352,76.986 c 0,0 20.327,22.997 37.463,35.997 17.136,13 28.726,15.167 32.086,15.167 9.299,0 21.671,-24.339 21.671,-41 0,-11.532 -5.375,-20.918 -5.375,-26.664 0,-23.167 24.696,-38.667 24.696,-38.667 z m -82.319,79.246 c 0,6.456 7.56,13.759 7.56,19.417 0,9.047 11.65,20.417 22.764,20.417 2.912,0 4.536,-0.391 4.536,-3.5 0,-4.935 -6.048,-11.633 -6.048,-18.584 0,-6.554 -15.808,-19.916 -27.131,-19.916 -1.68,0 -1.681,0.916 -1.681,2.166 z"
         inkscape:connector-curvature="0"
         style="fill:#757575" /></g><g
       style="filter:url(#filter4848)"
       id="Ebene_5"><radialGradient
         gradientUnits="userSpaceOnUse"
         r="39.209999"
         cy="113"
         cx="132.66701"
         id="SVGID_1_"><stop
           id="stop4491"
           style="stop-color:#FFFAB4"
           offset="0" /><stop
           id="stop4493"
           style="stop-color:#FFF7A8"
           offset="0.0648" /><stop
           id="stop4495"
           style="stop-color:#FFF08A"
           offset="0.1808" /><stop
           id="stop4497"
           style="stop-color:#FFE458"
           offset="0.3334" /><stop
           id="stop4499"
           style="stop-color:#FFDA2B"
           offset="0.456" /><stop
           id="stop4501"
           style="stop-color:#FFCB6A"
           offset="0.6099" /><stop
           id="stop4503"
           style="stop-color:#FF8A0F"
           offset="1" /></radialGradient><path
         id="path4506"
         d="m 143.876,66.208 c -23.543,0 -37.334,17.656 -37.334,24.083 0,18.75 27.417,23.375 27.417,23.375 0,0 -3.458,-7.395 -3.458,-17.457 0,-20.188 13.375,-30.001 13.375,-30.001 z"
         style="fill:url(#SVGID_1_)"
         inkscape:connector-curvature="0" /><linearGradient
         y2="67.398697"
         x2="125.1542"
         y1="90.803703"
         x1="123.2012"
         gradientUnits="userSpaceOnUse"
         id="SVGID_2_"><stop
           id="stop4508"
           style="stop-color:#FFB273"
           offset="0" /><stop
           id="stop4510"
           style="stop-color:#FFB97F"
           offset="0.1643" /><stop
           id="stop4512"
           style="stop-color:#FFCA9D"
           offset="0.4584" /><stop
           id="stop4514"
           style="stop-color:#FFE7CF"
           offset="0.8455" /><stop
           id="stop4516"
           style="stop-color:#FFF3E5"
           offset="1" /></linearGradient><path
         id="path4519"
         d="m 128.767,91.268 c 1.196,-11.03 6.17,-18.569 9.834,-22.747 l 0,0 c -14.017,1.699 -23.728,10.002 -27.859,16.384 l 0,0 c -0.119,0.18 -0.55,0.669 -0.658,0.846 z"
         style="fill:url(#SVGID_2_)"
         inkscape:connector-curvature="0" /><linearGradient
         y2="98.1465"
         x2="119.2324"
         y1="90.1465"
         x1="118.5654"
         gradientUnits="userSpaceOnUse"
         id="SVGID_3_"><stop
           id="stop4521"
           style="stop-color:#FFB273"
           offset="0" /><stop
           id="stop4523"
           style="stop-color:#FFBE6C"
           offset="0.2624" /><stop
           id="stop4525"
           style="stop-color:#FFDC58"
           offset="0.73" /><stop
           id="stop4527"
           style="stop-color:#FFF14B"
           offset="1" /></linearGradient><path
         id="path4530"
         d="M 117.875,95.208 C 111.917,93 106.551,90 106.551,90 c 0.078,-1.298 0.663,-2.994 1.727,-4.885 0,0 4.723,1.135 11.598,3.197 6.875,2.062 10.837,3.563 10.837,3.563 -0.137,1.388 -0.211,2.832 -0.211,4.334 0,0.883 0.026,1.745 0.075,2.583 -0.001,0 -6.744,-1.376 -12.702,-3.584 z"
         style="fill:url(#SVGID_3_)"
         inkscape:connector-curvature="0" /><linearGradient
         y2="98.749001"
         x2="131.9102"
         y1="98.749001"
         x1="106.542"
         gradientUnits="userSpaceOnUse"
         id="SVGID_4_"><stop
           id="stop4532"
           style="stop-color:#FFD76F"
           offset="0" /><stop
           id="stop4534"
           style="stop-color:#FFDD7B"
           offset="0.2262" /><stop
           id="stop4536"
           style="stop-color:#FFED99"
           offset="0.6294" /><stop
           id="stop4538"
           style="stop-color:#FFFFBB"
           offset="1" /></linearGradient><path
         id="path4541"
         d="m 129.418,98.584 c -9.75,-1.833 -22.085,-8.167 -22.085,-8.167 L 106.551,90 c -0.006,0.1 -0.009,0.196 -0.009,0.291 0,1.087 0.092,2.127 0.266,3.121 l 0.693,0.671 c 0,0 7.208,8.834 23.375,13.167 l 1.034,0.248 c -0.597,-2.389 -1.141,-5.358 -1.334,-8.706 z"
         style="fill:url(#SVGID_4_)"
         inkscape:connector-curvature="0" /><linearGradient
         y2="65.708504"
         x2="125.7207"
         y1="114.3174"
         x1="125.7207"
         gradientUnits="userSpaceOnUse"
         id="SVGID_5_"><stop
           id="stop4543"
           style="stop-color:#C26600"
           offset="0" /><stop
           id="stop4545"
           style="stop-color:#8D3800"
           offset="1" /></linearGradient><path
         id="path4548"
         d="m 133.874,114.158 c 0.006,-0.042 -27.699,-4.537 -27.834,-23.867 l 0,0 c 0.037,-3.521 3.563,-9.535 10.022,-14.838 l 0,0 c 6.466,-5.281 15.914,-9.745 27.813,-9.745 l 0,0 0,0.501 0,-0.501 1.526,0 -1.232,0.903 c 0,0.004 -0.8,0.586 -2.034,1.803 l 0,0 c -1.232,1.214 -2.884,3.047 -4.533,5.504 l 0,0 c -3.3,4.914 -6.602,12.309 -6.604,22.29 l 0,0 c 0,4.975 0.855,9.296 1.711,12.368 l 0,0 c 0.855,3.074 1.698,4.874 1.7,4.878 l 0,0 0.404,0.864 z m -17.178,-37.93 c -6.322,5.129 -9.69,11.157 -9.655,14.063 l 0,0 c -0.005,9.097 6.646,14.798 13.436,18.273 l 0,0 c 5.293,2.703 10.586,3.994 12.655,4.431 l 0,0 c -0.902,-2.259 -3.13,-8.652 -3.132,-16.788 l 0,0 c 0.005,-16.869 9.224,-26.583 12.467,-29.477 l 0,0 c -10.981,0.334 -19.713,4.551 -25.771,9.498 z"
         style="fill:url(#SVGID_5_)"
         inkscape:connector-curvature="0" /><linearGradient
         y2="44.084"
         x2="109.291"
         y1="84.5"
         x1="109.291"
         gradientUnits="userSpaceOnUse"
         id="SVGID_6_"><stop
           id="stop4550"
           style="stop-color:#FF9700"
           offset="0" /><stop
           id="stop4552"
           style="stop-color:#FFB423"
           offset="1" /></linearGradient><path
         id="path4555"
         d="m 105.5,44.083 c 0,0 2.382,2.185 5.333,4.667 3.779,3.179 8.083,6.333 8.083,12.583 C 118.916,73 106.75,84.5 106.75,84.5 L 99.666,61.833 Z"
         style="fill:url(#SVGID_6_)"
         inkscape:connector-curvature="0" /><path
         id="path4557"
         d="m 118.387,57.762 c 0.338,1.072 0.529,2.253 0.529,3.571 0,1.003 -0.09,2.005 -0.254,2.999 l -0.412,0.001 -16.25,0 -1.579,-0.084 -0.755,-2.416 1.316,-4.005 0.768,0.088 16.333,0 z"
         inkscape:connector-curvature="0"
         style="fill:#ffd600" /><path
         id="path4559"
         d="m 104.698,77.936 -2.115,-6.769 2.167,-0.084 11.333,0 0.38,0.034 c -1.188,2.528 -2.668,4.861 -4.111,6.848 z"
         inkscape:connector-curvature="0"
         style="fill:#ffd600" /><linearGradient
         y2="47.610802"
         x2="109.0566"
         y1="80.648399"
         x1="109.0566"
         gradientUnits="userSpaceOnUse"
         id="SVGID_7_"><stop
           id="stop4561"
           style="stop-color:#FF9700"
           offset="0" /><stop
           id="stop4563"
           style="stop-color:#FFAC33"
           offset="0.0803" /><stop
           id="stop4565"
           style="stop-color:#FFBF62"
           offset="0.1679" /><stop
           id="stop4567"
           style="stop-color:#FFD08C"
           offset="0.2608" /><stop
           id="stop4569"
           style="stop-color:#FFDFB0"
           offset="0.3573" /><stop
           id="stop4571"
           style="stop-color:#FFEACD"
           offset="0.4587" /><stop
           id="stop4573"
           style="stop-color:#FFF4E3"
           offset="0.5663" /><stop
           id="stop4575"
           style="stop-color:#FFFAF3"
           offset="0.6832" /><stop
           id="stop4577"
           style="stop-color:#FFFEFC"
           offset="0.8161" /><stop
           id="stop4579"
           style="stop-color:#FFFFFF"
           offset="1" /></linearGradient><path
         id="path4582"
         d="m 101.48,61.849 5.877,18.8 c 1.029,-1.168 2.294,-2.712 3.554,-4.507 l 0,0 c 2.939,-4.158 5.748,-9.681 5.722,-14.807 l 0,0 c -0.017,-2.656 -0.855,-4.478 -2.196,-6.208 l 0,0 c -1.345,-1.714 -3.246,-3.23 -5.176,-4.846 l 0,0 c -1.156,-0.973 -2.225,-1.898 -3.101,-2.669 l 0,0 z"
         style="opacity:0.6;fill:url(#SVGID_7_)"
         inkscape:connector-curvature="0" /><linearGradient
         y2="42.3335"
         x2="105.166"
         y1="72.166496"
         x1="105.166"
         gradientUnits="userSpaceOnUse"
         id="SVGID_8_"><stop
           id="stop4584"
           style="stop-color:#F1D578"
           offset="0" /><stop
           id="stop4586"
           style="stop-color:#E6C672"
           offset="0.0456" /><stop
           id="stop4588"
           style="stop-color:#CDA365"
           offset="0.1688" /><stop
           id="stop4590"
           style="stop-color:#B8865A"
           offset="0.2997" /><stop
           id="stop4592"
           style="stop-color:#A87052"
           offset="0.4389" /><stop
           id="stop4594"
           style="stop-color:#9D604C"
           offset="0.59" /><stop
           id="stop4596"
           style="stop-color:#965748"
           offset="0.762" /><stop
           id="stop4598"
           style="stop-color:#945447"
           offset="1" /></linearGradient><path
         id="path4601"
         d="m 109.833,47.667 c 0,0 -1.834,4.144 -2.667,9.333 -1.083,6.75 -1,15.167 -1,15.167 l -5.666,-14.5 4.166,-15.333 z"
         style="opacity:0.6;fill:url(#SVGID_8_)"
         inkscape:connector-curvature="0" /><linearGradient
         y2="43.190399"
         x2="109.2773"
         y1="85.412102"
         x1="109.2773"
         gradientUnits="userSpaceOnUse"
         id="SVGID_9_"><stop
           id="stop4603"
           style="stop-color:#A54D00"
           offset="0" /><stop
           id="stop4605"
           style="stop-color:#752E00"
           offset="1" /></linearGradient><path
         id="path4608"
         d="m 99.14,61.829 5.886,-17.902 0.239,-0.737 0.572,0.524 c 0.006,0.004 2.374,2.179 5.317,4.653 l 0,0 c 3.739,3.145 8.258,6.445 8.262,12.966 l 0,0 c -0.043,12.002 -12.308,23.482 -12.324,23.529 l 0,0 -0.582,0.55 z m 1.05,0.008 6.79,21.726 c 1.014,-1.034 3.226,-3.401 5.441,-6.56 l 0,0 c 3.018,-4.289 5.999,-10.014 5.993,-15.67 l 0,0 c 0.002,-5.98 -4.087,-8.989 -7.905,-12.202 l 0,0 c -2.091,-1.758 -3.896,-3.367 -4.775,-4.161 l 0,0 z"
         style="fill:url(#SVGID_9_)"
         inkscape:connector-curvature="0" /></g><g
       style="filter:url(#filter4844)"
       id="Ebene_2"><linearGradient
         y2="23.0835"
         x2="65.458504"
         y1="65.583504"
         x1="65.458504"
         gradientUnits="userSpaceOnUse"
         id="SVGID_10_"><stop
           id="stop4611"
           style="stop-color:#F8B200"
           offset="0" /><stop
           id="stop4613"
           style="stop-color:#F88400"
           offset="1" /></linearGradient><path
         id="path4616"
         d="m 93.5,23.083 c 0,0 -15.333,6 -27.25,14.25 -11.917,8.25 -14,10.833 -14,10.833 0,0 -0.25,-1.333 0.333,-2.416 0.691,-1.284 1.5,-2.583 1.5,-2.583 0,0 -8.5,7.583 -11.583,12.917 -3.083,5.334 -5.083,9.5 -5.083,9.5 L 81.667,37.5 c 0,0 3.25,-4.833 6.083,-8.333 2.818,-3.482 5.75,-6.084 5.75,-6.084 z"
         style="fill:url(#SVGID_10_)"
         inkscape:connector-curvature="0" /><linearGradient
         y2="19.834"
         x2="73.334503"
         y1="126.167"
         x1="73.334503"
         gradientUnits="userSpaceOnUse"
         id="SVGID_11_"><stop
           id="stop4618"
           style="stop-color:#FFFF00"
           offset="0.2582" /><stop
           id="stop4620"
           style="stop-color:#FF5D00"
           offset="1" /></linearGradient><path
         id="path4623"
         d="m 128.168,19.833 c 0,0 -58.667,13.833 -77.667,32.5 -20.345,19.989 -32,22.667 -32,22.667 0,0 20.167,23 37.167,36 17,13 28.5,15.167 31.833,15.167 9.226,0 21.5,-24.339 21.5,-41 0,-11.535 -5.333,-20.922 -5.333,-26.667 0,-23.167 24.5,-38.667 24.5,-38.667 z"
         style="fill:url(#SVGID_11_)"
         inkscape:connector-curvature="0" /><linearGradient
         y2="19.834"
         x2="100.3818"
         y1="126.167"
         x1="100.3818"
         gradientUnits="userSpaceOnUse"
         id="SVGID_12_"><stop
           id="stop4625"
           style="stop-color:#FFC800"
           offset="0" /><stop
           id="stop4627"
           style="stop-color:#FFB400"
           offset="0.0857" /><stop
           id="stop4629"
           style="stop-color:#FF9500"
           offset="0.2458" /><stop
           id="stop4631"
           style="stop-color:#FF7C00"
           offset="0.413" /><stop
           id="stop4633"
           style="stop-color:#FF6B00"
           offset="0.588" /><stop
           id="stop4635"
           style="stop-color:#FF6000"
           offset="0.776" /><stop
           id="stop4637"
           style="stop-color:#FF5D00"
           offset="1" /></linearGradient><path
         id="path4640"
         d="m 72.596,121.641 c 7.667,3.699 12.845,4.526 14.905,4.526 9.226,0 21.5,-24.339 21.5,-41 0,-11.535 -5.333,-20.922 -5.333,-26.667 0,-23.167 24.5,-38.667 24.5,-38.667 0,0 -6.19,1.459 -15.2,4.07 0,0 -20.967,16.93 -20.967,30.763 0,14.256 8.167,14.843 8.167,28 0,21.668 -27.572,38.975 -27.572,38.975 z"
         style="fill:url(#SVGID_12_)"
         inkscape:connector-curvature="0" /><linearGradient
         y2="39.3428"
         x2="58.2192"
         y1="115.7168"
         x1="58.2192"
         gradientUnits="userSpaceOnUse"
         id="SVGID_13_"><stop
           id="stop4642"
           style="stop-color:#FFC800"
           offset="0" /><stop
           id="stop4644"
           style="stop-color:#FF8800"
           offset="1" /></linearGradient><path
         id="path4647"
         d="m 62.279,115.717 c -2.098,-1.387 -4.304,-2.952 -6.612,-4.717 -2.812,-2.15 -5.71,-4.574 -8.59,-7.122 0,0 7.09,-1.545 7.09,-17.545 0,-24 -14.896,-23.894 -14.896,-23.894 3.373,-2.744 7.125,-6.072 11.23,-10.105 4.765,-4.682 12.026,-9.06 20.23,-12.991 0,0 -4.23,9.158 -4.23,12.825 0,10.927 10.667,15.74 10.667,33.333 C 77.167,109 62.279,115.717 62.279,115.717 Z"
         style="fill:url(#SVGID_13_)"
         inkscape:connector-curvature="0" /><linearGradient
         y2="25.191401"
         x2="71.432098"
         y1="88"
         x1="71.432098"
         gradientUnits="userSpaceOnUse"
         id="SVGID_14_"><stop
           id="stop4649"
           style="stop-color:#FFEF2C"
           offset="0" /><stop
           id="stop4651"
           style="stop-color:#FFF036"
           offset="0.0182" /><stop
           id="stop4653"
           style="stop-color:#FFF365"
           offset="0.1094" /><stop
           id="stop4655"
           style="stop-color:#FFF68E"
           offset="0.2064" /><stop
           id="stop4657"
           style="stop-color:#FFF9B1"
           offset="0.3075" /><stop
           id="stop4659"
           style="stop-color:#FFFBCE"
           offset="0.414" /><stop
           id="stop4661"
           style="stop-color:#FFFDE3"
           offset="0.5278" /><stop
           id="stop4663"
           style="stop-color:#FFFEF3"
           offset="0.6523" /><stop
           id="stop4665"
           style="stop-color:#FFFFFC"
           offset="0.7955" /><stop
           id="stop4667"
           style="stop-color:#FFFFFF"
           offset="1" /></linearGradient><path
         id="path4670"
         d="m 101.167,58.5 c 0.019,-12.504 6.558,-22.683 12.896,-29.699 1.188,-1.312 2.373,-2.517 3.516,-3.61 -5.554,1.55 -12.702,3.672 -20.315,6.259 C 80.369,37.153 61.074,45.369 52.255,54.116 40.071,66.088 30.88,72.006 25.288,74.875 30.213,78.836 44.686,88 73.167,88 c 18.418,0 28.742,-5.219 32.959,-8.019 -0.466,-3.417 -1.31,-6.637 -2.19,-9.609 -1.294,-4.465 -2.728,-8.255 -2.769,-11.872 z"
         style="opacity:0.75;fill:url(#SVGID_14_)"
         inkscape:connector-curvature="0" /><linearGradient
         y2="56.015598"
         x2="68.041496"
         y1="96.841797"
         x1="68.041496"
         gradientUnits="userSpaceOnUse"
         id="SVGID_15_"><stop
           id="stop4672"
           style="stop-color:#FFB926"
           offset="0" /><stop
           id="stop4674"
           style="stop-color:#FFBE36"
           offset="0.0283" /><stop
           id="stop4676"
           style="stop-color:#FFCD65"
           offset="0.1186" /><stop
           id="stop4678"
           style="stop-color:#FFDB8E"
           offset="0.2145" /><stop
           id="stop4680"
           style="stop-color:#FFE6B1"
           offset="0.3146" /><stop
           id="stop4682"
           style="stop-color:#FFEFCE"
           offset="0.42" /><stop
           id="stop4684"
           style="stop-color:#FFF6E3"
           offset="0.5327" /><stop
           id="stop4686"
           style="stop-color:#FFFBF3"
           offset="0.6559" /><stop
           id="stop4688"
           style="stop-color:#FFFEFC"
           offset="0.7976" /><stop
           id="stop4690"
           style="stop-color:#FFFFFF"
           offset="1" /></linearGradient><path
         id="path4693"
         d="m 54.833,56.05 c 0,0 26.417,-1.8 26.417,20.45 0,21.334 -22.583,20.334 -22.583,20.334 0,0 15.25,-4.4 15.25,-19.483 0,-18.583 -19.084,-21.301 -19.084,-21.301 z"
         style="opacity:0.75;fill:url(#SVGID_15_)"
         inkscape:connector-curvature="0" /><linearGradient
         y2="91"
         x2="81.542503"
         y1="120.834"
         x1="81.542503"
         gradientUnits="userSpaceOnUse"
         id="SVGID_16_"><stop
           id="stop4695"
           style="stop-color:#FFFFFF"
           offset="0" /><stop
           id="stop4697"
           style="stop-color:#FFF7EC"
           offset="0.1199" /><stop
           id="stop4699"
           style="stop-color:#FFE4BC"
           offset="0.3624" /><stop
           id="stop4701"
           style="stop-color:#FFC56E"
           offset="0.7018" /><stop
           id="stop4703"
           style="stop-color:#FFA725"
           offset="1" /></linearGradient><path
         id="path4706"
         d="M 100.5,106.334 C 103.699,98.822 105.084,91 105.084,91 c 0,0 -8.917,21.917 -18.167,21.917 -7.333,0 -25.25,-8.25 -25.25,-8.25 L 58,108.334 c 0,0 18.917,12.5 29,12.5 5.419,0 10.347,-7.096 13.5,-14.5 z"
         style="opacity:0.75;fill:url(#SVGID_16_)"
         inkscape:connector-curvature="0" /><g
         id="auge"><linearGradient
           y2="64.625"
           x2="44.1563"
           y1="79.9375"
           x1="44.1563"
           gradientUnits="userSpaceOnUse"
           id="SVGID_17_"><stop
             id="stop4708"
             style="stop-color:#D9D9D9"
             offset="0" /><stop
             id="stop4710"
             style="stop-color:#FFFFFF"
             offset="1" /></linearGradient><circle
           id="circle4713"
           r="7.6560001"
           cy="72.280998"
           cx="44.155998"
           style="fill:url(#SVGID_17_)" /><path
           id="path4715"
           d="m 44.156,79.773 c 6.844,0 7.656,-7.24 7.656,-7.24 0,0 -0.333,7.656 -7.656,7.656 -7.323,0 -7.656,-7.655 -7.656,-7.655 0,0 0.813,7.239 7.656,7.239 z"
           inkscape:connector-curvature="0"
           style="fill:#ffffff" /><path
           id="path4717"
           d="m 44.156,65.325 c 6.844,0 7.656,7.24 7.656,7.24 0,0 -0.333,-7.656 -7.656,-7.656 -7.323,0 -7.656,7.656 -7.656,7.656 0,0 0.813,-7.24 7.656,-7.24 z"
           inkscape:connector-curvature="0"
           style="fill:#7f683d" /><linearGradient
           y2="67.528801"
           x2="44.2188"
           y1="77.716301"
           x1="44.2188"
           gradientUnits="userSpaceOnUse"
           id="SVGID_18_"><stop
             id="stop4719"
             style="stop-color:#E0E0E0"
             offset="0" /><stop
             id="stop4721"
             style="stop-color:#ADADAD"
             offset="0.092" /><stop
             id="stop4723"
             style="stop-color:#828282"
             offset="0.1839" /><stop
             id="stop4725"
             style="stop-color:#616161"
             offset="0.2727" /><stop
             id="stop4727"
             style="stop-color:#494949"
             offset="0.357" /><stop
             id="stop4729"
             style="stop-color:#3A3A3A"
             offset="0.4348" /><stop
             id="stop4731"
             style="stop-color:#353535"
             offset="0.5" /><stop
             id="stop4733"
             style="stop-color:#3B3B3B"
             offset="0.5601" /><stop
             id="stop4735"
             style="stop-color:#4D4D4D"
             offset="0.6433" /><stop
             id="stop4737"
             style="stop-color:#6B6B6B"
             offset="0.7401" /><stop
             id="stop4739"
             style="stop-color:#949494"
             offset="0.847" /><stop
             id="stop4741"
             style="stop-color:#C8C8C8"
             offset="0.9611" /><stop
             id="stop4743"
             style="stop-color:#DBDBDB"
             offset="1" /></linearGradient><circle
           id="circle4746"
           r="5.0939999"
           cy="72.623001"
           cx="44.219002"
           style="fill:url(#SVGID_18_);stroke:#000000;stroke-width:0.5" /><path
           id="path4748"
           d="m 47.375,69.203 c 0,0.794 -1.418,1.154 -3.167,1.154 -1.749,0 -3.167,-0.36 -3.167,-1.154 0,-0.794 1.418,-1.646 3.167,-1.646 1.749,0.001 3.167,0.852 3.167,1.646 z"
           inkscape:connector-curvature="0"
           style="opacity:0.5;fill:#ffffff" /><ellipse
           id="ellipse4750"
           ry="0.81300002"
           rx="1.79"
           cy="76.811996"
           cx="44.292"
           style="opacity:0.5;fill:#ffffff" /></g></g><g
       style="filter:url(#filter4840)"
       id="Ebene_4"><radialGradient
         gradientUnits="userSpaceOnUse"
         r="31.75"
         cy="135.75"
         cx="69.5"
         id="SVGID_19_"><stop
           id="stop4754"
           style="stop-color:#FFF8AB"
           offset="0" /><stop
           id="stop4756"
           style="stop-color:#FFA200"
           offset="1" /></radialGradient><path
         id="path4759"
         d="m 48.167,96.917 c 11.233,0 26.917,13.362 26.917,19.916 0,6.951 6,13.649 6,18.584 0,3.109 -1.611,3.5 -4.5,3.5 C 65.558,138.917 54,127.547 54,118.5 c 0,-5.658 -7.5,-12.961 -7.5,-19.417 0,-1.25 0,-2.166 1.667,-2.166 z"
         style="fill:url(#SVGID_19_)"
         inkscape:connector-curvature="0" /><radialGradient
         gradientUnits="userSpaceOnUse"
         r="30"
         cy="136.25"
         cx="69.75"
         id="SVGID_20_"><stop
           id="stop4761"
           style="stop-color:#FFF8AB"
           offset="0" /><stop
           id="stop4763"
           style="stop-color:#FFF05A"
           offset="0.1923" /><stop
           id="stop4765"
           style="stop-color:#FFD960"
           offset="0.3077" /><stop
           id="stop4767"
           style="stop-color:#FFDA63"
           offset="0.4698" /><stop
           id="stop4769"
           style="stop-color:#FFDB6D"
           offset="0.5959" /><stop
           id="stop4771"
           style="stop-color:#FFDE7D"
           offset="0.7099" /><stop
           id="stop4773"
           style="stop-color:#FFE395"
           offset="0.8167" /><stop
           id="stop4775"
           style="stop-color:#FFE8B3"
           offset="0.9176" /><stop
           id="stop4777"
           style="stop-color:#FFEED1"
           offset="1" /></radialGradient><path
         id="path4780"
         d="m 50.668,99.833 c 9.555,0 22.896,11.771 22.896,17.545 0,6.124 5.104,12.025 5.104,16.372 0,2.739 -1.37,3.083 -3.828,3.083 -9.379,0 -18.756,-10.694 -18.756,-18.666 0,-4.983 -6.833,-10.738 -6.833,-16.426 -10e-4,-1.101 -10e-4,-1.908 1.417,-1.908 z"
         style="fill:url(#SVGID_20_)"
         inkscape:connector-curvature="0" /><linearGradient
         y2="19.3472"
         x2="73.003403"
         y1="139.41701"
         x1="73.003403"
         gradientUnits="userSpaceOnUse"
         id="SVGID_21_"><stop
           id="stop4782"
           style="stop-color:#B85D00"
           offset="0" /><stop
           id="stop4784"
           style="stop-color:#8A3600"
           offset="1" /></linearGradient><path
         id="path4787"
         d="m 53.499,118.5 c 0.039,-3.759 -3.755,-8.689 -5.989,-13.578 l 0,0 C 32.68,91.927 18.133,75.337 18.125,75.329 l 0,0 -0.553,-0.629 0.816,-0.187 c 0.002,-0.006 0.679,-0.155 2.066,-0.708 l 0,0 c 1.387,-0.555 3.458,-1.503 6.167,-3.075 l 0,0 c 5.417,-3.145 13.384,-8.785 23.53,-18.753 l 0,0 c 19.24,-18.849 77.862,-32.6 77.901,-32.63 l 0,0 0.383,0.909 c -0.004,0.004 -1.505,0.953 -3.785,2.754 l 0,0 c -2.281,1.802 -5.323,4.446 -8.362,7.804 l 0,0 c -6.082,6.723 -12.124,16.287 -12.119,27.686 l 0,0 c -0.038,5.487 5.319,15.001 5.333,26.667 l 0,0 c -0.006,8.45 -3.095,18.745 -7.348,26.978 l 0,0 c -4.28,8.206 -9.602,14.448 -14.651,14.521 l 0,0 c -1.664,-0.002 -5.09,-0.498 -10.056,-2.386 l 0,0 c 1.733,4.047 4.109,7.814 4.136,11.138 l 0,0 c 0.012,1.621 -0.445,2.737 -1.398,3.336 l 0,0 c -0.936,0.586 -2.137,0.656 -3.601,0.664 l 0,0 C 65.235,139.355 53.569,127.932 53.499,118.5 Z m 26.149,19.41 c 0.576,-0.373 0.923,-1.007 0.934,-2.493 l 0,0 c 0.031,-3.092 -2.694,-7.29 -4.508,-11.846 l 0,0 -0.424,-1.083 1.077,0.437 c 5.456,2.203 9.188,2.744 10.775,2.74 l 0,0 c 4.172,0.074 9.601,-5.852 13.763,-13.981 l 0,0 c 4.193,-8.102 7.238,-18.308 7.234,-26.518 l 0,0 c 0.013,-11.402 -5.294,-20.664 -5.331,-26.667 l 0,0 c 0.037,-19.203 16.455,-33.061 22.518,-37.538 l 0,0 c -4.936,1.248 -16.327,4.266 -29.065,8.595 l 0,0 C 79.609,35.33 60.216,43.473 50.85,52.689 l 0,0 C 33.439,69.796 22.335,74.292 19.396,75.256 l 0,0 c 1.189,1.336 4.338,4.843 8.617,9.34 l 0,0 c 5.496,5.777 12.842,13.171 20.236,19.642 l 0,0 0.081,0.072 0.045,0.1 c 2.123,4.8 6.085,9.705 6.123,14.09 l 0,0 c -0.01,4.308 2.797,9.332 6.999,13.233 l 0,0 c 4.193,3.909 9.749,6.688 15.086,6.682 l 0,0 c 1.425,0.007 2.475,-0.116 3.065,-0.505 z"
         style="fill:url(#SVGID_21_)"
         inkscape:connector-curvature="0" /></g></g><text
     xml:space="preserve"
     style="font-style:normal;font-weight:normal;font-size:20px;line-height:125%;font-family:sans-serif;letter-spacing:0px;word-spacing:0px;fill:#ececec;fill-opacity:1;stroke:none;stroke-width:1px;stroke-linecap:butt;stroke-linejoin:miter;stroke-opacity:1;"
     x="22.336105"
     y="15.479597"
     id="text3507"
     sodipodi:linespacing="125%"><tspan
       sodipodi:role="line"
       id="tspan3509"
       x="22.336105"
       y="15.479597"
       style="font-style:normal;font-variant:normal;font-weight:normal;font-stretch:normal;font-size:20px;line-height:125%;font-family:'Century Gothic';-inkscape-font-specification:'Century Gothic, Normal';text-align:start;writing-mode:lr-tb;text-anchor:start;fill:#ececec;">Aqua<tspan
   style="font-weight:bold;fill:#ececec;"
   id="tspan3513">PI</tspan></tspan></text>
</svg>